G04 #@! TF.GenerationSoftware,KiCad,Pcbnew,8.0.4*
G04 #@! TF.CreationDate,2024-07-20T21:58:39+05:30*
G04 #@! TF.ProjectId,OTAPS,4f544150-532e-46b6-9963-61645f706362,1*
G04 #@! TF.SameCoordinates,Original*
G04 #@! TF.FileFunction,Legend,Top*
G04 #@! TF.FilePolarity,Positive*
%FSLAX46Y46*%
G04 Gerber Fmt 4.6, Leading zero omitted, Abs format (unit mm)*
G04 Created by KiCad (PCBNEW 8.0.4) date 2024-07-20 21:58:39*
%MOMM*%
%LPD*%
G01*
G04 APERTURE LIST*
G04 Aperture macros list*
%AMRoundRect*
0 Rectangle with rounded corners*
0 $1 Rounding radius*
0 $2 $3 $4 $5 $6 $7 $8 $9 X,Y pos of 4 corners*
0 Add a 4 corners polygon primitive as box body*
4,1,4,$2,$3,$4,$5,$6,$7,$8,$9,$2,$3,0*
0 Add four circle primitives for the rounded corners*
1,1,$1+$1,$2,$3*
1,1,$1+$1,$4,$5*
1,1,$1+$1,$6,$7*
1,1,$1+$1,$8,$9*
0 Add four rect primitives between the rounded corners*
20,1,$1+$1,$2,$3,$4,$5,0*
20,1,$1+$1,$4,$5,$6,$7,0*
20,1,$1+$1,$6,$7,$8,$9,0*
20,1,$1+$1,$8,$9,$2,$3,0*%
G04 Aperture macros list end*
%ADD10C,0.200000*%
%ADD11C,0.100000*%
%ADD12C,0.150000*%
%ADD13C,0.120000*%
%ADD14R,2.600000X2.600000*%
%ADD15C,2.600000*%
%ADD16C,3.200000*%
%ADD17RoundRect,0.375000X-0.375000X0.625000X-0.375000X-0.625000X0.375000X-0.625000X0.375000X0.625000X0*%
%ADD18RoundRect,0.500000X-1.400000X0.500000X-1.400000X-0.500000X1.400000X-0.500000X1.400000X0.500000X0*%
%ADD19R,1.800000X1.800000*%
%ADD20C,1.800000*%
%ADD21RoundRect,0.200000X0.275000X-0.200000X0.275000X0.200000X-0.275000X0.200000X-0.275000X-0.200000X0*%
%ADD22RoundRect,0.250001X0.924999X-0.499999X0.924999X0.499999X-0.924999X0.499999X-0.924999X-0.499999X0*%
%ADD23R,1.700000X1.700000*%
%ADD24O,1.700000X1.700000*%
%ADD25RoundRect,0.200000X-0.200000X-0.275000X0.200000X-0.275000X0.200000X0.275000X-0.200000X0.275000X0*%
%ADD26RoundRect,0.250000X1.000000X-1.950000X1.000000X1.950000X-1.000000X1.950000X-1.000000X-1.950000X0*%
%ADD27R,3.500000X3.500000*%
%ADD28RoundRect,0.750000X-1.000000X0.750000X-1.000000X-0.750000X1.000000X-0.750000X1.000000X0.750000X0*%
%ADD29RoundRect,0.875000X-0.875000X0.875000X-0.875000X-0.875000X0.875000X-0.875000X0.875000X0.875000X0*%
%ADD30RoundRect,0.250000X-0.650000X0.412500X-0.650000X-0.412500X0.650000X-0.412500X0.650000X0.412500X0*%
%ADD31R,3.000000X3.000000*%
%ADD32C,3.000000*%
%ADD33O,2.000000X1.200000*%
%ADD34C,1.700000*%
G04 APERTURE END LIST*
D10*
G36*
X178902221Y-61431558D02*
G01*
X178941173Y-61470511D01*
X178985266Y-61558695D01*
X178985266Y-61759098D01*
X178941174Y-61847281D01*
X178902221Y-61886234D01*
X178814040Y-61930325D01*
X178551730Y-61930325D01*
X178463550Y-61886235D01*
X178424594Y-61847279D01*
X178380504Y-61759099D01*
X178380504Y-61558695D01*
X178424594Y-61470514D01*
X178463550Y-61431558D01*
X178551731Y-61387468D01*
X178814040Y-61387468D01*
X178902221Y-61431558D01*
G37*
G36*
X179824948Y-65803342D02*
G01*
X178036060Y-65803342D01*
X178036060Y-65539389D01*
X178182425Y-65539389D01*
X178182425Y-65578407D01*
X178197357Y-65614455D01*
X178224947Y-65642045D01*
X178260995Y-65656977D01*
X178280504Y-65658898D01*
X179580504Y-65658898D01*
X179600013Y-65656977D01*
X179636061Y-65642045D01*
X179663651Y-65614455D01*
X179678583Y-65578407D01*
X179678583Y-65539389D01*
X179663651Y-65503341D01*
X179636061Y-65475751D01*
X179600013Y-65460819D01*
X179580504Y-65458898D01*
X178280504Y-65458898D01*
X178260995Y-65460819D01*
X178224947Y-65475751D01*
X178197357Y-65503341D01*
X178182425Y-65539389D01*
X178036060Y-65539389D01*
X178036060Y-64932865D01*
X178180748Y-64932865D01*
X178182425Y-64946058D01*
X178182425Y-64959359D01*
X178184864Y-64965247D01*
X178185668Y-64971572D01*
X178192268Y-64983121D01*
X178197357Y-64995407D01*
X178201864Y-64999914D01*
X178205027Y-65005449D01*
X178215541Y-65013591D01*
X178224947Y-65022997D01*
X178230837Y-65025436D01*
X178235876Y-65029339D01*
X178248704Y-65032837D01*
X178260995Y-65037929D01*
X178270972Y-65038911D01*
X178273519Y-65039606D01*
X178275486Y-65039355D01*
X178280504Y-65039850D01*
X179580504Y-65039850D01*
X179600013Y-65037929D01*
X179636061Y-65022997D01*
X179663651Y-64995407D01*
X179678583Y-64959359D01*
X179678583Y-64920341D01*
X179663651Y-64884293D01*
X179636061Y-64856703D01*
X179600013Y-64841771D01*
X179580504Y-64839850D01*
X178657061Y-64839850D01*
X179630118Y-64283818D01*
X179634231Y-64280897D01*
X179636061Y-64280140D01*
X179637926Y-64278274D01*
X179646103Y-64272470D01*
X179654245Y-64261955D01*
X179663651Y-64252550D01*
X179666090Y-64246659D01*
X179669993Y-64241621D01*
X179673490Y-64228795D01*
X179678583Y-64216502D01*
X179678583Y-64210123D01*
X179680259Y-64203978D01*
X179678583Y-64190792D01*
X179678583Y-64177484D01*
X179676142Y-64171592D01*
X179675339Y-64165271D01*
X179668741Y-64153725D01*
X179663651Y-64141436D01*
X179659143Y-64136928D01*
X179655981Y-64131394D01*
X179645466Y-64123251D01*
X179636061Y-64113846D01*
X179630170Y-64111406D01*
X179625132Y-64107504D01*
X179612304Y-64104005D01*
X179600013Y-64098914D01*
X179590033Y-64097931D01*
X179587488Y-64097237D01*
X179585521Y-64097487D01*
X179580504Y-64096993D01*
X178280504Y-64096993D01*
X178260995Y-64098914D01*
X178224947Y-64113846D01*
X178197357Y-64141436D01*
X178182425Y-64177484D01*
X178182425Y-64216502D01*
X178197357Y-64252550D01*
X178224947Y-64280140D01*
X178260995Y-64295072D01*
X178280504Y-64296993D01*
X179203948Y-64296993D01*
X178230890Y-64853026D01*
X178226779Y-64855944D01*
X178224947Y-64856703D01*
X178223080Y-64858569D01*
X178214905Y-64864373D01*
X178206762Y-64874887D01*
X178197357Y-64884293D01*
X178194917Y-64890183D01*
X178191015Y-64895222D01*
X178187516Y-64908050D01*
X178182425Y-64920341D01*
X178182425Y-64926716D01*
X178180748Y-64932865D01*
X178036060Y-64932865D01*
X178036060Y-63558436D01*
X178677663Y-63558436D01*
X178677663Y-63597454D01*
X178686410Y-63618571D01*
X178692595Y-63633503D01*
X178705032Y-63648656D01*
X178766937Y-63710560D01*
X178782090Y-63722997D01*
X178818139Y-63737928D01*
X178837647Y-63737927D01*
X178857155Y-63737928D01*
X178893204Y-63722997D01*
X178908357Y-63710560D01*
X178970262Y-63648656D01*
X178982699Y-63633503D01*
X178988883Y-63618571D01*
X178997631Y-63597454D01*
X178997631Y-63558436D01*
X179358616Y-63558436D01*
X179358616Y-63597454D01*
X179367363Y-63618571D01*
X179373548Y-63633503D01*
X179385985Y-63648656D01*
X179447890Y-63710560D01*
X179463043Y-63722997D01*
X179488533Y-63733554D01*
X179499091Y-63737928D01*
X179499092Y-63737928D01*
X179538109Y-63737928D01*
X179559226Y-63729180D01*
X179574158Y-63722996D01*
X179574162Y-63722991D01*
X179589311Y-63710560D01*
X179651214Y-63648656D01*
X179663651Y-63633503D01*
X179669103Y-63620339D01*
X179678583Y-63597454D01*
X179678583Y-63558436D01*
X179669103Y-63535549D01*
X179663652Y-63522388D01*
X179651215Y-63507235D01*
X179589311Y-63445330D01*
X179574158Y-63432893D01*
X179559226Y-63426708D01*
X179538109Y-63417961D01*
X179499091Y-63417961D01*
X179488533Y-63422334D01*
X179463043Y-63432892D01*
X179463037Y-63432897D01*
X179447889Y-63445329D01*
X179385984Y-63507234D01*
X179373552Y-63522382D01*
X179373547Y-63522388D01*
X179368096Y-63535549D01*
X179358616Y-63558436D01*
X178997631Y-63558436D01*
X178988151Y-63535549D01*
X178982700Y-63522388D01*
X178982694Y-63522382D01*
X178970263Y-63507234D01*
X178908358Y-63445329D01*
X178893204Y-63432893D01*
X178857156Y-63417961D01*
X178818138Y-63417961D01*
X178782090Y-63432893D01*
X178766936Y-63445329D01*
X178705031Y-63507234D01*
X178692599Y-63522382D01*
X178692594Y-63522388D01*
X178687143Y-63535549D01*
X178677663Y-63558436D01*
X178036060Y-63558436D01*
X178036060Y-61535087D01*
X178180504Y-61535087D01*
X178180504Y-61782706D01*
X178182425Y-61802215D01*
X178183800Y-61805535D01*
X178184055Y-61809119D01*
X178191061Y-61827427D01*
X178252966Y-61951238D01*
X178258252Y-61959636D01*
X178259262Y-61962073D01*
X178261513Y-61964816D01*
X178263409Y-61967828D01*
X178265406Y-61969560D01*
X178271698Y-61977227D01*
X178333603Y-62039132D01*
X178341273Y-62045426D01*
X178343003Y-62047421D01*
X178346010Y-62049314D01*
X178348757Y-62051568D01*
X178351196Y-62052578D01*
X178359593Y-62057864D01*
X178483402Y-62119768D01*
X178501710Y-62126774D01*
X178505293Y-62127028D01*
X178508614Y-62128404D01*
X178528123Y-62130325D01*
X178837647Y-62130325D01*
X178857156Y-62128404D01*
X178860476Y-62127028D01*
X178864059Y-62126774D01*
X178882368Y-62119768D01*
X179006177Y-62057864D01*
X179014571Y-62052579D01*
X179017015Y-62051568D01*
X179019763Y-62049312D01*
X179022768Y-62047421D01*
X179024498Y-62045425D01*
X179032168Y-62039131D01*
X179094072Y-61977226D01*
X179100364Y-61969559D01*
X179102361Y-61967828D01*
X179104254Y-61964820D01*
X179106509Y-61962073D01*
X179107520Y-61959631D01*
X179112804Y-61951237D01*
X179174709Y-61827427D01*
X179181715Y-61809119D01*
X179181969Y-61805535D01*
X179183345Y-61802215D01*
X179185266Y-61782706D01*
X179185266Y-61535087D01*
X179183345Y-61515578D01*
X179181969Y-61512257D01*
X179181715Y-61508674D01*
X179174709Y-61490365D01*
X179139290Y-61419527D01*
X179229921Y-61442185D01*
X179392987Y-61550896D01*
X179436414Y-61594322D01*
X179480504Y-61682502D01*
X179480504Y-61906516D01*
X179482425Y-61926025D01*
X179497357Y-61962073D01*
X179524947Y-61989663D01*
X179560995Y-62004595D01*
X179600013Y-62004595D01*
X179636061Y-61989663D01*
X179663651Y-61962073D01*
X179678583Y-61926025D01*
X179680504Y-61906516D01*
X179680504Y-61658897D01*
X179678583Y-61639388D01*
X179677207Y-61636067D01*
X179676953Y-61632484D01*
X179669947Y-61614176D01*
X179608043Y-61490366D01*
X179602758Y-61481970D01*
X179601747Y-61479529D01*
X179599491Y-61476781D01*
X179597600Y-61473776D01*
X179595604Y-61472045D01*
X179589310Y-61464376D01*
X179527405Y-61402472D01*
X179527352Y-61402429D01*
X179527332Y-61402398D01*
X179519834Y-61396258D01*
X179512252Y-61390035D01*
X179512216Y-61390020D01*
X179512165Y-61389978D01*
X179326450Y-61266168D01*
X179315680Y-61260425D01*
X179313694Y-61258954D01*
X179311348Y-61258115D01*
X179309152Y-61256945D01*
X179306728Y-61256465D01*
X179295234Y-61252359D01*
X179047615Y-61190454D01*
X179044233Y-61189953D01*
X179042870Y-61189389D01*
X179035519Y-61188665D01*
X179028222Y-61187586D01*
X179026763Y-61187803D01*
X179023361Y-61187468D01*
X178528123Y-61187468D01*
X178508614Y-61189389D01*
X178505293Y-61190764D01*
X178501710Y-61191019D01*
X178483401Y-61198025D01*
X178359592Y-61259930D01*
X178351193Y-61265216D01*
X178348757Y-61266226D01*
X178346013Y-61268477D01*
X178343002Y-61270373D01*
X178341269Y-61272370D01*
X178333603Y-61278662D01*
X178271698Y-61340567D01*
X178265406Y-61348233D01*
X178263409Y-61349966D01*
X178261513Y-61352977D01*
X178259262Y-61355721D01*
X178258252Y-61358157D01*
X178252966Y-61366556D01*
X178191061Y-61490365D01*
X178184055Y-61508674D01*
X178183800Y-61512257D01*
X178182425Y-61515578D01*
X178180504Y-61535087D01*
X178036060Y-61535087D01*
X178036060Y-60036866D01*
X178181289Y-60036866D01*
X178184055Y-60075786D01*
X178201505Y-60110684D01*
X178230981Y-60136250D01*
X178248881Y-60144241D01*
X179264277Y-60482706D01*
X178248881Y-60821172D01*
X178230981Y-60829163D01*
X178201505Y-60854728D01*
X178184055Y-60889627D01*
X178181289Y-60928547D01*
X178193627Y-60965563D01*
X178219192Y-60995039D01*
X178254091Y-61012489D01*
X178293011Y-61015255D01*
X178312127Y-61010908D01*
X179612127Y-60577575D01*
X179630027Y-60569584D01*
X179635424Y-60564902D01*
X179641816Y-60561707D01*
X179650033Y-60552232D01*
X179659503Y-60544019D01*
X179662697Y-60537630D01*
X179667381Y-60532230D01*
X179671347Y-60520329D01*
X179676953Y-60509120D01*
X179677459Y-60501996D01*
X179679720Y-60495215D01*
X179678830Y-60482702D01*
X179679719Y-60470200D01*
X179677459Y-60463422D01*
X179676953Y-60456295D01*
X179671344Y-60445078D01*
X179667380Y-60433184D01*
X179662699Y-60427787D01*
X179659504Y-60421396D01*
X179650027Y-60413176D01*
X179641815Y-60403708D01*
X179635427Y-60400514D01*
X179630028Y-60395831D01*
X179612127Y-60387839D01*
X178312127Y-59954505D01*
X178293011Y-59950158D01*
X178254091Y-59952924D01*
X178219193Y-59970374D01*
X178193627Y-59999850D01*
X178181289Y-60036866D01*
X178036060Y-60036866D01*
X178036060Y-57635088D01*
X178985266Y-57635088D01*
X178985266Y-58625564D01*
X178987187Y-58645073D01*
X179002119Y-58681121D01*
X179029709Y-58708711D01*
X179065757Y-58723643D01*
X179104775Y-58723643D01*
X179140823Y-58708711D01*
X179168413Y-58681121D01*
X179183345Y-58645073D01*
X179185266Y-58625564D01*
X179185266Y-57635088D01*
X179183345Y-57615579D01*
X179168413Y-57579531D01*
X179140823Y-57551941D01*
X179104775Y-57537009D01*
X179065757Y-57537009D01*
X179029709Y-57551941D01*
X179002119Y-57579531D01*
X178987187Y-57615579D01*
X178985266Y-57635088D01*
X178036060Y-57635088D01*
X178036060Y-55716145D01*
X178180504Y-55716145D01*
X178182425Y-55725750D01*
X178182425Y-55735549D01*
X178186214Y-55744697D01*
X178188156Y-55754405D01*
X178193607Y-55762545D01*
X178197357Y-55771597D01*
X178204356Y-55778596D01*
X178209867Y-55786825D01*
X178224873Y-55799113D01*
X178224947Y-55799187D01*
X178224979Y-55799200D01*
X178225034Y-55799245D01*
X178402510Y-55917562D01*
X178507841Y-56022892D01*
X178562490Y-56132190D01*
X178572933Y-56148780D01*
X178602410Y-56174344D01*
X178639426Y-56186683D01*
X178678346Y-56183917D01*
X178713245Y-56166468D01*
X178738809Y-56136991D01*
X178751148Y-56099975D01*
X178748382Y-56061055D01*
X178741376Y-56042746D01*
X178679471Y-55918937D01*
X178674184Y-55910538D01*
X178673175Y-55908102D01*
X178670924Y-55905359D01*
X178669028Y-55902347D01*
X178667029Y-55900613D01*
X178660739Y-55892949D01*
X178583831Y-55816040D01*
X179480504Y-55816040D01*
X179480504Y-56087468D01*
X179482425Y-56106977D01*
X179497357Y-56143025D01*
X179524947Y-56170615D01*
X179560995Y-56185547D01*
X179600013Y-56185547D01*
X179636061Y-56170615D01*
X179663651Y-56143025D01*
X179678583Y-56106977D01*
X179680504Y-56087468D01*
X179680504Y-55344611D01*
X179678583Y-55325102D01*
X179663651Y-55289054D01*
X179636061Y-55261464D01*
X179600013Y-55246532D01*
X179560995Y-55246532D01*
X179524947Y-55261464D01*
X179497357Y-55289054D01*
X179482425Y-55325102D01*
X179480504Y-55344611D01*
X179480504Y-55616040D01*
X178280504Y-55616040D01*
X178280433Y-55616046D01*
X178280399Y-55616040D01*
X178280297Y-55616060D01*
X178260995Y-55617961D01*
X178251846Y-55621750D01*
X178242139Y-55623692D01*
X178233998Y-55629143D01*
X178224947Y-55632893D01*
X178217947Y-55639892D01*
X178209719Y-55645403D01*
X178204283Y-55653556D01*
X178197357Y-55660483D01*
X178193568Y-55669629D01*
X178188076Y-55677868D01*
X178186174Y-55687478D01*
X178182425Y-55696531D01*
X178182425Y-55706434D01*
X178180504Y-55716145D01*
X178036060Y-55716145D01*
X178036060Y-54354135D01*
X178180504Y-54354135D01*
X178180504Y-54663659D01*
X178182425Y-54683168D01*
X178183800Y-54686488D01*
X178184055Y-54690072D01*
X178191061Y-54708380D01*
X178252966Y-54832191D01*
X178258251Y-54840588D01*
X178259262Y-54843027D01*
X178261514Y-54845771D01*
X178263409Y-54848781D01*
X178265406Y-54850513D01*
X178271699Y-54858180D01*
X178333604Y-54920084D01*
X178348757Y-54932521D01*
X178384806Y-54947452D01*
X178423824Y-54947451D01*
X178459872Y-54932520D01*
X178487462Y-54904930D01*
X178502393Y-54868881D01*
X178502392Y-54829863D01*
X178487461Y-54793815D01*
X178475024Y-54778662D01*
X178424594Y-54728233D01*
X178380504Y-54640052D01*
X178380504Y-54377743D01*
X178424594Y-54289562D01*
X178463550Y-54250606D01*
X178551731Y-54206516D01*
X178635706Y-54206516D01*
X178783627Y-54255823D01*
X179509793Y-54981988D01*
X179524946Y-54994425D01*
X179535504Y-54998798D01*
X179560995Y-55009357D01*
X179600013Y-55009357D01*
X179636061Y-54994425D01*
X179663651Y-54966835D01*
X179678583Y-54930787D01*
X179680504Y-54911278D01*
X179680504Y-54106516D01*
X179678583Y-54087007D01*
X179663651Y-54050959D01*
X179636061Y-54023369D01*
X179600013Y-54008437D01*
X179560995Y-54008437D01*
X179524947Y-54023369D01*
X179497357Y-54050959D01*
X179482425Y-54087007D01*
X179480504Y-54106516D01*
X179480504Y-54669856D01*
X178908358Y-54097710D01*
X178893204Y-54085274D01*
X178889883Y-54083898D01*
X178887170Y-54081545D01*
X178869270Y-54073553D01*
X178683556Y-54011648D01*
X178673883Y-54009448D01*
X178671442Y-54008437D01*
X178667904Y-54008088D01*
X178664441Y-54007301D01*
X178661806Y-54007488D01*
X178651933Y-54006516D01*
X178528123Y-54006516D01*
X178508614Y-54008437D01*
X178505293Y-54009812D01*
X178501710Y-54010067D01*
X178483401Y-54017073D01*
X178359592Y-54078978D01*
X178351193Y-54084264D01*
X178348757Y-54085274D01*
X178346013Y-54087525D01*
X178343002Y-54089421D01*
X178341269Y-54091418D01*
X178333603Y-54097710D01*
X178271698Y-54159615D01*
X178265406Y-54167281D01*
X178263409Y-54169014D01*
X178261513Y-54172025D01*
X178259262Y-54174769D01*
X178258252Y-54177205D01*
X178252966Y-54185604D01*
X178191061Y-54309413D01*
X178184055Y-54327722D01*
X178183800Y-54331305D01*
X178182425Y-54334626D01*
X178180504Y-54354135D01*
X178036060Y-54354135D01*
X178036060Y-52855914D01*
X178181289Y-52855914D01*
X178184055Y-52894834D01*
X178201505Y-52929732D01*
X178230981Y-52955298D01*
X178248881Y-52963289D01*
X179264277Y-53301754D01*
X178248881Y-53640220D01*
X178230981Y-53648211D01*
X178201505Y-53673776D01*
X178184055Y-53708675D01*
X178181289Y-53747595D01*
X178193627Y-53784611D01*
X178219192Y-53814087D01*
X178254091Y-53831537D01*
X178293011Y-53834303D01*
X178312127Y-53829956D01*
X179612127Y-53396623D01*
X179630027Y-53388632D01*
X179635424Y-53383950D01*
X179641816Y-53380755D01*
X179650033Y-53371280D01*
X179659503Y-53363067D01*
X179662697Y-53356678D01*
X179667381Y-53351278D01*
X179671347Y-53339377D01*
X179676953Y-53328168D01*
X179677459Y-53321044D01*
X179679720Y-53314263D01*
X179678830Y-53301750D01*
X179679719Y-53289248D01*
X179677459Y-53282470D01*
X179676953Y-53275343D01*
X179671344Y-53264126D01*
X179667380Y-53252232D01*
X179662699Y-53246835D01*
X179659504Y-53240444D01*
X179650027Y-53232224D01*
X179641815Y-53222756D01*
X179635427Y-53219562D01*
X179630028Y-53214879D01*
X179612127Y-53206887D01*
X178312127Y-52773553D01*
X178293011Y-52769206D01*
X178254091Y-52771972D01*
X178219193Y-52789422D01*
X178193627Y-52818898D01*
X178181289Y-52855914D01*
X178036060Y-52855914D01*
X178036060Y-52624762D01*
X179824948Y-52624762D01*
X179824948Y-65803342D01*
G37*
D11*
X122000000Y-131000000D02*
X122000000Y-129500000D01*
X124000000Y-131000000D02*
X122000000Y-131000000D01*
X131500000Y-131000000D02*
X129000000Y-131000000D01*
X131500000Y-129500000D02*
X131500000Y-131000000D01*
D12*
G36*
X125326315Y-131055180D02*
G01*
X125175390Y-131055180D01*
X125060877Y-131017009D01*
X124986764Y-130942896D01*
X124948270Y-130865909D01*
X124904887Y-130692375D01*
X124904887Y-130567986D01*
X124948270Y-130394452D01*
X124986764Y-130317465D01*
X125060876Y-130243352D01*
X125175391Y-130205180D01*
X125326315Y-130205180D01*
X125326315Y-131055180D01*
G37*
G36*
X128023554Y-130239438D02*
G01*
X128095497Y-130311381D01*
X128135839Y-130472748D01*
X128135839Y-130787613D01*
X128095497Y-130948979D01*
X128023555Y-131020922D01*
X127955039Y-131055180D01*
X127799973Y-131055180D01*
X127731457Y-131020922D01*
X127659514Y-130948979D01*
X127619173Y-130787613D01*
X127619173Y-130472748D01*
X127659514Y-130311381D01*
X127731456Y-130239439D01*
X127799974Y-130205180D01*
X127955038Y-130205180D01*
X128023554Y-130239438D01*
G37*
G36*
X128396950Y-131316291D02*
G01*
X124643776Y-131316291D01*
X124643776Y-130558752D01*
X124754887Y-130558752D01*
X124754887Y-130701609D01*
X124755138Y-130704162D01*
X124754976Y-130705255D01*
X124755785Y-130710728D01*
X124756328Y-130716241D01*
X124756750Y-130717262D01*
X124757126Y-130719799D01*
X124804745Y-130910275D01*
X124805130Y-130911354D01*
X124805169Y-130911894D01*
X124807496Y-130917975D01*
X124809692Y-130924121D01*
X124810014Y-130924556D01*
X124810424Y-130925626D01*
X124858043Y-131020864D01*
X124862007Y-131027163D01*
X124862765Y-131028991D01*
X124864453Y-131031047D01*
X124865875Y-131033307D01*
X124867373Y-131034606D01*
X124872092Y-131040356D01*
X124967330Y-131135594D01*
X124978695Y-131144922D01*
X124981185Y-131145953D01*
X124983220Y-131147718D01*
X124996646Y-131153712D01*
X125139502Y-131201331D01*
X125146757Y-131202980D01*
X125148588Y-131203739D01*
X125151241Y-131204000D01*
X125153839Y-131204591D01*
X125155813Y-131204450D01*
X125163220Y-131205180D01*
X125401315Y-131205180D01*
X125415947Y-131203739D01*
X125442983Y-131192540D01*
X125463675Y-131171848D01*
X125474874Y-131144812D01*
X125476315Y-131130180D01*
X125476315Y-130130180D01*
X125474874Y-130115548D01*
X125756328Y-130115548D01*
X125756328Y-130144812D01*
X125767527Y-130171848D01*
X125788219Y-130192540D01*
X125815255Y-130203739D01*
X125829887Y-130205180D01*
X126231077Y-130205180D01*
X126231077Y-130578990D01*
X125972744Y-130578990D01*
X125958112Y-130580431D01*
X125931076Y-130591630D01*
X125910384Y-130612322D01*
X125899185Y-130639358D01*
X125899185Y-130668622D01*
X125910384Y-130695658D01*
X125931076Y-130716350D01*
X125958112Y-130727549D01*
X125972744Y-130728990D01*
X126231077Y-130728990D01*
X126231077Y-131055180D01*
X125829887Y-131055180D01*
X125815255Y-131056621D01*
X125788219Y-131067820D01*
X125767527Y-131088512D01*
X125756328Y-131115548D01*
X125756328Y-131144812D01*
X125767527Y-131171848D01*
X125788219Y-131192540D01*
X125815255Y-131203739D01*
X125829887Y-131205180D01*
X126306077Y-131205180D01*
X126320709Y-131203739D01*
X126347745Y-131192540D01*
X126368437Y-131171848D01*
X126379636Y-131144812D01*
X126381077Y-131130180D01*
X126381077Y-130130180D01*
X126379636Y-130115548D01*
X126565852Y-130115548D01*
X126565852Y-130144812D01*
X126577051Y-130171848D01*
X126597743Y-130192540D01*
X126624779Y-130203739D01*
X126639411Y-130205180D01*
X127040601Y-130205180D01*
X127040601Y-131130180D01*
X127042042Y-131144812D01*
X127053241Y-131171848D01*
X127073933Y-131192540D01*
X127100969Y-131203739D01*
X127130233Y-131203739D01*
X127157269Y-131192540D01*
X127177961Y-131171848D01*
X127189160Y-131144812D01*
X127190601Y-131130180D01*
X127190601Y-130463514D01*
X127469173Y-130463514D01*
X127469173Y-130796847D01*
X127469424Y-130799400D01*
X127469262Y-130800493D01*
X127470071Y-130805966D01*
X127470614Y-130811479D01*
X127471036Y-130812500D01*
X127471412Y-130815037D01*
X127519031Y-131005513D01*
X127523978Y-131019359D01*
X127527298Y-131023840D01*
X127529432Y-131028991D01*
X127538759Y-131040356D01*
X127633997Y-131135594D01*
X127639747Y-131140314D01*
X127641046Y-131141811D01*
X127643300Y-131143230D01*
X127645362Y-131144922D01*
X127647194Y-131145680D01*
X127653489Y-131149643D01*
X127748727Y-131197262D01*
X127762458Y-131202517D01*
X127765147Y-131202708D01*
X127767636Y-131203739D01*
X127782268Y-131205180D01*
X127972744Y-131205180D01*
X127987376Y-131203739D01*
X127989865Y-131202707D01*
X127992553Y-131202517D01*
X128006285Y-131197262D01*
X128101523Y-131149643D01*
X128107822Y-131145678D01*
X128109650Y-131144921D01*
X128111706Y-131143232D01*
X128113966Y-131141811D01*
X128115265Y-131140312D01*
X128121015Y-131135594D01*
X128216253Y-131040356D01*
X128225581Y-131028991D01*
X128227715Y-131023837D01*
X128231034Y-131019359D01*
X128235981Y-131005513D01*
X128283600Y-130815037D01*
X128283975Y-130812500D01*
X128284398Y-130811479D01*
X128284940Y-130805966D01*
X128285750Y-130800493D01*
X128285587Y-130799400D01*
X128285839Y-130796847D01*
X128285839Y-130463514D01*
X128285587Y-130460960D01*
X128285750Y-130459868D01*
X128284940Y-130454394D01*
X128284398Y-130448882D01*
X128283975Y-130447860D01*
X128283600Y-130445324D01*
X128235981Y-130254848D01*
X128231034Y-130241002D01*
X128227715Y-130236523D01*
X128225581Y-130231370D01*
X128216253Y-130220005D01*
X128121015Y-130124767D01*
X128115266Y-130120049D01*
X128113967Y-130118551D01*
X128111707Y-130117128D01*
X128109650Y-130115440D01*
X128107822Y-130114683D01*
X128101524Y-130110718D01*
X128006286Y-130063098D01*
X127992554Y-130057843D01*
X127989864Y-130057651D01*
X127987376Y-130056621D01*
X127972744Y-130055180D01*
X127782268Y-130055180D01*
X127767636Y-130056621D01*
X127765147Y-130057651D01*
X127762458Y-130057843D01*
X127748727Y-130063098D01*
X127653488Y-130110718D01*
X127647195Y-130114679D01*
X127645362Y-130115439D01*
X127643297Y-130117133D01*
X127641046Y-130118551D01*
X127639750Y-130120044D01*
X127633997Y-130124767D01*
X127538759Y-130220005D01*
X127529432Y-130231370D01*
X127527298Y-130236520D01*
X127523978Y-130241002D01*
X127519031Y-130254848D01*
X127471412Y-130445324D01*
X127471036Y-130447860D01*
X127470614Y-130448882D01*
X127470071Y-130454394D01*
X127469262Y-130459868D01*
X127469424Y-130460960D01*
X127469173Y-130463514D01*
X127190601Y-130463514D01*
X127190601Y-130130180D01*
X127189160Y-130115548D01*
X127177961Y-130088512D01*
X127157269Y-130067820D01*
X127130233Y-130056621D01*
X127115601Y-130055180D01*
X126639411Y-130055180D01*
X126624779Y-130056621D01*
X126597743Y-130067820D01*
X126577051Y-130088512D01*
X126565852Y-130115548D01*
X126379636Y-130115548D01*
X126368437Y-130088512D01*
X126347745Y-130067820D01*
X126320709Y-130056621D01*
X126306077Y-130055180D01*
X125829887Y-130055180D01*
X125815255Y-130056621D01*
X125788219Y-130067820D01*
X125767527Y-130088512D01*
X125756328Y-130115548D01*
X125474874Y-130115548D01*
X125463675Y-130088512D01*
X125442983Y-130067820D01*
X125415947Y-130056621D01*
X125401315Y-130055180D01*
X125163220Y-130055180D01*
X125155814Y-130055909D01*
X125153839Y-130055769D01*
X125151241Y-130056359D01*
X125148588Y-130056621D01*
X125146757Y-130057379D01*
X125139503Y-130059029D01*
X124996645Y-130106649D01*
X124983220Y-130112643D01*
X124981185Y-130114407D01*
X124978695Y-130115439D01*
X124967330Y-130124767D01*
X124872092Y-130220005D01*
X124867373Y-130225754D01*
X124865875Y-130227054D01*
X124864453Y-130229313D01*
X124862765Y-130231370D01*
X124862007Y-130233197D01*
X124858043Y-130239497D01*
X124810424Y-130334735D01*
X124810014Y-130335804D01*
X124809692Y-130336240D01*
X124807496Y-130342385D01*
X124805169Y-130348467D01*
X124805130Y-130349006D01*
X124804745Y-130350086D01*
X124757126Y-130540562D01*
X124756750Y-130543098D01*
X124756328Y-130544120D01*
X124755785Y-130549632D01*
X124754976Y-130555106D01*
X124755138Y-130556198D01*
X124754887Y-130558752D01*
X124643776Y-130558752D01*
X124643776Y-129944069D01*
X128396950Y-129944069D01*
X128396950Y-131316291D01*
G37*
X130822200Y-124710839D02*
X130869819Y-124567982D01*
X130869819Y-124567982D02*
X130869819Y-124329887D01*
X130869819Y-124329887D02*
X130822200Y-124234649D01*
X130822200Y-124234649D02*
X130774580Y-124187030D01*
X130774580Y-124187030D02*
X130679342Y-124139411D01*
X130679342Y-124139411D02*
X130584104Y-124139411D01*
X130584104Y-124139411D02*
X130488866Y-124187030D01*
X130488866Y-124187030D02*
X130441247Y-124234649D01*
X130441247Y-124234649D02*
X130393628Y-124329887D01*
X130393628Y-124329887D02*
X130346009Y-124520363D01*
X130346009Y-124520363D02*
X130298390Y-124615601D01*
X130298390Y-124615601D02*
X130250771Y-124663220D01*
X130250771Y-124663220D02*
X130155533Y-124710839D01*
X130155533Y-124710839D02*
X130060295Y-124710839D01*
X130060295Y-124710839D02*
X129965057Y-124663220D01*
X129965057Y-124663220D02*
X129917438Y-124615601D01*
X129917438Y-124615601D02*
X129869819Y-124520363D01*
X129869819Y-124520363D02*
X129869819Y-124282268D01*
X129869819Y-124282268D02*
X129917438Y-124139411D01*
X130869819Y-123710839D02*
X129869819Y-123710839D01*
X129869819Y-123710839D02*
X129869819Y-123472744D01*
X129869819Y-123472744D02*
X129917438Y-123329887D01*
X129917438Y-123329887D02*
X130012676Y-123234649D01*
X130012676Y-123234649D02*
X130107914Y-123187030D01*
X130107914Y-123187030D02*
X130298390Y-123139411D01*
X130298390Y-123139411D02*
X130441247Y-123139411D01*
X130441247Y-123139411D02*
X130631723Y-123187030D01*
X130631723Y-123187030D02*
X130726961Y-123234649D01*
X130726961Y-123234649D02*
X130822200Y-123329887D01*
X130822200Y-123329887D02*
X130869819Y-123472744D01*
X130869819Y-123472744D02*
X130869819Y-123710839D01*
X130584104Y-122758458D02*
X130584104Y-122282268D01*
X130869819Y-122853696D02*
X129869819Y-122520363D01*
X129869819Y-122520363D02*
X130869819Y-122187030D01*
X128322200Y-124710839D02*
X128369819Y-124567982D01*
X128369819Y-124567982D02*
X128369819Y-124329887D01*
X128369819Y-124329887D02*
X128322200Y-124234649D01*
X128322200Y-124234649D02*
X128274580Y-124187030D01*
X128274580Y-124187030D02*
X128179342Y-124139411D01*
X128179342Y-124139411D02*
X128084104Y-124139411D01*
X128084104Y-124139411D02*
X127988866Y-124187030D01*
X127988866Y-124187030D02*
X127941247Y-124234649D01*
X127941247Y-124234649D02*
X127893628Y-124329887D01*
X127893628Y-124329887D02*
X127846009Y-124520363D01*
X127846009Y-124520363D02*
X127798390Y-124615601D01*
X127798390Y-124615601D02*
X127750771Y-124663220D01*
X127750771Y-124663220D02*
X127655533Y-124710839D01*
X127655533Y-124710839D02*
X127560295Y-124710839D01*
X127560295Y-124710839D02*
X127465057Y-124663220D01*
X127465057Y-124663220D02*
X127417438Y-124615601D01*
X127417438Y-124615601D02*
X127369819Y-124520363D01*
X127369819Y-124520363D02*
X127369819Y-124282268D01*
X127369819Y-124282268D02*
X127417438Y-124139411D01*
X128274580Y-123139411D02*
X128322200Y-123187030D01*
X128322200Y-123187030D02*
X128369819Y-123329887D01*
X128369819Y-123329887D02*
X128369819Y-123425125D01*
X128369819Y-123425125D02*
X128322200Y-123567982D01*
X128322200Y-123567982D02*
X128226961Y-123663220D01*
X128226961Y-123663220D02*
X128131723Y-123710839D01*
X128131723Y-123710839D02*
X127941247Y-123758458D01*
X127941247Y-123758458D02*
X127798390Y-123758458D01*
X127798390Y-123758458D02*
X127607914Y-123710839D01*
X127607914Y-123710839D02*
X127512676Y-123663220D01*
X127512676Y-123663220D02*
X127417438Y-123567982D01*
X127417438Y-123567982D02*
X127369819Y-123425125D01*
X127369819Y-123425125D02*
X127369819Y-123329887D01*
X127369819Y-123329887D02*
X127417438Y-123187030D01*
X127417438Y-123187030D02*
X127465057Y-123139411D01*
X128369819Y-122234649D02*
X128369819Y-122710839D01*
X128369819Y-122710839D02*
X127369819Y-122710839D01*
X121869819Y-124758458D02*
X121869819Y-124139411D01*
X121869819Y-124139411D02*
X122250771Y-124472744D01*
X122250771Y-124472744D02*
X122250771Y-124329887D01*
X122250771Y-124329887D02*
X122298390Y-124234649D01*
X122298390Y-124234649D02*
X122346009Y-124187030D01*
X122346009Y-124187030D02*
X122441247Y-124139411D01*
X122441247Y-124139411D02*
X122679342Y-124139411D01*
X122679342Y-124139411D02*
X122774580Y-124187030D01*
X122774580Y-124187030D02*
X122822200Y-124234649D01*
X122822200Y-124234649D02*
X122869819Y-124329887D01*
X122869819Y-124329887D02*
X122869819Y-124615601D01*
X122869819Y-124615601D02*
X122822200Y-124710839D01*
X122822200Y-124710839D02*
X122774580Y-124758458D01*
X122774580Y-123710839D02*
X122822200Y-123663220D01*
X122822200Y-123663220D02*
X122869819Y-123710839D01*
X122869819Y-123710839D02*
X122822200Y-123758458D01*
X122822200Y-123758458D02*
X122774580Y-123710839D01*
X122774580Y-123710839D02*
X122869819Y-123710839D01*
X121869819Y-123329887D02*
X121869819Y-122710840D01*
X121869819Y-122710840D02*
X122250771Y-123044173D01*
X122250771Y-123044173D02*
X122250771Y-122901316D01*
X122250771Y-122901316D02*
X122298390Y-122806078D01*
X122298390Y-122806078D02*
X122346009Y-122758459D01*
X122346009Y-122758459D02*
X122441247Y-122710840D01*
X122441247Y-122710840D02*
X122679342Y-122710840D01*
X122679342Y-122710840D02*
X122774580Y-122758459D01*
X122774580Y-122758459D02*
X122822200Y-122806078D01*
X122822200Y-122806078D02*
X122869819Y-122901316D01*
X122869819Y-122901316D02*
X122869819Y-123187030D01*
X122869819Y-123187030D02*
X122822200Y-123282268D01*
X122822200Y-123282268D02*
X122774580Y-123329887D01*
X121869819Y-122425125D02*
X122869819Y-122091792D01*
X122869819Y-122091792D02*
X121869819Y-121758459D01*
X124417438Y-124139411D02*
X124369819Y-124234649D01*
X124369819Y-124234649D02*
X124369819Y-124377506D01*
X124369819Y-124377506D02*
X124417438Y-124520363D01*
X124417438Y-124520363D02*
X124512676Y-124615601D01*
X124512676Y-124615601D02*
X124607914Y-124663220D01*
X124607914Y-124663220D02*
X124798390Y-124710839D01*
X124798390Y-124710839D02*
X124941247Y-124710839D01*
X124941247Y-124710839D02*
X125131723Y-124663220D01*
X125131723Y-124663220D02*
X125226961Y-124615601D01*
X125226961Y-124615601D02*
X125322200Y-124520363D01*
X125322200Y-124520363D02*
X125369819Y-124377506D01*
X125369819Y-124377506D02*
X125369819Y-124282268D01*
X125369819Y-124282268D02*
X125322200Y-124139411D01*
X125322200Y-124139411D02*
X125274580Y-124091792D01*
X125274580Y-124091792D02*
X124941247Y-124091792D01*
X124941247Y-124091792D02*
X124941247Y-124282268D01*
X125369819Y-123663220D02*
X124369819Y-123663220D01*
X124369819Y-123663220D02*
X125369819Y-123091792D01*
X125369819Y-123091792D02*
X124369819Y-123091792D01*
X125369819Y-122615601D02*
X124369819Y-122615601D01*
X124369819Y-122615601D02*
X124369819Y-122377506D01*
X124369819Y-122377506D02*
X124417438Y-122234649D01*
X124417438Y-122234649D02*
X124512676Y-122139411D01*
X124512676Y-122139411D02*
X124607914Y-122091792D01*
X124607914Y-122091792D02*
X124798390Y-122044173D01*
X124798390Y-122044173D02*
X124941247Y-122044173D01*
X124941247Y-122044173D02*
X125131723Y-122091792D01*
X125131723Y-122091792D02*
X125226961Y-122139411D01*
X125226961Y-122139411D02*
X125322200Y-122234649D01*
X125322200Y-122234649D02*
X125369819Y-122377506D01*
X125369819Y-122377506D02*
X125369819Y-122615601D01*
X121869819Y-113663220D02*
X120869819Y-113663220D01*
X120869819Y-113663220D02*
X120869819Y-113282268D01*
X120869819Y-113282268D02*
X120917438Y-113187030D01*
X120917438Y-113187030D02*
X120965057Y-113139411D01*
X120965057Y-113139411D02*
X121060295Y-113091792D01*
X121060295Y-113091792D02*
X121203152Y-113091792D01*
X121203152Y-113091792D02*
X121298390Y-113139411D01*
X121298390Y-113139411D02*
X121346009Y-113187030D01*
X121346009Y-113187030D02*
X121393628Y-113282268D01*
X121393628Y-113282268D02*
X121393628Y-113663220D01*
X121584104Y-112710839D02*
X121584104Y-112234649D01*
X121869819Y-112806077D02*
X120869819Y-112472744D01*
X120869819Y-112472744D02*
X121869819Y-112139411D01*
X121869819Y-111282268D02*
X121869819Y-111853696D01*
X121869819Y-111567982D02*
X120869819Y-111567982D01*
X120869819Y-111567982D02*
X121012676Y-111663220D01*
X121012676Y-111663220D02*
X121107914Y-111758458D01*
X121107914Y-111758458D02*
X121155533Y-111853696D01*
X120869819Y-110663220D02*
X120869819Y-110567982D01*
X120869819Y-110567982D02*
X120917438Y-110472744D01*
X120917438Y-110472744D02*
X120965057Y-110425125D01*
X120965057Y-110425125D02*
X121060295Y-110377506D01*
X121060295Y-110377506D02*
X121250771Y-110329887D01*
X121250771Y-110329887D02*
X121488866Y-110329887D01*
X121488866Y-110329887D02*
X121679342Y-110377506D01*
X121679342Y-110377506D02*
X121774580Y-110425125D01*
X121774580Y-110425125D02*
X121822200Y-110472744D01*
X121822200Y-110472744D02*
X121869819Y-110567982D01*
X121869819Y-110567982D02*
X121869819Y-110663220D01*
X121869819Y-110663220D02*
X121822200Y-110758458D01*
X121822200Y-110758458D02*
X121774580Y-110806077D01*
X121774580Y-110806077D02*
X121679342Y-110853696D01*
X121679342Y-110853696D02*
X121488866Y-110901315D01*
X121488866Y-110901315D02*
X121250771Y-110901315D01*
X121250771Y-110901315D02*
X121060295Y-110853696D01*
X121060295Y-110853696D02*
X120965057Y-110806077D01*
X120965057Y-110806077D02*
X120917438Y-110758458D01*
X120917438Y-110758458D02*
X120869819Y-110663220D01*
X122369819Y-103163220D02*
X121369819Y-103163220D01*
X121369819Y-103163220D02*
X121369819Y-102782268D01*
X121369819Y-102782268D02*
X121417438Y-102687030D01*
X121417438Y-102687030D02*
X121465057Y-102639411D01*
X121465057Y-102639411D02*
X121560295Y-102591792D01*
X121560295Y-102591792D02*
X121703152Y-102591792D01*
X121703152Y-102591792D02*
X121798390Y-102639411D01*
X121798390Y-102639411D02*
X121846009Y-102687030D01*
X121846009Y-102687030D02*
X121893628Y-102782268D01*
X121893628Y-102782268D02*
X121893628Y-103163220D01*
X122084104Y-102210839D02*
X122084104Y-101734649D01*
X122369819Y-102306077D02*
X121369819Y-101972744D01*
X121369819Y-101972744D02*
X122369819Y-101639411D01*
X122369819Y-101258458D02*
X122369819Y-101067982D01*
X122369819Y-101067982D02*
X122322200Y-100972744D01*
X122322200Y-100972744D02*
X122274580Y-100925125D01*
X122274580Y-100925125D02*
X122131723Y-100829887D01*
X122131723Y-100829887D02*
X121941247Y-100782268D01*
X121941247Y-100782268D02*
X121560295Y-100782268D01*
X121560295Y-100782268D02*
X121465057Y-100829887D01*
X121465057Y-100829887D02*
X121417438Y-100877506D01*
X121417438Y-100877506D02*
X121369819Y-100972744D01*
X121369819Y-100972744D02*
X121369819Y-101163220D01*
X121369819Y-101163220D02*
X121417438Y-101258458D01*
X121417438Y-101258458D02*
X121465057Y-101306077D01*
X121465057Y-101306077D02*
X121560295Y-101353696D01*
X121560295Y-101353696D02*
X121798390Y-101353696D01*
X121798390Y-101353696D02*
X121893628Y-101306077D01*
X121893628Y-101306077D02*
X121941247Y-101258458D01*
X121941247Y-101258458D02*
X121988866Y-101163220D01*
X121988866Y-101163220D02*
X121988866Y-100972744D01*
X121988866Y-100972744D02*
X121941247Y-100877506D01*
X121941247Y-100877506D02*
X121893628Y-100829887D01*
X121893628Y-100829887D02*
X121798390Y-100782268D01*
X122369819Y-98663220D02*
X121369819Y-98663220D01*
X121369819Y-98663220D02*
X121369819Y-98282268D01*
X121369819Y-98282268D02*
X121417438Y-98187030D01*
X121417438Y-98187030D02*
X121465057Y-98139411D01*
X121465057Y-98139411D02*
X121560295Y-98091792D01*
X121560295Y-98091792D02*
X121703152Y-98091792D01*
X121703152Y-98091792D02*
X121798390Y-98139411D01*
X121798390Y-98139411D02*
X121846009Y-98187030D01*
X121846009Y-98187030D02*
X121893628Y-98282268D01*
X121893628Y-98282268D02*
X121893628Y-98663220D01*
X122084104Y-97710839D02*
X122084104Y-97234649D01*
X122369819Y-97806077D02*
X121369819Y-97472744D01*
X121369819Y-97472744D02*
X122369819Y-97139411D01*
X121798390Y-96663220D02*
X121750771Y-96758458D01*
X121750771Y-96758458D02*
X121703152Y-96806077D01*
X121703152Y-96806077D02*
X121607914Y-96853696D01*
X121607914Y-96853696D02*
X121560295Y-96853696D01*
X121560295Y-96853696D02*
X121465057Y-96806077D01*
X121465057Y-96806077D02*
X121417438Y-96758458D01*
X121417438Y-96758458D02*
X121369819Y-96663220D01*
X121369819Y-96663220D02*
X121369819Y-96472744D01*
X121369819Y-96472744D02*
X121417438Y-96377506D01*
X121417438Y-96377506D02*
X121465057Y-96329887D01*
X121465057Y-96329887D02*
X121560295Y-96282268D01*
X121560295Y-96282268D02*
X121607914Y-96282268D01*
X121607914Y-96282268D02*
X121703152Y-96329887D01*
X121703152Y-96329887D02*
X121750771Y-96377506D01*
X121750771Y-96377506D02*
X121798390Y-96472744D01*
X121798390Y-96472744D02*
X121798390Y-96663220D01*
X121798390Y-96663220D02*
X121846009Y-96758458D01*
X121846009Y-96758458D02*
X121893628Y-96806077D01*
X121893628Y-96806077D02*
X121988866Y-96853696D01*
X121988866Y-96853696D02*
X122179342Y-96853696D01*
X122179342Y-96853696D02*
X122274580Y-96806077D01*
X122274580Y-96806077D02*
X122322200Y-96758458D01*
X122322200Y-96758458D02*
X122369819Y-96663220D01*
X122369819Y-96663220D02*
X122369819Y-96472744D01*
X122369819Y-96472744D02*
X122322200Y-96377506D01*
X122322200Y-96377506D02*
X122274580Y-96329887D01*
X122274580Y-96329887D02*
X122179342Y-96282268D01*
X122179342Y-96282268D02*
X121988866Y-96282268D01*
X121988866Y-96282268D02*
X121893628Y-96329887D01*
X121893628Y-96329887D02*
X121846009Y-96377506D01*
X121846009Y-96377506D02*
X121798390Y-96472744D01*
X122369819Y-88663220D02*
X121369819Y-88663220D01*
X121369819Y-88663220D02*
X121369819Y-88282268D01*
X121369819Y-88282268D02*
X121417438Y-88187030D01*
X121417438Y-88187030D02*
X121465057Y-88139411D01*
X121465057Y-88139411D02*
X121560295Y-88091792D01*
X121560295Y-88091792D02*
X121703152Y-88091792D01*
X121703152Y-88091792D02*
X121798390Y-88139411D01*
X121798390Y-88139411D02*
X121846009Y-88187030D01*
X121846009Y-88187030D02*
X121893628Y-88282268D01*
X121893628Y-88282268D02*
X121893628Y-88663220D01*
X121846009Y-87329887D02*
X121893628Y-87187030D01*
X121893628Y-87187030D02*
X121941247Y-87139411D01*
X121941247Y-87139411D02*
X122036485Y-87091792D01*
X122036485Y-87091792D02*
X122179342Y-87091792D01*
X122179342Y-87091792D02*
X122274580Y-87139411D01*
X122274580Y-87139411D02*
X122322200Y-87187030D01*
X122322200Y-87187030D02*
X122369819Y-87282268D01*
X122369819Y-87282268D02*
X122369819Y-87663220D01*
X122369819Y-87663220D02*
X121369819Y-87663220D01*
X121369819Y-87663220D02*
X121369819Y-87329887D01*
X121369819Y-87329887D02*
X121417438Y-87234649D01*
X121417438Y-87234649D02*
X121465057Y-87187030D01*
X121465057Y-87187030D02*
X121560295Y-87139411D01*
X121560295Y-87139411D02*
X121655533Y-87139411D01*
X121655533Y-87139411D02*
X121750771Y-87187030D01*
X121750771Y-87187030D02*
X121798390Y-87234649D01*
X121798390Y-87234649D02*
X121846009Y-87329887D01*
X121846009Y-87329887D02*
X121846009Y-87663220D01*
X122369819Y-86139411D02*
X122369819Y-86710839D01*
X122369819Y-86425125D02*
X121369819Y-86425125D01*
X121369819Y-86425125D02*
X121512676Y-86520363D01*
X121512676Y-86520363D02*
X121607914Y-86615601D01*
X121607914Y-86615601D02*
X121655533Y-86710839D01*
X121369819Y-85234649D02*
X121369819Y-85710839D01*
X121369819Y-85710839D02*
X121846009Y-85758458D01*
X121846009Y-85758458D02*
X121798390Y-85710839D01*
X121798390Y-85710839D02*
X121750771Y-85615601D01*
X121750771Y-85615601D02*
X121750771Y-85377506D01*
X121750771Y-85377506D02*
X121798390Y-85282268D01*
X121798390Y-85282268D02*
X121846009Y-85234649D01*
X121846009Y-85234649D02*
X121941247Y-85187030D01*
X121941247Y-85187030D02*
X122179342Y-85187030D01*
X122179342Y-85187030D02*
X122274580Y-85234649D01*
X122274580Y-85234649D02*
X122322200Y-85282268D01*
X122322200Y-85282268D02*
X122369819Y-85377506D01*
X122369819Y-85377506D02*
X122369819Y-85615601D01*
X122369819Y-85615601D02*
X122322200Y-85710839D01*
X122322200Y-85710839D02*
X122274580Y-85758458D01*
X121417438Y-107639411D02*
X121369819Y-107734649D01*
X121369819Y-107734649D02*
X121369819Y-107877506D01*
X121369819Y-107877506D02*
X121417438Y-108020363D01*
X121417438Y-108020363D02*
X121512676Y-108115601D01*
X121512676Y-108115601D02*
X121607914Y-108163220D01*
X121607914Y-108163220D02*
X121798390Y-108210839D01*
X121798390Y-108210839D02*
X121941247Y-108210839D01*
X121941247Y-108210839D02*
X122131723Y-108163220D01*
X122131723Y-108163220D02*
X122226961Y-108115601D01*
X122226961Y-108115601D02*
X122322200Y-108020363D01*
X122322200Y-108020363D02*
X122369819Y-107877506D01*
X122369819Y-107877506D02*
X122369819Y-107782268D01*
X122369819Y-107782268D02*
X122322200Y-107639411D01*
X122322200Y-107639411D02*
X122274580Y-107591792D01*
X122274580Y-107591792D02*
X121941247Y-107591792D01*
X121941247Y-107591792D02*
X121941247Y-107782268D01*
X122369819Y-107163220D02*
X121369819Y-107163220D01*
X121369819Y-107163220D02*
X122369819Y-106591792D01*
X122369819Y-106591792D02*
X121369819Y-106591792D01*
X122369819Y-106115601D02*
X121369819Y-106115601D01*
X121369819Y-106115601D02*
X121369819Y-105877506D01*
X121369819Y-105877506D02*
X121417438Y-105734649D01*
X121417438Y-105734649D02*
X121512676Y-105639411D01*
X121512676Y-105639411D02*
X121607914Y-105591792D01*
X121607914Y-105591792D02*
X121798390Y-105544173D01*
X121798390Y-105544173D02*
X121941247Y-105544173D01*
X121941247Y-105544173D02*
X122131723Y-105591792D01*
X122131723Y-105591792D02*
X122226961Y-105639411D01*
X122226961Y-105639411D02*
X122322200Y-105734649D01*
X122322200Y-105734649D02*
X122369819Y-105877506D01*
X122369819Y-105877506D02*
X122369819Y-106115601D01*
X121417438Y-92539411D02*
X121369819Y-92634649D01*
X121369819Y-92634649D02*
X121369819Y-92777506D01*
X121369819Y-92777506D02*
X121417438Y-92920363D01*
X121417438Y-92920363D02*
X121512676Y-93015601D01*
X121512676Y-93015601D02*
X121607914Y-93063220D01*
X121607914Y-93063220D02*
X121798390Y-93110839D01*
X121798390Y-93110839D02*
X121941247Y-93110839D01*
X121941247Y-93110839D02*
X122131723Y-93063220D01*
X122131723Y-93063220D02*
X122226961Y-93015601D01*
X122226961Y-93015601D02*
X122322200Y-92920363D01*
X122322200Y-92920363D02*
X122369819Y-92777506D01*
X122369819Y-92777506D02*
X122369819Y-92682268D01*
X122369819Y-92682268D02*
X122322200Y-92539411D01*
X122322200Y-92539411D02*
X122274580Y-92491792D01*
X122274580Y-92491792D02*
X121941247Y-92491792D01*
X121941247Y-92491792D02*
X121941247Y-92682268D01*
X122369819Y-92063220D02*
X121369819Y-92063220D01*
X121369819Y-92063220D02*
X122369819Y-91491792D01*
X122369819Y-91491792D02*
X121369819Y-91491792D01*
X122369819Y-91015601D02*
X121369819Y-91015601D01*
X121369819Y-91015601D02*
X121369819Y-90777506D01*
X121369819Y-90777506D02*
X121417438Y-90634649D01*
X121417438Y-90634649D02*
X121512676Y-90539411D01*
X121512676Y-90539411D02*
X121607914Y-90491792D01*
X121607914Y-90491792D02*
X121798390Y-90444173D01*
X121798390Y-90444173D02*
X121941247Y-90444173D01*
X121941247Y-90444173D02*
X122131723Y-90491792D01*
X122131723Y-90491792D02*
X122226961Y-90539411D01*
X122226961Y-90539411D02*
X122322200Y-90634649D01*
X122322200Y-90634649D02*
X122369819Y-90777506D01*
X122369819Y-90777506D02*
X122369819Y-91015601D01*
X121822200Y-78710839D02*
X121869819Y-78567982D01*
X121869819Y-78567982D02*
X121869819Y-78329887D01*
X121869819Y-78329887D02*
X121822200Y-78234649D01*
X121822200Y-78234649D02*
X121774580Y-78187030D01*
X121774580Y-78187030D02*
X121679342Y-78139411D01*
X121679342Y-78139411D02*
X121584104Y-78139411D01*
X121584104Y-78139411D02*
X121488866Y-78187030D01*
X121488866Y-78187030D02*
X121441247Y-78234649D01*
X121441247Y-78234649D02*
X121393628Y-78329887D01*
X121393628Y-78329887D02*
X121346009Y-78520363D01*
X121346009Y-78520363D02*
X121298390Y-78615601D01*
X121298390Y-78615601D02*
X121250771Y-78663220D01*
X121250771Y-78663220D02*
X121155533Y-78710839D01*
X121155533Y-78710839D02*
X121060295Y-78710839D01*
X121060295Y-78710839D02*
X120965057Y-78663220D01*
X120965057Y-78663220D02*
X120917438Y-78615601D01*
X120917438Y-78615601D02*
X120869819Y-78520363D01*
X120869819Y-78520363D02*
X120869819Y-78282268D01*
X120869819Y-78282268D02*
X120917438Y-78139411D01*
X121869819Y-77710839D02*
X120869819Y-77710839D01*
X120917438Y-76710840D02*
X120869819Y-76806078D01*
X120869819Y-76806078D02*
X120869819Y-76948935D01*
X120869819Y-76948935D02*
X120917438Y-77091792D01*
X120917438Y-77091792D02*
X121012676Y-77187030D01*
X121012676Y-77187030D02*
X121107914Y-77234649D01*
X121107914Y-77234649D02*
X121298390Y-77282268D01*
X121298390Y-77282268D02*
X121441247Y-77282268D01*
X121441247Y-77282268D02*
X121631723Y-77234649D01*
X121631723Y-77234649D02*
X121726961Y-77187030D01*
X121726961Y-77187030D02*
X121822200Y-77091792D01*
X121822200Y-77091792D02*
X121869819Y-76948935D01*
X121869819Y-76948935D02*
X121869819Y-76853697D01*
X121869819Y-76853697D02*
X121822200Y-76710840D01*
X121822200Y-76710840D02*
X121774580Y-76663221D01*
X121774580Y-76663221D02*
X121441247Y-76663221D01*
X121441247Y-76663221D02*
X121441247Y-76853697D01*
X120817438Y-73339411D02*
X120769819Y-73434649D01*
X120769819Y-73434649D02*
X120769819Y-73577506D01*
X120769819Y-73577506D02*
X120817438Y-73720363D01*
X120817438Y-73720363D02*
X120912676Y-73815601D01*
X120912676Y-73815601D02*
X121007914Y-73863220D01*
X121007914Y-73863220D02*
X121198390Y-73910839D01*
X121198390Y-73910839D02*
X121341247Y-73910839D01*
X121341247Y-73910839D02*
X121531723Y-73863220D01*
X121531723Y-73863220D02*
X121626961Y-73815601D01*
X121626961Y-73815601D02*
X121722200Y-73720363D01*
X121722200Y-73720363D02*
X121769819Y-73577506D01*
X121769819Y-73577506D02*
X121769819Y-73482268D01*
X121769819Y-73482268D02*
X121722200Y-73339411D01*
X121722200Y-73339411D02*
X121674580Y-73291792D01*
X121674580Y-73291792D02*
X121341247Y-73291792D01*
X121341247Y-73291792D02*
X121341247Y-73482268D01*
X121769819Y-72863220D02*
X120769819Y-72863220D01*
X120769819Y-72863220D02*
X121769819Y-72291792D01*
X121769819Y-72291792D02*
X120769819Y-72291792D01*
X121769819Y-71815601D02*
X120769819Y-71815601D01*
X120769819Y-71815601D02*
X120769819Y-71577506D01*
X120769819Y-71577506D02*
X120817438Y-71434649D01*
X120817438Y-71434649D02*
X120912676Y-71339411D01*
X120912676Y-71339411D02*
X121007914Y-71291792D01*
X121007914Y-71291792D02*
X121198390Y-71244173D01*
X121198390Y-71244173D02*
X121341247Y-71244173D01*
X121341247Y-71244173D02*
X121531723Y-71291792D01*
X121531723Y-71291792D02*
X121626961Y-71339411D01*
X121626961Y-71339411D02*
X121722200Y-71434649D01*
X121722200Y-71434649D02*
X121769819Y-71577506D01*
X121769819Y-71577506D02*
X121769819Y-71815601D01*
X120769819Y-68806077D02*
X121769819Y-68472744D01*
X121769819Y-68472744D02*
X120769819Y-68139411D01*
X121769819Y-67806077D02*
X120769819Y-67806077D01*
X121769819Y-67329887D02*
X120769819Y-67329887D01*
X120769819Y-67329887D02*
X121769819Y-66758459D01*
X121769819Y-66758459D02*
X120769819Y-66758459D01*
D11*
X124500000Y-79500000D02*
X124500000Y-77500000D01*
X120500000Y-79500000D02*
X124500000Y-79500000D01*
X124500000Y-66000000D02*
X124500000Y-67500000D01*
X120000000Y-66000000D02*
X124500000Y-66000000D01*
D12*
G36*
X124253963Y-76201050D02*
G01*
X124284370Y-76231457D01*
X124318628Y-76299973D01*
X124318628Y-76588220D01*
X123944819Y-76588220D01*
X123944819Y-76299973D01*
X123979077Y-76231457D01*
X124009484Y-76201050D01*
X124078000Y-76166792D01*
X124185447Y-76166792D01*
X124253963Y-76201050D01*
G37*
G36*
X124253963Y-75201050D02*
G01*
X124284370Y-75231457D01*
X124318628Y-75299973D01*
X124318628Y-75588220D01*
X123944819Y-75588220D01*
X123944819Y-75299973D01*
X123979077Y-75231457D01*
X124009484Y-75201050D01*
X124078000Y-75166792D01*
X124185447Y-75166792D01*
X124253963Y-75201050D01*
G37*
G36*
X124688617Y-74159514D02*
G01*
X124760561Y-74231457D01*
X124794819Y-74299973D01*
X124794819Y-74455039D01*
X124760561Y-74523554D01*
X124688617Y-74595497D01*
X124527251Y-74635839D01*
X124212386Y-74635839D01*
X124051019Y-74595497D01*
X123979077Y-74523555D01*
X123944819Y-74455039D01*
X123944819Y-74299973D01*
X123979077Y-74231457D01*
X124051019Y-74159514D01*
X124212386Y-74119173D01*
X124527251Y-74119173D01*
X124688617Y-74159514D01*
G37*
G36*
X124253963Y-68486764D02*
G01*
X124284370Y-68517171D01*
X124318628Y-68585687D01*
X124318628Y-68873934D01*
X123944819Y-68873934D01*
X123944819Y-68585687D01*
X123979077Y-68517171D01*
X124009484Y-68486764D01*
X124078000Y-68452506D01*
X124185447Y-68452506D01*
X124253963Y-68486764D01*
G37*
G36*
X125151168Y-76849331D02*
G01*
X123683708Y-76849331D01*
X123683708Y-76282268D01*
X123794819Y-76282268D01*
X123794819Y-76663220D01*
X123796260Y-76677852D01*
X123807459Y-76704888D01*
X123828151Y-76725580D01*
X123855187Y-76736779D01*
X123869819Y-76738220D01*
X124869819Y-76738220D01*
X124884451Y-76736779D01*
X124911487Y-76725580D01*
X124932179Y-76704888D01*
X124943378Y-76677852D01*
X124943378Y-76648588D01*
X124932179Y-76621552D01*
X124911487Y-76600860D01*
X124884451Y-76589661D01*
X124869819Y-76588220D01*
X124468628Y-76588220D01*
X124468628Y-76282268D01*
X124467187Y-76267636D01*
X124466156Y-76265147D01*
X124465965Y-76262458D01*
X124460710Y-76248727D01*
X124413091Y-76153489D01*
X124409126Y-76147189D01*
X124408369Y-76145362D01*
X124406680Y-76143305D01*
X124405259Y-76141046D01*
X124403760Y-76139746D01*
X124399042Y-76133997D01*
X124351423Y-76086378D01*
X124345673Y-76081659D01*
X124344374Y-76080161D01*
X124342114Y-76078739D01*
X124340058Y-76077051D01*
X124338230Y-76076293D01*
X124331931Y-76072329D01*
X124236693Y-76024710D01*
X124222961Y-76019455D01*
X124220273Y-76019264D01*
X124217784Y-76018233D01*
X124203152Y-76016792D01*
X124060295Y-76016792D01*
X124045663Y-76018233D01*
X124043174Y-76019263D01*
X124040485Y-76019455D01*
X124026754Y-76024710D01*
X123931516Y-76072329D01*
X123925216Y-76076293D01*
X123923389Y-76077051D01*
X123921332Y-76078739D01*
X123919073Y-76080161D01*
X123917773Y-76081659D01*
X123912024Y-76086378D01*
X123864405Y-76133997D01*
X123859686Y-76139746D01*
X123858188Y-76141046D01*
X123856766Y-76143305D01*
X123855078Y-76145362D01*
X123854320Y-76147189D01*
X123850356Y-76153489D01*
X123802737Y-76248727D01*
X123797482Y-76262459D01*
X123797291Y-76265146D01*
X123796260Y-76267636D01*
X123794819Y-76282268D01*
X123683708Y-76282268D01*
X123683708Y-75282268D01*
X123794819Y-75282268D01*
X123794819Y-75663220D01*
X123796260Y-75677852D01*
X123807459Y-75704888D01*
X123828151Y-75725580D01*
X123855187Y-75736779D01*
X123869819Y-75738220D01*
X124869819Y-75738220D01*
X124884451Y-75736779D01*
X124911487Y-75725580D01*
X124932179Y-75704888D01*
X124943378Y-75677852D01*
X124943378Y-75648588D01*
X124932179Y-75621552D01*
X124911487Y-75600860D01*
X124884451Y-75589661D01*
X124869819Y-75588220D01*
X124468628Y-75588220D01*
X124468628Y-75464174D01*
X124912829Y-75153234D01*
X124923989Y-75143663D01*
X124939716Y-75118984D01*
X124944802Y-75090167D01*
X124938472Y-75061596D01*
X124921690Y-75037622D01*
X124897012Y-75021895D01*
X124868194Y-75016810D01*
X124839623Y-75023139D01*
X124826810Y-75030349D01*
X124468518Y-75281152D01*
X124467187Y-75267636D01*
X124466156Y-75265147D01*
X124465965Y-75262458D01*
X124460710Y-75248727D01*
X124413091Y-75153489D01*
X124409126Y-75147189D01*
X124408369Y-75145362D01*
X124406680Y-75143305D01*
X124405259Y-75141046D01*
X124403760Y-75139746D01*
X124399042Y-75133997D01*
X124351423Y-75086378D01*
X124345673Y-75081659D01*
X124344374Y-75080161D01*
X124342114Y-75078739D01*
X124340058Y-75077051D01*
X124338230Y-75076293D01*
X124331931Y-75072329D01*
X124236693Y-75024710D01*
X124222961Y-75019455D01*
X124220273Y-75019264D01*
X124217784Y-75018233D01*
X124203152Y-75016792D01*
X124060295Y-75016792D01*
X124045663Y-75018233D01*
X124043174Y-75019263D01*
X124040485Y-75019455D01*
X124026754Y-75024710D01*
X123931516Y-75072329D01*
X123925216Y-75076293D01*
X123923389Y-75077051D01*
X123921332Y-75078739D01*
X123919073Y-75080161D01*
X123917773Y-75081659D01*
X123912024Y-75086378D01*
X123864405Y-75133997D01*
X123859686Y-75139746D01*
X123858188Y-75141046D01*
X123856766Y-75143305D01*
X123855078Y-75145362D01*
X123854320Y-75147189D01*
X123850356Y-75153489D01*
X123802737Y-75248727D01*
X123797482Y-75262459D01*
X123797291Y-75265146D01*
X123796260Y-75267636D01*
X123794819Y-75282268D01*
X123683708Y-75282268D01*
X123683708Y-74282268D01*
X123794819Y-74282268D01*
X123794819Y-74472744D01*
X123796260Y-74487376D01*
X123797291Y-74489865D01*
X123797482Y-74492553D01*
X123802737Y-74506285D01*
X123850356Y-74601523D01*
X123854320Y-74607822D01*
X123855078Y-74609650D01*
X123856766Y-74611706D01*
X123858188Y-74613966D01*
X123859686Y-74615265D01*
X123864405Y-74621015D01*
X123959643Y-74716253D01*
X123971008Y-74725581D01*
X123976161Y-74727715D01*
X123980640Y-74731034D01*
X123994486Y-74735981D01*
X124184962Y-74783600D01*
X124187498Y-74783975D01*
X124188520Y-74784398D01*
X124194032Y-74784940D01*
X124199506Y-74785750D01*
X124200598Y-74785587D01*
X124203152Y-74785839D01*
X124536485Y-74785839D01*
X124539038Y-74785587D01*
X124540131Y-74785750D01*
X124545604Y-74784940D01*
X124551117Y-74784398D01*
X124552138Y-74783975D01*
X124554675Y-74783600D01*
X124745151Y-74735981D01*
X124758997Y-74731034D01*
X124763476Y-74727714D01*
X124768628Y-74725581D01*
X124779994Y-74716253D01*
X124875233Y-74621015D01*
X124879953Y-74615264D01*
X124881450Y-74613966D01*
X124882869Y-74611711D01*
X124884561Y-74609650D01*
X124885319Y-74607817D01*
X124889282Y-74601523D01*
X124936901Y-74506285D01*
X124942156Y-74492554D01*
X124942347Y-74489864D01*
X124943378Y-74487376D01*
X124944819Y-74472744D01*
X124944819Y-74282268D01*
X124943378Y-74267636D01*
X124942347Y-74265147D01*
X124942156Y-74262458D01*
X124936901Y-74248727D01*
X124889282Y-74153489D01*
X124885319Y-74147194D01*
X124884561Y-74145362D01*
X124882869Y-74143300D01*
X124881450Y-74141046D01*
X124879953Y-74139747D01*
X124875233Y-74133997D01*
X124779994Y-74038759D01*
X124768628Y-74029431D01*
X124763476Y-74027297D01*
X124758997Y-74023978D01*
X124745151Y-74019031D01*
X124554675Y-73971412D01*
X124552138Y-73971036D01*
X124551117Y-73970614D01*
X124545604Y-73970071D01*
X124540131Y-73969262D01*
X124539038Y-73969424D01*
X124536485Y-73969173D01*
X124203152Y-73969173D01*
X124200598Y-73969424D01*
X124199506Y-73969262D01*
X124194032Y-73970071D01*
X124188520Y-73970614D01*
X124187498Y-73971036D01*
X124184962Y-73971412D01*
X123994486Y-74019031D01*
X123980640Y-74023978D01*
X123976161Y-74027296D01*
X123971008Y-74029431D01*
X123959643Y-74038759D01*
X123864405Y-74133997D01*
X123859686Y-74139746D01*
X123858188Y-74141046D01*
X123856766Y-74143305D01*
X123855078Y-74145362D01*
X123854320Y-74147189D01*
X123850356Y-74153489D01*
X123802737Y-74248727D01*
X123797482Y-74262459D01*
X123797291Y-74265146D01*
X123796260Y-74267636D01*
X123794819Y-74282268D01*
X123683708Y-74282268D01*
X123683708Y-73044252D01*
X123794819Y-73044252D01*
X123800558Y-73072946D01*
X123816841Y-73097261D01*
X123828217Y-73106577D01*
X124234610Y-73377506D01*
X123828217Y-73648435D01*
X123816841Y-73657751D01*
X123800558Y-73682066D01*
X123794819Y-73710760D01*
X123800498Y-73739468D01*
X123816731Y-73763817D01*
X123841046Y-73780100D01*
X123869740Y-73785839D01*
X123898448Y-73780160D01*
X123911421Y-73773243D01*
X124369818Y-73467644D01*
X124828216Y-73773243D01*
X124841190Y-73780160D01*
X124869898Y-73785839D01*
X124898592Y-73780100D01*
X124922907Y-73763817D01*
X124939140Y-73739468D01*
X124944819Y-73710760D01*
X124939080Y-73682066D01*
X124922797Y-73657751D01*
X124911421Y-73648435D01*
X124505027Y-73377506D01*
X124911421Y-73106577D01*
X124922797Y-73097261D01*
X124939080Y-73072946D01*
X124944819Y-73044252D01*
X124939140Y-73015544D01*
X124922907Y-72991195D01*
X124898592Y-72974912D01*
X124869898Y-72969173D01*
X124841190Y-72974852D01*
X124828216Y-72981769D01*
X124369818Y-73287367D01*
X123911421Y-72981769D01*
X123898448Y-72974852D01*
X123869740Y-72969173D01*
X123841046Y-72974912D01*
X123816731Y-72991195D01*
X123800498Y-73015544D01*
X123794819Y-73044252D01*
X123683708Y-73044252D01*
X123683708Y-72139411D01*
X124890057Y-72139411D01*
X124890057Y-72901316D01*
X124891498Y-72915948D01*
X124902697Y-72942984D01*
X124923389Y-72963676D01*
X124950425Y-72974875D01*
X124979689Y-72974875D01*
X125006725Y-72963676D01*
X125027417Y-72942984D01*
X125038616Y-72915948D01*
X125040057Y-72901316D01*
X125040057Y-72139411D01*
X125038616Y-72124779D01*
X125027417Y-72097743D01*
X125006725Y-72077051D01*
X124979689Y-72065852D01*
X124950425Y-72065852D01*
X124923389Y-72077051D01*
X124902697Y-72097743D01*
X124891498Y-72124779D01*
X124890057Y-72139411D01*
X123683708Y-72139411D01*
X123683708Y-71520363D01*
X123794819Y-71520363D01*
X123794819Y-71758458D01*
X123796260Y-71773090D01*
X123797291Y-71775579D01*
X123797482Y-71778267D01*
X123802737Y-71791999D01*
X123850356Y-71887237D01*
X123854320Y-71893536D01*
X123855078Y-71895364D01*
X123856766Y-71897420D01*
X123858188Y-71899680D01*
X123859686Y-71900979D01*
X123864405Y-71906729D01*
X123912024Y-71954348D01*
X123917773Y-71959066D01*
X123919073Y-71960565D01*
X123921332Y-71961986D01*
X123923389Y-71963675D01*
X123925216Y-71964432D01*
X123931516Y-71968397D01*
X124026754Y-72016016D01*
X124040485Y-72021271D01*
X124043174Y-72021462D01*
X124045663Y-72022493D01*
X124060295Y-72023934D01*
X124155533Y-72023934D01*
X124170165Y-72022493D01*
X124172654Y-72021461D01*
X124175342Y-72021271D01*
X124189074Y-72016016D01*
X124284312Y-71968397D01*
X124290611Y-71964432D01*
X124292439Y-71963675D01*
X124294495Y-71961986D01*
X124296755Y-71960565D01*
X124298054Y-71959066D01*
X124303804Y-71954348D01*
X124351423Y-71906729D01*
X124356141Y-71900979D01*
X124357640Y-71899680D01*
X124359061Y-71897420D01*
X124360750Y-71895364D01*
X124361507Y-71893536D01*
X124365472Y-71887237D01*
X124413091Y-71791999D01*
X124413500Y-71790929D01*
X124413823Y-71790494D01*
X124416015Y-71784357D01*
X124418346Y-71778268D01*
X124418384Y-71777727D01*
X124418770Y-71776648D01*
X124464392Y-71594158D01*
X124502886Y-71517171D01*
X124533293Y-71486764D01*
X124601809Y-71452506D01*
X124661637Y-71452506D01*
X124730153Y-71486764D01*
X124760561Y-71517171D01*
X124794819Y-71585687D01*
X124794819Y-71793907D01*
X124751049Y-71925217D01*
X124747789Y-71939554D01*
X124749864Y-71968744D01*
X124762950Y-71994917D01*
X124785057Y-72014091D01*
X124812820Y-72023345D01*
X124842010Y-72021270D01*
X124868183Y-72008184D01*
X124887357Y-71986077D01*
X124893351Y-71972651D01*
X124940970Y-71829795D01*
X124942619Y-71822539D01*
X124943378Y-71820709D01*
X124943639Y-71818055D01*
X124944230Y-71815458D01*
X124944089Y-71813483D01*
X124944819Y-71806077D01*
X124944819Y-71567982D01*
X124943378Y-71553350D01*
X124942347Y-71550861D01*
X124942156Y-71548172D01*
X124936901Y-71534441D01*
X124889282Y-71439203D01*
X124885317Y-71432903D01*
X124884560Y-71431076D01*
X124882872Y-71429019D01*
X124881450Y-71426760D01*
X124879950Y-71425459D01*
X124875232Y-71419710D01*
X124827612Y-71372091D01*
X124821863Y-71367373D01*
X124820564Y-71365875D01*
X124818305Y-71364453D01*
X124816247Y-71362764D01*
X124814417Y-71362006D01*
X124808121Y-71358043D01*
X124712883Y-71310424D01*
X124699151Y-71305169D01*
X124696463Y-71304978D01*
X124693974Y-71303947D01*
X124679342Y-71302506D01*
X124584104Y-71302506D01*
X124569472Y-71303947D01*
X124566983Y-71304977D01*
X124564294Y-71305169D01*
X124550563Y-71310424D01*
X124455325Y-71358043D01*
X124449025Y-71362007D01*
X124447198Y-71362765D01*
X124445141Y-71364453D01*
X124442882Y-71365875D01*
X124441582Y-71367373D01*
X124435833Y-71372092D01*
X124388214Y-71419711D01*
X124383495Y-71425460D01*
X124381997Y-71426760D01*
X124380575Y-71429019D01*
X124378887Y-71431076D01*
X124378129Y-71432903D01*
X124374165Y-71439203D01*
X124326546Y-71534441D01*
X124326136Y-71535510D01*
X124325814Y-71535946D01*
X124323618Y-71542091D01*
X124321291Y-71548173D01*
X124321252Y-71548712D01*
X124320867Y-71549792D01*
X124275244Y-71732282D01*
X124236751Y-71809269D01*
X124206344Y-71839676D01*
X124137828Y-71873934D01*
X124078000Y-71873934D01*
X124009484Y-71839676D01*
X123979077Y-71809269D01*
X123944819Y-71740753D01*
X123944819Y-71532533D01*
X123988589Y-71401224D01*
X123991849Y-71386887D01*
X123989774Y-71357697D01*
X123976688Y-71331523D01*
X123954580Y-71312349D01*
X123926818Y-71303095D01*
X123897628Y-71305170D01*
X123871455Y-71318257D01*
X123852281Y-71340364D01*
X123846287Y-71353789D01*
X123798668Y-71496646D01*
X123797018Y-71503899D01*
X123796260Y-71505731D01*
X123795998Y-71508385D01*
X123795408Y-71510983D01*
X123795548Y-71512957D01*
X123794819Y-71520363D01*
X123683708Y-71520363D01*
X123683708Y-70943695D01*
X123795002Y-70943695D01*
X123796260Y-70953591D01*
X123796260Y-70963566D01*
X123798089Y-70967981D01*
X123798692Y-70972725D01*
X123803642Y-70981389D01*
X123807459Y-70990602D01*
X123810837Y-70993980D01*
X123813211Y-70998134D01*
X123821100Y-71004243D01*
X123828151Y-71011294D01*
X123832567Y-71013123D01*
X123836348Y-71016051D01*
X123845971Y-71018675D01*
X123855187Y-71022493D01*
X123862669Y-71023229D01*
X123864580Y-71023751D01*
X123866055Y-71023563D01*
X123869819Y-71023934D01*
X124869819Y-71023934D01*
X124884451Y-71022493D01*
X124911487Y-71011294D01*
X124932179Y-70990602D01*
X124943378Y-70963566D01*
X124943378Y-70934302D01*
X124932179Y-70907266D01*
X124911487Y-70886574D01*
X124884451Y-70875375D01*
X124869819Y-70873934D01*
X124152236Y-70873934D01*
X124907030Y-70442624D01*
X124910114Y-70440434D01*
X124911487Y-70439866D01*
X124912884Y-70438468D01*
X124919019Y-70434114D01*
X124925127Y-70426225D01*
X124932179Y-70419174D01*
X124934009Y-70414755D01*
X124936936Y-70410976D01*
X124939560Y-70401354D01*
X124943378Y-70392138D01*
X124943378Y-70387357D01*
X124944636Y-70382745D01*
X124943378Y-70372848D01*
X124943378Y-70362874D01*
X124941548Y-70358458D01*
X124940946Y-70353715D01*
X124935995Y-70345050D01*
X124932179Y-70335838D01*
X124928800Y-70332459D01*
X124926427Y-70328306D01*
X124918537Y-70322196D01*
X124911487Y-70315146D01*
X124907070Y-70313316D01*
X124903290Y-70310389D01*
X124893666Y-70307764D01*
X124884451Y-70303947D01*
X124876968Y-70303210D01*
X124875058Y-70302689D01*
X124873582Y-70302876D01*
X124869819Y-70302506D01*
X123869819Y-70302506D01*
X123855187Y-70303947D01*
X123828151Y-70315146D01*
X123807459Y-70335838D01*
X123796260Y-70362874D01*
X123796260Y-70392138D01*
X123807459Y-70419174D01*
X123828151Y-70439866D01*
X123855187Y-70451065D01*
X123869819Y-70452506D01*
X124587402Y-70452506D01*
X123832609Y-70883816D01*
X123829525Y-70886004D01*
X123828151Y-70886574D01*
X123826751Y-70887973D01*
X123820619Y-70892326D01*
X123814509Y-70900215D01*
X123807459Y-70907266D01*
X123805629Y-70911682D01*
X123802702Y-70915463D01*
X123800077Y-70925086D01*
X123796260Y-70934302D01*
X123796260Y-70939082D01*
X123795002Y-70943695D01*
X123683708Y-70943695D01*
X123683708Y-69520363D01*
X123794819Y-69520363D01*
X123794819Y-69758458D01*
X123796260Y-69773090D01*
X123797291Y-69775579D01*
X123797482Y-69778267D01*
X123802737Y-69791999D01*
X123850356Y-69887237D01*
X123854320Y-69893536D01*
X123855078Y-69895364D01*
X123856766Y-69897420D01*
X123858188Y-69899680D01*
X123859686Y-69900979D01*
X123864405Y-69906729D01*
X123912024Y-69954348D01*
X123917773Y-69959066D01*
X123919073Y-69960565D01*
X123921332Y-69961986D01*
X123923389Y-69963675D01*
X123925216Y-69964432D01*
X123931516Y-69968397D01*
X124026754Y-70016016D01*
X124040485Y-70021271D01*
X124043174Y-70021462D01*
X124045663Y-70022493D01*
X124060295Y-70023934D01*
X124155533Y-70023934D01*
X124170165Y-70022493D01*
X124172654Y-70021461D01*
X124175342Y-70021271D01*
X124189074Y-70016016D01*
X124284312Y-69968397D01*
X124290611Y-69964432D01*
X124292439Y-69963675D01*
X124294495Y-69961986D01*
X124296755Y-69960565D01*
X124298054Y-69959066D01*
X124303804Y-69954348D01*
X124351423Y-69906729D01*
X124356141Y-69900979D01*
X124357640Y-69899680D01*
X124359061Y-69897420D01*
X124360750Y-69895364D01*
X124361507Y-69893536D01*
X124365472Y-69887237D01*
X124413091Y-69791999D01*
X124413500Y-69790929D01*
X124413823Y-69790494D01*
X124416015Y-69784357D01*
X124418346Y-69778268D01*
X124418384Y-69777727D01*
X124418770Y-69776648D01*
X124464392Y-69594158D01*
X124502886Y-69517171D01*
X124533293Y-69486764D01*
X124601809Y-69452506D01*
X124661637Y-69452506D01*
X124730153Y-69486764D01*
X124760561Y-69517171D01*
X124794819Y-69585687D01*
X124794819Y-69793907D01*
X124751049Y-69925217D01*
X124747789Y-69939554D01*
X124749864Y-69968744D01*
X124762950Y-69994917D01*
X124785057Y-70014091D01*
X124812820Y-70023345D01*
X124842010Y-70021270D01*
X124868183Y-70008184D01*
X124887357Y-69986077D01*
X124893351Y-69972651D01*
X124940970Y-69829795D01*
X124942619Y-69822539D01*
X124943378Y-69820709D01*
X124943639Y-69818055D01*
X124944230Y-69815458D01*
X124944089Y-69813483D01*
X124944819Y-69806077D01*
X124944819Y-69567982D01*
X124943378Y-69553350D01*
X124942347Y-69550861D01*
X124942156Y-69548172D01*
X124936901Y-69534441D01*
X124889282Y-69439203D01*
X124885317Y-69432903D01*
X124884560Y-69431076D01*
X124882872Y-69429019D01*
X124881450Y-69426760D01*
X124879950Y-69425459D01*
X124875232Y-69419710D01*
X124827612Y-69372091D01*
X124821863Y-69367373D01*
X124820564Y-69365875D01*
X124818305Y-69364453D01*
X124816247Y-69362764D01*
X124814417Y-69362006D01*
X124808121Y-69358043D01*
X124712883Y-69310424D01*
X124699151Y-69305169D01*
X124696463Y-69304978D01*
X124693974Y-69303947D01*
X124679342Y-69302506D01*
X124584104Y-69302506D01*
X124569472Y-69303947D01*
X124566983Y-69304977D01*
X124564294Y-69305169D01*
X124550563Y-69310424D01*
X124455325Y-69358043D01*
X124449025Y-69362007D01*
X124447198Y-69362765D01*
X124445141Y-69364453D01*
X124442882Y-69365875D01*
X124441582Y-69367373D01*
X124435833Y-69372092D01*
X124388214Y-69419711D01*
X124383495Y-69425460D01*
X124381997Y-69426760D01*
X124380575Y-69429019D01*
X124378887Y-69431076D01*
X124378129Y-69432903D01*
X124374165Y-69439203D01*
X124326546Y-69534441D01*
X124326136Y-69535510D01*
X124325814Y-69535946D01*
X124323618Y-69542091D01*
X124321291Y-69548173D01*
X124321252Y-69548712D01*
X124320867Y-69549792D01*
X124275244Y-69732282D01*
X124236751Y-69809269D01*
X124206344Y-69839676D01*
X124137828Y-69873934D01*
X124078000Y-69873934D01*
X124009484Y-69839676D01*
X123979077Y-69809269D01*
X123944819Y-69740753D01*
X123944819Y-69532533D01*
X123988589Y-69401224D01*
X123991849Y-69386887D01*
X123989774Y-69357697D01*
X123976688Y-69331523D01*
X123954580Y-69312349D01*
X123926818Y-69303095D01*
X123897628Y-69305170D01*
X123871455Y-69318257D01*
X123852281Y-69340364D01*
X123846287Y-69353789D01*
X123798668Y-69496646D01*
X123797018Y-69503899D01*
X123796260Y-69505731D01*
X123795998Y-69508385D01*
X123795408Y-69510983D01*
X123795548Y-69512957D01*
X123794819Y-69520363D01*
X123683708Y-69520363D01*
X123683708Y-68567982D01*
X123794819Y-68567982D01*
X123794819Y-68948934D01*
X123796260Y-68963566D01*
X123807459Y-68990602D01*
X123828151Y-69011294D01*
X123855187Y-69022493D01*
X123869819Y-69023934D01*
X124869819Y-69023934D01*
X124884451Y-69022493D01*
X124911487Y-69011294D01*
X124932179Y-68990602D01*
X124943378Y-68963566D01*
X124943378Y-68934302D01*
X124932179Y-68907266D01*
X124911487Y-68886574D01*
X124884451Y-68875375D01*
X124869819Y-68873934D01*
X124468628Y-68873934D01*
X124468628Y-68749888D01*
X124912829Y-68438948D01*
X124923989Y-68429377D01*
X124939716Y-68404698D01*
X124944802Y-68375881D01*
X124938472Y-68347310D01*
X124921690Y-68323336D01*
X124897012Y-68307609D01*
X124868194Y-68302524D01*
X124839623Y-68308853D01*
X124826810Y-68316063D01*
X124468518Y-68566866D01*
X124467187Y-68553350D01*
X124466156Y-68550861D01*
X124465965Y-68548172D01*
X124460710Y-68534441D01*
X124413091Y-68439203D01*
X124409126Y-68432903D01*
X124408369Y-68431076D01*
X124406680Y-68429019D01*
X124405259Y-68426760D01*
X124403760Y-68425460D01*
X124399042Y-68419711D01*
X124351423Y-68372092D01*
X124345673Y-68367373D01*
X124344374Y-68365875D01*
X124342114Y-68364453D01*
X124340058Y-68362765D01*
X124338230Y-68362007D01*
X124331931Y-68358043D01*
X124236693Y-68310424D01*
X124222961Y-68305169D01*
X124220273Y-68304978D01*
X124217784Y-68303947D01*
X124203152Y-68302506D01*
X124060295Y-68302506D01*
X124045663Y-68303947D01*
X124043174Y-68304977D01*
X124040485Y-68305169D01*
X124026754Y-68310424D01*
X123931516Y-68358043D01*
X123925216Y-68362007D01*
X123923389Y-68362765D01*
X123921332Y-68364453D01*
X123919073Y-68365875D01*
X123917773Y-68367373D01*
X123912024Y-68372092D01*
X123864405Y-68419711D01*
X123859686Y-68425460D01*
X123858188Y-68426760D01*
X123856766Y-68429019D01*
X123855078Y-68431076D01*
X123854320Y-68432903D01*
X123850356Y-68439203D01*
X123802737Y-68534441D01*
X123797482Y-68548173D01*
X123797291Y-68550860D01*
X123796260Y-68553350D01*
X123794819Y-68567982D01*
X123683708Y-68567982D01*
X123683708Y-68191395D01*
X125151168Y-68191395D01*
X125151168Y-76849331D01*
G37*
X176060588Y-124917438D02*
X175965350Y-124869819D01*
X175965350Y-124869819D02*
X175822493Y-124869819D01*
X175822493Y-124869819D02*
X175679636Y-124917438D01*
X175679636Y-124917438D02*
X175584398Y-125012676D01*
X175584398Y-125012676D02*
X175536779Y-125107914D01*
X175536779Y-125107914D02*
X175489160Y-125298390D01*
X175489160Y-125298390D02*
X175489160Y-125441247D01*
X175489160Y-125441247D02*
X175536779Y-125631723D01*
X175536779Y-125631723D02*
X175584398Y-125726961D01*
X175584398Y-125726961D02*
X175679636Y-125822200D01*
X175679636Y-125822200D02*
X175822493Y-125869819D01*
X175822493Y-125869819D02*
X175917731Y-125869819D01*
X175917731Y-125869819D02*
X176060588Y-125822200D01*
X176060588Y-125822200D02*
X176108207Y-125774580D01*
X176108207Y-125774580D02*
X176108207Y-125441247D01*
X176108207Y-125441247D02*
X175917731Y-125441247D01*
X177108207Y-125869819D02*
X176774874Y-125393628D01*
X176536779Y-125869819D02*
X176536779Y-124869819D01*
X176536779Y-124869819D02*
X176917731Y-124869819D01*
X176917731Y-124869819D02*
X177012969Y-124917438D01*
X177012969Y-124917438D02*
X177060588Y-124965057D01*
X177060588Y-124965057D02*
X177108207Y-125060295D01*
X177108207Y-125060295D02*
X177108207Y-125203152D01*
X177108207Y-125203152D02*
X177060588Y-125298390D01*
X177060588Y-125298390D02*
X177012969Y-125346009D01*
X177012969Y-125346009D02*
X176917731Y-125393628D01*
X176917731Y-125393628D02*
X176536779Y-125393628D01*
X177536779Y-125346009D02*
X177870112Y-125346009D01*
X178012969Y-125869819D02*
X177536779Y-125869819D01*
X177536779Y-125869819D02*
X177536779Y-124869819D01*
X177536779Y-124869819D02*
X178012969Y-124869819D01*
X178441541Y-125346009D02*
X178774874Y-125346009D01*
X178917731Y-125869819D02*
X178441541Y-125869819D01*
X178441541Y-125869819D02*
X178441541Y-124869819D01*
X178441541Y-124869819D02*
X178917731Y-124869819D01*
X179346303Y-125869819D02*
X179346303Y-124869819D01*
X179346303Y-124869819D02*
X179917731Y-125869819D01*
X179917731Y-125869819D02*
X179917731Y-124869819D01*
X178727255Y-118993628D02*
X178727255Y-119469819D01*
X178393922Y-118469819D02*
X178727255Y-118993628D01*
X178727255Y-118993628D02*
X179060588Y-118469819D01*
X179393922Y-118946009D02*
X179727255Y-118946009D01*
X179870112Y-119469819D02*
X179393922Y-119469819D01*
X179393922Y-119469819D02*
X179393922Y-118469819D01*
X179393922Y-118469819D02*
X179870112Y-118469819D01*
X180774874Y-119469819D02*
X180298684Y-119469819D01*
X180298684Y-119469819D02*
X180298684Y-118469819D01*
X181584398Y-119469819D02*
X181108208Y-119469819D01*
X181108208Y-119469819D02*
X181108208Y-118469819D01*
X182108208Y-118469819D02*
X182298684Y-118469819D01*
X182298684Y-118469819D02*
X182393922Y-118517438D01*
X182393922Y-118517438D02*
X182489160Y-118612676D01*
X182489160Y-118612676D02*
X182536779Y-118803152D01*
X182536779Y-118803152D02*
X182536779Y-119136485D01*
X182536779Y-119136485D02*
X182489160Y-119326961D01*
X182489160Y-119326961D02*
X182393922Y-119422200D01*
X182393922Y-119422200D02*
X182298684Y-119469819D01*
X182298684Y-119469819D02*
X182108208Y-119469819D01*
X182108208Y-119469819D02*
X182012970Y-119422200D01*
X182012970Y-119422200D02*
X181917732Y-119326961D01*
X181917732Y-119326961D02*
X181870113Y-119136485D01*
X181870113Y-119136485D02*
X181870113Y-118803152D01*
X181870113Y-118803152D02*
X181917732Y-118612676D01*
X181917732Y-118612676D02*
X182012970Y-118517438D01*
X182012970Y-118517438D02*
X182108208Y-118469819D01*
X182870113Y-118469819D02*
X183108208Y-119469819D01*
X183108208Y-119469819D02*
X183298684Y-118755533D01*
X183298684Y-118755533D02*
X183489160Y-119469819D01*
X183489160Y-119469819D02*
X183727256Y-118469819D01*
X172127255Y-118993628D02*
X172127255Y-119469819D01*
X171793922Y-118469819D02*
X172127255Y-118993628D01*
X172127255Y-118993628D02*
X172460588Y-118469819D01*
X172793922Y-118946009D02*
X173127255Y-118946009D01*
X173270112Y-119469819D02*
X172793922Y-119469819D01*
X172793922Y-119469819D02*
X172793922Y-118469819D01*
X172793922Y-118469819D02*
X173270112Y-118469819D01*
X174174874Y-119469819D02*
X173698684Y-119469819D01*
X173698684Y-119469819D02*
X173698684Y-118469819D01*
X174984398Y-119469819D02*
X174508208Y-119469819D01*
X174508208Y-119469819D02*
X174508208Y-118469819D01*
X175508208Y-118469819D02*
X175698684Y-118469819D01*
X175698684Y-118469819D02*
X175793922Y-118517438D01*
X175793922Y-118517438D02*
X175889160Y-118612676D01*
X175889160Y-118612676D02*
X175936779Y-118803152D01*
X175936779Y-118803152D02*
X175936779Y-119136485D01*
X175936779Y-119136485D02*
X175889160Y-119326961D01*
X175889160Y-119326961D02*
X175793922Y-119422200D01*
X175793922Y-119422200D02*
X175698684Y-119469819D01*
X175698684Y-119469819D02*
X175508208Y-119469819D01*
X175508208Y-119469819D02*
X175412970Y-119422200D01*
X175412970Y-119422200D02*
X175317732Y-119326961D01*
X175317732Y-119326961D02*
X175270113Y-119136485D01*
X175270113Y-119136485D02*
X175270113Y-118803152D01*
X175270113Y-118803152D02*
X175317732Y-118612676D01*
X175317732Y-118612676D02*
X175412970Y-118517438D01*
X175412970Y-118517438D02*
X175508208Y-118469819D01*
X176270113Y-118469819D02*
X176508208Y-119469819D01*
X176508208Y-119469819D02*
X176698684Y-118755533D01*
X176698684Y-118755533D02*
X176889160Y-119469819D01*
X176889160Y-119469819D02*
X177127256Y-118469819D01*
X177408207Y-112869819D02*
X177074874Y-112393628D01*
X176836779Y-112869819D02*
X176836779Y-111869819D01*
X176836779Y-111869819D02*
X177217731Y-111869819D01*
X177217731Y-111869819D02*
X177312969Y-111917438D01*
X177312969Y-111917438D02*
X177360588Y-111965057D01*
X177360588Y-111965057D02*
X177408207Y-112060295D01*
X177408207Y-112060295D02*
X177408207Y-112203152D01*
X177408207Y-112203152D02*
X177360588Y-112298390D01*
X177360588Y-112298390D02*
X177312969Y-112346009D01*
X177312969Y-112346009D02*
X177217731Y-112393628D01*
X177217731Y-112393628D02*
X176836779Y-112393628D01*
X177836779Y-112346009D02*
X178170112Y-112346009D01*
X178312969Y-112869819D02*
X177836779Y-112869819D01*
X177836779Y-112869819D02*
X177836779Y-111869819D01*
X177836779Y-111869819D02*
X178312969Y-111869819D01*
X178741541Y-112869819D02*
X178741541Y-111869819D01*
X178741541Y-111869819D02*
X178979636Y-111869819D01*
X178979636Y-111869819D02*
X179122493Y-111917438D01*
X179122493Y-111917438D02*
X179217731Y-112012676D01*
X179217731Y-112012676D02*
X179265350Y-112107914D01*
X179265350Y-112107914D02*
X179312969Y-112298390D01*
X179312969Y-112298390D02*
X179312969Y-112441247D01*
X179312969Y-112441247D02*
X179265350Y-112631723D01*
X179265350Y-112631723D02*
X179217731Y-112726961D01*
X179217731Y-112726961D02*
X179122493Y-112822200D01*
X179122493Y-112822200D02*
X178979636Y-112869819D01*
X178979636Y-112869819D02*
X178741541Y-112869819D01*
X169488095Y-78604819D02*
X169488095Y-79414342D01*
X169488095Y-79414342D02*
X169535714Y-79509580D01*
X169535714Y-79509580D02*
X169583333Y-79557200D01*
X169583333Y-79557200D02*
X169678571Y-79604819D01*
X169678571Y-79604819D02*
X169869047Y-79604819D01*
X169869047Y-79604819D02*
X169964285Y-79557200D01*
X169964285Y-79557200D02*
X170011904Y-79509580D01*
X170011904Y-79509580D02*
X170059523Y-79414342D01*
X170059523Y-79414342D02*
X170059523Y-78604819D01*
X170440476Y-78604819D02*
X171059523Y-78604819D01*
X171059523Y-78604819D02*
X170726190Y-78985771D01*
X170726190Y-78985771D02*
X170869047Y-78985771D01*
X170869047Y-78985771D02*
X170964285Y-79033390D01*
X170964285Y-79033390D02*
X171011904Y-79081009D01*
X171011904Y-79081009D02*
X171059523Y-79176247D01*
X171059523Y-79176247D02*
X171059523Y-79414342D01*
X171059523Y-79414342D02*
X171011904Y-79509580D01*
X171011904Y-79509580D02*
X170964285Y-79557200D01*
X170964285Y-79557200D02*
X170869047Y-79604819D01*
X170869047Y-79604819D02*
X170583333Y-79604819D01*
X170583333Y-79604819D02*
X170488095Y-79557200D01*
X170488095Y-79557200D02*
X170440476Y-79509580D01*
X174229819Y-123738094D02*
X173229819Y-123738094D01*
X173229819Y-123738094D02*
X173229819Y-123499999D01*
X173229819Y-123499999D02*
X173277438Y-123357142D01*
X173277438Y-123357142D02*
X173372676Y-123261904D01*
X173372676Y-123261904D02*
X173467914Y-123214285D01*
X173467914Y-123214285D02*
X173658390Y-123166666D01*
X173658390Y-123166666D02*
X173801247Y-123166666D01*
X173801247Y-123166666D02*
X173991723Y-123214285D01*
X173991723Y-123214285D02*
X174086961Y-123261904D01*
X174086961Y-123261904D02*
X174182200Y-123357142D01*
X174182200Y-123357142D02*
X174229819Y-123499999D01*
X174229819Y-123499999D02*
X174229819Y-123738094D01*
X173229819Y-122833332D02*
X173229819Y-122214285D01*
X173229819Y-122214285D02*
X173610771Y-122547618D01*
X173610771Y-122547618D02*
X173610771Y-122404761D01*
X173610771Y-122404761D02*
X173658390Y-122309523D01*
X173658390Y-122309523D02*
X173706009Y-122261904D01*
X173706009Y-122261904D02*
X173801247Y-122214285D01*
X173801247Y-122214285D02*
X174039342Y-122214285D01*
X174039342Y-122214285D02*
X174134580Y-122261904D01*
X174134580Y-122261904D02*
X174182200Y-122309523D01*
X174182200Y-122309523D02*
X174229819Y-122404761D01*
X174229819Y-122404761D02*
X174229819Y-122690475D01*
X174229819Y-122690475D02*
X174182200Y-122785713D01*
X174182200Y-122785713D02*
X174134580Y-122833332D01*
X125454819Y-82666666D02*
X124978628Y-82999999D01*
X125454819Y-83238094D02*
X124454819Y-83238094D01*
X124454819Y-83238094D02*
X124454819Y-82857142D01*
X124454819Y-82857142D02*
X124502438Y-82761904D01*
X124502438Y-82761904D02*
X124550057Y-82714285D01*
X124550057Y-82714285D02*
X124645295Y-82666666D01*
X124645295Y-82666666D02*
X124788152Y-82666666D01*
X124788152Y-82666666D02*
X124883390Y-82714285D01*
X124883390Y-82714285D02*
X124931009Y-82761904D01*
X124931009Y-82761904D02*
X124978628Y-82857142D01*
X124978628Y-82857142D02*
X124978628Y-83238094D01*
X125454819Y-81714285D02*
X125454819Y-82285713D01*
X125454819Y-81999999D02*
X124454819Y-81999999D01*
X124454819Y-81999999D02*
X124597676Y-82095237D01*
X124597676Y-82095237D02*
X124692914Y-82190475D01*
X124692914Y-82190475D02*
X124740533Y-82285713D01*
X179859580Y-75416666D02*
X179907200Y-75464285D01*
X179907200Y-75464285D02*
X179954819Y-75607142D01*
X179954819Y-75607142D02*
X179954819Y-75702380D01*
X179954819Y-75702380D02*
X179907200Y-75845237D01*
X179907200Y-75845237D02*
X179811961Y-75940475D01*
X179811961Y-75940475D02*
X179716723Y-75988094D01*
X179716723Y-75988094D02*
X179526247Y-76035713D01*
X179526247Y-76035713D02*
X179383390Y-76035713D01*
X179383390Y-76035713D02*
X179192914Y-75988094D01*
X179192914Y-75988094D02*
X179097676Y-75940475D01*
X179097676Y-75940475D02*
X179002438Y-75845237D01*
X179002438Y-75845237D02*
X178954819Y-75702380D01*
X178954819Y-75702380D02*
X178954819Y-75607142D01*
X178954819Y-75607142D02*
X179002438Y-75464285D01*
X179002438Y-75464285D02*
X179050057Y-75416666D01*
X179954819Y-74464285D02*
X179954819Y-75035713D01*
X179954819Y-74749999D02*
X178954819Y-74749999D01*
X178954819Y-74749999D02*
X179097676Y-74845237D01*
X179097676Y-74845237D02*
X179192914Y-74940475D01*
X179192914Y-74940475D02*
X179240533Y-75035713D01*
X170719819Y-116738094D02*
X169719819Y-116738094D01*
X169719819Y-116738094D02*
X169719819Y-116499999D01*
X169719819Y-116499999D02*
X169767438Y-116357142D01*
X169767438Y-116357142D02*
X169862676Y-116261904D01*
X169862676Y-116261904D02*
X169957914Y-116214285D01*
X169957914Y-116214285D02*
X170148390Y-116166666D01*
X170148390Y-116166666D02*
X170291247Y-116166666D01*
X170291247Y-116166666D02*
X170481723Y-116214285D01*
X170481723Y-116214285D02*
X170576961Y-116261904D01*
X170576961Y-116261904D02*
X170672200Y-116357142D01*
X170672200Y-116357142D02*
X170719819Y-116499999D01*
X170719819Y-116499999D02*
X170719819Y-116738094D01*
X169815057Y-115785713D02*
X169767438Y-115738094D01*
X169767438Y-115738094D02*
X169719819Y-115642856D01*
X169719819Y-115642856D02*
X169719819Y-115404761D01*
X169719819Y-115404761D02*
X169767438Y-115309523D01*
X169767438Y-115309523D02*
X169815057Y-115261904D01*
X169815057Y-115261904D02*
X169910295Y-115214285D01*
X169910295Y-115214285D02*
X170005533Y-115214285D01*
X170005533Y-115214285D02*
X170148390Y-115261904D01*
X170148390Y-115261904D02*
X170719819Y-115833332D01*
X170719819Y-115833332D02*
X170719819Y-115214285D01*
X161508333Y-118024819D02*
X161175000Y-117548628D01*
X160936905Y-118024819D02*
X160936905Y-117024819D01*
X160936905Y-117024819D02*
X161317857Y-117024819D01*
X161317857Y-117024819D02*
X161413095Y-117072438D01*
X161413095Y-117072438D02*
X161460714Y-117120057D01*
X161460714Y-117120057D02*
X161508333Y-117215295D01*
X161508333Y-117215295D02*
X161508333Y-117358152D01*
X161508333Y-117358152D02*
X161460714Y-117453390D01*
X161460714Y-117453390D02*
X161413095Y-117501009D01*
X161413095Y-117501009D02*
X161317857Y-117548628D01*
X161317857Y-117548628D02*
X160936905Y-117548628D01*
X162079762Y-117453390D02*
X161984524Y-117405771D01*
X161984524Y-117405771D02*
X161936905Y-117358152D01*
X161936905Y-117358152D02*
X161889286Y-117262914D01*
X161889286Y-117262914D02*
X161889286Y-117215295D01*
X161889286Y-117215295D02*
X161936905Y-117120057D01*
X161936905Y-117120057D02*
X161984524Y-117072438D01*
X161984524Y-117072438D02*
X162079762Y-117024819D01*
X162079762Y-117024819D02*
X162270238Y-117024819D01*
X162270238Y-117024819D02*
X162365476Y-117072438D01*
X162365476Y-117072438D02*
X162413095Y-117120057D01*
X162413095Y-117120057D02*
X162460714Y-117215295D01*
X162460714Y-117215295D02*
X162460714Y-117262914D01*
X162460714Y-117262914D02*
X162413095Y-117358152D01*
X162413095Y-117358152D02*
X162365476Y-117405771D01*
X162365476Y-117405771D02*
X162270238Y-117453390D01*
X162270238Y-117453390D02*
X162079762Y-117453390D01*
X162079762Y-117453390D02*
X161984524Y-117501009D01*
X161984524Y-117501009D02*
X161936905Y-117548628D01*
X161936905Y-117548628D02*
X161889286Y-117643866D01*
X161889286Y-117643866D02*
X161889286Y-117834342D01*
X161889286Y-117834342D02*
X161936905Y-117929580D01*
X161936905Y-117929580D02*
X161984524Y-117977200D01*
X161984524Y-117977200D02*
X162079762Y-118024819D01*
X162079762Y-118024819D02*
X162270238Y-118024819D01*
X162270238Y-118024819D02*
X162365476Y-117977200D01*
X162365476Y-117977200D02*
X162413095Y-117929580D01*
X162413095Y-117929580D02*
X162460714Y-117834342D01*
X162460714Y-117834342D02*
X162460714Y-117643866D01*
X162460714Y-117643866D02*
X162413095Y-117548628D01*
X162413095Y-117548628D02*
X162365476Y-117501009D01*
X162365476Y-117501009D02*
X162270238Y-117453390D01*
X151333333Y-61859580D02*
X151285714Y-61907200D01*
X151285714Y-61907200D02*
X151142857Y-61954819D01*
X151142857Y-61954819D02*
X151047619Y-61954819D01*
X151047619Y-61954819D02*
X150904762Y-61907200D01*
X150904762Y-61907200D02*
X150809524Y-61811961D01*
X150809524Y-61811961D02*
X150761905Y-61716723D01*
X150761905Y-61716723D02*
X150714286Y-61526247D01*
X150714286Y-61526247D02*
X150714286Y-61383390D01*
X150714286Y-61383390D02*
X150761905Y-61192914D01*
X150761905Y-61192914D02*
X150809524Y-61097676D01*
X150809524Y-61097676D02*
X150904762Y-61002438D01*
X150904762Y-61002438D02*
X151047619Y-60954819D01*
X151047619Y-60954819D02*
X151142857Y-60954819D01*
X151142857Y-60954819D02*
X151285714Y-61002438D01*
X151285714Y-61002438D02*
X151333333Y-61050057D01*
X151714286Y-61050057D02*
X151761905Y-61002438D01*
X151761905Y-61002438D02*
X151857143Y-60954819D01*
X151857143Y-60954819D02*
X152095238Y-60954819D01*
X152095238Y-60954819D02*
X152190476Y-61002438D01*
X152190476Y-61002438D02*
X152238095Y-61050057D01*
X152238095Y-61050057D02*
X152285714Y-61145295D01*
X152285714Y-61145295D02*
X152285714Y-61240533D01*
X152285714Y-61240533D02*
X152238095Y-61383390D01*
X152238095Y-61383390D02*
X151666667Y-61954819D01*
X151666667Y-61954819D02*
X152285714Y-61954819D01*
X161508333Y-114504819D02*
X161175000Y-114028628D01*
X160936905Y-114504819D02*
X160936905Y-113504819D01*
X160936905Y-113504819D02*
X161317857Y-113504819D01*
X161317857Y-113504819D02*
X161413095Y-113552438D01*
X161413095Y-113552438D02*
X161460714Y-113600057D01*
X161460714Y-113600057D02*
X161508333Y-113695295D01*
X161508333Y-113695295D02*
X161508333Y-113838152D01*
X161508333Y-113838152D02*
X161460714Y-113933390D01*
X161460714Y-113933390D02*
X161413095Y-113981009D01*
X161413095Y-113981009D02*
X161317857Y-114028628D01*
X161317857Y-114028628D02*
X160936905Y-114028628D01*
X162365476Y-113504819D02*
X162175000Y-113504819D01*
X162175000Y-113504819D02*
X162079762Y-113552438D01*
X162079762Y-113552438D02*
X162032143Y-113600057D01*
X162032143Y-113600057D02*
X161936905Y-113742914D01*
X161936905Y-113742914D02*
X161889286Y-113933390D01*
X161889286Y-113933390D02*
X161889286Y-114314342D01*
X161889286Y-114314342D02*
X161936905Y-114409580D01*
X161936905Y-114409580D02*
X161984524Y-114457200D01*
X161984524Y-114457200D02*
X162079762Y-114504819D01*
X162079762Y-114504819D02*
X162270238Y-114504819D01*
X162270238Y-114504819D02*
X162365476Y-114457200D01*
X162365476Y-114457200D02*
X162413095Y-114409580D01*
X162413095Y-114409580D02*
X162460714Y-114314342D01*
X162460714Y-114314342D02*
X162460714Y-114076247D01*
X162460714Y-114076247D02*
X162413095Y-113981009D01*
X162413095Y-113981009D02*
X162365476Y-113933390D01*
X162365476Y-113933390D02*
X162270238Y-113885771D01*
X162270238Y-113885771D02*
X162079762Y-113885771D01*
X162079762Y-113885771D02*
X161984524Y-113933390D01*
X161984524Y-113933390D02*
X161936905Y-113981009D01*
X161936905Y-113981009D02*
X161889286Y-114076247D01*
X164583333Y-68859580D02*
X164535714Y-68907200D01*
X164535714Y-68907200D02*
X164392857Y-68954819D01*
X164392857Y-68954819D02*
X164297619Y-68954819D01*
X164297619Y-68954819D02*
X164154762Y-68907200D01*
X164154762Y-68907200D02*
X164059524Y-68811961D01*
X164059524Y-68811961D02*
X164011905Y-68716723D01*
X164011905Y-68716723D02*
X163964286Y-68526247D01*
X163964286Y-68526247D02*
X163964286Y-68383390D01*
X163964286Y-68383390D02*
X164011905Y-68192914D01*
X164011905Y-68192914D02*
X164059524Y-68097676D01*
X164059524Y-68097676D02*
X164154762Y-68002438D01*
X164154762Y-68002438D02*
X164297619Y-67954819D01*
X164297619Y-67954819D02*
X164392857Y-67954819D01*
X164392857Y-67954819D02*
X164535714Y-68002438D01*
X164535714Y-68002438D02*
X164583333Y-68050057D01*
X164916667Y-67954819D02*
X165535714Y-67954819D01*
X165535714Y-67954819D02*
X165202381Y-68335771D01*
X165202381Y-68335771D02*
X165345238Y-68335771D01*
X165345238Y-68335771D02*
X165440476Y-68383390D01*
X165440476Y-68383390D02*
X165488095Y-68431009D01*
X165488095Y-68431009D02*
X165535714Y-68526247D01*
X165535714Y-68526247D02*
X165535714Y-68764342D01*
X165535714Y-68764342D02*
X165488095Y-68859580D01*
X165488095Y-68859580D02*
X165440476Y-68907200D01*
X165440476Y-68907200D02*
X165345238Y-68954819D01*
X165345238Y-68954819D02*
X165059524Y-68954819D01*
X165059524Y-68954819D02*
X164964286Y-68907200D01*
X164964286Y-68907200D02*
X164916667Y-68859580D01*
X125954819Y-91166666D02*
X125478628Y-91499999D01*
X125954819Y-91738094D02*
X124954819Y-91738094D01*
X124954819Y-91738094D02*
X124954819Y-91357142D01*
X124954819Y-91357142D02*
X125002438Y-91261904D01*
X125002438Y-91261904D02*
X125050057Y-91214285D01*
X125050057Y-91214285D02*
X125145295Y-91166666D01*
X125145295Y-91166666D02*
X125288152Y-91166666D01*
X125288152Y-91166666D02*
X125383390Y-91214285D01*
X125383390Y-91214285D02*
X125431009Y-91261904D01*
X125431009Y-91261904D02*
X125478628Y-91357142D01*
X125478628Y-91357142D02*
X125478628Y-91738094D01*
X125050057Y-90785713D02*
X125002438Y-90738094D01*
X125002438Y-90738094D02*
X124954819Y-90642856D01*
X124954819Y-90642856D02*
X124954819Y-90404761D01*
X124954819Y-90404761D02*
X125002438Y-90309523D01*
X125002438Y-90309523D02*
X125050057Y-90261904D01*
X125050057Y-90261904D02*
X125145295Y-90214285D01*
X125145295Y-90214285D02*
X125240533Y-90214285D01*
X125240533Y-90214285D02*
X125383390Y-90261904D01*
X125383390Y-90261904D02*
X125954819Y-90833332D01*
X125954819Y-90833332D02*
X125954819Y-90214285D01*
X161508333Y-123024819D02*
X161175000Y-122548628D01*
X160936905Y-123024819D02*
X160936905Y-122024819D01*
X160936905Y-122024819D02*
X161317857Y-122024819D01*
X161317857Y-122024819D02*
X161413095Y-122072438D01*
X161413095Y-122072438D02*
X161460714Y-122120057D01*
X161460714Y-122120057D02*
X161508333Y-122215295D01*
X161508333Y-122215295D02*
X161508333Y-122358152D01*
X161508333Y-122358152D02*
X161460714Y-122453390D01*
X161460714Y-122453390D02*
X161413095Y-122501009D01*
X161413095Y-122501009D02*
X161317857Y-122548628D01*
X161317857Y-122548628D02*
X160936905Y-122548628D01*
X161841667Y-122024819D02*
X162508333Y-122024819D01*
X162508333Y-122024819D02*
X162079762Y-123024819D01*
X184994819Y-116738094D02*
X183994819Y-116738094D01*
X183994819Y-116738094D02*
X183994819Y-116499999D01*
X183994819Y-116499999D02*
X184042438Y-116357142D01*
X184042438Y-116357142D02*
X184137676Y-116261904D01*
X184137676Y-116261904D02*
X184232914Y-116214285D01*
X184232914Y-116214285D02*
X184423390Y-116166666D01*
X184423390Y-116166666D02*
X184566247Y-116166666D01*
X184566247Y-116166666D02*
X184756723Y-116214285D01*
X184756723Y-116214285D02*
X184851961Y-116261904D01*
X184851961Y-116261904D02*
X184947200Y-116357142D01*
X184947200Y-116357142D02*
X184994819Y-116499999D01*
X184994819Y-116499999D02*
X184994819Y-116738094D01*
X184328152Y-115309523D02*
X184994819Y-115309523D01*
X183947200Y-115547618D02*
X184661485Y-115785713D01*
X184661485Y-115785713D02*
X184661485Y-115166666D01*
X161508333Y-111024819D02*
X161175000Y-110548628D01*
X160936905Y-111024819D02*
X160936905Y-110024819D01*
X160936905Y-110024819D02*
X161317857Y-110024819D01*
X161317857Y-110024819D02*
X161413095Y-110072438D01*
X161413095Y-110072438D02*
X161460714Y-110120057D01*
X161460714Y-110120057D02*
X161508333Y-110215295D01*
X161508333Y-110215295D02*
X161508333Y-110358152D01*
X161508333Y-110358152D02*
X161460714Y-110453390D01*
X161460714Y-110453390D02*
X161413095Y-110501009D01*
X161413095Y-110501009D02*
X161317857Y-110548628D01*
X161317857Y-110548628D02*
X160936905Y-110548628D01*
X162413095Y-110024819D02*
X161936905Y-110024819D01*
X161936905Y-110024819D02*
X161889286Y-110501009D01*
X161889286Y-110501009D02*
X161936905Y-110453390D01*
X161936905Y-110453390D02*
X162032143Y-110405771D01*
X162032143Y-110405771D02*
X162270238Y-110405771D01*
X162270238Y-110405771D02*
X162365476Y-110453390D01*
X162365476Y-110453390D02*
X162413095Y-110501009D01*
X162413095Y-110501009D02*
X162460714Y-110596247D01*
X162460714Y-110596247D02*
X162460714Y-110834342D01*
X162460714Y-110834342D02*
X162413095Y-110929580D01*
X162413095Y-110929580D02*
X162365476Y-110977200D01*
X162365476Y-110977200D02*
X162270238Y-111024819D01*
X162270238Y-111024819D02*
X162032143Y-111024819D01*
X162032143Y-111024819D02*
X161936905Y-110977200D01*
X161936905Y-110977200D02*
X161889286Y-110929580D01*
X177266905Y-106604819D02*
X177266905Y-105604819D01*
X177266905Y-105604819D02*
X177505000Y-105604819D01*
X177505000Y-105604819D02*
X177647857Y-105652438D01*
X177647857Y-105652438D02*
X177743095Y-105747676D01*
X177743095Y-105747676D02*
X177790714Y-105842914D01*
X177790714Y-105842914D02*
X177838333Y-106033390D01*
X177838333Y-106033390D02*
X177838333Y-106176247D01*
X177838333Y-106176247D02*
X177790714Y-106366723D01*
X177790714Y-106366723D02*
X177743095Y-106461961D01*
X177743095Y-106461961D02*
X177647857Y-106557200D01*
X177647857Y-106557200D02*
X177505000Y-106604819D01*
X177505000Y-106604819D02*
X177266905Y-106604819D01*
X178790714Y-106604819D02*
X178219286Y-106604819D01*
X178505000Y-106604819D02*
X178505000Y-105604819D01*
X178505000Y-105604819D02*
X178409762Y-105747676D01*
X178409762Y-105747676D02*
X178314524Y-105842914D01*
X178314524Y-105842914D02*
X178219286Y-105890533D01*
X173688095Y-80464819D02*
X173688095Y-81274342D01*
X173688095Y-81274342D02*
X173735714Y-81369580D01*
X173735714Y-81369580D02*
X173783333Y-81417200D01*
X173783333Y-81417200D02*
X173878571Y-81464819D01*
X173878571Y-81464819D02*
X174069047Y-81464819D01*
X174069047Y-81464819D02*
X174164285Y-81417200D01*
X174164285Y-81417200D02*
X174211904Y-81369580D01*
X174211904Y-81369580D02*
X174259523Y-81274342D01*
X174259523Y-81274342D02*
X174259523Y-80464819D01*
X175259523Y-81464819D02*
X174688095Y-81464819D01*
X174973809Y-81464819D02*
X174973809Y-80464819D01*
X174973809Y-80464819D02*
X174878571Y-80607676D01*
X174878571Y-80607676D02*
X174783333Y-80702914D01*
X174783333Y-80702914D02*
X174688095Y-80750533D01*
X127454819Y-96166666D02*
X126978628Y-96499999D01*
X127454819Y-96738094D02*
X126454819Y-96738094D01*
X126454819Y-96738094D02*
X126454819Y-96357142D01*
X126454819Y-96357142D02*
X126502438Y-96261904D01*
X126502438Y-96261904D02*
X126550057Y-96214285D01*
X126550057Y-96214285D02*
X126645295Y-96166666D01*
X126645295Y-96166666D02*
X126788152Y-96166666D01*
X126788152Y-96166666D02*
X126883390Y-96214285D01*
X126883390Y-96214285D02*
X126931009Y-96261904D01*
X126931009Y-96261904D02*
X126978628Y-96357142D01*
X126978628Y-96357142D02*
X126978628Y-96738094D01*
X126454819Y-95833332D02*
X126454819Y-95214285D01*
X126454819Y-95214285D02*
X126835771Y-95547618D01*
X126835771Y-95547618D02*
X126835771Y-95404761D01*
X126835771Y-95404761D02*
X126883390Y-95309523D01*
X126883390Y-95309523D02*
X126931009Y-95261904D01*
X126931009Y-95261904D02*
X127026247Y-95214285D01*
X127026247Y-95214285D02*
X127264342Y-95214285D01*
X127264342Y-95214285D02*
X127359580Y-95261904D01*
X127359580Y-95261904D02*
X127407200Y-95309523D01*
X127407200Y-95309523D02*
X127454819Y-95404761D01*
X127454819Y-95404761D02*
X127454819Y-95690475D01*
X127454819Y-95690475D02*
X127407200Y-95785713D01*
X127407200Y-95785713D02*
X127359580Y-95833332D01*
X124954819Y-107166666D02*
X124478628Y-107499999D01*
X124954819Y-107738094D02*
X123954819Y-107738094D01*
X123954819Y-107738094D02*
X123954819Y-107357142D01*
X123954819Y-107357142D02*
X124002438Y-107261904D01*
X124002438Y-107261904D02*
X124050057Y-107214285D01*
X124050057Y-107214285D02*
X124145295Y-107166666D01*
X124145295Y-107166666D02*
X124288152Y-107166666D01*
X124288152Y-107166666D02*
X124383390Y-107214285D01*
X124383390Y-107214285D02*
X124431009Y-107261904D01*
X124431009Y-107261904D02*
X124478628Y-107357142D01*
X124478628Y-107357142D02*
X124478628Y-107738094D01*
X124288152Y-106309523D02*
X124954819Y-106309523D01*
X123907200Y-106547618D02*
X124621485Y-106785713D01*
X124621485Y-106785713D02*
X124621485Y-106166666D01*
X139108095Y-64904819D02*
X139108095Y-65714342D01*
X139108095Y-65714342D02*
X139155714Y-65809580D01*
X139155714Y-65809580D02*
X139203333Y-65857200D01*
X139203333Y-65857200D02*
X139298571Y-65904819D01*
X139298571Y-65904819D02*
X139489047Y-65904819D01*
X139489047Y-65904819D02*
X139584285Y-65857200D01*
X139584285Y-65857200D02*
X139631904Y-65809580D01*
X139631904Y-65809580D02*
X139679523Y-65714342D01*
X139679523Y-65714342D02*
X139679523Y-64904819D01*
X140584285Y-65238152D02*
X140584285Y-65904819D01*
X140346190Y-64857200D02*
X140108095Y-65571485D01*
X140108095Y-65571485D02*
X140727142Y-65571485D01*
X138192800Y-115515143D02*
X138145180Y-115643715D01*
X138145180Y-115643715D02*
X138145180Y-115858000D01*
X138145180Y-115858000D02*
X138192800Y-115943715D01*
X138192800Y-115943715D02*
X138240419Y-115986572D01*
X138240419Y-115986572D02*
X138335657Y-116029429D01*
X138335657Y-116029429D02*
X138430895Y-116029429D01*
X138430895Y-116029429D02*
X138526133Y-115986572D01*
X138526133Y-115986572D02*
X138573752Y-115943715D01*
X138573752Y-115943715D02*
X138621371Y-115858000D01*
X138621371Y-115858000D02*
X138668990Y-115686572D01*
X138668990Y-115686572D02*
X138716609Y-115600857D01*
X138716609Y-115600857D02*
X138764228Y-115558000D01*
X138764228Y-115558000D02*
X138859466Y-115515143D01*
X138859466Y-115515143D02*
X138954704Y-115515143D01*
X138954704Y-115515143D02*
X139049942Y-115558000D01*
X139049942Y-115558000D02*
X139097561Y-115600857D01*
X139097561Y-115600857D02*
X139145180Y-115686572D01*
X139145180Y-115686572D02*
X139145180Y-115900857D01*
X139145180Y-115900857D02*
X139097561Y-116029429D01*
X139145180Y-116329429D02*
X138145180Y-116543715D01*
X138145180Y-116543715D02*
X138859466Y-116715143D01*
X138859466Y-116715143D02*
X138145180Y-116886572D01*
X138145180Y-116886572D02*
X139145180Y-117100858D01*
X139145180Y-117615143D02*
X139145180Y-117786571D01*
X139145180Y-117786571D02*
X139097561Y-117872286D01*
X139097561Y-117872286D02*
X139002323Y-117958000D01*
X139002323Y-117958000D02*
X138811847Y-118000857D01*
X138811847Y-118000857D02*
X138478514Y-118000857D01*
X138478514Y-118000857D02*
X138288038Y-117958000D01*
X138288038Y-117958000D02*
X138192800Y-117872286D01*
X138192800Y-117872286D02*
X138145180Y-117786571D01*
X138145180Y-117786571D02*
X138145180Y-117615143D01*
X138145180Y-117615143D02*
X138192800Y-117529429D01*
X138192800Y-117529429D02*
X138288038Y-117443714D01*
X138288038Y-117443714D02*
X138478514Y-117400857D01*
X138478514Y-117400857D02*
X138811847Y-117400857D01*
X138811847Y-117400857D02*
X139002323Y-117443714D01*
X139002323Y-117443714D02*
X139097561Y-117529429D01*
X139097561Y-117529429D02*
X139145180Y-117615143D01*
X144177561Y-116072286D02*
X144225180Y-115986572D01*
X144225180Y-115986572D02*
X144225180Y-115858000D01*
X144225180Y-115858000D02*
X144177561Y-115729429D01*
X144177561Y-115729429D02*
X144082323Y-115643714D01*
X144082323Y-115643714D02*
X143987085Y-115600857D01*
X143987085Y-115600857D02*
X143796609Y-115558000D01*
X143796609Y-115558000D02*
X143653752Y-115558000D01*
X143653752Y-115558000D02*
X143463276Y-115600857D01*
X143463276Y-115600857D02*
X143368038Y-115643714D01*
X143368038Y-115643714D02*
X143272800Y-115729429D01*
X143272800Y-115729429D02*
X143225180Y-115858000D01*
X143225180Y-115858000D02*
X143225180Y-115943714D01*
X143225180Y-115943714D02*
X143272800Y-116072286D01*
X143272800Y-116072286D02*
X143320419Y-116115143D01*
X143320419Y-116115143D02*
X143653752Y-116115143D01*
X143653752Y-116115143D02*
X143653752Y-115943714D01*
X143225180Y-116500857D02*
X144225180Y-116500857D01*
X144225180Y-116500857D02*
X143225180Y-117015143D01*
X143225180Y-117015143D02*
X144225180Y-117015143D01*
X143225180Y-117443714D02*
X144225180Y-117443714D01*
X144225180Y-117443714D02*
X144225180Y-117658000D01*
X144225180Y-117658000D02*
X144177561Y-117786571D01*
X144177561Y-117786571D02*
X144082323Y-117872286D01*
X144082323Y-117872286D02*
X143987085Y-117915143D01*
X143987085Y-117915143D02*
X143796609Y-117958000D01*
X143796609Y-117958000D02*
X143653752Y-117958000D01*
X143653752Y-117958000D02*
X143463276Y-117915143D01*
X143463276Y-117915143D02*
X143368038Y-117872286D01*
X143368038Y-117872286D02*
X143272800Y-117786571D01*
X143272800Y-117786571D02*
X143225180Y-117658000D01*
X143225180Y-117658000D02*
X143225180Y-117443714D01*
X140732800Y-115484286D02*
X140685180Y-115612858D01*
X140685180Y-115612858D02*
X140685180Y-115827143D01*
X140685180Y-115827143D02*
X140732800Y-115912858D01*
X140732800Y-115912858D02*
X140780419Y-115955715D01*
X140780419Y-115955715D02*
X140875657Y-115998572D01*
X140875657Y-115998572D02*
X140970895Y-115998572D01*
X140970895Y-115998572D02*
X141066133Y-115955715D01*
X141066133Y-115955715D02*
X141113752Y-115912858D01*
X141113752Y-115912858D02*
X141161371Y-115827143D01*
X141161371Y-115827143D02*
X141208990Y-115655715D01*
X141208990Y-115655715D02*
X141256609Y-115570000D01*
X141256609Y-115570000D02*
X141304228Y-115527143D01*
X141304228Y-115527143D02*
X141399466Y-115484286D01*
X141399466Y-115484286D02*
X141494704Y-115484286D01*
X141494704Y-115484286D02*
X141589942Y-115527143D01*
X141589942Y-115527143D02*
X141637561Y-115570000D01*
X141637561Y-115570000D02*
X141685180Y-115655715D01*
X141685180Y-115655715D02*
X141685180Y-115870000D01*
X141685180Y-115870000D02*
X141637561Y-115998572D01*
X141685180Y-116298572D02*
X140685180Y-116512858D01*
X140685180Y-116512858D02*
X141399466Y-116684286D01*
X141399466Y-116684286D02*
X140685180Y-116855715D01*
X140685180Y-116855715D02*
X141685180Y-117070001D01*
X140780419Y-117927143D02*
X140732800Y-117884286D01*
X140732800Y-117884286D02*
X140685180Y-117755714D01*
X140685180Y-117755714D02*
X140685180Y-117670000D01*
X140685180Y-117670000D02*
X140732800Y-117541429D01*
X140732800Y-117541429D02*
X140828038Y-117455714D01*
X140828038Y-117455714D02*
X140923276Y-117412857D01*
X140923276Y-117412857D02*
X141113752Y-117370000D01*
X141113752Y-117370000D02*
X141256609Y-117370000D01*
X141256609Y-117370000D02*
X141447085Y-117412857D01*
X141447085Y-117412857D02*
X141542323Y-117455714D01*
X141542323Y-117455714D02*
X141637561Y-117541429D01*
X141637561Y-117541429D02*
X141685180Y-117670000D01*
X141685180Y-117670000D02*
X141685180Y-117755714D01*
X141685180Y-117755714D02*
X141637561Y-117884286D01*
X141637561Y-117884286D02*
X141589942Y-117927143D01*
X140685180Y-118741429D02*
X140685180Y-118312857D01*
X140685180Y-118312857D02*
X141685180Y-118312857D01*
X140685180Y-119041428D02*
X141685180Y-119041428D01*
X140685180Y-119555714D02*
X141256609Y-119170000D01*
X141685180Y-119555714D02*
X141113752Y-119041428D01*
X136605180Y-115643714D02*
X136605180Y-116200857D01*
X136605180Y-116200857D02*
X136224228Y-115900857D01*
X136224228Y-115900857D02*
X136224228Y-116029428D01*
X136224228Y-116029428D02*
X136176609Y-116115143D01*
X136176609Y-116115143D02*
X136128990Y-116158000D01*
X136128990Y-116158000D02*
X136033752Y-116200857D01*
X136033752Y-116200857D02*
X135795657Y-116200857D01*
X135795657Y-116200857D02*
X135700419Y-116158000D01*
X135700419Y-116158000D02*
X135652800Y-116115143D01*
X135652800Y-116115143D02*
X135605180Y-116029428D01*
X135605180Y-116029428D02*
X135605180Y-115772285D01*
X135605180Y-115772285D02*
X135652800Y-115686571D01*
X135652800Y-115686571D02*
X135700419Y-115643714D01*
X136605180Y-116458000D02*
X135605180Y-116758000D01*
X135605180Y-116758000D02*
X136605180Y-117058000D01*
X136605180Y-117272286D02*
X136605180Y-117829429D01*
X136605180Y-117829429D02*
X136224228Y-117529429D01*
X136224228Y-117529429D02*
X136224228Y-117658000D01*
X136224228Y-117658000D02*
X136176609Y-117743715D01*
X136176609Y-117743715D02*
X136128990Y-117786572D01*
X136128990Y-117786572D02*
X136033752Y-117829429D01*
X136033752Y-117829429D02*
X135795657Y-117829429D01*
X135795657Y-117829429D02*
X135700419Y-117786572D01*
X135700419Y-117786572D02*
X135652800Y-117743715D01*
X135652800Y-117743715D02*
X135605180Y-117658000D01*
X135605180Y-117658000D02*
X135605180Y-117400857D01*
X135605180Y-117400857D02*
X135652800Y-117315143D01*
X135652800Y-117315143D02*
X135700419Y-117272286D01*
D11*
X117755000Y-84440000D02*
X118755000Y-84440000D01*
X118755000Y-84000000D01*
X117755000Y-84000000D01*
X117755000Y-84440000D01*
D13*
X119155000Y-114560000D02*
X119155000Y-84440000D01*
X111755000Y-84440000D02*
X119715000Y-84440000D01*
X111755000Y-114560000D02*
X111755000Y-84440000D01*
X111755000Y-114560000D02*
X119715000Y-114560000D01*
X112754000Y-114560000D02*
X112754000Y-84440000D01*
X113780000Y-85930000D02*
X113816000Y-85965000D01*
X113780000Y-90930000D02*
X113816000Y-90965000D01*
X113780000Y-95930000D02*
X113816000Y-95965000D01*
X113780000Y-100930000D02*
X113816000Y-100965000D01*
X113780000Y-105930000D02*
X113816000Y-105965000D01*
X113986000Y-85725000D02*
X114032000Y-85772000D01*
X113986000Y-90725000D02*
X114032000Y-90772000D01*
X113986000Y-95725000D02*
X114032000Y-95772000D01*
X113986000Y-100725000D02*
X114032000Y-100772000D01*
X113986000Y-105725000D02*
X114032000Y-105772000D01*
X116078000Y-88227000D02*
X116124000Y-88274000D01*
X116078000Y-93227000D02*
X116124000Y-93274000D01*
X116078000Y-98227000D02*
X116124000Y-98274000D01*
X116078000Y-103227000D02*
X116124000Y-103274000D01*
X116078000Y-108227000D02*
X116124000Y-108274000D01*
X116294000Y-88034000D02*
X116329000Y-88069000D01*
X116294000Y-93034000D02*
X116329000Y-93069000D01*
X116294000Y-98034000D02*
X116329000Y-98069000D01*
X116294000Y-103034000D02*
X116329000Y-103069000D01*
X116294000Y-108034000D02*
X116329000Y-108069000D01*
X117655000Y-114560000D02*
X117655000Y-84440000D01*
X119215000Y-114800000D02*
X119955000Y-114800000D01*
X119715000Y-114560000D02*
X119715000Y-84440000D01*
X119955000Y-114800000D02*
X119955000Y-114300000D01*
X113519573Y-112683042D02*
G75*
G02*
X113520000Y-111316000I1535420J683041D01*
G01*
X114371958Y-110464573D02*
G75*
G02*
X115739000Y-110465000I683042J-1535427D01*
G01*
X115738042Y-113535427D02*
G75*
G02*
X114371000Y-113535000I-683041J1535420D01*
G01*
X116589756Y-111316682D02*
G75*
G02*
X116735000Y-112000000I-1534756J-683318D01*
G01*
X116735253Y-111971195D02*
G75*
G02*
X116590000Y-112684000I-1680254J-28806D01*
G01*
X116735000Y-87000000D02*
G75*
G02*
X113375000Y-87000000I-1680000J0D01*
G01*
X113375000Y-87000000D02*
G75*
G02*
X116735000Y-87000000I1680000J0D01*
G01*
X116735000Y-92000000D02*
G75*
G02*
X113375000Y-92000000I-1680000J0D01*
G01*
X113375000Y-92000000D02*
G75*
G02*
X116735000Y-92000000I1680000J0D01*
G01*
X116735000Y-97000000D02*
G75*
G02*
X113375000Y-97000000I-1680000J0D01*
G01*
X113375000Y-97000000D02*
G75*
G02*
X116735000Y-97000000I1680000J0D01*
G01*
X116735000Y-102000000D02*
G75*
G02*
X113375000Y-102000000I-1680000J0D01*
G01*
X113375000Y-102000000D02*
G75*
G02*
X116735000Y-102000000I1680000J0D01*
G01*
X116735000Y-107000000D02*
G75*
G02*
X113375000Y-107000000I-1680000J0D01*
G01*
X113375000Y-107000000D02*
G75*
G02*
X116735000Y-107000000I1680000J0D01*
G01*
X166840000Y-71650000D02*
X166840000Y-75410000D01*
X166840000Y-75410000D02*
X168100000Y-75410000D01*
X173660000Y-71650000D02*
X173660000Y-75410000D01*
X173660000Y-75410000D02*
X172400000Y-75410000D01*
X173890000Y-70610000D02*
X173560000Y-70370000D01*
X173890000Y-70130000D01*
X173890000Y-70610000D01*
G36*
X173890000Y-70610000D02*
G01*
X173560000Y-70370000D01*
X173890000Y-70130000D01*
X173890000Y-70610000D01*
G37*
X179065000Y-121420000D02*
X179065000Y-121264000D01*
X179065000Y-123736000D02*
X179065000Y-123580000D01*
X175832665Y-121421392D02*
G75*
G02*
X179065000Y-121264484I1672335J-1078608D01*
G01*
X176463870Y-121420163D02*
G75*
G02*
X178545961Y-121420000I1041130J-1079837D01*
G01*
X178545961Y-123580000D02*
G75*
G02*
X176463870Y-123579837I-1040961J1080000D01*
G01*
X179065000Y-123735516D02*
G75*
G02*
X175832665Y-123578608I-1560000J1235516D01*
G01*
X122977500Y-82912258D02*
X122977500Y-82437742D01*
X124022500Y-82912258D02*
X124022500Y-82437742D01*
X175240000Y-73250000D02*
X175240000Y-77635000D01*
X175240000Y-77635000D02*
X178260000Y-77635000D01*
X178260000Y-77635000D02*
X178260000Y-73250000D01*
X175790000Y-114920000D02*
X175790000Y-114764000D01*
X175790000Y-117236000D02*
X175790000Y-117080000D01*
X172557665Y-114921392D02*
G75*
G02*
X175790000Y-114764484I1672335J-1078608D01*
G01*
X173188870Y-114920163D02*
G75*
G02*
X175270961Y-114920000I1041130J-1079837D01*
G01*
X175270961Y-117080000D02*
G75*
G02*
X173188870Y-117079837I-1040961J1080000D01*
G01*
X175790000Y-117235516D02*
G75*
G02*
X172557665Y-117078608I-1560000J1235516D01*
G01*
X121350000Y-125695000D02*
X121350000Y-128355000D01*
X129030000Y-125695000D02*
X121350000Y-125695000D01*
X129030000Y-125695000D02*
X129030000Y-128355000D01*
X129030000Y-128355000D02*
X121350000Y-128355000D01*
X131630000Y-127025000D02*
X131630000Y-128355000D01*
X131630000Y-128355000D02*
X130300000Y-128355000D01*
X161437742Y-118477500D02*
X161912258Y-118477500D01*
X161437742Y-119522500D02*
X161912258Y-119522500D01*
X162360000Y-66795563D02*
X162360000Y-59140000D01*
X162360000Y-59140000D02*
X159510000Y-59140000D01*
X161295563Y-67860000D02*
X162360000Y-66795563D01*
X161295563Y-67860000D02*
X159510000Y-67860000D01*
X155490000Y-69100000D02*
X155490000Y-68100000D01*
X154990000Y-68600000D02*
X155990000Y-68600000D01*
X154704437Y-67860000D02*
X156490000Y-67860000D01*
X154704437Y-67860000D02*
X153640000Y-66795563D01*
X153640000Y-66795563D02*
X153640000Y-59140000D01*
X153640000Y-59140000D02*
X156490000Y-59140000D01*
X175650000Y-66500000D02*
X176700000Y-66500000D01*
X167300000Y-66300000D02*
X167300000Y-64400000D01*
X170000000Y-66300000D02*
X167300000Y-66300000D01*
X176500000Y-66300000D02*
X173900000Y-66300000D01*
X176700000Y-65450000D02*
X176700000Y-66500000D01*
X167300000Y-60400000D02*
X167300000Y-51600000D01*
X167300000Y-51600000D02*
X176500000Y-51600000D01*
X176500000Y-51600000D02*
X176500000Y-66300000D01*
X161437742Y-114957500D02*
X161912258Y-114957500D01*
X161437742Y-116002500D02*
X161912258Y-116002500D01*
X163840000Y-71538748D02*
X163840000Y-72961252D01*
X165660000Y-71538748D02*
X165660000Y-72961252D01*
X124777500Y-93912258D02*
X124777500Y-93437742D01*
X125822500Y-93912258D02*
X125822500Y-93437742D01*
X161437742Y-123477500D02*
X161912258Y-123477500D01*
X161437742Y-124522500D02*
X161912258Y-124522500D01*
X179435000Y-114764000D02*
X179435000Y-114920000D01*
X179435000Y-117080000D02*
X179435000Y-117236000D01*
X179435000Y-114764484D02*
G75*
G02*
X182667335Y-114921392I1560000J-1235516D01*
G01*
X179954039Y-114920000D02*
G75*
G02*
X182036130Y-114920163I1040961J-1080000D01*
G01*
X182036130Y-117079837D02*
G75*
G02*
X179954039Y-117080000I-1041130J1079837D01*
G01*
X182667335Y-117078608D02*
G75*
G02*
X179435000Y-117235516I-1672335J1078608D01*
G01*
X111500000Y-80550000D02*
X111500000Y-65050000D01*
D11*
X117250000Y-64400000D02*
X117250000Y-65000000D01*
X117250000Y-64400000D02*
X118650000Y-64400000D01*
D13*
X117290000Y-80550000D02*
X117290000Y-65100000D01*
D11*
X118650000Y-65050000D02*
X118650000Y-64400000D01*
D13*
X119450000Y-65060000D02*
X111500000Y-65050000D01*
X119460000Y-80550000D02*
X111500000Y-80550000D01*
X119460000Y-80550000D02*
X119450000Y-65060000D01*
X161437742Y-111477500D02*
X161912258Y-111477500D01*
X161437742Y-112522500D02*
X161912258Y-112522500D01*
X179565000Y-108420000D02*
X179565000Y-108264000D01*
X179565000Y-110736000D02*
X179565000Y-110580000D01*
X176332665Y-108421392D02*
G75*
G02*
X179565000Y-108264484I1672335J-1078608D01*
G01*
X176963870Y-108420163D02*
G75*
G02*
X179045961Y-108420000I1041130J-1079837D01*
G01*
X179045961Y-110580000D02*
G75*
G02*
X176963870Y-110579837I-1040961J1080000D01*
G01*
X179565000Y-110735516D02*
G75*
G02*
X176332665Y-110578608I-1560000J1235516D01*
G01*
X160400000Y-82010000D02*
X160400000Y-101990000D01*
X160400000Y-101990000D02*
X188500000Y-101990000D01*
X169766667Y-82010000D02*
X160400000Y-82010000D01*
D11*
X171550000Y-84100000D02*
X171550000Y-88000000D01*
X171550000Y-88000000D02*
X167450000Y-88000000D01*
D13*
X179133333Y-82010000D02*
X169766667Y-82010000D01*
X188500000Y-82010000D02*
X179133333Y-82010000D01*
X188500000Y-101990000D02*
X188500000Y-82010000D01*
D11*
X181450000Y-84100000D02*
X167450000Y-84100000D01*
X167450000Y-100100000D01*
X181450000Y-100100000D01*
X181450000Y-84100000D01*
X170853567Y-86000000D02*
G75*
G02*
X168046433Y-86000000I-1403567J0D01*
G01*
X168046433Y-86000000D02*
G75*
G02*
X170853567Y-86000000I1403567J0D01*
G01*
X169591421Y-86000000D02*
G75*
G02*
X169308579Y-86000000I-141421J0D01*
G01*
X169308579Y-86000000D02*
G75*
G02*
X169591421Y-86000000I141421J0D01*
G01*
D13*
X126477500Y-98837258D02*
X126477500Y-98362742D01*
X127522500Y-98837258D02*
X127522500Y-98362742D01*
X123977500Y-109912258D02*
X123977500Y-109437742D01*
X125022500Y-109912258D02*
X125022500Y-109437742D01*
X128495000Y-66815000D02*
X151245000Y-66815000D01*
X128495000Y-119965000D02*
X128495000Y-66815000D01*
X130920000Y-67930000D02*
X132250000Y-67930000D01*
X130920000Y-69260000D02*
X130920000Y-67930000D01*
X130920000Y-70530000D02*
X133580000Y-70530000D01*
X130920000Y-118850000D02*
X130920000Y-70530000D01*
X133580000Y-70530000D02*
X133580000Y-118850000D01*
X133580000Y-118850000D02*
X130920000Y-118850000D01*
X134607533Y-75162277D02*
X134607533Y-80962277D01*
X134707533Y-81062277D02*
X138007533Y-81062277D01*
X134730000Y-112380000D02*
X134730000Y-115040000D01*
X134730000Y-115040000D02*
X145010000Y-115040000D01*
X134771907Y-92277205D02*
X135479014Y-92984312D01*
X134771907Y-94539947D02*
X135479014Y-93832840D01*
X134984039Y-92065073D02*
X134771907Y-92277205D01*
X134984039Y-92065073D02*
X135691146Y-92772180D01*
X134984039Y-94752079D02*
X134771907Y-94539947D01*
X134984039Y-94752079D02*
X135691146Y-94044972D01*
X135104750Y-93458576D02*
X135104750Y-93358576D01*
X135104750Y-93458576D02*
X139954498Y-98308324D01*
X135125461Y-91923652D02*
X135832568Y-92630759D01*
X135125461Y-94893500D02*
X135832568Y-94186394D01*
X135337593Y-91711520D02*
X135125461Y-91923652D01*
X135337593Y-91711520D02*
X136044700Y-92418627D01*
X135337593Y-95105632D02*
X135125461Y-94893500D01*
X135337593Y-95105632D02*
X136044700Y-94398526D01*
X135357533Y-75962277D02*
X135357533Y-75312277D01*
X135357533Y-79462277D02*
X135357533Y-76662277D01*
X135357533Y-80812277D02*
X135357533Y-80162277D01*
X135457533Y-75212277D02*
X137257533Y-75212277D01*
X135457533Y-76562277D02*
X137257533Y-76562277D01*
X135457533Y-80062277D02*
X137257533Y-80062277D01*
X135479014Y-91570099D02*
X136186121Y-92277205D01*
X135479014Y-95247054D02*
X136186121Y-94539947D01*
X135691146Y-91357967D02*
X135479014Y-91570099D01*
X135691146Y-91357967D02*
X136398253Y-92065073D01*
X135691146Y-95459186D02*
X135479014Y-95247054D01*
X135691146Y-95459186D02*
X136398253Y-94752079D01*
X135832512Y-67052892D02*
X136111166Y-67369153D01*
X135832568Y-91216545D02*
X136539674Y-91923652D01*
X135832568Y-95600607D02*
X136539674Y-94893500D01*
X135977718Y-105512809D02*
X135977718Y-108812809D01*
X135977720Y-105512190D02*
X135977718Y-105512809D01*
X135997784Y-67240469D02*
X136182659Y-67077578D01*
X136017387Y-66890000D02*
X135832512Y-67052892D01*
X136044700Y-91004413D02*
X135832568Y-91216545D01*
X136044700Y-91004413D02*
X136751806Y-91711520D01*
X136044700Y-95812739D02*
X135832568Y-95600607D01*
X136044700Y-95812739D02*
X136751806Y-95105632D01*
X136061800Y-107803851D02*
X136061800Y-106521767D01*
X136077100Y-108912807D02*
X136077718Y-108912809D01*
X136077718Y-105412809D02*
X136077100Y-105412811D01*
X136077718Y-105412809D02*
X143877718Y-105412809D01*
X136077718Y-108912809D02*
X143877718Y-108912809D01*
X136084188Y-108003851D02*
X136270774Y-108003851D01*
X136173572Y-67531500D02*
X136178513Y-67539669D01*
X136173589Y-67534425D02*
X136173572Y-67531500D01*
X136173589Y-67534425D02*
X136173589Y-72540000D01*
X136178513Y-67539669D02*
X136180103Y-67540000D01*
X136180103Y-67540000D02*
X136670000Y-67540000D01*
X136186121Y-90862992D02*
X136893228Y-91570099D01*
X136186121Y-95954161D02*
X136893228Y-95247054D01*
X136270774Y-106321767D02*
X136084188Y-106321767D01*
X136295142Y-67205241D02*
X136017387Y-66890000D01*
X136357872Y-93370119D02*
X136375741Y-93382121D01*
X136357872Y-93370119D02*
X136375741Y-93382121D01*
X136375741Y-93382121D02*
X136392080Y-93386692D01*
X136375741Y-93382121D02*
X136392080Y-93386692D01*
X136392080Y-93386692D02*
X136470755Y-93386718D01*
X136392080Y-93386692D02*
X136470755Y-93386718D01*
X136398253Y-90650860D02*
X136186121Y-90862992D01*
X136398253Y-90650860D02*
X137105360Y-91357967D01*
X136398253Y-96166293D02*
X136186121Y-95954161D01*
X136398253Y-96166293D02*
X137105360Y-95459186D01*
X136410728Y-67440000D02*
X136155072Y-67440000D01*
X136419988Y-67540000D02*
X136419988Y-67535785D01*
X136470755Y-93386718D02*
X136532524Y-93383080D01*
X136470755Y-93386718D02*
X136532524Y-93383080D01*
X136486311Y-93009023D02*
X136771874Y-92723460D01*
X136502778Y-93134275D02*
X136496722Y-93270576D01*
X136532524Y-93383080D02*
X136604997Y-93378084D01*
X136532524Y-93383080D02*
X136604997Y-93378084D01*
X136539674Y-90509438D02*
X137246781Y-91216545D01*
X136539674Y-96307714D02*
X137246781Y-95600607D01*
X136550159Y-93807174D02*
X136583623Y-93673210D01*
X136581499Y-93104210D02*
X136486311Y-93009023D01*
X136583623Y-93673210D02*
X136674185Y-93683743D01*
X136583623Y-93673210D02*
X136674185Y-93683743D01*
X136604997Y-93378084D02*
X136662026Y-93375962D01*
X136604997Y-93378084D02*
X136662026Y-93375962D01*
X136662026Y-93375962D02*
X136768398Y-93394959D01*
X136662026Y-93375962D02*
X136768398Y-93394959D01*
X136670000Y-67540000D02*
X136673589Y-67539936D01*
X136670774Y-106721767D02*
X136670774Y-107603851D01*
X136673589Y-67539936D02*
X136673589Y-72550000D01*
X136674185Y-93683743D02*
X136708932Y-93674597D01*
X136674185Y-93683743D02*
X136708932Y-93674597D01*
X136676686Y-93009023D02*
X136581499Y-93104210D01*
X136708932Y-93674597D02*
X136738515Y-93654300D01*
X136708932Y-93674597D02*
X136738515Y-93654300D01*
X136751806Y-90297306D02*
X136539674Y-90509438D01*
X136751806Y-90297306D02*
X137458913Y-91004413D01*
X136751806Y-96519846D02*
X136539674Y-96307714D01*
X136751806Y-96519846D02*
X137458913Y-95812739D01*
X136757950Y-100182588D02*
X143057950Y-100182588D01*
X136757950Y-104707588D02*
X143057950Y-104707588D01*
X136768398Y-93394959D02*
X136838483Y-93442784D01*
X136768398Y-93394959D02*
X136838483Y-93442784D01*
X136770000Y-67094789D02*
X136770000Y-67440000D01*
X136770000Y-67375431D02*
X142970000Y-67375431D01*
X136771874Y-92723460D02*
X136867061Y-92818648D01*
X136771874Y-92913835D02*
X137207016Y-93348978D01*
X136867061Y-92818648D02*
X136771874Y-92913835D01*
X136888627Y-92606707D02*
X136987426Y-92507907D01*
X136893228Y-90155885D02*
X137600334Y-90862992D01*
X136893228Y-96661267D02*
X137600334Y-95954161D01*
X136987426Y-92507907D02*
X137478343Y-92756818D01*
X137020000Y-67033395D02*
X137020000Y-66890000D01*
X137105360Y-89943753D02*
X136893228Y-90155885D01*
X137105360Y-89943753D02*
X137812467Y-90650860D01*
X137105360Y-96873399D02*
X136893228Y-96661267D01*
X137105360Y-96873399D02*
X137812467Y-96166293D01*
X137111829Y-93444165D02*
X136676686Y-93009023D01*
X137147418Y-92738652D02*
X137425862Y-93130132D01*
X137207016Y-93348978D02*
X137111829Y-93444165D01*
X137230282Y-92265052D02*
X137328125Y-92167209D01*
X137246781Y-89802332D02*
X137953888Y-90509438D01*
X137246781Y-97014821D02*
X137953888Y-96307714D01*
X137257533Y-76062277D02*
X135457533Y-76062277D01*
X137257533Y-79562277D02*
X135457533Y-79562277D01*
X137257533Y-80912277D02*
X135457533Y-80912277D01*
X137328125Y-92167209D02*
X137948118Y-92607875D01*
X137329400Y-93226594D02*
X136888627Y-92606707D01*
X137357533Y-75312277D02*
X137357533Y-75962277D01*
X137357533Y-75962277D02*
X137257533Y-76062277D01*
X137357533Y-76662277D02*
X137357533Y-79462277D01*
X137357533Y-80162277D02*
X137357533Y-80812277D01*
X137425862Y-93130132D02*
X137329400Y-93226594D01*
X137458913Y-89590200D02*
X137246781Y-89802332D01*
X137458913Y-89590200D02*
X138166020Y-90297306D01*
X137458913Y-97226953D02*
X137246781Y-97014821D01*
X137458913Y-97226953D02*
X138166020Y-96519846D01*
X137460177Y-92425893D02*
X137684866Y-92871128D01*
X137477718Y-105402809D02*
X136977718Y-105402809D01*
X137478343Y-92756818D02*
X137230282Y-92265052D01*
X137568962Y-91997762D02*
X137589459Y-91897095D01*
X137568962Y-91997762D02*
X137589459Y-91897095D01*
X137581271Y-92060832D02*
X137568962Y-91997762D01*
X137581271Y-92060832D02*
X137568962Y-91997762D01*
X137589459Y-91897095D02*
X137636847Y-91831290D01*
X137589459Y-91897095D02*
X137636847Y-91831290D01*
X137592015Y-92963979D02*
X137147418Y-92738652D01*
X137600334Y-89448778D02*
X138307441Y-90155885D01*
X137600334Y-97368374D02*
X138307441Y-96661267D01*
X137621761Y-92131938D02*
X137581271Y-92060832D01*
X137621761Y-92131938D02*
X137581271Y-92060832D01*
X137684866Y-92871128D02*
X137592015Y-92963979D01*
X137716949Y-92036751D02*
X137621761Y-92131938D01*
X137784940Y-94960365D02*
X138043306Y-94701999D01*
X137798538Y-92091144D02*
X137850222Y-92012287D01*
X137798538Y-92091144D02*
X137850222Y-92012287D01*
X137812467Y-89236646D02*
X137600334Y-89448778D01*
X137812467Y-89236646D02*
X138519573Y-89943753D01*
X137812467Y-97580506D02*
X137600334Y-97368374D01*
X137812467Y-97580506D02*
X138519573Y-96873399D01*
X137832534Y-92397103D02*
X137927721Y-92301916D01*
X137848399Y-91942842D02*
X137834871Y-91923503D01*
X137848399Y-91942842D02*
X137834871Y-91923503D01*
X137850222Y-92012287D02*
X137855137Y-91965506D01*
X137850222Y-92012287D02*
X137855137Y-91965506D01*
X137851762Y-92704231D02*
X137460177Y-92425893D01*
X137855137Y-91965506D02*
X137848399Y-91942842D01*
X137855137Y-91965506D02*
X137848399Y-91942842D01*
X137886927Y-92179532D02*
X137798538Y-92091144D01*
X137948118Y-92607875D02*
X137851762Y-92704231D01*
X137953888Y-89095225D02*
X138660995Y-89802332D01*
X137953888Y-97721928D02*
X138660995Y-97014821D01*
X137975315Y-94960365D02*
X138077301Y-95062352D01*
X137988152Y-92113606D02*
X137886927Y-92179532D01*
X137988152Y-92113606D02*
X137886927Y-92179532D01*
X138007533Y-75062277D02*
X134707533Y-75062277D01*
X138012017Y-75062378D02*
X138007533Y-75062277D01*
X138043306Y-94701999D02*
X138138493Y-94797187D01*
X138048451Y-92108751D02*
X137988152Y-92113606D01*
X138048451Y-92108751D02*
X137988152Y-92113606D01*
X138077301Y-95062352D02*
X138240480Y-94899173D01*
X138077332Y-92118131D02*
X138048451Y-92108751D01*
X138077332Y-92118131D02*
X138048451Y-92108751D01*
X138101842Y-92136081D02*
X138077332Y-92118131D01*
X138101842Y-92136081D02*
X138077332Y-92118131D01*
X138107533Y-80962277D02*
X138107533Y-75162277D01*
X138112298Y-91567327D02*
X138115551Y-91619758D01*
X138112298Y-91567327D02*
X138115551Y-91619758D01*
X138115551Y-91619758D02*
X138158891Y-91689996D01*
X138115551Y-91619758D02*
X138158891Y-91689996D01*
X138137112Y-91521400D02*
X138112298Y-91567327D01*
X138137112Y-91521400D02*
X138112298Y-91567327D01*
X138138493Y-94797187D02*
X137975315Y-94960365D01*
X138158891Y-91689996D02*
X138063703Y-91785184D01*
X138166020Y-88883093D02*
X137953888Y-89095225D01*
X138166020Y-88883093D02*
X138873127Y-89590200D01*
X138166020Y-97934060D02*
X137953888Y-97721928D01*
X138166020Y-97934060D02*
X138873127Y-97226953D01*
X138172489Y-95157539D02*
X138410458Y-95395508D01*
X138195330Y-94549976D02*
X138342466Y-94402839D01*
X138226882Y-94695200D02*
X138195330Y-94549976D01*
X138240480Y-94899173D02*
X138335667Y-94994361D01*
X138307441Y-88741671D02*
X139014548Y-89448778D01*
X138307441Y-98075481D02*
X139014548Y-97368374D01*
X138315270Y-95490695D02*
X137784940Y-94960365D01*
X138330050Y-91628478D02*
X138277025Y-91522569D01*
X138330050Y-91628478D02*
X138277025Y-91522569D01*
X138335667Y-94586415D02*
X138226882Y-94695200D01*
X138335667Y-94994361D02*
X138172489Y-95157539D01*
X138342466Y-94402839D02*
X138872797Y-94933169D01*
X138345335Y-91779978D02*
X138330050Y-91628478D01*
X138345335Y-91779978D02*
X138330050Y-91628478D01*
X138355427Y-92104104D02*
X138345335Y-91779978D01*
X138403658Y-92152336D02*
X138355427Y-92104104D01*
X138410458Y-95395508D02*
X138315270Y-95490695D01*
X138482273Y-91770098D02*
X138490347Y-91888870D01*
X138490347Y-91888870D02*
X138668823Y-91710394D01*
X138519573Y-88529539D02*
X138307441Y-88741671D01*
X138519573Y-88529539D02*
X139226680Y-89236646D01*
X138519573Y-98287613D02*
X138307441Y-98075481D01*
X138519573Y-98287613D02*
X139226680Y-97580506D01*
X138614537Y-94247840D02*
X138622776Y-94123010D01*
X138614537Y-94247840D02*
X138622776Y-94123010D01*
X138622776Y-94123010D02*
X138677429Y-94040680D01*
X138622776Y-94123010D02*
X138677429Y-94040680D01*
X138660995Y-88388118D02*
X139368101Y-89095225D01*
X138660995Y-98429034D02*
X139368101Y-97721928D01*
X138668823Y-91710394D02*
X138757212Y-91798782D01*
X138670801Y-94371107D02*
X138614537Y-94247840D01*
X138670801Y-94371107D02*
X138614537Y-94247840D01*
X138677429Y-94040680D02*
X138729733Y-93999572D01*
X138677429Y-94040680D02*
X138729733Y-93999572D01*
X138729733Y-93999572D02*
X138791348Y-93974728D01*
X138729733Y-93999572D02*
X138791348Y-93974728D01*
X138746047Y-94207725D02*
X138773847Y-94283989D01*
X138746047Y-94207725D02*
X138773847Y-94283989D01*
X138752581Y-94167552D02*
X138746047Y-94207725D01*
X138752581Y-94167552D02*
X138746047Y-94207725D01*
X138757212Y-91798782D02*
X138403658Y-92152336D01*
X138773847Y-94283989D02*
X138879064Y-94409107D01*
X138773847Y-94283989D02*
X138879064Y-94409107D01*
X138774953Y-94133531D02*
X138752581Y-94167552D01*
X138774953Y-94133531D02*
X138752581Y-94167552D01*
X138777609Y-95028356D02*
X138335667Y-94586415D01*
X138782815Y-94503232D02*
X138670801Y-94371107D01*
X138782815Y-94503232D02*
X138670801Y-94371107D01*
X138791348Y-93974728D02*
X138857609Y-93970244D01*
X138791348Y-93974728D02*
X138857609Y-93970244D01*
X138808056Y-94112479D02*
X138774953Y-94133531D01*
X138808056Y-94112479D02*
X138774953Y-94133531D01*
X138847089Y-94107809D02*
X138808056Y-94112479D01*
X138847089Y-94107809D02*
X138808056Y-94112479D01*
X138857609Y-93970244D02*
X138922570Y-93984603D01*
X138857609Y-93970244D02*
X138922570Y-93984603D01*
X138872797Y-94933169D02*
X138777609Y-95028356D01*
X138873127Y-88175986D02*
X138660995Y-88388118D01*
X138873127Y-88175986D02*
X139580233Y-88883093D01*
X138873127Y-98641166D02*
X138660995Y-98429034D01*
X138873127Y-98641166D02*
X139580233Y-97934060D01*
X138879064Y-94409107D02*
X138998762Y-94506368D01*
X138879064Y-94409107D02*
X138998762Y-94506368D01*
X138881315Y-94590602D02*
X138782815Y-94503232D01*
X138881315Y-94590602D02*
X138782815Y-94503232D01*
X138921389Y-94132563D02*
X138847089Y-94107809D01*
X138921389Y-94132563D02*
X138847089Y-94107809D01*
X138922570Y-93984603D02*
X139038459Y-94049465D01*
X138922570Y-93984603D02*
X139038459Y-94049465D01*
X138996271Y-94653761D02*
X138881315Y-94590602D01*
X138996271Y-94653761D02*
X138881315Y-94590602D01*
X138998762Y-94506368D02*
X139072121Y-94528209D01*
X138998762Y-94506368D02*
X139072121Y-94528209D01*
X139030769Y-93785926D02*
X139051266Y-93685259D01*
X139030769Y-93785926D02*
X139051266Y-93685259D01*
X139038459Y-94049465D02*
X139138174Y-94137886D01*
X139038459Y-94049465D02*
X139138174Y-94137886D01*
X139042987Y-94233074D02*
X138921389Y-94132563D01*
X139042987Y-94233074D02*
X138921389Y-94132563D01*
X139043079Y-93848996D02*
X139030769Y-93785926D01*
X139043079Y-93848996D02*
X139030769Y-93785926D01*
X139051266Y-93685259D02*
X139098654Y-93619455D01*
X139051266Y-93685259D02*
X139098654Y-93619455D01*
X139060594Y-94667266D02*
X138996271Y-94653761D01*
X139060594Y-94667266D02*
X138996271Y-94653761D01*
X139072121Y-94528209D02*
X139110038Y-94521859D01*
X139072121Y-94528209D02*
X139110038Y-94521859D01*
X139083569Y-93920102D02*
X139043079Y-93848996D01*
X139083569Y-93920102D02*
X139043079Y-93848996D01*
X139105817Y-94302677D02*
X139042987Y-94233074D01*
X139105817Y-94302677D02*
X139042987Y-94233074D01*
X139110038Y-94521859D02*
X139142105Y-94500682D01*
X139110038Y-94521859D02*
X139142105Y-94500682D01*
X139126026Y-94662241D02*
X139060594Y-94667266D01*
X139126026Y-94662241D02*
X139060594Y-94667266D01*
X139138174Y-94137886D02*
X139226220Y-94237084D01*
X139138174Y-94137886D02*
X139226220Y-94237084D01*
X139163777Y-94406132D02*
X139105817Y-94302677D01*
X139163777Y-94406132D02*
X139105817Y-94302677D01*
X139178756Y-93824915D02*
X139083569Y-93920102D01*
X139186418Y-94636557D02*
X139126026Y-94662241D01*
X139186418Y-94636557D02*
X139126026Y-94662241D01*
X139226220Y-94237084D02*
X139291233Y-94352190D01*
X139226220Y-94237084D02*
X139291233Y-94352190D01*
X139237717Y-94595445D02*
X139186418Y-94636557D01*
X139237717Y-94595445D02*
X139186418Y-94636557D01*
X139260345Y-93879308D02*
X139312029Y-93800451D01*
X139260345Y-93879308D02*
X139312029Y-93800451D01*
X139279035Y-94543696D02*
X139237717Y-94595445D01*
X139279035Y-94543696D02*
X139237717Y-94595445D01*
X139291233Y-94352190D02*
X139306884Y-94416539D01*
X139291233Y-94352190D02*
X139306884Y-94416539D01*
X139294341Y-94185267D02*
X139389528Y-94090080D01*
X139304126Y-94482564D02*
X139279035Y-94543696D01*
X139304126Y-94482564D02*
X139279035Y-94543696D01*
X139306884Y-94416539D02*
X139304126Y-94482564D01*
X139306884Y-94416539D02*
X139304126Y-94482564D01*
X139310206Y-93731006D02*
X139296678Y-93711667D01*
X139310206Y-93731006D02*
X139296678Y-93711667D01*
X139312029Y-93800451D02*
X139316944Y-93753670D01*
X139312029Y-93800451D02*
X139316944Y-93753670D01*
X139316944Y-93753670D02*
X139310206Y-93731006D01*
X139316944Y-93753670D02*
X139310206Y-93731006D01*
X139348734Y-93967696D02*
X139260345Y-93879308D01*
X139449959Y-93901770D02*
X139348734Y-93967696D01*
X139449959Y-93901770D02*
X139348734Y-93967696D01*
X139499000Y-75762003D02*
X139499000Y-75951106D01*
X139499000Y-76491170D02*
X139499000Y-76525124D01*
X139499000Y-76574503D02*
X139499000Y-76619375D01*
X139500000Y-80350000D02*
X139500000Y-75470000D01*
X139500000Y-80350000D02*
X139500000Y-80750000D01*
X139500000Y-80750000D02*
X139500000Y-82690000D01*
X139500000Y-82690000D02*
X139800000Y-82990000D01*
X139510258Y-93896916D02*
X139449959Y-93901770D01*
X139510258Y-93896916D02*
X139449959Y-93901770D01*
X139539139Y-93906296D02*
X139510258Y-93896916D01*
X139539139Y-93906296D02*
X139510258Y-93896916D01*
X139563649Y-93924246D02*
X139539139Y-93906296D01*
X139563649Y-93924246D02*
X139539139Y-93906296D01*
X139600000Y-75370000D02*
X144480000Y-75370000D01*
X139618786Y-93099323D02*
X139792176Y-92995568D01*
X139618786Y-93099323D02*
X139792176Y-92995568D01*
X139792176Y-92995568D02*
X139950667Y-92978639D01*
X139792176Y-92995568D02*
X139950667Y-92978639D01*
X139800000Y-82990000D02*
X144280000Y-82990000D01*
X139805003Y-93136234D02*
X139710255Y-93198229D01*
X139805003Y-93136234D02*
X139710255Y-93198229D01*
X139947586Y-93115152D02*
X139805003Y-93136234D01*
X139947586Y-93115152D02*
X139805003Y-93136234D01*
X139950667Y-92978639D02*
X139947586Y-93115152D01*
X139954498Y-88508829D02*
X135104750Y-93358576D01*
X139954498Y-98308324D02*
X140054498Y-98308324D01*
X140054498Y-88508829D02*
X139954498Y-88508829D01*
X140136495Y-92983372D02*
X140075282Y-92940075D01*
X140136495Y-92983372D02*
X140075282Y-92940075D01*
X140160483Y-93328049D02*
X140299227Y-93331449D01*
X140170000Y-76040000D02*
X141370000Y-76040000D01*
X140170000Y-79780000D02*
X140170000Y-76040000D01*
X140229112Y-93005729D02*
X140136495Y-92983372D01*
X140229112Y-93005729D02*
X140136495Y-92983372D01*
X140232608Y-93105031D02*
X140229112Y-93005729D01*
X140232608Y-93105031D02*
X140229112Y-93005729D01*
X140265512Y-93529237D02*
X140174825Y-93658337D01*
X140265512Y-93529237D02*
X140174825Y-93658337D01*
X140294872Y-93214058D02*
X140232608Y-93105031D01*
X140294872Y-93214058D02*
X140232608Y-93105031D01*
X140299227Y-93331449D02*
X140265512Y-93529237D01*
X140299227Y-93331449D02*
X140265512Y-93529237D01*
X140314207Y-92431099D02*
X140599769Y-92145536D01*
X140382729Y-92635603D02*
X140432435Y-92715782D01*
X140382729Y-92635603D02*
X140432435Y-92715782D01*
X140409394Y-92526286D02*
X140314207Y-92431099D01*
X140432435Y-92715782D02*
X140445514Y-92789327D01*
X140432435Y-92715782D02*
X140445514Y-92789327D01*
X140451801Y-76321801D02*
X141088198Y-76321801D01*
X140451801Y-76958198D02*
X140451801Y-76321801D01*
X140451801Y-78861801D02*
X141088198Y-78861801D01*
X140451801Y-79498198D02*
X140451801Y-78861801D01*
X140451801Y-81401801D02*
X141088198Y-81401801D01*
X140451801Y-82038198D02*
X140451801Y-81401801D01*
X140504581Y-92431099D02*
X140409394Y-92526286D01*
X140599769Y-92145536D02*
X140694956Y-92240724D01*
X140599769Y-92335911D02*
X141034912Y-92771054D01*
X140694956Y-92240724D02*
X140599769Y-92335911D01*
X140808416Y-91909692D02*
X140935368Y-91868154D01*
X140935368Y-91868154D02*
X141024607Y-92142243D01*
X140938449Y-92309140D02*
X140808416Y-91909692D01*
X140939724Y-92866241D02*
X140504581Y-92431099D01*
X140967659Y-92387483D02*
X140938449Y-92309140D01*
X140967659Y-92387483D02*
X140938449Y-92309140D01*
X141025457Y-92476037D02*
X140967659Y-92387483D01*
X141025457Y-92476037D02*
X140967659Y-92387483D01*
X141034912Y-92771054D02*
X140939724Y-92866241D01*
X141088198Y-76321801D02*
X141088198Y-76958198D01*
X141088198Y-76958198D02*
X140451801Y-76958198D01*
X141088198Y-78861801D02*
X141088198Y-79498198D01*
X141088198Y-79498198D02*
X140451801Y-79498198D01*
X141088198Y-81401801D02*
X141088198Y-82038198D01*
X141088198Y-82038198D02*
X140451801Y-82038198D01*
X141135868Y-88175986D02*
X140428762Y-88883093D01*
X141135868Y-98641166D02*
X140428762Y-97934060D01*
X141348000Y-88388118D02*
X140640894Y-89095225D01*
X141348000Y-88388118D02*
X141135868Y-88175986D01*
X141348000Y-98429034D02*
X140640894Y-97721928D01*
X141348000Y-98429034D02*
X141135868Y-98641166D01*
X141370000Y-76040000D02*
X141370000Y-79780000D01*
X141370000Y-79780000D02*
X140170000Y-79780000D01*
X141489422Y-88529539D02*
X140782315Y-89236646D01*
X141489422Y-98287613D02*
X140782315Y-97580506D01*
X141581472Y-75369000D02*
X141392369Y-75369000D01*
X141701554Y-88741671D02*
X140994447Y-89448778D01*
X141701554Y-88741671D02*
X141489422Y-88529539D01*
X141701554Y-98075481D02*
X140994447Y-97368374D01*
X141701554Y-98075481D02*
X141489422Y-98287613D01*
X141842975Y-88883093D02*
X141135868Y-89590200D01*
X141842975Y-97934060D02*
X141135868Y-97226953D01*
X141940000Y-80450000D02*
X139600000Y-80450000D01*
X141940000Y-80450000D02*
X141940000Y-75381400D01*
X142055107Y-89095225D02*
X141348000Y-89802332D01*
X142055107Y-89095225D02*
X141842975Y-88883093D01*
X142055107Y-97721928D02*
X141348000Y-97014821D01*
X142055107Y-97721928D02*
X141842975Y-97934060D01*
X142140000Y-75381400D02*
X142140000Y-80450000D01*
X142196529Y-89236646D02*
X141489422Y-89943753D01*
X142196529Y-97580506D02*
X141489422Y-96873399D01*
X142408661Y-89448778D02*
X141701554Y-90155885D01*
X142408661Y-89448778D02*
X142196529Y-89236646D01*
X142408661Y-97368374D02*
X141701554Y-96661267D01*
X142408661Y-97368374D02*
X142196529Y-97580506D01*
X142477718Y-105402809D02*
X142977718Y-105402809D01*
X142550082Y-89590200D02*
X141842975Y-90297306D01*
X142550082Y-97226953D02*
X141842975Y-96519846D01*
X142710000Y-76040000D02*
X143910000Y-76040000D01*
X142710000Y-79780000D02*
X142710000Y-76040000D01*
X142720000Y-66890000D02*
X137020000Y-66890000D01*
X142720000Y-67033395D02*
X137020000Y-67033395D01*
X142720000Y-67033395D02*
X142720000Y-66890000D01*
X142762214Y-89802332D02*
X142055107Y-90509438D01*
X142762214Y-89802332D02*
X142550082Y-89590200D01*
X142762214Y-97014821D02*
X142055107Y-96307714D01*
X142762214Y-97014821D02*
X142550082Y-97226953D01*
X142903635Y-89943753D02*
X142196529Y-90650860D01*
X142903635Y-96873399D02*
X142196529Y-96166293D01*
X142970000Y-67094789D02*
X142970000Y-67440000D01*
X142991801Y-76321801D02*
X143628198Y-76321801D01*
X142991801Y-76958198D02*
X142991801Y-76321801D01*
X142991801Y-78861801D02*
X143628198Y-78861801D01*
X142991801Y-79498198D02*
X142991801Y-78861801D01*
X142991801Y-81401801D02*
X143628198Y-81401801D01*
X142991801Y-82038198D02*
X142991801Y-81401801D01*
X143008464Y-67518825D02*
X136731535Y-67518825D01*
X143057950Y-99757588D02*
X136757950Y-99757588D01*
X143057950Y-104282588D02*
X136757950Y-104282588D01*
X143066410Y-67539936D02*
X143066410Y-72550000D01*
X143070000Y-67540000D02*
X143066410Y-67539936D01*
X143115767Y-90155885D02*
X142408661Y-90862992D01*
X143115767Y-90155885D02*
X142903635Y-89943753D01*
X143115767Y-96661267D02*
X142408661Y-95954161D01*
X143115767Y-96661267D02*
X142903635Y-96873399D01*
X143257189Y-90297306D02*
X142550082Y-91004413D01*
X143257189Y-96519846D02*
X142550082Y-95812739D01*
X143320011Y-67540000D02*
X143320011Y-67535785D01*
X143320011Y-72550000D02*
X136419988Y-72550000D01*
X143329271Y-67440000D02*
X143584927Y-67440000D01*
X143444857Y-67205241D02*
X143722612Y-66890000D01*
X143469321Y-90509438D02*
X142762214Y-91216545D01*
X143469321Y-90509438D02*
X143257189Y-90297306D01*
X143469321Y-96307714D02*
X142762214Y-95600607D01*
X143469321Y-96307714D02*
X143257189Y-96519846D01*
X143559896Y-67540000D02*
X143070000Y-67540000D01*
X143561486Y-67539669D02*
X143559896Y-67540000D01*
X143566410Y-67534425D02*
X143566410Y-72540000D01*
X143566410Y-67534425D02*
X143566427Y-67531500D01*
X143566410Y-72540000D02*
X136173589Y-72540000D01*
X143566427Y-67531500D02*
X143561486Y-67539669D01*
X143610742Y-90650860D02*
X142903635Y-91357967D01*
X143610742Y-96166293D02*
X142903635Y-95459186D01*
X143628198Y-76321801D02*
X143628198Y-76958198D01*
X143628198Y-76958198D02*
X142991801Y-76958198D01*
X143628198Y-78861801D02*
X143628198Y-79498198D01*
X143628198Y-79498198D02*
X142991801Y-79498198D01*
X143628198Y-81401801D02*
X143628198Y-82038198D01*
X143628198Y-82038198D02*
X142991801Y-82038198D01*
X143722612Y-66890000D02*
X143907487Y-67052892D01*
X143742215Y-67240469D02*
X143557340Y-67077578D01*
X143822874Y-90862992D02*
X143115767Y-91570099D01*
X143822874Y-90862992D02*
X143610742Y-90650860D01*
X143822874Y-95954161D02*
X143115767Y-95247054D01*
X143822874Y-95954161D02*
X143610742Y-96166293D01*
X143877718Y-108912809D02*
X143878337Y-108912807D01*
X143878337Y-105412811D02*
X143877718Y-105412809D01*
X143878666Y-108912804D02*
X143877718Y-108912809D01*
X143907487Y-67052892D02*
X143628833Y-67369153D01*
X143910000Y-76040000D02*
X143910000Y-79780000D01*
X143910000Y-79780000D02*
X142710000Y-79780000D01*
X143964296Y-91004413D02*
X143257189Y-91711520D01*
X143964296Y-95812739D02*
X143257189Y-95105632D01*
X143977718Y-105512809D02*
X143977717Y-105512190D01*
X143977718Y-105512809D02*
X143977718Y-108812809D01*
X144176428Y-91216545D02*
X143469321Y-91923652D01*
X144176428Y-91216545D02*
X143964296Y-91004413D01*
X144176428Y-95600607D02*
X143469321Y-94893500D01*
X144176428Y-95600607D02*
X143964296Y-95812739D01*
X144280000Y-82990000D02*
X144580000Y-82690000D01*
X144317849Y-91357967D02*
X143610742Y-92065073D01*
X144317849Y-95459186D02*
X143610742Y-94752079D01*
X144480000Y-80450000D02*
X142140000Y-80450000D01*
X144529981Y-91570099D02*
X143822874Y-92277205D01*
X144529981Y-91570099D02*
X144317849Y-91357967D01*
X144529981Y-95247054D02*
X143822874Y-94539947D01*
X144529981Y-95247054D02*
X144317849Y-95459186D01*
X144580000Y-75470000D02*
X144580000Y-80350000D01*
X144580000Y-80750000D02*
X144580000Y-80350000D01*
X144580000Y-82690000D02*
X144580000Y-80750000D01*
X144671402Y-91711520D02*
X143964296Y-92418627D01*
X144671402Y-95105632D02*
X143964296Y-94398526D01*
X144883534Y-91923652D02*
X144176428Y-92630759D01*
X144883534Y-91923652D02*
X144671402Y-91711520D01*
X144883534Y-94893500D02*
X144176428Y-94186394D01*
X144883534Y-94893500D02*
X144671402Y-95105632D01*
X144904245Y-93358576D02*
X140054498Y-88508829D01*
X144904245Y-93358576D02*
X144904245Y-93458576D01*
X144904245Y-93458576D02*
X140054498Y-98308324D01*
X145010000Y-112380000D02*
X134730000Y-112380000D01*
X145010000Y-115040000D02*
X145010000Y-112380000D01*
X145024956Y-92065073D02*
X144317849Y-92772180D01*
X145024956Y-94752079D02*
X144317849Y-94044972D01*
X145237088Y-92277205D02*
X144529981Y-92984312D01*
X145237088Y-92277205D02*
X145024956Y-92065073D01*
X145237088Y-94539947D02*
X144529981Y-93832840D01*
X145237088Y-94539947D02*
X145024956Y-94752079D01*
X146220000Y-67990000D02*
X148760000Y-67990000D01*
X146220000Y-118790000D02*
X146220000Y-67990000D01*
X148760000Y-67990000D02*
X148760000Y-118790000D01*
X148760000Y-118790000D02*
X146220000Y-118790000D01*
X151245000Y-66815000D02*
X151245000Y-119965000D01*
X151245000Y-119965000D02*
X128495000Y-119965000D01*
X134607533Y-75162277D02*
G75*
G02*
X134707533Y-75062273I100067J-63D01*
G01*
X134707533Y-81062277D02*
G75*
G02*
X134607523Y-80962277I-33J99977D01*
G01*
X135357533Y-75312277D02*
G75*
G02*
X135457533Y-75212233I100067J-23D01*
G01*
X135357533Y-76662277D02*
G75*
G02*
X135457533Y-76562233I100067J-23D01*
G01*
X135357533Y-80162277D02*
G75*
G02*
X135457533Y-80062233I100067J-23D01*
G01*
X135457533Y-76062277D02*
G75*
G02*
X135357523Y-75962277I-33J99977D01*
G01*
X135457533Y-79562277D02*
G75*
G02*
X135357523Y-79462277I-33J99977D01*
G01*
X135457533Y-80912277D02*
G75*
G02*
X135357523Y-80812277I-33J99977D01*
G01*
X135977720Y-105512189D02*
G75*
G02*
X136077100Y-105412820I99980J-611D01*
G01*
X136061800Y-106521767D02*
G75*
G02*
X136084189Y-106321767I463500J49367D01*
G01*
X136077099Y-108912807D02*
G75*
G02*
X135977693Y-108813428I601J100007D01*
G01*
X136084188Y-108003851D02*
G75*
G02*
X136061790Y-107803850I423212J148651D01*
G01*
X136111166Y-67369153D02*
G75*
G02*
X136173598Y-67531500I-187666J-165347D01*
G01*
X136267252Y-93469874D02*
G75*
G02*
X136271923Y-93196205I136538J134544D01*
G01*
X136270774Y-106321767D02*
G75*
G02*
X136670773Y-106721767I66J-399933D01*
G01*
X136271927Y-93196211D02*
G75*
G02*
X136502770Y-93134313I175173J-191889D01*
G01*
X136295142Y-67205241D02*
G75*
G02*
X136419960Y-67535785I-375042J-330459D01*
G01*
X136357872Y-93370119D02*
G75*
G02*
X136366051Y-93292458I43128J34719D01*
G01*
X136366052Y-93292461D02*
G75*
G02*
X136496707Y-93270617I84748J-105239D01*
G01*
X136587023Y-93522355D02*
G75*
G02*
X136267255Y-93469871I-108623J338555D01*
G01*
X136587023Y-93522355D02*
G75*
G02*
X136748814Y-93543506I55577J-204245D01*
G01*
X136670774Y-107603851D02*
G75*
G02*
X136270774Y-108003854I-400004J1D01*
G01*
X136748820Y-93543497D02*
G75*
G02*
X136738521Y-93654307I-61120J-50203D01*
G01*
X136757950Y-104282588D02*
G75*
G02*
X136757950Y-100182588I0J2050000D01*
G01*
X136757950Y-104707588D02*
G75*
G02*
X136757950Y-99757588I0J2475000D01*
G01*
X136769999Y-67094788D02*
G75*
G02*
X137020000Y-66889999I229481J-25152D01*
G01*
X136770000Y-67238182D02*
G75*
G02*
X137020000Y-67033397I229490J-25168D01*
G01*
X136770000Y-67440001D02*
G75*
G02*
X136673589Y-67539936I-100000J1D01*
G01*
X136830198Y-93752993D02*
G75*
G02*
X136550177Y-93807134I-179098J175093D01*
G01*
X136838483Y-93442785D02*
G75*
G02*
X136830200Y-93752997I-148373J-151255D01*
G01*
X137257533Y-75212277D02*
G75*
G02*
X137357523Y-75312277I-33J-100023D01*
G01*
X137257533Y-76562277D02*
G75*
G02*
X137357523Y-76662277I-33J-100023D01*
G01*
X137257533Y-80062277D02*
G75*
G02*
X137357523Y-80162277I-33J-100023D01*
G01*
X137357533Y-79462277D02*
G75*
G02*
X137257533Y-79562233I-99933J-23D01*
G01*
X137357533Y-80812277D02*
G75*
G02*
X137257533Y-80912233I-99933J-23D01*
G01*
X137636846Y-91831290D02*
G75*
G02*
X137924003Y-91822260I148004J-136220D01*
G01*
X137716949Y-92036751D02*
G75*
G02*
X137731389Y-91927107I80651J45151D01*
G01*
X137731397Y-91927116D02*
G75*
G02*
X137834857Y-91923517I53403J-46284D01*
G01*
X137924003Y-91822261D02*
G75*
G02*
X137964198Y-92004363I-122103J-122439D01*
G01*
X137964161Y-92004349D02*
G75*
G02*
X138197982Y-92041853I92739J-169451D01*
G01*
X138007533Y-75062277D02*
G75*
G02*
X138107523Y-75162277I-33J-100023D01*
G01*
X138047342Y-91420794D02*
G75*
G02*
X138365537Y-91420671I159158J-156006D01*
G01*
X138063703Y-91785184D02*
G75*
G02*
X138047334Y-91420786I162897J189884D01*
G01*
X138095786Y-92297029D02*
G75*
G02*
X137927765Y-92301868I-86486J83529D01*
G01*
X138101842Y-92136082D02*
G75*
G02*
X138095816Y-92297063I-79742J-77618D01*
G01*
X138107533Y-80962277D02*
G75*
G02*
X138007533Y-81062233I-99933J-23D01*
G01*
X138137113Y-91521400D02*
G75*
G02*
X138276997Y-91522594I69387J-65600D01*
G01*
X138185769Y-92397421D02*
G75*
G02*
X137832530Y-92397107I-176469J169621D01*
G01*
X138197986Y-92041851D02*
G75*
G02*
X138185769Y-92397423I-176856J-171919D01*
G01*
X138365520Y-91420688D02*
G75*
G02*
X138482300Y-91770099I-397020J-326912D01*
G01*
X139098655Y-93619455D02*
G75*
G02*
X139385857Y-93610376I148045J-136045D01*
G01*
X139163776Y-94406132D02*
G75*
G02*
X139142104Y-94500681I-86776J-29868D01*
G01*
X139178756Y-93824915D02*
G75*
G02*
X139193216Y-93715291I80744J45115D01*
G01*
X139193204Y-93715280D02*
G75*
G02*
X139296656Y-93711689I53396J-46320D01*
G01*
X139385810Y-93610425D02*
G75*
G02*
X139425962Y-93792511I-122010J-122375D01*
G01*
X139425968Y-93792513D02*
G75*
G02*
X139659788Y-93830018I92732J-169487D01*
G01*
X139500000Y-75470000D02*
G75*
G02*
X139600000Y-75370000I100000J0D01*
G01*
X139557593Y-94085193D02*
G75*
G02*
X139389567Y-94090038I-86493J83593D01*
G01*
X139563649Y-93924245D02*
G75*
G02*
X139557570Y-94085166I-79949J-77555D01*
G01*
X139600000Y-80450000D02*
G75*
G02*
X139500000Y-80350000I0J100000D01*
G01*
X139619849Y-93654087D02*
G75*
G02*
X139618794Y-93099332I267351J277887D01*
G01*
X139647575Y-94185586D02*
G75*
G02*
X139294329Y-94185278I-176475J169686D01*
G01*
X139659792Y-93830015D02*
G75*
G02*
X139647572Y-94185582I-176862J-171915D01*
G01*
X139714823Y-93558688D02*
G75*
G02*
X139710256Y-93198230I172077J182438D01*
G01*
X140075282Y-92940076D02*
G75*
G02*
X140080401Y-92637750I143518J148776D01*
G01*
X140079213Y-93563574D02*
G75*
G02*
X139714825Y-93558686I-179913J172474D01*
G01*
X140080381Y-92637727D02*
G75*
G02*
X140382770Y-92635563I152219J-142073D01*
G01*
X140160483Y-93328049D02*
G75*
G02*
X140079199Y-93563560I-288383J-32251D01*
G01*
X140173231Y-92735253D02*
G75*
G02*
X140292085Y-92735381I59369J-54147D01*
G01*
X140174825Y-93658337D02*
G75*
G02*
X139619843Y-93654092I-275525J259137D01*
G01*
X140177268Y-92851688D02*
G75*
G02*
X140173260Y-92735281I52732J60088D01*
G01*
X140292109Y-92735359D02*
G75*
G02*
X140297451Y-92855860I-53509J-62741D01*
G01*
X140297421Y-92855831D02*
G75*
G02*
X140177243Y-92851709I-58121J59431D01*
G01*
X140381454Y-93110265D02*
G75*
G02*
X140393855Y-92949709I85346J74165D01*
G01*
X140393884Y-92949744D02*
G75*
G02*
X140553595Y-92942372I83416J-73456D01*
G01*
X140445515Y-92789327D02*
G75*
G02*
X140655218Y-92853711I46185J-223273D01*
G01*
X140542295Y-93100491D02*
G75*
G02*
X140381457Y-93110262I-85095J72091D01*
G01*
X140553557Y-92942413D02*
G75*
G02*
X140542315Y-93100518I-76857J-73987D01*
G01*
X140638438Y-93194722D02*
G75*
G02*
X140294891Y-93214039I-180038J137322D01*
G01*
X140655224Y-92853706D02*
G75*
G02*
X140638435Y-93194718I-161984J-162944D01*
G01*
X141024607Y-92142243D02*
G75*
G02*
X141352555Y-92150425I159993J-163657D01*
G01*
X141108427Y-92235200D02*
G75*
G02*
X141251930Y-92240212I69373J-70600D01*
G01*
X141115971Y-92376174D02*
G75*
G02*
X141108399Y-92235174I64629J74174D01*
G01*
X141251952Y-92240192D02*
G75*
G02*
X141258281Y-92384419I-67352J-75208D01*
G01*
X141258326Y-92384461D02*
G75*
G02*
X141115996Y-92376152I-67026J75061D01*
G01*
X141352558Y-92150423D02*
G75*
G02*
X141355333Y-92477857I-159058J-165077D01*
G01*
X141355320Y-92477843D02*
G75*
G02*
X141025467Y-92476027I-164020J165543D01*
G01*
X142720000Y-66890001D02*
G75*
G02*
X142969961Y-67094793I20600J-229799D01*
G01*
X142720000Y-67033395D02*
G75*
G02*
X142969967Y-67238187I20600J-229805D01*
G01*
X143057950Y-99757588D02*
G75*
G02*
X143057950Y-104707592I0J-2475002D01*
G01*
X143057950Y-100182588D02*
G75*
G02*
X143057950Y-104282592I0J-2050002D01*
G01*
X143066410Y-67539937D02*
G75*
G02*
X142969999Y-67440000I3590J99937D01*
G01*
X143320011Y-67535785D02*
G75*
G02*
X143444848Y-67205233I500089J-15D01*
G01*
X143566427Y-67531500D02*
G75*
G02*
X143628841Y-67369160I249873J-2900D01*
G01*
X143878337Y-105412810D02*
G75*
G02*
X143977690Y-105512190I-637J-99990D01*
G01*
X143977716Y-108813428D02*
G75*
G02*
X143878337Y-108912816I-100016J628D01*
G01*
X144480000Y-75370000D02*
G75*
G02*
X144580000Y-75470000I0J-100000D01*
G01*
X144579999Y-80350000D02*
G75*
G02*
X144480000Y-80449999I-99999J0D01*
G01*
X140254498Y-97408576D02*
G75*
G02*
X139754498Y-97408576I-250000J0D01*
G01*
X139754498Y-97408576D02*
G75*
G02*
X140254498Y-97408576I250000J0D01*
G01*
X143455021Y-107162809D02*
G75*
G02*
X142603269Y-107162809I-425876J0D01*
G01*
X142603269Y-107162809D02*
G75*
G02*
X143455021Y-107162809I425876J0D01*
G01*
D11*
X136321620Y-114063060D02*
X135813620Y-114063060D01*
X135813620Y-113555060D01*
X136321620Y-113555060D01*
X136321620Y-114063060D01*
G36*
X136321620Y-114063060D02*
G01*
X135813620Y-114063060D01*
X135813620Y-113555060D01*
X136321620Y-113555060D01*
X136321620Y-114063060D01*
G37*
X138861620Y-114063060D02*
X138353620Y-114063060D01*
X138353620Y-113555060D01*
X138861620Y-113555060D01*
X138861620Y-114063060D01*
G36*
X138861620Y-114063060D02*
G01*
X138353620Y-114063060D01*
X138353620Y-113555060D01*
X138861620Y-113555060D01*
X138861620Y-114063060D01*
G37*
X141401620Y-114063060D02*
X140893620Y-114063060D01*
X140893620Y-113555060D01*
X141401620Y-113555060D01*
X141401620Y-114063060D01*
G36*
X141401620Y-114063060D02*
G01*
X140893620Y-114063060D01*
X140893620Y-113555060D01*
X141401620Y-113555060D01*
X141401620Y-114063060D01*
G37*
X143941620Y-114063060D02*
X143433620Y-114063060D01*
X143433620Y-113555060D01*
X143941620Y-113555060D01*
X143941620Y-114063060D01*
G36*
X143941620Y-114063060D02*
G01*
X143433620Y-114063060D01*
X143433620Y-113555060D01*
X143941620Y-113555060D01*
X143941620Y-114063060D01*
G37*
%LPC*%
D14*
X115055000Y-112000000D03*
D15*
X115055000Y-107000000D03*
X115055000Y-102000000D03*
X115055000Y-97000000D03*
X115055000Y-92000000D03*
X115055000Y-87000000D03*
D16*
X185000000Y-128500000D03*
X115500000Y-128500000D03*
X185000000Y-56000000D03*
X115500000Y-56000000D03*
D17*
X172550000Y-70350000D03*
X170250000Y-70350000D03*
D18*
X170250000Y-76650000D03*
D17*
X167950000Y-70350000D03*
D19*
X178775000Y-122500000D03*
D20*
X176235000Y-122500000D03*
D21*
X123500000Y-83500000D03*
X123500000Y-81850000D03*
D22*
X176750000Y-76625000D03*
X176750000Y-73375000D03*
D19*
X175500000Y-116000000D03*
D20*
X172960000Y-116000000D03*
D23*
X130300000Y-127025000D03*
D24*
X127760000Y-127025000D03*
X125220000Y-127025000D03*
X122680000Y-127025000D03*
D25*
X160850000Y-119000000D03*
X162500000Y-119000000D03*
D26*
X158000000Y-67200000D03*
X158000000Y-59800000D03*
D27*
X171900000Y-65400000D03*
D28*
X171900000Y-59400000D03*
D29*
X167200000Y-62400000D03*
D25*
X160850000Y-115480000D03*
X162500000Y-115480000D03*
D30*
X164750000Y-70687500D03*
X164750000Y-73812500D03*
D21*
X125300000Y-94500000D03*
X125300000Y-92850000D03*
D25*
X160850000Y-124000000D03*
X162500000Y-124000000D03*
D19*
X179725000Y-116000000D03*
D20*
X182265000Y-116000000D03*
D31*
X114750000Y-77750000D03*
D32*
X114750000Y-72670000D03*
X114750000Y-67590000D03*
D25*
X160850000Y-112000000D03*
X162500000Y-112000000D03*
D19*
X179275000Y-109500000D03*
D20*
X176735000Y-109500000D03*
D33*
X161900000Y-83110000D03*
X161900000Y-85650000D03*
X161900000Y-88190000D03*
X161900000Y-90730000D03*
X161900000Y-93270000D03*
X161900000Y-95810000D03*
X161900000Y-98350000D03*
X161900000Y-100890000D03*
X187000000Y-100890000D03*
X187000000Y-98350000D03*
X187000000Y-95810000D03*
X187000000Y-93270000D03*
X187000000Y-90730000D03*
X187000000Y-88190000D03*
X187000000Y-85650000D03*
X187000000Y-83110000D03*
D21*
X127000000Y-99425000D03*
X127000000Y-97775000D03*
X124500000Y-110500000D03*
X124500000Y-108850000D03*
D23*
X132250000Y-69260000D03*
D34*
X132250000Y-71800000D03*
X132250000Y-74340000D03*
X132250000Y-76880000D03*
X132250000Y-79420000D03*
X132250000Y-81960000D03*
X132250000Y-84500000D03*
X132250000Y-87040000D03*
X132250000Y-89580000D03*
X132250000Y-92120000D03*
X132250000Y-94660000D03*
X132250000Y-97200000D03*
X132250000Y-99740000D03*
X132250000Y-102280000D03*
X132250000Y-104820000D03*
X132250000Y-107360000D03*
X132250000Y-109900000D03*
X132250000Y-112440000D03*
X132250000Y-114980000D03*
X132250000Y-117520000D03*
X147490000Y-117520000D03*
X147490000Y-114980000D03*
X147490000Y-112440000D03*
X147490000Y-109900000D03*
X147490000Y-107360000D03*
X147490000Y-104820000D03*
X147490000Y-102280000D03*
X147490000Y-99740000D03*
X147490000Y-97200000D03*
X147490000Y-94660000D03*
X147490000Y-92120000D03*
X147490000Y-89580000D03*
X147490000Y-87040000D03*
X147490000Y-84500000D03*
X147490000Y-81960000D03*
X147490000Y-79420000D03*
X147490000Y-76880000D03*
X147490000Y-74340000D03*
X147490000Y-71800000D03*
X147490000Y-69260000D03*
%LPD*%
M02*
