G04 #@! TF.GenerationSoftware,KiCad,Pcbnew,8.0.5-dirty*
G04 #@! TF.CreationDate,2024-09-27T12:43:59+05:30*
G04 #@! TF.ProjectId,Nodes,4e6f6465-732e-46b6-9963-61645f706362,1.1*
G04 #@! TF.SameCoordinates,Original*
G04 #@! TF.FileFunction,Legend,Top*
G04 #@! TF.FilePolarity,Positive*
%FSLAX46Y46*%
G04 Gerber Fmt 4.6, Leading zero omitted, Abs format (unit mm)*
G04 Created by KiCad (PCBNEW 8.0.5-dirty) date 2024-09-27 12:43:59*
%MOMM*%
%LPD*%
G01*
G04 APERTURE LIST*
G04 Aperture macros list*
%AMRoundRect*
0 Rectangle with rounded corners*
0 $1 Rounding radius*
0 $2 $3 $4 $5 $6 $7 $8 $9 X,Y pos of 4 corners*
0 Add a 4 corners polygon primitive as box body*
4,1,4,$2,$3,$4,$5,$6,$7,$8,$9,$2,$3,0*
0 Add four circle primitives for the rounded corners*
1,1,$1+$1,$2,$3*
1,1,$1+$1,$4,$5*
1,1,$1+$1,$6,$7*
1,1,$1+$1,$8,$9*
0 Add four rect primitives between the rounded corners*
20,1,$1+$1,$2,$3,$4,$5,0*
20,1,$1+$1,$4,$5,$6,$7,0*
20,1,$1+$1,$6,$7,$8,$9,0*
20,1,$1+$1,$8,$9,$2,$3,0*%
G04 Aperture macros list end*
%ADD10C,0.152000*%
%ADD11C,0.200000*%
%ADD12RoundRect,0.250000X-0.350000X-0.450000X0.350000X-0.450000X0.350000X0.450000X-0.350000X0.450000X0*%
%ADD13RoundRect,0.375000X-0.375000X0.625000X-0.375000X-0.625000X0.375000X-0.625000X0.375000X0.625000X0*%
%ADD14RoundRect,0.500000X-1.400000X0.500000X-1.400000X-0.500000X1.400000X-0.500000X1.400000X0.500000X0*%
%ADD15R,1.700000X1.700000*%
%ADD16C,1.700000*%
%ADD17R,1.800000X1.800000*%
%ADD18C,1.800000*%
%ADD19C,3.200000*%
%ADD20RoundRect,0.250000X0.350000X0.450000X-0.350000X0.450000X-0.350000X-0.450000X0.350000X-0.450000X0*%
%ADD21RoundRect,0.250001X0.924999X-0.499999X0.924999X0.499999X-0.924999X0.499999X-0.924999X-0.499999X0*%
%ADD22O,1.700000X1.700000*%
%ADD23RoundRect,0.250000X1.000000X-1.950000X1.000000X1.950000X-1.000000X1.950000X-1.000000X-1.950000X0*%
%ADD24R,3.500000X3.500000*%
%ADD25RoundRect,0.750000X-1.000000X0.750000X-1.000000X-0.750000X1.000000X-0.750000X1.000000X0.750000X0*%
%ADD26RoundRect,0.875000X-0.875000X0.875000X-0.875000X-0.875000X0.875000X-0.875000X0.875000X0.875000X0*%
%ADD27RoundRect,0.250000X-0.650000X0.412500X-0.650000X-0.412500X0.650000X-0.412500X0.650000X0.412500X0*%
%ADD28R,3.000000X3.000000*%
%ADD29C,3.000000*%
%ADD30RoundRect,0.250000X0.250000X-0.525000X0.250000X0.525000X-0.250000X0.525000X-0.250000X-0.525000X0*%
G04 APERTURE END LIST*
D10*
X124000000Y-130000000D02*
X122000000Y-130000000D01*
X134200000Y-60800000D02*
X134200000Y-64600000D01*
X122000000Y-130000000D02*
X122000000Y-128500000D01*
X147650000Y-64600000D02*
X146150000Y-64600000D01*
X147700000Y-60900000D02*
X147700000Y-64600000D01*
X134300000Y-64600000D02*
X136300000Y-64600000D01*
X124417334Y-123138095D02*
X124369715Y-123233333D01*
X124369715Y-123233333D02*
X124369715Y-123376190D01*
X124369715Y-123376190D02*
X124417334Y-123519047D01*
X124417334Y-123519047D02*
X124512572Y-123614285D01*
X124512572Y-123614285D02*
X124607810Y-123661904D01*
X124607810Y-123661904D02*
X124798286Y-123709523D01*
X124798286Y-123709523D02*
X124941143Y-123709523D01*
X124941143Y-123709523D02*
X125131619Y-123661904D01*
X125131619Y-123661904D02*
X125226857Y-123614285D01*
X125226857Y-123614285D02*
X125322096Y-123519047D01*
X125322096Y-123519047D02*
X125369715Y-123376190D01*
X125369715Y-123376190D02*
X125369715Y-123280952D01*
X125369715Y-123280952D02*
X125322096Y-123138095D01*
X125322096Y-123138095D02*
X125274476Y-123090476D01*
X125274476Y-123090476D02*
X124941143Y-123090476D01*
X124941143Y-123090476D02*
X124941143Y-123280952D01*
X125369715Y-122661904D02*
X124369715Y-122661904D01*
X124369715Y-122661904D02*
X125369715Y-122090476D01*
X125369715Y-122090476D02*
X124369715Y-122090476D01*
X125369715Y-121614285D02*
X124369715Y-121614285D01*
X124369715Y-121614285D02*
X124369715Y-121376190D01*
X124369715Y-121376190D02*
X124417334Y-121233333D01*
X124417334Y-121233333D02*
X124512572Y-121138095D01*
X124512572Y-121138095D02*
X124607810Y-121090476D01*
X124607810Y-121090476D02*
X124798286Y-121042857D01*
X124798286Y-121042857D02*
X124941143Y-121042857D01*
X124941143Y-121042857D02*
X125131619Y-121090476D01*
X125131619Y-121090476D02*
X125226857Y-121138095D01*
X125226857Y-121138095D02*
X125322096Y-121233333D01*
X125322096Y-121233333D02*
X125369715Y-121376190D01*
X125369715Y-121376190D02*
X125369715Y-121614285D01*
X134990476Y-62422096D02*
X135133333Y-62469715D01*
X135133333Y-62469715D02*
X135371428Y-62469715D01*
X135371428Y-62469715D02*
X135466666Y-62422096D01*
X135466666Y-62422096D02*
X135514285Y-62374476D01*
X135514285Y-62374476D02*
X135561904Y-62279238D01*
X135561904Y-62279238D02*
X135561904Y-62184000D01*
X135561904Y-62184000D02*
X135514285Y-62088762D01*
X135514285Y-62088762D02*
X135466666Y-62041143D01*
X135466666Y-62041143D02*
X135371428Y-61993524D01*
X135371428Y-61993524D02*
X135180952Y-61945905D01*
X135180952Y-61945905D02*
X135085714Y-61898286D01*
X135085714Y-61898286D02*
X135038095Y-61850667D01*
X135038095Y-61850667D02*
X134990476Y-61755429D01*
X134990476Y-61755429D02*
X134990476Y-61660191D01*
X134990476Y-61660191D02*
X135038095Y-61564953D01*
X135038095Y-61564953D02*
X135085714Y-61517334D01*
X135085714Y-61517334D02*
X135180952Y-61469715D01*
X135180952Y-61469715D02*
X135419047Y-61469715D01*
X135419047Y-61469715D02*
X135561904Y-61517334D01*
X135990476Y-62469715D02*
X135990476Y-61469715D01*
X136990475Y-61517334D02*
X136895237Y-61469715D01*
X136895237Y-61469715D02*
X136752380Y-61469715D01*
X136752380Y-61469715D02*
X136609523Y-61517334D01*
X136609523Y-61517334D02*
X136514285Y-61612572D01*
X136514285Y-61612572D02*
X136466666Y-61707810D01*
X136466666Y-61707810D02*
X136419047Y-61898286D01*
X136419047Y-61898286D02*
X136419047Y-62041143D01*
X136419047Y-62041143D02*
X136466666Y-62231619D01*
X136466666Y-62231619D02*
X136514285Y-62326857D01*
X136514285Y-62326857D02*
X136609523Y-62422096D01*
X136609523Y-62422096D02*
X136752380Y-62469715D01*
X136752380Y-62469715D02*
X136847618Y-62469715D01*
X136847618Y-62469715D02*
X136990475Y-62422096D01*
X136990475Y-62422096D02*
X137038094Y-62374476D01*
X137038094Y-62374476D02*
X137038094Y-62041143D01*
X137038094Y-62041143D02*
X136847618Y-62041143D01*
D11*
G36*
X178902221Y-61431558D02*
G01*
X178941173Y-61470511D01*
X178985266Y-61558695D01*
X178985266Y-61759098D01*
X178941174Y-61847281D01*
X178902221Y-61886234D01*
X178814040Y-61930325D01*
X178551730Y-61930325D01*
X178463550Y-61886235D01*
X178424594Y-61847279D01*
X178380504Y-61759099D01*
X178380504Y-61558695D01*
X178424594Y-61470514D01*
X178463550Y-61431558D01*
X178551731Y-61387468D01*
X178814040Y-61387468D01*
X178902221Y-61431558D01*
G37*
G36*
X179824948Y-65803342D02*
G01*
X178036060Y-65803342D01*
X178036060Y-65539389D01*
X178182425Y-65539389D01*
X178182425Y-65578407D01*
X178197357Y-65614455D01*
X178224947Y-65642045D01*
X178260995Y-65656977D01*
X178280504Y-65658898D01*
X179580504Y-65658898D01*
X179600013Y-65656977D01*
X179636061Y-65642045D01*
X179663651Y-65614455D01*
X179678583Y-65578407D01*
X179678583Y-65539389D01*
X179663651Y-65503341D01*
X179636061Y-65475751D01*
X179600013Y-65460819D01*
X179580504Y-65458898D01*
X178280504Y-65458898D01*
X178260995Y-65460819D01*
X178224947Y-65475751D01*
X178197357Y-65503341D01*
X178182425Y-65539389D01*
X178036060Y-65539389D01*
X178036060Y-64932865D01*
X178180748Y-64932865D01*
X178182425Y-64946058D01*
X178182425Y-64959359D01*
X178184864Y-64965247D01*
X178185668Y-64971572D01*
X178192268Y-64983121D01*
X178197357Y-64995407D01*
X178201864Y-64999914D01*
X178205027Y-65005449D01*
X178215541Y-65013591D01*
X178224947Y-65022997D01*
X178230837Y-65025436D01*
X178235876Y-65029339D01*
X178248704Y-65032837D01*
X178260995Y-65037929D01*
X178270972Y-65038911D01*
X178273519Y-65039606D01*
X178275486Y-65039355D01*
X178280504Y-65039850D01*
X179580504Y-65039850D01*
X179600013Y-65037929D01*
X179636061Y-65022997D01*
X179663651Y-64995407D01*
X179678583Y-64959359D01*
X179678583Y-64920341D01*
X179663651Y-64884293D01*
X179636061Y-64856703D01*
X179600013Y-64841771D01*
X179580504Y-64839850D01*
X178657061Y-64839850D01*
X179630118Y-64283818D01*
X179634231Y-64280897D01*
X179636061Y-64280140D01*
X179637926Y-64278274D01*
X179646103Y-64272470D01*
X179654245Y-64261955D01*
X179663651Y-64252550D01*
X179666090Y-64246659D01*
X179669993Y-64241621D01*
X179673490Y-64228795D01*
X179678583Y-64216502D01*
X179678583Y-64210123D01*
X179680259Y-64203978D01*
X179678583Y-64190792D01*
X179678583Y-64177484D01*
X179676142Y-64171592D01*
X179675339Y-64165271D01*
X179668741Y-64153725D01*
X179663651Y-64141436D01*
X179659143Y-64136928D01*
X179655981Y-64131394D01*
X179645466Y-64123251D01*
X179636061Y-64113846D01*
X179630170Y-64111406D01*
X179625132Y-64107504D01*
X179612304Y-64104005D01*
X179600013Y-64098914D01*
X179590033Y-64097931D01*
X179587488Y-64097237D01*
X179585521Y-64097487D01*
X179580504Y-64096993D01*
X178280504Y-64096993D01*
X178260995Y-64098914D01*
X178224947Y-64113846D01*
X178197357Y-64141436D01*
X178182425Y-64177484D01*
X178182425Y-64216502D01*
X178197357Y-64252550D01*
X178224947Y-64280140D01*
X178260995Y-64295072D01*
X178280504Y-64296993D01*
X179203948Y-64296993D01*
X178230890Y-64853026D01*
X178226779Y-64855944D01*
X178224947Y-64856703D01*
X178223080Y-64858569D01*
X178214905Y-64864373D01*
X178206762Y-64874887D01*
X178197357Y-64884293D01*
X178194917Y-64890183D01*
X178191015Y-64895222D01*
X178187516Y-64908050D01*
X178182425Y-64920341D01*
X178182425Y-64926716D01*
X178180748Y-64932865D01*
X178036060Y-64932865D01*
X178036060Y-63558436D01*
X178677663Y-63558436D01*
X178677663Y-63597454D01*
X178686410Y-63618571D01*
X178692595Y-63633503D01*
X178705032Y-63648656D01*
X178766937Y-63710560D01*
X178782090Y-63722997D01*
X178818139Y-63737928D01*
X178837647Y-63737927D01*
X178857155Y-63737928D01*
X178893204Y-63722997D01*
X178908357Y-63710560D01*
X178970262Y-63648656D01*
X178982699Y-63633503D01*
X178988883Y-63618571D01*
X178997631Y-63597454D01*
X178997631Y-63558436D01*
X179358616Y-63558436D01*
X179358616Y-63597454D01*
X179367363Y-63618571D01*
X179373548Y-63633503D01*
X179385985Y-63648656D01*
X179447890Y-63710560D01*
X179463043Y-63722997D01*
X179488533Y-63733554D01*
X179499091Y-63737928D01*
X179499092Y-63737928D01*
X179538109Y-63737928D01*
X179559226Y-63729180D01*
X179574158Y-63722996D01*
X179574162Y-63722991D01*
X179589311Y-63710560D01*
X179651214Y-63648656D01*
X179663651Y-63633503D01*
X179669103Y-63620339D01*
X179678583Y-63597454D01*
X179678583Y-63558436D01*
X179669103Y-63535549D01*
X179663652Y-63522388D01*
X179651215Y-63507235D01*
X179589311Y-63445330D01*
X179574158Y-63432893D01*
X179559226Y-63426708D01*
X179538109Y-63417961D01*
X179499091Y-63417961D01*
X179488533Y-63422334D01*
X179463043Y-63432892D01*
X179463037Y-63432897D01*
X179447889Y-63445329D01*
X179385984Y-63507234D01*
X179373552Y-63522382D01*
X179373547Y-63522388D01*
X179368096Y-63535549D01*
X179358616Y-63558436D01*
X178997631Y-63558436D01*
X178988151Y-63535549D01*
X178982700Y-63522388D01*
X178982694Y-63522382D01*
X178970263Y-63507234D01*
X178908358Y-63445329D01*
X178893204Y-63432893D01*
X178857156Y-63417961D01*
X178818138Y-63417961D01*
X178782090Y-63432893D01*
X178766936Y-63445329D01*
X178705031Y-63507234D01*
X178692599Y-63522382D01*
X178692594Y-63522388D01*
X178687143Y-63535549D01*
X178677663Y-63558436D01*
X178036060Y-63558436D01*
X178036060Y-61535087D01*
X178180504Y-61535087D01*
X178180504Y-61782706D01*
X178182425Y-61802215D01*
X178183800Y-61805535D01*
X178184055Y-61809119D01*
X178191061Y-61827427D01*
X178252966Y-61951238D01*
X178258252Y-61959636D01*
X178259262Y-61962073D01*
X178261513Y-61964816D01*
X178263409Y-61967828D01*
X178265406Y-61969560D01*
X178271698Y-61977227D01*
X178333603Y-62039132D01*
X178341273Y-62045426D01*
X178343003Y-62047421D01*
X178346010Y-62049314D01*
X178348757Y-62051568D01*
X178351196Y-62052578D01*
X178359593Y-62057864D01*
X178483402Y-62119768D01*
X178501710Y-62126774D01*
X178505293Y-62127028D01*
X178508614Y-62128404D01*
X178528123Y-62130325D01*
X178837647Y-62130325D01*
X178857156Y-62128404D01*
X178860476Y-62127028D01*
X178864059Y-62126774D01*
X178882368Y-62119768D01*
X179006177Y-62057864D01*
X179014571Y-62052579D01*
X179017015Y-62051568D01*
X179019763Y-62049312D01*
X179022768Y-62047421D01*
X179024498Y-62045425D01*
X179032168Y-62039131D01*
X179094072Y-61977226D01*
X179100364Y-61969559D01*
X179102361Y-61967828D01*
X179104254Y-61964820D01*
X179106509Y-61962073D01*
X179107520Y-61959631D01*
X179112804Y-61951237D01*
X179174709Y-61827427D01*
X179181715Y-61809119D01*
X179181969Y-61805535D01*
X179183345Y-61802215D01*
X179185266Y-61782706D01*
X179185266Y-61535087D01*
X179183345Y-61515578D01*
X179181969Y-61512257D01*
X179181715Y-61508674D01*
X179174709Y-61490365D01*
X179139290Y-61419527D01*
X179229921Y-61442185D01*
X179392987Y-61550896D01*
X179436414Y-61594322D01*
X179480504Y-61682502D01*
X179480504Y-61906516D01*
X179482425Y-61926025D01*
X179497357Y-61962073D01*
X179524947Y-61989663D01*
X179560995Y-62004595D01*
X179600013Y-62004595D01*
X179636061Y-61989663D01*
X179663651Y-61962073D01*
X179678583Y-61926025D01*
X179680504Y-61906516D01*
X179680504Y-61658897D01*
X179678583Y-61639388D01*
X179677207Y-61636067D01*
X179676953Y-61632484D01*
X179669947Y-61614176D01*
X179608043Y-61490366D01*
X179602758Y-61481970D01*
X179601747Y-61479529D01*
X179599491Y-61476781D01*
X179597600Y-61473776D01*
X179595604Y-61472045D01*
X179589310Y-61464376D01*
X179527405Y-61402472D01*
X179527352Y-61402429D01*
X179527332Y-61402398D01*
X179519834Y-61396258D01*
X179512252Y-61390035D01*
X179512216Y-61390020D01*
X179512165Y-61389978D01*
X179326450Y-61266168D01*
X179315680Y-61260425D01*
X179313694Y-61258954D01*
X179311348Y-61258115D01*
X179309152Y-61256945D01*
X179306728Y-61256465D01*
X179295234Y-61252359D01*
X179047615Y-61190454D01*
X179044233Y-61189953D01*
X179042870Y-61189389D01*
X179035519Y-61188665D01*
X179028222Y-61187586D01*
X179026763Y-61187803D01*
X179023361Y-61187468D01*
X178528123Y-61187468D01*
X178508614Y-61189389D01*
X178505293Y-61190764D01*
X178501710Y-61191019D01*
X178483401Y-61198025D01*
X178359592Y-61259930D01*
X178351193Y-61265216D01*
X178348757Y-61266226D01*
X178346013Y-61268477D01*
X178343002Y-61270373D01*
X178341269Y-61272370D01*
X178333603Y-61278662D01*
X178271698Y-61340567D01*
X178265406Y-61348233D01*
X178263409Y-61349966D01*
X178261513Y-61352977D01*
X178259262Y-61355721D01*
X178258252Y-61358157D01*
X178252966Y-61366556D01*
X178191061Y-61490365D01*
X178184055Y-61508674D01*
X178183800Y-61512257D01*
X178182425Y-61515578D01*
X178180504Y-61535087D01*
X178036060Y-61535087D01*
X178036060Y-60036866D01*
X178181289Y-60036866D01*
X178184055Y-60075786D01*
X178201505Y-60110684D01*
X178230981Y-60136250D01*
X178248881Y-60144241D01*
X179264277Y-60482706D01*
X178248881Y-60821172D01*
X178230981Y-60829163D01*
X178201505Y-60854728D01*
X178184055Y-60889627D01*
X178181289Y-60928547D01*
X178193627Y-60965563D01*
X178219192Y-60995039D01*
X178254091Y-61012489D01*
X178293011Y-61015255D01*
X178312127Y-61010908D01*
X179612127Y-60577575D01*
X179630027Y-60569584D01*
X179635424Y-60564902D01*
X179641816Y-60561707D01*
X179650033Y-60552232D01*
X179659503Y-60544019D01*
X179662697Y-60537630D01*
X179667381Y-60532230D01*
X179671347Y-60520329D01*
X179676953Y-60509120D01*
X179677459Y-60501996D01*
X179679720Y-60495215D01*
X179678830Y-60482702D01*
X179679719Y-60470200D01*
X179677459Y-60463422D01*
X179676953Y-60456295D01*
X179671344Y-60445078D01*
X179667380Y-60433184D01*
X179662699Y-60427787D01*
X179659504Y-60421396D01*
X179650027Y-60413176D01*
X179641815Y-60403708D01*
X179635427Y-60400514D01*
X179630028Y-60395831D01*
X179612127Y-60387839D01*
X178312127Y-59954505D01*
X178293011Y-59950158D01*
X178254091Y-59952924D01*
X178219193Y-59970374D01*
X178193627Y-59999850D01*
X178181289Y-60036866D01*
X178036060Y-60036866D01*
X178036060Y-57635088D01*
X178985266Y-57635088D01*
X178985266Y-58625564D01*
X178987187Y-58645073D01*
X179002119Y-58681121D01*
X179029709Y-58708711D01*
X179065757Y-58723643D01*
X179104775Y-58723643D01*
X179140823Y-58708711D01*
X179168413Y-58681121D01*
X179183345Y-58645073D01*
X179185266Y-58625564D01*
X179185266Y-57635088D01*
X179183345Y-57615579D01*
X179168413Y-57579531D01*
X179140823Y-57551941D01*
X179104775Y-57537009D01*
X179065757Y-57537009D01*
X179029709Y-57551941D01*
X179002119Y-57579531D01*
X178987187Y-57615579D01*
X178985266Y-57635088D01*
X178036060Y-57635088D01*
X178036060Y-55716145D01*
X178180504Y-55716145D01*
X178182425Y-55725750D01*
X178182425Y-55735549D01*
X178186214Y-55744697D01*
X178188156Y-55754405D01*
X178193607Y-55762545D01*
X178197357Y-55771597D01*
X178204356Y-55778596D01*
X178209867Y-55786825D01*
X178224873Y-55799113D01*
X178224947Y-55799187D01*
X178224979Y-55799200D01*
X178225034Y-55799245D01*
X178402510Y-55917562D01*
X178507841Y-56022892D01*
X178562490Y-56132190D01*
X178572933Y-56148780D01*
X178602410Y-56174344D01*
X178639426Y-56186683D01*
X178678346Y-56183917D01*
X178713245Y-56166468D01*
X178738809Y-56136991D01*
X178751148Y-56099975D01*
X178748382Y-56061055D01*
X178741376Y-56042746D01*
X178679471Y-55918937D01*
X178674184Y-55910538D01*
X178673175Y-55908102D01*
X178670924Y-55905359D01*
X178669028Y-55902347D01*
X178667029Y-55900613D01*
X178660739Y-55892949D01*
X178583831Y-55816040D01*
X179480504Y-55816040D01*
X179480504Y-56087468D01*
X179482425Y-56106977D01*
X179497357Y-56143025D01*
X179524947Y-56170615D01*
X179560995Y-56185547D01*
X179600013Y-56185547D01*
X179636061Y-56170615D01*
X179663651Y-56143025D01*
X179678583Y-56106977D01*
X179680504Y-56087468D01*
X179680504Y-55344611D01*
X179678583Y-55325102D01*
X179663651Y-55289054D01*
X179636061Y-55261464D01*
X179600013Y-55246532D01*
X179560995Y-55246532D01*
X179524947Y-55261464D01*
X179497357Y-55289054D01*
X179482425Y-55325102D01*
X179480504Y-55344611D01*
X179480504Y-55616040D01*
X178280504Y-55616040D01*
X178280433Y-55616046D01*
X178280399Y-55616040D01*
X178280297Y-55616060D01*
X178260995Y-55617961D01*
X178251846Y-55621750D01*
X178242139Y-55623692D01*
X178233998Y-55629143D01*
X178224947Y-55632893D01*
X178217947Y-55639892D01*
X178209719Y-55645403D01*
X178204283Y-55653556D01*
X178197357Y-55660483D01*
X178193568Y-55669629D01*
X178188076Y-55677868D01*
X178186174Y-55687478D01*
X178182425Y-55696531D01*
X178182425Y-55706434D01*
X178180504Y-55716145D01*
X178036060Y-55716145D01*
X178036060Y-54354135D01*
X178180504Y-54354135D01*
X178180504Y-54663659D01*
X178182425Y-54683168D01*
X178183800Y-54686488D01*
X178184055Y-54690072D01*
X178191061Y-54708380D01*
X178252966Y-54832191D01*
X178258251Y-54840588D01*
X178259262Y-54843027D01*
X178261514Y-54845771D01*
X178263409Y-54848781D01*
X178265406Y-54850513D01*
X178271699Y-54858180D01*
X178333604Y-54920084D01*
X178348757Y-54932521D01*
X178384806Y-54947452D01*
X178423824Y-54947451D01*
X178459872Y-54932520D01*
X178487462Y-54904930D01*
X178502393Y-54868881D01*
X178502392Y-54829863D01*
X178487461Y-54793815D01*
X178475024Y-54778662D01*
X178424594Y-54728233D01*
X178380504Y-54640052D01*
X178380504Y-54377743D01*
X178424594Y-54289562D01*
X178463550Y-54250606D01*
X178551731Y-54206516D01*
X178635706Y-54206516D01*
X178783627Y-54255823D01*
X179509793Y-54981988D01*
X179524946Y-54994425D01*
X179535504Y-54998798D01*
X179560995Y-55009357D01*
X179600013Y-55009357D01*
X179636061Y-54994425D01*
X179663651Y-54966835D01*
X179678583Y-54930787D01*
X179680504Y-54911278D01*
X179680504Y-54106516D01*
X179678583Y-54087007D01*
X179663651Y-54050959D01*
X179636061Y-54023369D01*
X179600013Y-54008437D01*
X179560995Y-54008437D01*
X179524947Y-54023369D01*
X179497357Y-54050959D01*
X179482425Y-54087007D01*
X179480504Y-54106516D01*
X179480504Y-54669856D01*
X178908358Y-54097710D01*
X178893204Y-54085274D01*
X178889883Y-54083898D01*
X178887170Y-54081545D01*
X178869270Y-54073553D01*
X178683556Y-54011648D01*
X178673883Y-54009448D01*
X178671442Y-54008437D01*
X178667904Y-54008088D01*
X178664441Y-54007301D01*
X178661806Y-54007488D01*
X178651933Y-54006516D01*
X178528123Y-54006516D01*
X178508614Y-54008437D01*
X178505293Y-54009812D01*
X178501710Y-54010067D01*
X178483401Y-54017073D01*
X178359592Y-54078978D01*
X178351193Y-54084264D01*
X178348757Y-54085274D01*
X178346013Y-54087525D01*
X178343002Y-54089421D01*
X178341269Y-54091418D01*
X178333603Y-54097710D01*
X178271698Y-54159615D01*
X178265406Y-54167281D01*
X178263409Y-54169014D01*
X178261513Y-54172025D01*
X178259262Y-54174769D01*
X178258252Y-54177205D01*
X178252966Y-54185604D01*
X178191061Y-54309413D01*
X178184055Y-54327722D01*
X178183800Y-54331305D01*
X178182425Y-54334626D01*
X178180504Y-54354135D01*
X178036060Y-54354135D01*
X178036060Y-52855914D01*
X178181289Y-52855914D01*
X178184055Y-52894834D01*
X178201505Y-52929732D01*
X178230981Y-52955298D01*
X178248881Y-52963289D01*
X179264277Y-53301754D01*
X178248881Y-53640220D01*
X178230981Y-53648211D01*
X178201505Y-53673776D01*
X178184055Y-53708675D01*
X178181289Y-53747595D01*
X178193627Y-53784611D01*
X178219192Y-53814087D01*
X178254091Y-53831537D01*
X178293011Y-53834303D01*
X178312127Y-53829956D01*
X179612127Y-53396623D01*
X179630027Y-53388632D01*
X179635424Y-53383950D01*
X179641816Y-53380755D01*
X179650033Y-53371280D01*
X179659503Y-53363067D01*
X179662697Y-53356678D01*
X179667381Y-53351278D01*
X179671347Y-53339377D01*
X179676953Y-53328168D01*
X179677459Y-53321044D01*
X179679720Y-53314263D01*
X179678830Y-53301750D01*
X179679719Y-53289248D01*
X179677459Y-53282470D01*
X179676953Y-53275343D01*
X179671344Y-53264126D01*
X179667380Y-53252232D01*
X179662699Y-53246835D01*
X179659504Y-53240444D01*
X179650027Y-53232224D01*
X179641815Y-53222756D01*
X179635427Y-53219562D01*
X179630028Y-53214879D01*
X179612127Y-53206887D01*
X178312127Y-52773553D01*
X178293011Y-52769206D01*
X178254091Y-52771972D01*
X178219193Y-52789422D01*
X178193627Y-52818898D01*
X178181289Y-52855914D01*
X178036060Y-52855914D01*
X178036060Y-52624762D01*
X179824948Y-52624762D01*
X179824948Y-65803342D01*
G37*
D10*
X121669715Y-68461904D02*
X120669715Y-68461904D01*
X120669715Y-68461904D02*
X120669715Y-68080952D01*
X120669715Y-68080952D02*
X120717334Y-67985714D01*
X120717334Y-67985714D02*
X120764953Y-67938095D01*
X120764953Y-67938095D02*
X120860191Y-67890476D01*
X120860191Y-67890476D02*
X121003048Y-67890476D01*
X121003048Y-67890476D02*
X121098286Y-67938095D01*
X121098286Y-67938095D02*
X121145905Y-67985714D01*
X121145905Y-67985714D02*
X121193524Y-68080952D01*
X121193524Y-68080952D02*
X121193524Y-68461904D01*
X121384000Y-67509523D02*
X121384000Y-67033333D01*
X121669715Y-67604761D02*
X120669715Y-67271428D01*
X120669715Y-67271428D02*
X121669715Y-66938095D01*
X121669715Y-66557142D02*
X121669715Y-66366666D01*
X121669715Y-66366666D02*
X121622096Y-66271428D01*
X121622096Y-66271428D02*
X121574476Y-66223809D01*
X121574476Y-66223809D02*
X121431619Y-66128571D01*
X121431619Y-66128571D02*
X121241143Y-66080952D01*
X121241143Y-66080952D02*
X120860191Y-66080952D01*
X120860191Y-66080952D02*
X120764953Y-66128571D01*
X120764953Y-66128571D02*
X120717334Y-66176190D01*
X120717334Y-66176190D02*
X120669715Y-66271428D01*
X120669715Y-66271428D02*
X120669715Y-66461904D01*
X120669715Y-66461904D02*
X120717334Y-66557142D01*
X120717334Y-66557142D02*
X120764953Y-66604761D01*
X120764953Y-66604761D02*
X120860191Y-66652380D01*
X120860191Y-66652380D02*
X121098286Y-66652380D01*
X121098286Y-66652380D02*
X121193524Y-66604761D01*
X121193524Y-66604761D02*
X121241143Y-66557142D01*
X121241143Y-66557142D02*
X121288762Y-66461904D01*
X121288762Y-66461904D02*
X121288762Y-66271428D01*
X121288762Y-66271428D02*
X121241143Y-66176190D01*
X121241143Y-66176190D02*
X121193524Y-66128571D01*
X121193524Y-66128571D02*
X121098286Y-66080952D01*
G36*
X139669265Y-63779794D02*
G01*
X139740897Y-63851426D01*
X139781142Y-64012405D01*
X139781142Y-64327024D01*
X139740897Y-64488002D01*
X139669265Y-64559635D01*
X139601107Y-64593715D01*
X139446513Y-64593715D01*
X139378354Y-64559636D01*
X139306720Y-64488002D01*
X139266476Y-64327024D01*
X139266476Y-64012405D01*
X139306720Y-63851426D01*
X139378352Y-63779794D01*
X139446513Y-63745715D01*
X139601107Y-63745715D01*
X139669265Y-63779794D01*
G37*
G36*
X138669265Y-63779794D02*
G01*
X138699443Y-63809972D01*
X138733523Y-63878132D01*
X138733523Y-63985106D01*
X138699443Y-64053266D01*
X138669265Y-64083444D01*
X138601107Y-64117524D01*
X138314095Y-64117524D01*
X138314095Y-63745715D01*
X138601107Y-63745715D01*
X138669265Y-63779794D01*
G37*
G36*
X145383551Y-63779794D02*
G01*
X145413729Y-63809972D01*
X145447809Y-63878132D01*
X145447809Y-63985106D01*
X145413729Y-64053266D01*
X145383551Y-64083444D01*
X145315393Y-64117524D01*
X145028381Y-64117524D01*
X145028381Y-63745715D01*
X145315393Y-63745715D01*
X145383551Y-63779794D01*
G37*
G36*
X137669265Y-63779794D02*
G01*
X137699443Y-63809972D01*
X137733523Y-63878132D01*
X137733523Y-63985106D01*
X137699443Y-64053266D01*
X137669265Y-64083444D01*
X137601107Y-64117524D01*
X137314095Y-64117524D01*
X137314095Y-63745715D01*
X137601107Y-63745715D01*
X137669265Y-63779794D01*
G37*
G36*
X145710920Y-64952064D02*
G01*
X137050984Y-64952064D01*
X137050984Y-64750126D01*
X140925460Y-64750126D01*
X140925460Y-64779780D01*
X140936808Y-64807176D01*
X140957777Y-64828145D01*
X140985173Y-64839493D01*
X141000000Y-64840953D01*
X141761904Y-64840953D01*
X141776731Y-64839493D01*
X141804127Y-64828145D01*
X141825096Y-64807176D01*
X141836444Y-64779780D01*
X141836444Y-64750126D01*
X141825096Y-64722730D01*
X141804127Y-64701761D01*
X141776731Y-64690413D01*
X141761904Y-64688953D01*
X141000000Y-64688953D01*
X140985173Y-64690413D01*
X140957777Y-64701761D01*
X140936808Y-64722730D01*
X140925460Y-64750126D01*
X137050984Y-64750126D01*
X137050984Y-63669715D01*
X137162095Y-63669715D01*
X137162095Y-64669715D01*
X137163555Y-64684542D01*
X137174903Y-64711938D01*
X137195872Y-64732907D01*
X137223268Y-64744255D01*
X137252922Y-64744255D01*
X137280318Y-64732907D01*
X137301287Y-64711938D01*
X137312635Y-64684542D01*
X137314095Y-64669715D01*
X137314095Y-64269524D01*
X137619047Y-64269524D01*
X137633874Y-64268064D01*
X137636397Y-64267018D01*
X137639121Y-64266825D01*
X137653035Y-64261500D01*
X137748273Y-64213882D01*
X137754655Y-64209864D01*
X137756508Y-64209097D01*
X137758592Y-64207385D01*
X137760882Y-64205945D01*
X137762198Y-64204426D01*
X137768025Y-64199645D01*
X137815644Y-64152026D01*
X137820426Y-64146198D01*
X137821944Y-64144883D01*
X137823381Y-64142598D01*
X137825096Y-64140510D01*
X137825865Y-64138652D01*
X137829880Y-64132274D01*
X137877499Y-64037037D01*
X137882824Y-64023122D01*
X137883017Y-64020398D01*
X137884063Y-64017875D01*
X137885523Y-64003048D01*
X137885523Y-63860191D01*
X137884063Y-63845364D01*
X137883017Y-63842840D01*
X137882824Y-63840117D01*
X137877499Y-63826202D01*
X137829880Y-63730965D01*
X137825865Y-63724586D01*
X137825096Y-63722729D01*
X137823381Y-63720640D01*
X137821944Y-63718356D01*
X137820426Y-63717040D01*
X137815644Y-63711213D01*
X137774146Y-63669715D01*
X138162095Y-63669715D01*
X138162095Y-64669715D01*
X138163555Y-64684542D01*
X138174903Y-64711938D01*
X138195872Y-64732907D01*
X138223268Y-64744255D01*
X138252922Y-64744255D01*
X138280318Y-64732907D01*
X138301287Y-64711938D01*
X138312635Y-64684542D01*
X138314095Y-64669715D01*
X138314095Y-64269524D01*
X138436620Y-64269524D01*
X138747261Y-64713298D01*
X138756960Y-64724608D01*
X138781967Y-64740544D01*
X138811171Y-64745697D01*
X138840122Y-64739283D01*
X138864416Y-64722278D01*
X138880352Y-64697271D01*
X138885505Y-64668067D01*
X138879091Y-64639116D01*
X138871785Y-64626132D01*
X138621959Y-64269237D01*
X138633874Y-64268064D01*
X138636397Y-64267018D01*
X138639121Y-64266825D01*
X138653035Y-64261500D01*
X138748273Y-64213882D01*
X138754655Y-64209864D01*
X138756508Y-64209097D01*
X138758592Y-64207385D01*
X138760882Y-64205945D01*
X138762198Y-64204426D01*
X138768025Y-64199645D01*
X138815644Y-64152026D01*
X138820426Y-64146198D01*
X138821944Y-64144883D01*
X138823381Y-64142598D01*
X138825096Y-64140510D01*
X138825865Y-64138652D01*
X138829880Y-64132274D01*
X138877499Y-64037037D01*
X138882824Y-64023122D01*
X138883017Y-64020398D01*
X138884063Y-64017875D01*
X138885523Y-64003048D01*
X139114476Y-64003048D01*
X139114476Y-64336381D01*
X139114730Y-64338967D01*
X139114566Y-64340075D01*
X139115385Y-64345619D01*
X139115936Y-64351208D01*
X139116365Y-64352243D01*
X139116745Y-64354814D01*
X139164364Y-64545290D01*
X139169377Y-64559320D01*
X139172740Y-64563859D01*
X139174903Y-64569080D01*
X139184355Y-64580597D01*
X139279593Y-64675836D01*
X139285420Y-64680618D01*
X139286736Y-64682136D01*
X139289020Y-64683573D01*
X139291109Y-64685288D01*
X139292966Y-64686057D01*
X139299345Y-64690072D01*
X139394582Y-64737691D01*
X139408497Y-64743016D01*
X139411220Y-64743209D01*
X139413744Y-64744255D01*
X139428571Y-64745715D01*
X139619047Y-64745715D01*
X139633874Y-64744255D01*
X139636397Y-64743209D01*
X139639121Y-64743016D01*
X139653035Y-64737691D01*
X139748273Y-64690073D01*
X139754653Y-64686056D01*
X139756509Y-64685288D01*
X139758596Y-64683574D01*
X139760882Y-64682136D01*
X139762197Y-64680618D01*
X139768025Y-64675836D01*
X139863264Y-64580597D01*
X139872716Y-64569080D01*
X139874879Y-64563857D01*
X139878241Y-64559320D01*
X139883254Y-64545290D01*
X139930873Y-64354814D01*
X139931252Y-64352243D01*
X139931682Y-64351208D01*
X139932232Y-64345619D01*
X139933052Y-64340075D01*
X139932887Y-64338967D01*
X139933142Y-64336381D01*
X139933142Y-64003048D01*
X139932887Y-64000461D01*
X139933052Y-63999354D01*
X139932232Y-63993809D01*
X139931682Y-63988221D01*
X139931252Y-63987185D01*
X139930873Y-63984615D01*
X139883254Y-63794139D01*
X139878241Y-63780109D01*
X139874877Y-63775568D01*
X139872715Y-63770349D01*
X139863263Y-63758832D01*
X139774067Y-63669636D01*
X140114476Y-63669636D01*
X140120230Y-63698726D01*
X140127240Y-63711872D01*
X140432468Y-64169715D01*
X140127240Y-64627558D01*
X140120230Y-64640704D01*
X140114476Y-64669794D01*
X140120292Y-64698873D01*
X140136792Y-64723512D01*
X140161465Y-64739961D01*
X140190555Y-64745715D01*
X140219634Y-64739899D01*
X140244273Y-64723399D01*
X140253712Y-64711872D01*
X140523809Y-64306726D01*
X140793906Y-64711872D01*
X140803345Y-64723399D01*
X140827984Y-64739899D01*
X140857063Y-64745715D01*
X140886152Y-64739961D01*
X140910826Y-64723511D01*
X140927326Y-64698873D01*
X140933142Y-64669794D01*
X140927388Y-64640704D01*
X140920378Y-64627558D01*
X140615149Y-64169715D01*
X140821499Y-63860191D01*
X141876381Y-63860191D01*
X141876381Y-63955429D01*
X141877841Y-63970256D01*
X141878886Y-63972779D01*
X141879080Y-63975503D01*
X141884405Y-63989417D01*
X141932023Y-64084655D01*
X141936040Y-64091037D01*
X141936808Y-64092890D01*
X141938519Y-64094974D01*
X141939960Y-64097264D01*
X141941478Y-64098580D01*
X141946260Y-64104407D01*
X141993879Y-64152026D01*
X141999706Y-64156808D01*
X142001022Y-64158326D01*
X142003306Y-64159763D01*
X142005395Y-64161478D01*
X142007252Y-64162247D01*
X142013631Y-64166262D01*
X142108868Y-64213881D01*
X142109952Y-64214296D01*
X142110394Y-64214623D01*
X142116621Y-64216848D01*
X142122783Y-64219206D01*
X142123329Y-64219244D01*
X142124424Y-64219636D01*
X142306809Y-64265232D01*
X142383551Y-64303603D01*
X142413729Y-64333781D01*
X142447809Y-64401941D01*
X142447809Y-64461296D01*
X142413729Y-64529456D01*
X142383549Y-64559636D01*
X142315393Y-64593715D01*
X142107571Y-64593715D01*
X141976414Y-64549996D01*
X141961886Y-64546692D01*
X141932308Y-64548795D01*
X141905784Y-64562057D01*
X141886355Y-64584458D01*
X141876977Y-64612591D01*
X141879080Y-64642169D01*
X141892342Y-64668693D01*
X141914743Y-64688122D01*
X141928348Y-64694196D01*
X142071204Y-64741815D01*
X142078555Y-64743486D01*
X142080411Y-64744255D01*
X142083101Y-64744519D01*
X142085732Y-64745118D01*
X142087731Y-64744975D01*
X142095238Y-64745715D01*
X142333333Y-64745715D01*
X142348160Y-64744255D01*
X142350683Y-64743209D01*
X142353407Y-64743016D01*
X142367321Y-64737691D01*
X142462559Y-64690073D01*
X142468939Y-64686056D01*
X142470795Y-64685288D01*
X142472883Y-64683574D01*
X142475168Y-64682136D01*
X142476482Y-64680620D01*
X142482312Y-64675836D01*
X142529931Y-64628216D01*
X142534712Y-64622388D01*
X142536230Y-64621073D01*
X142537669Y-64618785D01*
X142539382Y-64616699D01*
X142540150Y-64614844D01*
X142544166Y-64608464D01*
X142591785Y-64513227D01*
X142597110Y-64499312D01*
X142597303Y-64496588D01*
X142598349Y-64494065D01*
X142599809Y-64479238D01*
X142599809Y-64384000D01*
X142598349Y-64369173D01*
X142597303Y-64366649D01*
X142597110Y-64363926D01*
X142591785Y-64350011D01*
X142544166Y-64254774D01*
X142540151Y-64248395D01*
X142539382Y-64246538D01*
X142537667Y-64244449D01*
X142536230Y-64242165D01*
X142534712Y-64240849D01*
X142529930Y-64235022D01*
X142482311Y-64187403D01*
X142476484Y-64182621D01*
X142475168Y-64181103D01*
X142472878Y-64179662D01*
X142470794Y-64177951D01*
X142468941Y-64177183D01*
X142462559Y-64173166D01*
X142367321Y-64125548D01*
X142366238Y-64125133D01*
X142365796Y-64124806D01*
X142359561Y-64122578D01*
X142353407Y-64120223D01*
X142352860Y-64120184D01*
X142351766Y-64119793D01*
X142169383Y-64074197D01*
X142092638Y-64035825D01*
X142062460Y-64005647D01*
X142028381Y-63937488D01*
X142028381Y-63878131D01*
X142062460Y-63809972D01*
X142092638Y-63779794D01*
X142160799Y-63745715D01*
X142368619Y-63745715D01*
X142499775Y-63789434D01*
X142514303Y-63792737D01*
X142543882Y-63790635D01*
X142570406Y-63777373D01*
X142589835Y-63754972D01*
X142599212Y-63726839D01*
X142597110Y-63697261D01*
X142583848Y-63670737D01*
X142582670Y-63669715D01*
X142876381Y-63669715D01*
X142876381Y-64669715D01*
X142877841Y-64684542D01*
X142889189Y-64711938D01*
X142910158Y-64732907D01*
X142937554Y-64744255D01*
X142967208Y-64744255D01*
X142994604Y-64732907D01*
X143015573Y-64711938D01*
X143026921Y-64684542D01*
X143028381Y-64669715D01*
X143028381Y-63955897D01*
X143457823Y-64707422D01*
X143460040Y-64710546D01*
X143460617Y-64711938D01*
X143462034Y-64713355D01*
X143466446Y-64719571D01*
X143474441Y-64725762D01*
X143481586Y-64732907D01*
X143486061Y-64734760D01*
X143489892Y-64737727D01*
X143499642Y-64740386D01*
X143508982Y-64744255D01*
X143513826Y-64744255D01*
X143518501Y-64745530D01*
X143528530Y-64744255D01*
X143538636Y-64744255D01*
X143543111Y-64742401D01*
X143547918Y-64741790D01*
X143556696Y-64736774D01*
X143566032Y-64732907D01*
X143569455Y-64729483D01*
X143573665Y-64727078D01*
X143579857Y-64719081D01*
X143587001Y-64711938D01*
X143588854Y-64707464D01*
X143591821Y-64703633D01*
X143594480Y-64693880D01*
X143598349Y-64684542D01*
X143599095Y-64676960D01*
X143599624Y-64675023D01*
X143599433Y-64673526D01*
X143599809Y-64669715D01*
X143599809Y-63860191D01*
X143876381Y-63860191D01*
X143876381Y-63955429D01*
X143877841Y-63970256D01*
X143878886Y-63972779D01*
X143879080Y-63975503D01*
X143884405Y-63989417D01*
X143932023Y-64084655D01*
X143936040Y-64091037D01*
X143936808Y-64092890D01*
X143938519Y-64094974D01*
X143939960Y-64097264D01*
X143941478Y-64098580D01*
X143946260Y-64104407D01*
X143993879Y-64152026D01*
X143999706Y-64156808D01*
X144001022Y-64158326D01*
X144003306Y-64159763D01*
X144005395Y-64161478D01*
X144007252Y-64162247D01*
X144013631Y-64166262D01*
X144108868Y-64213881D01*
X144109952Y-64214296D01*
X144110394Y-64214623D01*
X144116621Y-64216848D01*
X144122783Y-64219206D01*
X144123329Y-64219244D01*
X144124424Y-64219636D01*
X144306809Y-64265232D01*
X144383551Y-64303603D01*
X144413729Y-64333781D01*
X144447809Y-64401941D01*
X144447809Y-64461296D01*
X144413729Y-64529456D01*
X144383549Y-64559636D01*
X144315393Y-64593715D01*
X144107571Y-64593715D01*
X143976414Y-64549996D01*
X143961886Y-64546692D01*
X143932308Y-64548795D01*
X143905784Y-64562057D01*
X143886355Y-64584458D01*
X143876977Y-64612591D01*
X143879080Y-64642169D01*
X143892342Y-64668693D01*
X143914743Y-64688122D01*
X143928348Y-64694196D01*
X144071204Y-64741815D01*
X144078555Y-64743486D01*
X144080411Y-64744255D01*
X144083101Y-64744519D01*
X144085732Y-64745118D01*
X144087731Y-64744975D01*
X144095238Y-64745715D01*
X144333333Y-64745715D01*
X144348160Y-64744255D01*
X144350683Y-64743209D01*
X144353407Y-64743016D01*
X144367321Y-64737691D01*
X144462559Y-64690073D01*
X144468939Y-64686056D01*
X144470795Y-64685288D01*
X144472883Y-64683574D01*
X144475168Y-64682136D01*
X144476482Y-64680620D01*
X144482312Y-64675836D01*
X144529931Y-64628216D01*
X144534712Y-64622388D01*
X144536230Y-64621073D01*
X144537669Y-64618785D01*
X144539382Y-64616699D01*
X144540150Y-64614844D01*
X144544166Y-64608464D01*
X144591785Y-64513227D01*
X144597110Y-64499312D01*
X144597303Y-64496588D01*
X144598349Y-64494065D01*
X144599809Y-64479238D01*
X144599809Y-64384000D01*
X144598349Y-64369173D01*
X144597303Y-64366649D01*
X144597110Y-64363926D01*
X144591785Y-64350011D01*
X144544166Y-64254774D01*
X144540151Y-64248395D01*
X144539382Y-64246538D01*
X144537667Y-64244449D01*
X144536230Y-64242165D01*
X144534712Y-64240849D01*
X144529930Y-64235022D01*
X144482311Y-64187403D01*
X144476484Y-64182621D01*
X144475168Y-64181103D01*
X144472878Y-64179662D01*
X144470794Y-64177951D01*
X144468941Y-64177183D01*
X144462559Y-64173166D01*
X144367321Y-64125548D01*
X144366238Y-64125133D01*
X144365796Y-64124806D01*
X144359561Y-64122578D01*
X144353407Y-64120223D01*
X144352860Y-64120184D01*
X144351766Y-64119793D01*
X144169383Y-64074197D01*
X144092638Y-64035825D01*
X144062460Y-64005647D01*
X144028381Y-63937488D01*
X144028381Y-63878131D01*
X144062460Y-63809972D01*
X144092638Y-63779794D01*
X144160799Y-63745715D01*
X144368619Y-63745715D01*
X144499775Y-63789434D01*
X144514303Y-63792737D01*
X144543882Y-63790635D01*
X144570406Y-63777373D01*
X144589835Y-63754972D01*
X144599212Y-63726839D01*
X144597110Y-63697261D01*
X144583848Y-63670737D01*
X144582670Y-63669715D01*
X144876381Y-63669715D01*
X144876381Y-64669715D01*
X144877841Y-64684542D01*
X144889189Y-64711938D01*
X144910158Y-64732907D01*
X144937554Y-64744255D01*
X144967208Y-64744255D01*
X144994604Y-64732907D01*
X145015573Y-64711938D01*
X145026921Y-64684542D01*
X145028381Y-64669715D01*
X145028381Y-64269524D01*
X145150906Y-64269524D01*
X145461547Y-64713298D01*
X145471246Y-64724608D01*
X145496253Y-64740544D01*
X145525457Y-64745697D01*
X145554408Y-64739283D01*
X145578702Y-64722278D01*
X145594638Y-64697271D01*
X145599791Y-64668067D01*
X145593377Y-64639116D01*
X145586071Y-64626132D01*
X145336245Y-64269237D01*
X145348160Y-64268064D01*
X145350683Y-64267018D01*
X145353407Y-64266825D01*
X145367321Y-64261500D01*
X145462559Y-64213882D01*
X145468941Y-64209864D01*
X145470794Y-64209097D01*
X145472878Y-64207385D01*
X145475168Y-64205945D01*
X145476484Y-64204426D01*
X145482311Y-64199645D01*
X145529930Y-64152026D01*
X145534712Y-64146198D01*
X145536230Y-64144883D01*
X145537667Y-64142598D01*
X145539382Y-64140510D01*
X145540151Y-64138652D01*
X145544166Y-64132274D01*
X145591785Y-64037037D01*
X145597110Y-64023122D01*
X145597303Y-64020398D01*
X145598349Y-64017875D01*
X145599809Y-64003048D01*
X145599809Y-63860191D01*
X145598349Y-63845364D01*
X145597303Y-63842840D01*
X145597110Y-63840117D01*
X145591785Y-63826202D01*
X145544166Y-63730965D01*
X145540151Y-63724586D01*
X145539382Y-63722729D01*
X145537667Y-63720640D01*
X145536230Y-63718356D01*
X145534712Y-63717040D01*
X145529930Y-63711213D01*
X145482311Y-63663594D01*
X145476484Y-63658812D01*
X145475168Y-63657294D01*
X145472878Y-63655853D01*
X145470794Y-63654142D01*
X145468941Y-63653374D01*
X145462559Y-63649357D01*
X145367321Y-63601739D01*
X145353407Y-63596414D01*
X145350683Y-63596220D01*
X145348160Y-63595175D01*
X145333333Y-63593715D01*
X144952381Y-63593715D01*
X144937554Y-63595175D01*
X144910158Y-63606523D01*
X144889189Y-63627492D01*
X144877841Y-63654888D01*
X144876381Y-63669715D01*
X144582670Y-63669715D01*
X144561446Y-63651308D01*
X144547842Y-63645234D01*
X144404985Y-63597615D01*
X144397633Y-63595943D01*
X144395779Y-63595175D01*
X144393093Y-63594910D01*
X144390457Y-63594311D01*
X144388452Y-63594453D01*
X144380952Y-63593715D01*
X144142857Y-63593715D01*
X144128030Y-63595175D01*
X144125506Y-63596220D01*
X144122783Y-63596414D01*
X144108868Y-63601739D01*
X144013631Y-63649358D01*
X144007252Y-63653372D01*
X144005395Y-63654142D01*
X144003306Y-63655856D01*
X144001022Y-63657294D01*
X143999706Y-63658811D01*
X143993879Y-63663594D01*
X143946260Y-63711213D01*
X143941478Y-63717039D01*
X143939960Y-63718356D01*
X143938519Y-63720645D01*
X143936808Y-63722730D01*
X143936040Y-63724582D01*
X143932023Y-63730965D01*
X143884405Y-63826203D01*
X143879080Y-63840117D01*
X143878886Y-63842840D01*
X143877841Y-63845364D01*
X143876381Y-63860191D01*
X143599809Y-63860191D01*
X143599809Y-63669715D01*
X143598349Y-63654888D01*
X143587001Y-63627492D01*
X143566032Y-63606523D01*
X143538636Y-63595175D01*
X143508982Y-63595175D01*
X143481586Y-63606523D01*
X143460617Y-63627492D01*
X143449269Y-63654888D01*
X143447809Y-63669715D01*
X143447809Y-64383531D01*
X143018367Y-63632008D01*
X143016149Y-63628883D01*
X143015573Y-63627492D01*
X143014155Y-63626074D01*
X143009744Y-63619859D01*
X143001747Y-63613666D01*
X142994604Y-63606523D01*
X142990130Y-63604669D01*
X142986299Y-63601703D01*
X142976548Y-63599043D01*
X142967208Y-63595175D01*
X142962361Y-63595175D01*
X142957689Y-63593901D01*
X142947666Y-63595175D01*
X142937554Y-63595175D01*
X142933077Y-63597029D01*
X142928272Y-63597640D01*
X142919493Y-63602655D01*
X142910158Y-63606523D01*
X142906734Y-63609946D01*
X142902525Y-63612352D01*
X142896332Y-63620348D01*
X142889189Y-63627492D01*
X142887335Y-63631965D01*
X142884369Y-63635797D01*
X142881709Y-63645547D01*
X142877841Y-63654888D01*
X142877093Y-63662474D01*
X142876567Y-63664407D01*
X142876756Y-63665899D01*
X142876381Y-63669715D01*
X142582670Y-63669715D01*
X142561446Y-63651308D01*
X142547842Y-63645234D01*
X142404985Y-63597615D01*
X142397633Y-63595943D01*
X142395779Y-63595175D01*
X142393093Y-63594910D01*
X142390457Y-63594311D01*
X142388452Y-63594453D01*
X142380952Y-63593715D01*
X142142857Y-63593715D01*
X142128030Y-63595175D01*
X142125506Y-63596220D01*
X142122783Y-63596414D01*
X142108868Y-63601739D01*
X142013631Y-63649358D01*
X142007252Y-63653372D01*
X142005395Y-63654142D01*
X142003306Y-63655856D01*
X142001022Y-63657294D01*
X141999706Y-63658811D01*
X141993879Y-63663594D01*
X141946260Y-63711213D01*
X141941478Y-63717039D01*
X141939960Y-63718356D01*
X141938519Y-63720645D01*
X141936808Y-63722730D01*
X141936040Y-63724582D01*
X141932023Y-63730965D01*
X141884405Y-63826203D01*
X141879080Y-63840117D01*
X141878886Y-63842840D01*
X141877841Y-63845364D01*
X141876381Y-63860191D01*
X140821499Y-63860191D01*
X140920378Y-63711872D01*
X140927388Y-63698726D01*
X140933142Y-63669636D01*
X140927326Y-63640557D01*
X140910826Y-63615919D01*
X140886152Y-63599469D01*
X140857063Y-63593715D01*
X140827984Y-63599531D01*
X140803345Y-63616031D01*
X140793906Y-63627558D01*
X140523809Y-64032703D01*
X140253712Y-63627558D01*
X140244273Y-63616031D01*
X140219634Y-63599531D01*
X140190555Y-63593715D01*
X140161465Y-63599469D01*
X140136792Y-63615918D01*
X140120292Y-63640557D01*
X140114476Y-63669636D01*
X139774067Y-63669636D01*
X139768025Y-63663594D01*
X139762198Y-63658812D01*
X139760882Y-63657294D01*
X139758592Y-63655853D01*
X139756508Y-63654142D01*
X139754655Y-63653374D01*
X139748273Y-63649357D01*
X139653035Y-63601739D01*
X139639121Y-63596414D01*
X139636397Y-63596220D01*
X139633874Y-63595175D01*
X139619047Y-63593715D01*
X139428571Y-63593715D01*
X139413744Y-63595175D01*
X139411220Y-63596220D01*
X139408497Y-63596414D01*
X139394582Y-63601739D01*
X139299345Y-63649358D01*
X139292964Y-63653373D01*
X139291110Y-63654142D01*
X139289024Y-63655853D01*
X139286736Y-63657294D01*
X139285418Y-63658812D01*
X139279593Y-63663594D01*
X139184355Y-63758832D01*
X139174903Y-63770349D01*
X139172740Y-63775569D01*
X139169377Y-63780109D01*
X139164364Y-63794139D01*
X139116745Y-63984615D01*
X139116365Y-63987185D01*
X139115936Y-63988221D01*
X139115385Y-63993809D01*
X139114566Y-63999354D01*
X139114730Y-64000461D01*
X139114476Y-64003048D01*
X138885523Y-64003048D01*
X138885523Y-63860191D01*
X138884063Y-63845364D01*
X138883017Y-63842840D01*
X138882824Y-63840117D01*
X138877499Y-63826202D01*
X138829880Y-63730965D01*
X138825865Y-63724586D01*
X138825096Y-63722729D01*
X138823381Y-63720640D01*
X138821944Y-63718356D01*
X138820426Y-63717040D01*
X138815644Y-63711213D01*
X138768025Y-63663594D01*
X138762198Y-63658812D01*
X138760882Y-63657294D01*
X138758592Y-63655853D01*
X138756508Y-63654142D01*
X138754655Y-63653374D01*
X138748273Y-63649357D01*
X138653035Y-63601739D01*
X138639121Y-63596414D01*
X138636397Y-63596220D01*
X138633874Y-63595175D01*
X138619047Y-63593715D01*
X138238095Y-63593715D01*
X138223268Y-63595175D01*
X138195872Y-63606523D01*
X138174903Y-63627492D01*
X138163555Y-63654888D01*
X138162095Y-63669715D01*
X137774146Y-63669715D01*
X137768025Y-63663594D01*
X137762198Y-63658812D01*
X137760882Y-63657294D01*
X137758592Y-63655853D01*
X137756508Y-63654142D01*
X137754655Y-63653374D01*
X137748273Y-63649357D01*
X137653035Y-63601739D01*
X137639121Y-63596414D01*
X137636397Y-63596220D01*
X137633874Y-63595175D01*
X137619047Y-63593715D01*
X137238095Y-63593715D01*
X137223268Y-63595175D01*
X137195872Y-63606523D01*
X137174903Y-63627492D01*
X137163555Y-63654888D01*
X137162095Y-63669715D01*
X137050984Y-63669715D01*
X137050984Y-63482604D01*
X145710920Y-63482604D01*
X145710920Y-64952064D01*
G37*
X120717334Y-72538095D02*
X120669715Y-72633333D01*
X120669715Y-72633333D02*
X120669715Y-72776190D01*
X120669715Y-72776190D02*
X120717334Y-72919047D01*
X120717334Y-72919047D02*
X120812572Y-73014285D01*
X120812572Y-73014285D02*
X120907810Y-73061904D01*
X120907810Y-73061904D02*
X121098286Y-73109523D01*
X121098286Y-73109523D02*
X121241143Y-73109523D01*
X121241143Y-73109523D02*
X121431619Y-73061904D01*
X121431619Y-73061904D02*
X121526857Y-73014285D01*
X121526857Y-73014285D02*
X121622096Y-72919047D01*
X121622096Y-72919047D02*
X121669715Y-72776190D01*
X121669715Y-72776190D02*
X121669715Y-72680952D01*
X121669715Y-72680952D02*
X121622096Y-72538095D01*
X121622096Y-72538095D02*
X121574476Y-72490476D01*
X121574476Y-72490476D02*
X121241143Y-72490476D01*
X121241143Y-72490476D02*
X121241143Y-72680952D01*
X121669715Y-72061904D02*
X120669715Y-72061904D01*
X120669715Y-72061904D02*
X121669715Y-71490476D01*
X121669715Y-71490476D02*
X120669715Y-71490476D01*
X121669715Y-71014285D02*
X120669715Y-71014285D01*
X120669715Y-71014285D02*
X120669715Y-70776190D01*
X120669715Y-70776190D02*
X120717334Y-70633333D01*
X120717334Y-70633333D02*
X120812572Y-70538095D01*
X120812572Y-70538095D02*
X120907810Y-70490476D01*
X120907810Y-70490476D02*
X121098286Y-70442857D01*
X121098286Y-70442857D02*
X121241143Y-70442857D01*
X121241143Y-70442857D02*
X121431619Y-70490476D01*
X121431619Y-70490476D02*
X121526857Y-70538095D01*
X121526857Y-70538095D02*
X121622096Y-70633333D01*
X121622096Y-70633333D02*
X121669715Y-70776190D01*
X121669715Y-70776190D02*
X121669715Y-71014285D01*
X111848571Y-117643524D02*
X111848571Y-118119715D01*
X111515238Y-117119715D02*
X111848571Y-117643524D01*
X111848571Y-117643524D02*
X112181904Y-117119715D01*
X112515238Y-117595905D02*
X112848571Y-117595905D01*
X112991428Y-118119715D02*
X112515238Y-118119715D01*
X112515238Y-118119715D02*
X112515238Y-117119715D01*
X112515238Y-117119715D02*
X112991428Y-117119715D01*
X113896190Y-118119715D02*
X113420000Y-118119715D01*
X113420000Y-118119715D02*
X113420000Y-117119715D01*
X114705714Y-118119715D02*
X114229524Y-118119715D01*
X114229524Y-118119715D02*
X114229524Y-117119715D01*
X115229524Y-117119715D02*
X115420000Y-117119715D01*
X115420000Y-117119715D02*
X115515238Y-117167334D01*
X115515238Y-117167334D02*
X115610476Y-117262572D01*
X115610476Y-117262572D02*
X115658095Y-117453048D01*
X115658095Y-117453048D02*
X115658095Y-117786381D01*
X115658095Y-117786381D02*
X115610476Y-117976857D01*
X115610476Y-117976857D02*
X115515238Y-118072096D01*
X115515238Y-118072096D02*
X115420000Y-118119715D01*
X115420000Y-118119715D02*
X115229524Y-118119715D01*
X115229524Y-118119715D02*
X115134286Y-118072096D01*
X115134286Y-118072096D02*
X115039048Y-117976857D01*
X115039048Y-117976857D02*
X114991429Y-117786381D01*
X114991429Y-117786381D02*
X114991429Y-117453048D01*
X114991429Y-117453048D02*
X115039048Y-117262572D01*
X115039048Y-117262572D02*
X115134286Y-117167334D01*
X115134286Y-117167334D02*
X115229524Y-117119715D01*
X115991429Y-117119715D02*
X116229524Y-118119715D01*
X116229524Y-118119715D02*
X116420000Y-117405429D01*
X116420000Y-117405429D02*
X116610476Y-118119715D01*
X116610476Y-118119715D02*
X116848572Y-117119715D01*
D11*
G36*
X167834246Y-85797024D02*
G01*
X167858915Y-85821692D01*
X167888720Y-85881302D01*
X167888720Y-85976945D01*
X167858915Y-86036554D01*
X167834246Y-86061222D01*
X167774637Y-86091028D01*
X167517292Y-86091028D01*
X167517292Y-85767219D01*
X167774637Y-85767219D01*
X167834246Y-85797024D01*
G37*
G36*
X170007434Y-86878330D02*
G01*
X166158562Y-86878330D01*
X166158562Y-85667219D01*
X166269673Y-85667219D01*
X166269673Y-86667219D01*
X166271594Y-86686728D01*
X166286526Y-86722776D01*
X166314116Y-86750366D01*
X166350164Y-86765298D01*
X166389182Y-86765298D01*
X166425230Y-86750366D01*
X166452820Y-86722776D01*
X166467752Y-86686728D01*
X166469673Y-86667219D01*
X166469673Y-86043775D01*
X166854277Y-86716833D01*
X166857195Y-86720943D01*
X166857954Y-86722776D01*
X166859820Y-86724642D01*
X166865624Y-86732818D01*
X166876140Y-86740962D01*
X166885544Y-86750366D01*
X166891431Y-86752804D01*
X166896473Y-86756709D01*
X166909305Y-86760208D01*
X166921592Y-86765298D01*
X166927968Y-86765298D01*
X166934117Y-86766975D01*
X166947310Y-86765298D01*
X166960610Y-86765298D01*
X166966498Y-86762858D01*
X166972823Y-86762055D01*
X166984372Y-86755454D01*
X166996658Y-86750366D01*
X167001165Y-86745858D01*
X167006700Y-86742696D01*
X167014844Y-86732179D01*
X167024248Y-86722776D01*
X167026686Y-86716888D01*
X167030591Y-86711847D01*
X167034090Y-86699014D01*
X167039180Y-86686728D01*
X167040162Y-86676750D01*
X167040857Y-86674204D01*
X167040606Y-86672236D01*
X167041101Y-86667219D01*
X167041101Y-85667219D01*
X167317292Y-85667219D01*
X167317292Y-86667219D01*
X167319213Y-86686728D01*
X167334145Y-86722776D01*
X167361735Y-86750366D01*
X167397783Y-86765298D01*
X167436801Y-86765298D01*
X167472849Y-86750366D01*
X167500439Y-86722776D01*
X167515371Y-86686728D01*
X167517292Y-86667219D01*
X167517292Y-86291028D01*
X167603322Y-86291028D01*
X167906797Y-86724565D01*
X167919558Y-86739446D01*
X167952463Y-86760415D01*
X167990888Y-86767196D01*
X168028982Y-86758756D01*
X168060947Y-86736381D01*
X168081916Y-86703476D01*
X168088697Y-86665052D01*
X168080257Y-86626957D01*
X168070643Y-86609873D01*
X167840675Y-86281347D01*
X167842965Y-86280471D01*
X167938203Y-86232852D01*
X167946599Y-86227566D01*
X167949039Y-86226556D01*
X167951785Y-86224302D01*
X167954793Y-86222409D01*
X167956522Y-86220414D01*
X167964193Y-86214120D01*
X168011811Y-86166501D01*
X168018103Y-86158834D01*
X168020101Y-86157102D01*
X168021994Y-86154093D01*
X168024248Y-86151348D01*
X168025258Y-86148907D01*
X168030544Y-86140511D01*
X168078163Y-86045274D01*
X168085169Y-86026965D01*
X168085423Y-86023381D01*
X168086799Y-86020061D01*
X168088720Y-86000552D01*
X168088720Y-85857695D01*
X168086799Y-85838186D01*
X168085423Y-85834865D01*
X168085169Y-85831282D01*
X168078163Y-85812973D01*
X168030544Y-85717736D01*
X168025258Y-85709339D01*
X168024248Y-85706899D01*
X168021994Y-85704153D01*
X168020101Y-85701145D01*
X168018103Y-85699412D01*
X168011811Y-85691746D01*
X167987285Y-85667219D01*
X168317292Y-85667219D01*
X168317292Y-86667219D01*
X168319213Y-86686728D01*
X168334145Y-86722776D01*
X168361735Y-86750366D01*
X168397783Y-86765298D01*
X168436801Y-86765298D01*
X168472849Y-86750366D01*
X168500439Y-86722776D01*
X168515371Y-86686728D01*
X168517292Y-86667219D01*
X168517292Y-86243409D01*
X168750625Y-86243409D01*
X168770134Y-86241488D01*
X168806182Y-86226556D01*
X168833772Y-86198966D01*
X168848704Y-86162918D01*
X168848704Y-86123900D01*
X168833772Y-86087852D01*
X168806182Y-86060262D01*
X168770134Y-86045330D01*
X168750625Y-86043409D01*
X168517292Y-86043409D01*
X168517292Y-85940426D01*
X169127601Y-85940426D01*
X169130367Y-85979346D01*
X169147816Y-86014245D01*
X169177293Y-86039809D01*
X169214309Y-86052148D01*
X169253229Y-86049382D01*
X169271537Y-86042376D01*
X169366775Y-85994757D01*
X169375171Y-85989471D01*
X169377611Y-85988461D01*
X169380357Y-85986207D01*
X169383365Y-85984314D01*
X169385094Y-85982319D01*
X169392765Y-85976025D01*
X169412530Y-85956260D01*
X169412530Y-86567219D01*
X169226816Y-86567219D01*
X169207307Y-86569140D01*
X169171259Y-86584072D01*
X169143669Y-86611662D01*
X169128737Y-86647710D01*
X169128737Y-86686728D01*
X169143669Y-86722776D01*
X169171259Y-86750366D01*
X169207307Y-86765298D01*
X169226816Y-86767219D01*
X169798244Y-86767219D01*
X169817753Y-86765298D01*
X169853801Y-86750366D01*
X169881391Y-86722776D01*
X169896323Y-86686728D01*
X169896323Y-86647710D01*
X169881391Y-86611662D01*
X169853801Y-86584072D01*
X169817753Y-86569140D01*
X169798244Y-86567219D01*
X169612530Y-86567219D01*
X169612530Y-85667219D01*
X169612523Y-85667148D01*
X169612530Y-85667114D01*
X169612509Y-85667012D01*
X169610609Y-85647710D01*
X169606819Y-85638561D01*
X169604878Y-85628854D01*
X169599426Y-85620713D01*
X169595677Y-85611662D01*
X169588677Y-85604662D01*
X169583167Y-85596434D01*
X169575012Y-85590997D01*
X169568087Y-85584072D01*
X169558943Y-85580284D01*
X169550702Y-85574790D01*
X169541088Y-85572888D01*
X169532039Y-85569140D01*
X169522138Y-85569140D01*
X169512426Y-85567219D01*
X169502821Y-85569140D01*
X169493021Y-85569140D01*
X169483872Y-85572929D01*
X169474165Y-85574871D01*
X169466024Y-85580322D01*
X169456973Y-85584072D01*
X169449973Y-85591071D01*
X169441745Y-85596582D01*
X169429456Y-85611588D01*
X169429383Y-85611662D01*
X169429369Y-85611694D01*
X169429325Y-85611749D01*
X169339581Y-85746365D01*
X169262817Y-85823128D01*
X169182095Y-85863490D01*
X169165504Y-85873933D01*
X169139940Y-85903410D01*
X169127601Y-85940426D01*
X168517292Y-85940426D01*
X168517292Y-85767219D01*
X168893482Y-85767219D01*
X168912991Y-85765298D01*
X168949039Y-85750366D01*
X168976629Y-85722776D01*
X168991561Y-85686728D01*
X168991561Y-85647710D01*
X168976629Y-85611662D01*
X168949039Y-85584072D01*
X168912991Y-85569140D01*
X168893482Y-85567219D01*
X168417292Y-85567219D01*
X168397783Y-85569140D01*
X168361735Y-85584072D01*
X168334145Y-85611662D01*
X168319213Y-85647710D01*
X168317292Y-85667219D01*
X167987285Y-85667219D01*
X167964193Y-85644127D01*
X167956522Y-85637832D01*
X167954793Y-85635838D01*
X167951785Y-85633944D01*
X167949039Y-85631691D01*
X167946599Y-85630680D01*
X167938203Y-85625395D01*
X167842965Y-85577776D01*
X167824657Y-85570770D01*
X167821073Y-85570515D01*
X167817753Y-85569140D01*
X167798244Y-85567219D01*
X167417292Y-85567219D01*
X167397783Y-85569140D01*
X167361735Y-85584072D01*
X167334145Y-85611662D01*
X167319213Y-85647710D01*
X167317292Y-85667219D01*
X167041101Y-85667219D01*
X167039180Y-85647710D01*
X167024248Y-85611662D01*
X166996658Y-85584072D01*
X166960610Y-85569140D01*
X166921592Y-85569140D01*
X166885544Y-85584072D01*
X166857954Y-85611662D01*
X166843022Y-85647710D01*
X166841101Y-85667219D01*
X166841101Y-86290662D01*
X166456497Y-85617605D01*
X166453578Y-85613494D01*
X166452820Y-85611662D01*
X166450953Y-85609795D01*
X166445150Y-85601620D01*
X166434635Y-85593477D01*
X166425230Y-85584072D01*
X166419339Y-85581632D01*
X166414301Y-85577730D01*
X166401472Y-85574231D01*
X166389182Y-85569140D01*
X166382807Y-85569140D01*
X166376658Y-85567463D01*
X166363465Y-85569140D01*
X166350164Y-85569140D01*
X166344275Y-85571579D01*
X166337951Y-85572383D01*
X166326401Y-85578983D01*
X166314116Y-85584072D01*
X166309608Y-85588579D01*
X166304074Y-85591742D01*
X166295931Y-85602256D01*
X166286526Y-85611662D01*
X166284086Y-85617552D01*
X166280184Y-85622591D01*
X166276685Y-85635419D01*
X166271594Y-85647710D01*
X166270611Y-85657687D01*
X166269917Y-85660234D01*
X166270167Y-85662201D01*
X166269673Y-85667219D01*
X166158562Y-85667219D01*
X166158562Y-85456108D01*
X170007434Y-85456108D01*
X170007434Y-86878330D01*
G37*
G36*
X165532780Y-124274637D02*
G01*
X165502975Y-124334246D01*
X165478306Y-124358914D01*
X165418697Y-124388720D01*
X165323054Y-124388720D01*
X165263444Y-124358915D01*
X165238776Y-124334246D01*
X165208971Y-124274636D01*
X165208971Y-124017292D01*
X165532780Y-124017292D01*
X165532780Y-124274637D01*
G37*
G36*
X165843891Y-126509355D02*
G01*
X164421669Y-126509355D01*
X164421669Y-125822054D01*
X164532780Y-125822054D01*
X164532780Y-126107768D01*
X164534701Y-126127277D01*
X164536076Y-126130596D01*
X164536331Y-126134182D01*
X164543338Y-126152490D01*
X164590958Y-126247728D01*
X164596242Y-126256123D01*
X164597253Y-126258563D01*
X164599506Y-126261308D01*
X164601401Y-126264319D01*
X164603397Y-126266050D01*
X164609689Y-126273717D01*
X164657308Y-126321335D01*
X164664974Y-126327627D01*
X164666707Y-126329625D01*
X164669715Y-126331518D01*
X164672461Y-126333772D01*
X164674901Y-126334782D01*
X164683298Y-126340068D01*
X164778535Y-126387687D01*
X164796844Y-126394693D01*
X164800427Y-126394947D01*
X164803748Y-126396323D01*
X164823257Y-126398244D01*
X165061352Y-126398244D01*
X165080861Y-126396323D01*
X165084181Y-126394947D01*
X165087765Y-126394693D01*
X165106073Y-126387687D01*
X165201311Y-126340068D01*
X165209707Y-126334782D01*
X165212147Y-126333772D01*
X165214893Y-126331518D01*
X165217901Y-126329625D01*
X165219630Y-126327630D01*
X165227301Y-126321336D01*
X165274919Y-126273717D01*
X165281211Y-126266050D01*
X165283209Y-126264318D01*
X165285102Y-126261309D01*
X165287356Y-126258564D01*
X165288366Y-126256123D01*
X165293652Y-126247727D01*
X165333076Y-126168879D01*
X165566930Y-126373502D01*
X165575363Y-126379531D01*
X165577223Y-126381391D01*
X165578986Y-126382121D01*
X165582877Y-126384903D01*
X165598265Y-126390107D01*
X165613271Y-126396323D01*
X165616645Y-126396323D01*
X165619838Y-126397403D01*
X165636041Y-126396323D01*
X165652289Y-126396323D01*
X165655404Y-126395032D01*
X165658770Y-126394808D01*
X165673335Y-126387605D01*
X165688337Y-126381391D01*
X165690720Y-126379007D01*
X165693745Y-126377512D01*
X165704449Y-126365278D01*
X165715927Y-126353801D01*
X165717216Y-126350687D01*
X165719439Y-126348148D01*
X165724644Y-126332756D01*
X165730859Y-126317753D01*
X165731327Y-126312993D01*
X165731939Y-126311186D01*
X165731764Y-126308561D01*
X165732780Y-126298244D01*
X165732780Y-125679197D01*
X165730859Y-125659688D01*
X165715927Y-125623640D01*
X165688337Y-125596050D01*
X165652289Y-125581118D01*
X165613271Y-125581118D01*
X165577223Y-125596050D01*
X165549633Y-125623640D01*
X165534701Y-125659688D01*
X165532780Y-125679197D01*
X165532780Y-126077866D01*
X165317678Y-125889653D01*
X165309244Y-125883623D01*
X165307385Y-125881764D01*
X165305621Y-125881033D01*
X165301731Y-125878252D01*
X165286342Y-125873047D01*
X165271337Y-125866832D01*
X165267963Y-125866832D01*
X165264770Y-125865752D01*
X165248567Y-125866832D01*
X165232319Y-125866832D01*
X165229203Y-125868122D01*
X165225838Y-125868347D01*
X165211277Y-125875547D01*
X165196271Y-125881764D01*
X165193886Y-125884148D01*
X165190863Y-125885644D01*
X165180165Y-125897869D01*
X165168681Y-125909354D01*
X165167390Y-125912468D01*
X165165169Y-125915008D01*
X165159964Y-125930396D01*
X165153749Y-125945402D01*
X165153280Y-125950161D01*
X165152669Y-125951969D01*
X165152843Y-125954593D01*
X165151828Y-125964911D01*
X165151828Y-126084161D01*
X165122023Y-126143770D01*
X165097354Y-126168438D01*
X165037745Y-126198244D01*
X164846864Y-126198244D01*
X164787254Y-126168439D01*
X164762583Y-126143768D01*
X164732780Y-126084161D01*
X164732780Y-125845660D01*
X164762583Y-125786053D01*
X164798729Y-125749908D01*
X164811166Y-125734755D01*
X164826097Y-125698706D01*
X164826097Y-125659688D01*
X164811166Y-125623640D01*
X164783576Y-125596050D01*
X164747528Y-125581119D01*
X164708510Y-125581119D01*
X164672461Y-125596050D01*
X164657308Y-125608487D01*
X164609689Y-125656105D01*
X164603397Y-125663771D01*
X164601401Y-125665503D01*
X164599506Y-125668513D01*
X164597253Y-125671259D01*
X164596242Y-125673698D01*
X164590958Y-125682094D01*
X164543338Y-125777332D01*
X164536331Y-125795640D01*
X164536076Y-125799225D01*
X164534701Y-125802545D01*
X164532780Y-125822054D01*
X164421669Y-125822054D01*
X164421669Y-124897783D01*
X164534701Y-124897783D01*
X164534701Y-124936801D01*
X164549633Y-124972849D01*
X164577223Y-125000439D01*
X164613271Y-125015371D01*
X164632780Y-125017292D01*
X165056590Y-125017292D01*
X165056590Y-125250625D01*
X165058511Y-125270134D01*
X165073443Y-125306182D01*
X165101033Y-125333772D01*
X165137081Y-125348704D01*
X165176099Y-125348704D01*
X165212147Y-125333772D01*
X165239737Y-125306182D01*
X165254669Y-125270134D01*
X165256590Y-125250625D01*
X165256590Y-125017292D01*
X165532780Y-125017292D01*
X165532780Y-125393482D01*
X165534701Y-125412991D01*
X165549633Y-125449039D01*
X165577223Y-125476629D01*
X165613271Y-125491561D01*
X165652289Y-125491561D01*
X165688337Y-125476629D01*
X165715927Y-125449039D01*
X165730859Y-125412991D01*
X165732780Y-125393482D01*
X165732780Y-124917292D01*
X165730859Y-124897783D01*
X165715927Y-124861735D01*
X165688337Y-124834145D01*
X165652289Y-124819213D01*
X165632780Y-124817292D01*
X164632780Y-124817292D01*
X164613271Y-124819213D01*
X164577223Y-124834145D01*
X164549633Y-124861735D01*
X164534701Y-124897783D01*
X164421669Y-124897783D01*
X164421669Y-124490888D01*
X164532803Y-124490888D01*
X164541243Y-124528982D01*
X164563618Y-124560947D01*
X164596523Y-124581916D01*
X164634948Y-124588697D01*
X164673042Y-124580257D01*
X164690126Y-124570643D01*
X165018651Y-124340675D01*
X165019528Y-124342965D01*
X165067147Y-124438203D01*
X165072432Y-124446599D01*
X165073443Y-124449039D01*
X165075696Y-124451785D01*
X165077590Y-124454793D01*
X165079584Y-124456522D01*
X165085879Y-124464193D01*
X165133498Y-124511811D01*
X165141164Y-124518103D01*
X165142897Y-124520101D01*
X165145905Y-124521994D01*
X165148651Y-124524248D01*
X165151091Y-124525258D01*
X165159488Y-124530544D01*
X165254725Y-124578163D01*
X165273034Y-124585169D01*
X165276617Y-124585423D01*
X165279938Y-124586799D01*
X165299447Y-124588720D01*
X165442304Y-124588720D01*
X165461813Y-124586799D01*
X165465133Y-124585423D01*
X165468717Y-124585169D01*
X165487025Y-124578163D01*
X165582263Y-124530544D01*
X165590659Y-124525258D01*
X165593099Y-124524248D01*
X165595845Y-124521994D01*
X165598853Y-124520101D01*
X165600582Y-124518106D01*
X165608253Y-124511812D01*
X165655871Y-124464193D01*
X165662163Y-124456526D01*
X165664161Y-124454794D01*
X165666054Y-124451785D01*
X165668308Y-124449040D01*
X165669318Y-124446599D01*
X165674604Y-124438203D01*
X165722223Y-124342966D01*
X165729229Y-124324657D01*
X165729483Y-124321073D01*
X165730859Y-124317753D01*
X165732780Y-124298244D01*
X165732780Y-123917292D01*
X165730859Y-123897783D01*
X165715927Y-123861735D01*
X165688337Y-123834145D01*
X165652289Y-123819213D01*
X165632780Y-123817292D01*
X164632780Y-123817292D01*
X164613271Y-123819213D01*
X164577223Y-123834145D01*
X164549633Y-123861735D01*
X164534701Y-123897783D01*
X164534701Y-123936801D01*
X164549633Y-123972849D01*
X164577223Y-124000439D01*
X164613271Y-124015371D01*
X164632780Y-124017292D01*
X165008971Y-124017292D01*
X165008971Y-124103321D01*
X164575434Y-124406797D01*
X164560553Y-124419558D01*
X164539584Y-124452463D01*
X164532803Y-124490888D01*
X164421669Y-124490888D01*
X164421669Y-123434116D01*
X164533024Y-123434116D01*
X164534701Y-123447309D01*
X164534701Y-123460610D01*
X164537140Y-123466498D01*
X164537944Y-123472823D01*
X164544544Y-123484372D01*
X164549633Y-123496658D01*
X164554140Y-123501165D01*
X164557303Y-123506700D01*
X164567817Y-123514842D01*
X164577223Y-123524248D01*
X164583113Y-123526687D01*
X164588152Y-123530590D01*
X164600980Y-123534088D01*
X164613271Y-123539180D01*
X164623248Y-123540162D01*
X164625795Y-123540857D01*
X164627762Y-123540606D01*
X164632780Y-123541101D01*
X165632780Y-123541101D01*
X165652289Y-123539180D01*
X165688337Y-123524248D01*
X165715927Y-123496658D01*
X165730859Y-123460610D01*
X165730859Y-123421592D01*
X165715927Y-123385544D01*
X165688337Y-123357954D01*
X165652289Y-123343022D01*
X165632780Y-123341101D01*
X165009336Y-123341101D01*
X165682394Y-122956497D01*
X165686504Y-122953578D01*
X165688337Y-122952820D01*
X165690203Y-122950953D01*
X165698379Y-122945150D01*
X165706523Y-122934633D01*
X165715927Y-122925230D01*
X165718365Y-122919342D01*
X165722270Y-122914301D01*
X165725769Y-122901468D01*
X165730859Y-122889182D01*
X165730859Y-122882806D01*
X165732536Y-122876657D01*
X165730859Y-122863463D01*
X165730859Y-122850164D01*
X165728419Y-122844275D01*
X165727616Y-122837951D01*
X165721015Y-122826401D01*
X165715927Y-122814116D01*
X165711419Y-122809608D01*
X165708257Y-122804074D01*
X165697740Y-122795929D01*
X165688337Y-122786526D01*
X165682449Y-122784087D01*
X165677408Y-122780183D01*
X165664575Y-122776683D01*
X165652289Y-122771594D01*
X165642311Y-122770611D01*
X165639765Y-122769917D01*
X165637797Y-122770167D01*
X165632780Y-122769673D01*
X164632780Y-122769673D01*
X164613271Y-122771594D01*
X164577223Y-122786526D01*
X164549633Y-122814116D01*
X164534701Y-122850164D01*
X164534701Y-122889182D01*
X164549633Y-122925230D01*
X164577223Y-122952820D01*
X164613271Y-122967752D01*
X164632780Y-122969673D01*
X165256224Y-122969673D01*
X164583166Y-123354277D01*
X164579055Y-123357195D01*
X164577223Y-123357954D01*
X164575356Y-123359820D01*
X164567181Y-123365624D01*
X164559038Y-123376138D01*
X164549633Y-123385544D01*
X164547193Y-123391434D01*
X164543291Y-123396473D01*
X164539792Y-123409301D01*
X164534701Y-123421592D01*
X164534701Y-123427967D01*
X164533024Y-123434116D01*
X164421669Y-123434116D01*
X164421669Y-122658562D01*
X165843891Y-122658562D01*
X165843891Y-126509355D01*
G37*
D10*
X121869715Y-123757142D02*
X121869715Y-123138095D01*
X121869715Y-123138095D02*
X122250667Y-123471428D01*
X122250667Y-123471428D02*
X122250667Y-123328571D01*
X122250667Y-123328571D02*
X122298286Y-123233333D01*
X122298286Y-123233333D02*
X122345905Y-123185714D01*
X122345905Y-123185714D02*
X122441143Y-123138095D01*
X122441143Y-123138095D02*
X122679238Y-123138095D01*
X122679238Y-123138095D02*
X122774476Y-123185714D01*
X122774476Y-123185714D02*
X122822096Y-123233333D01*
X122822096Y-123233333D02*
X122869715Y-123328571D01*
X122869715Y-123328571D02*
X122869715Y-123614285D01*
X122869715Y-123614285D02*
X122822096Y-123709523D01*
X122822096Y-123709523D02*
X122774476Y-123757142D01*
X122774476Y-122709523D02*
X122822096Y-122661904D01*
X122822096Y-122661904D02*
X122869715Y-122709523D01*
X122869715Y-122709523D02*
X122822096Y-122757142D01*
X122822096Y-122757142D02*
X122774476Y-122709523D01*
X122774476Y-122709523D02*
X122869715Y-122709523D01*
X121869715Y-122328571D02*
X121869715Y-121709524D01*
X121869715Y-121709524D02*
X122250667Y-122042857D01*
X122250667Y-122042857D02*
X122250667Y-121900000D01*
X122250667Y-121900000D02*
X122298286Y-121804762D01*
X122298286Y-121804762D02*
X122345905Y-121757143D01*
X122345905Y-121757143D02*
X122441143Y-121709524D01*
X122441143Y-121709524D02*
X122679238Y-121709524D01*
X122679238Y-121709524D02*
X122774476Y-121757143D01*
X122774476Y-121757143D02*
X122822096Y-121804762D01*
X122822096Y-121804762D02*
X122869715Y-121900000D01*
X122869715Y-121900000D02*
X122869715Y-122185714D01*
X122869715Y-122185714D02*
X122822096Y-122280952D01*
X122822096Y-122280952D02*
X122774476Y-122328571D01*
X121869715Y-121423809D02*
X122869715Y-121090476D01*
X122869715Y-121090476D02*
X121869715Y-120757143D01*
D11*
G36*
X121981504Y-57563012D02*
G01*
X121683446Y-57463660D01*
X121981504Y-57364307D01*
X121981504Y-57563012D01*
G37*
G36*
X121736554Y-54783941D02*
G01*
X121761223Y-54808609D01*
X121791028Y-54868219D01*
X121791028Y-55125564D01*
X121467219Y-55125564D01*
X121467219Y-54868219D01*
X121497024Y-54808609D01*
X121521692Y-54783940D01*
X121581302Y-54754136D01*
X121676945Y-54754136D01*
X121736554Y-54783941D01*
G37*
G36*
X122578330Y-61389056D02*
G01*
X121156108Y-61389056D01*
X121156108Y-60749374D01*
X121267219Y-60749374D01*
X121267219Y-60987469D01*
X121269140Y-61006978D01*
X121270515Y-61010298D01*
X121270770Y-61013882D01*
X121277776Y-61032190D01*
X121325395Y-61127428D01*
X121330680Y-61135824D01*
X121331691Y-61138264D01*
X121333944Y-61141010D01*
X121335838Y-61144018D01*
X121337832Y-61145747D01*
X121344127Y-61153418D01*
X121391746Y-61201036D01*
X121399412Y-61207328D01*
X121401145Y-61209326D01*
X121404153Y-61211219D01*
X121406899Y-61213473D01*
X121409339Y-61214483D01*
X121417736Y-61219769D01*
X121512973Y-61267388D01*
X121531282Y-61274394D01*
X121534865Y-61274648D01*
X121538186Y-61276024D01*
X121557695Y-61277945D01*
X121652933Y-61277945D01*
X121672442Y-61276024D01*
X121675762Y-61274648D01*
X121679346Y-61274394D01*
X121697654Y-61267388D01*
X121792892Y-61219769D01*
X121801288Y-61214483D01*
X121803728Y-61213473D01*
X121806474Y-61211219D01*
X121809482Y-61209326D01*
X121811211Y-61207331D01*
X121818882Y-61201037D01*
X121866500Y-61153418D01*
X121872792Y-61145751D01*
X121874790Y-61144019D01*
X121876683Y-61141010D01*
X121878937Y-61138265D01*
X121879947Y-61135824D01*
X121885233Y-61127428D01*
X121932852Y-61032191D01*
X121933398Y-61030762D01*
X121933828Y-61030183D01*
X121936749Y-61022006D01*
X121939858Y-61013882D01*
X121939909Y-61013161D01*
X121940423Y-61011723D01*
X121985379Y-60831897D01*
X122020833Y-60760990D01*
X122045501Y-60736321D01*
X122105111Y-60706517D01*
X122153135Y-60706517D01*
X122212746Y-60736323D01*
X122237414Y-60760990D01*
X122267219Y-60820600D01*
X122267219Y-61018861D01*
X122224732Y-61146322D01*
X122220385Y-61165438D01*
X122223151Y-61204358D01*
X122240601Y-61239257D01*
X122270077Y-61264822D01*
X122307093Y-61277160D01*
X122346013Y-61274394D01*
X122380912Y-61256944D01*
X122406477Y-61227468D01*
X122414468Y-61209568D01*
X122462087Y-61066711D01*
X122464286Y-61057038D01*
X122465298Y-61054597D01*
X122465646Y-61051059D01*
X122466434Y-61047596D01*
X122466246Y-61044961D01*
X122467219Y-61035088D01*
X122467219Y-60796993D01*
X122465298Y-60777484D01*
X122463922Y-60774163D01*
X122463668Y-60770580D01*
X122456662Y-60752271D01*
X122409043Y-60657034D01*
X122403757Y-60648637D01*
X122402747Y-60646197D01*
X122400493Y-60643451D01*
X122398600Y-60640443D01*
X122396603Y-60638711D01*
X122390310Y-60631043D01*
X122342690Y-60583425D01*
X122335020Y-60577130D01*
X122333291Y-60575136D01*
X122330286Y-60573244D01*
X122327537Y-60570988D01*
X122325093Y-60569976D01*
X122316701Y-60564693D01*
X122221463Y-60517074D01*
X122203155Y-60510068D01*
X122199571Y-60509813D01*
X122196251Y-60508438D01*
X122176742Y-60506517D01*
X122081504Y-60506517D01*
X122061995Y-60508438D01*
X122058674Y-60509813D01*
X122055091Y-60510068D01*
X122036782Y-60517074D01*
X121941545Y-60564693D01*
X121933148Y-60569978D01*
X121930708Y-60570989D01*
X121927962Y-60573242D01*
X121924954Y-60575136D01*
X121923221Y-60577133D01*
X121915555Y-60583426D01*
X121867936Y-60631044D01*
X121861641Y-60638714D01*
X121859647Y-60640444D01*
X121857753Y-60643451D01*
X121855500Y-60646198D01*
X121854489Y-60648637D01*
X121849204Y-60657034D01*
X121801585Y-60752272D01*
X121801039Y-60753698D01*
X121800609Y-60754279D01*
X121797687Y-60762455D01*
X121794579Y-60770580D01*
X121794527Y-60771302D01*
X121794014Y-60772740D01*
X121749057Y-60952564D01*
X121713604Y-61023471D01*
X121688935Y-61048139D01*
X121629326Y-61077945D01*
X121581302Y-61077945D01*
X121521692Y-61048140D01*
X121497024Y-61023471D01*
X121467219Y-60963861D01*
X121467219Y-60765601D01*
X121509706Y-60638140D01*
X121514053Y-60619025D01*
X121511287Y-60580105D01*
X121493837Y-60545206D01*
X121464361Y-60519641D01*
X121427345Y-60507302D01*
X121388425Y-60510069D01*
X121353526Y-60527518D01*
X121327961Y-60556994D01*
X121319970Y-60574895D01*
X121272351Y-60717751D01*
X121270151Y-60727422D01*
X121269140Y-60729865D01*
X121268791Y-60733403D01*
X121268004Y-60736867D01*
X121268191Y-60739500D01*
X121267219Y-60749374D01*
X121156108Y-60749374D01*
X121156108Y-60158436D01*
X121269140Y-60158436D01*
X121269140Y-60197454D01*
X121284072Y-60233502D01*
X121311662Y-60261092D01*
X121347710Y-60276024D01*
X121367219Y-60277945D01*
X122367219Y-60277945D01*
X122386728Y-60276024D01*
X122422776Y-60261092D01*
X122450366Y-60233502D01*
X122465298Y-60197454D01*
X122465298Y-60158436D01*
X122450366Y-60122388D01*
X122422776Y-60094798D01*
X122386728Y-60079866D01*
X122367219Y-60077945D01*
X121367219Y-60077945D01*
X121347710Y-60079866D01*
X121311662Y-60094798D01*
X121284072Y-60122388D01*
X121269140Y-60158436D01*
X121156108Y-60158436D01*
X121156108Y-59273184D01*
X121267219Y-59273184D01*
X121267219Y-59416041D01*
X121268191Y-59425914D01*
X121268004Y-59428548D01*
X121268791Y-59432011D01*
X121269140Y-59435550D01*
X121270151Y-59437992D01*
X121272351Y-59447664D01*
X121319970Y-59590520D01*
X121327961Y-59608421D01*
X121330316Y-59611136D01*
X121331691Y-59614455D01*
X121344127Y-59629609D01*
X121439365Y-59724847D01*
X121447031Y-59731138D01*
X121448764Y-59733136D01*
X121451775Y-59735031D01*
X121454519Y-59737283D01*
X121456956Y-59738292D01*
X121465355Y-59743579D01*
X121560592Y-59791198D01*
X121562020Y-59791744D01*
X121562600Y-59792174D01*
X121570776Y-59795095D01*
X121578901Y-59798204D01*
X121579621Y-59798255D01*
X121581060Y-59798769D01*
X121771536Y-59846388D01*
X121774917Y-59846888D01*
X121776281Y-59847453D01*
X121783631Y-59848176D01*
X121790929Y-59849256D01*
X121792387Y-59849038D01*
X121795790Y-59849374D01*
X121938647Y-59849374D01*
X121942049Y-59849038D01*
X121943508Y-59849256D01*
X121950805Y-59848176D01*
X121958156Y-59847453D01*
X121959519Y-59846888D01*
X121962901Y-59846388D01*
X122153376Y-59798769D01*
X122154813Y-59798255D01*
X122155536Y-59798204D01*
X122163660Y-59795095D01*
X122171837Y-59792174D01*
X122172417Y-59791743D01*
X122173844Y-59791198D01*
X122269082Y-59743579D01*
X122277474Y-59738296D01*
X122279918Y-59737284D01*
X122282667Y-59735027D01*
X122285672Y-59733136D01*
X122287401Y-59731141D01*
X122295071Y-59724847D01*
X122390311Y-59629609D01*
X122402747Y-59614456D01*
X122404122Y-59611136D01*
X122406477Y-59608421D01*
X122414468Y-59590521D01*
X122462087Y-59447664D01*
X122464286Y-59437991D01*
X122465298Y-59435550D01*
X122465646Y-59432012D01*
X122466434Y-59428549D01*
X122466246Y-59425914D01*
X122467219Y-59416041D01*
X122467219Y-59320803D01*
X122466246Y-59310929D01*
X122466434Y-59308295D01*
X122465646Y-59304831D01*
X122465298Y-59301294D01*
X122464286Y-59298852D01*
X122462087Y-59289180D01*
X122414468Y-59146323D01*
X122406477Y-59128423D01*
X122404122Y-59125707D01*
X122402747Y-59122388D01*
X122390310Y-59107234D01*
X122342690Y-59059616D01*
X122327537Y-59047179D01*
X122302046Y-59036621D01*
X122291489Y-59032248D01*
X122271980Y-59030327D01*
X121938647Y-59030327D01*
X121919138Y-59032248D01*
X121883090Y-59047180D01*
X121855500Y-59074770D01*
X121840568Y-59110818D01*
X121838647Y-59130327D01*
X121838647Y-59320803D01*
X121840568Y-59340312D01*
X121855500Y-59376360D01*
X121883090Y-59403950D01*
X121919138Y-59418882D01*
X121958156Y-59418882D01*
X121994204Y-59403950D01*
X122021794Y-59376360D01*
X122036726Y-59340312D01*
X122038647Y-59320803D01*
X122038647Y-59230327D01*
X122230560Y-59230327D01*
X122232197Y-59231964D01*
X122267219Y-59337029D01*
X122267219Y-59399814D01*
X122232197Y-59504879D01*
X122165127Y-59571949D01*
X122094218Y-59607403D01*
X121926337Y-59649374D01*
X121808099Y-59649374D01*
X121640218Y-59607403D01*
X121569313Y-59571951D01*
X121502240Y-59504878D01*
X121467219Y-59399814D01*
X121467219Y-59296791D01*
X121504281Y-59222668D01*
X121511287Y-59204359D01*
X121514053Y-59165439D01*
X121501714Y-59128423D01*
X121476149Y-59098946D01*
X121441251Y-59081497D01*
X121402331Y-59078732D01*
X121365315Y-59091070D01*
X121335838Y-59116635D01*
X121325395Y-59133225D01*
X121277776Y-59228463D01*
X121270770Y-59246771D01*
X121270515Y-59250354D01*
X121269140Y-59253675D01*
X121267219Y-59273184D01*
X121156108Y-59273184D01*
X121156108Y-58694770D01*
X121267463Y-58694770D01*
X121269140Y-58707963D01*
X121269140Y-58721264D01*
X121271579Y-58727152D01*
X121272383Y-58733477D01*
X121278983Y-58745026D01*
X121284072Y-58757312D01*
X121288579Y-58761819D01*
X121291742Y-58767354D01*
X121302256Y-58775496D01*
X121311662Y-58784902D01*
X121317552Y-58787341D01*
X121322591Y-58791244D01*
X121335419Y-58794742D01*
X121347710Y-58799834D01*
X121357687Y-58800816D01*
X121360234Y-58801511D01*
X121362201Y-58801260D01*
X121367219Y-58801755D01*
X122367219Y-58801755D01*
X122386728Y-58799834D01*
X122422776Y-58784902D01*
X122450366Y-58757312D01*
X122465298Y-58721264D01*
X122465298Y-58682246D01*
X122450366Y-58646198D01*
X122422776Y-58618608D01*
X122386728Y-58603676D01*
X122367219Y-58601755D01*
X121743775Y-58601755D01*
X122416833Y-58217151D01*
X122420943Y-58214232D01*
X122422776Y-58213474D01*
X122424642Y-58211607D01*
X122432818Y-58205804D01*
X122440962Y-58195287D01*
X122450366Y-58185884D01*
X122452804Y-58179996D01*
X122456709Y-58174955D01*
X122460208Y-58162122D01*
X122465298Y-58149836D01*
X122465298Y-58143460D01*
X122466975Y-58137311D01*
X122465298Y-58124117D01*
X122465298Y-58110818D01*
X122462858Y-58104929D01*
X122462055Y-58098605D01*
X122455454Y-58087055D01*
X122450366Y-58074770D01*
X122445858Y-58070262D01*
X122442696Y-58064728D01*
X122432179Y-58056583D01*
X122422776Y-58047180D01*
X122416888Y-58044741D01*
X122411847Y-58040837D01*
X122399014Y-58037337D01*
X122386728Y-58032248D01*
X122376750Y-58031265D01*
X122374204Y-58030571D01*
X122372236Y-58030821D01*
X122367219Y-58030327D01*
X121367219Y-58030327D01*
X121347710Y-58032248D01*
X121311662Y-58047180D01*
X121284072Y-58074770D01*
X121269140Y-58110818D01*
X121269140Y-58149836D01*
X121284072Y-58185884D01*
X121311662Y-58213474D01*
X121347710Y-58228406D01*
X121367219Y-58230327D01*
X121990663Y-58230327D01*
X121317605Y-58614931D01*
X121313494Y-58617849D01*
X121311662Y-58618608D01*
X121309795Y-58620474D01*
X121301620Y-58626278D01*
X121293477Y-58636792D01*
X121284072Y-58646198D01*
X121281632Y-58652088D01*
X121277730Y-58657127D01*
X121274231Y-58669955D01*
X121269140Y-58682246D01*
X121269140Y-58688621D01*
X121267463Y-58694770D01*
X121156108Y-58694770D01*
X121156108Y-57451153D01*
X121268004Y-57451153D01*
X121268892Y-57463660D01*
X121268004Y-57476167D01*
X121270263Y-57482945D01*
X121270770Y-57490073D01*
X121276376Y-57501285D01*
X121280342Y-57513183D01*
X121285025Y-57518582D01*
X121288220Y-57524972D01*
X121297691Y-57533187D01*
X121305907Y-57542659D01*
X121312296Y-57545853D01*
X121317696Y-57550537D01*
X121335596Y-57558528D01*
X122335596Y-57891861D01*
X122354711Y-57896208D01*
X122393631Y-57893442D01*
X122428530Y-57875992D01*
X122454095Y-57846516D01*
X122466434Y-57809500D01*
X122463667Y-57770580D01*
X122446218Y-57735681D01*
X122416742Y-57710116D01*
X122398841Y-57702125D01*
X122181504Y-57629679D01*
X122181504Y-57297640D01*
X122398841Y-57225195D01*
X122416742Y-57217204D01*
X122446218Y-57191639D01*
X122463667Y-57156740D01*
X122466434Y-57117820D01*
X122454095Y-57080804D01*
X122428530Y-57051328D01*
X122393631Y-57033878D01*
X122354711Y-57031112D01*
X122335596Y-57035459D01*
X121335596Y-57368792D01*
X121317696Y-57376783D01*
X121312296Y-57381466D01*
X121305907Y-57384661D01*
X121297691Y-57394132D01*
X121288220Y-57402348D01*
X121285025Y-57408737D01*
X121280342Y-57414137D01*
X121276376Y-57426034D01*
X121270770Y-57437247D01*
X121270263Y-57444374D01*
X121268004Y-57451153D01*
X121156108Y-57451153D01*
X121156108Y-56777484D01*
X121269140Y-56777484D01*
X121269140Y-56816502D01*
X121284072Y-56852550D01*
X121311662Y-56880140D01*
X121347710Y-56895072D01*
X121367219Y-56896993D01*
X122367219Y-56896993D01*
X122386728Y-56895072D01*
X122422776Y-56880140D01*
X122450366Y-56852550D01*
X122465298Y-56816502D01*
X122467219Y-56796993D01*
X122467219Y-56320803D01*
X122465298Y-56301294D01*
X122450366Y-56265246D01*
X122422776Y-56237656D01*
X122386728Y-56222724D01*
X122347710Y-56222724D01*
X122311662Y-56237656D01*
X122284072Y-56265246D01*
X122269140Y-56301294D01*
X122267219Y-56320803D01*
X122267219Y-56696993D01*
X121367219Y-56696993D01*
X121347710Y-56698914D01*
X121311662Y-56713846D01*
X121284072Y-56741436D01*
X121269140Y-56777484D01*
X121156108Y-56777484D01*
X121156108Y-54844612D01*
X121267219Y-54844612D01*
X121267219Y-55225564D01*
X121269140Y-55245073D01*
X121284072Y-55281121D01*
X121311662Y-55308711D01*
X121347710Y-55323643D01*
X121367219Y-55325564D01*
X122367219Y-55325564D01*
X122386728Y-55323643D01*
X122422776Y-55308711D01*
X122450366Y-55281121D01*
X122465298Y-55245073D01*
X122465298Y-55206055D01*
X122450366Y-55170007D01*
X122422776Y-55142417D01*
X122386728Y-55127485D01*
X122367219Y-55125564D01*
X121991028Y-55125564D01*
X121991028Y-55039534D01*
X122424565Y-54736059D01*
X122439446Y-54723298D01*
X122460415Y-54690393D01*
X122467196Y-54651968D01*
X122458756Y-54613874D01*
X122436381Y-54581909D01*
X122403476Y-54560940D01*
X122365052Y-54554159D01*
X122326957Y-54562599D01*
X122309873Y-54572213D01*
X121981347Y-54802180D01*
X121980471Y-54799890D01*
X121932852Y-54704653D01*
X121927566Y-54696256D01*
X121926556Y-54693816D01*
X121924302Y-54691070D01*
X121922409Y-54688062D01*
X121920411Y-54686329D01*
X121914119Y-54678663D01*
X121866501Y-54631044D01*
X121858830Y-54624749D01*
X121857101Y-54622755D01*
X121854093Y-54620861D01*
X121851347Y-54618608D01*
X121848907Y-54617597D01*
X121840511Y-54612312D01*
X121745273Y-54564693D01*
X121726965Y-54557687D01*
X121723381Y-54557432D01*
X121720061Y-54556057D01*
X121700552Y-54554136D01*
X121557695Y-54554136D01*
X121538186Y-54556057D01*
X121534865Y-54557432D01*
X121531282Y-54557687D01*
X121512973Y-54564693D01*
X121417736Y-54612312D01*
X121409339Y-54617597D01*
X121406899Y-54618608D01*
X121404153Y-54620861D01*
X121401145Y-54622755D01*
X121399412Y-54624752D01*
X121391746Y-54631045D01*
X121344127Y-54678663D01*
X121337832Y-54686333D01*
X121335838Y-54688063D01*
X121333944Y-54691070D01*
X121331691Y-54693817D01*
X121330680Y-54696256D01*
X121325395Y-54704653D01*
X121277776Y-54799891D01*
X121270770Y-54818199D01*
X121270515Y-54821782D01*
X121269140Y-54825103D01*
X121267219Y-54844612D01*
X121156108Y-54844612D01*
X121156108Y-53844612D01*
X121267219Y-53844612D01*
X121267219Y-54082707D01*
X121269140Y-54102216D01*
X121270515Y-54105536D01*
X121270770Y-54109120D01*
X121277776Y-54127428D01*
X121325395Y-54222666D01*
X121330680Y-54231062D01*
X121331691Y-54233502D01*
X121333944Y-54236248D01*
X121335838Y-54239256D01*
X121337832Y-54240985D01*
X121344127Y-54248656D01*
X121391746Y-54296274D01*
X121399412Y-54302566D01*
X121401145Y-54304564D01*
X121404153Y-54306457D01*
X121406899Y-54308711D01*
X121409339Y-54309721D01*
X121417736Y-54315007D01*
X121512973Y-54362626D01*
X121531282Y-54369632D01*
X121534865Y-54369886D01*
X121538186Y-54371262D01*
X121557695Y-54373183D01*
X121652933Y-54373183D01*
X121672442Y-54371262D01*
X121675762Y-54369886D01*
X121679346Y-54369632D01*
X121697654Y-54362626D01*
X121792892Y-54315007D01*
X121801288Y-54309721D01*
X121803728Y-54308711D01*
X121806474Y-54306457D01*
X121809482Y-54304564D01*
X121811211Y-54302569D01*
X121818882Y-54296275D01*
X121866500Y-54248656D01*
X121872792Y-54240989D01*
X121874790Y-54239257D01*
X121876683Y-54236248D01*
X121878937Y-54233503D01*
X121879947Y-54231062D01*
X121885233Y-54222666D01*
X121932852Y-54127429D01*
X121933398Y-54126000D01*
X121933828Y-54125421D01*
X121936749Y-54117244D01*
X121939858Y-54109120D01*
X121939909Y-54108399D01*
X121940423Y-54106961D01*
X121985379Y-53927135D01*
X122020833Y-53856228D01*
X122045501Y-53831559D01*
X122105111Y-53801755D01*
X122153135Y-53801755D01*
X122212746Y-53831561D01*
X122237414Y-53856228D01*
X122267219Y-53915838D01*
X122267219Y-54114099D01*
X122224732Y-54241560D01*
X122220385Y-54260676D01*
X122223151Y-54299596D01*
X122240601Y-54334495D01*
X122270077Y-54360060D01*
X122307093Y-54372398D01*
X122346013Y-54369632D01*
X122380912Y-54352182D01*
X122406477Y-54322706D01*
X122414468Y-54304806D01*
X122462087Y-54161949D01*
X122464286Y-54152276D01*
X122465298Y-54149835D01*
X122465646Y-54146297D01*
X122466434Y-54142834D01*
X122466246Y-54140199D01*
X122467219Y-54130326D01*
X122467219Y-53892231D01*
X122465298Y-53872722D01*
X122463922Y-53869401D01*
X122463668Y-53865818D01*
X122456662Y-53847509D01*
X122409043Y-53752272D01*
X122403757Y-53743875D01*
X122402747Y-53741435D01*
X122400493Y-53738689D01*
X122398600Y-53735681D01*
X122396603Y-53733949D01*
X122390310Y-53726281D01*
X122342690Y-53678663D01*
X122335020Y-53672368D01*
X122333291Y-53670374D01*
X122330286Y-53668482D01*
X122327537Y-53666226D01*
X122325093Y-53665214D01*
X122316701Y-53659931D01*
X122221463Y-53612312D01*
X122203155Y-53605306D01*
X122199571Y-53605051D01*
X122196251Y-53603676D01*
X122176742Y-53601755D01*
X122081504Y-53601755D01*
X122061995Y-53603676D01*
X122058674Y-53605051D01*
X122055091Y-53605306D01*
X122036782Y-53612312D01*
X121941545Y-53659931D01*
X121933148Y-53665216D01*
X121930708Y-53666227D01*
X121927962Y-53668480D01*
X121924954Y-53670374D01*
X121923221Y-53672371D01*
X121915555Y-53678664D01*
X121867936Y-53726282D01*
X121861641Y-53733952D01*
X121859647Y-53735682D01*
X121857753Y-53738689D01*
X121855500Y-53741436D01*
X121854489Y-53743875D01*
X121849204Y-53752272D01*
X121801585Y-53847510D01*
X121801039Y-53848936D01*
X121800609Y-53849517D01*
X121797687Y-53857693D01*
X121794579Y-53865818D01*
X121794527Y-53866540D01*
X121794014Y-53867978D01*
X121749057Y-54047802D01*
X121713604Y-54118709D01*
X121688935Y-54143377D01*
X121629326Y-54173183D01*
X121581302Y-54173183D01*
X121521692Y-54143378D01*
X121497024Y-54118709D01*
X121467219Y-54059099D01*
X121467219Y-53860839D01*
X121509706Y-53733378D01*
X121514053Y-53714263D01*
X121511287Y-53675343D01*
X121493837Y-53640444D01*
X121464361Y-53614879D01*
X121427345Y-53602540D01*
X121388425Y-53605307D01*
X121353526Y-53622756D01*
X121327961Y-53652232D01*
X121319970Y-53670133D01*
X121272351Y-53812989D01*
X121270151Y-53822660D01*
X121269140Y-53825103D01*
X121268791Y-53828641D01*
X121268004Y-53832105D01*
X121268191Y-53834738D01*
X121267219Y-53844612D01*
X121156108Y-53844612D01*
X121156108Y-52844612D01*
X121267219Y-52844612D01*
X121267219Y-53416040D01*
X121269140Y-53435549D01*
X121284072Y-53471597D01*
X121311662Y-53499187D01*
X121347710Y-53514119D01*
X121386728Y-53514119D01*
X121422776Y-53499187D01*
X121450366Y-53471597D01*
X121465298Y-53435549D01*
X121467219Y-53416040D01*
X121467219Y-53230326D01*
X122367219Y-53230326D01*
X122386728Y-53228405D01*
X122422776Y-53213473D01*
X122450366Y-53185883D01*
X122465298Y-53149835D01*
X122465298Y-53110817D01*
X122450366Y-53074769D01*
X122422776Y-53047179D01*
X122386728Y-53032247D01*
X122367219Y-53030326D01*
X121467219Y-53030326D01*
X121467219Y-52844612D01*
X121465298Y-52825103D01*
X121450366Y-52789055D01*
X121422776Y-52761465D01*
X121386728Y-52746533D01*
X121347710Y-52746533D01*
X121311662Y-52761465D01*
X121284072Y-52789055D01*
X121269140Y-52825103D01*
X121267219Y-52844612D01*
X121156108Y-52844612D01*
X121156108Y-52635422D01*
X122578330Y-52635422D01*
X122578330Y-61389056D01*
G37*
D10*
X128322096Y-123709523D02*
X128369715Y-123566666D01*
X128369715Y-123566666D02*
X128369715Y-123328571D01*
X128369715Y-123328571D02*
X128322096Y-123233333D01*
X128322096Y-123233333D02*
X128274476Y-123185714D01*
X128274476Y-123185714D02*
X128179238Y-123138095D01*
X128179238Y-123138095D02*
X128084000Y-123138095D01*
X128084000Y-123138095D02*
X127988762Y-123185714D01*
X127988762Y-123185714D02*
X127941143Y-123233333D01*
X127941143Y-123233333D02*
X127893524Y-123328571D01*
X127893524Y-123328571D02*
X127845905Y-123519047D01*
X127845905Y-123519047D02*
X127798286Y-123614285D01*
X127798286Y-123614285D02*
X127750667Y-123661904D01*
X127750667Y-123661904D02*
X127655429Y-123709523D01*
X127655429Y-123709523D02*
X127560191Y-123709523D01*
X127560191Y-123709523D02*
X127464953Y-123661904D01*
X127464953Y-123661904D02*
X127417334Y-123614285D01*
X127417334Y-123614285D02*
X127369715Y-123519047D01*
X127369715Y-123519047D02*
X127369715Y-123280952D01*
X127369715Y-123280952D02*
X127417334Y-123138095D01*
X128274476Y-122138095D02*
X128322096Y-122185714D01*
X128322096Y-122185714D02*
X128369715Y-122328571D01*
X128369715Y-122328571D02*
X128369715Y-122423809D01*
X128369715Y-122423809D02*
X128322096Y-122566666D01*
X128322096Y-122566666D02*
X128226857Y-122661904D01*
X128226857Y-122661904D02*
X128131619Y-122709523D01*
X128131619Y-122709523D02*
X127941143Y-122757142D01*
X127941143Y-122757142D02*
X127798286Y-122757142D01*
X127798286Y-122757142D02*
X127607810Y-122709523D01*
X127607810Y-122709523D02*
X127512572Y-122661904D01*
X127512572Y-122661904D02*
X127417334Y-122566666D01*
X127417334Y-122566666D02*
X127369715Y-122423809D01*
X127369715Y-122423809D02*
X127369715Y-122328571D01*
X127369715Y-122328571D02*
X127417334Y-122185714D01*
X127417334Y-122185714D02*
X127464953Y-122138095D01*
X128369715Y-121233333D02*
X128369715Y-121709523D01*
X128369715Y-121709523D02*
X127369715Y-121709523D01*
D11*
G36*
X129736554Y-59426798D02*
G01*
X129761223Y-59451466D01*
X129791028Y-59511076D01*
X129791028Y-59768421D01*
X129467219Y-59768421D01*
X129467219Y-59511076D01*
X129497024Y-59451466D01*
X129521692Y-59426797D01*
X129581302Y-59396993D01*
X129676945Y-59396993D01*
X129736554Y-59426798D01*
G37*
G36*
X129981504Y-58777297D02*
G01*
X129683446Y-58677945D01*
X129981504Y-58578592D01*
X129981504Y-58777297D01*
G37*
G36*
X130094218Y-55296106D02*
G01*
X130165127Y-55331560D01*
X130232197Y-55398630D01*
X130267219Y-55503695D01*
X130267219Y-55625564D01*
X129467219Y-55625564D01*
X129467219Y-55503696D01*
X129502240Y-55398631D01*
X129569313Y-55331559D01*
X129640218Y-55296106D01*
X129808099Y-55254136D01*
X129926337Y-55254136D01*
X130094218Y-55296106D01*
G37*
G36*
X129736554Y-53807751D02*
G01*
X129761223Y-53832419D01*
X129791028Y-53892029D01*
X129791028Y-54149374D01*
X129467219Y-54149374D01*
X129467219Y-53892029D01*
X129497024Y-53832419D01*
X129521692Y-53807750D01*
X129581302Y-53777946D01*
X129676945Y-53777946D01*
X129736554Y-53807751D01*
G37*
G36*
X130578330Y-60982373D02*
G01*
X129156108Y-60982373D01*
X129156108Y-60201755D01*
X129267219Y-60201755D01*
X129267219Y-60773183D01*
X129269140Y-60792692D01*
X129284072Y-60828740D01*
X129311662Y-60856330D01*
X129347710Y-60871262D01*
X129386728Y-60871262D01*
X129422776Y-60856330D01*
X129450366Y-60828740D01*
X129465298Y-60792692D01*
X129467219Y-60773183D01*
X129467219Y-60587469D01*
X130367219Y-60587469D01*
X130386728Y-60585548D01*
X130422776Y-60570616D01*
X130450366Y-60543026D01*
X130465298Y-60506978D01*
X130465298Y-60467960D01*
X130450366Y-60431912D01*
X130422776Y-60404322D01*
X130386728Y-60389390D01*
X130367219Y-60387469D01*
X129467219Y-60387469D01*
X129467219Y-60201755D01*
X129465298Y-60182246D01*
X129450366Y-60146198D01*
X129422776Y-60118608D01*
X129386728Y-60103676D01*
X129347710Y-60103676D01*
X129311662Y-60118608D01*
X129284072Y-60146198D01*
X129269140Y-60182246D01*
X129267219Y-60201755D01*
X129156108Y-60201755D01*
X129156108Y-59487469D01*
X129267219Y-59487469D01*
X129267219Y-59868421D01*
X129269140Y-59887930D01*
X129284072Y-59923978D01*
X129311662Y-59951568D01*
X129347710Y-59966500D01*
X129367219Y-59968421D01*
X130367219Y-59968421D01*
X130386728Y-59966500D01*
X130422776Y-59951568D01*
X130450366Y-59923978D01*
X130465298Y-59887930D01*
X130465298Y-59848912D01*
X130450366Y-59812864D01*
X130422776Y-59785274D01*
X130386728Y-59770342D01*
X130367219Y-59768421D01*
X129991028Y-59768421D01*
X129991028Y-59682391D01*
X130424565Y-59378916D01*
X130439446Y-59366155D01*
X130460415Y-59333250D01*
X130467196Y-59294825D01*
X130458756Y-59256731D01*
X130436381Y-59224766D01*
X130403476Y-59203797D01*
X130365052Y-59197016D01*
X130326957Y-59205456D01*
X130309873Y-59215070D01*
X129981347Y-59445037D01*
X129980471Y-59442747D01*
X129932852Y-59347510D01*
X129927566Y-59339113D01*
X129926556Y-59336673D01*
X129924302Y-59333927D01*
X129922409Y-59330919D01*
X129920411Y-59329186D01*
X129914119Y-59321520D01*
X129866501Y-59273901D01*
X129858830Y-59267606D01*
X129857101Y-59265612D01*
X129854093Y-59263718D01*
X129851347Y-59261465D01*
X129848907Y-59260454D01*
X129840511Y-59255169D01*
X129745273Y-59207550D01*
X129726965Y-59200544D01*
X129723381Y-59200289D01*
X129720061Y-59198914D01*
X129700552Y-59196993D01*
X129557695Y-59196993D01*
X129538186Y-59198914D01*
X129534865Y-59200289D01*
X129531282Y-59200544D01*
X129512973Y-59207550D01*
X129417736Y-59255169D01*
X129409339Y-59260454D01*
X129406899Y-59261465D01*
X129404153Y-59263718D01*
X129401145Y-59265612D01*
X129399412Y-59267609D01*
X129391746Y-59273902D01*
X129344127Y-59321520D01*
X129337832Y-59329190D01*
X129335838Y-59330920D01*
X129333944Y-59333927D01*
X129331691Y-59336674D01*
X129330680Y-59339113D01*
X129325395Y-59347510D01*
X129277776Y-59442748D01*
X129270770Y-59461056D01*
X129270515Y-59464639D01*
X129269140Y-59467960D01*
X129267219Y-59487469D01*
X129156108Y-59487469D01*
X129156108Y-58665438D01*
X129268004Y-58665438D01*
X129268892Y-58677945D01*
X129268004Y-58690452D01*
X129270263Y-58697230D01*
X129270770Y-58704358D01*
X129276376Y-58715570D01*
X129280342Y-58727468D01*
X129285025Y-58732867D01*
X129288220Y-58739257D01*
X129297691Y-58747472D01*
X129305907Y-58756944D01*
X129312296Y-58760138D01*
X129317696Y-58764822D01*
X129335596Y-58772813D01*
X130335596Y-59106146D01*
X130354711Y-59110493D01*
X130393631Y-59107727D01*
X130428530Y-59090277D01*
X130454095Y-59060801D01*
X130466434Y-59023785D01*
X130463667Y-58984865D01*
X130446218Y-58949966D01*
X130416742Y-58924401D01*
X130398841Y-58916410D01*
X130181504Y-58843964D01*
X130181504Y-58511925D01*
X130398841Y-58439480D01*
X130416742Y-58431489D01*
X130446218Y-58405924D01*
X130463667Y-58371025D01*
X130466434Y-58332105D01*
X130454095Y-58295089D01*
X130428530Y-58265613D01*
X130393631Y-58248163D01*
X130354711Y-58245397D01*
X130335596Y-58249744D01*
X129335596Y-58583077D01*
X129317696Y-58591068D01*
X129312296Y-58595751D01*
X129305907Y-58598946D01*
X129297691Y-58608417D01*
X129288220Y-58616633D01*
X129285025Y-58623022D01*
X129280342Y-58628422D01*
X129276376Y-58640319D01*
X129270770Y-58651532D01*
X129270263Y-58658659D01*
X129268004Y-58665438D01*
X129156108Y-58665438D01*
X129156108Y-57991769D01*
X129269140Y-57991769D01*
X129269140Y-58030787D01*
X129284072Y-58066835D01*
X129311662Y-58094425D01*
X129347710Y-58109357D01*
X129367219Y-58111278D01*
X130367219Y-58111278D01*
X130386728Y-58109357D01*
X130422776Y-58094425D01*
X130450366Y-58066835D01*
X130465298Y-58030787D01*
X130465298Y-57991769D01*
X130450366Y-57955721D01*
X130422776Y-57928131D01*
X130386728Y-57913199D01*
X130367219Y-57911278D01*
X129367219Y-57911278D01*
X129347710Y-57913199D01*
X129311662Y-57928131D01*
X129284072Y-57955721D01*
X129269140Y-57991769D01*
X129156108Y-57991769D01*
X129156108Y-57528103D01*
X129267463Y-57528103D01*
X129269140Y-57541296D01*
X129269140Y-57554597D01*
X129271579Y-57560485D01*
X129272383Y-57566810D01*
X129278983Y-57578359D01*
X129284072Y-57590645D01*
X129288579Y-57595152D01*
X129291742Y-57600687D01*
X129302256Y-57608829D01*
X129311662Y-57618235D01*
X129317552Y-57620674D01*
X129322591Y-57624577D01*
X129335419Y-57628075D01*
X129347710Y-57633167D01*
X129357687Y-57634149D01*
X129360234Y-57634844D01*
X129362201Y-57634593D01*
X129367219Y-57635088D01*
X130367219Y-57635088D01*
X130386728Y-57633167D01*
X130422776Y-57618235D01*
X130450366Y-57590645D01*
X130465298Y-57554597D01*
X130465298Y-57515579D01*
X130450366Y-57479531D01*
X130422776Y-57451941D01*
X130386728Y-57437009D01*
X130367219Y-57435088D01*
X129743775Y-57435088D01*
X130416833Y-57050484D01*
X130420943Y-57047565D01*
X130422776Y-57046807D01*
X130424642Y-57044940D01*
X130432818Y-57039137D01*
X130440962Y-57028620D01*
X130450366Y-57019217D01*
X130452804Y-57013329D01*
X130456709Y-57008288D01*
X130460208Y-56995455D01*
X130465298Y-56983169D01*
X130465298Y-56976793D01*
X130466975Y-56970644D01*
X130465298Y-56957450D01*
X130465298Y-56944151D01*
X130462858Y-56938262D01*
X130462055Y-56931938D01*
X130455454Y-56920388D01*
X130450366Y-56908103D01*
X130445858Y-56903595D01*
X130442696Y-56898061D01*
X130432179Y-56889916D01*
X130422776Y-56880513D01*
X130416888Y-56878074D01*
X130411847Y-56874170D01*
X130399014Y-56870670D01*
X130386728Y-56865581D01*
X130376750Y-56864598D01*
X130374204Y-56863904D01*
X130372236Y-56864154D01*
X130367219Y-56863660D01*
X129367219Y-56863660D01*
X129347710Y-56865581D01*
X129311662Y-56880513D01*
X129284072Y-56908103D01*
X129269140Y-56944151D01*
X129269140Y-56983169D01*
X129284072Y-57019217D01*
X129311662Y-57046807D01*
X129347710Y-57061739D01*
X129367219Y-57063660D01*
X129990663Y-57063660D01*
X129317605Y-57448264D01*
X129313494Y-57451182D01*
X129311662Y-57451941D01*
X129309795Y-57453807D01*
X129301620Y-57459611D01*
X129293477Y-57470125D01*
X129284072Y-57479531D01*
X129281632Y-57485421D01*
X129277730Y-57490460D01*
X129274231Y-57503288D01*
X129269140Y-57515579D01*
X129269140Y-57521954D01*
X129267463Y-57528103D01*
X129156108Y-57528103D01*
X129156108Y-55487469D01*
X129267219Y-55487469D01*
X129267219Y-55725564D01*
X129269140Y-55745073D01*
X129284072Y-55781121D01*
X129311662Y-55808711D01*
X129347710Y-55823643D01*
X129367219Y-55825564D01*
X130367219Y-55825564D01*
X130386728Y-55823643D01*
X130422776Y-55808711D01*
X130450366Y-55781121D01*
X130465298Y-55745073D01*
X130467219Y-55725564D01*
X130467219Y-55487469D01*
X130466246Y-55477595D01*
X130466434Y-55474961D01*
X130465646Y-55471497D01*
X130465298Y-55467960D01*
X130464286Y-55465518D01*
X130462087Y-55455846D01*
X130414468Y-55312989D01*
X130406477Y-55295089D01*
X130404122Y-55292373D01*
X130402747Y-55289054D01*
X130390311Y-55273901D01*
X130295071Y-55178663D01*
X130287401Y-55172368D01*
X130285672Y-55170374D01*
X130282667Y-55168482D01*
X130279918Y-55166226D01*
X130277474Y-55165213D01*
X130269082Y-55159931D01*
X130173844Y-55112312D01*
X130172417Y-55111766D01*
X130171837Y-55111336D01*
X130163660Y-55108414D01*
X130155536Y-55105306D01*
X130154813Y-55105254D01*
X130153376Y-55104741D01*
X129962901Y-55057122D01*
X129959519Y-55056621D01*
X129958156Y-55056057D01*
X129950805Y-55055333D01*
X129943508Y-55054254D01*
X129942049Y-55054471D01*
X129938647Y-55054136D01*
X129795790Y-55054136D01*
X129792387Y-55054471D01*
X129790929Y-55054254D01*
X129783631Y-55055333D01*
X129776281Y-55056057D01*
X129774917Y-55056621D01*
X129771536Y-55057122D01*
X129581060Y-55104741D01*
X129579621Y-55105254D01*
X129578901Y-55105306D01*
X129570776Y-55108414D01*
X129562600Y-55111336D01*
X129562020Y-55111765D01*
X129560592Y-55112312D01*
X129465355Y-55159931D01*
X129456956Y-55165217D01*
X129454519Y-55166227D01*
X129451775Y-55168478D01*
X129448764Y-55170374D01*
X129447031Y-55172371D01*
X129439365Y-55178663D01*
X129344127Y-55273901D01*
X129331691Y-55289055D01*
X129330316Y-55292373D01*
X129327961Y-55295089D01*
X129319970Y-55312990D01*
X129272351Y-55455846D01*
X129270151Y-55465517D01*
X129269140Y-55467960D01*
X129268791Y-55471498D01*
X129268004Y-55474962D01*
X129268191Y-55477595D01*
X129267219Y-55487469D01*
X129156108Y-55487469D01*
X129156108Y-54706055D01*
X129269140Y-54706055D01*
X129269140Y-54745073D01*
X129284072Y-54781121D01*
X129311662Y-54808711D01*
X129347710Y-54823643D01*
X129367219Y-54825564D01*
X130367219Y-54825564D01*
X130386728Y-54823643D01*
X130422776Y-54808711D01*
X130450366Y-54781121D01*
X130465298Y-54745073D01*
X130465298Y-54706055D01*
X130450366Y-54670007D01*
X130422776Y-54642417D01*
X130386728Y-54627485D01*
X130367219Y-54625564D01*
X129367219Y-54625564D01*
X129347710Y-54627485D01*
X129311662Y-54642417D01*
X129284072Y-54670007D01*
X129269140Y-54706055D01*
X129156108Y-54706055D01*
X129156108Y-53868422D01*
X129267219Y-53868422D01*
X129267219Y-54249374D01*
X129269140Y-54268883D01*
X129284072Y-54304931D01*
X129311662Y-54332521D01*
X129347710Y-54347453D01*
X129367219Y-54349374D01*
X130367219Y-54349374D01*
X130386728Y-54347453D01*
X130422776Y-54332521D01*
X130450366Y-54304931D01*
X130465298Y-54268883D01*
X130465298Y-54229865D01*
X130450366Y-54193817D01*
X130422776Y-54166227D01*
X130386728Y-54151295D01*
X130367219Y-54149374D01*
X129991028Y-54149374D01*
X129991028Y-54063344D01*
X130424565Y-53759869D01*
X130439446Y-53747108D01*
X130460415Y-53714203D01*
X130467196Y-53675778D01*
X130458756Y-53637684D01*
X130436381Y-53605719D01*
X130403476Y-53584750D01*
X130365052Y-53577969D01*
X130326957Y-53586409D01*
X130309873Y-53596023D01*
X129981347Y-53825990D01*
X129980471Y-53823700D01*
X129932852Y-53728463D01*
X129927566Y-53720066D01*
X129926556Y-53717626D01*
X129924302Y-53714880D01*
X129922409Y-53711872D01*
X129920411Y-53710139D01*
X129914119Y-53702473D01*
X129866501Y-53654854D01*
X129858830Y-53648559D01*
X129857101Y-53646565D01*
X129854093Y-53644671D01*
X129851347Y-53642418D01*
X129848907Y-53641407D01*
X129840511Y-53636122D01*
X129745273Y-53588503D01*
X129726965Y-53581497D01*
X129723381Y-53581242D01*
X129720061Y-53579867D01*
X129700552Y-53577946D01*
X129557695Y-53577946D01*
X129538186Y-53579867D01*
X129534865Y-53581242D01*
X129531282Y-53581497D01*
X129512973Y-53588503D01*
X129417736Y-53636122D01*
X129409339Y-53641407D01*
X129406899Y-53642418D01*
X129404153Y-53644671D01*
X129401145Y-53646565D01*
X129399412Y-53648562D01*
X129391746Y-53654855D01*
X129344127Y-53702473D01*
X129337832Y-53710143D01*
X129335838Y-53711873D01*
X129333944Y-53714880D01*
X129331691Y-53717627D01*
X129330680Y-53720066D01*
X129325395Y-53728463D01*
X129277776Y-53823701D01*
X129270770Y-53842009D01*
X129270515Y-53845592D01*
X129269140Y-53848913D01*
X129267219Y-53868422D01*
X129156108Y-53868422D01*
X129156108Y-53466835D01*
X130578330Y-53466835D01*
X130578330Y-60982373D01*
G37*
G36*
X168034246Y-103997024D02*
G01*
X168058915Y-104021692D01*
X168088720Y-104081302D01*
X168088720Y-104176945D01*
X168058915Y-104236554D01*
X168034246Y-104261222D01*
X167974637Y-104291028D01*
X167717292Y-104291028D01*
X167717292Y-103967219D01*
X167974637Y-103967219D01*
X168034246Y-103997024D01*
G37*
G36*
X170209355Y-105078330D02*
G01*
X166358562Y-105078330D01*
X166358562Y-103867219D01*
X166469673Y-103867219D01*
X166469673Y-104867219D01*
X166471594Y-104886728D01*
X166486526Y-104922776D01*
X166514116Y-104950366D01*
X166550164Y-104965298D01*
X166589182Y-104965298D01*
X166625230Y-104950366D01*
X166652820Y-104922776D01*
X166667752Y-104886728D01*
X166669673Y-104867219D01*
X166669673Y-104243775D01*
X167054277Y-104916833D01*
X167057195Y-104920943D01*
X167057954Y-104922776D01*
X167059820Y-104924642D01*
X167065624Y-104932818D01*
X167076140Y-104940962D01*
X167085544Y-104950366D01*
X167091431Y-104952804D01*
X167096473Y-104956709D01*
X167109305Y-104960208D01*
X167121592Y-104965298D01*
X167127968Y-104965298D01*
X167134117Y-104966975D01*
X167147310Y-104965298D01*
X167160610Y-104965298D01*
X167166498Y-104962858D01*
X167172823Y-104962055D01*
X167184372Y-104955454D01*
X167196658Y-104950366D01*
X167201165Y-104945858D01*
X167206700Y-104942696D01*
X167214844Y-104932179D01*
X167224248Y-104922776D01*
X167226686Y-104916888D01*
X167230591Y-104911847D01*
X167234090Y-104899014D01*
X167239180Y-104886728D01*
X167240162Y-104876750D01*
X167240857Y-104874204D01*
X167240606Y-104872236D01*
X167241101Y-104867219D01*
X167241101Y-103867219D01*
X167517292Y-103867219D01*
X167517292Y-104867219D01*
X167519213Y-104886728D01*
X167534145Y-104922776D01*
X167561735Y-104950366D01*
X167597783Y-104965298D01*
X167636801Y-104965298D01*
X167672849Y-104950366D01*
X167700439Y-104922776D01*
X167715371Y-104886728D01*
X167717292Y-104867219D01*
X167717292Y-104491028D01*
X167803322Y-104491028D01*
X168106797Y-104924565D01*
X168119558Y-104939446D01*
X168152463Y-104960415D01*
X168190888Y-104967196D01*
X168228982Y-104958756D01*
X168260947Y-104936381D01*
X168281916Y-104903476D01*
X168288697Y-104865052D01*
X168280257Y-104826957D01*
X168270643Y-104809873D01*
X168040675Y-104481347D01*
X168042965Y-104480471D01*
X168138203Y-104432852D01*
X168146599Y-104427566D01*
X168149039Y-104426556D01*
X168151785Y-104424302D01*
X168154793Y-104422409D01*
X168156522Y-104420414D01*
X168164193Y-104414120D01*
X168211811Y-104366501D01*
X168218103Y-104358834D01*
X168220101Y-104357102D01*
X168221994Y-104354093D01*
X168224248Y-104351348D01*
X168225258Y-104348907D01*
X168230544Y-104340511D01*
X168278163Y-104245274D01*
X168285169Y-104226965D01*
X168285423Y-104223381D01*
X168286799Y-104220061D01*
X168288720Y-104200552D01*
X168288720Y-104057695D01*
X168286799Y-104038186D01*
X168285423Y-104034865D01*
X168285169Y-104031282D01*
X168278163Y-104012973D01*
X168230544Y-103917736D01*
X168225258Y-103909339D01*
X168224248Y-103906899D01*
X168221994Y-103904153D01*
X168220101Y-103901145D01*
X168218103Y-103899412D01*
X168211811Y-103891746D01*
X168187285Y-103867219D01*
X168517292Y-103867219D01*
X168517292Y-104867219D01*
X168519213Y-104886728D01*
X168534145Y-104922776D01*
X168561735Y-104950366D01*
X168597783Y-104965298D01*
X168636801Y-104965298D01*
X168672849Y-104950366D01*
X168700439Y-104922776D01*
X168715371Y-104886728D01*
X168717292Y-104867219D01*
X168717292Y-104847710D01*
X169281118Y-104847710D01*
X169281118Y-104886728D01*
X169296050Y-104922776D01*
X169323640Y-104950366D01*
X169359688Y-104965298D01*
X169379197Y-104967219D01*
X169998244Y-104967219D01*
X170017753Y-104965298D01*
X170053801Y-104950366D01*
X170081391Y-104922776D01*
X170096323Y-104886728D01*
X170096323Y-104847710D01*
X170081391Y-104811662D01*
X170053801Y-104784072D01*
X170017753Y-104769140D01*
X169998244Y-104767219D01*
X169620619Y-104767219D01*
X170021336Y-104366501D01*
X170033772Y-104351347D01*
X170035146Y-104348028D01*
X170037502Y-104345313D01*
X170045493Y-104327413D01*
X170093112Y-104184556D01*
X170095311Y-104174883D01*
X170096323Y-104172442D01*
X170096671Y-104168904D01*
X170097459Y-104165441D01*
X170097271Y-104162806D01*
X170098244Y-104152933D01*
X170098244Y-104057695D01*
X170096323Y-104038186D01*
X170094947Y-104034865D01*
X170094693Y-104031282D01*
X170087687Y-104012973D01*
X170040068Y-103917736D01*
X170034782Y-103909339D01*
X170033772Y-103906899D01*
X170031518Y-103904153D01*
X170029625Y-103901145D01*
X170027627Y-103899412D01*
X170021335Y-103891746D01*
X169973717Y-103844127D01*
X169966046Y-103837832D01*
X169964317Y-103835838D01*
X169961309Y-103833944D01*
X169958563Y-103831691D01*
X169956123Y-103830680D01*
X169947727Y-103825395D01*
X169852489Y-103777776D01*
X169834181Y-103770770D01*
X169830597Y-103770515D01*
X169827277Y-103769140D01*
X169807768Y-103767219D01*
X169569673Y-103767219D01*
X169550164Y-103769140D01*
X169546843Y-103770515D01*
X169543260Y-103770770D01*
X169524951Y-103777776D01*
X169429714Y-103825395D01*
X169421317Y-103830680D01*
X169418877Y-103831691D01*
X169416131Y-103833944D01*
X169413123Y-103835838D01*
X169411390Y-103837835D01*
X169403724Y-103844128D01*
X169356105Y-103891746D01*
X169343669Y-103906900D01*
X169328737Y-103942948D01*
X169328737Y-103981966D01*
X169343669Y-104018014D01*
X169371259Y-104045604D01*
X169407307Y-104060536D01*
X169446325Y-104060536D01*
X169482373Y-104045604D01*
X169497527Y-104033168D01*
X169533670Y-103997023D01*
X169593280Y-103967219D01*
X169784161Y-103967219D01*
X169843770Y-103997024D01*
X169868439Y-104021692D01*
X169898244Y-104081302D01*
X169898244Y-104136706D01*
X169863222Y-104241770D01*
X169308486Y-104796508D01*
X169296050Y-104811662D01*
X169281118Y-104847710D01*
X168717292Y-104847710D01*
X168717292Y-104443409D01*
X168950625Y-104443409D01*
X168970134Y-104441488D01*
X169006182Y-104426556D01*
X169033772Y-104398966D01*
X169048704Y-104362918D01*
X169048704Y-104323900D01*
X169033772Y-104287852D01*
X169006182Y-104260262D01*
X168970134Y-104245330D01*
X168950625Y-104243409D01*
X168717292Y-104243409D01*
X168717292Y-103967219D01*
X169093482Y-103967219D01*
X169112991Y-103965298D01*
X169149039Y-103950366D01*
X169176629Y-103922776D01*
X169191561Y-103886728D01*
X169191561Y-103847710D01*
X169176629Y-103811662D01*
X169149039Y-103784072D01*
X169112991Y-103769140D01*
X169093482Y-103767219D01*
X168617292Y-103767219D01*
X168597783Y-103769140D01*
X168561735Y-103784072D01*
X168534145Y-103811662D01*
X168519213Y-103847710D01*
X168517292Y-103867219D01*
X168187285Y-103867219D01*
X168164193Y-103844127D01*
X168156522Y-103837832D01*
X168154793Y-103835838D01*
X168151785Y-103833944D01*
X168149039Y-103831691D01*
X168146599Y-103830680D01*
X168138203Y-103825395D01*
X168042965Y-103777776D01*
X168024657Y-103770770D01*
X168021073Y-103770515D01*
X168017753Y-103769140D01*
X167998244Y-103767219D01*
X167617292Y-103767219D01*
X167597783Y-103769140D01*
X167561735Y-103784072D01*
X167534145Y-103811662D01*
X167519213Y-103847710D01*
X167517292Y-103867219D01*
X167241101Y-103867219D01*
X167239180Y-103847710D01*
X167224248Y-103811662D01*
X167196658Y-103784072D01*
X167160610Y-103769140D01*
X167121592Y-103769140D01*
X167085544Y-103784072D01*
X167057954Y-103811662D01*
X167043022Y-103847710D01*
X167041101Y-103867219D01*
X167041101Y-104490662D01*
X166656497Y-103817605D01*
X166653578Y-103813494D01*
X166652820Y-103811662D01*
X166650953Y-103809795D01*
X166645150Y-103801620D01*
X166634635Y-103793477D01*
X166625230Y-103784072D01*
X166619339Y-103781632D01*
X166614301Y-103777730D01*
X166601472Y-103774231D01*
X166589182Y-103769140D01*
X166582807Y-103769140D01*
X166576658Y-103767463D01*
X166563465Y-103769140D01*
X166550164Y-103769140D01*
X166544275Y-103771579D01*
X166537951Y-103772383D01*
X166526401Y-103778983D01*
X166514116Y-103784072D01*
X166509608Y-103788579D01*
X166504074Y-103791742D01*
X166495931Y-103802256D01*
X166486526Y-103811662D01*
X166484086Y-103817552D01*
X166480184Y-103822591D01*
X166476685Y-103835419D01*
X166471594Y-103847710D01*
X166470611Y-103857687D01*
X166469917Y-103860234D01*
X166470167Y-103862201D01*
X166469673Y-103867219D01*
X166358562Y-103867219D01*
X166358562Y-103656108D01*
X170209355Y-103656108D01*
X170209355Y-105078330D01*
G37*
D10*
X112681904Y-107797334D02*
X112586666Y-107749715D01*
X112586666Y-107749715D02*
X112443809Y-107749715D01*
X112443809Y-107749715D02*
X112300952Y-107797334D01*
X112300952Y-107797334D02*
X112205714Y-107892572D01*
X112205714Y-107892572D02*
X112158095Y-107987810D01*
X112158095Y-107987810D02*
X112110476Y-108178286D01*
X112110476Y-108178286D02*
X112110476Y-108321143D01*
X112110476Y-108321143D02*
X112158095Y-108511619D01*
X112158095Y-108511619D02*
X112205714Y-108606857D01*
X112205714Y-108606857D02*
X112300952Y-108702096D01*
X112300952Y-108702096D02*
X112443809Y-108749715D01*
X112443809Y-108749715D02*
X112539047Y-108749715D01*
X112539047Y-108749715D02*
X112681904Y-108702096D01*
X112681904Y-108702096D02*
X112729523Y-108654476D01*
X112729523Y-108654476D02*
X112729523Y-108321143D01*
X112729523Y-108321143D02*
X112539047Y-108321143D01*
X113729523Y-108749715D02*
X113396190Y-108273524D01*
X113158095Y-108749715D02*
X113158095Y-107749715D01*
X113158095Y-107749715D02*
X113539047Y-107749715D01*
X113539047Y-107749715D02*
X113634285Y-107797334D01*
X113634285Y-107797334D02*
X113681904Y-107844953D01*
X113681904Y-107844953D02*
X113729523Y-107940191D01*
X113729523Y-107940191D02*
X113729523Y-108083048D01*
X113729523Y-108083048D02*
X113681904Y-108178286D01*
X113681904Y-108178286D02*
X113634285Y-108225905D01*
X113634285Y-108225905D02*
X113539047Y-108273524D01*
X113539047Y-108273524D02*
X113158095Y-108273524D01*
X114158095Y-108225905D02*
X114491428Y-108225905D01*
X114634285Y-108749715D02*
X114158095Y-108749715D01*
X114158095Y-108749715D02*
X114158095Y-107749715D01*
X114158095Y-107749715D02*
X114634285Y-107749715D01*
X115062857Y-108225905D02*
X115396190Y-108225905D01*
X115539047Y-108749715D02*
X115062857Y-108749715D01*
X115062857Y-108749715D02*
X115062857Y-107749715D01*
X115062857Y-107749715D02*
X115539047Y-107749715D01*
X115967619Y-108749715D02*
X115967619Y-107749715D01*
X115967619Y-107749715D02*
X116539047Y-108749715D01*
X116539047Y-108749715D02*
X116539047Y-107749715D01*
G36*
X128349015Y-130317395D02*
G01*
X125976254Y-130317395D01*
X125976254Y-129210696D01*
X126087365Y-129210696D01*
X126087365Y-129240350D01*
X126098713Y-129267746D01*
X126119682Y-129288715D01*
X126147078Y-129300063D01*
X126176732Y-129300063D01*
X126204128Y-129288715D01*
X126215645Y-129279263D01*
X126250577Y-129244330D01*
X126364715Y-129206284D01*
X126435285Y-129206284D01*
X126549422Y-129244330D01*
X126623253Y-129318161D01*
X126661625Y-129394906D01*
X126704952Y-129568213D01*
X126704952Y-129692356D01*
X126661625Y-129865662D01*
X126623253Y-129942407D01*
X126549422Y-130016238D01*
X126435286Y-130054284D01*
X126364714Y-130054284D01*
X126250577Y-130016238D01*
X126215645Y-129981306D01*
X126204128Y-129971854D01*
X126176732Y-129960506D01*
X126147078Y-129960506D01*
X126119682Y-129971854D01*
X126098713Y-129992823D01*
X126087365Y-130020219D01*
X126087365Y-130049873D01*
X126098713Y-130077269D01*
X126108165Y-130088786D01*
X126155784Y-130136405D01*
X126167300Y-130145857D01*
X126169823Y-130146902D01*
X126171886Y-130148691D01*
X126185491Y-130154765D01*
X126328347Y-130202384D01*
X126335698Y-130204055D01*
X126337554Y-130204824D01*
X126340244Y-130205088D01*
X126342875Y-130205687D01*
X126344874Y-130205544D01*
X126352381Y-130206284D01*
X126447619Y-130206284D01*
X126455119Y-130205545D01*
X126457124Y-130205688D01*
X126459760Y-130205088D01*
X126462446Y-130204824D01*
X126464300Y-130204055D01*
X126471652Y-130202384D01*
X126614509Y-130154765D01*
X126628113Y-130148691D01*
X126630175Y-130146902D01*
X126632699Y-130145857D01*
X126644216Y-130136405D01*
X126739454Y-130041167D01*
X126744235Y-130035341D01*
X126745754Y-130034024D01*
X126747194Y-130031735D01*
X126748906Y-130029650D01*
X126749674Y-130027795D01*
X126753690Y-130021415D01*
X126801309Y-129926178D01*
X126801724Y-129925093D01*
X126802051Y-129924652D01*
X126804276Y-129918424D01*
X126806634Y-129912263D01*
X126806672Y-129911716D01*
X126807064Y-129910622D01*
X126823577Y-129844570D01*
X127085905Y-129844570D01*
X127085905Y-129939808D01*
X127087365Y-129954635D01*
X127088410Y-129957158D01*
X127088604Y-129959882D01*
X127093929Y-129973796D01*
X127141547Y-130069034D01*
X127145564Y-130075416D01*
X127146332Y-130077269D01*
X127148043Y-130079353D01*
X127149484Y-130081643D01*
X127151002Y-130082959D01*
X127155784Y-130088786D01*
X127203403Y-130136405D01*
X127209230Y-130141187D01*
X127210546Y-130142705D01*
X127212830Y-130144142D01*
X127214919Y-130145857D01*
X127216776Y-130146626D01*
X127223155Y-130150641D01*
X127318392Y-130198260D01*
X127332307Y-130203585D01*
X127335030Y-130203778D01*
X127337554Y-130204824D01*
X127352381Y-130206284D01*
X127590476Y-130206284D01*
X127605303Y-130204824D01*
X127607826Y-130203778D01*
X127610550Y-130203585D01*
X127624464Y-130198260D01*
X127719702Y-130150642D01*
X127726084Y-130146624D01*
X127727937Y-130145857D01*
X127730021Y-130144145D01*
X127732311Y-130142705D01*
X127733627Y-130141186D01*
X127739454Y-130136405D01*
X127787073Y-130088786D01*
X127796525Y-130077270D01*
X127807872Y-130049874D01*
X127807872Y-130020219D01*
X127796525Y-129992823D01*
X127775556Y-129971854D01*
X127748160Y-129960507D01*
X127718505Y-129960507D01*
X127691109Y-129971854D01*
X127679593Y-129981306D01*
X127640694Y-130020204D01*
X127572536Y-130054284D01*
X127370323Y-130054284D01*
X127302162Y-130020204D01*
X127271984Y-129990026D01*
X127237905Y-129921867D01*
X127237905Y-129856903D01*
X127275950Y-129742766D01*
X127834692Y-129184024D01*
X127844144Y-129172507D01*
X127855492Y-129145111D01*
X127855492Y-129130284D01*
X128085904Y-129130284D01*
X128085904Y-130130284D01*
X128087364Y-130145111D01*
X128098712Y-130172507D01*
X128119681Y-130193476D01*
X128147077Y-130204824D01*
X128176731Y-130204824D01*
X128204127Y-130193476D01*
X128225096Y-130172507D01*
X128236444Y-130145111D01*
X128237904Y-130130284D01*
X128237904Y-129130284D01*
X128236444Y-129115457D01*
X128225096Y-129088061D01*
X128204127Y-129067092D01*
X128176731Y-129055744D01*
X128147077Y-129055744D01*
X128119681Y-129067092D01*
X128098712Y-129088061D01*
X128087364Y-129115457D01*
X128085904Y-129130284D01*
X127855492Y-129130284D01*
X127855492Y-129115457D01*
X127844144Y-129088060D01*
X127823175Y-129067092D01*
X127795779Y-129055744D01*
X127780952Y-129054284D01*
X127161905Y-129054284D01*
X127147078Y-129055744D01*
X127119682Y-129067092D01*
X127098713Y-129088061D01*
X127087365Y-129115457D01*
X127087365Y-129145111D01*
X127098713Y-129172507D01*
X127119682Y-129193476D01*
X127147078Y-129204824D01*
X127161905Y-129206284D01*
X127597472Y-129206284D01*
X127155784Y-129647973D01*
X127146332Y-129659490D01*
X127145286Y-129662013D01*
X127143498Y-129664076D01*
X127137424Y-129677680D01*
X127089805Y-129820537D01*
X127088133Y-129827888D01*
X127087365Y-129829743D01*
X127087100Y-129832428D01*
X127086501Y-129835065D01*
X127086643Y-129837069D01*
X127085905Y-129844570D01*
X126823577Y-129844570D01*
X126854683Y-129720146D01*
X126855062Y-129717575D01*
X126855492Y-129716540D01*
X126856042Y-129710951D01*
X126856862Y-129705407D01*
X126856697Y-129704299D01*
X126856952Y-129701713D01*
X126856952Y-129558856D01*
X126856697Y-129556269D01*
X126856862Y-129555162D01*
X126856042Y-129549617D01*
X126855492Y-129544029D01*
X126855062Y-129542993D01*
X126854683Y-129540423D01*
X126807064Y-129349947D01*
X126806672Y-129348852D01*
X126806634Y-129348306D01*
X126804276Y-129342144D01*
X126802051Y-129335917D01*
X126801724Y-129335475D01*
X126801309Y-129334391D01*
X126753690Y-129239154D01*
X126749674Y-129232773D01*
X126748906Y-129230919D01*
X126747194Y-129228833D01*
X126745754Y-129226545D01*
X126744235Y-129225227D01*
X126739454Y-129219402D01*
X126644216Y-129124164D01*
X126632699Y-129114712D01*
X126630177Y-129113667D01*
X126628114Y-129111878D01*
X126614510Y-129105804D01*
X126471653Y-129058184D01*
X126464298Y-129056511D01*
X126462446Y-129055744D01*
X126459761Y-129055479D01*
X126457125Y-129054880D01*
X126455119Y-129055022D01*
X126447619Y-129054284D01*
X126352381Y-129054284D01*
X126344880Y-129055022D01*
X126342875Y-129054880D01*
X126340238Y-129055479D01*
X126337554Y-129055744D01*
X126335701Y-129056511D01*
X126328347Y-129058184D01*
X126185490Y-129105804D01*
X126171886Y-129111878D01*
X126169823Y-129113666D01*
X126167300Y-129114712D01*
X126155784Y-129124164D01*
X126108165Y-129171783D01*
X126098713Y-129183300D01*
X126087365Y-129210696D01*
X125976254Y-129210696D01*
X125976254Y-128943173D01*
X128349015Y-128943173D01*
X128349015Y-130317395D01*
G37*
X113229523Y-90249715D02*
X112896190Y-89773524D01*
X112658095Y-90249715D02*
X112658095Y-89249715D01*
X112658095Y-89249715D02*
X113039047Y-89249715D01*
X113039047Y-89249715D02*
X113134285Y-89297334D01*
X113134285Y-89297334D02*
X113181904Y-89344953D01*
X113181904Y-89344953D02*
X113229523Y-89440191D01*
X113229523Y-89440191D02*
X113229523Y-89583048D01*
X113229523Y-89583048D02*
X113181904Y-89678286D01*
X113181904Y-89678286D02*
X113134285Y-89725905D01*
X113134285Y-89725905D02*
X113039047Y-89773524D01*
X113039047Y-89773524D02*
X112658095Y-89773524D01*
X113658095Y-89725905D02*
X113991428Y-89725905D01*
X114134285Y-90249715D02*
X113658095Y-90249715D01*
X113658095Y-90249715D02*
X113658095Y-89249715D01*
X113658095Y-89249715D02*
X114134285Y-89249715D01*
X114562857Y-90249715D02*
X114562857Y-89249715D01*
X114562857Y-89249715D02*
X114800952Y-89249715D01*
X114800952Y-89249715D02*
X114943809Y-89297334D01*
X114943809Y-89297334D02*
X115039047Y-89392572D01*
X115039047Y-89392572D02*
X115086666Y-89487810D01*
X115086666Y-89487810D02*
X115134285Y-89678286D01*
X115134285Y-89678286D02*
X115134285Y-89821143D01*
X115134285Y-89821143D02*
X115086666Y-90011619D01*
X115086666Y-90011619D02*
X115039047Y-90106857D01*
X115039047Y-90106857D02*
X114943809Y-90202096D01*
X114943809Y-90202096D02*
X114800952Y-90249715D01*
X114800952Y-90249715D02*
X114562857Y-90249715D01*
X140361904Y-61417334D02*
X140266666Y-61369715D01*
X140266666Y-61369715D02*
X140123809Y-61369715D01*
X140123809Y-61369715D02*
X139980952Y-61417334D01*
X139980952Y-61417334D02*
X139885714Y-61512572D01*
X139885714Y-61512572D02*
X139838095Y-61607810D01*
X139838095Y-61607810D02*
X139790476Y-61798286D01*
X139790476Y-61798286D02*
X139790476Y-61941143D01*
X139790476Y-61941143D02*
X139838095Y-62131619D01*
X139838095Y-62131619D02*
X139885714Y-62226857D01*
X139885714Y-62226857D02*
X139980952Y-62322096D01*
X139980952Y-62322096D02*
X140123809Y-62369715D01*
X140123809Y-62369715D02*
X140219047Y-62369715D01*
X140219047Y-62369715D02*
X140361904Y-62322096D01*
X140361904Y-62322096D02*
X140409523Y-62274476D01*
X140409523Y-62274476D02*
X140409523Y-61941143D01*
X140409523Y-61941143D02*
X140219047Y-61941143D01*
X140838095Y-62369715D02*
X140838095Y-61369715D01*
X140838095Y-61369715D02*
X141409523Y-62369715D01*
X141409523Y-62369715D02*
X141409523Y-61369715D01*
X141885714Y-62369715D02*
X141885714Y-61369715D01*
X141885714Y-61369715D02*
X142123809Y-61369715D01*
X142123809Y-61369715D02*
X142266666Y-61417334D01*
X142266666Y-61417334D02*
X142361904Y-61512572D01*
X142361904Y-61512572D02*
X142409523Y-61607810D01*
X142409523Y-61607810D02*
X142457142Y-61798286D01*
X142457142Y-61798286D02*
X142457142Y-61941143D01*
X142457142Y-61941143D02*
X142409523Y-62131619D01*
X142409523Y-62131619D02*
X142361904Y-62226857D01*
X142361904Y-62226857D02*
X142266666Y-62322096D01*
X142266666Y-62322096D02*
X142123809Y-62369715D01*
X142123809Y-62369715D02*
X141885714Y-62369715D01*
X144895238Y-61369715D02*
X145228571Y-62369715D01*
X145228571Y-62369715D02*
X145561904Y-61369715D01*
X145895238Y-62369715D02*
X145895238Y-61369715D01*
X146371428Y-62369715D02*
X146371428Y-61369715D01*
X146371428Y-61369715D02*
X146942856Y-62369715D01*
X146942856Y-62369715D02*
X146942856Y-61369715D01*
X121619715Y-78411904D02*
X120619715Y-78411904D01*
X120619715Y-78411904D02*
X120619715Y-78030952D01*
X120619715Y-78030952D02*
X120667334Y-77935714D01*
X120667334Y-77935714D02*
X120714953Y-77888095D01*
X120714953Y-77888095D02*
X120810191Y-77840476D01*
X120810191Y-77840476D02*
X120953048Y-77840476D01*
X120953048Y-77840476D02*
X121048286Y-77888095D01*
X121048286Y-77888095D02*
X121095905Y-77935714D01*
X121095905Y-77935714D02*
X121143524Y-78030952D01*
X121143524Y-78030952D02*
X121143524Y-78411904D01*
X121334000Y-77459523D02*
X121334000Y-76983333D01*
X121619715Y-77554761D02*
X120619715Y-77221428D01*
X120619715Y-77221428D02*
X121619715Y-76888095D01*
X121619715Y-76030952D02*
X121619715Y-76602380D01*
X121619715Y-76316666D02*
X120619715Y-76316666D01*
X120619715Y-76316666D02*
X120762572Y-76411904D01*
X120762572Y-76411904D02*
X120857810Y-76507142D01*
X120857810Y-76507142D02*
X120905429Y-76602380D01*
X120619715Y-75411904D02*
X120619715Y-75316666D01*
X120619715Y-75316666D02*
X120667334Y-75221428D01*
X120667334Y-75221428D02*
X120714953Y-75173809D01*
X120714953Y-75173809D02*
X120810191Y-75126190D01*
X120810191Y-75126190D02*
X121000667Y-75078571D01*
X121000667Y-75078571D02*
X121238762Y-75078571D01*
X121238762Y-75078571D02*
X121429238Y-75126190D01*
X121429238Y-75126190D02*
X121524476Y-75173809D01*
X121524476Y-75173809D02*
X121572096Y-75221428D01*
X121572096Y-75221428D02*
X121619715Y-75316666D01*
X121619715Y-75316666D02*
X121619715Y-75411904D01*
X121619715Y-75411904D02*
X121572096Y-75507142D01*
X121572096Y-75507142D02*
X121524476Y-75554761D01*
X121524476Y-75554761D02*
X121429238Y-75602380D01*
X121429238Y-75602380D02*
X121238762Y-75649999D01*
X121238762Y-75649999D02*
X121000667Y-75649999D01*
X121000667Y-75649999D02*
X120810191Y-75602380D01*
X120810191Y-75602380D02*
X120714953Y-75554761D01*
X120714953Y-75554761D02*
X120667334Y-75507142D01*
X120667334Y-75507142D02*
X120619715Y-75411904D01*
X131072096Y-123709523D02*
X131119715Y-123566666D01*
X131119715Y-123566666D02*
X131119715Y-123328571D01*
X131119715Y-123328571D02*
X131072096Y-123233333D01*
X131072096Y-123233333D02*
X131024476Y-123185714D01*
X131024476Y-123185714D02*
X130929238Y-123138095D01*
X130929238Y-123138095D02*
X130834000Y-123138095D01*
X130834000Y-123138095D02*
X130738762Y-123185714D01*
X130738762Y-123185714D02*
X130691143Y-123233333D01*
X130691143Y-123233333D02*
X130643524Y-123328571D01*
X130643524Y-123328571D02*
X130595905Y-123519047D01*
X130595905Y-123519047D02*
X130548286Y-123614285D01*
X130548286Y-123614285D02*
X130500667Y-123661904D01*
X130500667Y-123661904D02*
X130405429Y-123709523D01*
X130405429Y-123709523D02*
X130310191Y-123709523D01*
X130310191Y-123709523D02*
X130214953Y-123661904D01*
X130214953Y-123661904D02*
X130167334Y-123614285D01*
X130167334Y-123614285D02*
X130119715Y-123519047D01*
X130119715Y-123519047D02*
X130119715Y-123280952D01*
X130119715Y-123280952D02*
X130167334Y-123138095D01*
X131119715Y-122709523D02*
X130119715Y-122709523D01*
X130119715Y-122709523D02*
X130119715Y-122471428D01*
X130119715Y-122471428D02*
X130167334Y-122328571D01*
X130167334Y-122328571D02*
X130262572Y-122233333D01*
X130262572Y-122233333D02*
X130357810Y-122185714D01*
X130357810Y-122185714D02*
X130548286Y-122138095D01*
X130548286Y-122138095D02*
X130691143Y-122138095D01*
X130691143Y-122138095D02*
X130881619Y-122185714D01*
X130881619Y-122185714D02*
X130976857Y-122233333D01*
X130976857Y-122233333D02*
X131072096Y-122328571D01*
X131072096Y-122328571D02*
X131119715Y-122471428D01*
X131119715Y-122471428D02*
X131119715Y-122709523D01*
X130834000Y-121757142D02*
X130834000Y-121280952D01*
X131119715Y-121852380D02*
X130119715Y-121519047D01*
X130119715Y-121519047D02*
X131119715Y-121185714D01*
X111808571Y-99273524D02*
X111808571Y-99749715D01*
X111475238Y-98749715D02*
X111808571Y-99273524D01*
X111808571Y-99273524D02*
X112141904Y-98749715D01*
X112475238Y-99225905D02*
X112808571Y-99225905D01*
X112951428Y-99749715D02*
X112475238Y-99749715D01*
X112475238Y-99749715D02*
X112475238Y-98749715D01*
X112475238Y-98749715D02*
X112951428Y-98749715D01*
X113856190Y-99749715D02*
X113380000Y-99749715D01*
X113380000Y-99749715D02*
X113380000Y-98749715D01*
X114665714Y-99749715D02*
X114189524Y-99749715D01*
X114189524Y-99749715D02*
X114189524Y-98749715D01*
X115189524Y-98749715D02*
X115380000Y-98749715D01*
X115380000Y-98749715D02*
X115475238Y-98797334D01*
X115475238Y-98797334D02*
X115570476Y-98892572D01*
X115570476Y-98892572D02*
X115618095Y-99083048D01*
X115618095Y-99083048D02*
X115618095Y-99416381D01*
X115618095Y-99416381D02*
X115570476Y-99606857D01*
X115570476Y-99606857D02*
X115475238Y-99702096D01*
X115475238Y-99702096D02*
X115380000Y-99749715D01*
X115380000Y-99749715D02*
X115189524Y-99749715D01*
X115189524Y-99749715D02*
X115094286Y-99702096D01*
X115094286Y-99702096D02*
X114999048Y-99606857D01*
X114999048Y-99606857D02*
X114951429Y-99416381D01*
X114951429Y-99416381D02*
X114951429Y-99083048D01*
X114951429Y-99083048D02*
X114999048Y-98892572D01*
X114999048Y-98892572D02*
X115094286Y-98797334D01*
X115094286Y-98797334D02*
X115189524Y-98749715D01*
X115951429Y-98749715D02*
X116189524Y-99749715D01*
X116189524Y-99749715D02*
X116380000Y-99035429D01*
X116380000Y-99035429D02*
X116570476Y-99749715D01*
X116570476Y-99749715D02*
X116808572Y-98749715D01*
X124433333Y-75854715D02*
X124100000Y-75378524D01*
X123861905Y-75854715D02*
X123861905Y-74854715D01*
X123861905Y-74854715D02*
X124242857Y-74854715D01*
X124242857Y-74854715D02*
X124338095Y-74902334D01*
X124338095Y-74902334D02*
X124385714Y-74949953D01*
X124385714Y-74949953D02*
X124433333Y-75045191D01*
X124433333Y-75045191D02*
X124433333Y-75188048D01*
X124433333Y-75188048D02*
X124385714Y-75283286D01*
X124385714Y-75283286D02*
X124338095Y-75330905D01*
X124338095Y-75330905D02*
X124242857Y-75378524D01*
X124242857Y-75378524D02*
X123861905Y-75378524D01*
X124766667Y-74854715D02*
X125385714Y-74854715D01*
X125385714Y-74854715D02*
X125052381Y-75235667D01*
X125052381Y-75235667D02*
X125195238Y-75235667D01*
X125195238Y-75235667D02*
X125290476Y-75283286D01*
X125290476Y-75283286D02*
X125338095Y-75330905D01*
X125338095Y-75330905D02*
X125385714Y-75426143D01*
X125385714Y-75426143D02*
X125385714Y-75664238D01*
X125385714Y-75664238D02*
X125338095Y-75759476D01*
X125338095Y-75759476D02*
X125290476Y-75807096D01*
X125290476Y-75807096D02*
X125195238Y-75854715D01*
X125195238Y-75854715D02*
X124909524Y-75854715D01*
X124909524Y-75854715D02*
X124814286Y-75807096D01*
X124814286Y-75807096D02*
X124766667Y-75759476D01*
X169488095Y-78604715D02*
X169488095Y-79414238D01*
X169488095Y-79414238D02*
X169535714Y-79509476D01*
X169535714Y-79509476D02*
X169583333Y-79557096D01*
X169583333Y-79557096D02*
X169678571Y-79604715D01*
X169678571Y-79604715D02*
X169869047Y-79604715D01*
X169869047Y-79604715D02*
X169964285Y-79557096D01*
X169964285Y-79557096D02*
X170011904Y-79509476D01*
X170011904Y-79509476D02*
X170059523Y-79414238D01*
X170059523Y-79414238D02*
X170059523Y-78604715D01*
X170440476Y-78604715D02*
X171059523Y-78604715D01*
X171059523Y-78604715D02*
X170726190Y-78985667D01*
X170726190Y-78985667D02*
X170869047Y-78985667D01*
X170869047Y-78985667D02*
X170964285Y-79033286D01*
X170964285Y-79033286D02*
X171011904Y-79080905D01*
X171011904Y-79080905D02*
X171059523Y-79176143D01*
X171059523Y-79176143D02*
X171059523Y-79414238D01*
X171059523Y-79414238D02*
X171011904Y-79509476D01*
X171011904Y-79509476D02*
X170964285Y-79557096D01*
X170964285Y-79557096D02*
X170869047Y-79604715D01*
X170869047Y-79604715D02*
X170583333Y-79604715D01*
X170583333Y-79604715D02*
X170488095Y-79557096D01*
X170488095Y-79557096D02*
X170440476Y-79509476D01*
X128938095Y-65154715D02*
X128938095Y-65964238D01*
X128938095Y-65964238D02*
X128985714Y-66059476D01*
X128985714Y-66059476D02*
X129033333Y-66107096D01*
X129033333Y-66107096D02*
X129128571Y-66154715D01*
X129128571Y-66154715D02*
X129319047Y-66154715D01*
X129319047Y-66154715D02*
X129414285Y-66107096D01*
X129414285Y-66107096D02*
X129461904Y-66059476D01*
X129461904Y-66059476D02*
X129509523Y-65964238D01*
X129509523Y-65964238D02*
X129509523Y-65154715D01*
X130414285Y-65488048D02*
X130414285Y-66154715D01*
X130176190Y-65107096D02*
X129938095Y-65821381D01*
X129938095Y-65821381D02*
X130557142Y-65821381D01*
X134857142Y-129454715D02*
X134523809Y-128978524D01*
X134285714Y-129454715D02*
X134285714Y-128454715D01*
X134285714Y-128454715D02*
X134666666Y-128454715D01*
X134666666Y-128454715D02*
X134761904Y-128502334D01*
X134761904Y-128502334D02*
X134809523Y-128549953D01*
X134809523Y-128549953D02*
X134857142Y-128645191D01*
X134857142Y-128645191D02*
X134857142Y-128788048D01*
X134857142Y-128788048D02*
X134809523Y-128883286D01*
X134809523Y-128883286D02*
X134761904Y-128930905D01*
X134761904Y-128930905D02*
X134666666Y-128978524D01*
X134666666Y-128978524D02*
X134285714Y-128978524D01*
X135809523Y-129454715D02*
X135238095Y-129454715D01*
X135523809Y-129454715D02*
X135523809Y-128454715D01*
X135523809Y-128454715D02*
X135428571Y-128597572D01*
X135428571Y-128597572D02*
X135333333Y-128692810D01*
X135333333Y-128692810D02*
X135238095Y-128740429D01*
X136428571Y-128454715D02*
X136523809Y-128454715D01*
X136523809Y-128454715D02*
X136619047Y-128502334D01*
X136619047Y-128502334D02*
X136666666Y-128549953D01*
X136666666Y-128549953D02*
X136714285Y-128645191D01*
X136714285Y-128645191D02*
X136761904Y-128835667D01*
X136761904Y-128835667D02*
X136761904Y-129073762D01*
X136761904Y-129073762D02*
X136714285Y-129264238D01*
X136714285Y-129264238D02*
X136666666Y-129359476D01*
X136666666Y-129359476D02*
X136619047Y-129407096D01*
X136619047Y-129407096D02*
X136523809Y-129454715D01*
X136523809Y-129454715D02*
X136428571Y-129454715D01*
X136428571Y-129454715D02*
X136333333Y-129407096D01*
X136333333Y-129407096D02*
X136285714Y-129359476D01*
X136285714Y-129359476D02*
X136238095Y-129264238D01*
X136238095Y-129264238D02*
X136190476Y-129073762D01*
X136190476Y-129073762D02*
X136190476Y-128835667D01*
X136190476Y-128835667D02*
X136238095Y-128645191D01*
X136238095Y-128645191D02*
X136285714Y-128549953D01*
X136285714Y-128549953D02*
X136333333Y-128502334D01*
X136333333Y-128502334D02*
X136428571Y-128454715D01*
X113261905Y-102204715D02*
X113261905Y-101204715D01*
X113261905Y-101204715D02*
X113500000Y-101204715D01*
X113500000Y-101204715D02*
X113642857Y-101252334D01*
X113642857Y-101252334D02*
X113738095Y-101347572D01*
X113738095Y-101347572D02*
X113785714Y-101442810D01*
X113785714Y-101442810D02*
X113833333Y-101633286D01*
X113833333Y-101633286D02*
X113833333Y-101776143D01*
X113833333Y-101776143D02*
X113785714Y-101966619D01*
X113785714Y-101966619D02*
X113738095Y-102061857D01*
X113738095Y-102061857D02*
X113642857Y-102157096D01*
X113642857Y-102157096D02*
X113500000Y-102204715D01*
X113500000Y-102204715D02*
X113261905Y-102204715D01*
X114166667Y-101204715D02*
X114785714Y-101204715D01*
X114785714Y-101204715D02*
X114452381Y-101585667D01*
X114452381Y-101585667D02*
X114595238Y-101585667D01*
X114595238Y-101585667D02*
X114690476Y-101633286D01*
X114690476Y-101633286D02*
X114738095Y-101680905D01*
X114738095Y-101680905D02*
X114785714Y-101776143D01*
X114785714Y-101776143D02*
X114785714Y-102014238D01*
X114785714Y-102014238D02*
X114738095Y-102109476D01*
X114738095Y-102109476D02*
X114690476Y-102157096D01*
X114690476Y-102157096D02*
X114595238Y-102204715D01*
X114595238Y-102204715D02*
X114309524Y-102204715D01*
X114309524Y-102204715D02*
X114214286Y-102157096D01*
X114214286Y-102157096D02*
X114166667Y-102109476D01*
X124807142Y-118154715D02*
X124473809Y-117678524D01*
X124235714Y-118154715D02*
X124235714Y-117154715D01*
X124235714Y-117154715D02*
X124616666Y-117154715D01*
X124616666Y-117154715D02*
X124711904Y-117202334D01*
X124711904Y-117202334D02*
X124759523Y-117249953D01*
X124759523Y-117249953D02*
X124807142Y-117345191D01*
X124807142Y-117345191D02*
X124807142Y-117488048D01*
X124807142Y-117488048D02*
X124759523Y-117583286D01*
X124759523Y-117583286D02*
X124711904Y-117630905D01*
X124711904Y-117630905D02*
X124616666Y-117678524D01*
X124616666Y-117678524D02*
X124235714Y-117678524D01*
X125759523Y-118154715D02*
X125188095Y-118154715D01*
X125473809Y-118154715D02*
X125473809Y-117154715D01*
X125473809Y-117154715D02*
X125378571Y-117297572D01*
X125378571Y-117297572D02*
X125283333Y-117392810D01*
X125283333Y-117392810D02*
X125188095Y-117440429D01*
X126711904Y-118154715D02*
X126140476Y-118154715D01*
X126426190Y-118154715D02*
X126426190Y-117154715D01*
X126426190Y-117154715D02*
X126330952Y-117297572D01*
X126330952Y-117297572D02*
X126235714Y-117392810D01*
X126235714Y-117392810D02*
X126140476Y-117440429D01*
X179859476Y-75416666D02*
X179907096Y-75464285D01*
X179907096Y-75464285D02*
X179954715Y-75607142D01*
X179954715Y-75607142D02*
X179954715Y-75702380D01*
X179954715Y-75702380D02*
X179907096Y-75845237D01*
X179907096Y-75845237D02*
X179811857Y-75940475D01*
X179811857Y-75940475D02*
X179716619Y-75988094D01*
X179716619Y-75988094D02*
X179526143Y-76035713D01*
X179526143Y-76035713D02*
X179383286Y-76035713D01*
X179383286Y-76035713D02*
X179192810Y-75988094D01*
X179192810Y-75988094D02*
X179097572Y-75940475D01*
X179097572Y-75940475D02*
X179002334Y-75845237D01*
X179002334Y-75845237D02*
X178954715Y-75702380D01*
X178954715Y-75702380D02*
X178954715Y-75607142D01*
X178954715Y-75607142D02*
X179002334Y-75464285D01*
X179002334Y-75464285D02*
X179049953Y-75416666D01*
X179954715Y-74464285D02*
X179954715Y-75035713D01*
X179954715Y-74749999D02*
X178954715Y-74749999D01*
X178954715Y-74749999D02*
X179097572Y-74845237D01*
X179097572Y-74845237D02*
X179192810Y-74940475D01*
X179192810Y-74940475D02*
X179240429Y-75035713D01*
X113381905Y-93334715D02*
X113381905Y-92334715D01*
X113381905Y-92334715D02*
X113620000Y-92334715D01*
X113620000Y-92334715D02*
X113762857Y-92382334D01*
X113762857Y-92382334D02*
X113858095Y-92477572D01*
X113858095Y-92477572D02*
X113905714Y-92572810D01*
X113905714Y-92572810D02*
X113953333Y-92763286D01*
X113953333Y-92763286D02*
X113953333Y-92906143D01*
X113953333Y-92906143D02*
X113905714Y-93096619D01*
X113905714Y-93096619D02*
X113858095Y-93191857D01*
X113858095Y-93191857D02*
X113762857Y-93287096D01*
X113762857Y-93287096D02*
X113620000Y-93334715D01*
X113620000Y-93334715D02*
X113381905Y-93334715D01*
X114334286Y-92429953D02*
X114381905Y-92382334D01*
X114381905Y-92382334D02*
X114477143Y-92334715D01*
X114477143Y-92334715D02*
X114715238Y-92334715D01*
X114715238Y-92334715D02*
X114810476Y-92382334D01*
X114810476Y-92382334D02*
X114858095Y-92429953D01*
X114858095Y-92429953D02*
X114905714Y-92525191D01*
X114905714Y-92525191D02*
X114905714Y-92620429D01*
X114905714Y-92620429D02*
X114858095Y-92763286D01*
X114858095Y-92763286D02*
X114286667Y-93334715D01*
X114286667Y-93334715D02*
X114905714Y-93334715D01*
X139957142Y-73054715D02*
X139623809Y-72578524D01*
X139385714Y-73054715D02*
X139385714Y-72054715D01*
X139385714Y-72054715D02*
X139766666Y-72054715D01*
X139766666Y-72054715D02*
X139861904Y-72102334D01*
X139861904Y-72102334D02*
X139909523Y-72149953D01*
X139909523Y-72149953D02*
X139957142Y-72245191D01*
X139957142Y-72245191D02*
X139957142Y-72388048D01*
X139957142Y-72388048D02*
X139909523Y-72483286D01*
X139909523Y-72483286D02*
X139861904Y-72530905D01*
X139861904Y-72530905D02*
X139766666Y-72578524D01*
X139766666Y-72578524D02*
X139385714Y-72578524D01*
X140909523Y-73054715D02*
X140338095Y-73054715D01*
X140623809Y-73054715D02*
X140623809Y-72054715D01*
X140623809Y-72054715D02*
X140528571Y-72197572D01*
X140528571Y-72197572D02*
X140433333Y-72292810D01*
X140433333Y-72292810D02*
X140338095Y-72340429D01*
X141290476Y-72149953D02*
X141338095Y-72102334D01*
X141338095Y-72102334D02*
X141433333Y-72054715D01*
X141433333Y-72054715D02*
X141671428Y-72054715D01*
X141671428Y-72054715D02*
X141766666Y-72102334D01*
X141766666Y-72102334D02*
X141814285Y-72149953D01*
X141814285Y-72149953D02*
X141861904Y-72245191D01*
X141861904Y-72245191D02*
X141861904Y-72340429D01*
X141861904Y-72340429D02*
X141814285Y-72483286D01*
X141814285Y-72483286D02*
X141242857Y-73054715D01*
X141242857Y-73054715D02*
X141861904Y-73054715D01*
X119833333Y-112954715D02*
X119500000Y-112478524D01*
X119261905Y-112954715D02*
X119261905Y-111954715D01*
X119261905Y-111954715D02*
X119642857Y-111954715D01*
X119642857Y-111954715D02*
X119738095Y-112002334D01*
X119738095Y-112002334D02*
X119785714Y-112049953D01*
X119785714Y-112049953D02*
X119833333Y-112145191D01*
X119833333Y-112145191D02*
X119833333Y-112288048D01*
X119833333Y-112288048D02*
X119785714Y-112383286D01*
X119785714Y-112383286D02*
X119738095Y-112430905D01*
X119738095Y-112430905D02*
X119642857Y-112478524D01*
X119642857Y-112478524D02*
X119261905Y-112478524D01*
X120404762Y-112383286D02*
X120309524Y-112335667D01*
X120309524Y-112335667D02*
X120261905Y-112288048D01*
X120261905Y-112288048D02*
X120214286Y-112192810D01*
X120214286Y-112192810D02*
X120214286Y-112145191D01*
X120214286Y-112145191D02*
X120261905Y-112049953D01*
X120261905Y-112049953D02*
X120309524Y-112002334D01*
X120309524Y-112002334D02*
X120404762Y-111954715D01*
X120404762Y-111954715D02*
X120595238Y-111954715D01*
X120595238Y-111954715D02*
X120690476Y-112002334D01*
X120690476Y-112002334D02*
X120738095Y-112049953D01*
X120738095Y-112049953D02*
X120785714Y-112145191D01*
X120785714Y-112145191D02*
X120785714Y-112192810D01*
X120785714Y-112192810D02*
X120738095Y-112288048D01*
X120738095Y-112288048D02*
X120690476Y-112335667D01*
X120690476Y-112335667D02*
X120595238Y-112383286D01*
X120595238Y-112383286D02*
X120404762Y-112383286D01*
X120404762Y-112383286D02*
X120309524Y-112430905D01*
X120309524Y-112430905D02*
X120261905Y-112478524D01*
X120261905Y-112478524D02*
X120214286Y-112573762D01*
X120214286Y-112573762D02*
X120214286Y-112764238D01*
X120214286Y-112764238D02*
X120261905Y-112859476D01*
X120261905Y-112859476D02*
X120309524Y-112907096D01*
X120309524Y-112907096D02*
X120404762Y-112954715D01*
X120404762Y-112954715D02*
X120595238Y-112954715D01*
X120595238Y-112954715D02*
X120690476Y-112907096D01*
X120690476Y-112907096D02*
X120738095Y-112859476D01*
X120738095Y-112859476D02*
X120785714Y-112764238D01*
X120785714Y-112764238D02*
X120785714Y-112573762D01*
X120785714Y-112573762D02*
X120738095Y-112478524D01*
X120738095Y-112478524D02*
X120690476Y-112430905D01*
X120690476Y-112430905D02*
X120595238Y-112383286D01*
X152959476Y-61166666D02*
X153007096Y-61214285D01*
X153007096Y-61214285D02*
X153054715Y-61357142D01*
X153054715Y-61357142D02*
X153054715Y-61452380D01*
X153054715Y-61452380D02*
X153007096Y-61595237D01*
X153007096Y-61595237D02*
X152911857Y-61690475D01*
X152911857Y-61690475D02*
X152816619Y-61738094D01*
X152816619Y-61738094D02*
X152626143Y-61785713D01*
X152626143Y-61785713D02*
X152483286Y-61785713D01*
X152483286Y-61785713D02*
X152292810Y-61738094D01*
X152292810Y-61738094D02*
X152197572Y-61690475D01*
X152197572Y-61690475D02*
X152102334Y-61595237D01*
X152102334Y-61595237D02*
X152054715Y-61452380D01*
X152054715Y-61452380D02*
X152054715Y-61357142D01*
X152054715Y-61357142D02*
X152102334Y-61214285D01*
X152102334Y-61214285D02*
X152149953Y-61166666D01*
X152149953Y-60785713D02*
X152102334Y-60738094D01*
X152102334Y-60738094D02*
X152054715Y-60642856D01*
X152054715Y-60642856D02*
X152054715Y-60404761D01*
X152054715Y-60404761D02*
X152102334Y-60309523D01*
X152102334Y-60309523D02*
X152149953Y-60261904D01*
X152149953Y-60261904D02*
X152245191Y-60214285D01*
X152245191Y-60214285D02*
X152340429Y-60214285D01*
X152340429Y-60214285D02*
X152483286Y-60261904D01*
X152483286Y-60261904D02*
X153054715Y-60833332D01*
X153054715Y-60833332D02*
X153054715Y-60214285D01*
X119653333Y-94334715D02*
X119320000Y-93858524D01*
X119081905Y-94334715D02*
X119081905Y-93334715D01*
X119081905Y-93334715D02*
X119462857Y-93334715D01*
X119462857Y-93334715D02*
X119558095Y-93382334D01*
X119558095Y-93382334D02*
X119605714Y-93429953D01*
X119605714Y-93429953D02*
X119653333Y-93525191D01*
X119653333Y-93525191D02*
X119653333Y-93668048D01*
X119653333Y-93668048D02*
X119605714Y-93763286D01*
X119605714Y-93763286D02*
X119558095Y-93810905D01*
X119558095Y-93810905D02*
X119462857Y-93858524D01*
X119462857Y-93858524D02*
X119081905Y-93858524D01*
X120510476Y-93334715D02*
X120320000Y-93334715D01*
X120320000Y-93334715D02*
X120224762Y-93382334D01*
X120224762Y-93382334D02*
X120177143Y-93429953D01*
X120177143Y-93429953D02*
X120081905Y-93572810D01*
X120081905Y-93572810D02*
X120034286Y-93763286D01*
X120034286Y-93763286D02*
X120034286Y-94144238D01*
X120034286Y-94144238D02*
X120081905Y-94239476D01*
X120081905Y-94239476D02*
X120129524Y-94287096D01*
X120129524Y-94287096D02*
X120224762Y-94334715D01*
X120224762Y-94334715D02*
X120415238Y-94334715D01*
X120415238Y-94334715D02*
X120510476Y-94287096D01*
X120510476Y-94287096D02*
X120558095Y-94239476D01*
X120558095Y-94239476D02*
X120605714Y-94144238D01*
X120605714Y-94144238D02*
X120605714Y-93906143D01*
X120605714Y-93906143D02*
X120558095Y-93810905D01*
X120558095Y-93810905D02*
X120510476Y-93763286D01*
X120510476Y-93763286D02*
X120415238Y-93715667D01*
X120415238Y-93715667D02*
X120224762Y-93715667D01*
X120224762Y-93715667D02*
X120129524Y-93763286D01*
X120129524Y-93763286D02*
X120081905Y-93810905D01*
X120081905Y-93810905D02*
X120034286Y-93906143D01*
X164583333Y-68859476D02*
X164535714Y-68907096D01*
X164535714Y-68907096D02*
X164392857Y-68954715D01*
X164392857Y-68954715D02*
X164297619Y-68954715D01*
X164297619Y-68954715D02*
X164154762Y-68907096D01*
X164154762Y-68907096D02*
X164059524Y-68811857D01*
X164059524Y-68811857D02*
X164011905Y-68716619D01*
X164011905Y-68716619D02*
X163964286Y-68526143D01*
X163964286Y-68526143D02*
X163964286Y-68383286D01*
X163964286Y-68383286D02*
X164011905Y-68192810D01*
X164011905Y-68192810D02*
X164059524Y-68097572D01*
X164059524Y-68097572D02*
X164154762Y-68002334D01*
X164154762Y-68002334D02*
X164297619Y-67954715D01*
X164297619Y-67954715D02*
X164392857Y-67954715D01*
X164392857Y-67954715D02*
X164535714Y-68002334D01*
X164535714Y-68002334D02*
X164583333Y-68049953D01*
X164916667Y-67954715D02*
X165535714Y-67954715D01*
X165535714Y-67954715D02*
X165202381Y-68335667D01*
X165202381Y-68335667D02*
X165345238Y-68335667D01*
X165345238Y-68335667D02*
X165440476Y-68383286D01*
X165440476Y-68383286D02*
X165488095Y-68430905D01*
X165488095Y-68430905D02*
X165535714Y-68526143D01*
X165535714Y-68526143D02*
X165535714Y-68764238D01*
X165535714Y-68764238D02*
X165488095Y-68859476D01*
X165488095Y-68859476D02*
X165440476Y-68907096D01*
X165440476Y-68907096D02*
X165345238Y-68954715D01*
X165345238Y-68954715D02*
X165059524Y-68954715D01*
X165059524Y-68954715D02*
X164964286Y-68907096D01*
X164964286Y-68907096D02*
X164916667Y-68859476D01*
X124433333Y-65654715D02*
X124100000Y-65178524D01*
X123861905Y-65654715D02*
X123861905Y-64654715D01*
X123861905Y-64654715D02*
X124242857Y-64654715D01*
X124242857Y-64654715D02*
X124338095Y-64702334D01*
X124338095Y-64702334D02*
X124385714Y-64749953D01*
X124385714Y-64749953D02*
X124433333Y-64845191D01*
X124433333Y-64845191D02*
X124433333Y-64988048D01*
X124433333Y-64988048D02*
X124385714Y-65083286D01*
X124385714Y-65083286D02*
X124338095Y-65130905D01*
X124338095Y-65130905D02*
X124242857Y-65178524D01*
X124242857Y-65178524D02*
X123861905Y-65178524D01*
X124814286Y-64749953D02*
X124861905Y-64702334D01*
X124861905Y-64702334D02*
X124957143Y-64654715D01*
X124957143Y-64654715D02*
X125195238Y-64654715D01*
X125195238Y-64654715D02*
X125290476Y-64702334D01*
X125290476Y-64702334D02*
X125338095Y-64749953D01*
X125338095Y-64749953D02*
X125385714Y-64845191D01*
X125385714Y-64845191D02*
X125385714Y-64940429D01*
X125385714Y-64940429D02*
X125338095Y-65083286D01*
X125338095Y-65083286D02*
X124766667Y-65654715D01*
X124766667Y-65654715D02*
X125385714Y-65654715D01*
X119653333Y-103454715D02*
X119320000Y-102978524D01*
X119081905Y-103454715D02*
X119081905Y-102454715D01*
X119081905Y-102454715D02*
X119462857Y-102454715D01*
X119462857Y-102454715D02*
X119558095Y-102502334D01*
X119558095Y-102502334D02*
X119605714Y-102549953D01*
X119605714Y-102549953D02*
X119653333Y-102645191D01*
X119653333Y-102645191D02*
X119653333Y-102788048D01*
X119653333Y-102788048D02*
X119605714Y-102883286D01*
X119605714Y-102883286D02*
X119558095Y-102930905D01*
X119558095Y-102930905D02*
X119462857Y-102978524D01*
X119462857Y-102978524D02*
X119081905Y-102978524D01*
X119986667Y-102454715D02*
X120653333Y-102454715D01*
X120653333Y-102454715D02*
X120224762Y-103454715D01*
X113221905Y-111704715D02*
X113221905Y-110704715D01*
X113221905Y-110704715D02*
X113460000Y-110704715D01*
X113460000Y-110704715D02*
X113602857Y-110752334D01*
X113602857Y-110752334D02*
X113698095Y-110847572D01*
X113698095Y-110847572D02*
X113745714Y-110942810D01*
X113745714Y-110942810D02*
X113793333Y-111133286D01*
X113793333Y-111133286D02*
X113793333Y-111276143D01*
X113793333Y-111276143D02*
X113745714Y-111466619D01*
X113745714Y-111466619D02*
X113698095Y-111561857D01*
X113698095Y-111561857D02*
X113602857Y-111657096D01*
X113602857Y-111657096D02*
X113460000Y-111704715D01*
X113460000Y-111704715D02*
X113221905Y-111704715D01*
X114650476Y-111038048D02*
X114650476Y-111704715D01*
X114412381Y-110657096D02*
X114174286Y-111371381D01*
X114174286Y-111371381D02*
X114793333Y-111371381D01*
X120153333Y-84834715D02*
X119820000Y-84358524D01*
X119581905Y-84834715D02*
X119581905Y-83834715D01*
X119581905Y-83834715D02*
X119962857Y-83834715D01*
X119962857Y-83834715D02*
X120058095Y-83882334D01*
X120058095Y-83882334D02*
X120105714Y-83929953D01*
X120105714Y-83929953D02*
X120153333Y-84025191D01*
X120153333Y-84025191D02*
X120153333Y-84168048D01*
X120153333Y-84168048D02*
X120105714Y-84263286D01*
X120105714Y-84263286D02*
X120058095Y-84310905D01*
X120058095Y-84310905D02*
X119962857Y-84358524D01*
X119962857Y-84358524D02*
X119581905Y-84358524D01*
X121058095Y-83834715D02*
X120581905Y-83834715D01*
X120581905Y-83834715D02*
X120534286Y-84310905D01*
X120534286Y-84310905D02*
X120581905Y-84263286D01*
X120581905Y-84263286D02*
X120677143Y-84215667D01*
X120677143Y-84215667D02*
X120915238Y-84215667D01*
X120915238Y-84215667D02*
X121010476Y-84263286D01*
X121010476Y-84263286D02*
X121058095Y-84310905D01*
X121058095Y-84310905D02*
X121105714Y-84406143D01*
X121105714Y-84406143D02*
X121105714Y-84644238D01*
X121105714Y-84644238D02*
X121058095Y-84739476D01*
X121058095Y-84739476D02*
X121010476Y-84787096D01*
X121010476Y-84787096D02*
X120915238Y-84834715D01*
X120915238Y-84834715D02*
X120677143Y-84834715D01*
X120677143Y-84834715D02*
X120581905Y-84787096D01*
X120581905Y-84787096D02*
X120534286Y-84739476D01*
X113081905Y-83704715D02*
X113081905Y-82704715D01*
X113081905Y-82704715D02*
X113320000Y-82704715D01*
X113320000Y-82704715D02*
X113462857Y-82752334D01*
X113462857Y-82752334D02*
X113558095Y-82847572D01*
X113558095Y-82847572D02*
X113605714Y-82942810D01*
X113605714Y-82942810D02*
X113653333Y-83133286D01*
X113653333Y-83133286D02*
X113653333Y-83276143D01*
X113653333Y-83276143D02*
X113605714Y-83466619D01*
X113605714Y-83466619D02*
X113558095Y-83561857D01*
X113558095Y-83561857D02*
X113462857Y-83657096D01*
X113462857Y-83657096D02*
X113320000Y-83704715D01*
X113320000Y-83704715D02*
X113081905Y-83704715D01*
X114605714Y-83704715D02*
X114034286Y-83704715D01*
X114320000Y-83704715D02*
X114320000Y-82704715D01*
X114320000Y-82704715D02*
X114224762Y-82847572D01*
X114224762Y-82847572D02*
X114129524Y-82942810D01*
X114129524Y-82942810D02*
X114034286Y-82990429D01*
X140133333Y-69554715D02*
X139800000Y-69078524D01*
X139561905Y-69554715D02*
X139561905Y-68554715D01*
X139561905Y-68554715D02*
X139942857Y-68554715D01*
X139942857Y-68554715D02*
X140038095Y-68602334D01*
X140038095Y-68602334D02*
X140085714Y-68649953D01*
X140085714Y-68649953D02*
X140133333Y-68745191D01*
X140133333Y-68745191D02*
X140133333Y-68888048D01*
X140133333Y-68888048D02*
X140085714Y-68983286D01*
X140085714Y-68983286D02*
X140038095Y-69030905D01*
X140038095Y-69030905D02*
X139942857Y-69078524D01*
X139942857Y-69078524D02*
X139561905Y-69078524D01*
X140609524Y-69554715D02*
X140800000Y-69554715D01*
X140800000Y-69554715D02*
X140895238Y-69507096D01*
X140895238Y-69507096D02*
X140942857Y-69459476D01*
X140942857Y-69459476D02*
X141038095Y-69316619D01*
X141038095Y-69316619D02*
X141085714Y-69126143D01*
X141085714Y-69126143D02*
X141085714Y-68745191D01*
X141085714Y-68745191D02*
X141038095Y-68649953D01*
X141038095Y-68649953D02*
X140990476Y-68602334D01*
X140990476Y-68602334D02*
X140895238Y-68554715D01*
X140895238Y-68554715D02*
X140704762Y-68554715D01*
X140704762Y-68554715D02*
X140609524Y-68602334D01*
X140609524Y-68602334D02*
X140561905Y-68649953D01*
X140561905Y-68649953D02*
X140514286Y-68745191D01*
X140514286Y-68745191D02*
X140514286Y-68983286D01*
X140514286Y-68983286D02*
X140561905Y-69078524D01*
X140561905Y-69078524D02*
X140609524Y-69126143D01*
X140609524Y-69126143D02*
X140704762Y-69173762D01*
X140704762Y-69173762D02*
X140895238Y-69173762D01*
X140895238Y-69173762D02*
X140990476Y-69126143D01*
X140990476Y-69126143D02*
X141038095Y-69078524D01*
X141038095Y-69078524D02*
X141085714Y-68983286D01*
X166840000Y-71650000D02*
X166840000Y-75410000D01*
X166840000Y-75410000D02*
X168100000Y-75410000D01*
X173660000Y-71650000D02*
X173660000Y-75410000D01*
X173660000Y-75410000D02*
X172400000Y-75410000D01*
X173890000Y-70610000D02*
X173560000Y-70370000D01*
X173890000Y-70130000D01*
X173890000Y-70610000D01*
G36*
X173890000Y-70610000D02*
G01*
X173560000Y-70370000D01*
X173890000Y-70130000D01*
X173890000Y-70610000D01*
G37*
X165610500Y-105475000D02*
X165610500Y-105475000D01*
X165610500Y-105475000D02*
X165610500Y-105475000D01*
X165610500Y-105475000D02*
X187210500Y-105475000D01*
X165610500Y-120925000D02*
X165610500Y-105475000D01*
X165610500Y-120925000D02*
X165610500Y-105475000D01*
X165940500Y-106051000D02*
X165940500Y-106051000D01*
X165940500Y-106051000D02*
X165940500Y-106051000D01*
X165940500Y-106051000D02*
X171274500Y-106051000D01*
X165940500Y-106051000D02*
X171274500Y-106051000D01*
X165940500Y-116719000D02*
X165940500Y-106051000D01*
X165940500Y-116719000D02*
X165940500Y-106051000D01*
X165940500Y-116719000D02*
X165940500Y-116719000D01*
X165940500Y-116719000D02*
X165940500Y-116719000D01*
X171274500Y-106051000D02*
X171274500Y-116719000D01*
X171274500Y-106051000D02*
X171274500Y-116719000D01*
X171274500Y-116719000D02*
X165940500Y-116719000D01*
X171274500Y-116719000D02*
X165940500Y-116719000D01*
X187210500Y-105475000D02*
X187210500Y-120875000D01*
X187210500Y-120875000D02*
X165610500Y-120925000D01*
X165410500Y-107575000D02*
X165074500Y-107815000D01*
X165074500Y-107335000D01*
X165410500Y-107575000D01*
G36*
X165410500Y-107575000D02*
G01*
X165074500Y-107815000D01*
X165074500Y-107335000D01*
X165410500Y-107575000D01*
G37*
X165410500Y-107575000D02*
X165074500Y-107815000D01*
X165074500Y-107335000D01*
X165410500Y-107575000D01*
G36*
X165410500Y-107575000D02*
G01*
X165074500Y-107815000D01*
X165074500Y-107335000D01*
X165410500Y-107575000D01*
G37*
X148270000Y-121860000D02*
X148270000Y-127960000D01*
X148270000Y-121860000D02*
X163720000Y-121860000D01*
X148270000Y-132960000D02*
X148270000Y-127960000D01*
X152476000Y-122190000D02*
X152476000Y-122190000D01*
X152476000Y-122190000D02*
X163144000Y-122190000D01*
X152476000Y-127524000D02*
X152476000Y-122190000D01*
X163144000Y-122190000D02*
X163144000Y-122190000D01*
X163144000Y-122190000D02*
X163144000Y-127524000D01*
X163144000Y-127524000D02*
X152476000Y-127524000D01*
X163720000Y-121860000D02*
X163720000Y-121860000D01*
X163720000Y-121860000D02*
X163720000Y-132960000D01*
X163720000Y-132960000D02*
X148270000Y-132960000D01*
X161620000Y-121660000D02*
X161380000Y-121324000D01*
X161860000Y-121324000D01*
X161620000Y-121660000D01*
G36*
X161620000Y-121660000D02*
G01*
X161380000Y-121324000D01*
X161860000Y-121324000D01*
X161620000Y-121660000D01*
G37*
X128495000Y-66815000D02*
X151245000Y-66815000D01*
X128495000Y-119965000D02*
X128495000Y-66815000D01*
X130920000Y-67930000D02*
X132250000Y-67930000D01*
X130920000Y-69260000D02*
X130920000Y-67930000D01*
X130920000Y-70530000D02*
X133580000Y-70530000D01*
X130920000Y-118850000D02*
X130920000Y-70530000D01*
X133580000Y-70530000D02*
X133580000Y-118850000D01*
X133580000Y-118850000D02*
X130920000Y-118850000D01*
X134607533Y-75162277D02*
X134607533Y-80962277D01*
X134707533Y-81062277D02*
X138007533Y-81062277D01*
X134730000Y-112380000D02*
X134730000Y-115040000D01*
X134730000Y-115040000D02*
X145010000Y-115040000D01*
X135357533Y-75962277D02*
X135357533Y-75312277D01*
X135357533Y-79462277D02*
X135357533Y-76662277D01*
X135357533Y-80812277D02*
X135357533Y-80162277D01*
X135457533Y-75212277D02*
X137257533Y-75212277D01*
X135457533Y-76562277D02*
X137257533Y-76562277D01*
X135457533Y-80062277D02*
X137257533Y-80062277D01*
X137257533Y-76062277D02*
X135457533Y-76062277D01*
X137257533Y-79562277D02*
X135457533Y-79562277D01*
X137257533Y-80912277D02*
X135457533Y-80912277D01*
X137357533Y-75312277D02*
X137357533Y-75962277D01*
X137357533Y-75962277D02*
X137257533Y-76062277D01*
X137357533Y-76662277D02*
X137357533Y-79462277D01*
X137357533Y-80162277D02*
X137357533Y-80812277D01*
X138007533Y-75062277D02*
X134707533Y-75062277D01*
X138012017Y-75062378D02*
X138007533Y-75062277D01*
X138107533Y-80962277D02*
X138107533Y-75162277D01*
X139499000Y-75762003D02*
X139499000Y-75951106D01*
X139499000Y-76491170D02*
X139499000Y-76525124D01*
X139499000Y-76574503D02*
X139499000Y-76619375D01*
X139500000Y-80350000D02*
X139500000Y-75470000D01*
X139500000Y-80350000D02*
X139500000Y-80750000D01*
X139500000Y-80750000D02*
X139500000Y-82690000D01*
X139500000Y-82690000D02*
X139800000Y-82990000D01*
X139600000Y-75370000D02*
X144480000Y-75370000D01*
X139800000Y-82990000D02*
X144280000Y-82990000D01*
X140170000Y-76040000D02*
X141370000Y-76040000D01*
X140170000Y-79780000D02*
X140170000Y-76040000D01*
X140451801Y-76321801D02*
X141088198Y-76321801D01*
X140451801Y-76958198D02*
X140451801Y-76321801D01*
X140451801Y-78861801D02*
X141088198Y-78861801D01*
X140451801Y-79498198D02*
X140451801Y-78861801D01*
X140451801Y-81401801D02*
X141088198Y-81401801D01*
X140451801Y-82038198D02*
X140451801Y-81401801D01*
X141088198Y-76321801D02*
X141088198Y-76958198D01*
X141088198Y-76958198D02*
X140451801Y-76958198D01*
X141088198Y-78861801D02*
X141088198Y-79498198D01*
X141088198Y-79498198D02*
X140451801Y-79498198D01*
X141088198Y-81401801D02*
X141088198Y-82038198D01*
X141088198Y-82038198D02*
X140451801Y-82038198D01*
X141370000Y-76040000D02*
X141370000Y-79780000D01*
X141370000Y-79780000D02*
X140170000Y-79780000D01*
X141581472Y-75369000D02*
X141392369Y-75369000D01*
X141940000Y-80450000D02*
X139600000Y-80450000D01*
X141940000Y-80450000D02*
X141940000Y-75381400D01*
X142140000Y-75381400D02*
X142140000Y-80450000D01*
X142710000Y-76040000D02*
X143910000Y-76040000D01*
X142710000Y-79780000D02*
X142710000Y-76040000D01*
X142991801Y-76321801D02*
X143628198Y-76321801D01*
X142991801Y-76958198D02*
X142991801Y-76321801D01*
X142991801Y-78861801D02*
X143628198Y-78861801D01*
X142991801Y-79498198D02*
X142991801Y-78861801D01*
X142991801Y-81401801D02*
X143628198Y-81401801D01*
X142991801Y-82038198D02*
X142991801Y-81401801D01*
X143628198Y-76321801D02*
X143628198Y-76958198D01*
X143628198Y-76958198D02*
X142991801Y-76958198D01*
X143628198Y-78861801D02*
X143628198Y-79498198D01*
X143628198Y-79498198D02*
X142991801Y-79498198D01*
X143628198Y-81401801D02*
X143628198Y-82038198D01*
X143628198Y-82038198D02*
X142991801Y-82038198D01*
X143910000Y-76040000D02*
X143910000Y-79780000D01*
X143910000Y-79780000D02*
X142710000Y-79780000D01*
X144280000Y-82990000D02*
X144580000Y-82690000D01*
X144480000Y-80450000D02*
X142140000Y-80450000D01*
X144580000Y-75470000D02*
X144580000Y-80350000D01*
X144580000Y-80750000D02*
X144580000Y-80350000D01*
X144580000Y-82690000D02*
X144580000Y-80750000D01*
X145010000Y-112380000D02*
X134730000Y-112380000D01*
X145010000Y-115040000D02*
X145010000Y-112380000D01*
X146220000Y-67990000D02*
X148760000Y-67990000D01*
X146220000Y-118790000D02*
X146220000Y-67990000D01*
X148760000Y-67990000D02*
X148760000Y-118790000D01*
X148760000Y-118790000D02*
X146220000Y-118790000D01*
X151245000Y-66815000D02*
X151245000Y-119965000D01*
X151245000Y-119965000D02*
X128495000Y-119965000D01*
X134607533Y-75162277D02*
G75*
G02*
X134707533Y-75062273I100067J-63D01*
G01*
X134707533Y-81062277D02*
G75*
G02*
X134607523Y-80962277I-33J99977D01*
G01*
X135357533Y-75312277D02*
G75*
G02*
X135457533Y-75212233I100067J-23D01*
G01*
X135357533Y-76662277D02*
G75*
G02*
X135457533Y-76562233I100067J-23D01*
G01*
X135357533Y-80162277D02*
G75*
G02*
X135457533Y-80062233I100067J-23D01*
G01*
X135457533Y-76062277D02*
G75*
G02*
X135357523Y-75962277I-33J99977D01*
G01*
X135457533Y-79562277D02*
G75*
G02*
X135357523Y-79462277I-33J99977D01*
G01*
X135457533Y-80912277D02*
G75*
G02*
X135357523Y-80812277I-33J99977D01*
G01*
X137257533Y-75212277D02*
G75*
G02*
X137357523Y-75312277I-33J-100023D01*
G01*
X137257533Y-76562277D02*
G75*
G02*
X137357523Y-76662277I-33J-100023D01*
G01*
X137257533Y-80062277D02*
G75*
G02*
X137357523Y-80162277I-33J-100023D01*
G01*
X137357533Y-79462277D02*
G75*
G02*
X137257533Y-79562233I-99933J-23D01*
G01*
X137357533Y-80812277D02*
G75*
G02*
X137257533Y-80912233I-99933J-23D01*
G01*
X138007533Y-75062277D02*
G75*
G02*
X138107523Y-75162277I-33J-100023D01*
G01*
X138107533Y-80962277D02*
G75*
G02*
X138007533Y-81062233I-99933J-23D01*
G01*
X139500000Y-75470000D02*
G75*
G02*
X139600000Y-75370000I100000J0D01*
G01*
X139600000Y-80450000D02*
G75*
G02*
X139500000Y-80350000I0J100000D01*
G01*
X144480000Y-75370000D02*
G75*
G02*
X144580000Y-75470000I0J-100000D01*
G01*
X144579999Y-80350000D02*
G75*
G02*
X144480000Y-80449999I-99999J0D01*
G01*
X136321620Y-114063060D02*
X135813620Y-114063060D01*
X135813620Y-113555060D01*
X136321620Y-113555060D01*
X136321620Y-114063060D01*
G36*
X136321620Y-114063060D02*
G01*
X135813620Y-114063060D01*
X135813620Y-113555060D01*
X136321620Y-113555060D01*
X136321620Y-114063060D01*
G37*
X138861620Y-114063060D02*
X138353620Y-114063060D01*
X138353620Y-113555060D01*
X138861620Y-113555060D01*
X138861620Y-114063060D01*
G36*
X138861620Y-114063060D02*
G01*
X138353620Y-114063060D01*
X138353620Y-113555060D01*
X138861620Y-113555060D01*
X138861620Y-114063060D01*
G37*
X141401620Y-114063060D02*
X140893620Y-114063060D01*
X140893620Y-113555060D01*
X141401620Y-113555060D01*
X141401620Y-114063060D01*
G36*
X141401620Y-114063060D02*
G01*
X140893620Y-114063060D01*
X140893620Y-113555060D01*
X141401620Y-113555060D01*
X141401620Y-114063060D01*
G37*
X143941620Y-114063060D02*
X143433620Y-114063060D01*
X143433620Y-113555060D01*
X143941620Y-113555060D01*
X143941620Y-114063060D01*
G36*
X143941620Y-114063060D02*
G01*
X143433620Y-114063060D01*
X143433620Y-113555060D01*
X143941620Y-113555060D01*
X143941620Y-114063060D01*
G37*
X131522936Y-128265000D02*
X131977064Y-128265000D01*
X131522936Y-129735000D02*
X131977064Y-129735000D01*
X112490000Y-103644000D02*
X112490000Y-103800000D01*
X112490000Y-105960000D02*
X112490000Y-106116000D01*
X112490000Y-103644484D02*
G75*
G02*
X115722335Y-103801392I1560000J-1235516D01*
G01*
X113009039Y-103800000D02*
G75*
G02*
X115091130Y-103800163I1040961J-1080000D01*
G01*
X115091130Y-105959837D02*
G75*
G02*
X113009039Y-105960000I-1041130J1079837D01*
G01*
X115722335Y-105958608D02*
G75*
G02*
X112490000Y-106115516I-1672335J1078608D01*
G01*
X125477064Y-118765000D02*
X125022936Y-118765000D01*
X125477064Y-120235000D02*
X125022936Y-120235000D01*
X166010500Y-87480000D02*
X166010500Y-87480000D01*
X166010500Y-87480000D02*
X187610500Y-87480000D01*
X166010500Y-102930000D02*
X166010500Y-87480000D01*
X166340500Y-88056000D02*
X166340500Y-88056000D01*
X166340500Y-88056000D02*
X171674500Y-88056000D01*
X166340500Y-98724000D02*
X166340500Y-88056000D01*
X166340500Y-98724000D02*
X166340500Y-98724000D01*
X171674500Y-88056000D02*
X171674500Y-98724000D01*
X171674500Y-98724000D02*
X166340500Y-98724000D01*
X187610500Y-87480000D02*
X187610500Y-102880000D01*
X187610500Y-102880000D02*
X166010500Y-102930000D01*
X165810500Y-89580000D02*
X165474500Y-89820000D01*
X165474500Y-89340000D01*
X165810500Y-89580000D01*
G36*
X165810500Y-89580000D02*
G01*
X165474500Y-89820000D01*
X165474500Y-89340000D01*
X165810500Y-89580000D01*
G37*
X175240000Y-73250000D02*
X175240000Y-77635000D01*
X175240000Y-77635000D02*
X178260000Y-77635000D01*
X178260000Y-77635000D02*
X178260000Y-73250000D01*
X112490000Y-94644000D02*
X112490000Y-94800000D01*
X112490000Y-96960000D02*
X112490000Y-97116000D01*
X112490000Y-94644484D02*
G75*
G02*
X115722335Y-94801392I1560000J-1235516D01*
G01*
X113009039Y-94800000D02*
G75*
G02*
X115091130Y-94800163I1040961J-1080000D01*
G01*
X115091130Y-96959837D02*
G75*
G02*
X113009039Y-96960000I-1041130J1079837D01*
G01*
X115722335Y-96958608D02*
G75*
G02*
X112490000Y-97115516I-1672335J1078608D01*
G01*
X121350000Y-124695000D02*
X121350000Y-127355000D01*
X129030000Y-124695000D02*
X121350000Y-124695000D01*
X129030000Y-124695000D02*
X129030000Y-127355000D01*
X129030000Y-127355000D02*
X121350000Y-127355000D01*
X131630000Y-126025000D02*
X131630000Y-127355000D01*
X131630000Y-127355000D02*
X130300000Y-127355000D01*
X136872936Y-73235000D02*
X137327064Y-73235000D01*
X136872936Y-71765000D02*
X137327064Y-71765000D01*
X120227064Y-113765000D02*
X119772936Y-113765000D01*
X120227064Y-115235000D02*
X119772936Y-115235000D01*
X162360000Y-66795563D02*
X162360000Y-59140000D01*
X162360000Y-59140000D02*
X159510000Y-59140000D01*
X161295563Y-67860000D02*
X162360000Y-66795563D01*
X161295563Y-67860000D02*
X159510000Y-67860000D01*
X155490000Y-69100000D02*
X155490000Y-68100000D01*
X154990000Y-68600000D02*
X155990000Y-68600000D01*
X154704437Y-67860000D02*
X156490000Y-67860000D01*
X154704437Y-67860000D02*
X153640000Y-66795563D01*
X153640000Y-66795563D02*
X153640000Y-59140000D01*
X153640000Y-59140000D02*
X156490000Y-59140000D01*
X167300000Y-51600000D02*
X176500000Y-51600000D01*
X167300000Y-60400000D02*
X167300000Y-51600000D01*
X167300000Y-66300000D02*
X167300000Y-64400000D01*
X170000000Y-66300000D02*
X167300000Y-66300000D01*
X175650000Y-66500000D02*
X176700000Y-66500000D01*
X176500000Y-51600000D02*
X176500000Y-66300000D01*
X176500000Y-66300000D02*
X173900000Y-66300000D01*
X176700000Y-65450000D02*
X176700000Y-66500000D01*
X120047064Y-95145000D02*
X119592936Y-95145000D01*
X120047064Y-96615000D02*
X119592936Y-96615000D01*
X163840000Y-71538748D02*
X163840000Y-72961252D01*
X165660000Y-71538748D02*
X165660000Y-72961252D01*
X124372936Y-66265000D02*
X124827064Y-66265000D01*
X124372936Y-67735000D02*
X124827064Y-67735000D01*
X120047064Y-104265000D02*
X119592936Y-104265000D01*
X120047064Y-105735000D02*
X119592936Y-105735000D01*
X112530000Y-113144000D02*
X112530000Y-113300000D01*
X112530000Y-115460000D02*
X112530000Y-115616000D01*
X112530000Y-113144484D02*
G75*
G02*
X115762335Y-113301392I1560000J-1235516D01*
G01*
X113049039Y-113300000D02*
G75*
G02*
X115131130Y-113300163I1040961J-1080000D01*
G01*
X115131130Y-115459837D02*
G75*
G02*
X113049039Y-115460000I-1041130J1079837D01*
G01*
X115762335Y-115458608D02*
G75*
G02*
X112530000Y-115615516I-1672335J1078608D01*
G01*
X133150000Y-52100000D02*
X148650000Y-52100000D01*
X133150000Y-57890000D02*
X148600000Y-57890000D01*
X133150000Y-60060000D02*
X133150000Y-52100000D01*
X133150000Y-60060000D02*
X148640000Y-60050000D01*
X148640000Y-60050000D02*
X148650000Y-52100000D01*
X148650000Y-59250000D02*
X149300000Y-59250000D01*
X149300000Y-57850000D02*
X148700000Y-57850000D01*
X149300000Y-57850000D02*
X149300000Y-59250000D01*
X111250000Y-79800000D02*
X111250000Y-64300000D01*
X117000000Y-63650000D02*
X117000000Y-64250000D01*
X117000000Y-63650000D02*
X118400000Y-63650000D01*
X117040000Y-79800000D02*
X117040000Y-64350000D01*
X118400000Y-64300000D02*
X118400000Y-63650000D01*
X119200000Y-64310000D02*
X111250000Y-64300000D01*
X119210000Y-79800000D02*
X111250000Y-79800000D01*
X119210000Y-79800000D02*
X119200000Y-64310000D01*
X120547064Y-85645000D02*
X120092936Y-85645000D01*
X120547064Y-87115000D02*
X120092936Y-87115000D01*
X112255000Y-85144000D02*
X112255000Y-85300000D01*
X112255000Y-87460000D02*
X112255000Y-87616000D01*
X112255000Y-85144484D02*
G75*
G02*
X115487335Y-85301392I1560000J-1235516D01*
G01*
X112774039Y-85300000D02*
G75*
G02*
X114856130Y-85300163I1040961J-1080000D01*
G01*
X114856130Y-87459837D02*
G75*
G02*
X112774039Y-87460000I-1041130J1079837D01*
G01*
X115487335Y-87458608D02*
G75*
G02*
X112255000Y-87615516I-1672335J1078608D01*
G01*
X123350000Y-54775000D02*
X123400000Y-54775000D01*
X123350000Y-59675000D02*
X123350000Y-54775000D01*
X123350000Y-59675000D02*
X123400000Y-59675000D01*
X125050000Y-54775000D02*
X126550000Y-54775000D01*
X125050000Y-59675000D02*
X126550000Y-59675000D01*
X128250000Y-54775000D02*
X128200000Y-54775000D01*
X128250000Y-59675000D02*
X128200000Y-59675000D01*
X128250000Y-59675000D02*
X128250000Y-54775000D01*
X136872936Y-69735000D02*
X137327064Y-69735000D01*
X136872936Y-68265000D02*
X137327064Y-68265000D01*
%LPC*%
D12*
X123600000Y-77200000D03*
X125600000Y-77200000D03*
D13*
X172550000Y-70350000D03*
X170250000Y-70350000D03*
D14*
X170250000Y-76650000D03*
D13*
X167950000Y-70350000D03*
D15*
X167210500Y-107575000D03*
D16*
X169750500Y-107575000D03*
X167210500Y-110115000D03*
X169750500Y-110115000D03*
X167210500Y-112655000D03*
X169750500Y-112655000D03*
X167210500Y-115195000D03*
X169750500Y-115195000D03*
D15*
X161620000Y-123460000D03*
D16*
X161620000Y-126000000D03*
X159080000Y-123460000D03*
X159080000Y-126000000D03*
X156540000Y-123460000D03*
X156540000Y-126000000D03*
X154000000Y-123460000D03*
X154000000Y-126000000D03*
D15*
X132250000Y-69260000D03*
D16*
X132250000Y-71800000D03*
X132250000Y-74340000D03*
X132250000Y-76880000D03*
X132250000Y-79420000D03*
X132250000Y-81960000D03*
X132250000Y-84500000D03*
X132250000Y-87040000D03*
X132250000Y-89580000D03*
X132250000Y-92120000D03*
X132250000Y-94660000D03*
X132250000Y-97200000D03*
X132250000Y-99740000D03*
X132250000Y-102280000D03*
X132250000Y-104820000D03*
X132250000Y-107360000D03*
X132250000Y-109900000D03*
X132250000Y-112440000D03*
X132250000Y-114980000D03*
X132250000Y-117520000D03*
X147490000Y-117520000D03*
X147490000Y-114980000D03*
X147490000Y-112440000D03*
X147490000Y-109900000D03*
X147490000Y-107360000D03*
X147490000Y-104820000D03*
X147490000Y-102280000D03*
X147490000Y-99740000D03*
X147490000Y-97200000D03*
X147490000Y-94660000D03*
X147490000Y-92120000D03*
X147490000Y-89580000D03*
X147490000Y-87040000D03*
X147490000Y-84500000D03*
X147490000Y-81960000D03*
X147490000Y-79420000D03*
X147490000Y-76880000D03*
X147490000Y-74340000D03*
X147490000Y-71800000D03*
X147490000Y-69260000D03*
D12*
X130750000Y-129000000D03*
X132750000Y-129000000D03*
D17*
X112780000Y-104880000D03*
D18*
X115320000Y-104880000D03*
D19*
X185000000Y-128500000D03*
D20*
X126250000Y-119500000D03*
X124250000Y-119500000D03*
D15*
X167610500Y-89580000D03*
D16*
X170150500Y-89580000D03*
X167610500Y-92120000D03*
X170150500Y-92120000D03*
X167610500Y-94660000D03*
X170150500Y-94660000D03*
X167610500Y-97200000D03*
X170150500Y-97200000D03*
D21*
X176750000Y-76625000D03*
X176750000Y-73375000D03*
D17*
X112780000Y-95880000D03*
D18*
X115320000Y-95880000D03*
D15*
X130300000Y-126025000D03*
D22*
X127760000Y-126025000D03*
X125220000Y-126025000D03*
X122680000Y-126025000D03*
D12*
X138100000Y-72500000D03*
X136100000Y-72500000D03*
D19*
X185000000Y-56000000D03*
D20*
X121000000Y-114500000D03*
X119000000Y-114500000D03*
D23*
X158000000Y-59800000D03*
X158000000Y-67200000D03*
D24*
X171900000Y-65400000D03*
D25*
X171900000Y-59400000D03*
D26*
X167200000Y-62400000D03*
D20*
X120820000Y-95880000D03*
X118820000Y-95880000D03*
D27*
X164750000Y-70687500D03*
X164750000Y-73812500D03*
D12*
X123600000Y-67000000D03*
X125600000Y-67000000D03*
D20*
X120820000Y-105000000D03*
X118820000Y-105000000D03*
D17*
X112820000Y-114380000D03*
D18*
X115360000Y-114380000D03*
D28*
X135950000Y-55350000D03*
D29*
X141030000Y-55350000D03*
X146110000Y-55350000D03*
D28*
X114500000Y-77000000D03*
D29*
X114500000Y-71920000D03*
X114500000Y-66840000D03*
D20*
X121320000Y-86380000D03*
X119320000Y-86380000D03*
D17*
X112545000Y-86380000D03*
D18*
X115085000Y-86380000D03*
D30*
X124200000Y-59850000D03*
X124200000Y-54600000D03*
X127400000Y-59850000D03*
X127400000Y-54600000D03*
D12*
X138100000Y-69000000D03*
X136100000Y-69000000D03*
D19*
X115500000Y-56000000D03*
X115500000Y-128500000D03*
%LPD*%
M02*
