%TF.GenerationSoftware,KiCad,Pcbnew,8.0.4*%
%TF.CreationDate,2024-07-20T22:01:12+05:30*%
%TF.ProjectId,OTAPS,4f544150-532e-46b6-9963-61645f706362,1*%
%TF.SameCoordinates,Original*%
%TF.FileFunction,Drillmap*%
%TF.FilePolarity,Positive*%
%FSLAX45Y45*%
G04 Gerber Fmt 4.5, Leading zero omitted, Abs format (unit mm)*
G04 Created by KiCad (PCBNEW 8.0.4) date 2024-07-20 22:01:12*
%MOMM*%
%LPD*%
G01*
G04 APERTURE LIST*
%ADD10C,0.050000*%
%ADD11C,0.200000*%
%ADD12C,0.100000*%
%ADD13C,0.130000*%
%ADD14C,0.152000*%
%ADD15C,0.320000*%
G04 APERTURE END LIST*
D10*
X10979912Y-12850000D02*
X10979912Y-5600000D01*
X18490000Y-13420088D02*
X11550000Y-13420088D01*
X19070088Y-5600000D02*
X19060088Y-12850000D01*
X11550000Y-5029912D02*
X18500000Y-5029912D01*
X19060088Y-12850000D02*
G75*
G02*
X18490000Y-13420088I-570088J0D01*
G01*
X11550000Y-13420088D02*
G75*
G02*
X10979912Y-12850000I0J570088D01*
G01*
X18500000Y-5029912D02*
G75*
G02*
X19070088Y-5600000I0J-570088D01*
G01*
X10979912Y-5600000D02*
G75*
G02*
X11550000Y-5029912I570088J0D01*
G01*
D11*
D12*
X15530000Y-6080000D02*
X15570000Y-6120000D01*
X15570000Y-6080000D02*
X15530000Y-6120000D01*
X15780000Y-5620000D02*
X15820000Y-5660000D01*
X15820000Y-5620000D02*
X15780000Y-5660000D01*
X16030000Y-6080000D02*
X16070000Y-6120000D01*
X16070000Y-6080000D02*
X16030000Y-6120000D01*
X16230000Y-7380000D02*
X16270000Y-7420000D01*
X16270000Y-7380000D02*
X16230000Y-7420000D01*
X16240000Y-7560000D02*
X16280000Y-7600000D01*
X16280000Y-7560000D02*
X16240000Y-7600000D01*
X16480000Y-7580000D02*
X16520000Y-7620000D01*
X16520000Y-7580000D02*
X16480000Y-7620000D01*
X16755000Y-8305000D02*
X16795000Y-8345000D01*
X16795000Y-8305000D02*
X16755000Y-8345000D01*
X16980000Y-8530000D02*
X17020000Y-8570000D01*
X17020000Y-8530000D02*
X16980000Y-8570000D01*
X17480000Y-7030000D02*
X17520000Y-7070000D01*
X17520000Y-7030000D02*
X17480000Y-7070000D01*
X17660000Y-7110000D02*
X17700000Y-7150000D01*
X17700000Y-7110000D02*
X17660000Y-7150000D01*
X17810000Y-7030000D02*
X17850000Y-7070000D01*
X17850000Y-7030000D02*
X17810000Y-7070000D01*
X16230000Y-8311000D02*
G75*
G02*
X16150000Y-8311000I-40000J0D01*
G01*
X16150000Y-8311000D02*
G75*
G02*
X16230000Y-8311000I40000J0D01*
G01*
X16230000Y-8565000D02*
G75*
G02*
X16150000Y-8565000I-40000J0D01*
G01*
X16150000Y-8565000D02*
G75*
G02*
X16230000Y-8565000I40000J0D01*
G01*
X16230000Y-8819000D02*
G75*
G02*
X16150000Y-8819000I-40000J0D01*
G01*
X16150000Y-8819000D02*
G75*
G02*
X16230000Y-8819000I40000J0D01*
G01*
X16230000Y-9073000D02*
G75*
G02*
X16150000Y-9073000I-40000J0D01*
G01*
X16150000Y-9073000D02*
G75*
G02*
X16230000Y-9073000I40000J0D01*
G01*
X16230000Y-9327000D02*
G75*
G02*
X16150000Y-9327000I-40000J0D01*
G01*
X16150000Y-9327000D02*
G75*
G02*
X16230000Y-9327000I40000J0D01*
G01*
X16230000Y-9581000D02*
G75*
G02*
X16150000Y-9581000I-40000J0D01*
G01*
X16150000Y-9581000D02*
G75*
G02*
X16230000Y-9581000I40000J0D01*
G01*
X16230000Y-9835000D02*
G75*
G02*
X16150000Y-9835000I-40000J0D01*
G01*
X16150000Y-9835000D02*
G75*
G02*
X16230000Y-9835000I40000J0D01*
G01*
X16230000Y-10089000D02*
G75*
G02*
X16150000Y-10089000I-40000J0D01*
G01*
X16150000Y-10089000D02*
G75*
G02*
X16230000Y-10089000I40000J0D01*
G01*
X18740000Y-8311000D02*
G75*
G02*
X18660000Y-8311000I-40000J0D01*
G01*
X18660000Y-8311000D02*
G75*
G02*
X18740000Y-8311000I40000J0D01*
G01*
X18740000Y-8565000D02*
G75*
G02*
X18660000Y-8565000I-40000J0D01*
G01*
X18660000Y-8565000D02*
G75*
G02*
X18740000Y-8565000I40000J0D01*
G01*
X18740000Y-8819000D02*
G75*
G02*
X18660000Y-8819000I-40000J0D01*
G01*
X18660000Y-8819000D02*
G75*
G02*
X18740000Y-8819000I40000J0D01*
G01*
X18740000Y-9073000D02*
G75*
G02*
X18660000Y-9073000I-40000J0D01*
G01*
X18660000Y-9073000D02*
G75*
G02*
X18740000Y-9073000I40000J0D01*
G01*
X18740000Y-9327000D02*
G75*
G02*
X18660000Y-9327000I-40000J0D01*
G01*
X18660000Y-9327000D02*
G75*
G02*
X18740000Y-9327000I40000J0D01*
G01*
X18740000Y-9581000D02*
G75*
G02*
X18660000Y-9581000I-40000J0D01*
G01*
X18660000Y-9581000D02*
G75*
G02*
X18740000Y-9581000I40000J0D01*
G01*
X18740000Y-9835000D02*
G75*
G02*
X18660000Y-9835000I-40000J0D01*
G01*
X18660000Y-9835000D02*
G75*
G02*
X18740000Y-9835000I40000J0D01*
G01*
X18740000Y-10089000D02*
G75*
G02*
X18660000Y-10089000I-40000J0D01*
G01*
X18660000Y-10089000D02*
G75*
G02*
X18740000Y-10089000I40000J0D01*
G01*
X17296000Y-11555000D02*
X17296000Y-11645000D01*
X17251000Y-11600000D02*
X17341000Y-11600000D01*
X17550000Y-11555000D02*
X17550000Y-11645000D01*
X17505000Y-11600000D02*
X17595000Y-11600000D01*
X17623500Y-12205000D02*
X17623500Y-12295000D01*
X17578500Y-12250000D02*
X17668500Y-12250000D01*
X17673500Y-10905000D02*
X17673500Y-10995000D01*
X17628500Y-10950000D02*
X17718500Y-10950000D01*
X17877500Y-12205000D02*
X17877500Y-12295000D01*
X17832500Y-12250000D02*
X17922500Y-12250000D01*
X17927500Y-10905000D02*
X17927500Y-10995000D01*
X17882500Y-10950000D02*
X17972500Y-10950000D01*
X17972500Y-11555000D02*
X17972500Y-11645000D01*
X17927500Y-11600000D02*
X18017500Y-11600000D01*
X18226500Y-11555000D02*
X18226500Y-11645000D01*
X18181500Y-11600000D02*
X18271500Y-11600000D01*
X12303356Y-12737856D02*
X12303356Y-12667144D01*
X12232644Y-12667144D01*
X12232644Y-12737856D01*
X12303356Y-12737856D01*
X12557356Y-12737856D02*
X12557356Y-12667144D01*
X12486644Y-12667144D01*
X12486644Y-12737856D01*
X12557356Y-12737856D01*
X12811356Y-12737856D02*
X12811356Y-12667144D01*
X12740644Y-12667144D01*
X12740644Y-12737856D01*
X12811356Y-12737856D01*
X13065356Y-12737856D02*
X13065356Y-12667144D01*
X12994644Y-12667144D01*
X12994644Y-12737856D01*
X13065356Y-12737856D01*
X13260356Y-6961356D02*
X13260356Y-6890644D01*
X13189644Y-6890644D01*
X13189644Y-6961356D01*
X13260356Y-6961356D01*
X13260356Y-7215356D02*
X13260356Y-7144644D01*
X13189644Y-7144644D01*
X13189644Y-7215356D01*
X13260356Y-7215356D01*
X13260356Y-7469356D02*
X13260356Y-7398644D01*
X13189644Y-7398644D01*
X13189644Y-7469356D01*
X13260356Y-7469356D01*
X13260356Y-7723356D02*
X13260356Y-7652644D01*
X13189644Y-7652644D01*
X13189644Y-7723356D01*
X13260356Y-7723356D01*
X13260356Y-7977356D02*
X13260356Y-7906644D01*
X13189644Y-7906644D01*
X13189644Y-7977356D01*
X13260356Y-7977356D01*
X13260356Y-8231356D02*
X13260356Y-8160644D01*
X13189644Y-8160644D01*
X13189644Y-8231356D01*
X13260356Y-8231356D01*
X13260356Y-8485356D02*
X13260356Y-8414644D01*
X13189644Y-8414644D01*
X13189644Y-8485356D01*
X13260356Y-8485356D01*
X13260356Y-8739356D02*
X13260356Y-8668644D01*
X13189644Y-8668644D01*
X13189644Y-8739356D01*
X13260356Y-8739356D01*
X13260356Y-8993356D02*
X13260356Y-8922644D01*
X13189644Y-8922644D01*
X13189644Y-8993356D01*
X13260356Y-8993356D01*
X13260356Y-9247356D02*
X13260356Y-9176644D01*
X13189644Y-9176644D01*
X13189644Y-9247356D01*
X13260356Y-9247356D01*
X13260356Y-9501356D02*
X13260356Y-9430644D01*
X13189644Y-9430644D01*
X13189644Y-9501356D01*
X13260356Y-9501356D01*
X13260356Y-9755356D02*
X13260356Y-9684644D01*
X13189644Y-9684644D01*
X13189644Y-9755356D01*
X13260356Y-9755356D01*
X13260356Y-10009356D02*
X13260356Y-9938644D01*
X13189644Y-9938644D01*
X13189644Y-10009356D01*
X13260356Y-10009356D01*
X13260356Y-10263356D02*
X13260356Y-10192644D01*
X13189644Y-10192644D01*
X13189644Y-10263356D01*
X13260356Y-10263356D01*
X13260356Y-10517356D02*
X13260356Y-10446644D01*
X13189644Y-10446644D01*
X13189644Y-10517356D01*
X13260356Y-10517356D01*
X13260356Y-10771356D02*
X13260356Y-10700644D01*
X13189644Y-10700644D01*
X13189644Y-10771356D01*
X13260356Y-10771356D01*
X13260356Y-11025356D02*
X13260356Y-10954644D01*
X13189644Y-10954644D01*
X13189644Y-11025356D01*
X13260356Y-11025356D01*
X13260356Y-11279356D02*
X13260356Y-11208644D01*
X13189644Y-11208644D01*
X13189644Y-11279356D01*
X13260356Y-11279356D01*
X13260356Y-11533356D02*
X13260356Y-11462644D01*
X13189644Y-11462644D01*
X13189644Y-11533356D01*
X13260356Y-11533356D01*
X13260356Y-11787356D02*
X13260356Y-11716644D01*
X13189644Y-11716644D01*
X13189644Y-11787356D01*
X13260356Y-11787356D01*
X14784356Y-6961356D02*
X14784356Y-6890644D01*
X14713644Y-6890644D01*
X14713644Y-6961356D01*
X14784356Y-6961356D01*
X14784356Y-7215356D02*
X14784356Y-7144644D01*
X14713644Y-7144644D01*
X14713644Y-7215356D01*
X14784356Y-7215356D01*
X14784356Y-7469356D02*
X14784356Y-7398644D01*
X14713644Y-7398644D01*
X14713644Y-7469356D01*
X14784356Y-7469356D01*
X14784356Y-7723356D02*
X14784356Y-7652644D01*
X14713644Y-7652644D01*
X14713644Y-7723356D01*
X14784356Y-7723356D01*
X14784356Y-7977356D02*
X14784356Y-7906644D01*
X14713644Y-7906644D01*
X14713644Y-7977356D01*
X14784356Y-7977356D01*
X14784356Y-8231356D02*
X14784356Y-8160644D01*
X14713644Y-8160644D01*
X14713644Y-8231356D01*
X14784356Y-8231356D01*
X14784356Y-8485356D02*
X14784356Y-8414644D01*
X14713644Y-8414644D01*
X14713644Y-8485356D01*
X14784356Y-8485356D01*
X14784356Y-8739356D02*
X14784356Y-8668644D01*
X14713644Y-8668644D01*
X14713644Y-8739356D01*
X14784356Y-8739356D01*
X14784356Y-8993356D02*
X14784356Y-8922644D01*
X14713644Y-8922644D01*
X14713644Y-8993356D01*
X14784356Y-8993356D01*
X14784356Y-9247356D02*
X14784356Y-9176644D01*
X14713644Y-9176644D01*
X14713644Y-9247356D01*
X14784356Y-9247356D01*
X14784356Y-9501356D02*
X14784356Y-9430644D01*
X14713644Y-9430644D01*
X14713644Y-9501356D01*
X14784356Y-9501356D01*
X14784356Y-9755356D02*
X14784356Y-9684644D01*
X14713644Y-9684644D01*
X14713644Y-9755356D01*
X14784356Y-9755356D01*
X14784356Y-10009356D02*
X14784356Y-9938644D01*
X14713644Y-9938644D01*
X14713644Y-10009356D01*
X14784356Y-10009356D01*
X14784356Y-10263356D02*
X14784356Y-10192644D01*
X14713644Y-10192644D01*
X14713644Y-10263356D01*
X14784356Y-10263356D01*
X14784356Y-10517356D02*
X14784356Y-10446644D01*
X14713644Y-10446644D01*
X14713644Y-10517356D01*
X14784356Y-10517356D01*
X14784356Y-10771356D02*
X14784356Y-10700644D01*
X14713644Y-10700644D01*
X14713644Y-10771356D01*
X14784356Y-10771356D01*
X14784356Y-11025356D02*
X14784356Y-10954644D01*
X14713644Y-10954644D01*
X14713644Y-11025356D01*
X14784356Y-11025356D01*
X14784356Y-11279356D02*
X14784356Y-11208644D01*
X14713644Y-11208644D01*
X14713644Y-11279356D01*
X14784356Y-11279356D01*
X14784356Y-11533356D02*
X14784356Y-11462644D01*
X14713644Y-11462644D01*
X14713644Y-11533356D01*
X14784356Y-11533356D01*
X14784356Y-11787356D02*
X14784356Y-11716644D01*
X14713644Y-11716644D01*
X14713644Y-11787356D01*
X14784356Y-11787356D01*
X16755356Y-6275356D02*
X16755356Y-6204644D01*
X16684644Y-6204644D01*
X16684644Y-6275356D01*
X16755356Y-6275356D01*
X16670000Y-6140000D02*
X16670000Y-6340000D01*
X16770000Y-6340000D02*
G75*
G02*
X16670000Y-6340000I-50000J0D01*
G01*
X16770000Y-6340000D02*
X16770000Y-6140000D01*
X16770000Y-6140000D02*
G75*
G03*
X16670000Y-6140000I-50000J0D01*
G01*
X17225356Y-5975356D02*
X17225356Y-5904644D01*
X17154644Y-5904644D01*
X17154644Y-5975356D01*
X17225356Y-5975356D01*
X17290000Y-5890000D02*
X17090000Y-5890000D01*
X17090000Y-5990000D02*
G75*
G02*
X17090000Y-5890000I0J50000D01*
G01*
X17090000Y-5990000D02*
X17290000Y-5990000D01*
X17290000Y-5990000D02*
G75*
G03*
X17290000Y-5890000I0J50000D01*
G01*
X17225356Y-6575356D02*
X17225356Y-6504644D01*
X17154644Y-6504644D01*
X17154644Y-6575356D01*
X17225356Y-6575356D01*
X17290000Y-6490000D02*
X17090000Y-6490000D01*
X17090000Y-6590000D02*
G75*
G02*
X17090000Y-6490000I0J50000D01*
G01*
X17090000Y-6590000D02*
X17290000Y-6590000D01*
X17290000Y-6590000D02*
G75*
G03*
X17290000Y-6490000I0J50000D01*
G01*
D13*
X11505500Y-8765000D02*
X11570500Y-8700000D01*
X11505500Y-8635000D01*
X11440500Y-8700000D01*
X11505500Y-8765000D01*
X11505500Y-9265000D02*
X11570500Y-9200000D01*
X11505500Y-9135000D01*
X11440500Y-9200000D01*
X11505500Y-9265000D01*
X11505500Y-9765000D02*
X11570500Y-9700000D01*
X11505500Y-9635000D01*
X11440500Y-9700000D01*
X11505500Y-9765000D01*
X11505500Y-10265000D02*
X11570500Y-10200000D01*
X11505500Y-10135000D01*
X11440500Y-10200000D01*
X11505500Y-10265000D01*
X11505500Y-10765000D02*
X11570500Y-10700000D01*
X11505500Y-10635000D01*
X11440500Y-10700000D01*
X11505500Y-10765000D01*
X11505500Y-11265000D02*
X11570500Y-11200000D01*
X11505500Y-11135000D01*
X11440500Y-11200000D01*
X11505500Y-11265000D01*
D14*
X11399000Y-6683000D02*
X11551000Y-6835000D01*
X11551000Y-6683000D02*
X11399000Y-6835000D01*
X11551000Y-6759000D02*
G75*
G02*
X11399000Y-6759000I-76000J0D01*
G01*
X11399000Y-6759000D02*
G75*
G02*
X11551000Y-6759000I76000J0D01*
G01*
X11399000Y-7191000D02*
X11551000Y-7343000D01*
X11551000Y-7191000D02*
X11399000Y-7343000D01*
X11551000Y-7267000D02*
G75*
G02*
X11399000Y-7267000I-76000J0D01*
G01*
X11399000Y-7267000D02*
G75*
G02*
X11551000Y-7267000I76000J0D01*
G01*
X11399000Y-7699000D02*
X11551000Y-7851000D01*
X11551000Y-7699000D02*
X11399000Y-7851000D01*
X11551000Y-7775000D02*
G75*
G02*
X11399000Y-7775000I-76000J0D01*
G01*
X11399000Y-7775000D02*
G75*
G02*
X11551000Y-7775000I76000J0D01*
G01*
D15*
X11390000Y-5440000D02*
X11710000Y-5760000D01*
X11710000Y-5440000D02*
X11390000Y-5760000D01*
X11550000Y-5440000D02*
X11550000Y-5760000D01*
X11390000Y-5600000D02*
X11710000Y-5600000D01*
X11390000Y-12690000D02*
X11710000Y-13010000D01*
X11710000Y-12690000D02*
X11390000Y-13010000D01*
X11550000Y-12690000D02*
X11550000Y-13010000D01*
X11390000Y-12850000D02*
X11710000Y-12850000D01*
X18340000Y-5440000D02*
X18660000Y-5760000D01*
X18660000Y-5440000D02*
X18340000Y-5760000D01*
X18500000Y-5440000D02*
X18500000Y-5760000D01*
X18340000Y-5600000D02*
X18660000Y-5600000D01*
X18340000Y-12690000D02*
X18660000Y-13010000D01*
X18660000Y-12690000D02*
X18340000Y-13010000D01*
X18500000Y-12690000D02*
X18500000Y-13010000D01*
X18340000Y-12850000D02*
X18660000Y-12850000D01*
D11*
X11238189Y-13734071D02*
X11238189Y-13534071D01*
X11238189Y-13534071D02*
X11285808Y-13534071D01*
X11285808Y-13534071D02*
X11314380Y-13543595D01*
X11314380Y-13543595D02*
X11333427Y-13562643D01*
X11333427Y-13562643D02*
X11342951Y-13581690D01*
X11342951Y-13581690D02*
X11352475Y-13619786D01*
X11352475Y-13619786D02*
X11352475Y-13648357D01*
X11352475Y-13648357D02*
X11342951Y-13686452D01*
X11342951Y-13686452D02*
X11333427Y-13705500D01*
X11333427Y-13705500D02*
X11314380Y-13724548D01*
X11314380Y-13724548D02*
X11285808Y-13734071D01*
X11285808Y-13734071D02*
X11238189Y-13734071D01*
X11438189Y-13734071D02*
X11438189Y-13600738D01*
X11438189Y-13638833D02*
X11447713Y-13619786D01*
X11447713Y-13619786D02*
X11457237Y-13610262D01*
X11457237Y-13610262D02*
X11476284Y-13600738D01*
X11476284Y-13600738D02*
X11495332Y-13600738D01*
X11561999Y-13734071D02*
X11561999Y-13600738D01*
X11561999Y-13534071D02*
X11552475Y-13543595D01*
X11552475Y-13543595D02*
X11561999Y-13553119D01*
X11561999Y-13553119D02*
X11571522Y-13543595D01*
X11571522Y-13543595D02*
X11561999Y-13534071D01*
X11561999Y-13534071D02*
X11561999Y-13553119D01*
X11685808Y-13734071D02*
X11666760Y-13724548D01*
X11666760Y-13724548D02*
X11657237Y-13705500D01*
X11657237Y-13705500D02*
X11657237Y-13534071D01*
X11790570Y-13734071D02*
X11771522Y-13724548D01*
X11771522Y-13724548D02*
X11761999Y-13705500D01*
X11761999Y-13705500D02*
X11761999Y-13534071D01*
X12019141Y-13734071D02*
X12019141Y-13534071D01*
X12019141Y-13534071D02*
X12085808Y-13676928D01*
X12085808Y-13676928D02*
X12152475Y-13534071D01*
X12152475Y-13534071D02*
X12152475Y-13734071D01*
X12333427Y-13734071D02*
X12333427Y-13629309D01*
X12333427Y-13629309D02*
X12323903Y-13610262D01*
X12323903Y-13610262D02*
X12304856Y-13600738D01*
X12304856Y-13600738D02*
X12266760Y-13600738D01*
X12266760Y-13600738D02*
X12247713Y-13610262D01*
X12333427Y-13724548D02*
X12314380Y-13734071D01*
X12314380Y-13734071D02*
X12266760Y-13734071D01*
X12266760Y-13734071D02*
X12247713Y-13724548D01*
X12247713Y-13724548D02*
X12238189Y-13705500D01*
X12238189Y-13705500D02*
X12238189Y-13686452D01*
X12238189Y-13686452D02*
X12247713Y-13667405D01*
X12247713Y-13667405D02*
X12266760Y-13657881D01*
X12266760Y-13657881D02*
X12314380Y-13657881D01*
X12314380Y-13657881D02*
X12333427Y-13648357D01*
X12428665Y-13600738D02*
X12428665Y-13800738D01*
X12428665Y-13610262D02*
X12447713Y-13600738D01*
X12447713Y-13600738D02*
X12485808Y-13600738D01*
X12485808Y-13600738D02*
X12504856Y-13610262D01*
X12504856Y-13610262D02*
X12514380Y-13619786D01*
X12514380Y-13619786D02*
X12523903Y-13638833D01*
X12523903Y-13638833D02*
X12523903Y-13695976D01*
X12523903Y-13695976D02*
X12514380Y-13715024D01*
X12514380Y-13715024D02*
X12504856Y-13724548D01*
X12504856Y-13724548D02*
X12485808Y-13734071D01*
X12485808Y-13734071D02*
X12447713Y-13734071D01*
X12447713Y-13734071D02*
X12428665Y-13724548D01*
X12609618Y-13715024D02*
X12619141Y-13724548D01*
X12619141Y-13724548D02*
X12609618Y-13734071D01*
X12609618Y-13734071D02*
X12600094Y-13724548D01*
X12600094Y-13724548D02*
X12609618Y-13715024D01*
X12609618Y-13715024D02*
X12609618Y-13734071D01*
X12609618Y-13610262D02*
X12619141Y-13619786D01*
X12619141Y-13619786D02*
X12609618Y-13629309D01*
X12609618Y-13629309D02*
X12600094Y-13619786D01*
X12600094Y-13619786D02*
X12609618Y-13610262D01*
X12609618Y-13610262D02*
X12609618Y-13629309D01*
D12*
X10937412Y-14042588D02*
X10977412Y-14082588D01*
X10977412Y-14042588D02*
X10937412Y-14082588D01*
D11*
X11276284Y-13954071D02*
X11295332Y-13954071D01*
X11295332Y-13954071D02*
X11314380Y-13963595D01*
X11314380Y-13963595D02*
X11323903Y-13973119D01*
X11323903Y-13973119D02*
X11333427Y-13992167D01*
X11333427Y-13992167D02*
X11342951Y-14030262D01*
X11342951Y-14030262D02*
X11342951Y-14077881D01*
X11342951Y-14077881D02*
X11333427Y-14115976D01*
X11333427Y-14115976D02*
X11323903Y-14135024D01*
X11323903Y-14135024D02*
X11314380Y-14144548D01*
X11314380Y-14144548D02*
X11295332Y-14154071D01*
X11295332Y-14154071D02*
X11276284Y-14154071D01*
X11276284Y-14154071D02*
X11257237Y-14144548D01*
X11257237Y-14144548D02*
X11247713Y-14135024D01*
X11247713Y-14135024D02*
X11238189Y-14115976D01*
X11238189Y-14115976D02*
X11228665Y-14077881D01*
X11228665Y-14077881D02*
X11228665Y-14030262D01*
X11228665Y-14030262D02*
X11238189Y-13992167D01*
X11238189Y-13992167D02*
X11247713Y-13973119D01*
X11247713Y-13973119D02*
X11257237Y-13963595D01*
X11257237Y-13963595D02*
X11276284Y-13954071D01*
X11428665Y-14135024D02*
X11438189Y-14144548D01*
X11438189Y-14144548D02*
X11428665Y-14154071D01*
X11428665Y-14154071D02*
X11419141Y-14144548D01*
X11419141Y-14144548D02*
X11428665Y-14135024D01*
X11428665Y-14135024D02*
X11428665Y-14154071D01*
X11609618Y-14020738D02*
X11609618Y-14154071D01*
X11561999Y-13944548D02*
X11514380Y-14087405D01*
X11514380Y-14087405D02*
X11638189Y-14087405D01*
X11752475Y-13954071D02*
X11771522Y-13954071D01*
X11771522Y-13954071D02*
X11790570Y-13963595D01*
X11790570Y-13963595D02*
X11800094Y-13973119D01*
X11800094Y-13973119D02*
X11809618Y-13992167D01*
X11809618Y-13992167D02*
X11819141Y-14030262D01*
X11819141Y-14030262D02*
X11819141Y-14077881D01*
X11819141Y-14077881D02*
X11809618Y-14115976D01*
X11809618Y-14115976D02*
X11800094Y-14135024D01*
X11800094Y-14135024D02*
X11790570Y-14144548D01*
X11790570Y-14144548D02*
X11771522Y-14154071D01*
X11771522Y-14154071D02*
X11752475Y-14154071D01*
X11752475Y-14154071D02*
X11733427Y-14144548D01*
X11733427Y-14144548D02*
X11723903Y-14135024D01*
X11723903Y-14135024D02*
X11714380Y-14115976D01*
X11714380Y-14115976D02*
X11704856Y-14077881D01*
X11704856Y-14077881D02*
X11704856Y-14030262D01*
X11704856Y-14030262D02*
X11714380Y-13992167D01*
X11714380Y-13992167D02*
X11723903Y-13973119D01*
X11723903Y-13973119D02*
X11733427Y-13963595D01*
X11733427Y-13963595D02*
X11752475Y-13954071D01*
X11942951Y-13954071D02*
X11961999Y-13954071D01*
X11961999Y-13954071D02*
X11981046Y-13963595D01*
X11981046Y-13963595D02*
X11990570Y-13973119D01*
X11990570Y-13973119D02*
X12000094Y-13992167D01*
X12000094Y-13992167D02*
X12009618Y-14030262D01*
X12009618Y-14030262D02*
X12009618Y-14077881D01*
X12009618Y-14077881D02*
X12000094Y-14115976D01*
X12000094Y-14115976D02*
X11990570Y-14135024D01*
X11990570Y-14135024D02*
X11981046Y-14144548D01*
X11981046Y-14144548D02*
X11961999Y-14154071D01*
X11961999Y-14154071D02*
X11942951Y-14154071D01*
X11942951Y-14154071D02*
X11923903Y-14144548D01*
X11923903Y-14144548D02*
X11914380Y-14135024D01*
X11914380Y-14135024D02*
X11904856Y-14115976D01*
X11904856Y-14115976D02*
X11895332Y-14077881D01*
X11895332Y-14077881D02*
X11895332Y-14030262D01*
X11895332Y-14030262D02*
X11904856Y-13992167D01*
X11904856Y-13992167D02*
X11914380Y-13973119D01*
X11914380Y-13973119D02*
X11923903Y-13963595D01*
X11923903Y-13963595D02*
X11942951Y-13954071D01*
X12095332Y-14154071D02*
X12095332Y-14020738D01*
X12095332Y-14039786D02*
X12104856Y-14030262D01*
X12104856Y-14030262D02*
X12123903Y-14020738D01*
X12123903Y-14020738D02*
X12152475Y-14020738D01*
X12152475Y-14020738D02*
X12171522Y-14030262D01*
X12171522Y-14030262D02*
X12181046Y-14049309D01*
X12181046Y-14049309D02*
X12181046Y-14154071D01*
X12181046Y-14049309D02*
X12190570Y-14030262D01*
X12190570Y-14030262D02*
X12209618Y-14020738D01*
X12209618Y-14020738D02*
X12238189Y-14020738D01*
X12238189Y-14020738D02*
X12257237Y-14030262D01*
X12257237Y-14030262D02*
X12266761Y-14049309D01*
X12266761Y-14049309D02*
X12266761Y-14154071D01*
X12361999Y-14154071D02*
X12361999Y-14020738D01*
X12361999Y-14039786D02*
X12371522Y-14030262D01*
X12371522Y-14030262D02*
X12390570Y-14020738D01*
X12390570Y-14020738D02*
X12419142Y-14020738D01*
X12419142Y-14020738D02*
X12438189Y-14030262D01*
X12438189Y-14030262D02*
X12447713Y-14049309D01*
X12447713Y-14049309D02*
X12447713Y-14154071D01*
X12447713Y-14049309D02*
X12457237Y-14030262D01*
X12457237Y-14030262D02*
X12476284Y-14020738D01*
X12476284Y-14020738D02*
X12504856Y-14020738D01*
X12504856Y-14020738D02*
X12523903Y-14030262D01*
X12523903Y-14030262D02*
X12533427Y-14049309D01*
X12533427Y-14049309D02*
X12533427Y-14154071D01*
X12923903Y-13944548D02*
X12752475Y-14201690D01*
X13181046Y-13954071D02*
X13200094Y-13954071D01*
X13200094Y-13954071D02*
X13219142Y-13963595D01*
X13219142Y-13963595D02*
X13228665Y-13973119D01*
X13228665Y-13973119D02*
X13238189Y-13992167D01*
X13238189Y-13992167D02*
X13247713Y-14030262D01*
X13247713Y-14030262D02*
X13247713Y-14077881D01*
X13247713Y-14077881D02*
X13238189Y-14115976D01*
X13238189Y-14115976D02*
X13228665Y-14135024D01*
X13228665Y-14135024D02*
X13219142Y-14144548D01*
X13219142Y-14144548D02*
X13200094Y-14154071D01*
X13200094Y-14154071D02*
X13181046Y-14154071D01*
X13181046Y-14154071D02*
X13161999Y-14144548D01*
X13161999Y-14144548D02*
X13152475Y-14135024D01*
X13152475Y-14135024D02*
X13142951Y-14115976D01*
X13142951Y-14115976D02*
X13133427Y-14077881D01*
X13133427Y-14077881D02*
X13133427Y-14030262D01*
X13133427Y-14030262D02*
X13142951Y-13992167D01*
X13142951Y-13992167D02*
X13152475Y-13973119D01*
X13152475Y-13973119D02*
X13161999Y-13963595D01*
X13161999Y-13963595D02*
X13181046Y-13954071D01*
X13333427Y-14135024D02*
X13342951Y-14144548D01*
X13342951Y-14144548D02*
X13333427Y-14154071D01*
X13333427Y-14154071D02*
X13323904Y-14144548D01*
X13323904Y-14144548D02*
X13333427Y-14135024D01*
X13333427Y-14135024D02*
X13333427Y-14154071D01*
X13466761Y-13954071D02*
X13485808Y-13954071D01*
X13485808Y-13954071D02*
X13504856Y-13963595D01*
X13504856Y-13963595D02*
X13514380Y-13973119D01*
X13514380Y-13973119D02*
X13523904Y-13992167D01*
X13523904Y-13992167D02*
X13533427Y-14030262D01*
X13533427Y-14030262D02*
X13533427Y-14077881D01*
X13533427Y-14077881D02*
X13523904Y-14115976D01*
X13523904Y-14115976D02*
X13514380Y-14135024D01*
X13514380Y-14135024D02*
X13504856Y-14144548D01*
X13504856Y-14144548D02*
X13485808Y-14154071D01*
X13485808Y-14154071D02*
X13466761Y-14154071D01*
X13466761Y-14154071D02*
X13447713Y-14144548D01*
X13447713Y-14144548D02*
X13438189Y-14135024D01*
X13438189Y-14135024D02*
X13428665Y-14115976D01*
X13428665Y-14115976D02*
X13419142Y-14077881D01*
X13419142Y-14077881D02*
X13419142Y-14030262D01*
X13419142Y-14030262D02*
X13428665Y-13992167D01*
X13428665Y-13992167D02*
X13438189Y-13973119D01*
X13438189Y-13973119D02*
X13447713Y-13963595D01*
X13447713Y-13963595D02*
X13466761Y-13954071D01*
X13723904Y-14154071D02*
X13609618Y-14154071D01*
X13666761Y-14154071D02*
X13666761Y-13954071D01*
X13666761Y-13954071D02*
X13647713Y-13982643D01*
X13647713Y-13982643D02*
X13628665Y-14001690D01*
X13628665Y-14001690D02*
X13609618Y-14011214D01*
X13904856Y-13954071D02*
X13809618Y-13954071D01*
X13809618Y-13954071D02*
X13800094Y-14049309D01*
X13800094Y-14049309D02*
X13809618Y-14039786D01*
X13809618Y-14039786D02*
X13828665Y-14030262D01*
X13828665Y-14030262D02*
X13876285Y-14030262D01*
X13876285Y-14030262D02*
X13895332Y-14039786D01*
X13895332Y-14039786D02*
X13904856Y-14049309D01*
X13904856Y-14049309D02*
X13914380Y-14068357D01*
X13914380Y-14068357D02*
X13914380Y-14115976D01*
X13914380Y-14115976D02*
X13904856Y-14135024D01*
X13904856Y-14135024D02*
X13895332Y-14144548D01*
X13895332Y-14144548D02*
X13876285Y-14154071D01*
X13876285Y-14154071D02*
X13828665Y-14154071D01*
X13828665Y-14154071D02*
X13809618Y-14144548D01*
X13809618Y-14144548D02*
X13800094Y-14135024D01*
X13981046Y-13954071D02*
X14114380Y-13954071D01*
X14114380Y-13954071D02*
X14028665Y-14154071D01*
X14181046Y-13954071D02*
X14181046Y-13992167D01*
X14257237Y-13954071D02*
X14257237Y-13992167D01*
X14552475Y-14230262D02*
X14542951Y-14220738D01*
X14542951Y-14220738D02*
X14523904Y-14192167D01*
X14523904Y-14192167D02*
X14514380Y-14173119D01*
X14514380Y-14173119D02*
X14504856Y-14144548D01*
X14504856Y-14144548D02*
X14495332Y-14096928D01*
X14495332Y-14096928D02*
X14495332Y-14058833D01*
X14495332Y-14058833D02*
X14504856Y-14011214D01*
X14504856Y-14011214D02*
X14514380Y-13982643D01*
X14514380Y-13982643D02*
X14523904Y-13963595D01*
X14523904Y-13963595D02*
X14542951Y-13935024D01*
X14542951Y-13935024D02*
X14552475Y-13925500D01*
X14733427Y-14154071D02*
X14619142Y-14154071D01*
X14676285Y-14154071D02*
X14676285Y-13954071D01*
X14676285Y-13954071D02*
X14657237Y-13982643D01*
X14657237Y-13982643D02*
X14638189Y-14001690D01*
X14638189Y-14001690D02*
X14619142Y-14011214D01*
X14923904Y-14154071D02*
X14809618Y-14154071D01*
X14866761Y-14154071D02*
X14866761Y-13954071D01*
X14866761Y-13954071D02*
X14847713Y-13982643D01*
X14847713Y-13982643D02*
X14828666Y-14001690D01*
X14828666Y-14001690D02*
X14809618Y-14011214D01*
X15161999Y-14154071D02*
X15161999Y-13954071D01*
X15247713Y-14154071D02*
X15247713Y-14049309D01*
X15247713Y-14049309D02*
X15238189Y-14030262D01*
X15238189Y-14030262D02*
X15219142Y-14020738D01*
X15219142Y-14020738D02*
X15190570Y-14020738D01*
X15190570Y-14020738D02*
X15171523Y-14030262D01*
X15171523Y-14030262D02*
X15161999Y-14039786D01*
X15371523Y-14154071D02*
X15352475Y-14144548D01*
X15352475Y-14144548D02*
X15342951Y-14135024D01*
X15342951Y-14135024D02*
X15333428Y-14115976D01*
X15333428Y-14115976D02*
X15333428Y-14058833D01*
X15333428Y-14058833D02*
X15342951Y-14039786D01*
X15342951Y-14039786D02*
X15352475Y-14030262D01*
X15352475Y-14030262D02*
X15371523Y-14020738D01*
X15371523Y-14020738D02*
X15400094Y-14020738D01*
X15400094Y-14020738D02*
X15419142Y-14030262D01*
X15419142Y-14030262D02*
X15428666Y-14039786D01*
X15428666Y-14039786D02*
X15438189Y-14058833D01*
X15438189Y-14058833D02*
X15438189Y-14115976D01*
X15438189Y-14115976D02*
X15428666Y-14135024D01*
X15428666Y-14135024D02*
X15419142Y-14144548D01*
X15419142Y-14144548D02*
X15400094Y-14154071D01*
X15400094Y-14154071D02*
X15371523Y-14154071D01*
X15552475Y-14154071D02*
X15533428Y-14144548D01*
X15533428Y-14144548D02*
X15523904Y-14125500D01*
X15523904Y-14125500D02*
X15523904Y-13954071D01*
X15704856Y-14144548D02*
X15685809Y-14154071D01*
X15685809Y-14154071D02*
X15647713Y-14154071D01*
X15647713Y-14154071D02*
X15628666Y-14144548D01*
X15628666Y-14144548D02*
X15619142Y-14125500D01*
X15619142Y-14125500D02*
X15619142Y-14049309D01*
X15619142Y-14049309D02*
X15628666Y-14030262D01*
X15628666Y-14030262D02*
X15647713Y-14020738D01*
X15647713Y-14020738D02*
X15685809Y-14020738D01*
X15685809Y-14020738D02*
X15704856Y-14030262D01*
X15704856Y-14030262D02*
X15714380Y-14049309D01*
X15714380Y-14049309D02*
X15714380Y-14068357D01*
X15714380Y-14068357D02*
X15619142Y-14087405D01*
X15790570Y-14144548D02*
X15809618Y-14154071D01*
X15809618Y-14154071D02*
X15847713Y-14154071D01*
X15847713Y-14154071D02*
X15866761Y-14144548D01*
X15866761Y-14144548D02*
X15876285Y-14125500D01*
X15876285Y-14125500D02*
X15876285Y-14115976D01*
X15876285Y-14115976D02*
X15866761Y-14096928D01*
X15866761Y-14096928D02*
X15847713Y-14087405D01*
X15847713Y-14087405D02*
X15819142Y-14087405D01*
X15819142Y-14087405D02*
X15800094Y-14077881D01*
X15800094Y-14077881D02*
X15790570Y-14058833D01*
X15790570Y-14058833D02*
X15790570Y-14049309D01*
X15790570Y-14049309D02*
X15800094Y-14030262D01*
X15800094Y-14030262D02*
X15819142Y-14020738D01*
X15819142Y-14020738D02*
X15847713Y-14020738D01*
X15847713Y-14020738D02*
X15866761Y-14030262D01*
X15942951Y-14230262D02*
X15952475Y-14220738D01*
X15952475Y-14220738D02*
X15971523Y-14192167D01*
X15971523Y-14192167D02*
X15981047Y-14173119D01*
X15981047Y-14173119D02*
X15990570Y-14144548D01*
X15990570Y-14144548D02*
X16000094Y-14096928D01*
X16000094Y-14096928D02*
X16000094Y-14058833D01*
X16000094Y-14058833D02*
X15990570Y-14011214D01*
X15990570Y-14011214D02*
X15981047Y-13982643D01*
X15981047Y-13982643D02*
X15971523Y-13963595D01*
X15971523Y-13963595D02*
X15952475Y-13935024D01*
X15952475Y-13935024D02*
X15942951Y-13925500D01*
D12*
X10977412Y-14326588D02*
G75*
G02*
X10897412Y-14326588I-40000J0D01*
G01*
X10897412Y-14326588D02*
G75*
G02*
X10977412Y-14326588I40000J0D01*
G01*
D11*
X11276284Y-14218071D02*
X11295332Y-14218071D01*
X11295332Y-14218071D02*
X11314380Y-14227595D01*
X11314380Y-14227595D02*
X11323903Y-14237119D01*
X11323903Y-14237119D02*
X11333427Y-14256167D01*
X11333427Y-14256167D02*
X11342951Y-14294262D01*
X11342951Y-14294262D02*
X11342951Y-14341881D01*
X11342951Y-14341881D02*
X11333427Y-14379976D01*
X11333427Y-14379976D02*
X11323903Y-14399024D01*
X11323903Y-14399024D02*
X11314380Y-14408548D01*
X11314380Y-14408548D02*
X11295332Y-14418071D01*
X11295332Y-14418071D02*
X11276284Y-14418071D01*
X11276284Y-14418071D02*
X11257237Y-14408548D01*
X11257237Y-14408548D02*
X11247713Y-14399024D01*
X11247713Y-14399024D02*
X11238189Y-14379976D01*
X11238189Y-14379976D02*
X11228665Y-14341881D01*
X11228665Y-14341881D02*
X11228665Y-14294262D01*
X11228665Y-14294262D02*
X11238189Y-14256167D01*
X11238189Y-14256167D02*
X11247713Y-14237119D01*
X11247713Y-14237119D02*
X11257237Y-14227595D01*
X11257237Y-14227595D02*
X11276284Y-14218071D01*
X11428665Y-14399024D02*
X11438189Y-14408548D01*
X11438189Y-14408548D02*
X11428665Y-14418071D01*
X11428665Y-14418071D02*
X11419141Y-14408548D01*
X11419141Y-14408548D02*
X11428665Y-14399024D01*
X11428665Y-14399024D02*
X11428665Y-14418071D01*
X11552475Y-14303786D02*
X11533427Y-14294262D01*
X11533427Y-14294262D02*
X11523903Y-14284738D01*
X11523903Y-14284738D02*
X11514380Y-14265690D01*
X11514380Y-14265690D02*
X11514380Y-14256167D01*
X11514380Y-14256167D02*
X11523903Y-14237119D01*
X11523903Y-14237119D02*
X11533427Y-14227595D01*
X11533427Y-14227595D02*
X11552475Y-14218071D01*
X11552475Y-14218071D02*
X11590570Y-14218071D01*
X11590570Y-14218071D02*
X11609618Y-14227595D01*
X11609618Y-14227595D02*
X11619141Y-14237119D01*
X11619141Y-14237119D02*
X11628665Y-14256167D01*
X11628665Y-14256167D02*
X11628665Y-14265690D01*
X11628665Y-14265690D02*
X11619141Y-14284738D01*
X11619141Y-14284738D02*
X11609618Y-14294262D01*
X11609618Y-14294262D02*
X11590570Y-14303786D01*
X11590570Y-14303786D02*
X11552475Y-14303786D01*
X11552475Y-14303786D02*
X11533427Y-14313309D01*
X11533427Y-14313309D02*
X11523903Y-14322833D01*
X11523903Y-14322833D02*
X11514380Y-14341881D01*
X11514380Y-14341881D02*
X11514380Y-14379976D01*
X11514380Y-14379976D02*
X11523903Y-14399024D01*
X11523903Y-14399024D02*
X11533427Y-14408548D01*
X11533427Y-14408548D02*
X11552475Y-14418071D01*
X11552475Y-14418071D02*
X11590570Y-14418071D01*
X11590570Y-14418071D02*
X11609618Y-14408548D01*
X11609618Y-14408548D02*
X11619141Y-14399024D01*
X11619141Y-14399024D02*
X11628665Y-14379976D01*
X11628665Y-14379976D02*
X11628665Y-14341881D01*
X11628665Y-14341881D02*
X11619141Y-14322833D01*
X11619141Y-14322833D02*
X11609618Y-14313309D01*
X11609618Y-14313309D02*
X11590570Y-14303786D01*
X11752475Y-14218071D02*
X11771522Y-14218071D01*
X11771522Y-14218071D02*
X11790570Y-14227595D01*
X11790570Y-14227595D02*
X11800094Y-14237119D01*
X11800094Y-14237119D02*
X11809618Y-14256167D01*
X11809618Y-14256167D02*
X11819141Y-14294262D01*
X11819141Y-14294262D02*
X11819141Y-14341881D01*
X11819141Y-14341881D02*
X11809618Y-14379976D01*
X11809618Y-14379976D02*
X11800094Y-14399024D01*
X11800094Y-14399024D02*
X11790570Y-14408548D01*
X11790570Y-14408548D02*
X11771522Y-14418071D01*
X11771522Y-14418071D02*
X11752475Y-14418071D01*
X11752475Y-14418071D02*
X11733427Y-14408548D01*
X11733427Y-14408548D02*
X11723903Y-14399024D01*
X11723903Y-14399024D02*
X11714380Y-14379976D01*
X11714380Y-14379976D02*
X11704856Y-14341881D01*
X11704856Y-14341881D02*
X11704856Y-14294262D01*
X11704856Y-14294262D02*
X11714380Y-14256167D01*
X11714380Y-14256167D02*
X11723903Y-14237119D01*
X11723903Y-14237119D02*
X11733427Y-14227595D01*
X11733427Y-14227595D02*
X11752475Y-14218071D01*
X11942951Y-14218071D02*
X11961999Y-14218071D01*
X11961999Y-14218071D02*
X11981046Y-14227595D01*
X11981046Y-14227595D02*
X11990570Y-14237119D01*
X11990570Y-14237119D02*
X12000094Y-14256167D01*
X12000094Y-14256167D02*
X12009618Y-14294262D01*
X12009618Y-14294262D02*
X12009618Y-14341881D01*
X12009618Y-14341881D02*
X12000094Y-14379976D01*
X12000094Y-14379976D02*
X11990570Y-14399024D01*
X11990570Y-14399024D02*
X11981046Y-14408548D01*
X11981046Y-14408548D02*
X11961999Y-14418071D01*
X11961999Y-14418071D02*
X11942951Y-14418071D01*
X11942951Y-14418071D02*
X11923903Y-14408548D01*
X11923903Y-14408548D02*
X11914380Y-14399024D01*
X11914380Y-14399024D02*
X11904856Y-14379976D01*
X11904856Y-14379976D02*
X11895332Y-14341881D01*
X11895332Y-14341881D02*
X11895332Y-14294262D01*
X11895332Y-14294262D02*
X11904856Y-14256167D01*
X11904856Y-14256167D02*
X11914380Y-14237119D01*
X11914380Y-14237119D02*
X11923903Y-14227595D01*
X11923903Y-14227595D02*
X11942951Y-14218071D01*
X12095332Y-14418071D02*
X12095332Y-14284738D01*
X12095332Y-14303786D02*
X12104856Y-14294262D01*
X12104856Y-14294262D02*
X12123903Y-14284738D01*
X12123903Y-14284738D02*
X12152475Y-14284738D01*
X12152475Y-14284738D02*
X12171522Y-14294262D01*
X12171522Y-14294262D02*
X12181046Y-14313309D01*
X12181046Y-14313309D02*
X12181046Y-14418071D01*
X12181046Y-14313309D02*
X12190570Y-14294262D01*
X12190570Y-14294262D02*
X12209618Y-14284738D01*
X12209618Y-14284738D02*
X12238189Y-14284738D01*
X12238189Y-14284738D02*
X12257237Y-14294262D01*
X12257237Y-14294262D02*
X12266761Y-14313309D01*
X12266761Y-14313309D02*
X12266761Y-14418071D01*
X12361999Y-14418071D02*
X12361999Y-14284738D01*
X12361999Y-14303786D02*
X12371522Y-14294262D01*
X12371522Y-14294262D02*
X12390570Y-14284738D01*
X12390570Y-14284738D02*
X12419142Y-14284738D01*
X12419142Y-14284738D02*
X12438189Y-14294262D01*
X12438189Y-14294262D02*
X12447713Y-14313309D01*
X12447713Y-14313309D02*
X12447713Y-14418071D01*
X12447713Y-14313309D02*
X12457237Y-14294262D01*
X12457237Y-14294262D02*
X12476284Y-14284738D01*
X12476284Y-14284738D02*
X12504856Y-14284738D01*
X12504856Y-14284738D02*
X12523903Y-14294262D01*
X12523903Y-14294262D02*
X12533427Y-14313309D01*
X12533427Y-14313309D02*
X12533427Y-14418071D01*
X12923903Y-14208548D02*
X12752475Y-14465690D01*
X13181046Y-14218071D02*
X13200094Y-14218071D01*
X13200094Y-14218071D02*
X13219142Y-14227595D01*
X13219142Y-14227595D02*
X13228665Y-14237119D01*
X13228665Y-14237119D02*
X13238189Y-14256167D01*
X13238189Y-14256167D02*
X13247713Y-14294262D01*
X13247713Y-14294262D02*
X13247713Y-14341881D01*
X13247713Y-14341881D02*
X13238189Y-14379976D01*
X13238189Y-14379976D02*
X13228665Y-14399024D01*
X13228665Y-14399024D02*
X13219142Y-14408548D01*
X13219142Y-14408548D02*
X13200094Y-14418071D01*
X13200094Y-14418071D02*
X13181046Y-14418071D01*
X13181046Y-14418071D02*
X13161999Y-14408548D01*
X13161999Y-14408548D02*
X13152475Y-14399024D01*
X13152475Y-14399024D02*
X13142951Y-14379976D01*
X13142951Y-14379976D02*
X13133427Y-14341881D01*
X13133427Y-14341881D02*
X13133427Y-14294262D01*
X13133427Y-14294262D02*
X13142951Y-14256167D01*
X13142951Y-14256167D02*
X13152475Y-14237119D01*
X13152475Y-14237119D02*
X13161999Y-14227595D01*
X13161999Y-14227595D02*
X13181046Y-14218071D01*
X13333427Y-14399024D02*
X13342951Y-14408548D01*
X13342951Y-14408548D02*
X13333427Y-14418071D01*
X13333427Y-14418071D02*
X13323904Y-14408548D01*
X13323904Y-14408548D02*
X13333427Y-14399024D01*
X13333427Y-14399024D02*
X13333427Y-14418071D01*
X13466761Y-14218071D02*
X13485808Y-14218071D01*
X13485808Y-14218071D02*
X13504856Y-14227595D01*
X13504856Y-14227595D02*
X13514380Y-14237119D01*
X13514380Y-14237119D02*
X13523904Y-14256167D01*
X13523904Y-14256167D02*
X13533427Y-14294262D01*
X13533427Y-14294262D02*
X13533427Y-14341881D01*
X13533427Y-14341881D02*
X13523904Y-14379976D01*
X13523904Y-14379976D02*
X13514380Y-14399024D01*
X13514380Y-14399024D02*
X13504856Y-14408548D01*
X13504856Y-14408548D02*
X13485808Y-14418071D01*
X13485808Y-14418071D02*
X13466761Y-14418071D01*
X13466761Y-14418071D02*
X13447713Y-14408548D01*
X13447713Y-14408548D02*
X13438189Y-14399024D01*
X13438189Y-14399024D02*
X13428665Y-14379976D01*
X13428665Y-14379976D02*
X13419142Y-14341881D01*
X13419142Y-14341881D02*
X13419142Y-14294262D01*
X13419142Y-14294262D02*
X13428665Y-14256167D01*
X13428665Y-14256167D02*
X13438189Y-14237119D01*
X13438189Y-14237119D02*
X13447713Y-14227595D01*
X13447713Y-14227595D02*
X13466761Y-14218071D01*
X13600094Y-14218071D02*
X13723904Y-14218071D01*
X13723904Y-14218071D02*
X13657237Y-14294262D01*
X13657237Y-14294262D02*
X13685808Y-14294262D01*
X13685808Y-14294262D02*
X13704856Y-14303786D01*
X13704856Y-14303786D02*
X13714380Y-14313309D01*
X13714380Y-14313309D02*
X13723904Y-14332357D01*
X13723904Y-14332357D02*
X13723904Y-14379976D01*
X13723904Y-14379976D02*
X13714380Y-14399024D01*
X13714380Y-14399024D02*
X13704856Y-14408548D01*
X13704856Y-14408548D02*
X13685808Y-14418071D01*
X13685808Y-14418071D02*
X13628665Y-14418071D01*
X13628665Y-14418071D02*
X13609618Y-14408548D01*
X13609618Y-14408548D02*
X13600094Y-14399024D01*
X13914380Y-14418071D02*
X13800094Y-14418071D01*
X13857237Y-14418071D02*
X13857237Y-14218071D01*
X13857237Y-14218071D02*
X13838189Y-14246643D01*
X13838189Y-14246643D02*
X13819142Y-14265690D01*
X13819142Y-14265690D02*
X13800094Y-14275214D01*
X14095332Y-14218071D02*
X14000094Y-14218071D01*
X14000094Y-14218071D02*
X13990570Y-14313309D01*
X13990570Y-14313309D02*
X14000094Y-14303786D01*
X14000094Y-14303786D02*
X14019142Y-14294262D01*
X14019142Y-14294262D02*
X14066761Y-14294262D01*
X14066761Y-14294262D02*
X14085808Y-14303786D01*
X14085808Y-14303786D02*
X14095332Y-14313309D01*
X14095332Y-14313309D02*
X14104856Y-14332357D01*
X14104856Y-14332357D02*
X14104856Y-14379976D01*
X14104856Y-14379976D02*
X14095332Y-14399024D01*
X14095332Y-14399024D02*
X14085808Y-14408548D01*
X14085808Y-14408548D02*
X14066761Y-14418071D01*
X14066761Y-14418071D02*
X14019142Y-14418071D01*
X14019142Y-14418071D02*
X14000094Y-14408548D01*
X14000094Y-14408548D02*
X13990570Y-14399024D01*
X14181046Y-14218071D02*
X14181046Y-14256167D01*
X14257237Y-14218071D02*
X14257237Y-14256167D01*
X14552475Y-14494262D02*
X14542951Y-14484738D01*
X14542951Y-14484738D02*
X14523904Y-14456167D01*
X14523904Y-14456167D02*
X14514380Y-14437119D01*
X14514380Y-14437119D02*
X14504856Y-14408548D01*
X14504856Y-14408548D02*
X14495332Y-14360928D01*
X14495332Y-14360928D02*
X14495332Y-14322833D01*
X14495332Y-14322833D02*
X14504856Y-14275214D01*
X14504856Y-14275214D02*
X14514380Y-14246643D01*
X14514380Y-14246643D02*
X14523904Y-14227595D01*
X14523904Y-14227595D02*
X14542951Y-14199024D01*
X14542951Y-14199024D02*
X14552475Y-14189500D01*
X14733427Y-14418071D02*
X14619142Y-14418071D01*
X14676285Y-14418071D02*
X14676285Y-14218071D01*
X14676285Y-14218071D02*
X14657237Y-14246643D01*
X14657237Y-14246643D02*
X14638189Y-14265690D01*
X14638189Y-14265690D02*
X14619142Y-14275214D01*
X14904856Y-14218071D02*
X14866761Y-14218071D01*
X14866761Y-14218071D02*
X14847713Y-14227595D01*
X14847713Y-14227595D02*
X14838189Y-14237119D01*
X14838189Y-14237119D02*
X14819142Y-14265690D01*
X14819142Y-14265690D02*
X14809618Y-14303786D01*
X14809618Y-14303786D02*
X14809618Y-14379976D01*
X14809618Y-14379976D02*
X14819142Y-14399024D01*
X14819142Y-14399024D02*
X14828666Y-14408548D01*
X14828666Y-14408548D02*
X14847713Y-14418071D01*
X14847713Y-14418071D02*
X14885808Y-14418071D01*
X14885808Y-14418071D02*
X14904856Y-14408548D01*
X14904856Y-14408548D02*
X14914380Y-14399024D01*
X14914380Y-14399024D02*
X14923904Y-14379976D01*
X14923904Y-14379976D02*
X14923904Y-14332357D01*
X14923904Y-14332357D02*
X14914380Y-14313309D01*
X14914380Y-14313309D02*
X14904856Y-14303786D01*
X14904856Y-14303786D02*
X14885808Y-14294262D01*
X14885808Y-14294262D02*
X14847713Y-14294262D01*
X14847713Y-14294262D02*
X14828666Y-14303786D01*
X14828666Y-14303786D02*
X14819142Y-14313309D01*
X14819142Y-14313309D02*
X14809618Y-14332357D01*
X15161999Y-14418071D02*
X15161999Y-14218071D01*
X15247713Y-14418071D02*
X15247713Y-14313309D01*
X15247713Y-14313309D02*
X15238189Y-14294262D01*
X15238189Y-14294262D02*
X15219142Y-14284738D01*
X15219142Y-14284738D02*
X15190570Y-14284738D01*
X15190570Y-14284738D02*
X15171523Y-14294262D01*
X15171523Y-14294262D02*
X15161999Y-14303786D01*
X15371523Y-14418071D02*
X15352475Y-14408548D01*
X15352475Y-14408548D02*
X15342951Y-14399024D01*
X15342951Y-14399024D02*
X15333428Y-14379976D01*
X15333428Y-14379976D02*
X15333428Y-14322833D01*
X15333428Y-14322833D02*
X15342951Y-14303786D01*
X15342951Y-14303786D02*
X15352475Y-14294262D01*
X15352475Y-14294262D02*
X15371523Y-14284738D01*
X15371523Y-14284738D02*
X15400094Y-14284738D01*
X15400094Y-14284738D02*
X15419142Y-14294262D01*
X15419142Y-14294262D02*
X15428666Y-14303786D01*
X15428666Y-14303786D02*
X15438189Y-14322833D01*
X15438189Y-14322833D02*
X15438189Y-14379976D01*
X15438189Y-14379976D02*
X15428666Y-14399024D01*
X15428666Y-14399024D02*
X15419142Y-14408548D01*
X15419142Y-14408548D02*
X15400094Y-14418071D01*
X15400094Y-14418071D02*
X15371523Y-14418071D01*
X15552475Y-14418071D02*
X15533428Y-14408548D01*
X15533428Y-14408548D02*
X15523904Y-14389500D01*
X15523904Y-14389500D02*
X15523904Y-14218071D01*
X15704856Y-14408548D02*
X15685809Y-14418071D01*
X15685809Y-14418071D02*
X15647713Y-14418071D01*
X15647713Y-14418071D02*
X15628666Y-14408548D01*
X15628666Y-14408548D02*
X15619142Y-14389500D01*
X15619142Y-14389500D02*
X15619142Y-14313309D01*
X15619142Y-14313309D02*
X15628666Y-14294262D01*
X15628666Y-14294262D02*
X15647713Y-14284738D01*
X15647713Y-14284738D02*
X15685809Y-14284738D01*
X15685809Y-14284738D02*
X15704856Y-14294262D01*
X15704856Y-14294262D02*
X15714380Y-14313309D01*
X15714380Y-14313309D02*
X15714380Y-14332357D01*
X15714380Y-14332357D02*
X15619142Y-14351405D01*
X15790570Y-14408548D02*
X15809618Y-14418071D01*
X15809618Y-14418071D02*
X15847713Y-14418071D01*
X15847713Y-14418071D02*
X15866761Y-14408548D01*
X15866761Y-14408548D02*
X15876285Y-14389500D01*
X15876285Y-14389500D02*
X15876285Y-14379976D01*
X15876285Y-14379976D02*
X15866761Y-14360928D01*
X15866761Y-14360928D02*
X15847713Y-14351405D01*
X15847713Y-14351405D02*
X15819142Y-14351405D01*
X15819142Y-14351405D02*
X15800094Y-14341881D01*
X15800094Y-14341881D02*
X15790570Y-14322833D01*
X15790570Y-14322833D02*
X15790570Y-14313309D01*
X15790570Y-14313309D02*
X15800094Y-14294262D01*
X15800094Y-14294262D02*
X15819142Y-14284738D01*
X15819142Y-14284738D02*
X15847713Y-14284738D01*
X15847713Y-14284738D02*
X15866761Y-14294262D01*
X15942951Y-14494262D02*
X15952475Y-14484738D01*
X15952475Y-14484738D02*
X15971523Y-14456167D01*
X15971523Y-14456167D02*
X15981047Y-14437119D01*
X15981047Y-14437119D02*
X15990570Y-14408548D01*
X15990570Y-14408548D02*
X16000094Y-14360928D01*
X16000094Y-14360928D02*
X16000094Y-14322833D01*
X16000094Y-14322833D02*
X15990570Y-14275214D01*
X15990570Y-14275214D02*
X15981047Y-14246643D01*
X15981047Y-14246643D02*
X15971523Y-14227595D01*
X15971523Y-14227595D02*
X15952475Y-14199024D01*
X15952475Y-14199024D02*
X15942951Y-14189500D01*
D12*
X10932412Y-14545588D02*
X10932412Y-14635588D01*
X10887412Y-14590588D02*
X10977412Y-14590588D01*
D11*
X11276284Y-14482071D02*
X11295332Y-14482071D01*
X11295332Y-14482071D02*
X11314380Y-14491595D01*
X11314380Y-14491595D02*
X11323903Y-14501119D01*
X11323903Y-14501119D02*
X11333427Y-14520167D01*
X11333427Y-14520167D02*
X11342951Y-14558262D01*
X11342951Y-14558262D02*
X11342951Y-14605881D01*
X11342951Y-14605881D02*
X11333427Y-14643976D01*
X11333427Y-14643976D02*
X11323903Y-14663024D01*
X11323903Y-14663024D02*
X11314380Y-14672548D01*
X11314380Y-14672548D02*
X11295332Y-14682071D01*
X11295332Y-14682071D02*
X11276284Y-14682071D01*
X11276284Y-14682071D02*
X11257237Y-14672548D01*
X11257237Y-14672548D02*
X11247713Y-14663024D01*
X11247713Y-14663024D02*
X11238189Y-14643976D01*
X11238189Y-14643976D02*
X11228665Y-14605881D01*
X11228665Y-14605881D02*
X11228665Y-14558262D01*
X11228665Y-14558262D02*
X11238189Y-14520167D01*
X11238189Y-14520167D02*
X11247713Y-14501119D01*
X11247713Y-14501119D02*
X11257237Y-14491595D01*
X11257237Y-14491595D02*
X11276284Y-14482071D01*
X11428665Y-14663024D02*
X11438189Y-14672548D01*
X11438189Y-14672548D02*
X11428665Y-14682071D01*
X11428665Y-14682071D02*
X11419141Y-14672548D01*
X11419141Y-14672548D02*
X11428665Y-14663024D01*
X11428665Y-14663024D02*
X11428665Y-14682071D01*
X11533427Y-14682071D02*
X11571522Y-14682071D01*
X11571522Y-14682071D02*
X11590570Y-14672548D01*
X11590570Y-14672548D02*
X11600094Y-14663024D01*
X11600094Y-14663024D02*
X11619141Y-14634452D01*
X11619141Y-14634452D02*
X11628665Y-14596357D01*
X11628665Y-14596357D02*
X11628665Y-14520167D01*
X11628665Y-14520167D02*
X11619141Y-14501119D01*
X11619141Y-14501119D02*
X11609618Y-14491595D01*
X11609618Y-14491595D02*
X11590570Y-14482071D01*
X11590570Y-14482071D02*
X11552475Y-14482071D01*
X11552475Y-14482071D02*
X11533427Y-14491595D01*
X11533427Y-14491595D02*
X11523903Y-14501119D01*
X11523903Y-14501119D02*
X11514380Y-14520167D01*
X11514380Y-14520167D02*
X11514380Y-14567786D01*
X11514380Y-14567786D02*
X11523903Y-14586833D01*
X11523903Y-14586833D02*
X11533427Y-14596357D01*
X11533427Y-14596357D02*
X11552475Y-14605881D01*
X11552475Y-14605881D02*
X11590570Y-14605881D01*
X11590570Y-14605881D02*
X11609618Y-14596357D01*
X11609618Y-14596357D02*
X11619141Y-14586833D01*
X11619141Y-14586833D02*
X11628665Y-14567786D01*
X11752475Y-14482071D02*
X11771522Y-14482071D01*
X11771522Y-14482071D02*
X11790570Y-14491595D01*
X11790570Y-14491595D02*
X11800094Y-14501119D01*
X11800094Y-14501119D02*
X11809618Y-14520167D01*
X11809618Y-14520167D02*
X11819141Y-14558262D01*
X11819141Y-14558262D02*
X11819141Y-14605881D01*
X11819141Y-14605881D02*
X11809618Y-14643976D01*
X11809618Y-14643976D02*
X11800094Y-14663024D01*
X11800094Y-14663024D02*
X11790570Y-14672548D01*
X11790570Y-14672548D02*
X11771522Y-14682071D01*
X11771522Y-14682071D02*
X11752475Y-14682071D01*
X11752475Y-14682071D02*
X11733427Y-14672548D01*
X11733427Y-14672548D02*
X11723903Y-14663024D01*
X11723903Y-14663024D02*
X11714380Y-14643976D01*
X11714380Y-14643976D02*
X11704856Y-14605881D01*
X11704856Y-14605881D02*
X11704856Y-14558262D01*
X11704856Y-14558262D02*
X11714380Y-14520167D01*
X11714380Y-14520167D02*
X11723903Y-14501119D01*
X11723903Y-14501119D02*
X11733427Y-14491595D01*
X11733427Y-14491595D02*
X11752475Y-14482071D01*
X11942951Y-14482071D02*
X11961999Y-14482071D01*
X11961999Y-14482071D02*
X11981046Y-14491595D01*
X11981046Y-14491595D02*
X11990570Y-14501119D01*
X11990570Y-14501119D02*
X12000094Y-14520167D01*
X12000094Y-14520167D02*
X12009618Y-14558262D01*
X12009618Y-14558262D02*
X12009618Y-14605881D01*
X12009618Y-14605881D02*
X12000094Y-14643976D01*
X12000094Y-14643976D02*
X11990570Y-14663024D01*
X11990570Y-14663024D02*
X11981046Y-14672548D01*
X11981046Y-14672548D02*
X11961999Y-14682071D01*
X11961999Y-14682071D02*
X11942951Y-14682071D01*
X11942951Y-14682071D02*
X11923903Y-14672548D01*
X11923903Y-14672548D02*
X11914380Y-14663024D01*
X11914380Y-14663024D02*
X11904856Y-14643976D01*
X11904856Y-14643976D02*
X11895332Y-14605881D01*
X11895332Y-14605881D02*
X11895332Y-14558262D01*
X11895332Y-14558262D02*
X11904856Y-14520167D01*
X11904856Y-14520167D02*
X11914380Y-14501119D01*
X11914380Y-14501119D02*
X11923903Y-14491595D01*
X11923903Y-14491595D02*
X11942951Y-14482071D01*
X12095332Y-14682071D02*
X12095332Y-14548738D01*
X12095332Y-14567786D02*
X12104856Y-14558262D01*
X12104856Y-14558262D02*
X12123903Y-14548738D01*
X12123903Y-14548738D02*
X12152475Y-14548738D01*
X12152475Y-14548738D02*
X12171522Y-14558262D01*
X12171522Y-14558262D02*
X12181046Y-14577309D01*
X12181046Y-14577309D02*
X12181046Y-14682071D01*
X12181046Y-14577309D02*
X12190570Y-14558262D01*
X12190570Y-14558262D02*
X12209618Y-14548738D01*
X12209618Y-14548738D02*
X12238189Y-14548738D01*
X12238189Y-14548738D02*
X12257237Y-14558262D01*
X12257237Y-14558262D02*
X12266761Y-14577309D01*
X12266761Y-14577309D02*
X12266761Y-14682071D01*
X12361999Y-14682071D02*
X12361999Y-14548738D01*
X12361999Y-14567786D02*
X12371522Y-14558262D01*
X12371522Y-14558262D02*
X12390570Y-14548738D01*
X12390570Y-14548738D02*
X12419142Y-14548738D01*
X12419142Y-14548738D02*
X12438189Y-14558262D01*
X12438189Y-14558262D02*
X12447713Y-14577309D01*
X12447713Y-14577309D02*
X12447713Y-14682071D01*
X12447713Y-14577309D02*
X12457237Y-14558262D01*
X12457237Y-14558262D02*
X12476284Y-14548738D01*
X12476284Y-14548738D02*
X12504856Y-14548738D01*
X12504856Y-14548738D02*
X12523903Y-14558262D01*
X12523903Y-14558262D02*
X12533427Y-14577309D01*
X12533427Y-14577309D02*
X12533427Y-14682071D01*
X12923903Y-14472548D02*
X12752475Y-14729690D01*
X13181046Y-14482071D02*
X13200094Y-14482071D01*
X13200094Y-14482071D02*
X13219142Y-14491595D01*
X13219142Y-14491595D02*
X13228665Y-14501119D01*
X13228665Y-14501119D02*
X13238189Y-14520167D01*
X13238189Y-14520167D02*
X13247713Y-14558262D01*
X13247713Y-14558262D02*
X13247713Y-14605881D01*
X13247713Y-14605881D02*
X13238189Y-14643976D01*
X13238189Y-14643976D02*
X13228665Y-14663024D01*
X13228665Y-14663024D02*
X13219142Y-14672548D01*
X13219142Y-14672548D02*
X13200094Y-14682071D01*
X13200094Y-14682071D02*
X13181046Y-14682071D01*
X13181046Y-14682071D02*
X13161999Y-14672548D01*
X13161999Y-14672548D02*
X13152475Y-14663024D01*
X13152475Y-14663024D02*
X13142951Y-14643976D01*
X13142951Y-14643976D02*
X13133427Y-14605881D01*
X13133427Y-14605881D02*
X13133427Y-14558262D01*
X13133427Y-14558262D02*
X13142951Y-14520167D01*
X13142951Y-14520167D02*
X13152475Y-14501119D01*
X13152475Y-14501119D02*
X13161999Y-14491595D01*
X13161999Y-14491595D02*
X13181046Y-14482071D01*
X13333427Y-14663024D02*
X13342951Y-14672548D01*
X13342951Y-14672548D02*
X13333427Y-14682071D01*
X13333427Y-14682071D02*
X13323904Y-14672548D01*
X13323904Y-14672548D02*
X13333427Y-14663024D01*
X13333427Y-14663024D02*
X13333427Y-14682071D01*
X13466761Y-14482071D02*
X13485808Y-14482071D01*
X13485808Y-14482071D02*
X13504856Y-14491595D01*
X13504856Y-14491595D02*
X13514380Y-14501119D01*
X13514380Y-14501119D02*
X13523904Y-14520167D01*
X13523904Y-14520167D02*
X13533427Y-14558262D01*
X13533427Y-14558262D02*
X13533427Y-14605881D01*
X13533427Y-14605881D02*
X13523904Y-14643976D01*
X13523904Y-14643976D02*
X13514380Y-14663024D01*
X13514380Y-14663024D02*
X13504856Y-14672548D01*
X13504856Y-14672548D02*
X13485808Y-14682071D01*
X13485808Y-14682071D02*
X13466761Y-14682071D01*
X13466761Y-14682071D02*
X13447713Y-14672548D01*
X13447713Y-14672548D02*
X13438189Y-14663024D01*
X13438189Y-14663024D02*
X13428665Y-14643976D01*
X13428665Y-14643976D02*
X13419142Y-14605881D01*
X13419142Y-14605881D02*
X13419142Y-14558262D01*
X13419142Y-14558262D02*
X13428665Y-14520167D01*
X13428665Y-14520167D02*
X13438189Y-14501119D01*
X13438189Y-14501119D02*
X13447713Y-14491595D01*
X13447713Y-14491595D02*
X13466761Y-14482071D01*
X13600094Y-14482071D02*
X13723904Y-14482071D01*
X13723904Y-14482071D02*
X13657237Y-14558262D01*
X13657237Y-14558262D02*
X13685808Y-14558262D01*
X13685808Y-14558262D02*
X13704856Y-14567786D01*
X13704856Y-14567786D02*
X13714380Y-14577309D01*
X13714380Y-14577309D02*
X13723904Y-14596357D01*
X13723904Y-14596357D02*
X13723904Y-14643976D01*
X13723904Y-14643976D02*
X13714380Y-14663024D01*
X13714380Y-14663024D02*
X13704856Y-14672548D01*
X13704856Y-14672548D02*
X13685808Y-14682071D01*
X13685808Y-14682071D02*
X13628665Y-14682071D01*
X13628665Y-14682071D02*
X13609618Y-14672548D01*
X13609618Y-14672548D02*
X13600094Y-14663024D01*
X13904856Y-14482071D02*
X13809618Y-14482071D01*
X13809618Y-14482071D02*
X13800094Y-14577309D01*
X13800094Y-14577309D02*
X13809618Y-14567786D01*
X13809618Y-14567786D02*
X13828665Y-14558262D01*
X13828665Y-14558262D02*
X13876285Y-14558262D01*
X13876285Y-14558262D02*
X13895332Y-14567786D01*
X13895332Y-14567786D02*
X13904856Y-14577309D01*
X13904856Y-14577309D02*
X13914380Y-14596357D01*
X13914380Y-14596357D02*
X13914380Y-14643976D01*
X13914380Y-14643976D02*
X13904856Y-14663024D01*
X13904856Y-14663024D02*
X13895332Y-14672548D01*
X13895332Y-14672548D02*
X13876285Y-14682071D01*
X13876285Y-14682071D02*
X13828665Y-14682071D01*
X13828665Y-14682071D02*
X13809618Y-14672548D01*
X13809618Y-14672548D02*
X13800094Y-14663024D01*
X14085808Y-14548738D02*
X14085808Y-14682071D01*
X14038189Y-14472548D02*
X13990570Y-14615405D01*
X13990570Y-14615405D02*
X14114380Y-14615405D01*
X14181046Y-14482071D02*
X14181046Y-14520167D01*
X14257237Y-14482071D02*
X14257237Y-14520167D01*
X14552475Y-14758262D02*
X14542951Y-14748738D01*
X14542951Y-14748738D02*
X14523904Y-14720167D01*
X14523904Y-14720167D02*
X14514380Y-14701119D01*
X14514380Y-14701119D02*
X14504856Y-14672548D01*
X14504856Y-14672548D02*
X14495332Y-14624928D01*
X14495332Y-14624928D02*
X14495332Y-14586833D01*
X14495332Y-14586833D02*
X14504856Y-14539214D01*
X14504856Y-14539214D02*
X14514380Y-14510643D01*
X14514380Y-14510643D02*
X14523904Y-14491595D01*
X14523904Y-14491595D02*
X14542951Y-14463024D01*
X14542951Y-14463024D02*
X14552475Y-14453500D01*
X14657237Y-14567786D02*
X14638189Y-14558262D01*
X14638189Y-14558262D02*
X14628666Y-14548738D01*
X14628666Y-14548738D02*
X14619142Y-14529690D01*
X14619142Y-14529690D02*
X14619142Y-14520167D01*
X14619142Y-14520167D02*
X14628666Y-14501119D01*
X14628666Y-14501119D02*
X14638189Y-14491595D01*
X14638189Y-14491595D02*
X14657237Y-14482071D01*
X14657237Y-14482071D02*
X14695332Y-14482071D01*
X14695332Y-14482071D02*
X14714380Y-14491595D01*
X14714380Y-14491595D02*
X14723904Y-14501119D01*
X14723904Y-14501119D02*
X14733427Y-14520167D01*
X14733427Y-14520167D02*
X14733427Y-14529690D01*
X14733427Y-14529690D02*
X14723904Y-14548738D01*
X14723904Y-14548738D02*
X14714380Y-14558262D01*
X14714380Y-14558262D02*
X14695332Y-14567786D01*
X14695332Y-14567786D02*
X14657237Y-14567786D01*
X14657237Y-14567786D02*
X14638189Y-14577309D01*
X14638189Y-14577309D02*
X14628666Y-14586833D01*
X14628666Y-14586833D02*
X14619142Y-14605881D01*
X14619142Y-14605881D02*
X14619142Y-14643976D01*
X14619142Y-14643976D02*
X14628666Y-14663024D01*
X14628666Y-14663024D02*
X14638189Y-14672548D01*
X14638189Y-14672548D02*
X14657237Y-14682071D01*
X14657237Y-14682071D02*
X14695332Y-14682071D01*
X14695332Y-14682071D02*
X14714380Y-14672548D01*
X14714380Y-14672548D02*
X14723904Y-14663024D01*
X14723904Y-14663024D02*
X14733427Y-14643976D01*
X14733427Y-14643976D02*
X14733427Y-14605881D01*
X14733427Y-14605881D02*
X14723904Y-14586833D01*
X14723904Y-14586833D02*
X14714380Y-14577309D01*
X14714380Y-14577309D02*
X14695332Y-14567786D01*
X14971523Y-14682071D02*
X14971523Y-14482071D01*
X15057237Y-14682071D02*
X15057237Y-14577309D01*
X15057237Y-14577309D02*
X15047713Y-14558262D01*
X15047713Y-14558262D02*
X15028666Y-14548738D01*
X15028666Y-14548738D02*
X15000094Y-14548738D01*
X15000094Y-14548738D02*
X14981047Y-14558262D01*
X14981047Y-14558262D02*
X14971523Y-14567786D01*
X15181047Y-14682071D02*
X15161999Y-14672548D01*
X15161999Y-14672548D02*
X15152475Y-14663024D01*
X15152475Y-14663024D02*
X15142951Y-14643976D01*
X15142951Y-14643976D02*
X15142951Y-14586833D01*
X15142951Y-14586833D02*
X15152475Y-14567786D01*
X15152475Y-14567786D02*
X15161999Y-14558262D01*
X15161999Y-14558262D02*
X15181047Y-14548738D01*
X15181047Y-14548738D02*
X15209618Y-14548738D01*
X15209618Y-14548738D02*
X15228666Y-14558262D01*
X15228666Y-14558262D02*
X15238189Y-14567786D01*
X15238189Y-14567786D02*
X15247713Y-14586833D01*
X15247713Y-14586833D02*
X15247713Y-14643976D01*
X15247713Y-14643976D02*
X15238189Y-14663024D01*
X15238189Y-14663024D02*
X15228666Y-14672548D01*
X15228666Y-14672548D02*
X15209618Y-14682071D01*
X15209618Y-14682071D02*
X15181047Y-14682071D01*
X15361999Y-14682071D02*
X15342951Y-14672548D01*
X15342951Y-14672548D02*
X15333428Y-14653500D01*
X15333428Y-14653500D02*
X15333428Y-14482071D01*
X15514380Y-14672548D02*
X15495332Y-14682071D01*
X15495332Y-14682071D02*
X15457237Y-14682071D01*
X15457237Y-14682071D02*
X15438189Y-14672548D01*
X15438189Y-14672548D02*
X15428666Y-14653500D01*
X15428666Y-14653500D02*
X15428666Y-14577309D01*
X15428666Y-14577309D02*
X15438189Y-14558262D01*
X15438189Y-14558262D02*
X15457237Y-14548738D01*
X15457237Y-14548738D02*
X15495332Y-14548738D01*
X15495332Y-14548738D02*
X15514380Y-14558262D01*
X15514380Y-14558262D02*
X15523904Y-14577309D01*
X15523904Y-14577309D02*
X15523904Y-14596357D01*
X15523904Y-14596357D02*
X15428666Y-14615405D01*
X15600094Y-14672548D02*
X15619142Y-14682071D01*
X15619142Y-14682071D02*
X15657237Y-14682071D01*
X15657237Y-14682071D02*
X15676285Y-14672548D01*
X15676285Y-14672548D02*
X15685809Y-14653500D01*
X15685809Y-14653500D02*
X15685809Y-14643976D01*
X15685809Y-14643976D02*
X15676285Y-14624928D01*
X15676285Y-14624928D02*
X15657237Y-14615405D01*
X15657237Y-14615405D02*
X15628666Y-14615405D01*
X15628666Y-14615405D02*
X15609618Y-14605881D01*
X15609618Y-14605881D02*
X15600094Y-14586833D01*
X15600094Y-14586833D02*
X15600094Y-14577309D01*
X15600094Y-14577309D02*
X15609618Y-14558262D01*
X15609618Y-14558262D02*
X15628666Y-14548738D01*
X15628666Y-14548738D02*
X15657237Y-14548738D01*
X15657237Y-14548738D02*
X15676285Y-14558262D01*
X15752475Y-14758262D02*
X15761999Y-14748738D01*
X15761999Y-14748738D02*
X15781047Y-14720167D01*
X15781047Y-14720167D02*
X15790570Y-14701119D01*
X15790570Y-14701119D02*
X15800094Y-14672548D01*
X15800094Y-14672548D02*
X15809618Y-14624928D01*
X15809618Y-14624928D02*
X15809618Y-14586833D01*
X15809618Y-14586833D02*
X15800094Y-14539214D01*
X15800094Y-14539214D02*
X15790570Y-14510643D01*
X15790570Y-14510643D02*
X15781047Y-14491595D01*
X15781047Y-14491595D02*
X15761999Y-14463024D01*
X15761999Y-14463024D02*
X15752475Y-14453500D01*
D12*
X10962768Y-14889943D02*
X10962768Y-14819232D01*
X10892057Y-14819232D01*
X10892057Y-14889943D01*
X10962768Y-14889943D01*
D11*
X11342951Y-14946071D02*
X11228665Y-14946071D01*
X11285808Y-14946071D02*
X11285808Y-14746071D01*
X11285808Y-14746071D02*
X11266760Y-14774643D01*
X11266760Y-14774643D02*
X11247713Y-14793690D01*
X11247713Y-14793690D02*
X11228665Y-14803214D01*
X11428665Y-14927024D02*
X11438189Y-14936548D01*
X11438189Y-14936548D02*
X11428665Y-14946071D01*
X11428665Y-14946071D02*
X11419141Y-14936548D01*
X11419141Y-14936548D02*
X11428665Y-14927024D01*
X11428665Y-14927024D02*
X11428665Y-14946071D01*
X11561999Y-14746071D02*
X11581046Y-14746071D01*
X11581046Y-14746071D02*
X11600094Y-14755595D01*
X11600094Y-14755595D02*
X11609618Y-14765119D01*
X11609618Y-14765119D02*
X11619141Y-14784167D01*
X11619141Y-14784167D02*
X11628665Y-14822262D01*
X11628665Y-14822262D02*
X11628665Y-14869881D01*
X11628665Y-14869881D02*
X11619141Y-14907976D01*
X11619141Y-14907976D02*
X11609618Y-14927024D01*
X11609618Y-14927024D02*
X11600094Y-14936548D01*
X11600094Y-14936548D02*
X11581046Y-14946071D01*
X11581046Y-14946071D02*
X11561999Y-14946071D01*
X11561999Y-14946071D02*
X11542951Y-14936548D01*
X11542951Y-14936548D02*
X11533427Y-14927024D01*
X11533427Y-14927024D02*
X11523903Y-14907976D01*
X11523903Y-14907976D02*
X11514380Y-14869881D01*
X11514380Y-14869881D02*
X11514380Y-14822262D01*
X11514380Y-14822262D02*
X11523903Y-14784167D01*
X11523903Y-14784167D02*
X11533427Y-14765119D01*
X11533427Y-14765119D02*
X11542951Y-14755595D01*
X11542951Y-14755595D02*
X11561999Y-14746071D01*
X11752475Y-14746071D02*
X11771522Y-14746071D01*
X11771522Y-14746071D02*
X11790570Y-14755595D01*
X11790570Y-14755595D02*
X11800094Y-14765119D01*
X11800094Y-14765119D02*
X11809618Y-14784167D01*
X11809618Y-14784167D02*
X11819141Y-14822262D01*
X11819141Y-14822262D02*
X11819141Y-14869881D01*
X11819141Y-14869881D02*
X11809618Y-14907976D01*
X11809618Y-14907976D02*
X11800094Y-14927024D01*
X11800094Y-14927024D02*
X11790570Y-14936548D01*
X11790570Y-14936548D02*
X11771522Y-14946071D01*
X11771522Y-14946071D02*
X11752475Y-14946071D01*
X11752475Y-14946071D02*
X11733427Y-14936548D01*
X11733427Y-14936548D02*
X11723903Y-14927024D01*
X11723903Y-14927024D02*
X11714380Y-14907976D01*
X11714380Y-14907976D02*
X11704856Y-14869881D01*
X11704856Y-14869881D02*
X11704856Y-14822262D01*
X11704856Y-14822262D02*
X11714380Y-14784167D01*
X11714380Y-14784167D02*
X11723903Y-14765119D01*
X11723903Y-14765119D02*
X11733427Y-14755595D01*
X11733427Y-14755595D02*
X11752475Y-14746071D01*
X11942951Y-14746071D02*
X11961999Y-14746071D01*
X11961999Y-14746071D02*
X11981046Y-14755595D01*
X11981046Y-14755595D02*
X11990570Y-14765119D01*
X11990570Y-14765119D02*
X12000094Y-14784167D01*
X12000094Y-14784167D02*
X12009618Y-14822262D01*
X12009618Y-14822262D02*
X12009618Y-14869881D01*
X12009618Y-14869881D02*
X12000094Y-14907976D01*
X12000094Y-14907976D02*
X11990570Y-14927024D01*
X11990570Y-14927024D02*
X11981046Y-14936548D01*
X11981046Y-14936548D02*
X11961999Y-14946071D01*
X11961999Y-14946071D02*
X11942951Y-14946071D01*
X11942951Y-14946071D02*
X11923903Y-14936548D01*
X11923903Y-14936548D02*
X11914380Y-14927024D01*
X11914380Y-14927024D02*
X11904856Y-14907976D01*
X11904856Y-14907976D02*
X11895332Y-14869881D01*
X11895332Y-14869881D02*
X11895332Y-14822262D01*
X11895332Y-14822262D02*
X11904856Y-14784167D01*
X11904856Y-14784167D02*
X11914380Y-14765119D01*
X11914380Y-14765119D02*
X11923903Y-14755595D01*
X11923903Y-14755595D02*
X11942951Y-14746071D01*
X12095332Y-14946071D02*
X12095332Y-14812738D01*
X12095332Y-14831786D02*
X12104856Y-14822262D01*
X12104856Y-14822262D02*
X12123903Y-14812738D01*
X12123903Y-14812738D02*
X12152475Y-14812738D01*
X12152475Y-14812738D02*
X12171522Y-14822262D01*
X12171522Y-14822262D02*
X12181046Y-14841309D01*
X12181046Y-14841309D02*
X12181046Y-14946071D01*
X12181046Y-14841309D02*
X12190570Y-14822262D01*
X12190570Y-14822262D02*
X12209618Y-14812738D01*
X12209618Y-14812738D02*
X12238189Y-14812738D01*
X12238189Y-14812738D02*
X12257237Y-14822262D01*
X12257237Y-14822262D02*
X12266761Y-14841309D01*
X12266761Y-14841309D02*
X12266761Y-14946071D01*
X12361999Y-14946071D02*
X12361999Y-14812738D01*
X12361999Y-14831786D02*
X12371522Y-14822262D01*
X12371522Y-14822262D02*
X12390570Y-14812738D01*
X12390570Y-14812738D02*
X12419142Y-14812738D01*
X12419142Y-14812738D02*
X12438189Y-14822262D01*
X12438189Y-14822262D02*
X12447713Y-14841309D01*
X12447713Y-14841309D02*
X12447713Y-14946071D01*
X12447713Y-14841309D02*
X12457237Y-14822262D01*
X12457237Y-14822262D02*
X12476284Y-14812738D01*
X12476284Y-14812738D02*
X12504856Y-14812738D01*
X12504856Y-14812738D02*
X12523903Y-14822262D01*
X12523903Y-14822262D02*
X12533427Y-14841309D01*
X12533427Y-14841309D02*
X12533427Y-14946071D01*
X12923903Y-14736548D02*
X12752475Y-14993690D01*
X13181046Y-14746071D02*
X13200094Y-14746071D01*
X13200094Y-14746071D02*
X13219142Y-14755595D01*
X13219142Y-14755595D02*
X13228665Y-14765119D01*
X13228665Y-14765119D02*
X13238189Y-14784167D01*
X13238189Y-14784167D02*
X13247713Y-14822262D01*
X13247713Y-14822262D02*
X13247713Y-14869881D01*
X13247713Y-14869881D02*
X13238189Y-14907976D01*
X13238189Y-14907976D02*
X13228665Y-14927024D01*
X13228665Y-14927024D02*
X13219142Y-14936548D01*
X13219142Y-14936548D02*
X13200094Y-14946071D01*
X13200094Y-14946071D02*
X13181046Y-14946071D01*
X13181046Y-14946071D02*
X13161999Y-14936548D01*
X13161999Y-14936548D02*
X13152475Y-14927024D01*
X13152475Y-14927024D02*
X13142951Y-14907976D01*
X13142951Y-14907976D02*
X13133427Y-14869881D01*
X13133427Y-14869881D02*
X13133427Y-14822262D01*
X13133427Y-14822262D02*
X13142951Y-14784167D01*
X13142951Y-14784167D02*
X13152475Y-14765119D01*
X13152475Y-14765119D02*
X13161999Y-14755595D01*
X13161999Y-14755595D02*
X13181046Y-14746071D01*
X13333427Y-14927024D02*
X13342951Y-14936548D01*
X13342951Y-14936548D02*
X13333427Y-14946071D01*
X13333427Y-14946071D02*
X13323904Y-14936548D01*
X13323904Y-14936548D02*
X13333427Y-14927024D01*
X13333427Y-14927024D02*
X13333427Y-14946071D01*
X13466761Y-14746071D02*
X13485808Y-14746071D01*
X13485808Y-14746071D02*
X13504856Y-14755595D01*
X13504856Y-14755595D02*
X13514380Y-14765119D01*
X13514380Y-14765119D02*
X13523904Y-14784167D01*
X13523904Y-14784167D02*
X13533427Y-14822262D01*
X13533427Y-14822262D02*
X13533427Y-14869881D01*
X13533427Y-14869881D02*
X13523904Y-14907976D01*
X13523904Y-14907976D02*
X13514380Y-14927024D01*
X13514380Y-14927024D02*
X13504856Y-14936548D01*
X13504856Y-14936548D02*
X13485808Y-14946071D01*
X13485808Y-14946071D02*
X13466761Y-14946071D01*
X13466761Y-14946071D02*
X13447713Y-14936548D01*
X13447713Y-14936548D02*
X13438189Y-14927024D01*
X13438189Y-14927024D02*
X13428665Y-14907976D01*
X13428665Y-14907976D02*
X13419142Y-14869881D01*
X13419142Y-14869881D02*
X13419142Y-14822262D01*
X13419142Y-14822262D02*
X13428665Y-14784167D01*
X13428665Y-14784167D02*
X13438189Y-14765119D01*
X13438189Y-14765119D02*
X13447713Y-14755595D01*
X13447713Y-14755595D02*
X13466761Y-14746071D01*
X13600094Y-14746071D02*
X13723904Y-14746071D01*
X13723904Y-14746071D02*
X13657237Y-14822262D01*
X13657237Y-14822262D02*
X13685808Y-14822262D01*
X13685808Y-14822262D02*
X13704856Y-14831786D01*
X13704856Y-14831786D02*
X13714380Y-14841309D01*
X13714380Y-14841309D02*
X13723904Y-14860357D01*
X13723904Y-14860357D02*
X13723904Y-14907976D01*
X13723904Y-14907976D02*
X13714380Y-14927024D01*
X13714380Y-14927024D02*
X13704856Y-14936548D01*
X13704856Y-14936548D02*
X13685808Y-14946071D01*
X13685808Y-14946071D02*
X13628665Y-14946071D01*
X13628665Y-14946071D02*
X13609618Y-14936548D01*
X13609618Y-14936548D02*
X13600094Y-14927024D01*
X13819142Y-14946071D02*
X13857237Y-14946071D01*
X13857237Y-14946071D02*
X13876285Y-14936548D01*
X13876285Y-14936548D02*
X13885808Y-14927024D01*
X13885808Y-14927024D02*
X13904856Y-14898452D01*
X13904856Y-14898452D02*
X13914380Y-14860357D01*
X13914380Y-14860357D02*
X13914380Y-14784167D01*
X13914380Y-14784167D02*
X13904856Y-14765119D01*
X13904856Y-14765119D02*
X13895332Y-14755595D01*
X13895332Y-14755595D02*
X13876285Y-14746071D01*
X13876285Y-14746071D02*
X13838189Y-14746071D01*
X13838189Y-14746071D02*
X13819142Y-14755595D01*
X13819142Y-14755595D02*
X13809618Y-14765119D01*
X13809618Y-14765119D02*
X13800094Y-14784167D01*
X13800094Y-14784167D02*
X13800094Y-14831786D01*
X13800094Y-14831786D02*
X13809618Y-14850833D01*
X13809618Y-14850833D02*
X13819142Y-14860357D01*
X13819142Y-14860357D02*
X13838189Y-14869881D01*
X13838189Y-14869881D02*
X13876285Y-14869881D01*
X13876285Y-14869881D02*
X13895332Y-14860357D01*
X13895332Y-14860357D02*
X13904856Y-14850833D01*
X13904856Y-14850833D02*
X13914380Y-14831786D01*
X14085808Y-14812738D02*
X14085808Y-14946071D01*
X14038189Y-14736548D02*
X13990570Y-14879405D01*
X13990570Y-14879405D02*
X14114380Y-14879405D01*
X14181046Y-14746071D02*
X14181046Y-14784167D01*
X14257237Y-14746071D02*
X14257237Y-14784167D01*
X14552475Y-15022262D02*
X14542951Y-15012738D01*
X14542951Y-15012738D02*
X14523904Y-14984167D01*
X14523904Y-14984167D02*
X14514380Y-14965119D01*
X14514380Y-14965119D02*
X14504856Y-14936548D01*
X14504856Y-14936548D02*
X14495332Y-14888928D01*
X14495332Y-14888928D02*
X14495332Y-14850833D01*
X14495332Y-14850833D02*
X14504856Y-14803214D01*
X14504856Y-14803214D02*
X14514380Y-14774643D01*
X14514380Y-14774643D02*
X14523904Y-14755595D01*
X14523904Y-14755595D02*
X14542951Y-14727024D01*
X14542951Y-14727024D02*
X14552475Y-14717500D01*
X14714380Y-14812738D02*
X14714380Y-14946071D01*
X14666761Y-14736548D02*
X14619142Y-14879405D01*
X14619142Y-14879405D02*
X14742951Y-14879405D01*
X14904856Y-14812738D02*
X14904856Y-14946071D01*
X14857237Y-14736548D02*
X14809618Y-14879405D01*
X14809618Y-14879405D02*
X14933427Y-14879405D01*
X15161999Y-14946071D02*
X15161999Y-14746071D01*
X15247713Y-14946071D02*
X15247713Y-14841309D01*
X15247713Y-14841309D02*
X15238189Y-14822262D01*
X15238189Y-14822262D02*
X15219142Y-14812738D01*
X15219142Y-14812738D02*
X15190570Y-14812738D01*
X15190570Y-14812738D02*
X15171523Y-14822262D01*
X15171523Y-14822262D02*
X15161999Y-14831786D01*
X15371523Y-14946071D02*
X15352475Y-14936548D01*
X15352475Y-14936548D02*
X15342951Y-14927024D01*
X15342951Y-14927024D02*
X15333428Y-14907976D01*
X15333428Y-14907976D02*
X15333428Y-14850833D01*
X15333428Y-14850833D02*
X15342951Y-14831786D01*
X15342951Y-14831786D02*
X15352475Y-14822262D01*
X15352475Y-14822262D02*
X15371523Y-14812738D01*
X15371523Y-14812738D02*
X15400094Y-14812738D01*
X15400094Y-14812738D02*
X15419142Y-14822262D01*
X15419142Y-14822262D02*
X15428666Y-14831786D01*
X15428666Y-14831786D02*
X15438189Y-14850833D01*
X15438189Y-14850833D02*
X15438189Y-14907976D01*
X15438189Y-14907976D02*
X15428666Y-14927024D01*
X15428666Y-14927024D02*
X15419142Y-14936548D01*
X15419142Y-14936548D02*
X15400094Y-14946071D01*
X15400094Y-14946071D02*
X15371523Y-14946071D01*
X15552475Y-14946071D02*
X15533428Y-14936548D01*
X15533428Y-14936548D02*
X15523904Y-14917500D01*
X15523904Y-14917500D02*
X15523904Y-14746071D01*
X15704856Y-14936548D02*
X15685809Y-14946071D01*
X15685809Y-14946071D02*
X15647713Y-14946071D01*
X15647713Y-14946071D02*
X15628666Y-14936548D01*
X15628666Y-14936548D02*
X15619142Y-14917500D01*
X15619142Y-14917500D02*
X15619142Y-14841309D01*
X15619142Y-14841309D02*
X15628666Y-14822262D01*
X15628666Y-14822262D02*
X15647713Y-14812738D01*
X15647713Y-14812738D02*
X15685809Y-14812738D01*
X15685809Y-14812738D02*
X15704856Y-14822262D01*
X15704856Y-14822262D02*
X15714380Y-14841309D01*
X15714380Y-14841309D02*
X15714380Y-14860357D01*
X15714380Y-14860357D02*
X15619142Y-14879405D01*
X15790570Y-14936548D02*
X15809618Y-14946071D01*
X15809618Y-14946071D02*
X15847713Y-14946071D01*
X15847713Y-14946071D02*
X15866761Y-14936548D01*
X15866761Y-14936548D02*
X15876285Y-14917500D01*
X15876285Y-14917500D02*
X15876285Y-14907976D01*
X15876285Y-14907976D02*
X15866761Y-14888928D01*
X15866761Y-14888928D02*
X15847713Y-14879405D01*
X15847713Y-14879405D02*
X15819142Y-14879405D01*
X15819142Y-14879405D02*
X15800094Y-14869881D01*
X15800094Y-14869881D02*
X15790570Y-14850833D01*
X15790570Y-14850833D02*
X15790570Y-14841309D01*
X15790570Y-14841309D02*
X15800094Y-14822262D01*
X15800094Y-14822262D02*
X15819142Y-14812738D01*
X15819142Y-14812738D02*
X15847713Y-14812738D01*
X15847713Y-14812738D02*
X15866761Y-14822262D01*
X16114380Y-14869881D02*
X16266761Y-14869881D01*
X16190571Y-14946071D02*
X16190571Y-14793690D01*
X16495332Y-14746071D02*
X16619142Y-14746071D01*
X16619142Y-14746071D02*
X16552475Y-14822262D01*
X16552475Y-14822262D02*
X16581047Y-14822262D01*
X16581047Y-14822262D02*
X16600094Y-14831786D01*
X16600094Y-14831786D02*
X16609618Y-14841309D01*
X16609618Y-14841309D02*
X16619142Y-14860357D01*
X16619142Y-14860357D02*
X16619142Y-14907976D01*
X16619142Y-14907976D02*
X16609618Y-14927024D01*
X16609618Y-14927024D02*
X16600094Y-14936548D01*
X16600094Y-14936548D02*
X16581047Y-14946071D01*
X16581047Y-14946071D02*
X16523904Y-14946071D01*
X16523904Y-14946071D02*
X16504856Y-14936548D01*
X16504856Y-14936548D02*
X16495332Y-14927024D01*
X16847714Y-14936548D02*
X16866761Y-14946071D01*
X16866761Y-14946071D02*
X16904856Y-14946071D01*
X16904856Y-14946071D02*
X16923904Y-14936548D01*
X16923904Y-14936548D02*
X16933428Y-14917500D01*
X16933428Y-14917500D02*
X16933428Y-14907976D01*
X16933428Y-14907976D02*
X16923904Y-14888928D01*
X16923904Y-14888928D02*
X16904856Y-14879405D01*
X16904856Y-14879405D02*
X16876285Y-14879405D01*
X16876285Y-14879405D02*
X16857237Y-14869881D01*
X16857237Y-14869881D02*
X16847714Y-14850833D01*
X16847714Y-14850833D02*
X16847714Y-14841309D01*
X16847714Y-14841309D02*
X16857237Y-14822262D01*
X16857237Y-14822262D02*
X16876285Y-14812738D01*
X16876285Y-14812738D02*
X16904856Y-14812738D01*
X16904856Y-14812738D02*
X16923904Y-14822262D01*
X17047714Y-14946071D02*
X17028666Y-14936548D01*
X17028666Y-14936548D02*
X17019142Y-14917500D01*
X17019142Y-14917500D02*
X17019142Y-14746071D01*
X17152475Y-14946071D02*
X17133428Y-14936548D01*
X17133428Y-14936548D02*
X17123904Y-14927024D01*
X17123904Y-14927024D02*
X17114380Y-14907976D01*
X17114380Y-14907976D02*
X17114380Y-14850833D01*
X17114380Y-14850833D02*
X17123904Y-14831786D01*
X17123904Y-14831786D02*
X17133428Y-14822262D01*
X17133428Y-14822262D02*
X17152475Y-14812738D01*
X17152475Y-14812738D02*
X17181047Y-14812738D01*
X17181047Y-14812738D02*
X17200095Y-14822262D01*
X17200095Y-14822262D02*
X17209618Y-14831786D01*
X17209618Y-14831786D02*
X17219142Y-14850833D01*
X17219142Y-14850833D02*
X17219142Y-14907976D01*
X17219142Y-14907976D02*
X17209618Y-14927024D01*
X17209618Y-14927024D02*
X17200095Y-14936548D01*
X17200095Y-14936548D02*
X17181047Y-14946071D01*
X17181047Y-14946071D02*
X17152475Y-14946071D01*
X17276285Y-14812738D02*
X17352475Y-14812738D01*
X17304856Y-14746071D02*
X17304856Y-14917500D01*
X17304856Y-14917500D02*
X17314380Y-14936548D01*
X17314380Y-14936548D02*
X17333428Y-14946071D01*
X17333428Y-14946071D02*
X17352475Y-14946071D01*
X17409618Y-14936548D02*
X17428666Y-14946071D01*
X17428666Y-14946071D02*
X17466761Y-14946071D01*
X17466761Y-14946071D02*
X17485809Y-14936548D01*
X17485809Y-14936548D02*
X17495333Y-14917500D01*
X17495333Y-14917500D02*
X17495333Y-14907976D01*
X17495333Y-14907976D02*
X17485809Y-14888928D01*
X17485809Y-14888928D02*
X17466761Y-14879405D01*
X17466761Y-14879405D02*
X17438190Y-14879405D01*
X17438190Y-14879405D02*
X17419142Y-14869881D01*
X17419142Y-14869881D02*
X17409618Y-14850833D01*
X17409618Y-14850833D02*
X17409618Y-14841309D01*
X17409618Y-14841309D02*
X17419142Y-14822262D01*
X17419142Y-14822262D02*
X17438190Y-14812738D01*
X17438190Y-14812738D02*
X17466761Y-14812738D01*
X17466761Y-14812738D02*
X17485809Y-14822262D01*
X17561999Y-15022262D02*
X17571523Y-15012738D01*
X17571523Y-15012738D02*
X17590571Y-14984167D01*
X17590571Y-14984167D02*
X17600095Y-14965119D01*
X17600095Y-14965119D02*
X17609618Y-14936548D01*
X17609618Y-14936548D02*
X17619142Y-14888928D01*
X17619142Y-14888928D02*
X17619142Y-14850833D01*
X17619142Y-14850833D02*
X17609618Y-14803214D01*
X17609618Y-14803214D02*
X17600095Y-14774643D01*
X17600095Y-14774643D02*
X17590571Y-14755595D01*
X17590571Y-14755595D02*
X17571523Y-14727024D01*
X17571523Y-14727024D02*
X17561999Y-14717500D01*
D13*
X10912412Y-15183588D02*
X10977412Y-15118588D01*
X10912412Y-15053588D01*
X10847412Y-15118588D01*
X10912412Y-15183588D01*
D11*
X11342951Y-15210071D02*
X11228665Y-15210071D01*
X11285808Y-15210071D02*
X11285808Y-15010071D01*
X11285808Y-15010071D02*
X11266760Y-15038643D01*
X11266760Y-15038643D02*
X11247713Y-15057690D01*
X11247713Y-15057690D02*
X11228665Y-15067214D01*
X11428665Y-15191024D02*
X11438189Y-15200548D01*
X11438189Y-15200548D02*
X11428665Y-15210071D01*
X11428665Y-15210071D02*
X11419141Y-15200548D01*
X11419141Y-15200548D02*
X11428665Y-15191024D01*
X11428665Y-15191024D02*
X11428665Y-15210071D01*
X11504856Y-15010071D02*
X11628665Y-15010071D01*
X11628665Y-15010071D02*
X11561999Y-15086262D01*
X11561999Y-15086262D02*
X11590570Y-15086262D01*
X11590570Y-15086262D02*
X11609618Y-15095786D01*
X11609618Y-15095786D02*
X11619141Y-15105309D01*
X11619141Y-15105309D02*
X11628665Y-15124357D01*
X11628665Y-15124357D02*
X11628665Y-15171976D01*
X11628665Y-15171976D02*
X11619141Y-15191024D01*
X11619141Y-15191024D02*
X11609618Y-15200548D01*
X11609618Y-15200548D02*
X11590570Y-15210071D01*
X11590570Y-15210071D02*
X11533427Y-15210071D01*
X11533427Y-15210071D02*
X11514380Y-15200548D01*
X11514380Y-15200548D02*
X11504856Y-15191024D01*
X11752475Y-15010071D02*
X11771522Y-15010071D01*
X11771522Y-15010071D02*
X11790570Y-15019595D01*
X11790570Y-15019595D02*
X11800094Y-15029119D01*
X11800094Y-15029119D02*
X11809618Y-15048167D01*
X11809618Y-15048167D02*
X11819141Y-15086262D01*
X11819141Y-15086262D02*
X11819141Y-15133881D01*
X11819141Y-15133881D02*
X11809618Y-15171976D01*
X11809618Y-15171976D02*
X11800094Y-15191024D01*
X11800094Y-15191024D02*
X11790570Y-15200548D01*
X11790570Y-15200548D02*
X11771522Y-15210071D01*
X11771522Y-15210071D02*
X11752475Y-15210071D01*
X11752475Y-15210071D02*
X11733427Y-15200548D01*
X11733427Y-15200548D02*
X11723903Y-15191024D01*
X11723903Y-15191024D02*
X11714380Y-15171976D01*
X11714380Y-15171976D02*
X11704856Y-15133881D01*
X11704856Y-15133881D02*
X11704856Y-15086262D01*
X11704856Y-15086262D02*
X11714380Y-15048167D01*
X11714380Y-15048167D02*
X11723903Y-15029119D01*
X11723903Y-15029119D02*
X11733427Y-15019595D01*
X11733427Y-15019595D02*
X11752475Y-15010071D01*
X11942951Y-15010071D02*
X11961999Y-15010071D01*
X11961999Y-15010071D02*
X11981046Y-15019595D01*
X11981046Y-15019595D02*
X11990570Y-15029119D01*
X11990570Y-15029119D02*
X12000094Y-15048167D01*
X12000094Y-15048167D02*
X12009618Y-15086262D01*
X12009618Y-15086262D02*
X12009618Y-15133881D01*
X12009618Y-15133881D02*
X12000094Y-15171976D01*
X12000094Y-15171976D02*
X11990570Y-15191024D01*
X11990570Y-15191024D02*
X11981046Y-15200548D01*
X11981046Y-15200548D02*
X11961999Y-15210071D01*
X11961999Y-15210071D02*
X11942951Y-15210071D01*
X11942951Y-15210071D02*
X11923903Y-15200548D01*
X11923903Y-15200548D02*
X11914380Y-15191024D01*
X11914380Y-15191024D02*
X11904856Y-15171976D01*
X11904856Y-15171976D02*
X11895332Y-15133881D01*
X11895332Y-15133881D02*
X11895332Y-15086262D01*
X11895332Y-15086262D02*
X11904856Y-15048167D01*
X11904856Y-15048167D02*
X11914380Y-15029119D01*
X11914380Y-15029119D02*
X11923903Y-15019595D01*
X11923903Y-15019595D02*
X11942951Y-15010071D01*
X12095332Y-15210071D02*
X12095332Y-15076738D01*
X12095332Y-15095786D02*
X12104856Y-15086262D01*
X12104856Y-15086262D02*
X12123903Y-15076738D01*
X12123903Y-15076738D02*
X12152475Y-15076738D01*
X12152475Y-15076738D02*
X12171522Y-15086262D01*
X12171522Y-15086262D02*
X12181046Y-15105309D01*
X12181046Y-15105309D02*
X12181046Y-15210071D01*
X12181046Y-15105309D02*
X12190570Y-15086262D01*
X12190570Y-15086262D02*
X12209618Y-15076738D01*
X12209618Y-15076738D02*
X12238189Y-15076738D01*
X12238189Y-15076738D02*
X12257237Y-15086262D01*
X12257237Y-15086262D02*
X12266761Y-15105309D01*
X12266761Y-15105309D02*
X12266761Y-15210071D01*
X12361999Y-15210071D02*
X12361999Y-15076738D01*
X12361999Y-15095786D02*
X12371522Y-15086262D01*
X12371522Y-15086262D02*
X12390570Y-15076738D01*
X12390570Y-15076738D02*
X12419142Y-15076738D01*
X12419142Y-15076738D02*
X12438189Y-15086262D01*
X12438189Y-15086262D02*
X12447713Y-15105309D01*
X12447713Y-15105309D02*
X12447713Y-15210071D01*
X12447713Y-15105309D02*
X12457237Y-15086262D01*
X12457237Y-15086262D02*
X12476284Y-15076738D01*
X12476284Y-15076738D02*
X12504856Y-15076738D01*
X12504856Y-15076738D02*
X12523903Y-15086262D01*
X12523903Y-15086262D02*
X12533427Y-15105309D01*
X12533427Y-15105309D02*
X12533427Y-15210071D01*
X12923903Y-15000548D02*
X12752475Y-15257690D01*
X13181046Y-15010071D02*
X13200094Y-15010071D01*
X13200094Y-15010071D02*
X13219142Y-15019595D01*
X13219142Y-15019595D02*
X13228665Y-15029119D01*
X13228665Y-15029119D02*
X13238189Y-15048167D01*
X13238189Y-15048167D02*
X13247713Y-15086262D01*
X13247713Y-15086262D02*
X13247713Y-15133881D01*
X13247713Y-15133881D02*
X13238189Y-15171976D01*
X13238189Y-15171976D02*
X13228665Y-15191024D01*
X13228665Y-15191024D02*
X13219142Y-15200548D01*
X13219142Y-15200548D02*
X13200094Y-15210071D01*
X13200094Y-15210071D02*
X13181046Y-15210071D01*
X13181046Y-15210071D02*
X13161999Y-15200548D01*
X13161999Y-15200548D02*
X13152475Y-15191024D01*
X13152475Y-15191024D02*
X13142951Y-15171976D01*
X13142951Y-15171976D02*
X13133427Y-15133881D01*
X13133427Y-15133881D02*
X13133427Y-15086262D01*
X13133427Y-15086262D02*
X13142951Y-15048167D01*
X13142951Y-15048167D02*
X13152475Y-15029119D01*
X13152475Y-15029119D02*
X13161999Y-15019595D01*
X13161999Y-15019595D02*
X13181046Y-15010071D01*
X13333427Y-15191024D02*
X13342951Y-15200548D01*
X13342951Y-15200548D02*
X13333427Y-15210071D01*
X13333427Y-15210071D02*
X13323904Y-15200548D01*
X13323904Y-15200548D02*
X13333427Y-15191024D01*
X13333427Y-15191024D02*
X13333427Y-15210071D01*
X13466761Y-15010071D02*
X13485808Y-15010071D01*
X13485808Y-15010071D02*
X13504856Y-15019595D01*
X13504856Y-15019595D02*
X13514380Y-15029119D01*
X13514380Y-15029119D02*
X13523904Y-15048167D01*
X13523904Y-15048167D02*
X13533427Y-15086262D01*
X13533427Y-15086262D02*
X13533427Y-15133881D01*
X13533427Y-15133881D02*
X13523904Y-15171976D01*
X13523904Y-15171976D02*
X13514380Y-15191024D01*
X13514380Y-15191024D02*
X13504856Y-15200548D01*
X13504856Y-15200548D02*
X13485808Y-15210071D01*
X13485808Y-15210071D02*
X13466761Y-15210071D01*
X13466761Y-15210071D02*
X13447713Y-15200548D01*
X13447713Y-15200548D02*
X13438189Y-15191024D01*
X13438189Y-15191024D02*
X13428665Y-15171976D01*
X13428665Y-15171976D02*
X13419142Y-15133881D01*
X13419142Y-15133881D02*
X13419142Y-15086262D01*
X13419142Y-15086262D02*
X13428665Y-15048167D01*
X13428665Y-15048167D02*
X13438189Y-15029119D01*
X13438189Y-15029119D02*
X13447713Y-15019595D01*
X13447713Y-15019595D02*
X13466761Y-15010071D01*
X13714380Y-15010071D02*
X13619142Y-15010071D01*
X13619142Y-15010071D02*
X13609618Y-15105309D01*
X13609618Y-15105309D02*
X13619142Y-15095786D01*
X13619142Y-15095786D02*
X13638189Y-15086262D01*
X13638189Y-15086262D02*
X13685808Y-15086262D01*
X13685808Y-15086262D02*
X13704856Y-15095786D01*
X13704856Y-15095786D02*
X13714380Y-15105309D01*
X13714380Y-15105309D02*
X13723904Y-15124357D01*
X13723904Y-15124357D02*
X13723904Y-15171976D01*
X13723904Y-15171976D02*
X13714380Y-15191024D01*
X13714380Y-15191024D02*
X13704856Y-15200548D01*
X13704856Y-15200548D02*
X13685808Y-15210071D01*
X13685808Y-15210071D02*
X13638189Y-15210071D01*
X13638189Y-15210071D02*
X13619142Y-15200548D01*
X13619142Y-15200548D02*
X13609618Y-15191024D01*
X13914380Y-15210071D02*
X13800094Y-15210071D01*
X13857237Y-15210071D02*
X13857237Y-15010071D01*
X13857237Y-15010071D02*
X13838189Y-15038643D01*
X13838189Y-15038643D02*
X13819142Y-15057690D01*
X13819142Y-15057690D02*
X13800094Y-15067214D01*
X13990570Y-15029119D02*
X14000094Y-15019595D01*
X14000094Y-15019595D02*
X14019142Y-15010071D01*
X14019142Y-15010071D02*
X14066761Y-15010071D01*
X14066761Y-15010071D02*
X14085808Y-15019595D01*
X14085808Y-15019595D02*
X14095332Y-15029119D01*
X14095332Y-15029119D02*
X14104856Y-15048167D01*
X14104856Y-15048167D02*
X14104856Y-15067214D01*
X14104856Y-15067214D02*
X14095332Y-15095786D01*
X14095332Y-15095786D02*
X13981046Y-15210071D01*
X13981046Y-15210071D02*
X14104856Y-15210071D01*
X14181046Y-15010071D02*
X14181046Y-15048167D01*
X14257237Y-15010071D02*
X14257237Y-15048167D01*
X14552475Y-15286262D02*
X14542951Y-15276738D01*
X14542951Y-15276738D02*
X14523904Y-15248167D01*
X14523904Y-15248167D02*
X14514380Y-15229119D01*
X14514380Y-15229119D02*
X14504856Y-15200548D01*
X14504856Y-15200548D02*
X14495332Y-15152928D01*
X14495332Y-15152928D02*
X14495332Y-15114833D01*
X14495332Y-15114833D02*
X14504856Y-15067214D01*
X14504856Y-15067214D02*
X14514380Y-15038643D01*
X14514380Y-15038643D02*
X14523904Y-15019595D01*
X14523904Y-15019595D02*
X14542951Y-14991024D01*
X14542951Y-14991024D02*
X14552475Y-14981500D01*
X14714380Y-15010071D02*
X14676285Y-15010071D01*
X14676285Y-15010071D02*
X14657237Y-15019595D01*
X14657237Y-15019595D02*
X14647713Y-15029119D01*
X14647713Y-15029119D02*
X14628666Y-15057690D01*
X14628666Y-15057690D02*
X14619142Y-15095786D01*
X14619142Y-15095786D02*
X14619142Y-15171976D01*
X14619142Y-15171976D02*
X14628666Y-15191024D01*
X14628666Y-15191024D02*
X14638189Y-15200548D01*
X14638189Y-15200548D02*
X14657237Y-15210071D01*
X14657237Y-15210071D02*
X14695332Y-15210071D01*
X14695332Y-15210071D02*
X14714380Y-15200548D01*
X14714380Y-15200548D02*
X14723904Y-15191024D01*
X14723904Y-15191024D02*
X14733427Y-15171976D01*
X14733427Y-15171976D02*
X14733427Y-15124357D01*
X14733427Y-15124357D02*
X14723904Y-15105309D01*
X14723904Y-15105309D02*
X14714380Y-15095786D01*
X14714380Y-15095786D02*
X14695332Y-15086262D01*
X14695332Y-15086262D02*
X14657237Y-15086262D01*
X14657237Y-15086262D02*
X14638189Y-15095786D01*
X14638189Y-15095786D02*
X14628666Y-15105309D01*
X14628666Y-15105309D02*
X14619142Y-15124357D01*
X14971523Y-15210071D02*
X14971523Y-15010071D01*
X15057237Y-15210071D02*
X15057237Y-15105309D01*
X15057237Y-15105309D02*
X15047713Y-15086262D01*
X15047713Y-15086262D02*
X15028666Y-15076738D01*
X15028666Y-15076738D02*
X15000094Y-15076738D01*
X15000094Y-15076738D02*
X14981047Y-15086262D01*
X14981047Y-15086262D02*
X14971523Y-15095786D01*
X15181047Y-15210071D02*
X15161999Y-15200548D01*
X15161999Y-15200548D02*
X15152475Y-15191024D01*
X15152475Y-15191024D02*
X15142951Y-15171976D01*
X15142951Y-15171976D02*
X15142951Y-15114833D01*
X15142951Y-15114833D02*
X15152475Y-15095786D01*
X15152475Y-15095786D02*
X15161999Y-15086262D01*
X15161999Y-15086262D02*
X15181047Y-15076738D01*
X15181047Y-15076738D02*
X15209618Y-15076738D01*
X15209618Y-15076738D02*
X15228666Y-15086262D01*
X15228666Y-15086262D02*
X15238189Y-15095786D01*
X15238189Y-15095786D02*
X15247713Y-15114833D01*
X15247713Y-15114833D02*
X15247713Y-15171976D01*
X15247713Y-15171976D02*
X15238189Y-15191024D01*
X15238189Y-15191024D02*
X15228666Y-15200548D01*
X15228666Y-15200548D02*
X15209618Y-15210071D01*
X15209618Y-15210071D02*
X15181047Y-15210071D01*
X15361999Y-15210071D02*
X15342951Y-15200548D01*
X15342951Y-15200548D02*
X15333428Y-15181500D01*
X15333428Y-15181500D02*
X15333428Y-15010071D01*
X15514380Y-15200548D02*
X15495332Y-15210071D01*
X15495332Y-15210071D02*
X15457237Y-15210071D01*
X15457237Y-15210071D02*
X15438189Y-15200548D01*
X15438189Y-15200548D02*
X15428666Y-15181500D01*
X15428666Y-15181500D02*
X15428666Y-15105309D01*
X15428666Y-15105309D02*
X15438189Y-15086262D01*
X15438189Y-15086262D02*
X15457237Y-15076738D01*
X15457237Y-15076738D02*
X15495332Y-15076738D01*
X15495332Y-15076738D02*
X15514380Y-15086262D01*
X15514380Y-15086262D02*
X15523904Y-15105309D01*
X15523904Y-15105309D02*
X15523904Y-15124357D01*
X15523904Y-15124357D02*
X15428666Y-15143405D01*
X15600094Y-15200548D02*
X15619142Y-15210071D01*
X15619142Y-15210071D02*
X15657237Y-15210071D01*
X15657237Y-15210071D02*
X15676285Y-15200548D01*
X15676285Y-15200548D02*
X15685809Y-15181500D01*
X15685809Y-15181500D02*
X15685809Y-15171976D01*
X15685809Y-15171976D02*
X15676285Y-15152928D01*
X15676285Y-15152928D02*
X15657237Y-15143405D01*
X15657237Y-15143405D02*
X15628666Y-15143405D01*
X15628666Y-15143405D02*
X15609618Y-15133881D01*
X15609618Y-15133881D02*
X15600094Y-15114833D01*
X15600094Y-15114833D02*
X15600094Y-15105309D01*
X15600094Y-15105309D02*
X15609618Y-15086262D01*
X15609618Y-15086262D02*
X15628666Y-15076738D01*
X15628666Y-15076738D02*
X15657237Y-15076738D01*
X15657237Y-15076738D02*
X15676285Y-15086262D01*
X15752475Y-15286262D02*
X15761999Y-15276738D01*
X15761999Y-15276738D02*
X15781047Y-15248167D01*
X15781047Y-15248167D02*
X15790570Y-15229119D01*
X15790570Y-15229119D02*
X15800094Y-15200548D01*
X15800094Y-15200548D02*
X15809618Y-15152928D01*
X15809618Y-15152928D02*
X15809618Y-15114833D01*
X15809618Y-15114833D02*
X15800094Y-15067214D01*
X15800094Y-15067214D02*
X15790570Y-15038643D01*
X15790570Y-15038643D02*
X15781047Y-15019595D01*
X15781047Y-15019595D02*
X15761999Y-14991024D01*
X15761999Y-14991024D02*
X15752475Y-14981500D01*
D14*
X10825412Y-15306588D02*
X10977412Y-15458588D01*
X10977412Y-15306588D02*
X10825412Y-15458588D01*
X10977412Y-15382588D02*
G75*
G02*
X10825412Y-15382588I-76000J0D01*
G01*
X10825412Y-15382588D02*
G75*
G02*
X10977412Y-15382588I76000J0D01*
G01*
D11*
X11342951Y-15474071D02*
X11228665Y-15474071D01*
X11285808Y-15474071D02*
X11285808Y-15274071D01*
X11285808Y-15274071D02*
X11266760Y-15302643D01*
X11266760Y-15302643D02*
X11247713Y-15321690D01*
X11247713Y-15321690D02*
X11228665Y-15331214D01*
X11428665Y-15455024D02*
X11438189Y-15464548D01*
X11438189Y-15464548D02*
X11428665Y-15474071D01*
X11428665Y-15474071D02*
X11419141Y-15464548D01*
X11419141Y-15464548D02*
X11428665Y-15455024D01*
X11428665Y-15455024D02*
X11428665Y-15474071D01*
X11619141Y-15274071D02*
X11523903Y-15274071D01*
X11523903Y-15274071D02*
X11514380Y-15369309D01*
X11514380Y-15369309D02*
X11523903Y-15359786D01*
X11523903Y-15359786D02*
X11542951Y-15350262D01*
X11542951Y-15350262D02*
X11590570Y-15350262D01*
X11590570Y-15350262D02*
X11609618Y-15359786D01*
X11609618Y-15359786D02*
X11619141Y-15369309D01*
X11619141Y-15369309D02*
X11628665Y-15388357D01*
X11628665Y-15388357D02*
X11628665Y-15435976D01*
X11628665Y-15435976D02*
X11619141Y-15455024D01*
X11619141Y-15455024D02*
X11609618Y-15464548D01*
X11609618Y-15464548D02*
X11590570Y-15474071D01*
X11590570Y-15474071D02*
X11542951Y-15474071D01*
X11542951Y-15474071D02*
X11523903Y-15464548D01*
X11523903Y-15464548D02*
X11514380Y-15455024D01*
X11704856Y-15293119D02*
X11714380Y-15283595D01*
X11714380Y-15283595D02*
X11733427Y-15274071D01*
X11733427Y-15274071D02*
X11781046Y-15274071D01*
X11781046Y-15274071D02*
X11800094Y-15283595D01*
X11800094Y-15283595D02*
X11809618Y-15293119D01*
X11809618Y-15293119D02*
X11819141Y-15312167D01*
X11819141Y-15312167D02*
X11819141Y-15331214D01*
X11819141Y-15331214D02*
X11809618Y-15359786D01*
X11809618Y-15359786D02*
X11695332Y-15474071D01*
X11695332Y-15474071D02*
X11819141Y-15474071D01*
X11942951Y-15274071D02*
X11961999Y-15274071D01*
X11961999Y-15274071D02*
X11981046Y-15283595D01*
X11981046Y-15283595D02*
X11990570Y-15293119D01*
X11990570Y-15293119D02*
X12000094Y-15312167D01*
X12000094Y-15312167D02*
X12009618Y-15350262D01*
X12009618Y-15350262D02*
X12009618Y-15397881D01*
X12009618Y-15397881D02*
X12000094Y-15435976D01*
X12000094Y-15435976D02*
X11990570Y-15455024D01*
X11990570Y-15455024D02*
X11981046Y-15464548D01*
X11981046Y-15464548D02*
X11961999Y-15474071D01*
X11961999Y-15474071D02*
X11942951Y-15474071D01*
X11942951Y-15474071D02*
X11923903Y-15464548D01*
X11923903Y-15464548D02*
X11914380Y-15455024D01*
X11914380Y-15455024D02*
X11904856Y-15435976D01*
X11904856Y-15435976D02*
X11895332Y-15397881D01*
X11895332Y-15397881D02*
X11895332Y-15350262D01*
X11895332Y-15350262D02*
X11904856Y-15312167D01*
X11904856Y-15312167D02*
X11914380Y-15293119D01*
X11914380Y-15293119D02*
X11923903Y-15283595D01*
X11923903Y-15283595D02*
X11942951Y-15274071D01*
X12095332Y-15474071D02*
X12095332Y-15340738D01*
X12095332Y-15359786D02*
X12104856Y-15350262D01*
X12104856Y-15350262D02*
X12123903Y-15340738D01*
X12123903Y-15340738D02*
X12152475Y-15340738D01*
X12152475Y-15340738D02*
X12171522Y-15350262D01*
X12171522Y-15350262D02*
X12181046Y-15369309D01*
X12181046Y-15369309D02*
X12181046Y-15474071D01*
X12181046Y-15369309D02*
X12190570Y-15350262D01*
X12190570Y-15350262D02*
X12209618Y-15340738D01*
X12209618Y-15340738D02*
X12238189Y-15340738D01*
X12238189Y-15340738D02*
X12257237Y-15350262D01*
X12257237Y-15350262D02*
X12266761Y-15369309D01*
X12266761Y-15369309D02*
X12266761Y-15474071D01*
X12361999Y-15474071D02*
X12361999Y-15340738D01*
X12361999Y-15359786D02*
X12371522Y-15350262D01*
X12371522Y-15350262D02*
X12390570Y-15340738D01*
X12390570Y-15340738D02*
X12419142Y-15340738D01*
X12419142Y-15340738D02*
X12438189Y-15350262D01*
X12438189Y-15350262D02*
X12447713Y-15369309D01*
X12447713Y-15369309D02*
X12447713Y-15474071D01*
X12447713Y-15369309D02*
X12457237Y-15350262D01*
X12457237Y-15350262D02*
X12476284Y-15340738D01*
X12476284Y-15340738D02*
X12504856Y-15340738D01*
X12504856Y-15340738D02*
X12523903Y-15350262D01*
X12523903Y-15350262D02*
X12533427Y-15369309D01*
X12533427Y-15369309D02*
X12533427Y-15474071D01*
X12923903Y-15264548D02*
X12752475Y-15521690D01*
X13181046Y-15274071D02*
X13200094Y-15274071D01*
X13200094Y-15274071D02*
X13219142Y-15283595D01*
X13219142Y-15283595D02*
X13228665Y-15293119D01*
X13228665Y-15293119D02*
X13238189Y-15312167D01*
X13238189Y-15312167D02*
X13247713Y-15350262D01*
X13247713Y-15350262D02*
X13247713Y-15397881D01*
X13247713Y-15397881D02*
X13238189Y-15435976D01*
X13238189Y-15435976D02*
X13228665Y-15455024D01*
X13228665Y-15455024D02*
X13219142Y-15464548D01*
X13219142Y-15464548D02*
X13200094Y-15474071D01*
X13200094Y-15474071D02*
X13181046Y-15474071D01*
X13181046Y-15474071D02*
X13161999Y-15464548D01*
X13161999Y-15464548D02*
X13152475Y-15455024D01*
X13152475Y-15455024D02*
X13142951Y-15435976D01*
X13142951Y-15435976D02*
X13133427Y-15397881D01*
X13133427Y-15397881D02*
X13133427Y-15350262D01*
X13133427Y-15350262D02*
X13142951Y-15312167D01*
X13142951Y-15312167D02*
X13152475Y-15293119D01*
X13152475Y-15293119D02*
X13161999Y-15283595D01*
X13161999Y-15283595D02*
X13181046Y-15274071D01*
X13333427Y-15455024D02*
X13342951Y-15464548D01*
X13342951Y-15464548D02*
X13333427Y-15474071D01*
X13333427Y-15474071D02*
X13323904Y-15464548D01*
X13323904Y-15464548D02*
X13333427Y-15455024D01*
X13333427Y-15455024D02*
X13333427Y-15474071D01*
X13466761Y-15274071D02*
X13485808Y-15274071D01*
X13485808Y-15274071D02*
X13504856Y-15283595D01*
X13504856Y-15283595D02*
X13514380Y-15293119D01*
X13514380Y-15293119D02*
X13523904Y-15312167D01*
X13523904Y-15312167D02*
X13533427Y-15350262D01*
X13533427Y-15350262D02*
X13533427Y-15397881D01*
X13533427Y-15397881D02*
X13523904Y-15435976D01*
X13523904Y-15435976D02*
X13514380Y-15455024D01*
X13514380Y-15455024D02*
X13504856Y-15464548D01*
X13504856Y-15464548D02*
X13485808Y-15474071D01*
X13485808Y-15474071D02*
X13466761Y-15474071D01*
X13466761Y-15474071D02*
X13447713Y-15464548D01*
X13447713Y-15464548D02*
X13438189Y-15455024D01*
X13438189Y-15455024D02*
X13428665Y-15435976D01*
X13428665Y-15435976D02*
X13419142Y-15397881D01*
X13419142Y-15397881D02*
X13419142Y-15350262D01*
X13419142Y-15350262D02*
X13428665Y-15312167D01*
X13428665Y-15312167D02*
X13438189Y-15293119D01*
X13438189Y-15293119D02*
X13447713Y-15283595D01*
X13447713Y-15283595D02*
X13466761Y-15274071D01*
X13714380Y-15274071D02*
X13619142Y-15274071D01*
X13619142Y-15274071D02*
X13609618Y-15369309D01*
X13609618Y-15369309D02*
X13619142Y-15359786D01*
X13619142Y-15359786D02*
X13638189Y-15350262D01*
X13638189Y-15350262D02*
X13685808Y-15350262D01*
X13685808Y-15350262D02*
X13704856Y-15359786D01*
X13704856Y-15359786D02*
X13714380Y-15369309D01*
X13714380Y-15369309D02*
X13723904Y-15388357D01*
X13723904Y-15388357D02*
X13723904Y-15435976D01*
X13723904Y-15435976D02*
X13714380Y-15455024D01*
X13714380Y-15455024D02*
X13704856Y-15464548D01*
X13704856Y-15464548D02*
X13685808Y-15474071D01*
X13685808Y-15474071D02*
X13638189Y-15474071D01*
X13638189Y-15474071D02*
X13619142Y-15464548D01*
X13619142Y-15464548D02*
X13609618Y-15455024D01*
X13819142Y-15474071D02*
X13857237Y-15474071D01*
X13857237Y-15474071D02*
X13876285Y-15464548D01*
X13876285Y-15464548D02*
X13885808Y-15455024D01*
X13885808Y-15455024D02*
X13904856Y-15426452D01*
X13904856Y-15426452D02*
X13914380Y-15388357D01*
X13914380Y-15388357D02*
X13914380Y-15312167D01*
X13914380Y-15312167D02*
X13904856Y-15293119D01*
X13904856Y-15293119D02*
X13895332Y-15283595D01*
X13895332Y-15283595D02*
X13876285Y-15274071D01*
X13876285Y-15274071D02*
X13838189Y-15274071D01*
X13838189Y-15274071D02*
X13819142Y-15283595D01*
X13819142Y-15283595D02*
X13809618Y-15293119D01*
X13809618Y-15293119D02*
X13800094Y-15312167D01*
X13800094Y-15312167D02*
X13800094Y-15359786D01*
X13800094Y-15359786D02*
X13809618Y-15378833D01*
X13809618Y-15378833D02*
X13819142Y-15388357D01*
X13819142Y-15388357D02*
X13838189Y-15397881D01*
X13838189Y-15397881D02*
X13876285Y-15397881D01*
X13876285Y-15397881D02*
X13895332Y-15388357D01*
X13895332Y-15388357D02*
X13904856Y-15378833D01*
X13904856Y-15378833D02*
X13914380Y-15359786D01*
X14028665Y-15359786D02*
X14009618Y-15350262D01*
X14009618Y-15350262D02*
X14000094Y-15340738D01*
X14000094Y-15340738D02*
X13990570Y-15321690D01*
X13990570Y-15321690D02*
X13990570Y-15312167D01*
X13990570Y-15312167D02*
X14000094Y-15293119D01*
X14000094Y-15293119D02*
X14009618Y-15283595D01*
X14009618Y-15283595D02*
X14028665Y-15274071D01*
X14028665Y-15274071D02*
X14066761Y-15274071D01*
X14066761Y-15274071D02*
X14085808Y-15283595D01*
X14085808Y-15283595D02*
X14095332Y-15293119D01*
X14095332Y-15293119D02*
X14104856Y-15312167D01*
X14104856Y-15312167D02*
X14104856Y-15321690D01*
X14104856Y-15321690D02*
X14095332Y-15340738D01*
X14095332Y-15340738D02*
X14085808Y-15350262D01*
X14085808Y-15350262D02*
X14066761Y-15359786D01*
X14066761Y-15359786D02*
X14028665Y-15359786D01*
X14028665Y-15359786D02*
X14009618Y-15369309D01*
X14009618Y-15369309D02*
X14000094Y-15378833D01*
X14000094Y-15378833D02*
X13990570Y-15397881D01*
X13990570Y-15397881D02*
X13990570Y-15435976D01*
X13990570Y-15435976D02*
X14000094Y-15455024D01*
X14000094Y-15455024D02*
X14009618Y-15464548D01*
X14009618Y-15464548D02*
X14028665Y-15474071D01*
X14028665Y-15474071D02*
X14066761Y-15474071D01*
X14066761Y-15474071D02*
X14085808Y-15464548D01*
X14085808Y-15464548D02*
X14095332Y-15455024D01*
X14095332Y-15455024D02*
X14104856Y-15435976D01*
X14104856Y-15435976D02*
X14104856Y-15397881D01*
X14104856Y-15397881D02*
X14095332Y-15378833D01*
X14095332Y-15378833D02*
X14085808Y-15369309D01*
X14085808Y-15369309D02*
X14066761Y-15359786D01*
X14181046Y-15274071D02*
X14181046Y-15312167D01*
X14257237Y-15274071D02*
X14257237Y-15312167D01*
X14552475Y-15550262D02*
X14542951Y-15540738D01*
X14542951Y-15540738D02*
X14523904Y-15512167D01*
X14523904Y-15512167D02*
X14514380Y-15493119D01*
X14514380Y-15493119D02*
X14504856Y-15464548D01*
X14504856Y-15464548D02*
X14495332Y-15416928D01*
X14495332Y-15416928D02*
X14495332Y-15378833D01*
X14495332Y-15378833D02*
X14504856Y-15331214D01*
X14504856Y-15331214D02*
X14514380Y-15302643D01*
X14514380Y-15302643D02*
X14523904Y-15283595D01*
X14523904Y-15283595D02*
X14542951Y-15255024D01*
X14542951Y-15255024D02*
X14552475Y-15245500D01*
X14609618Y-15274071D02*
X14733427Y-15274071D01*
X14733427Y-15274071D02*
X14666761Y-15350262D01*
X14666761Y-15350262D02*
X14695332Y-15350262D01*
X14695332Y-15350262D02*
X14714380Y-15359786D01*
X14714380Y-15359786D02*
X14723904Y-15369309D01*
X14723904Y-15369309D02*
X14733427Y-15388357D01*
X14733427Y-15388357D02*
X14733427Y-15435976D01*
X14733427Y-15435976D02*
X14723904Y-15455024D01*
X14723904Y-15455024D02*
X14714380Y-15464548D01*
X14714380Y-15464548D02*
X14695332Y-15474071D01*
X14695332Y-15474071D02*
X14638189Y-15474071D01*
X14638189Y-15474071D02*
X14619142Y-15464548D01*
X14619142Y-15464548D02*
X14609618Y-15455024D01*
X14971523Y-15474071D02*
X14971523Y-15274071D01*
X15057237Y-15474071D02*
X15057237Y-15369309D01*
X15057237Y-15369309D02*
X15047713Y-15350262D01*
X15047713Y-15350262D02*
X15028666Y-15340738D01*
X15028666Y-15340738D02*
X15000094Y-15340738D01*
X15000094Y-15340738D02*
X14981047Y-15350262D01*
X14981047Y-15350262D02*
X14971523Y-15359786D01*
X15181047Y-15474071D02*
X15161999Y-15464548D01*
X15161999Y-15464548D02*
X15152475Y-15455024D01*
X15152475Y-15455024D02*
X15142951Y-15435976D01*
X15142951Y-15435976D02*
X15142951Y-15378833D01*
X15142951Y-15378833D02*
X15152475Y-15359786D01*
X15152475Y-15359786D02*
X15161999Y-15350262D01*
X15161999Y-15350262D02*
X15181047Y-15340738D01*
X15181047Y-15340738D02*
X15209618Y-15340738D01*
X15209618Y-15340738D02*
X15228666Y-15350262D01*
X15228666Y-15350262D02*
X15238189Y-15359786D01*
X15238189Y-15359786D02*
X15247713Y-15378833D01*
X15247713Y-15378833D02*
X15247713Y-15435976D01*
X15247713Y-15435976D02*
X15238189Y-15455024D01*
X15238189Y-15455024D02*
X15228666Y-15464548D01*
X15228666Y-15464548D02*
X15209618Y-15474071D01*
X15209618Y-15474071D02*
X15181047Y-15474071D01*
X15361999Y-15474071D02*
X15342951Y-15464548D01*
X15342951Y-15464548D02*
X15333428Y-15445500D01*
X15333428Y-15445500D02*
X15333428Y-15274071D01*
X15514380Y-15464548D02*
X15495332Y-15474071D01*
X15495332Y-15474071D02*
X15457237Y-15474071D01*
X15457237Y-15474071D02*
X15438189Y-15464548D01*
X15438189Y-15464548D02*
X15428666Y-15445500D01*
X15428666Y-15445500D02*
X15428666Y-15369309D01*
X15428666Y-15369309D02*
X15438189Y-15350262D01*
X15438189Y-15350262D02*
X15457237Y-15340738D01*
X15457237Y-15340738D02*
X15495332Y-15340738D01*
X15495332Y-15340738D02*
X15514380Y-15350262D01*
X15514380Y-15350262D02*
X15523904Y-15369309D01*
X15523904Y-15369309D02*
X15523904Y-15388357D01*
X15523904Y-15388357D02*
X15428666Y-15407405D01*
X15600094Y-15464548D02*
X15619142Y-15474071D01*
X15619142Y-15474071D02*
X15657237Y-15474071D01*
X15657237Y-15474071D02*
X15676285Y-15464548D01*
X15676285Y-15464548D02*
X15685809Y-15445500D01*
X15685809Y-15445500D02*
X15685809Y-15435976D01*
X15685809Y-15435976D02*
X15676285Y-15416928D01*
X15676285Y-15416928D02*
X15657237Y-15407405D01*
X15657237Y-15407405D02*
X15628666Y-15407405D01*
X15628666Y-15407405D02*
X15609618Y-15397881D01*
X15609618Y-15397881D02*
X15600094Y-15378833D01*
X15600094Y-15378833D02*
X15600094Y-15369309D01*
X15600094Y-15369309D02*
X15609618Y-15350262D01*
X15609618Y-15350262D02*
X15628666Y-15340738D01*
X15628666Y-15340738D02*
X15657237Y-15340738D01*
X15657237Y-15340738D02*
X15676285Y-15350262D01*
X15752475Y-15550262D02*
X15761999Y-15540738D01*
X15761999Y-15540738D02*
X15781047Y-15512167D01*
X15781047Y-15512167D02*
X15790570Y-15493119D01*
X15790570Y-15493119D02*
X15800094Y-15464548D01*
X15800094Y-15464548D02*
X15809618Y-15416928D01*
X15809618Y-15416928D02*
X15809618Y-15378833D01*
X15809618Y-15378833D02*
X15800094Y-15331214D01*
X15800094Y-15331214D02*
X15790570Y-15302643D01*
X15790570Y-15302643D02*
X15781047Y-15283595D01*
X15781047Y-15283595D02*
X15761999Y-15255024D01*
X15761999Y-15255024D02*
X15752475Y-15245500D01*
X10777412Y-15554588D02*
X10977412Y-15754588D01*
X10977412Y-15554588D02*
X10777412Y-15754588D01*
X10877412Y-15554588D02*
X10877412Y-15754588D01*
X10777412Y-15654588D02*
X10977412Y-15654588D01*
X11219141Y-15546071D02*
X11342951Y-15546071D01*
X11342951Y-15546071D02*
X11276284Y-15622262D01*
X11276284Y-15622262D02*
X11304856Y-15622262D01*
X11304856Y-15622262D02*
X11323903Y-15631786D01*
X11323903Y-15631786D02*
X11333427Y-15641309D01*
X11333427Y-15641309D02*
X11342951Y-15660357D01*
X11342951Y-15660357D02*
X11342951Y-15707976D01*
X11342951Y-15707976D02*
X11333427Y-15727024D01*
X11333427Y-15727024D02*
X11323903Y-15736548D01*
X11323903Y-15736548D02*
X11304856Y-15746071D01*
X11304856Y-15746071D02*
X11247713Y-15746071D01*
X11247713Y-15746071D02*
X11228665Y-15736548D01*
X11228665Y-15736548D02*
X11219141Y-15727024D01*
X11428665Y-15727024D02*
X11438189Y-15736548D01*
X11438189Y-15736548D02*
X11428665Y-15746071D01*
X11428665Y-15746071D02*
X11419141Y-15736548D01*
X11419141Y-15736548D02*
X11428665Y-15727024D01*
X11428665Y-15727024D02*
X11428665Y-15746071D01*
X11514380Y-15565119D02*
X11523903Y-15555595D01*
X11523903Y-15555595D02*
X11542951Y-15546071D01*
X11542951Y-15546071D02*
X11590570Y-15546071D01*
X11590570Y-15546071D02*
X11609618Y-15555595D01*
X11609618Y-15555595D02*
X11619141Y-15565119D01*
X11619141Y-15565119D02*
X11628665Y-15584167D01*
X11628665Y-15584167D02*
X11628665Y-15603214D01*
X11628665Y-15603214D02*
X11619141Y-15631786D01*
X11619141Y-15631786D02*
X11504856Y-15746071D01*
X11504856Y-15746071D02*
X11628665Y-15746071D01*
X11752475Y-15546071D02*
X11771522Y-15546071D01*
X11771522Y-15546071D02*
X11790570Y-15555595D01*
X11790570Y-15555595D02*
X11800094Y-15565119D01*
X11800094Y-15565119D02*
X11809618Y-15584167D01*
X11809618Y-15584167D02*
X11819141Y-15622262D01*
X11819141Y-15622262D02*
X11819141Y-15669881D01*
X11819141Y-15669881D02*
X11809618Y-15707976D01*
X11809618Y-15707976D02*
X11800094Y-15727024D01*
X11800094Y-15727024D02*
X11790570Y-15736548D01*
X11790570Y-15736548D02*
X11771522Y-15746071D01*
X11771522Y-15746071D02*
X11752475Y-15746071D01*
X11752475Y-15746071D02*
X11733427Y-15736548D01*
X11733427Y-15736548D02*
X11723903Y-15727024D01*
X11723903Y-15727024D02*
X11714380Y-15707976D01*
X11714380Y-15707976D02*
X11704856Y-15669881D01*
X11704856Y-15669881D02*
X11704856Y-15622262D01*
X11704856Y-15622262D02*
X11714380Y-15584167D01*
X11714380Y-15584167D02*
X11723903Y-15565119D01*
X11723903Y-15565119D02*
X11733427Y-15555595D01*
X11733427Y-15555595D02*
X11752475Y-15546071D01*
X11942951Y-15546071D02*
X11961999Y-15546071D01*
X11961999Y-15546071D02*
X11981046Y-15555595D01*
X11981046Y-15555595D02*
X11990570Y-15565119D01*
X11990570Y-15565119D02*
X12000094Y-15584167D01*
X12000094Y-15584167D02*
X12009618Y-15622262D01*
X12009618Y-15622262D02*
X12009618Y-15669881D01*
X12009618Y-15669881D02*
X12000094Y-15707976D01*
X12000094Y-15707976D02*
X11990570Y-15727024D01*
X11990570Y-15727024D02*
X11981046Y-15736548D01*
X11981046Y-15736548D02*
X11961999Y-15746071D01*
X11961999Y-15746071D02*
X11942951Y-15746071D01*
X11942951Y-15746071D02*
X11923903Y-15736548D01*
X11923903Y-15736548D02*
X11914380Y-15727024D01*
X11914380Y-15727024D02*
X11904856Y-15707976D01*
X11904856Y-15707976D02*
X11895332Y-15669881D01*
X11895332Y-15669881D02*
X11895332Y-15622262D01*
X11895332Y-15622262D02*
X11904856Y-15584167D01*
X11904856Y-15584167D02*
X11914380Y-15565119D01*
X11914380Y-15565119D02*
X11923903Y-15555595D01*
X11923903Y-15555595D02*
X11942951Y-15546071D01*
X12095332Y-15746071D02*
X12095332Y-15612738D01*
X12095332Y-15631786D02*
X12104856Y-15622262D01*
X12104856Y-15622262D02*
X12123903Y-15612738D01*
X12123903Y-15612738D02*
X12152475Y-15612738D01*
X12152475Y-15612738D02*
X12171522Y-15622262D01*
X12171522Y-15622262D02*
X12181046Y-15641309D01*
X12181046Y-15641309D02*
X12181046Y-15746071D01*
X12181046Y-15641309D02*
X12190570Y-15622262D01*
X12190570Y-15622262D02*
X12209618Y-15612738D01*
X12209618Y-15612738D02*
X12238189Y-15612738D01*
X12238189Y-15612738D02*
X12257237Y-15622262D01*
X12257237Y-15622262D02*
X12266761Y-15641309D01*
X12266761Y-15641309D02*
X12266761Y-15746071D01*
X12361999Y-15746071D02*
X12361999Y-15612738D01*
X12361999Y-15631786D02*
X12371522Y-15622262D01*
X12371522Y-15622262D02*
X12390570Y-15612738D01*
X12390570Y-15612738D02*
X12419142Y-15612738D01*
X12419142Y-15612738D02*
X12438189Y-15622262D01*
X12438189Y-15622262D02*
X12447713Y-15641309D01*
X12447713Y-15641309D02*
X12447713Y-15746071D01*
X12447713Y-15641309D02*
X12457237Y-15622262D01*
X12457237Y-15622262D02*
X12476284Y-15612738D01*
X12476284Y-15612738D02*
X12504856Y-15612738D01*
X12504856Y-15612738D02*
X12523903Y-15622262D01*
X12523903Y-15622262D02*
X12533427Y-15641309D01*
X12533427Y-15641309D02*
X12533427Y-15746071D01*
X12923903Y-15536548D02*
X12752475Y-15793690D01*
X13181046Y-15546071D02*
X13200094Y-15546071D01*
X13200094Y-15546071D02*
X13219142Y-15555595D01*
X13219142Y-15555595D02*
X13228665Y-15565119D01*
X13228665Y-15565119D02*
X13238189Y-15584167D01*
X13238189Y-15584167D02*
X13247713Y-15622262D01*
X13247713Y-15622262D02*
X13247713Y-15669881D01*
X13247713Y-15669881D02*
X13238189Y-15707976D01*
X13238189Y-15707976D02*
X13228665Y-15727024D01*
X13228665Y-15727024D02*
X13219142Y-15736548D01*
X13219142Y-15736548D02*
X13200094Y-15746071D01*
X13200094Y-15746071D02*
X13181046Y-15746071D01*
X13181046Y-15746071D02*
X13161999Y-15736548D01*
X13161999Y-15736548D02*
X13152475Y-15727024D01*
X13152475Y-15727024D02*
X13142951Y-15707976D01*
X13142951Y-15707976D02*
X13133427Y-15669881D01*
X13133427Y-15669881D02*
X13133427Y-15622262D01*
X13133427Y-15622262D02*
X13142951Y-15584167D01*
X13142951Y-15584167D02*
X13152475Y-15565119D01*
X13152475Y-15565119D02*
X13161999Y-15555595D01*
X13161999Y-15555595D02*
X13181046Y-15546071D01*
X13333427Y-15727024D02*
X13342951Y-15736548D01*
X13342951Y-15736548D02*
X13333427Y-15746071D01*
X13333427Y-15746071D02*
X13323904Y-15736548D01*
X13323904Y-15736548D02*
X13333427Y-15727024D01*
X13333427Y-15727024D02*
X13333427Y-15746071D01*
X13533427Y-15746071D02*
X13419142Y-15746071D01*
X13476284Y-15746071D02*
X13476284Y-15546071D01*
X13476284Y-15546071D02*
X13457237Y-15574643D01*
X13457237Y-15574643D02*
X13438189Y-15593690D01*
X13438189Y-15593690D02*
X13419142Y-15603214D01*
X13609618Y-15565119D02*
X13619142Y-15555595D01*
X13619142Y-15555595D02*
X13638189Y-15546071D01*
X13638189Y-15546071D02*
X13685808Y-15546071D01*
X13685808Y-15546071D02*
X13704856Y-15555595D01*
X13704856Y-15555595D02*
X13714380Y-15565119D01*
X13714380Y-15565119D02*
X13723904Y-15584167D01*
X13723904Y-15584167D02*
X13723904Y-15603214D01*
X13723904Y-15603214D02*
X13714380Y-15631786D01*
X13714380Y-15631786D02*
X13600094Y-15746071D01*
X13600094Y-15746071D02*
X13723904Y-15746071D01*
X13895332Y-15546071D02*
X13857237Y-15546071D01*
X13857237Y-15546071D02*
X13838189Y-15555595D01*
X13838189Y-15555595D02*
X13828665Y-15565119D01*
X13828665Y-15565119D02*
X13809618Y-15593690D01*
X13809618Y-15593690D02*
X13800094Y-15631786D01*
X13800094Y-15631786D02*
X13800094Y-15707976D01*
X13800094Y-15707976D02*
X13809618Y-15727024D01*
X13809618Y-15727024D02*
X13819142Y-15736548D01*
X13819142Y-15736548D02*
X13838189Y-15746071D01*
X13838189Y-15746071D02*
X13876285Y-15746071D01*
X13876285Y-15746071D02*
X13895332Y-15736548D01*
X13895332Y-15736548D02*
X13904856Y-15727024D01*
X13904856Y-15727024D02*
X13914380Y-15707976D01*
X13914380Y-15707976D02*
X13914380Y-15660357D01*
X13914380Y-15660357D02*
X13904856Y-15641309D01*
X13904856Y-15641309D02*
X13895332Y-15631786D01*
X13895332Y-15631786D02*
X13876285Y-15622262D01*
X13876285Y-15622262D02*
X13838189Y-15622262D01*
X13838189Y-15622262D02*
X13819142Y-15631786D01*
X13819142Y-15631786D02*
X13809618Y-15641309D01*
X13809618Y-15641309D02*
X13800094Y-15660357D01*
X14038189Y-15546071D02*
X14057237Y-15546071D01*
X14057237Y-15546071D02*
X14076285Y-15555595D01*
X14076285Y-15555595D02*
X14085808Y-15565119D01*
X14085808Y-15565119D02*
X14095332Y-15584167D01*
X14095332Y-15584167D02*
X14104856Y-15622262D01*
X14104856Y-15622262D02*
X14104856Y-15669881D01*
X14104856Y-15669881D02*
X14095332Y-15707976D01*
X14095332Y-15707976D02*
X14085808Y-15727024D01*
X14085808Y-15727024D02*
X14076285Y-15736548D01*
X14076285Y-15736548D02*
X14057237Y-15746071D01*
X14057237Y-15746071D02*
X14038189Y-15746071D01*
X14038189Y-15746071D02*
X14019142Y-15736548D01*
X14019142Y-15736548D02*
X14009618Y-15727024D01*
X14009618Y-15727024D02*
X14000094Y-15707976D01*
X14000094Y-15707976D02*
X13990570Y-15669881D01*
X13990570Y-15669881D02*
X13990570Y-15622262D01*
X13990570Y-15622262D02*
X14000094Y-15584167D01*
X14000094Y-15584167D02*
X14009618Y-15565119D01*
X14009618Y-15565119D02*
X14019142Y-15555595D01*
X14019142Y-15555595D02*
X14038189Y-15546071D01*
X14181046Y-15546071D02*
X14181046Y-15584167D01*
X14257237Y-15546071D02*
X14257237Y-15584167D01*
X14552475Y-15822262D02*
X14542951Y-15812738D01*
X14542951Y-15812738D02*
X14523904Y-15784167D01*
X14523904Y-15784167D02*
X14514380Y-15765119D01*
X14514380Y-15765119D02*
X14504856Y-15736548D01*
X14504856Y-15736548D02*
X14495332Y-15688928D01*
X14495332Y-15688928D02*
X14495332Y-15650833D01*
X14495332Y-15650833D02*
X14504856Y-15603214D01*
X14504856Y-15603214D02*
X14514380Y-15574643D01*
X14514380Y-15574643D02*
X14523904Y-15555595D01*
X14523904Y-15555595D02*
X14542951Y-15527024D01*
X14542951Y-15527024D02*
X14552475Y-15517500D01*
X14714380Y-15612738D02*
X14714380Y-15746071D01*
X14666761Y-15536548D02*
X14619142Y-15679405D01*
X14619142Y-15679405D02*
X14742951Y-15679405D01*
X14971523Y-15746071D02*
X14971523Y-15546071D01*
X15057237Y-15746071D02*
X15057237Y-15641309D01*
X15057237Y-15641309D02*
X15047713Y-15622262D01*
X15047713Y-15622262D02*
X15028666Y-15612738D01*
X15028666Y-15612738D02*
X15000094Y-15612738D01*
X15000094Y-15612738D02*
X14981047Y-15622262D01*
X14981047Y-15622262D02*
X14971523Y-15631786D01*
X15181047Y-15746071D02*
X15161999Y-15736548D01*
X15161999Y-15736548D02*
X15152475Y-15727024D01*
X15152475Y-15727024D02*
X15142951Y-15707976D01*
X15142951Y-15707976D02*
X15142951Y-15650833D01*
X15142951Y-15650833D02*
X15152475Y-15631786D01*
X15152475Y-15631786D02*
X15161999Y-15622262D01*
X15161999Y-15622262D02*
X15181047Y-15612738D01*
X15181047Y-15612738D02*
X15209618Y-15612738D01*
X15209618Y-15612738D02*
X15228666Y-15622262D01*
X15228666Y-15622262D02*
X15238189Y-15631786D01*
X15238189Y-15631786D02*
X15247713Y-15650833D01*
X15247713Y-15650833D02*
X15247713Y-15707976D01*
X15247713Y-15707976D02*
X15238189Y-15727024D01*
X15238189Y-15727024D02*
X15228666Y-15736548D01*
X15228666Y-15736548D02*
X15209618Y-15746071D01*
X15209618Y-15746071D02*
X15181047Y-15746071D01*
X15361999Y-15746071D02*
X15342951Y-15736548D01*
X15342951Y-15736548D02*
X15333428Y-15717500D01*
X15333428Y-15717500D02*
X15333428Y-15546071D01*
X15514380Y-15736548D02*
X15495332Y-15746071D01*
X15495332Y-15746071D02*
X15457237Y-15746071D01*
X15457237Y-15746071D02*
X15438189Y-15736548D01*
X15438189Y-15736548D02*
X15428666Y-15717500D01*
X15428666Y-15717500D02*
X15428666Y-15641309D01*
X15428666Y-15641309D02*
X15438189Y-15622262D01*
X15438189Y-15622262D02*
X15457237Y-15612738D01*
X15457237Y-15612738D02*
X15495332Y-15612738D01*
X15495332Y-15612738D02*
X15514380Y-15622262D01*
X15514380Y-15622262D02*
X15523904Y-15641309D01*
X15523904Y-15641309D02*
X15523904Y-15660357D01*
X15523904Y-15660357D02*
X15428666Y-15679405D01*
X15600094Y-15736548D02*
X15619142Y-15746071D01*
X15619142Y-15746071D02*
X15657237Y-15746071D01*
X15657237Y-15746071D02*
X15676285Y-15736548D01*
X15676285Y-15736548D02*
X15685809Y-15717500D01*
X15685809Y-15717500D02*
X15685809Y-15707976D01*
X15685809Y-15707976D02*
X15676285Y-15688928D01*
X15676285Y-15688928D02*
X15657237Y-15679405D01*
X15657237Y-15679405D02*
X15628666Y-15679405D01*
X15628666Y-15679405D02*
X15609618Y-15669881D01*
X15609618Y-15669881D02*
X15600094Y-15650833D01*
X15600094Y-15650833D02*
X15600094Y-15641309D01*
X15600094Y-15641309D02*
X15609618Y-15622262D01*
X15609618Y-15622262D02*
X15628666Y-15612738D01*
X15628666Y-15612738D02*
X15657237Y-15612738D01*
X15657237Y-15612738D02*
X15676285Y-15622262D01*
X15752475Y-15822262D02*
X15761999Y-15812738D01*
X15761999Y-15812738D02*
X15781047Y-15784167D01*
X15781047Y-15784167D02*
X15790570Y-15765119D01*
X15790570Y-15765119D02*
X15800094Y-15736548D01*
X15800094Y-15736548D02*
X15809618Y-15688928D01*
X15809618Y-15688928D02*
X15809618Y-15650833D01*
X15809618Y-15650833D02*
X15800094Y-15603214D01*
X15800094Y-15603214D02*
X15790570Y-15574643D01*
X15790570Y-15574643D02*
X15781047Y-15555595D01*
X15781047Y-15555595D02*
X15761999Y-15527024D01*
X15761999Y-15527024D02*
X15752475Y-15517500D01*
X16114380Y-15822262D02*
X16104856Y-15812738D01*
X16104856Y-15812738D02*
X16085809Y-15784167D01*
X16085809Y-15784167D02*
X16076285Y-15765119D01*
X16076285Y-15765119D02*
X16066761Y-15736548D01*
X16066761Y-15736548D02*
X16057237Y-15688928D01*
X16057237Y-15688928D02*
X16057237Y-15650833D01*
X16057237Y-15650833D02*
X16066761Y-15603214D01*
X16066761Y-15603214D02*
X16076285Y-15574643D01*
X16076285Y-15574643D02*
X16085809Y-15555595D01*
X16085809Y-15555595D02*
X16104856Y-15527024D01*
X16104856Y-15527024D02*
X16114380Y-15517500D01*
X16190570Y-15612738D02*
X16190570Y-15746071D01*
X16190570Y-15631786D02*
X16200094Y-15622262D01*
X16200094Y-15622262D02*
X16219142Y-15612738D01*
X16219142Y-15612738D02*
X16247713Y-15612738D01*
X16247713Y-15612738D02*
X16266761Y-15622262D01*
X16266761Y-15622262D02*
X16276285Y-15641309D01*
X16276285Y-15641309D02*
X16276285Y-15746071D01*
X16400094Y-15746071D02*
X16381047Y-15736548D01*
X16381047Y-15736548D02*
X16371523Y-15727024D01*
X16371523Y-15727024D02*
X16361999Y-15707976D01*
X16361999Y-15707976D02*
X16361999Y-15650833D01*
X16361999Y-15650833D02*
X16371523Y-15631786D01*
X16371523Y-15631786D02*
X16381047Y-15622262D01*
X16381047Y-15622262D02*
X16400094Y-15612738D01*
X16400094Y-15612738D02*
X16428666Y-15612738D01*
X16428666Y-15612738D02*
X16447713Y-15622262D01*
X16447713Y-15622262D02*
X16457237Y-15631786D01*
X16457237Y-15631786D02*
X16466761Y-15650833D01*
X16466761Y-15650833D02*
X16466761Y-15707976D01*
X16466761Y-15707976D02*
X16457237Y-15727024D01*
X16457237Y-15727024D02*
X16447713Y-15736548D01*
X16447713Y-15736548D02*
X16428666Y-15746071D01*
X16428666Y-15746071D02*
X16400094Y-15746071D01*
X16523904Y-15612738D02*
X16600094Y-15612738D01*
X16552475Y-15546071D02*
X16552475Y-15717500D01*
X16552475Y-15717500D02*
X16561999Y-15736548D01*
X16561999Y-15736548D02*
X16581047Y-15746071D01*
X16581047Y-15746071D02*
X16600094Y-15746071D01*
X16819142Y-15612738D02*
X16819142Y-15812738D01*
X16819142Y-15622262D02*
X16838190Y-15612738D01*
X16838190Y-15612738D02*
X16876285Y-15612738D01*
X16876285Y-15612738D02*
X16895333Y-15622262D01*
X16895333Y-15622262D02*
X16904856Y-15631786D01*
X16904856Y-15631786D02*
X16914380Y-15650833D01*
X16914380Y-15650833D02*
X16914380Y-15707976D01*
X16914380Y-15707976D02*
X16904856Y-15727024D01*
X16904856Y-15727024D02*
X16895333Y-15736548D01*
X16895333Y-15736548D02*
X16876285Y-15746071D01*
X16876285Y-15746071D02*
X16838190Y-15746071D01*
X16838190Y-15746071D02*
X16819142Y-15736548D01*
X17028666Y-15746071D02*
X17009618Y-15736548D01*
X17009618Y-15736548D02*
X17000094Y-15717500D01*
X17000094Y-15717500D02*
X17000094Y-15546071D01*
X17190571Y-15746071D02*
X17190571Y-15641309D01*
X17190571Y-15641309D02*
X17181047Y-15622262D01*
X17181047Y-15622262D02*
X17161999Y-15612738D01*
X17161999Y-15612738D02*
X17123904Y-15612738D01*
X17123904Y-15612738D02*
X17104856Y-15622262D01*
X17190571Y-15736548D02*
X17171523Y-15746071D01*
X17171523Y-15746071D02*
X17123904Y-15746071D01*
X17123904Y-15746071D02*
X17104856Y-15736548D01*
X17104856Y-15736548D02*
X17095333Y-15717500D01*
X17095333Y-15717500D02*
X17095333Y-15698452D01*
X17095333Y-15698452D02*
X17104856Y-15679405D01*
X17104856Y-15679405D02*
X17123904Y-15669881D01*
X17123904Y-15669881D02*
X17171523Y-15669881D01*
X17171523Y-15669881D02*
X17190571Y-15660357D01*
X17257237Y-15612738D02*
X17333428Y-15612738D01*
X17285809Y-15546071D02*
X17285809Y-15717500D01*
X17285809Y-15717500D02*
X17295333Y-15736548D01*
X17295333Y-15736548D02*
X17314380Y-15746071D01*
X17314380Y-15746071D02*
X17333428Y-15746071D01*
X17476285Y-15736548D02*
X17457237Y-15746071D01*
X17457237Y-15746071D02*
X17419142Y-15746071D01*
X17419142Y-15746071D02*
X17400094Y-15736548D01*
X17400094Y-15736548D02*
X17390571Y-15717500D01*
X17390571Y-15717500D02*
X17390571Y-15641309D01*
X17390571Y-15641309D02*
X17400094Y-15622262D01*
X17400094Y-15622262D02*
X17419142Y-15612738D01*
X17419142Y-15612738D02*
X17457237Y-15612738D01*
X17457237Y-15612738D02*
X17476285Y-15622262D01*
X17476285Y-15622262D02*
X17485809Y-15641309D01*
X17485809Y-15641309D02*
X17485809Y-15660357D01*
X17485809Y-15660357D02*
X17390571Y-15679405D01*
X17657237Y-15746071D02*
X17657237Y-15546071D01*
X17657237Y-15736548D02*
X17638190Y-15746071D01*
X17638190Y-15746071D02*
X17600094Y-15746071D01*
X17600094Y-15746071D02*
X17581047Y-15736548D01*
X17581047Y-15736548D02*
X17571523Y-15727024D01*
X17571523Y-15727024D02*
X17561999Y-15707976D01*
X17561999Y-15707976D02*
X17561999Y-15650833D01*
X17561999Y-15650833D02*
X17571523Y-15631786D01*
X17571523Y-15631786D02*
X17581047Y-15622262D01*
X17581047Y-15622262D02*
X17600094Y-15612738D01*
X17600094Y-15612738D02*
X17638190Y-15612738D01*
X17638190Y-15612738D02*
X17657237Y-15622262D01*
X17733428Y-15822262D02*
X17742952Y-15812738D01*
X17742952Y-15812738D02*
X17761999Y-15784167D01*
X17761999Y-15784167D02*
X17771523Y-15765119D01*
X17771523Y-15765119D02*
X17781047Y-15736548D01*
X17781047Y-15736548D02*
X17790571Y-15688928D01*
X17790571Y-15688928D02*
X17790571Y-15650833D01*
X17790571Y-15650833D02*
X17781047Y-15603214D01*
X17781047Y-15603214D02*
X17771523Y-15574643D01*
X17771523Y-15574643D02*
X17761999Y-15555595D01*
X17761999Y-15555595D02*
X17742952Y-15527024D01*
X17742952Y-15527024D02*
X17733428Y-15517500D01*
M02*
