%TF.GenerationSoftware,KiCad,Pcbnew,8.0.5-dirty*%
%TF.CreationDate,2024-09-27T12:44:03+05:30*%
%TF.ProjectId,Nodes,4e6f6465-732e-46b6-9963-61645f706362,1.1*%
%TF.SameCoordinates,Original*%
%TF.FileFunction,Drillmap*%
%TF.FilePolarity,Positive*%
%FSLAX45Y45*%
G04 Gerber Fmt 4.5, Leading zero omitted, Abs format (unit mm)*
G04 Created by KiCad (PCBNEW 8.0.5-dirty) date 2024-09-27 12:44:03*
%MOMM*%
%LPD*%
G01*
G04 APERTURE LIST*
%ADD10C,0.050000*%
%ADD11C,0.200000*%
%ADD12C,0.100000*%
%ADD13C,0.152000*%
%ADD14C,0.320000*%
G04 APERTURE END LIST*
D10*
X11550000Y-13420088D02*
G75*
G02*
X10979912Y-12850000I0J570088D01*
G01*
X10979912Y-5600000D02*
G75*
G02*
X11550000Y-5029912I570088J0D01*
G01*
X11550000Y-5029912D02*
X18500000Y-5029912D01*
X18490000Y-13420088D02*
X11550000Y-13420088D01*
X19070088Y-5600000D02*
X19060088Y-12850000D01*
X19060088Y-12850000D02*
G75*
G02*
X18490000Y-13420088I-570088J0D01*
G01*
X18500000Y-5029912D02*
G75*
G02*
X19070088Y-5600000I0J-570088D01*
G01*
X10979912Y-12850000D02*
X10979912Y-5600000D01*
D11*
D12*
X12400000Y-6172500D02*
X12440000Y-6212500D01*
X12440000Y-6172500D02*
X12400000Y-6212500D01*
X13905000Y-12580000D02*
X13945000Y-12620000D01*
X13945000Y-12580000D02*
X13905000Y-12620000D01*
X14255000Y-12580000D02*
X14295000Y-12620000D01*
X14295000Y-12580000D02*
X14255000Y-12620000D01*
X15530000Y-6080000D02*
X15570000Y-6120000D01*
X15570000Y-6080000D02*
X15530000Y-6120000D01*
X15780000Y-5620000D02*
X15820000Y-5660000D01*
X15820000Y-5620000D02*
X15780000Y-5660000D01*
X15900000Y-8740000D02*
X15940000Y-8780000D01*
X15940000Y-8740000D02*
X15900000Y-8780000D01*
X15930000Y-9320000D02*
X15970000Y-9360000D01*
X15970000Y-9320000D02*
X15930000Y-9360000D01*
X15930000Y-9580000D02*
X15970000Y-9620000D01*
X15970000Y-9580000D02*
X15930000Y-9620000D01*
X15980000Y-10940000D02*
X16020000Y-10980000D01*
X16020000Y-10940000D02*
X15980000Y-10980000D01*
X16000000Y-10240000D02*
X16040000Y-10280000D01*
X16040000Y-10240000D02*
X16000000Y-10280000D01*
X16030000Y-6080000D02*
X16070000Y-6120000D01*
X16070000Y-6080000D02*
X16030000Y-6120000D01*
X16080000Y-12905000D02*
X16120000Y-12945000D01*
X16120000Y-12905000D02*
X16080000Y-12945000D01*
X16100000Y-8940000D02*
X16140000Y-8980000D01*
X16140000Y-8940000D02*
X16100000Y-8980000D01*
X16230000Y-7380000D02*
X16270000Y-7420000D01*
X16270000Y-7380000D02*
X16230000Y-7420000D01*
X16240000Y-7560000D02*
X16280000Y-7600000D01*
X16280000Y-7560000D02*
X16240000Y-7600000D01*
X16320000Y-9600000D02*
X16360000Y-9640000D01*
X16360000Y-9600000D02*
X16320000Y-9640000D01*
X16320000Y-9820000D02*
X16360000Y-9860000D01*
X16360000Y-9820000D02*
X16320000Y-9860000D01*
X16440000Y-10240000D02*
X16480000Y-10280000D01*
X16480000Y-10240000D02*
X16440000Y-10280000D01*
X16440000Y-11000000D02*
X16480000Y-11040000D01*
X16480000Y-11000000D02*
X16440000Y-11040000D01*
X16480000Y-7580000D02*
X16520000Y-7620000D01*
X16520000Y-7580000D02*
X16480000Y-7620000D01*
X16480000Y-12905000D02*
X16520000Y-12945000D01*
X16520000Y-12905000D02*
X16480000Y-12945000D01*
X17340000Y-8480000D02*
X17380000Y-8520000D01*
X17380000Y-8480000D02*
X17340000Y-8520000D01*
X17340000Y-9100000D02*
X17380000Y-9140000D01*
X17380000Y-9100000D02*
X17340000Y-9140000D01*
X17360000Y-10600000D02*
X17400000Y-10640000D01*
X17400000Y-10600000D02*
X17360000Y-10640000D01*
X17360000Y-10880000D02*
X17400000Y-10920000D01*
X17400000Y-10880000D02*
X17360000Y-10920000D01*
X17480000Y-7030000D02*
X17520000Y-7070000D01*
X17520000Y-7030000D02*
X17480000Y-7070000D01*
X17580000Y-8800000D02*
X17620000Y-8840000D01*
X17620000Y-8800000D02*
X17580000Y-8840000D01*
X17580000Y-9100000D02*
X17620000Y-9140000D01*
X17620000Y-9100000D02*
X17580000Y-9140000D01*
X17580000Y-9460000D02*
X17620000Y-9500000D01*
X17620000Y-9460000D02*
X17580000Y-9500000D01*
X17660000Y-7110000D02*
X17700000Y-7150000D01*
X17700000Y-7110000D02*
X17660000Y-7150000D01*
X17740000Y-9620000D02*
X17780000Y-9660000D01*
X17780000Y-9620000D02*
X17740000Y-9660000D01*
X17740000Y-10600000D02*
X17780000Y-10640000D01*
X17780000Y-10600000D02*
X17740000Y-10640000D01*
X17740000Y-10900000D02*
X17780000Y-10940000D01*
X17780000Y-10900000D02*
X17740000Y-10940000D01*
X17810000Y-7030000D02*
X17850000Y-7070000D01*
X17850000Y-7030000D02*
X17810000Y-7070000D01*
X17820000Y-8800000D02*
X17860000Y-8840000D01*
X17860000Y-8800000D02*
X17820000Y-8840000D01*
X17820000Y-9100000D02*
X17860000Y-9140000D01*
X17860000Y-9100000D02*
X17820000Y-9140000D01*
X11299500Y-8638000D02*
G75*
G02*
X11209500Y-8638000I-45000J0D01*
G01*
X11209500Y-8638000D02*
G75*
G02*
X11299500Y-8638000I45000J0D01*
G01*
X11323000Y-9588000D02*
G75*
G02*
X11233000Y-9588000I-45000J0D01*
G01*
X11233000Y-9588000D02*
G75*
G02*
X11323000Y-9588000I45000J0D01*
G01*
X11323000Y-10488000D02*
G75*
G02*
X11233000Y-10488000I-45000J0D01*
G01*
X11233000Y-10488000D02*
G75*
G02*
X11323000Y-10488000I45000J0D01*
G01*
X11327000Y-11438000D02*
G75*
G02*
X11237000Y-11438000I-45000J0D01*
G01*
X11237000Y-11438000D02*
G75*
G02*
X11327000Y-11438000I45000J0D01*
G01*
X11553500Y-8638000D02*
G75*
G02*
X11463500Y-8638000I-45000J0D01*
G01*
X11463500Y-8638000D02*
G75*
G02*
X11553500Y-8638000I45000J0D01*
G01*
X11577000Y-9588000D02*
G75*
G02*
X11487000Y-9588000I-45000J0D01*
G01*
X11487000Y-9588000D02*
G75*
G02*
X11577000Y-9588000I45000J0D01*
G01*
X11577000Y-10488000D02*
G75*
G02*
X11487000Y-10488000I-45000J0D01*
G01*
X11487000Y-10488000D02*
G75*
G02*
X11577000Y-10488000I45000J0D01*
G01*
X11581000Y-11438000D02*
G75*
G02*
X11491000Y-11438000I-45000J0D01*
G01*
X11491000Y-11438000D02*
G75*
G02*
X11581000Y-11438000I45000J0D01*
G01*
X12268000Y-12552500D02*
X12268000Y-12652500D01*
X12218000Y-12602500D02*
X12318000Y-12602500D01*
X12522000Y-12552500D02*
X12522000Y-12652500D01*
X12472000Y-12602500D02*
X12572000Y-12602500D01*
X12776000Y-12552500D02*
X12776000Y-12652500D01*
X12726000Y-12602500D02*
X12826000Y-12602500D01*
X13030000Y-12552500D02*
X13030000Y-12652500D01*
X12980000Y-12602500D02*
X13080000Y-12602500D01*
X13225000Y-6876000D02*
X13225000Y-6976000D01*
X13175000Y-6926000D02*
X13275000Y-6926000D01*
X13225000Y-7130000D02*
X13225000Y-7230000D01*
X13175000Y-7180000D02*
X13275000Y-7180000D01*
X13225000Y-7384000D02*
X13225000Y-7484000D01*
X13175000Y-7434000D02*
X13275000Y-7434000D01*
X13225000Y-7638000D02*
X13225000Y-7738000D01*
X13175000Y-7688000D02*
X13275000Y-7688000D01*
X13225000Y-7892000D02*
X13225000Y-7992000D01*
X13175000Y-7942000D02*
X13275000Y-7942000D01*
X13225000Y-8146000D02*
X13225000Y-8246000D01*
X13175000Y-8196000D02*
X13275000Y-8196000D01*
X13225000Y-8400000D02*
X13225000Y-8500000D01*
X13175000Y-8450000D02*
X13275000Y-8450000D01*
X13225000Y-8654000D02*
X13225000Y-8754000D01*
X13175000Y-8704000D02*
X13275000Y-8704000D01*
X13225000Y-8908000D02*
X13225000Y-9008000D01*
X13175000Y-8958000D02*
X13275000Y-8958000D01*
X13225000Y-9162000D02*
X13225000Y-9262000D01*
X13175000Y-9212000D02*
X13275000Y-9212000D01*
X13225000Y-9416000D02*
X13225000Y-9516000D01*
X13175000Y-9466000D02*
X13275000Y-9466000D01*
X13225000Y-9670000D02*
X13225000Y-9770000D01*
X13175000Y-9720000D02*
X13275000Y-9720000D01*
X13225000Y-9924000D02*
X13225000Y-10024000D01*
X13175000Y-9974000D02*
X13275000Y-9974000D01*
X13225000Y-10178000D02*
X13225000Y-10278000D01*
X13175000Y-10228000D02*
X13275000Y-10228000D01*
X13225000Y-10432000D02*
X13225000Y-10532000D01*
X13175000Y-10482000D02*
X13275000Y-10482000D01*
X13225000Y-10686000D02*
X13225000Y-10786000D01*
X13175000Y-10736000D02*
X13275000Y-10736000D01*
X13225000Y-10940000D02*
X13225000Y-11040000D01*
X13175000Y-10990000D02*
X13275000Y-10990000D01*
X13225000Y-11194000D02*
X13225000Y-11294000D01*
X13175000Y-11244000D02*
X13275000Y-11244000D01*
X13225000Y-11448000D02*
X13225000Y-11548000D01*
X13175000Y-11498000D02*
X13275000Y-11498000D01*
X13225000Y-11702000D02*
X13225000Y-11802000D01*
X13175000Y-11752000D02*
X13275000Y-11752000D01*
X14749000Y-6876000D02*
X14749000Y-6976000D01*
X14699000Y-6926000D02*
X14799000Y-6926000D01*
X14749000Y-7130000D02*
X14749000Y-7230000D01*
X14699000Y-7180000D02*
X14799000Y-7180000D01*
X14749000Y-7384000D02*
X14749000Y-7484000D01*
X14699000Y-7434000D02*
X14799000Y-7434000D01*
X14749000Y-7638000D02*
X14749000Y-7738000D01*
X14699000Y-7688000D02*
X14799000Y-7688000D01*
X14749000Y-7892000D02*
X14749000Y-7992000D01*
X14699000Y-7942000D02*
X14799000Y-7942000D01*
X14749000Y-8146000D02*
X14749000Y-8246000D01*
X14699000Y-8196000D02*
X14799000Y-8196000D01*
X14749000Y-8400000D02*
X14749000Y-8500000D01*
X14699000Y-8450000D02*
X14799000Y-8450000D01*
X14749000Y-8654000D02*
X14749000Y-8754000D01*
X14699000Y-8704000D02*
X14799000Y-8704000D01*
X14749000Y-8908000D02*
X14749000Y-9008000D01*
X14699000Y-8958000D02*
X14799000Y-8958000D01*
X14749000Y-9162000D02*
X14749000Y-9262000D01*
X14699000Y-9212000D02*
X14799000Y-9212000D01*
X14749000Y-9416000D02*
X14749000Y-9516000D01*
X14699000Y-9466000D02*
X14799000Y-9466000D01*
X14749000Y-9670000D02*
X14749000Y-9770000D01*
X14699000Y-9720000D02*
X14799000Y-9720000D01*
X14749000Y-9924000D02*
X14749000Y-10024000D01*
X14699000Y-9974000D02*
X14799000Y-9974000D01*
X14749000Y-10178000D02*
X14749000Y-10278000D01*
X14699000Y-10228000D02*
X14799000Y-10228000D01*
X14749000Y-10432000D02*
X14749000Y-10532000D01*
X14699000Y-10482000D02*
X14799000Y-10482000D01*
X14749000Y-10686000D02*
X14749000Y-10786000D01*
X14699000Y-10736000D02*
X14799000Y-10736000D01*
X14749000Y-10940000D02*
X14749000Y-11040000D01*
X14699000Y-10990000D02*
X14799000Y-10990000D01*
X14749000Y-11194000D02*
X14749000Y-11294000D01*
X14699000Y-11244000D02*
X14799000Y-11244000D01*
X14749000Y-11448000D02*
X14749000Y-11548000D01*
X14699000Y-11498000D02*
X14799000Y-11498000D01*
X14749000Y-11702000D02*
X14749000Y-11802000D01*
X14699000Y-11752000D02*
X14799000Y-11752000D01*
X15400000Y-12296000D02*
X15400000Y-12396000D01*
X15350000Y-12346000D02*
X15450000Y-12346000D01*
X15400000Y-12550000D02*
X15400000Y-12650000D01*
X15350000Y-12600000D02*
X15450000Y-12600000D01*
X15654000Y-12296000D02*
X15654000Y-12396000D01*
X15604000Y-12346000D02*
X15704000Y-12346000D01*
X15654000Y-12550000D02*
X15654000Y-12650000D01*
X15604000Y-12600000D02*
X15704000Y-12600000D01*
X15908000Y-12296000D02*
X15908000Y-12396000D01*
X15858000Y-12346000D02*
X15958000Y-12346000D01*
X15908000Y-12550000D02*
X15908000Y-12650000D01*
X15858000Y-12600000D02*
X15958000Y-12600000D01*
X16162000Y-12296000D02*
X16162000Y-12396000D01*
X16112000Y-12346000D02*
X16212000Y-12346000D01*
X16162000Y-12550000D02*
X16162000Y-12650000D01*
X16112000Y-12600000D02*
X16212000Y-12600000D01*
X16720000Y-6190000D02*
X16720000Y-6290000D01*
X16670000Y-6240000D02*
X16770000Y-6240000D01*
X16670000Y-6140000D02*
X16670000Y-6340000D01*
X16770000Y-6340000D02*
G75*
G02*
X16670000Y-6340000I-50000J0D01*
G01*
X16770000Y-6340000D02*
X16770000Y-6140000D01*
X16770000Y-6140000D02*
G75*
G03*
X16670000Y-6140000I-50000J0D01*
G01*
X16721050Y-10707500D02*
X16721050Y-10807500D01*
X16671050Y-10757500D02*
X16771050Y-10757500D01*
X16721050Y-10961500D02*
X16721050Y-11061500D01*
X16671050Y-11011500D02*
X16771050Y-11011500D01*
X16721050Y-11215500D02*
X16721050Y-11315500D01*
X16671050Y-11265500D02*
X16771050Y-11265500D01*
X16721050Y-11469500D02*
X16721050Y-11569500D01*
X16671050Y-11519500D02*
X16771050Y-11519500D01*
X16761050Y-8908000D02*
X16761050Y-9008000D01*
X16711050Y-8958000D02*
X16811050Y-8958000D01*
X16761050Y-9162000D02*
X16761050Y-9262000D01*
X16711050Y-9212000D02*
X16811050Y-9212000D01*
X16761050Y-9416000D02*
X16761050Y-9516000D01*
X16711050Y-9466000D02*
X16811050Y-9466000D01*
X16761050Y-9670000D02*
X16761050Y-9770000D01*
X16711050Y-9720000D02*
X16811050Y-9720000D01*
X16975050Y-10707500D02*
X16975050Y-10807500D01*
X16925050Y-10757500D02*
X17025050Y-10757500D01*
X16975050Y-10961500D02*
X16975050Y-11061500D01*
X16925050Y-11011500D02*
X17025050Y-11011500D01*
X16975050Y-11215500D02*
X16975050Y-11315500D01*
X16925050Y-11265500D02*
X17025050Y-11265500D01*
X16975050Y-11469500D02*
X16975050Y-11569500D01*
X16925050Y-11519500D02*
X17025050Y-11519500D01*
X17015050Y-8908000D02*
X17015050Y-9008000D01*
X16965050Y-8958000D02*
X17065050Y-8958000D01*
X17015050Y-9162000D02*
X17015050Y-9262000D01*
X16965050Y-9212000D02*
X17065050Y-9212000D01*
X17015050Y-9416000D02*
X17015050Y-9516000D01*
X16965050Y-9466000D02*
X17065050Y-9466000D01*
X17015050Y-9670000D02*
X17015050Y-9770000D01*
X16965050Y-9720000D02*
X17065050Y-9720000D01*
X17190000Y-5890000D02*
X17190000Y-5990000D01*
X17140000Y-5940000D02*
X17240000Y-5940000D01*
X17290000Y-5890000D02*
X17090000Y-5890000D01*
X17090000Y-5990000D02*
G75*
G02*
X17090000Y-5890000I0J50000D01*
G01*
X17090000Y-5990000D02*
X17290000Y-5990000D01*
X17290000Y-5990000D02*
G75*
G03*
X17290000Y-5890000I0J50000D01*
G01*
X17190000Y-6490000D02*
X17190000Y-6590000D01*
X17140000Y-6540000D02*
X17240000Y-6540000D01*
X17290000Y-6490000D02*
X17090000Y-6490000D01*
X17090000Y-6590000D02*
G75*
G02*
X17090000Y-6490000I0J50000D01*
G01*
X17090000Y-6590000D02*
X17290000Y-6590000D01*
X17290000Y-6590000D02*
G75*
G03*
X17290000Y-6490000I0J50000D01*
G01*
D13*
X11503741Y-6737741D02*
X11503741Y-6630259D01*
X11396259Y-6630259D01*
X11396259Y-6737741D01*
X11503741Y-6737741D01*
X11503741Y-7245741D02*
X11503741Y-7138259D01*
X11396259Y-7138259D01*
X11396259Y-7245741D01*
X11503741Y-7245741D01*
X11503741Y-7753741D02*
X11503741Y-7646259D01*
X11396259Y-7646259D01*
X11396259Y-7753741D01*
X11503741Y-7753741D01*
X13648741Y-5588741D02*
X13648741Y-5481259D01*
X13541259Y-5481259D01*
X13541259Y-5588741D01*
X13648741Y-5588741D01*
X14156741Y-5588741D02*
X14156741Y-5481259D01*
X14049259Y-5481259D01*
X14049259Y-5588741D01*
X14156741Y-5588741D01*
X14664741Y-5588741D02*
X14664741Y-5481259D01*
X14557259Y-5481259D01*
X14557259Y-5588741D01*
X14664741Y-5588741D01*
D14*
X11550000Y-5760000D02*
X11710000Y-5600000D01*
X11550000Y-5440000D01*
X11390000Y-5600000D01*
X11550000Y-5760000D01*
X11550000Y-13010000D02*
X11710000Y-12850000D01*
X11550000Y-12690000D01*
X11390000Y-12850000D01*
X11550000Y-13010000D01*
X18500000Y-5760000D02*
X18660000Y-5600000D01*
X18500000Y-5440000D01*
X18340000Y-5600000D01*
X18500000Y-5760000D01*
X18500000Y-13010000D02*
X18660000Y-12850000D01*
X18500000Y-12690000D01*
X18340000Y-12850000D01*
X18500000Y-13010000D01*
D11*
X11238189Y-13734071D02*
X11238189Y-13534071D01*
X11238189Y-13534071D02*
X11285808Y-13534071D01*
X11285808Y-13534071D02*
X11314380Y-13543595D01*
X11314380Y-13543595D02*
X11333427Y-13562643D01*
X11333427Y-13562643D02*
X11342951Y-13581690D01*
X11342951Y-13581690D02*
X11352475Y-13619786D01*
X11352475Y-13619786D02*
X11352475Y-13648357D01*
X11352475Y-13648357D02*
X11342951Y-13686452D01*
X11342951Y-13686452D02*
X11333427Y-13705500D01*
X11333427Y-13705500D02*
X11314380Y-13724548D01*
X11314380Y-13724548D02*
X11285808Y-13734071D01*
X11285808Y-13734071D02*
X11238189Y-13734071D01*
X11438189Y-13734071D02*
X11438189Y-13600738D01*
X11438189Y-13638833D02*
X11447713Y-13619786D01*
X11447713Y-13619786D02*
X11457237Y-13610262D01*
X11457237Y-13610262D02*
X11476284Y-13600738D01*
X11476284Y-13600738D02*
X11495332Y-13600738D01*
X11561999Y-13734071D02*
X11561999Y-13600738D01*
X11561999Y-13534071D02*
X11552475Y-13543595D01*
X11552475Y-13543595D02*
X11561999Y-13553119D01*
X11561999Y-13553119D02*
X11571522Y-13543595D01*
X11571522Y-13543595D02*
X11561999Y-13534071D01*
X11561999Y-13534071D02*
X11561999Y-13553119D01*
X11685808Y-13734071D02*
X11666760Y-13724548D01*
X11666760Y-13724548D02*
X11657237Y-13705500D01*
X11657237Y-13705500D02*
X11657237Y-13534071D01*
X11790570Y-13734071D02*
X11771522Y-13724548D01*
X11771522Y-13724548D02*
X11761999Y-13705500D01*
X11761999Y-13705500D02*
X11761999Y-13534071D01*
X12019141Y-13734071D02*
X12019141Y-13534071D01*
X12019141Y-13534071D02*
X12085808Y-13676928D01*
X12085808Y-13676928D02*
X12152475Y-13534071D01*
X12152475Y-13534071D02*
X12152475Y-13734071D01*
X12333427Y-13734071D02*
X12333427Y-13629309D01*
X12333427Y-13629309D02*
X12323903Y-13610262D01*
X12323903Y-13610262D02*
X12304856Y-13600738D01*
X12304856Y-13600738D02*
X12266760Y-13600738D01*
X12266760Y-13600738D02*
X12247713Y-13610262D01*
X12333427Y-13724548D02*
X12314380Y-13734071D01*
X12314380Y-13734071D02*
X12266760Y-13734071D01*
X12266760Y-13734071D02*
X12247713Y-13724548D01*
X12247713Y-13724548D02*
X12238189Y-13705500D01*
X12238189Y-13705500D02*
X12238189Y-13686452D01*
X12238189Y-13686452D02*
X12247713Y-13667405D01*
X12247713Y-13667405D02*
X12266760Y-13657881D01*
X12266760Y-13657881D02*
X12314380Y-13657881D01*
X12314380Y-13657881D02*
X12333427Y-13648357D01*
X12428665Y-13600738D02*
X12428665Y-13800738D01*
X12428665Y-13610262D02*
X12447713Y-13600738D01*
X12447713Y-13600738D02*
X12485808Y-13600738D01*
X12485808Y-13600738D02*
X12504856Y-13610262D01*
X12504856Y-13610262D02*
X12514380Y-13619786D01*
X12514380Y-13619786D02*
X12523903Y-13638833D01*
X12523903Y-13638833D02*
X12523903Y-13695976D01*
X12523903Y-13695976D02*
X12514380Y-13715024D01*
X12514380Y-13715024D02*
X12504856Y-13724548D01*
X12504856Y-13724548D02*
X12485808Y-13734071D01*
X12485808Y-13734071D02*
X12447713Y-13734071D01*
X12447713Y-13734071D02*
X12428665Y-13724548D01*
X12609618Y-13715024D02*
X12619141Y-13724548D01*
X12619141Y-13724548D02*
X12609618Y-13734071D01*
X12609618Y-13734071D02*
X12600094Y-13724548D01*
X12600094Y-13724548D02*
X12609618Y-13715024D01*
X12609618Y-13715024D02*
X12609618Y-13734071D01*
X12609618Y-13610262D02*
X12619141Y-13619786D01*
X12619141Y-13619786D02*
X12609618Y-13629309D01*
X12609618Y-13629309D02*
X12600094Y-13619786D01*
X12600094Y-13619786D02*
X12609618Y-13610262D01*
X12609618Y-13610262D02*
X12609618Y-13629309D01*
D12*
X10937412Y-14042588D02*
X10977412Y-14082588D01*
X10977412Y-14042588D02*
X10937412Y-14082588D01*
D11*
X11276284Y-13954071D02*
X11295332Y-13954071D01*
X11295332Y-13954071D02*
X11314380Y-13963595D01*
X11314380Y-13963595D02*
X11323903Y-13973119D01*
X11323903Y-13973119D02*
X11333427Y-13992167D01*
X11333427Y-13992167D02*
X11342951Y-14030262D01*
X11342951Y-14030262D02*
X11342951Y-14077881D01*
X11342951Y-14077881D02*
X11333427Y-14115976D01*
X11333427Y-14115976D02*
X11323903Y-14135024D01*
X11323903Y-14135024D02*
X11314380Y-14144548D01*
X11314380Y-14144548D02*
X11295332Y-14154071D01*
X11295332Y-14154071D02*
X11276284Y-14154071D01*
X11276284Y-14154071D02*
X11257237Y-14144548D01*
X11257237Y-14144548D02*
X11247713Y-14135024D01*
X11247713Y-14135024D02*
X11238189Y-14115976D01*
X11238189Y-14115976D02*
X11228665Y-14077881D01*
X11228665Y-14077881D02*
X11228665Y-14030262D01*
X11228665Y-14030262D02*
X11238189Y-13992167D01*
X11238189Y-13992167D02*
X11247713Y-13973119D01*
X11247713Y-13973119D02*
X11257237Y-13963595D01*
X11257237Y-13963595D02*
X11276284Y-13954071D01*
X11428665Y-14135024D02*
X11438189Y-14144548D01*
X11438189Y-14144548D02*
X11428665Y-14154071D01*
X11428665Y-14154071D02*
X11419141Y-14144548D01*
X11419141Y-14144548D02*
X11428665Y-14135024D01*
X11428665Y-14135024D02*
X11428665Y-14154071D01*
X11609618Y-14020738D02*
X11609618Y-14154071D01*
X11561999Y-13944548D02*
X11514380Y-14087405D01*
X11514380Y-14087405D02*
X11638189Y-14087405D01*
X11752475Y-13954071D02*
X11771522Y-13954071D01*
X11771522Y-13954071D02*
X11790570Y-13963595D01*
X11790570Y-13963595D02*
X11800094Y-13973119D01*
X11800094Y-13973119D02*
X11809618Y-13992167D01*
X11809618Y-13992167D02*
X11819141Y-14030262D01*
X11819141Y-14030262D02*
X11819141Y-14077881D01*
X11819141Y-14077881D02*
X11809618Y-14115976D01*
X11809618Y-14115976D02*
X11800094Y-14135024D01*
X11800094Y-14135024D02*
X11790570Y-14144548D01*
X11790570Y-14144548D02*
X11771522Y-14154071D01*
X11771522Y-14154071D02*
X11752475Y-14154071D01*
X11752475Y-14154071D02*
X11733427Y-14144548D01*
X11733427Y-14144548D02*
X11723903Y-14135024D01*
X11723903Y-14135024D02*
X11714380Y-14115976D01*
X11714380Y-14115976D02*
X11704856Y-14077881D01*
X11704856Y-14077881D02*
X11704856Y-14030262D01*
X11704856Y-14030262D02*
X11714380Y-13992167D01*
X11714380Y-13992167D02*
X11723903Y-13973119D01*
X11723903Y-13973119D02*
X11733427Y-13963595D01*
X11733427Y-13963595D02*
X11752475Y-13954071D01*
X11942951Y-13954071D02*
X11961999Y-13954071D01*
X11961999Y-13954071D02*
X11981046Y-13963595D01*
X11981046Y-13963595D02*
X11990570Y-13973119D01*
X11990570Y-13973119D02*
X12000094Y-13992167D01*
X12000094Y-13992167D02*
X12009618Y-14030262D01*
X12009618Y-14030262D02*
X12009618Y-14077881D01*
X12009618Y-14077881D02*
X12000094Y-14115976D01*
X12000094Y-14115976D02*
X11990570Y-14135024D01*
X11990570Y-14135024D02*
X11981046Y-14144548D01*
X11981046Y-14144548D02*
X11961999Y-14154071D01*
X11961999Y-14154071D02*
X11942951Y-14154071D01*
X11942951Y-14154071D02*
X11923903Y-14144548D01*
X11923903Y-14144548D02*
X11914380Y-14135024D01*
X11914380Y-14135024D02*
X11904856Y-14115976D01*
X11904856Y-14115976D02*
X11895332Y-14077881D01*
X11895332Y-14077881D02*
X11895332Y-14030262D01*
X11895332Y-14030262D02*
X11904856Y-13992167D01*
X11904856Y-13992167D02*
X11914380Y-13973119D01*
X11914380Y-13973119D02*
X11923903Y-13963595D01*
X11923903Y-13963595D02*
X11942951Y-13954071D01*
X12095332Y-14154071D02*
X12095332Y-14020738D01*
X12095332Y-14039786D02*
X12104856Y-14030262D01*
X12104856Y-14030262D02*
X12123903Y-14020738D01*
X12123903Y-14020738D02*
X12152475Y-14020738D01*
X12152475Y-14020738D02*
X12171522Y-14030262D01*
X12171522Y-14030262D02*
X12181046Y-14049309D01*
X12181046Y-14049309D02*
X12181046Y-14154071D01*
X12181046Y-14049309D02*
X12190570Y-14030262D01*
X12190570Y-14030262D02*
X12209618Y-14020738D01*
X12209618Y-14020738D02*
X12238189Y-14020738D01*
X12238189Y-14020738D02*
X12257237Y-14030262D01*
X12257237Y-14030262D02*
X12266761Y-14049309D01*
X12266761Y-14049309D02*
X12266761Y-14154071D01*
X12361999Y-14154071D02*
X12361999Y-14020738D01*
X12361999Y-14039786D02*
X12371522Y-14030262D01*
X12371522Y-14030262D02*
X12390570Y-14020738D01*
X12390570Y-14020738D02*
X12419142Y-14020738D01*
X12419142Y-14020738D02*
X12438189Y-14030262D01*
X12438189Y-14030262D02*
X12447713Y-14049309D01*
X12447713Y-14049309D02*
X12447713Y-14154071D01*
X12447713Y-14049309D02*
X12457237Y-14030262D01*
X12457237Y-14030262D02*
X12476284Y-14020738D01*
X12476284Y-14020738D02*
X12504856Y-14020738D01*
X12504856Y-14020738D02*
X12523903Y-14030262D01*
X12523903Y-14030262D02*
X12533427Y-14049309D01*
X12533427Y-14049309D02*
X12533427Y-14154071D01*
X12923903Y-13944548D02*
X12752475Y-14201690D01*
X13181046Y-13954071D02*
X13200094Y-13954071D01*
X13200094Y-13954071D02*
X13219142Y-13963595D01*
X13219142Y-13963595D02*
X13228665Y-13973119D01*
X13228665Y-13973119D02*
X13238189Y-13992167D01*
X13238189Y-13992167D02*
X13247713Y-14030262D01*
X13247713Y-14030262D02*
X13247713Y-14077881D01*
X13247713Y-14077881D02*
X13238189Y-14115976D01*
X13238189Y-14115976D02*
X13228665Y-14135024D01*
X13228665Y-14135024D02*
X13219142Y-14144548D01*
X13219142Y-14144548D02*
X13200094Y-14154071D01*
X13200094Y-14154071D02*
X13181046Y-14154071D01*
X13181046Y-14154071D02*
X13161999Y-14144548D01*
X13161999Y-14144548D02*
X13152475Y-14135024D01*
X13152475Y-14135024D02*
X13142951Y-14115976D01*
X13142951Y-14115976D02*
X13133427Y-14077881D01*
X13133427Y-14077881D02*
X13133427Y-14030262D01*
X13133427Y-14030262D02*
X13142951Y-13992167D01*
X13142951Y-13992167D02*
X13152475Y-13973119D01*
X13152475Y-13973119D02*
X13161999Y-13963595D01*
X13161999Y-13963595D02*
X13181046Y-13954071D01*
X13333427Y-14135024D02*
X13342951Y-14144548D01*
X13342951Y-14144548D02*
X13333427Y-14154071D01*
X13333427Y-14154071D02*
X13323904Y-14144548D01*
X13323904Y-14144548D02*
X13333427Y-14135024D01*
X13333427Y-14135024D02*
X13333427Y-14154071D01*
X13466761Y-13954071D02*
X13485808Y-13954071D01*
X13485808Y-13954071D02*
X13504856Y-13963595D01*
X13504856Y-13963595D02*
X13514380Y-13973119D01*
X13514380Y-13973119D02*
X13523904Y-13992167D01*
X13523904Y-13992167D02*
X13533427Y-14030262D01*
X13533427Y-14030262D02*
X13533427Y-14077881D01*
X13533427Y-14077881D02*
X13523904Y-14115976D01*
X13523904Y-14115976D02*
X13514380Y-14135024D01*
X13514380Y-14135024D02*
X13504856Y-14144548D01*
X13504856Y-14144548D02*
X13485808Y-14154071D01*
X13485808Y-14154071D02*
X13466761Y-14154071D01*
X13466761Y-14154071D02*
X13447713Y-14144548D01*
X13447713Y-14144548D02*
X13438189Y-14135024D01*
X13438189Y-14135024D02*
X13428665Y-14115976D01*
X13428665Y-14115976D02*
X13419142Y-14077881D01*
X13419142Y-14077881D02*
X13419142Y-14030262D01*
X13419142Y-14030262D02*
X13428665Y-13992167D01*
X13428665Y-13992167D02*
X13438189Y-13973119D01*
X13438189Y-13973119D02*
X13447713Y-13963595D01*
X13447713Y-13963595D02*
X13466761Y-13954071D01*
X13723904Y-14154071D02*
X13609618Y-14154071D01*
X13666761Y-14154071D02*
X13666761Y-13954071D01*
X13666761Y-13954071D02*
X13647713Y-13982643D01*
X13647713Y-13982643D02*
X13628665Y-14001690D01*
X13628665Y-14001690D02*
X13609618Y-14011214D01*
X13904856Y-13954071D02*
X13809618Y-13954071D01*
X13809618Y-13954071D02*
X13800094Y-14049309D01*
X13800094Y-14049309D02*
X13809618Y-14039786D01*
X13809618Y-14039786D02*
X13828665Y-14030262D01*
X13828665Y-14030262D02*
X13876285Y-14030262D01*
X13876285Y-14030262D02*
X13895332Y-14039786D01*
X13895332Y-14039786D02*
X13904856Y-14049309D01*
X13904856Y-14049309D02*
X13914380Y-14068357D01*
X13914380Y-14068357D02*
X13914380Y-14115976D01*
X13914380Y-14115976D02*
X13904856Y-14135024D01*
X13904856Y-14135024D02*
X13895332Y-14144548D01*
X13895332Y-14144548D02*
X13876285Y-14154071D01*
X13876285Y-14154071D02*
X13828665Y-14154071D01*
X13828665Y-14154071D02*
X13809618Y-14144548D01*
X13809618Y-14144548D02*
X13800094Y-14135024D01*
X13981046Y-13954071D02*
X14114380Y-13954071D01*
X14114380Y-13954071D02*
X14028665Y-14154071D01*
X14181046Y-13954071D02*
X14181046Y-13992167D01*
X14257237Y-13954071D02*
X14257237Y-13992167D01*
X14552475Y-14230262D02*
X14542951Y-14220738D01*
X14542951Y-14220738D02*
X14523904Y-14192167D01*
X14523904Y-14192167D02*
X14514380Y-14173119D01*
X14514380Y-14173119D02*
X14504856Y-14144548D01*
X14504856Y-14144548D02*
X14495332Y-14096928D01*
X14495332Y-14096928D02*
X14495332Y-14058833D01*
X14495332Y-14058833D02*
X14504856Y-14011214D01*
X14504856Y-14011214D02*
X14514380Y-13982643D01*
X14514380Y-13982643D02*
X14523904Y-13963595D01*
X14523904Y-13963595D02*
X14542951Y-13935024D01*
X14542951Y-13935024D02*
X14552475Y-13925500D01*
X14609618Y-13954071D02*
X14733427Y-13954071D01*
X14733427Y-13954071D02*
X14666761Y-14030262D01*
X14666761Y-14030262D02*
X14695332Y-14030262D01*
X14695332Y-14030262D02*
X14714380Y-14039786D01*
X14714380Y-14039786D02*
X14723904Y-14049309D01*
X14723904Y-14049309D02*
X14733427Y-14068357D01*
X14733427Y-14068357D02*
X14733427Y-14115976D01*
X14733427Y-14115976D02*
X14723904Y-14135024D01*
X14723904Y-14135024D02*
X14714380Y-14144548D01*
X14714380Y-14144548D02*
X14695332Y-14154071D01*
X14695332Y-14154071D02*
X14638189Y-14154071D01*
X14638189Y-14154071D02*
X14619142Y-14144548D01*
X14619142Y-14144548D02*
X14609618Y-14135024D01*
X14904856Y-13954071D02*
X14866761Y-13954071D01*
X14866761Y-13954071D02*
X14847713Y-13963595D01*
X14847713Y-13963595D02*
X14838189Y-13973119D01*
X14838189Y-13973119D02*
X14819142Y-14001690D01*
X14819142Y-14001690D02*
X14809618Y-14039786D01*
X14809618Y-14039786D02*
X14809618Y-14115976D01*
X14809618Y-14115976D02*
X14819142Y-14135024D01*
X14819142Y-14135024D02*
X14828666Y-14144548D01*
X14828666Y-14144548D02*
X14847713Y-14154071D01*
X14847713Y-14154071D02*
X14885808Y-14154071D01*
X14885808Y-14154071D02*
X14904856Y-14144548D01*
X14904856Y-14144548D02*
X14914380Y-14135024D01*
X14914380Y-14135024D02*
X14923904Y-14115976D01*
X14923904Y-14115976D02*
X14923904Y-14068357D01*
X14923904Y-14068357D02*
X14914380Y-14049309D01*
X14914380Y-14049309D02*
X14904856Y-14039786D01*
X14904856Y-14039786D02*
X14885808Y-14030262D01*
X14885808Y-14030262D02*
X14847713Y-14030262D01*
X14847713Y-14030262D02*
X14828666Y-14039786D01*
X14828666Y-14039786D02*
X14819142Y-14049309D01*
X14819142Y-14049309D02*
X14809618Y-14068357D01*
X15161999Y-14154071D02*
X15161999Y-13954071D01*
X15247713Y-14154071D02*
X15247713Y-14049309D01*
X15247713Y-14049309D02*
X15238189Y-14030262D01*
X15238189Y-14030262D02*
X15219142Y-14020738D01*
X15219142Y-14020738D02*
X15190570Y-14020738D01*
X15190570Y-14020738D02*
X15171523Y-14030262D01*
X15171523Y-14030262D02*
X15161999Y-14039786D01*
X15371523Y-14154071D02*
X15352475Y-14144548D01*
X15352475Y-14144548D02*
X15342951Y-14135024D01*
X15342951Y-14135024D02*
X15333428Y-14115976D01*
X15333428Y-14115976D02*
X15333428Y-14058833D01*
X15333428Y-14058833D02*
X15342951Y-14039786D01*
X15342951Y-14039786D02*
X15352475Y-14030262D01*
X15352475Y-14030262D02*
X15371523Y-14020738D01*
X15371523Y-14020738D02*
X15400094Y-14020738D01*
X15400094Y-14020738D02*
X15419142Y-14030262D01*
X15419142Y-14030262D02*
X15428666Y-14039786D01*
X15428666Y-14039786D02*
X15438189Y-14058833D01*
X15438189Y-14058833D02*
X15438189Y-14115976D01*
X15438189Y-14115976D02*
X15428666Y-14135024D01*
X15428666Y-14135024D02*
X15419142Y-14144548D01*
X15419142Y-14144548D02*
X15400094Y-14154071D01*
X15400094Y-14154071D02*
X15371523Y-14154071D01*
X15552475Y-14154071D02*
X15533428Y-14144548D01*
X15533428Y-14144548D02*
X15523904Y-14125500D01*
X15523904Y-14125500D02*
X15523904Y-13954071D01*
X15704856Y-14144548D02*
X15685809Y-14154071D01*
X15685809Y-14154071D02*
X15647713Y-14154071D01*
X15647713Y-14154071D02*
X15628666Y-14144548D01*
X15628666Y-14144548D02*
X15619142Y-14125500D01*
X15619142Y-14125500D02*
X15619142Y-14049309D01*
X15619142Y-14049309D02*
X15628666Y-14030262D01*
X15628666Y-14030262D02*
X15647713Y-14020738D01*
X15647713Y-14020738D02*
X15685809Y-14020738D01*
X15685809Y-14020738D02*
X15704856Y-14030262D01*
X15704856Y-14030262D02*
X15714380Y-14049309D01*
X15714380Y-14049309D02*
X15714380Y-14068357D01*
X15714380Y-14068357D02*
X15619142Y-14087405D01*
X15790570Y-14144548D02*
X15809618Y-14154071D01*
X15809618Y-14154071D02*
X15847713Y-14154071D01*
X15847713Y-14154071D02*
X15866761Y-14144548D01*
X15866761Y-14144548D02*
X15876285Y-14125500D01*
X15876285Y-14125500D02*
X15876285Y-14115976D01*
X15876285Y-14115976D02*
X15866761Y-14096928D01*
X15866761Y-14096928D02*
X15847713Y-14087405D01*
X15847713Y-14087405D02*
X15819142Y-14087405D01*
X15819142Y-14087405D02*
X15800094Y-14077881D01*
X15800094Y-14077881D02*
X15790570Y-14058833D01*
X15790570Y-14058833D02*
X15790570Y-14049309D01*
X15790570Y-14049309D02*
X15800094Y-14030262D01*
X15800094Y-14030262D02*
X15819142Y-14020738D01*
X15819142Y-14020738D02*
X15847713Y-14020738D01*
X15847713Y-14020738D02*
X15866761Y-14030262D01*
X15942951Y-14230262D02*
X15952475Y-14220738D01*
X15952475Y-14220738D02*
X15971523Y-14192167D01*
X15971523Y-14192167D02*
X15981047Y-14173119D01*
X15981047Y-14173119D02*
X15990570Y-14144548D01*
X15990570Y-14144548D02*
X16000094Y-14096928D01*
X16000094Y-14096928D02*
X16000094Y-14058833D01*
X16000094Y-14058833D02*
X15990570Y-14011214D01*
X15990570Y-14011214D02*
X15981047Y-13982643D01*
X15981047Y-13982643D02*
X15971523Y-13963595D01*
X15971523Y-13963595D02*
X15952475Y-13935024D01*
X15952475Y-13935024D02*
X15942951Y-13925500D01*
D12*
X10977412Y-14326588D02*
G75*
G02*
X10887412Y-14326588I-45000J0D01*
G01*
X10887412Y-14326588D02*
G75*
G02*
X10977412Y-14326588I45000J0D01*
G01*
D11*
X11276284Y-14218071D02*
X11295332Y-14218071D01*
X11295332Y-14218071D02*
X11314380Y-14227595D01*
X11314380Y-14227595D02*
X11323903Y-14237119D01*
X11323903Y-14237119D02*
X11333427Y-14256167D01*
X11333427Y-14256167D02*
X11342951Y-14294262D01*
X11342951Y-14294262D02*
X11342951Y-14341881D01*
X11342951Y-14341881D02*
X11333427Y-14379976D01*
X11333427Y-14379976D02*
X11323903Y-14399024D01*
X11323903Y-14399024D02*
X11314380Y-14408548D01*
X11314380Y-14408548D02*
X11295332Y-14418071D01*
X11295332Y-14418071D02*
X11276284Y-14418071D01*
X11276284Y-14418071D02*
X11257237Y-14408548D01*
X11257237Y-14408548D02*
X11247713Y-14399024D01*
X11247713Y-14399024D02*
X11238189Y-14379976D01*
X11238189Y-14379976D02*
X11228665Y-14341881D01*
X11228665Y-14341881D02*
X11228665Y-14294262D01*
X11228665Y-14294262D02*
X11238189Y-14256167D01*
X11238189Y-14256167D02*
X11247713Y-14237119D01*
X11247713Y-14237119D02*
X11257237Y-14227595D01*
X11257237Y-14227595D02*
X11276284Y-14218071D01*
X11428665Y-14399024D02*
X11438189Y-14408548D01*
X11438189Y-14408548D02*
X11428665Y-14418071D01*
X11428665Y-14418071D02*
X11419141Y-14408548D01*
X11419141Y-14408548D02*
X11428665Y-14399024D01*
X11428665Y-14399024D02*
X11428665Y-14418071D01*
X11533427Y-14418071D02*
X11571522Y-14418071D01*
X11571522Y-14418071D02*
X11590570Y-14408548D01*
X11590570Y-14408548D02*
X11600094Y-14399024D01*
X11600094Y-14399024D02*
X11619141Y-14370452D01*
X11619141Y-14370452D02*
X11628665Y-14332357D01*
X11628665Y-14332357D02*
X11628665Y-14256167D01*
X11628665Y-14256167D02*
X11619141Y-14237119D01*
X11619141Y-14237119D02*
X11609618Y-14227595D01*
X11609618Y-14227595D02*
X11590570Y-14218071D01*
X11590570Y-14218071D02*
X11552475Y-14218071D01*
X11552475Y-14218071D02*
X11533427Y-14227595D01*
X11533427Y-14227595D02*
X11523903Y-14237119D01*
X11523903Y-14237119D02*
X11514380Y-14256167D01*
X11514380Y-14256167D02*
X11514380Y-14303786D01*
X11514380Y-14303786D02*
X11523903Y-14322833D01*
X11523903Y-14322833D02*
X11533427Y-14332357D01*
X11533427Y-14332357D02*
X11552475Y-14341881D01*
X11552475Y-14341881D02*
X11590570Y-14341881D01*
X11590570Y-14341881D02*
X11609618Y-14332357D01*
X11609618Y-14332357D02*
X11619141Y-14322833D01*
X11619141Y-14322833D02*
X11628665Y-14303786D01*
X11752475Y-14218071D02*
X11771522Y-14218071D01*
X11771522Y-14218071D02*
X11790570Y-14227595D01*
X11790570Y-14227595D02*
X11800094Y-14237119D01*
X11800094Y-14237119D02*
X11809618Y-14256167D01*
X11809618Y-14256167D02*
X11819141Y-14294262D01*
X11819141Y-14294262D02*
X11819141Y-14341881D01*
X11819141Y-14341881D02*
X11809618Y-14379976D01*
X11809618Y-14379976D02*
X11800094Y-14399024D01*
X11800094Y-14399024D02*
X11790570Y-14408548D01*
X11790570Y-14408548D02*
X11771522Y-14418071D01*
X11771522Y-14418071D02*
X11752475Y-14418071D01*
X11752475Y-14418071D02*
X11733427Y-14408548D01*
X11733427Y-14408548D02*
X11723903Y-14399024D01*
X11723903Y-14399024D02*
X11714380Y-14379976D01*
X11714380Y-14379976D02*
X11704856Y-14341881D01*
X11704856Y-14341881D02*
X11704856Y-14294262D01*
X11704856Y-14294262D02*
X11714380Y-14256167D01*
X11714380Y-14256167D02*
X11723903Y-14237119D01*
X11723903Y-14237119D02*
X11733427Y-14227595D01*
X11733427Y-14227595D02*
X11752475Y-14218071D01*
X11942951Y-14218071D02*
X11961999Y-14218071D01*
X11961999Y-14218071D02*
X11981046Y-14227595D01*
X11981046Y-14227595D02*
X11990570Y-14237119D01*
X11990570Y-14237119D02*
X12000094Y-14256167D01*
X12000094Y-14256167D02*
X12009618Y-14294262D01*
X12009618Y-14294262D02*
X12009618Y-14341881D01*
X12009618Y-14341881D02*
X12000094Y-14379976D01*
X12000094Y-14379976D02*
X11990570Y-14399024D01*
X11990570Y-14399024D02*
X11981046Y-14408548D01*
X11981046Y-14408548D02*
X11961999Y-14418071D01*
X11961999Y-14418071D02*
X11942951Y-14418071D01*
X11942951Y-14418071D02*
X11923903Y-14408548D01*
X11923903Y-14408548D02*
X11914380Y-14399024D01*
X11914380Y-14399024D02*
X11904856Y-14379976D01*
X11904856Y-14379976D02*
X11895332Y-14341881D01*
X11895332Y-14341881D02*
X11895332Y-14294262D01*
X11895332Y-14294262D02*
X11904856Y-14256167D01*
X11904856Y-14256167D02*
X11914380Y-14237119D01*
X11914380Y-14237119D02*
X11923903Y-14227595D01*
X11923903Y-14227595D02*
X11942951Y-14218071D01*
X12095332Y-14418071D02*
X12095332Y-14284738D01*
X12095332Y-14303786D02*
X12104856Y-14294262D01*
X12104856Y-14294262D02*
X12123903Y-14284738D01*
X12123903Y-14284738D02*
X12152475Y-14284738D01*
X12152475Y-14284738D02*
X12171522Y-14294262D01*
X12171522Y-14294262D02*
X12181046Y-14313309D01*
X12181046Y-14313309D02*
X12181046Y-14418071D01*
X12181046Y-14313309D02*
X12190570Y-14294262D01*
X12190570Y-14294262D02*
X12209618Y-14284738D01*
X12209618Y-14284738D02*
X12238189Y-14284738D01*
X12238189Y-14284738D02*
X12257237Y-14294262D01*
X12257237Y-14294262D02*
X12266761Y-14313309D01*
X12266761Y-14313309D02*
X12266761Y-14418071D01*
X12361999Y-14418071D02*
X12361999Y-14284738D01*
X12361999Y-14303786D02*
X12371522Y-14294262D01*
X12371522Y-14294262D02*
X12390570Y-14284738D01*
X12390570Y-14284738D02*
X12419142Y-14284738D01*
X12419142Y-14284738D02*
X12438189Y-14294262D01*
X12438189Y-14294262D02*
X12447713Y-14313309D01*
X12447713Y-14313309D02*
X12447713Y-14418071D01*
X12447713Y-14313309D02*
X12457237Y-14294262D01*
X12457237Y-14294262D02*
X12476284Y-14284738D01*
X12476284Y-14284738D02*
X12504856Y-14284738D01*
X12504856Y-14284738D02*
X12523903Y-14294262D01*
X12523903Y-14294262D02*
X12533427Y-14313309D01*
X12533427Y-14313309D02*
X12533427Y-14418071D01*
X12923903Y-14208548D02*
X12752475Y-14465690D01*
X13181046Y-14218071D02*
X13200094Y-14218071D01*
X13200094Y-14218071D02*
X13219142Y-14227595D01*
X13219142Y-14227595D02*
X13228665Y-14237119D01*
X13228665Y-14237119D02*
X13238189Y-14256167D01*
X13238189Y-14256167D02*
X13247713Y-14294262D01*
X13247713Y-14294262D02*
X13247713Y-14341881D01*
X13247713Y-14341881D02*
X13238189Y-14379976D01*
X13238189Y-14379976D02*
X13228665Y-14399024D01*
X13228665Y-14399024D02*
X13219142Y-14408548D01*
X13219142Y-14408548D02*
X13200094Y-14418071D01*
X13200094Y-14418071D02*
X13181046Y-14418071D01*
X13181046Y-14418071D02*
X13161999Y-14408548D01*
X13161999Y-14408548D02*
X13152475Y-14399024D01*
X13152475Y-14399024D02*
X13142951Y-14379976D01*
X13142951Y-14379976D02*
X13133427Y-14341881D01*
X13133427Y-14341881D02*
X13133427Y-14294262D01*
X13133427Y-14294262D02*
X13142951Y-14256167D01*
X13142951Y-14256167D02*
X13152475Y-14237119D01*
X13152475Y-14237119D02*
X13161999Y-14227595D01*
X13161999Y-14227595D02*
X13181046Y-14218071D01*
X13333427Y-14399024D02*
X13342951Y-14408548D01*
X13342951Y-14408548D02*
X13333427Y-14418071D01*
X13333427Y-14418071D02*
X13323904Y-14408548D01*
X13323904Y-14408548D02*
X13333427Y-14399024D01*
X13333427Y-14399024D02*
X13333427Y-14418071D01*
X13466761Y-14218071D02*
X13485808Y-14218071D01*
X13485808Y-14218071D02*
X13504856Y-14227595D01*
X13504856Y-14227595D02*
X13514380Y-14237119D01*
X13514380Y-14237119D02*
X13523904Y-14256167D01*
X13523904Y-14256167D02*
X13533427Y-14294262D01*
X13533427Y-14294262D02*
X13533427Y-14341881D01*
X13533427Y-14341881D02*
X13523904Y-14379976D01*
X13523904Y-14379976D02*
X13514380Y-14399024D01*
X13514380Y-14399024D02*
X13504856Y-14408548D01*
X13504856Y-14408548D02*
X13485808Y-14418071D01*
X13485808Y-14418071D02*
X13466761Y-14418071D01*
X13466761Y-14418071D02*
X13447713Y-14408548D01*
X13447713Y-14408548D02*
X13438189Y-14399024D01*
X13438189Y-14399024D02*
X13428665Y-14379976D01*
X13428665Y-14379976D02*
X13419142Y-14341881D01*
X13419142Y-14341881D02*
X13419142Y-14294262D01*
X13419142Y-14294262D02*
X13428665Y-14256167D01*
X13428665Y-14256167D02*
X13438189Y-14237119D01*
X13438189Y-14237119D02*
X13447713Y-14227595D01*
X13447713Y-14227595D02*
X13466761Y-14218071D01*
X13600094Y-14218071D02*
X13723904Y-14218071D01*
X13723904Y-14218071D02*
X13657237Y-14294262D01*
X13657237Y-14294262D02*
X13685808Y-14294262D01*
X13685808Y-14294262D02*
X13704856Y-14303786D01*
X13704856Y-14303786D02*
X13714380Y-14313309D01*
X13714380Y-14313309D02*
X13723904Y-14332357D01*
X13723904Y-14332357D02*
X13723904Y-14379976D01*
X13723904Y-14379976D02*
X13714380Y-14399024D01*
X13714380Y-14399024D02*
X13704856Y-14408548D01*
X13704856Y-14408548D02*
X13685808Y-14418071D01*
X13685808Y-14418071D02*
X13628665Y-14418071D01*
X13628665Y-14418071D02*
X13609618Y-14408548D01*
X13609618Y-14408548D02*
X13600094Y-14399024D01*
X13904856Y-14218071D02*
X13809618Y-14218071D01*
X13809618Y-14218071D02*
X13800094Y-14313309D01*
X13800094Y-14313309D02*
X13809618Y-14303786D01*
X13809618Y-14303786D02*
X13828665Y-14294262D01*
X13828665Y-14294262D02*
X13876285Y-14294262D01*
X13876285Y-14294262D02*
X13895332Y-14303786D01*
X13895332Y-14303786D02*
X13904856Y-14313309D01*
X13904856Y-14313309D02*
X13914380Y-14332357D01*
X13914380Y-14332357D02*
X13914380Y-14379976D01*
X13914380Y-14379976D02*
X13904856Y-14399024D01*
X13904856Y-14399024D02*
X13895332Y-14408548D01*
X13895332Y-14408548D02*
X13876285Y-14418071D01*
X13876285Y-14418071D02*
X13828665Y-14418071D01*
X13828665Y-14418071D02*
X13809618Y-14408548D01*
X13809618Y-14408548D02*
X13800094Y-14399024D01*
X14085808Y-14284738D02*
X14085808Y-14418071D01*
X14038189Y-14208548D02*
X13990570Y-14351405D01*
X13990570Y-14351405D02*
X14114380Y-14351405D01*
X14181046Y-14218071D02*
X14181046Y-14256167D01*
X14257237Y-14218071D02*
X14257237Y-14256167D01*
X14552475Y-14494262D02*
X14542951Y-14484738D01*
X14542951Y-14484738D02*
X14523904Y-14456167D01*
X14523904Y-14456167D02*
X14514380Y-14437119D01*
X14514380Y-14437119D02*
X14504856Y-14408548D01*
X14504856Y-14408548D02*
X14495332Y-14360928D01*
X14495332Y-14360928D02*
X14495332Y-14322833D01*
X14495332Y-14322833D02*
X14504856Y-14275214D01*
X14504856Y-14275214D02*
X14514380Y-14246643D01*
X14514380Y-14246643D02*
X14523904Y-14227595D01*
X14523904Y-14227595D02*
X14542951Y-14199024D01*
X14542951Y-14199024D02*
X14552475Y-14189500D01*
X14657237Y-14303786D02*
X14638189Y-14294262D01*
X14638189Y-14294262D02*
X14628666Y-14284738D01*
X14628666Y-14284738D02*
X14619142Y-14265690D01*
X14619142Y-14265690D02*
X14619142Y-14256167D01*
X14619142Y-14256167D02*
X14628666Y-14237119D01*
X14628666Y-14237119D02*
X14638189Y-14227595D01*
X14638189Y-14227595D02*
X14657237Y-14218071D01*
X14657237Y-14218071D02*
X14695332Y-14218071D01*
X14695332Y-14218071D02*
X14714380Y-14227595D01*
X14714380Y-14227595D02*
X14723904Y-14237119D01*
X14723904Y-14237119D02*
X14733427Y-14256167D01*
X14733427Y-14256167D02*
X14733427Y-14265690D01*
X14733427Y-14265690D02*
X14723904Y-14284738D01*
X14723904Y-14284738D02*
X14714380Y-14294262D01*
X14714380Y-14294262D02*
X14695332Y-14303786D01*
X14695332Y-14303786D02*
X14657237Y-14303786D01*
X14657237Y-14303786D02*
X14638189Y-14313309D01*
X14638189Y-14313309D02*
X14628666Y-14322833D01*
X14628666Y-14322833D02*
X14619142Y-14341881D01*
X14619142Y-14341881D02*
X14619142Y-14379976D01*
X14619142Y-14379976D02*
X14628666Y-14399024D01*
X14628666Y-14399024D02*
X14638189Y-14408548D01*
X14638189Y-14408548D02*
X14657237Y-14418071D01*
X14657237Y-14418071D02*
X14695332Y-14418071D01*
X14695332Y-14418071D02*
X14714380Y-14408548D01*
X14714380Y-14408548D02*
X14723904Y-14399024D01*
X14723904Y-14399024D02*
X14733427Y-14379976D01*
X14733427Y-14379976D02*
X14733427Y-14341881D01*
X14733427Y-14341881D02*
X14723904Y-14322833D01*
X14723904Y-14322833D02*
X14714380Y-14313309D01*
X14714380Y-14313309D02*
X14695332Y-14303786D01*
X14971523Y-14418071D02*
X14971523Y-14218071D01*
X15057237Y-14418071D02*
X15057237Y-14313309D01*
X15057237Y-14313309D02*
X15047713Y-14294262D01*
X15047713Y-14294262D02*
X15028666Y-14284738D01*
X15028666Y-14284738D02*
X15000094Y-14284738D01*
X15000094Y-14284738D02*
X14981047Y-14294262D01*
X14981047Y-14294262D02*
X14971523Y-14303786D01*
X15181047Y-14418071D02*
X15161999Y-14408548D01*
X15161999Y-14408548D02*
X15152475Y-14399024D01*
X15152475Y-14399024D02*
X15142951Y-14379976D01*
X15142951Y-14379976D02*
X15142951Y-14322833D01*
X15142951Y-14322833D02*
X15152475Y-14303786D01*
X15152475Y-14303786D02*
X15161999Y-14294262D01*
X15161999Y-14294262D02*
X15181047Y-14284738D01*
X15181047Y-14284738D02*
X15209618Y-14284738D01*
X15209618Y-14284738D02*
X15228666Y-14294262D01*
X15228666Y-14294262D02*
X15238189Y-14303786D01*
X15238189Y-14303786D02*
X15247713Y-14322833D01*
X15247713Y-14322833D02*
X15247713Y-14379976D01*
X15247713Y-14379976D02*
X15238189Y-14399024D01*
X15238189Y-14399024D02*
X15228666Y-14408548D01*
X15228666Y-14408548D02*
X15209618Y-14418071D01*
X15209618Y-14418071D02*
X15181047Y-14418071D01*
X15361999Y-14418071D02*
X15342951Y-14408548D01*
X15342951Y-14408548D02*
X15333428Y-14389500D01*
X15333428Y-14389500D02*
X15333428Y-14218071D01*
X15514380Y-14408548D02*
X15495332Y-14418071D01*
X15495332Y-14418071D02*
X15457237Y-14418071D01*
X15457237Y-14418071D02*
X15438189Y-14408548D01*
X15438189Y-14408548D02*
X15428666Y-14389500D01*
X15428666Y-14389500D02*
X15428666Y-14313309D01*
X15428666Y-14313309D02*
X15438189Y-14294262D01*
X15438189Y-14294262D02*
X15457237Y-14284738D01*
X15457237Y-14284738D02*
X15495332Y-14284738D01*
X15495332Y-14284738D02*
X15514380Y-14294262D01*
X15514380Y-14294262D02*
X15523904Y-14313309D01*
X15523904Y-14313309D02*
X15523904Y-14332357D01*
X15523904Y-14332357D02*
X15428666Y-14351405D01*
X15600094Y-14408548D02*
X15619142Y-14418071D01*
X15619142Y-14418071D02*
X15657237Y-14418071D01*
X15657237Y-14418071D02*
X15676285Y-14408548D01*
X15676285Y-14408548D02*
X15685809Y-14389500D01*
X15685809Y-14389500D02*
X15685809Y-14379976D01*
X15685809Y-14379976D02*
X15676285Y-14360928D01*
X15676285Y-14360928D02*
X15657237Y-14351405D01*
X15657237Y-14351405D02*
X15628666Y-14351405D01*
X15628666Y-14351405D02*
X15609618Y-14341881D01*
X15609618Y-14341881D02*
X15600094Y-14322833D01*
X15600094Y-14322833D02*
X15600094Y-14313309D01*
X15600094Y-14313309D02*
X15609618Y-14294262D01*
X15609618Y-14294262D02*
X15628666Y-14284738D01*
X15628666Y-14284738D02*
X15657237Y-14284738D01*
X15657237Y-14284738D02*
X15676285Y-14294262D01*
X15752475Y-14494262D02*
X15761999Y-14484738D01*
X15761999Y-14484738D02*
X15781047Y-14456167D01*
X15781047Y-14456167D02*
X15790570Y-14437119D01*
X15790570Y-14437119D02*
X15800094Y-14408548D01*
X15800094Y-14408548D02*
X15809618Y-14360928D01*
X15809618Y-14360928D02*
X15809618Y-14322833D01*
X15809618Y-14322833D02*
X15800094Y-14275214D01*
X15800094Y-14275214D02*
X15790570Y-14246643D01*
X15790570Y-14246643D02*
X15781047Y-14227595D01*
X15781047Y-14227595D02*
X15761999Y-14199024D01*
X15761999Y-14199024D02*
X15752475Y-14189500D01*
D12*
X10927412Y-14540588D02*
X10927412Y-14640588D01*
X10877412Y-14590588D02*
X10977412Y-14590588D01*
D11*
X11342951Y-14682071D02*
X11228665Y-14682071D01*
X11285808Y-14682071D02*
X11285808Y-14482071D01*
X11285808Y-14482071D02*
X11266760Y-14510643D01*
X11266760Y-14510643D02*
X11247713Y-14529690D01*
X11247713Y-14529690D02*
X11228665Y-14539214D01*
X11428665Y-14663024D02*
X11438189Y-14672548D01*
X11438189Y-14672548D02*
X11428665Y-14682071D01*
X11428665Y-14682071D02*
X11419141Y-14672548D01*
X11419141Y-14672548D02*
X11428665Y-14663024D01*
X11428665Y-14663024D02*
X11428665Y-14682071D01*
X11561999Y-14482071D02*
X11581046Y-14482071D01*
X11581046Y-14482071D02*
X11600094Y-14491595D01*
X11600094Y-14491595D02*
X11609618Y-14501119D01*
X11609618Y-14501119D02*
X11619141Y-14520167D01*
X11619141Y-14520167D02*
X11628665Y-14558262D01*
X11628665Y-14558262D02*
X11628665Y-14605881D01*
X11628665Y-14605881D02*
X11619141Y-14643976D01*
X11619141Y-14643976D02*
X11609618Y-14663024D01*
X11609618Y-14663024D02*
X11600094Y-14672548D01*
X11600094Y-14672548D02*
X11581046Y-14682071D01*
X11581046Y-14682071D02*
X11561999Y-14682071D01*
X11561999Y-14682071D02*
X11542951Y-14672548D01*
X11542951Y-14672548D02*
X11533427Y-14663024D01*
X11533427Y-14663024D02*
X11523903Y-14643976D01*
X11523903Y-14643976D02*
X11514380Y-14605881D01*
X11514380Y-14605881D02*
X11514380Y-14558262D01*
X11514380Y-14558262D02*
X11523903Y-14520167D01*
X11523903Y-14520167D02*
X11533427Y-14501119D01*
X11533427Y-14501119D02*
X11542951Y-14491595D01*
X11542951Y-14491595D02*
X11561999Y-14482071D01*
X11752475Y-14482071D02*
X11771522Y-14482071D01*
X11771522Y-14482071D02*
X11790570Y-14491595D01*
X11790570Y-14491595D02*
X11800094Y-14501119D01*
X11800094Y-14501119D02*
X11809618Y-14520167D01*
X11809618Y-14520167D02*
X11819141Y-14558262D01*
X11819141Y-14558262D02*
X11819141Y-14605881D01*
X11819141Y-14605881D02*
X11809618Y-14643976D01*
X11809618Y-14643976D02*
X11800094Y-14663024D01*
X11800094Y-14663024D02*
X11790570Y-14672548D01*
X11790570Y-14672548D02*
X11771522Y-14682071D01*
X11771522Y-14682071D02*
X11752475Y-14682071D01*
X11752475Y-14682071D02*
X11733427Y-14672548D01*
X11733427Y-14672548D02*
X11723903Y-14663024D01*
X11723903Y-14663024D02*
X11714380Y-14643976D01*
X11714380Y-14643976D02*
X11704856Y-14605881D01*
X11704856Y-14605881D02*
X11704856Y-14558262D01*
X11704856Y-14558262D02*
X11714380Y-14520167D01*
X11714380Y-14520167D02*
X11723903Y-14501119D01*
X11723903Y-14501119D02*
X11733427Y-14491595D01*
X11733427Y-14491595D02*
X11752475Y-14482071D01*
X11942951Y-14482071D02*
X11961999Y-14482071D01*
X11961999Y-14482071D02*
X11981046Y-14491595D01*
X11981046Y-14491595D02*
X11990570Y-14501119D01*
X11990570Y-14501119D02*
X12000094Y-14520167D01*
X12000094Y-14520167D02*
X12009618Y-14558262D01*
X12009618Y-14558262D02*
X12009618Y-14605881D01*
X12009618Y-14605881D02*
X12000094Y-14643976D01*
X12000094Y-14643976D02*
X11990570Y-14663024D01*
X11990570Y-14663024D02*
X11981046Y-14672548D01*
X11981046Y-14672548D02*
X11961999Y-14682071D01*
X11961999Y-14682071D02*
X11942951Y-14682071D01*
X11942951Y-14682071D02*
X11923903Y-14672548D01*
X11923903Y-14672548D02*
X11914380Y-14663024D01*
X11914380Y-14663024D02*
X11904856Y-14643976D01*
X11904856Y-14643976D02*
X11895332Y-14605881D01*
X11895332Y-14605881D02*
X11895332Y-14558262D01*
X11895332Y-14558262D02*
X11904856Y-14520167D01*
X11904856Y-14520167D02*
X11914380Y-14501119D01*
X11914380Y-14501119D02*
X11923903Y-14491595D01*
X11923903Y-14491595D02*
X11942951Y-14482071D01*
X12095332Y-14682071D02*
X12095332Y-14548738D01*
X12095332Y-14567786D02*
X12104856Y-14558262D01*
X12104856Y-14558262D02*
X12123903Y-14548738D01*
X12123903Y-14548738D02*
X12152475Y-14548738D01*
X12152475Y-14548738D02*
X12171522Y-14558262D01*
X12171522Y-14558262D02*
X12181046Y-14577309D01*
X12181046Y-14577309D02*
X12181046Y-14682071D01*
X12181046Y-14577309D02*
X12190570Y-14558262D01*
X12190570Y-14558262D02*
X12209618Y-14548738D01*
X12209618Y-14548738D02*
X12238189Y-14548738D01*
X12238189Y-14548738D02*
X12257237Y-14558262D01*
X12257237Y-14558262D02*
X12266761Y-14577309D01*
X12266761Y-14577309D02*
X12266761Y-14682071D01*
X12361999Y-14682071D02*
X12361999Y-14548738D01*
X12361999Y-14567786D02*
X12371522Y-14558262D01*
X12371522Y-14558262D02*
X12390570Y-14548738D01*
X12390570Y-14548738D02*
X12419142Y-14548738D01*
X12419142Y-14548738D02*
X12438189Y-14558262D01*
X12438189Y-14558262D02*
X12447713Y-14577309D01*
X12447713Y-14577309D02*
X12447713Y-14682071D01*
X12447713Y-14577309D02*
X12457237Y-14558262D01*
X12457237Y-14558262D02*
X12476284Y-14548738D01*
X12476284Y-14548738D02*
X12504856Y-14548738D01*
X12504856Y-14548738D02*
X12523903Y-14558262D01*
X12523903Y-14558262D02*
X12533427Y-14577309D01*
X12533427Y-14577309D02*
X12533427Y-14682071D01*
X12923903Y-14472548D02*
X12752475Y-14729690D01*
X13181046Y-14482071D02*
X13200094Y-14482071D01*
X13200094Y-14482071D02*
X13219142Y-14491595D01*
X13219142Y-14491595D02*
X13228665Y-14501119D01*
X13228665Y-14501119D02*
X13238189Y-14520167D01*
X13238189Y-14520167D02*
X13247713Y-14558262D01*
X13247713Y-14558262D02*
X13247713Y-14605881D01*
X13247713Y-14605881D02*
X13238189Y-14643976D01*
X13238189Y-14643976D02*
X13228665Y-14663024D01*
X13228665Y-14663024D02*
X13219142Y-14672548D01*
X13219142Y-14672548D02*
X13200094Y-14682071D01*
X13200094Y-14682071D02*
X13181046Y-14682071D01*
X13181046Y-14682071D02*
X13161999Y-14672548D01*
X13161999Y-14672548D02*
X13152475Y-14663024D01*
X13152475Y-14663024D02*
X13142951Y-14643976D01*
X13142951Y-14643976D02*
X13133427Y-14605881D01*
X13133427Y-14605881D02*
X13133427Y-14558262D01*
X13133427Y-14558262D02*
X13142951Y-14520167D01*
X13142951Y-14520167D02*
X13152475Y-14501119D01*
X13152475Y-14501119D02*
X13161999Y-14491595D01*
X13161999Y-14491595D02*
X13181046Y-14482071D01*
X13333427Y-14663024D02*
X13342951Y-14672548D01*
X13342951Y-14672548D02*
X13333427Y-14682071D01*
X13333427Y-14682071D02*
X13323904Y-14672548D01*
X13323904Y-14672548D02*
X13333427Y-14663024D01*
X13333427Y-14663024D02*
X13333427Y-14682071D01*
X13466761Y-14482071D02*
X13485808Y-14482071D01*
X13485808Y-14482071D02*
X13504856Y-14491595D01*
X13504856Y-14491595D02*
X13514380Y-14501119D01*
X13514380Y-14501119D02*
X13523904Y-14520167D01*
X13523904Y-14520167D02*
X13533427Y-14558262D01*
X13533427Y-14558262D02*
X13533427Y-14605881D01*
X13533427Y-14605881D02*
X13523904Y-14643976D01*
X13523904Y-14643976D02*
X13514380Y-14663024D01*
X13514380Y-14663024D02*
X13504856Y-14672548D01*
X13504856Y-14672548D02*
X13485808Y-14682071D01*
X13485808Y-14682071D02*
X13466761Y-14682071D01*
X13466761Y-14682071D02*
X13447713Y-14672548D01*
X13447713Y-14672548D02*
X13438189Y-14663024D01*
X13438189Y-14663024D02*
X13428665Y-14643976D01*
X13428665Y-14643976D02*
X13419142Y-14605881D01*
X13419142Y-14605881D02*
X13419142Y-14558262D01*
X13419142Y-14558262D02*
X13428665Y-14520167D01*
X13428665Y-14520167D02*
X13438189Y-14501119D01*
X13438189Y-14501119D02*
X13447713Y-14491595D01*
X13447713Y-14491595D02*
X13466761Y-14482071D01*
X13600094Y-14482071D02*
X13723904Y-14482071D01*
X13723904Y-14482071D02*
X13657237Y-14558262D01*
X13657237Y-14558262D02*
X13685808Y-14558262D01*
X13685808Y-14558262D02*
X13704856Y-14567786D01*
X13704856Y-14567786D02*
X13714380Y-14577309D01*
X13714380Y-14577309D02*
X13723904Y-14596357D01*
X13723904Y-14596357D02*
X13723904Y-14643976D01*
X13723904Y-14643976D02*
X13714380Y-14663024D01*
X13714380Y-14663024D02*
X13704856Y-14672548D01*
X13704856Y-14672548D02*
X13685808Y-14682071D01*
X13685808Y-14682071D02*
X13628665Y-14682071D01*
X13628665Y-14682071D02*
X13609618Y-14672548D01*
X13609618Y-14672548D02*
X13600094Y-14663024D01*
X13819142Y-14682071D02*
X13857237Y-14682071D01*
X13857237Y-14682071D02*
X13876285Y-14672548D01*
X13876285Y-14672548D02*
X13885808Y-14663024D01*
X13885808Y-14663024D02*
X13904856Y-14634452D01*
X13904856Y-14634452D02*
X13914380Y-14596357D01*
X13914380Y-14596357D02*
X13914380Y-14520167D01*
X13914380Y-14520167D02*
X13904856Y-14501119D01*
X13904856Y-14501119D02*
X13895332Y-14491595D01*
X13895332Y-14491595D02*
X13876285Y-14482071D01*
X13876285Y-14482071D02*
X13838189Y-14482071D01*
X13838189Y-14482071D02*
X13819142Y-14491595D01*
X13819142Y-14491595D02*
X13809618Y-14501119D01*
X13809618Y-14501119D02*
X13800094Y-14520167D01*
X13800094Y-14520167D02*
X13800094Y-14567786D01*
X13800094Y-14567786D02*
X13809618Y-14586833D01*
X13809618Y-14586833D02*
X13819142Y-14596357D01*
X13819142Y-14596357D02*
X13838189Y-14605881D01*
X13838189Y-14605881D02*
X13876285Y-14605881D01*
X13876285Y-14605881D02*
X13895332Y-14596357D01*
X13895332Y-14596357D02*
X13904856Y-14586833D01*
X13904856Y-14586833D02*
X13914380Y-14567786D01*
X14085808Y-14548738D02*
X14085808Y-14682071D01*
X14038189Y-14472548D02*
X13990570Y-14615405D01*
X13990570Y-14615405D02*
X14114380Y-14615405D01*
X14181046Y-14482071D02*
X14181046Y-14520167D01*
X14257237Y-14482071D02*
X14257237Y-14520167D01*
X14552475Y-14758262D02*
X14542951Y-14748738D01*
X14542951Y-14748738D02*
X14523904Y-14720167D01*
X14523904Y-14720167D02*
X14514380Y-14701119D01*
X14514380Y-14701119D02*
X14504856Y-14672548D01*
X14504856Y-14672548D02*
X14495332Y-14624928D01*
X14495332Y-14624928D02*
X14495332Y-14586833D01*
X14495332Y-14586833D02*
X14504856Y-14539214D01*
X14504856Y-14539214D02*
X14514380Y-14510643D01*
X14514380Y-14510643D02*
X14523904Y-14491595D01*
X14523904Y-14491595D02*
X14542951Y-14463024D01*
X14542951Y-14463024D02*
X14552475Y-14453500D01*
X14714380Y-14482071D02*
X14676285Y-14482071D01*
X14676285Y-14482071D02*
X14657237Y-14491595D01*
X14657237Y-14491595D02*
X14647713Y-14501119D01*
X14647713Y-14501119D02*
X14628666Y-14529690D01*
X14628666Y-14529690D02*
X14619142Y-14567786D01*
X14619142Y-14567786D02*
X14619142Y-14643976D01*
X14619142Y-14643976D02*
X14628666Y-14663024D01*
X14628666Y-14663024D02*
X14638189Y-14672548D01*
X14638189Y-14672548D02*
X14657237Y-14682071D01*
X14657237Y-14682071D02*
X14695332Y-14682071D01*
X14695332Y-14682071D02*
X14714380Y-14672548D01*
X14714380Y-14672548D02*
X14723904Y-14663024D01*
X14723904Y-14663024D02*
X14733427Y-14643976D01*
X14733427Y-14643976D02*
X14733427Y-14596357D01*
X14733427Y-14596357D02*
X14723904Y-14577309D01*
X14723904Y-14577309D02*
X14714380Y-14567786D01*
X14714380Y-14567786D02*
X14695332Y-14558262D01*
X14695332Y-14558262D02*
X14657237Y-14558262D01*
X14657237Y-14558262D02*
X14638189Y-14567786D01*
X14638189Y-14567786D02*
X14628666Y-14577309D01*
X14628666Y-14577309D02*
X14619142Y-14596357D01*
X14847713Y-14567786D02*
X14828666Y-14558262D01*
X14828666Y-14558262D02*
X14819142Y-14548738D01*
X14819142Y-14548738D02*
X14809618Y-14529690D01*
X14809618Y-14529690D02*
X14809618Y-14520167D01*
X14809618Y-14520167D02*
X14819142Y-14501119D01*
X14819142Y-14501119D02*
X14828666Y-14491595D01*
X14828666Y-14491595D02*
X14847713Y-14482071D01*
X14847713Y-14482071D02*
X14885808Y-14482071D01*
X14885808Y-14482071D02*
X14904856Y-14491595D01*
X14904856Y-14491595D02*
X14914380Y-14501119D01*
X14914380Y-14501119D02*
X14923904Y-14520167D01*
X14923904Y-14520167D02*
X14923904Y-14529690D01*
X14923904Y-14529690D02*
X14914380Y-14548738D01*
X14914380Y-14548738D02*
X14904856Y-14558262D01*
X14904856Y-14558262D02*
X14885808Y-14567786D01*
X14885808Y-14567786D02*
X14847713Y-14567786D01*
X14847713Y-14567786D02*
X14828666Y-14577309D01*
X14828666Y-14577309D02*
X14819142Y-14586833D01*
X14819142Y-14586833D02*
X14809618Y-14605881D01*
X14809618Y-14605881D02*
X14809618Y-14643976D01*
X14809618Y-14643976D02*
X14819142Y-14663024D01*
X14819142Y-14663024D02*
X14828666Y-14672548D01*
X14828666Y-14672548D02*
X14847713Y-14682071D01*
X14847713Y-14682071D02*
X14885808Y-14682071D01*
X14885808Y-14682071D02*
X14904856Y-14672548D01*
X14904856Y-14672548D02*
X14914380Y-14663024D01*
X14914380Y-14663024D02*
X14923904Y-14643976D01*
X14923904Y-14643976D02*
X14923904Y-14605881D01*
X14923904Y-14605881D02*
X14914380Y-14586833D01*
X14914380Y-14586833D02*
X14904856Y-14577309D01*
X14904856Y-14577309D02*
X14885808Y-14567786D01*
X15161999Y-14682071D02*
X15161999Y-14482071D01*
X15247713Y-14682071D02*
X15247713Y-14577309D01*
X15247713Y-14577309D02*
X15238189Y-14558262D01*
X15238189Y-14558262D02*
X15219142Y-14548738D01*
X15219142Y-14548738D02*
X15190570Y-14548738D01*
X15190570Y-14548738D02*
X15171523Y-14558262D01*
X15171523Y-14558262D02*
X15161999Y-14567786D01*
X15371523Y-14682071D02*
X15352475Y-14672548D01*
X15352475Y-14672548D02*
X15342951Y-14663024D01*
X15342951Y-14663024D02*
X15333428Y-14643976D01*
X15333428Y-14643976D02*
X15333428Y-14586833D01*
X15333428Y-14586833D02*
X15342951Y-14567786D01*
X15342951Y-14567786D02*
X15352475Y-14558262D01*
X15352475Y-14558262D02*
X15371523Y-14548738D01*
X15371523Y-14548738D02*
X15400094Y-14548738D01*
X15400094Y-14548738D02*
X15419142Y-14558262D01*
X15419142Y-14558262D02*
X15428666Y-14567786D01*
X15428666Y-14567786D02*
X15438189Y-14586833D01*
X15438189Y-14586833D02*
X15438189Y-14643976D01*
X15438189Y-14643976D02*
X15428666Y-14663024D01*
X15428666Y-14663024D02*
X15419142Y-14672548D01*
X15419142Y-14672548D02*
X15400094Y-14682071D01*
X15400094Y-14682071D02*
X15371523Y-14682071D01*
X15552475Y-14682071D02*
X15533428Y-14672548D01*
X15533428Y-14672548D02*
X15523904Y-14653500D01*
X15523904Y-14653500D02*
X15523904Y-14482071D01*
X15704856Y-14672548D02*
X15685809Y-14682071D01*
X15685809Y-14682071D02*
X15647713Y-14682071D01*
X15647713Y-14682071D02*
X15628666Y-14672548D01*
X15628666Y-14672548D02*
X15619142Y-14653500D01*
X15619142Y-14653500D02*
X15619142Y-14577309D01*
X15619142Y-14577309D02*
X15628666Y-14558262D01*
X15628666Y-14558262D02*
X15647713Y-14548738D01*
X15647713Y-14548738D02*
X15685809Y-14548738D01*
X15685809Y-14548738D02*
X15704856Y-14558262D01*
X15704856Y-14558262D02*
X15714380Y-14577309D01*
X15714380Y-14577309D02*
X15714380Y-14596357D01*
X15714380Y-14596357D02*
X15619142Y-14615405D01*
X15790570Y-14672548D02*
X15809618Y-14682071D01*
X15809618Y-14682071D02*
X15847713Y-14682071D01*
X15847713Y-14682071D02*
X15866761Y-14672548D01*
X15866761Y-14672548D02*
X15876285Y-14653500D01*
X15876285Y-14653500D02*
X15876285Y-14643976D01*
X15876285Y-14643976D02*
X15866761Y-14624928D01*
X15866761Y-14624928D02*
X15847713Y-14615405D01*
X15847713Y-14615405D02*
X15819142Y-14615405D01*
X15819142Y-14615405D02*
X15800094Y-14605881D01*
X15800094Y-14605881D02*
X15790570Y-14586833D01*
X15790570Y-14586833D02*
X15790570Y-14577309D01*
X15790570Y-14577309D02*
X15800094Y-14558262D01*
X15800094Y-14558262D02*
X15819142Y-14548738D01*
X15819142Y-14548738D02*
X15847713Y-14548738D01*
X15847713Y-14548738D02*
X15866761Y-14558262D01*
X16114380Y-14605881D02*
X16266761Y-14605881D01*
X16190571Y-14682071D02*
X16190571Y-14529690D01*
X16495332Y-14482071D02*
X16619142Y-14482071D01*
X16619142Y-14482071D02*
X16552475Y-14558262D01*
X16552475Y-14558262D02*
X16581047Y-14558262D01*
X16581047Y-14558262D02*
X16600094Y-14567786D01*
X16600094Y-14567786D02*
X16609618Y-14577309D01*
X16609618Y-14577309D02*
X16619142Y-14596357D01*
X16619142Y-14596357D02*
X16619142Y-14643976D01*
X16619142Y-14643976D02*
X16609618Y-14663024D01*
X16609618Y-14663024D02*
X16600094Y-14672548D01*
X16600094Y-14672548D02*
X16581047Y-14682071D01*
X16581047Y-14682071D02*
X16523904Y-14682071D01*
X16523904Y-14682071D02*
X16504856Y-14672548D01*
X16504856Y-14672548D02*
X16495332Y-14663024D01*
X16847714Y-14672548D02*
X16866761Y-14682071D01*
X16866761Y-14682071D02*
X16904856Y-14682071D01*
X16904856Y-14682071D02*
X16923904Y-14672548D01*
X16923904Y-14672548D02*
X16933428Y-14653500D01*
X16933428Y-14653500D02*
X16933428Y-14643976D01*
X16933428Y-14643976D02*
X16923904Y-14624928D01*
X16923904Y-14624928D02*
X16904856Y-14615405D01*
X16904856Y-14615405D02*
X16876285Y-14615405D01*
X16876285Y-14615405D02*
X16857237Y-14605881D01*
X16857237Y-14605881D02*
X16847714Y-14586833D01*
X16847714Y-14586833D02*
X16847714Y-14577309D01*
X16847714Y-14577309D02*
X16857237Y-14558262D01*
X16857237Y-14558262D02*
X16876285Y-14548738D01*
X16876285Y-14548738D02*
X16904856Y-14548738D01*
X16904856Y-14548738D02*
X16923904Y-14558262D01*
X17047714Y-14682071D02*
X17028666Y-14672548D01*
X17028666Y-14672548D02*
X17019142Y-14653500D01*
X17019142Y-14653500D02*
X17019142Y-14482071D01*
X17152475Y-14682071D02*
X17133428Y-14672548D01*
X17133428Y-14672548D02*
X17123904Y-14663024D01*
X17123904Y-14663024D02*
X17114380Y-14643976D01*
X17114380Y-14643976D02*
X17114380Y-14586833D01*
X17114380Y-14586833D02*
X17123904Y-14567786D01*
X17123904Y-14567786D02*
X17133428Y-14558262D01*
X17133428Y-14558262D02*
X17152475Y-14548738D01*
X17152475Y-14548738D02*
X17181047Y-14548738D01*
X17181047Y-14548738D02*
X17200095Y-14558262D01*
X17200095Y-14558262D02*
X17209618Y-14567786D01*
X17209618Y-14567786D02*
X17219142Y-14586833D01*
X17219142Y-14586833D02*
X17219142Y-14643976D01*
X17219142Y-14643976D02*
X17209618Y-14663024D01*
X17209618Y-14663024D02*
X17200095Y-14672548D01*
X17200095Y-14672548D02*
X17181047Y-14682071D01*
X17181047Y-14682071D02*
X17152475Y-14682071D01*
X17276285Y-14548738D02*
X17352475Y-14548738D01*
X17304856Y-14482071D02*
X17304856Y-14653500D01*
X17304856Y-14653500D02*
X17314380Y-14672548D01*
X17314380Y-14672548D02*
X17333428Y-14682071D01*
X17333428Y-14682071D02*
X17352475Y-14682071D01*
X17409618Y-14672548D02*
X17428666Y-14682071D01*
X17428666Y-14682071D02*
X17466761Y-14682071D01*
X17466761Y-14682071D02*
X17485809Y-14672548D01*
X17485809Y-14672548D02*
X17495333Y-14653500D01*
X17495333Y-14653500D02*
X17495333Y-14643976D01*
X17495333Y-14643976D02*
X17485809Y-14624928D01*
X17485809Y-14624928D02*
X17466761Y-14615405D01*
X17466761Y-14615405D02*
X17438190Y-14615405D01*
X17438190Y-14615405D02*
X17419142Y-14605881D01*
X17419142Y-14605881D02*
X17409618Y-14586833D01*
X17409618Y-14586833D02*
X17409618Y-14577309D01*
X17409618Y-14577309D02*
X17419142Y-14558262D01*
X17419142Y-14558262D02*
X17438190Y-14548738D01*
X17438190Y-14548738D02*
X17466761Y-14548738D01*
X17466761Y-14548738D02*
X17485809Y-14558262D01*
X17561999Y-14758262D02*
X17571523Y-14748738D01*
X17571523Y-14748738D02*
X17590571Y-14720167D01*
X17590571Y-14720167D02*
X17600095Y-14701119D01*
X17600095Y-14701119D02*
X17609618Y-14672548D01*
X17609618Y-14672548D02*
X17619142Y-14624928D01*
X17619142Y-14624928D02*
X17619142Y-14586833D01*
X17619142Y-14586833D02*
X17609618Y-14539214D01*
X17609618Y-14539214D02*
X17600095Y-14510643D01*
X17600095Y-14510643D02*
X17590571Y-14491595D01*
X17590571Y-14491595D02*
X17571523Y-14463024D01*
X17571523Y-14463024D02*
X17561999Y-14453500D01*
D13*
X10955153Y-14908328D02*
X10955153Y-14800847D01*
X10847672Y-14800847D01*
X10847672Y-14908328D01*
X10955153Y-14908328D01*
D11*
X11342951Y-14946071D02*
X11228665Y-14946071D01*
X11285808Y-14946071D02*
X11285808Y-14746071D01*
X11285808Y-14746071D02*
X11266760Y-14774643D01*
X11266760Y-14774643D02*
X11247713Y-14793690D01*
X11247713Y-14793690D02*
X11228665Y-14803214D01*
X11428665Y-14927024D02*
X11438189Y-14936548D01*
X11438189Y-14936548D02*
X11428665Y-14946071D01*
X11428665Y-14946071D02*
X11419141Y-14936548D01*
X11419141Y-14936548D02*
X11428665Y-14927024D01*
X11428665Y-14927024D02*
X11428665Y-14946071D01*
X11619141Y-14746071D02*
X11523903Y-14746071D01*
X11523903Y-14746071D02*
X11514380Y-14841309D01*
X11514380Y-14841309D02*
X11523903Y-14831786D01*
X11523903Y-14831786D02*
X11542951Y-14822262D01*
X11542951Y-14822262D02*
X11590570Y-14822262D01*
X11590570Y-14822262D02*
X11609618Y-14831786D01*
X11609618Y-14831786D02*
X11619141Y-14841309D01*
X11619141Y-14841309D02*
X11628665Y-14860357D01*
X11628665Y-14860357D02*
X11628665Y-14907976D01*
X11628665Y-14907976D02*
X11619141Y-14927024D01*
X11619141Y-14927024D02*
X11609618Y-14936548D01*
X11609618Y-14936548D02*
X11590570Y-14946071D01*
X11590570Y-14946071D02*
X11542951Y-14946071D01*
X11542951Y-14946071D02*
X11523903Y-14936548D01*
X11523903Y-14936548D02*
X11514380Y-14927024D01*
X11704856Y-14765119D02*
X11714380Y-14755595D01*
X11714380Y-14755595D02*
X11733427Y-14746071D01*
X11733427Y-14746071D02*
X11781046Y-14746071D01*
X11781046Y-14746071D02*
X11800094Y-14755595D01*
X11800094Y-14755595D02*
X11809618Y-14765119D01*
X11809618Y-14765119D02*
X11819141Y-14784167D01*
X11819141Y-14784167D02*
X11819141Y-14803214D01*
X11819141Y-14803214D02*
X11809618Y-14831786D01*
X11809618Y-14831786D02*
X11695332Y-14946071D01*
X11695332Y-14946071D02*
X11819141Y-14946071D01*
X11942951Y-14746071D02*
X11961999Y-14746071D01*
X11961999Y-14746071D02*
X11981046Y-14755595D01*
X11981046Y-14755595D02*
X11990570Y-14765119D01*
X11990570Y-14765119D02*
X12000094Y-14784167D01*
X12000094Y-14784167D02*
X12009618Y-14822262D01*
X12009618Y-14822262D02*
X12009618Y-14869881D01*
X12009618Y-14869881D02*
X12000094Y-14907976D01*
X12000094Y-14907976D02*
X11990570Y-14927024D01*
X11990570Y-14927024D02*
X11981046Y-14936548D01*
X11981046Y-14936548D02*
X11961999Y-14946071D01*
X11961999Y-14946071D02*
X11942951Y-14946071D01*
X11942951Y-14946071D02*
X11923903Y-14936548D01*
X11923903Y-14936548D02*
X11914380Y-14927024D01*
X11914380Y-14927024D02*
X11904856Y-14907976D01*
X11904856Y-14907976D02*
X11895332Y-14869881D01*
X11895332Y-14869881D02*
X11895332Y-14822262D01*
X11895332Y-14822262D02*
X11904856Y-14784167D01*
X11904856Y-14784167D02*
X11914380Y-14765119D01*
X11914380Y-14765119D02*
X11923903Y-14755595D01*
X11923903Y-14755595D02*
X11942951Y-14746071D01*
X12095332Y-14946071D02*
X12095332Y-14812738D01*
X12095332Y-14831786D02*
X12104856Y-14822262D01*
X12104856Y-14822262D02*
X12123903Y-14812738D01*
X12123903Y-14812738D02*
X12152475Y-14812738D01*
X12152475Y-14812738D02*
X12171522Y-14822262D01*
X12171522Y-14822262D02*
X12181046Y-14841309D01*
X12181046Y-14841309D02*
X12181046Y-14946071D01*
X12181046Y-14841309D02*
X12190570Y-14822262D01*
X12190570Y-14822262D02*
X12209618Y-14812738D01*
X12209618Y-14812738D02*
X12238189Y-14812738D01*
X12238189Y-14812738D02*
X12257237Y-14822262D01*
X12257237Y-14822262D02*
X12266761Y-14841309D01*
X12266761Y-14841309D02*
X12266761Y-14946071D01*
X12361999Y-14946071D02*
X12361999Y-14812738D01*
X12361999Y-14831786D02*
X12371522Y-14822262D01*
X12371522Y-14822262D02*
X12390570Y-14812738D01*
X12390570Y-14812738D02*
X12419142Y-14812738D01*
X12419142Y-14812738D02*
X12438189Y-14822262D01*
X12438189Y-14822262D02*
X12447713Y-14841309D01*
X12447713Y-14841309D02*
X12447713Y-14946071D01*
X12447713Y-14841309D02*
X12457237Y-14822262D01*
X12457237Y-14822262D02*
X12476284Y-14812738D01*
X12476284Y-14812738D02*
X12504856Y-14812738D01*
X12504856Y-14812738D02*
X12523903Y-14822262D01*
X12523903Y-14822262D02*
X12533427Y-14841309D01*
X12533427Y-14841309D02*
X12533427Y-14946071D01*
X12923903Y-14736548D02*
X12752475Y-14993690D01*
X13181046Y-14746071D02*
X13200094Y-14746071D01*
X13200094Y-14746071D02*
X13219142Y-14755595D01*
X13219142Y-14755595D02*
X13228665Y-14765119D01*
X13228665Y-14765119D02*
X13238189Y-14784167D01*
X13238189Y-14784167D02*
X13247713Y-14822262D01*
X13247713Y-14822262D02*
X13247713Y-14869881D01*
X13247713Y-14869881D02*
X13238189Y-14907976D01*
X13238189Y-14907976D02*
X13228665Y-14927024D01*
X13228665Y-14927024D02*
X13219142Y-14936548D01*
X13219142Y-14936548D02*
X13200094Y-14946071D01*
X13200094Y-14946071D02*
X13181046Y-14946071D01*
X13181046Y-14946071D02*
X13161999Y-14936548D01*
X13161999Y-14936548D02*
X13152475Y-14927024D01*
X13152475Y-14927024D02*
X13142951Y-14907976D01*
X13142951Y-14907976D02*
X13133427Y-14869881D01*
X13133427Y-14869881D02*
X13133427Y-14822262D01*
X13133427Y-14822262D02*
X13142951Y-14784167D01*
X13142951Y-14784167D02*
X13152475Y-14765119D01*
X13152475Y-14765119D02*
X13161999Y-14755595D01*
X13161999Y-14755595D02*
X13181046Y-14746071D01*
X13333427Y-14927024D02*
X13342951Y-14936548D01*
X13342951Y-14936548D02*
X13333427Y-14946071D01*
X13333427Y-14946071D02*
X13323904Y-14936548D01*
X13323904Y-14936548D02*
X13333427Y-14927024D01*
X13333427Y-14927024D02*
X13333427Y-14946071D01*
X13466761Y-14746071D02*
X13485808Y-14746071D01*
X13485808Y-14746071D02*
X13504856Y-14755595D01*
X13504856Y-14755595D02*
X13514380Y-14765119D01*
X13514380Y-14765119D02*
X13523904Y-14784167D01*
X13523904Y-14784167D02*
X13533427Y-14822262D01*
X13533427Y-14822262D02*
X13533427Y-14869881D01*
X13533427Y-14869881D02*
X13523904Y-14907976D01*
X13523904Y-14907976D02*
X13514380Y-14927024D01*
X13514380Y-14927024D02*
X13504856Y-14936548D01*
X13504856Y-14936548D02*
X13485808Y-14946071D01*
X13485808Y-14946071D02*
X13466761Y-14946071D01*
X13466761Y-14946071D02*
X13447713Y-14936548D01*
X13447713Y-14936548D02*
X13438189Y-14927024D01*
X13438189Y-14927024D02*
X13428665Y-14907976D01*
X13428665Y-14907976D02*
X13419142Y-14869881D01*
X13419142Y-14869881D02*
X13419142Y-14822262D01*
X13419142Y-14822262D02*
X13428665Y-14784167D01*
X13428665Y-14784167D02*
X13438189Y-14765119D01*
X13438189Y-14765119D02*
X13447713Y-14755595D01*
X13447713Y-14755595D02*
X13466761Y-14746071D01*
X13714380Y-14746071D02*
X13619142Y-14746071D01*
X13619142Y-14746071D02*
X13609618Y-14841309D01*
X13609618Y-14841309D02*
X13619142Y-14831786D01*
X13619142Y-14831786D02*
X13638189Y-14822262D01*
X13638189Y-14822262D02*
X13685808Y-14822262D01*
X13685808Y-14822262D02*
X13704856Y-14831786D01*
X13704856Y-14831786D02*
X13714380Y-14841309D01*
X13714380Y-14841309D02*
X13723904Y-14860357D01*
X13723904Y-14860357D02*
X13723904Y-14907976D01*
X13723904Y-14907976D02*
X13714380Y-14927024D01*
X13714380Y-14927024D02*
X13704856Y-14936548D01*
X13704856Y-14936548D02*
X13685808Y-14946071D01*
X13685808Y-14946071D02*
X13638189Y-14946071D01*
X13638189Y-14946071D02*
X13619142Y-14936548D01*
X13619142Y-14936548D02*
X13609618Y-14927024D01*
X13819142Y-14946071D02*
X13857237Y-14946071D01*
X13857237Y-14946071D02*
X13876285Y-14936548D01*
X13876285Y-14936548D02*
X13885808Y-14927024D01*
X13885808Y-14927024D02*
X13904856Y-14898452D01*
X13904856Y-14898452D02*
X13914380Y-14860357D01*
X13914380Y-14860357D02*
X13914380Y-14784167D01*
X13914380Y-14784167D02*
X13904856Y-14765119D01*
X13904856Y-14765119D02*
X13895332Y-14755595D01*
X13895332Y-14755595D02*
X13876285Y-14746071D01*
X13876285Y-14746071D02*
X13838189Y-14746071D01*
X13838189Y-14746071D02*
X13819142Y-14755595D01*
X13819142Y-14755595D02*
X13809618Y-14765119D01*
X13809618Y-14765119D02*
X13800094Y-14784167D01*
X13800094Y-14784167D02*
X13800094Y-14831786D01*
X13800094Y-14831786D02*
X13809618Y-14850833D01*
X13809618Y-14850833D02*
X13819142Y-14860357D01*
X13819142Y-14860357D02*
X13838189Y-14869881D01*
X13838189Y-14869881D02*
X13876285Y-14869881D01*
X13876285Y-14869881D02*
X13895332Y-14860357D01*
X13895332Y-14860357D02*
X13904856Y-14850833D01*
X13904856Y-14850833D02*
X13914380Y-14831786D01*
X14028665Y-14831786D02*
X14009618Y-14822262D01*
X14009618Y-14822262D02*
X14000094Y-14812738D01*
X14000094Y-14812738D02*
X13990570Y-14793690D01*
X13990570Y-14793690D02*
X13990570Y-14784167D01*
X13990570Y-14784167D02*
X14000094Y-14765119D01*
X14000094Y-14765119D02*
X14009618Y-14755595D01*
X14009618Y-14755595D02*
X14028665Y-14746071D01*
X14028665Y-14746071D02*
X14066761Y-14746071D01*
X14066761Y-14746071D02*
X14085808Y-14755595D01*
X14085808Y-14755595D02*
X14095332Y-14765119D01*
X14095332Y-14765119D02*
X14104856Y-14784167D01*
X14104856Y-14784167D02*
X14104856Y-14793690D01*
X14104856Y-14793690D02*
X14095332Y-14812738D01*
X14095332Y-14812738D02*
X14085808Y-14822262D01*
X14085808Y-14822262D02*
X14066761Y-14831786D01*
X14066761Y-14831786D02*
X14028665Y-14831786D01*
X14028665Y-14831786D02*
X14009618Y-14841309D01*
X14009618Y-14841309D02*
X14000094Y-14850833D01*
X14000094Y-14850833D02*
X13990570Y-14869881D01*
X13990570Y-14869881D02*
X13990570Y-14907976D01*
X13990570Y-14907976D02*
X14000094Y-14927024D01*
X14000094Y-14927024D02*
X14009618Y-14936548D01*
X14009618Y-14936548D02*
X14028665Y-14946071D01*
X14028665Y-14946071D02*
X14066761Y-14946071D01*
X14066761Y-14946071D02*
X14085808Y-14936548D01*
X14085808Y-14936548D02*
X14095332Y-14927024D01*
X14095332Y-14927024D02*
X14104856Y-14907976D01*
X14104856Y-14907976D02*
X14104856Y-14869881D01*
X14104856Y-14869881D02*
X14095332Y-14850833D01*
X14095332Y-14850833D02*
X14085808Y-14841309D01*
X14085808Y-14841309D02*
X14066761Y-14831786D01*
X14181046Y-14746071D02*
X14181046Y-14784167D01*
X14257237Y-14746071D02*
X14257237Y-14784167D01*
X14552475Y-15022262D02*
X14542951Y-15012738D01*
X14542951Y-15012738D02*
X14523904Y-14984167D01*
X14523904Y-14984167D02*
X14514380Y-14965119D01*
X14514380Y-14965119D02*
X14504856Y-14936548D01*
X14504856Y-14936548D02*
X14495332Y-14888928D01*
X14495332Y-14888928D02*
X14495332Y-14850833D01*
X14495332Y-14850833D02*
X14504856Y-14803214D01*
X14504856Y-14803214D02*
X14514380Y-14774643D01*
X14514380Y-14774643D02*
X14523904Y-14755595D01*
X14523904Y-14755595D02*
X14542951Y-14727024D01*
X14542951Y-14727024D02*
X14552475Y-14717500D01*
X14714380Y-14746071D02*
X14676285Y-14746071D01*
X14676285Y-14746071D02*
X14657237Y-14755595D01*
X14657237Y-14755595D02*
X14647713Y-14765119D01*
X14647713Y-14765119D02*
X14628666Y-14793690D01*
X14628666Y-14793690D02*
X14619142Y-14831786D01*
X14619142Y-14831786D02*
X14619142Y-14907976D01*
X14619142Y-14907976D02*
X14628666Y-14927024D01*
X14628666Y-14927024D02*
X14638189Y-14936548D01*
X14638189Y-14936548D02*
X14657237Y-14946071D01*
X14657237Y-14946071D02*
X14695332Y-14946071D01*
X14695332Y-14946071D02*
X14714380Y-14936548D01*
X14714380Y-14936548D02*
X14723904Y-14927024D01*
X14723904Y-14927024D02*
X14733427Y-14907976D01*
X14733427Y-14907976D02*
X14733427Y-14860357D01*
X14733427Y-14860357D02*
X14723904Y-14841309D01*
X14723904Y-14841309D02*
X14714380Y-14831786D01*
X14714380Y-14831786D02*
X14695332Y-14822262D01*
X14695332Y-14822262D02*
X14657237Y-14822262D01*
X14657237Y-14822262D02*
X14638189Y-14831786D01*
X14638189Y-14831786D02*
X14628666Y-14841309D01*
X14628666Y-14841309D02*
X14619142Y-14860357D01*
X14971523Y-14946071D02*
X14971523Y-14746071D01*
X15057237Y-14946071D02*
X15057237Y-14841309D01*
X15057237Y-14841309D02*
X15047713Y-14822262D01*
X15047713Y-14822262D02*
X15028666Y-14812738D01*
X15028666Y-14812738D02*
X15000094Y-14812738D01*
X15000094Y-14812738D02*
X14981047Y-14822262D01*
X14981047Y-14822262D02*
X14971523Y-14831786D01*
X15181047Y-14946071D02*
X15161999Y-14936548D01*
X15161999Y-14936548D02*
X15152475Y-14927024D01*
X15152475Y-14927024D02*
X15142951Y-14907976D01*
X15142951Y-14907976D02*
X15142951Y-14850833D01*
X15142951Y-14850833D02*
X15152475Y-14831786D01*
X15152475Y-14831786D02*
X15161999Y-14822262D01*
X15161999Y-14822262D02*
X15181047Y-14812738D01*
X15181047Y-14812738D02*
X15209618Y-14812738D01*
X15209618Y-14812738D02*
X15228666Y-14822262D01*
X15228666Y-14822262D02*
X15238189Y-14831786D01*
X15238189Y-14831786D02*
X15247713Y-14850833D01*
X15247713Y-14850833D02*
X15247713Y-14907976D01*
X15247713Y-14907976D02*
X15238189Y-14927024D01*
X15238189Y-14927024D02*
X15228666Y-14936548D01*
X15228666Y-14936548D02*
X15209618Y-14946071D01*
X15209618Y-14946071D02*
X15181047Y-14946071D01*
X15361999Y-14946071D02*
X15342951Y-14936548D01*
X15342951Y-14936548D02*
X15333428Y-14917500D01*
X15333428Y-14917500D02*
X15333428Y-14746071D01*
X15514380Y-14936548D02*
X15495332Y-14946071D01*
X15495332Y-14946071D02*
X15457237Y-14946071D01*
X15457237Y-14946071D02*
X15438189Y-14936548D01*
X15438189Y-14936548D02*
X15428666Y-14917500D01*
X15428666Y-14917500D02*
X15428666Y-14841309D01*
X15428666Y-14841309D02*
X15438189Y-14822262D01*
X15438189Y-14822262D02*
X15457237Y-14812738D01*
X15457237Y-14812738D02*
X15495332Y-14812738D01*
X15495332Y-14812738D02*
X15514380Y-14822262D01*
X15514380Y-14822262D02*
X15523904Y-14841309D01*
X15523904Y-14841309D02*
X15523904Y-14860357D01*
X15523904Y-14860357D02*
X15428666Y-14879405D01*
X15600094Y-14936548D02*
X15619142Y-14946071D01*
X15619142Y-14946071D02*
X15657237Y-14946071D01*
X15657237Y-14946071D02*
X15676285Y-14936548D01*
X15676285Y-14936548D02*
X15685809Y-14917500D01*
X15685809Y-14917500D02*
X15685809Y-14907976D01*
X15685809Y-14907976D02*
X15676285Y-14888928D01*
X15676285Y-14888928D02*
X15657237Y-14879405D01*
X15657237Y-14879405D02*
X15628666Y-14879405D01*
X15628666Y-14879405D02*
X15609618Y-14869881D01*
X15609618Y-14869881D02*
X15600094Y-14850833D01*
X15600094Y-14850833D02*
X15600094Y-14841309D01*
X15600094Y-14841309D02*
X15609618Y-14822262D01*
X15609618Y-14822262D02*
X15628666Y-14812738D01*
X15628666Y-14812738D02*
X15657237Y-14812738D01*
X15657237Y-14812738D02*
X15676285Y-14822262D01*
X15752475Y-15022262D02*
X15761999Y-15012738D01*
X15761999Y-15012738D02*
X15781047Y-14984167D01*
X15781047Y-14984167D02*
X15790570Y-14965119D01*
X15790570Y-14965119D02*
X15800094Y-14936548D01*
X15800094Y-14936548D02*
X15809618Y-14888928D01*
X15809618Y-14888928D02*
X15809618Y-14850833D01*
X15809618Y-14850833D02*
X15800094Y-14803214D01*
X15800094Y-14803214D02*
X15790570Y-14774643D01*
X15790570Y-14774643D02*
X15781047Y-14755595D01*
X15781047Y-14755595D02*
X15761999Y-14727024D01*
X15761999Y-14727024D02*
X15752475Y-14717500D01*
X10877412Y-15226588D02*
X10977412Y-15126588D01*
X10877412Y-15026588D01*
X10777412Y-15126588D01*
X10877412Y-15226588D01*
X11219141Y-15018071D02*
X11342951Y-15018071D01*
X11342951Y-15018071D02*
X11276284Y-15094262D01*
X11276284Y-15094262D02*
X11304856Y-15094262D01*
X11304856Y-15094262D02*
X11323903Y-15103786D01*
X11323903Y-15103786D02*
X11333427Y-15113309D01*
X11333427Y-15113309D02*
X11342951Y-15132357D01*
X11342951Y-15132357D02*
X11342951Y-15179976D01*
X11342951Y-15179976D02*
X11333427Y-15199024D01*
X11333427Y-15199024D02*
X11323903Y-15208548D01*
X11323903Y-15208548D02*
X11304856Y-15218071D01*
X11304856Y-15218071D02*
X11247713Y-15218071D01*
X11247713Y-15218071D02*
X11228665Y-15208548D01*
X11228665Y-15208548D02*
X11219141Y-15199024D01*
X11428665Y-15199024D02*
X11438189Y-15208548D01*
X11438189Y-15208548D02*
X11428665Y-15218071D01*
X11428665Y-15218071D02*
X11419141Y-15208548D01*
X11419141Y-15208548D02*
X11428665Y-15199024D01*
X11428665Y-15199024D02*
X11428665Y-15218071D01*
X11514380Y-15037119D02*
X11523903Y-15027595D01*
X11523903Y-15027595D02*
X11542951Y-15018071D01*
X11542951Y-15018071D02*
X11590570Y-15018071D01*
X11590570Y-15018071D02*
X11609618Y-15027595D01*
X11609618Y-15027595D02*
X11619141Y-15037119D01*
X11619141Y-15037119D02*
X11628665Y-15056167D01*
X11628665Y-15056167D02*
X11628665Y-15075214D01*
X11628665Y-15075214D02*
X11619141Y-15103786D01*
X11619141Y-15103786D02*
X11504856Y-15218071D01*
X11504856Y-15218071D02*
X11628665Y-15218071D01*
X11752475Y-15018071D02*
X11771522Y-15018071D01*
X11771522Y-15018071D02*
X11790570Y-15027595D01*
X11790570Y-15027595D02*
X11800094Y-15037119D01*
X11800094Y-15037119D02*
X11809618Y-15056167D01*
X11809618Y-15056167D02*
X11819141Y-15094262D01*
X11819141Y-15094262D02*
X11819141Y-15141881D01*
X11819141Y-15141881D02*
X11809618Y-15179976D01*
X11809618Y-15179976D02*
X11800094Y-15199024D01*
X11800094Y-15199024D02*
X11790570Y-15208548D01*
X11790570Y-15208548D02*
X11771522Y-15218071D01*
X11771522Y-15218071D02*
X11752475Y-15218071D01*
X11752475Y-15218071D02*
X11733427Y-15208548D01*
X11733427Y-15208548D02*
X11723903Y-15199024D01*
X11723903Y-15199024D02*
X11714380Y-15179976D01*
X11714380Y-15179976D02*
X11704856Y-15141881D01*
X11704856Y-15141881D02*
X11704856Y-15094262D01*
X11704856Y-15094262D02*
X11714380Y-15056167D01*
X11714380Y-15056167D02*
X11723903Y-15037119D01*
X11723903Y-15037119D02*
X11733427Y-15027595D01*
X11733427Y-15027595D02*
X11752475Y-15018071D01*
X11942951Y-15018071D02*
X11961999Y-15018071D01*
X11961999Y-15018071D02*
X11981046Y-15027595D01*
X11981046Y-15027595D02*
X11990570Y-15037119D01*
X11990570Y-15037119D02*
X12000094Y-15056167D01*
X12000094Y-15056167D02*
X12009618Y-15094262D01*
X12009618Y-15094262D02*
X12009618Y-15141881D01*
X12009618Y-15141881D02*
X12000094Y-15179976D01*
X12000094Y-15179976D02*
X11990570Y-15199024D01*
X11990570Y-15199024D02*
X11981046Y-15208548D01*
X11981046Y-15208548D02*
X11961999Y-15218071D01*
X11961999Y-15218071D02*
X11942951Y-15218071D01*
X11942951Y-15218071D02*
X11923903Y-15208548D01*
X11923903Y-15208548D02*
X11914380Y-15199024D01*
X11914380Y-15199024D02*
X11904856Y-15179976D01*
X11904856Y-15179976D02*
X11895332Y-15141881D01*
X11895332Y-15141881D02*
X11895332Y-15094262D01*
X11895332Y-15094262D02*
X11904856Y-15056167D01*
X11904856Y-15056167D02*
X11914380Y-15037119D01*
X11914380Y-15037119D02*
X11923903Y-15027595D01*
X11923903Y-15027595D02*
X11942951Y-15018071D01*
X12095332Y-15218071D02*
X12095332Y-15084738D01*
X12095332Y-15103786D02*
X12104856Y-15094262D01*
X12104856Y-15094262D02*
X12123903Y-15084738D01*
X12123903Y-15084738D02*
X12152475Y-15084738D01*
X12152475Y-15084738D02*
X12171522Y-15094262D01*
X12171522Y-15094262D02*
X12181046Y-15113309D01*
X12181046Y-15113309D02*
X12181046Y-15218071D01*
X12181046Y-15113309D02*
X12190570Y-15094262D01*
X12190570Y-15094262D02*
X12209618Y-15084738D01*
X12209618Y-15084738D02*
X12238189Y-15084738D01*
X12238189Y-15084738D02*
X12257237Y-15094262D01*
X12257237Y-15094262D02*
X12266761Y-15113309D01*
X12266761Y-15113309D02*
X12266761Y-15218071D01*
X12361999Y-15218071D02*
X12361999Y-15084738D01*
X12361999Y-15103786D02*
X12371522Y-15094262D01*
X12371522Y-15094262D02*
X12390570Y-15084738D01*
X12390570Y-15084738D02*
X12419142Y-15084738D01*
X12419142Y-15084738D02*
X12438189Y-15094262D01*
X12438189Y-15094262D02*
X12447713Y-15113309D01*
X12447713Y-15113309D02*
X12447713Y-15218071D01*
X12447713Y-15113309D02*
X12457237Y-15094262D01*
X12457237Y-15094262D02*
X12476284Y-15084738D01*
X12476284Y-15084738D02*
X12504856Y-15084738D01*
X12504856Y-15084738D02*
X12523903Y-15094262D01*
X12523903Y-15094262D02*
X12533427Y-15113309D01*
X12533427Y-15113309D02*
X12533427Y-15218071D01*
X12923903Y-15008548D02*
X12752475Y-15265690D01*
X13181046Y-15018071D02*
X13200094Y-15018071D01*
X13200094Y-15018071D02*
X13219142Y-15027595D01*
X13219142Y-15027595D02*
X13228665Y-15037119D01*
X13228665Y-15037119D02*
X13238189Y-15056167D01*
X13238189Y-15056167D02*
X13247713Y-15094262D01*
X13247713Y-15094262D02*
X13247713Y-15141881D01*
X13247713Y-15141881D02*
X13238189Y-15179976D01*
X13238189Y-15179976D02*
X13228665Y-15199024D01*
X13228665Y-15199024D02*
X13219142Y-15208548D01*
X13219142Y-15208548D02*
X13200094Y-15218071D01*
X13200094Y-15218071D02*
X13181046Y-15218071D01*
X13181046Y-15218071D02*
X13161999Y-15208548D01*
X13161999Y-15208548D02*
X13152475Y-15199024D01*
X13152475Y-15199024D02*
X13142951Y-15179976D01*
X13142951Y-15179976D02*
X13133427Y-15141881D01*
X13133427Y-15141881D02*
X13133427Y-15094262D01*
X13133427Y-15094262D02*
X13142951Y-15056167D01*
X13142951Y-15056167D02*
X13152475Y-15037119D01*
X13152475Y-15037119D02*
X13161999Y-15027595D01*
X13161999Y-15027595D02*
X13181046Y-15018071D01*
X13333427Y-15199024D02*
X13342951Y-15208548D01*
X13342951Y-15208548D02*
X13333427Y-15218071D01*
X13333427Y-15218071D02*
X13323904Y-15208548D01*
X13323904Y-15208548D02*
X13333427Y-15199024D01*
X13333427Y-15199024D02*
X13333427Y-15218071D01*
X13533427Y-15218071D02*
X13419142Y-15218071D01*
X13476284Y-15218071D02*
X13476284Y-15018071D01*
X13476284Y-15018071D02*
X13457237Y-15046643D01*
X13457237Y-15046643D02*
X13438189Y-15065690D01*
X13438189Y-15065690D02*
X13419142Y-15075214D01*
X13609618Y-15037119D02*
X13619142Y-15027595D01*
X13619142Y-15027595D02*
X13638189Y-15018071D01*
X13638189Y-15018071D02*
X13685808Y-15018071D01*
X13685808Y-15018071D02*
X13704856Y-15027595D01*
X13704856Y-15027595D02*
X13714380Y-15037119D01*
X13714380Y-15037119D02*
X13723904Y-15056167D01*
X13723904Y-15056167D02*
X13723904Y-15075214D01*
X13723904Y-15075214D02*
X13714380Y-15103786D01*
X13714380Y-15103786D02*
X13600094Y-15218071D01*
X13600094Y-15218071D02*
X13723904Y-15218071D01*
X13895332Y-15018071D02*
X13857237Y-15018071D01*
X13857237Y-15018071D02*
X13838189Y-15027595D01*
X13838189Y-15027595D02*
X13828665Y-15037119D01*
X13828665Y-15037119D02*
X13809618Y-15065690D01*
X13809618Y-15065690D02*
X13800094Y-15103786D01*
X13800094Y-15103786D02*
X13800094Y-15179976D01*
X13800094Y-15179976D02*
X13809618Y-15199024D01*
X13809618Y-15199024D02*
X13819142Y-15208548D01*
X13819142Y-15208548D02*
X13838189Y-15218071D01*
X13838189Y-15218071D02*
X13876285Y-15218071D01*
X13876285Y-15218071D02*
X13895332Y-15208548D01*
X13895332Y-15208548D02*
X13904856Y-15199024D01*
X13904856Y-15199024D02*
X13914380Y-15179976D01*
X13914380Y-15179976D02*
X13914380Y-15132357D01*
X13914380Y-15132357D02*
X13904856Y-15113309D01*
X13904856Y-15113309D02*
X13895332Y-15103786D01*
X13895332Y-15103786D02*
X13876285Y-15094262D01*
X13876285Y-15094262D02*
X13838189Y-15094262D01*
X13838189Y-15094262D02*
X13819142Y-15103786D01*
X13819142Y-15103786D02*
X13809618Y-15113309D01*
X13809618Y-15113309D02*
X13800094Y-15132357D01*
X14038189Y-15018071D02*
X14057237Y-15018071D01*
X14057237Y-15018071D02*
X14076285Y-15027595D01*
X14076285Y-15027595D02*
X14085808Y-15037119D01*
X14085808Y-15037119D02*
X14095332Y-15056167D01*
X14095332Y-15056167D02*
X14104856Y-15094262D01*
X14104856Y-15094262D02*
X14104856Y-15141881D01*
X14104856Y-15141881D02*
X14095332Y-15179976D01*
X14095332Y-15179976D02*
X14085808Y-15199024D01*
X14085808Y-15199024D02*
X14076285Y-15208548D01*
X14076285Y-15208548D02*
X14057237Y-15218071D01*
X14057237Y-15218071D02*
X14038189Y-15218071D01*
X14038189Y-15218071D02*
X14019142Y-15208548D01*
X14019142Y-15208548D02*
X14009618Y-15199024D01*
X14009618Y-15199024D02*
X14000094Y-15179976D01*
X14000094Y-15179976D02*
X13990570Y-15141881D01*
X13990570Y-15141881D02*
X13990570Y-15094262D01*
X13990570Y-15094262D02*
X14000094Y-15056167D01*
X14000094Y-15056167D02*
X14009618Y-15037119D01*
X14009618Y-15037119D02*
X14019142Y-15027595D01*
X14019142Y-15027595D02*
X14038189Y-15018071D01*
X14181046Y-15018071D02*
X14181046Y-15056167D01*
X14257237Y-15018071D02*
X14257237Y-15056167D01*
X14552475Y-15294262D02*
X14542951Y-15284738D01*
X14542951Y-15284738D02*
X14523904Y-15256167D01*
X14523904Y-15256167D02*
X14514380Y-15237119D01*
X14514380Y-15237119D02*
X14504856Y-15208548D01*
X14504856Y-15208548D02*
X14495332Y-15160928D01*
X14495332Y-15160928D02*
X14495332Y-15122833D01*
X14495332Y-15122833D02*
X14504856Y-15075214D01*
X14504856Y-15075214D02*
X14514380Y-15046643D01*
X14514380Y-15046643D02*
X14523904Y-15027595D01*
X14523904Y-15027595D02*
X14542951Y-14999024D01*
X14542951Y-14999024D02*
X14552475Y-14989500D01*
X14714380Y-15084738D02*
X14714380Y-15218071D01*
X14666761Y-15008548D02*
X14619142Y-15151405D01*
X14619142Y-15151405D02*
X14742951Y-15151405D01*
X14971523Y-15218071D02*
X14971523Y-15018071D01*
X15057237Y-15218071D02*
X15057237Y-15113309D01*
X15057237Y-15113309D02*
X15047713Y-15094262D01*
X15047713Y-15094262D02*
X15028666Y-15084738D01*
X15028666Y-15084738D02*
X15000094Y-15084738D01*
X15000094Y-15084738D02*
X14981047Y-15094262D01*
X14981047Y-15094262D02*
X14971523Y-15103786D01*
X15181047Y-15218071D02*
X15161999Y-15208548D01*
X15161999Y-15208548D02*
X15152475Y-15199024D01*
X15152475Y-15199024D02*
X15142951Y-15179976D01*
X15142951Y-15179976D02*
X15142951Y-15122833D01*
X15142951Y-15122833D02*
X15152475Y-15103786D01*
X15152475Y-15103786D02*
X15161999Y-15094262D01*
X15161999Y-15094262D02*
X15181047Y-15084738D01*
X15181047Y-15084738D02*
X15209618Y-15084738D01*
X15209618Y-15084738D02*
X15228666Y-15094262D01*
X15228666Y-15094262D02*
X15238189Y-15103786D01*
X15238189Y-15103786D02*
X15247713Y-15122833D01*
X15247713Y-15122833D02*
X15247713Y-15179976D01*
X15247713Y-15179976D02*
X15238189Y-15199024D01*
X15238189Y-15199024D02*
X15228666Y-15208548D01*
X15228666Y-15208548D02*
X15209618Y-15218071D01*
X15209618Y-15218071D02*
X15181047Y-15218071D01*
X15361999Y-15218071D02*
X15342951Y-15208548D01*
X15342951Y-15208548D02*
X15333428Y-15189500D01*
X15333428Y-15189500D02*
X15333428Y-15018071D01*
X15514380Y-15208548D02*
X15495332Y-15218071D01*
X15495332Y-15218071D02*
X15457237Y-15218071D01*
X15457237Y-15218071D02*
X15438189Y-15208548D01*
X15438189Y-15208548D02*
X15428666Y-15189500D01*
X15428666Y-15189500D02*
X15428666Y-15113309D01*
X15428666Y-15113309D02*
X15438189Y-15094262D01*
X15438189Y-15094262D02*
X15457237Y-15084738D01*
X15457237Y-15084738D02*
X15495332Y-15084738D01*
X15495332Y-15084738D02*
X15514380Y-15094262D01*
X15514380Y-15094262D02*
X15523904Y-15113309D01*
X15523904Y-15113309D02*
X15523904Y-15132357D01*
X15523904Y-15132357D02*
X15428666Y-15151405D01*
X15600094Y-15208548D02*
X15619142Y-15218071D01*
X15619142Y-15218071D02*
X15657237Y-15218071D01*
X15657237Y-15218071D02*
X15676285Y-15208548D01*
X15676285Y-15208548D02*
X15685809Y-15189500D01*
X15685809Y-15189500D02*
X15685809Y-15179976D01*
X15685809Y-15179976D02*
X15676285Y-15160928D01*
X15676285Y-15160928D02*
X15657237Y-15151405D01*
X15657237Y-15151405D02*
X15628666Y-15151405D01*
X15628666Y-15151405D02*
X15609618Y-15141881D01*
X15609618Y-15141881D02*
X15600094Y-15122833D01*
X15600094Y-15122833D02*
X15600094Y-15113309D01*
X15600094Y-15113309D02*
X15609618Y-15094262D01*
X15609618Y-15094262D02*
X15628666Y-15084738D01*
X15628666Y-15084738D02*
X15657237Y-15084738D01*
X15657237Y-15084738D02*
X15676285Y-15094262D01*
X15752475Y-15294262D02*
X15761999Y-15284738D01*
X15761999Y-15284738D02*
X15781047Y-15256167D01*
X15781047Y-15256167D02*
X15790570Y-15237119D01*
X15790570Y-15237119D02*
X15800094Y-15208548D01*
X15800094Y-15208548D02*
X15809618Y-15160928D01*
X15809618Y-15160928D02*
X15809618Y-15122833D01*
X15809618Y-15122833D02*
X15800094Y-15075214D01*
X15800094Y-15075214D02*
X15790570Y-15046643D01*
X15790570Y-15046643D02*
X15781047Y-15027595D01*
X15781047Y-15027595D02*
X15761999Y-14999024D01*
X15761999Y-14999024D02*
X15752475Y-14989500D01*
X16114380Y-15294262D02*
X16104856Y-15284738D01*
X16104856Y-15284738D02*
X16085809Y-15256167D01*
X16085809Y-15256167D02*
X16076285Y-15237119D01*
X16076285Y-15237119D02*
X16066761Y-15208548D01*
X16066761Y-15208548D02*
X16057237Y-15160928D01*
X16057237Y-15160928D02*
X16057237Y-15122833D01*
X16057237Y-15122833D02*
X16066761Y-15075214D01*
X16066761Y-15075214D02*
X16076285Y-15046643D01*
X16076285Y-15046643D02*
X16085809Y-15027595D01*
X16085809Y-15027595D02*
X16104856Y-14999024D01*
X16104856Y-14999024D02*
X16114380Y-14989500D01*
X16190570Y-15084738D02*
X16190570Y-15218071D01*
X16190570Y-15103786D02*
X16200094Y-15094262D01*
X16200094Y-15094262D02*
X16219142Y-15084738D01*
X16219142Y-15084738D02*
X16247713Y-15084738D01*
X16247713Y-15084738D02*
X16266761Y-15094262D01*
X16266761Y-15094262D02*
X16276285Y-15113309D01*
X16276285Y-15113309D02*
X16276285Y-15218071D01*
X16400094Y-15218071D02*
X16381047Y-15208548D01*
X16381047Y-15208548D02*
X16371523Y-15199024D01*
X16371523Y-15199024D02*
X16361999Y-15179976D01*
X16361999Y-15179976D02*
X16361999Y-15122833D01*
X16361999Y-15122833D02*
X16371523Y-15103786D01*
X16371523Y-15103786D02*
X16381047Y-15094262D01*
X16381047Y-15094262D02*
X16400094Y-15084738D01*
X16400094Y-15084738D02*
X16428666Y-15084738D01*
X16428666Y-15084738D02*
X16447713Y-15094262D01*
X16447713Y-15094262D02*
X16457237Y-15103786D01*
X16457237Y-15103786D02*
X16466761Y-15122833D01*
X16466761Y-15122833D02*
X16466761Y-15179976D01*
X16466761Y-15179976D02*
X16457237Y-15199024D01*
X16457237Y-15199024D02*
X16447713Y-15208548D01*
X16447713Y-15208548D02*
X16428666Y-15218071D01*
X16428666Y-15218071D02*
X16400094Y-15218071D01*
X16523904Y-15084738D02*
X16600094Y-15084738D01*
X16552475Y-15018071D02*
X16552475Y-15189500D01*
X16552475Y-15189500D02*
X16561999Y-15208548D01*
X16561999Y-15208548D02*
X16581047Y-15218071D01*
X16581047Y-15218071D02*
X16600094Y-15218071D01*
X16819142Y-15084738D02*
X16819142Y-15284738D01*
X16819142Y-15094262D02*
X16838190Y-15084738D01*
X16838190Y-15084738D02*
X16876285Y-15084738D01*
X16876285Y-15084738D02*
X16895333Y-15094262D01*
X16895333Y-15094262D02*
X16904856Y-15103786D01*
X16904856Y-15103786D02*
X16914380Y-15122833D01*
X16914380Y-15122833D02*
X16914380Y-15179976D01*
X16914380Y-15179976D02*
X16904856Y-15199024D01*
X16904856Y-15199024D02*
X16895333Y-15208548D01*
X16895333Y-15208548D02*
X16876285Y-15218071D01*
X16876285Y-15218071D02*
X16838190Y-15218071D01*
X16838190Y-15218071D02*
X16819142Y-15208548D01*
X17028666Y-15218071D02*
X17009618Y-15208548D01*
X17009618Y-15208548D02*
X17000094Y-15189500D01*
X17000094Y-15189500D02*
X17000094Y-15018071D01*
X17190571Y-15218071D02*
X17190571Y-15113309D01*
X17190571Y-15113309D02*
X17181047Y-15094262D01*
X17181047Y-15094262D02*
X17161999Y-15084738D01*
X17161999Y-15084738D02*
X17123904Y-15084738D01*
X17123904Y-15084738D02*
X17104856Y-15094262D01*
X17190571Y-15208548D02*
X17171523Y-15218071D01*
X17171523Y-15218071D02*
X17123904Y-15218071D01*
X17123904Y-15218071D02*
X17104856Y-15208548D01*
X17104856Y-15208548D02*
X17095333Y-15189500D01*
X17095333Y-15189500D02*
X17095333Y-15170452D01*
X17095333Y-15170452D02*
X17104856Y-15151405D01*
X17104856Y-15151405D02*
X17123904Y-15141881D01*
X17123904Y-15141881D02*
X17171523Y-15141881D01*
X17171523Y-15141881D02*
X17190571Y-15132357D01*
X17257237Y-15084738D02*
X17333428Y-15084738D01*
X17285809Y-15018071D02*
X17285809Y-15189500D01*
X17285809Y-15189500D02*
X17295333Y-15208548D01*
X17295333Y-15208548D02*
X17314380Y-15218071D01*
X17314380Y-15218071D02*
X17333428Y-15218071D01*
X17476285Y-15208548D02*
X17457237Y-15218071D01*
X17457237Y-15218071D02*
X17419142Y-15218071D01*
X17419142Y-15218071D02*
X17400094Y-15208548D01*
X17400094Y-15208548D02*
X17390571Y-15189500D01*
X17390571Y-15189500D02*
X17390571Y-15113309D01*
X17390571Y-15113309D02*
X17400094Y-15094262D01*
X17400094Y-15094262D02*
X17419142Y-15084738D01*
X17419142Y-15084738D02*
X17457237Y-15084738D01*
X17457237Y-15084738D02*
X17476285Y-15094262D01*
X17476285Y-15094262D02*
X17485809Y-15113309D01*
X17485809Y-15113309D02*
X17485809Y-15132357D01*
X17485809Y-15132357D02*
X17390571Y-15151405D01*
X17657237Y-15218071D02*
X17657237Y-15018071D01*
X17657237Y-15208548D02*
X17638190Y-15218071D01*
X17638190Y-15218071D02*
X17600094Y-15218071D01*
X17600094Y-15218071D02*
X17581047Y-15208548D01*
X17581047Y-15208548D02*
X17571523Y-15199024D01*
X17571523Y-15199024D02*
X17561999Y-15179976D01*
X17561999Y-15179976D02*
X17561999Y-15122833D01*
X17561999Y-15122833D02*
X17571523Y-15103786D01*
X17571523Y-15103786D02*
X17581047Y-15094262D01*
X17581047Y-15094262D02*
X17600094Y-15084738D01*
X17600094Y-15084738D02*
X17638190Y-15084738D01*
X17638190Y-15084738D02*
X17657237Y-15094262D01*
X17733428Y-15294262D02*
X17742952Y-15284738D01*
X17742952Y-15284738D02*
X17761999Y-15256167D01*
X17761999Y-15256167D02*
X17771523Y-15237119D01*
X17771523Y-15237119D02*
X17781047Y-15208548D01*
X17781047Y-15208548D02*
X17790571Y-15160928D01*
X17790571Y-15160928D02*
X17790571Y-15122833D01*
X17790571Y-15122833D02*
X17781047Y-15075214D01*
X17781047Y-15075214D02*
X17771523Y-15046643D01*
X17771523Y-15046643D02*
X17761999Y-15027595D01*
X17761999Y-15027595D02*
X17742952Y-14999024D01*
X17742952Y-14999024D02*
X17733428Y-14989500D01*
M02*
