G04 #@! TF.GenerationSoftware,KiCad,Pcbnew,8.0.4*
G04 #@! TF.CreationDate,2024-07-20T21:58:39+05:30*
G04 #@! TF.ProjectId,OTAPS,4f544150-532e-46b6-9963-61645f706362,1*
G04 #@! TF.SameCoordinates,Original*
G04 #@! TF.FileFunction,Copper,L2,Bot*
G04 #@! TF.FilePolarity,Positive*
%FSLAX46Y46*%
G04 Gerber Fmt 4.6, Leading zero omitted, Abs format (unit mm)*
G04 Created by KiCad (PCBNEW 8.0.4) date 2024-07-20 21:58:39*
%MOMM*%
%LPD*%
G01*
G04 APERTURE LIST*
G04 Aperture macros list*
%AMRoundRect*
0 Rectangle with rounded corners*
0 $1 Rounding radius*
0 $2 $3 $4 $5 $6 $7 $8 $9 X,Y pos of 4 corners*
0 Add a 4 corners polygon primitive as box body*
4,1,4,$2,$3,$4,$5,$6,$7,$8,$9,$2,$3,0*
0 Add four circle primitives for the rounded corners*
1,1,$1+$1,$2,$3*
1,1,$1+$1,$4,$5*
1,1,$1+$1,$6,$7*
1,1,$1+$1,$8,$9*
0 Add four rect primitives between the rounded corners*
20,1,$1+$1,$2,$3,$4,$5,0*
20,1,$1+$1,$4,$5,$6,$7,0*
20,1,$1+$1,$6,$7,$8,$9,0*
20,1,$1+$1,$8,$9,$2,$3,0*%
G04 Aperture macros list end*
G04 #@! TA.AperFunction,ComponentPad*
%ADD10R,2.600000X2.600000*%
G04 #@! TD*
G04 #@! TA.AperFunction,ComponentPad*
%ADD11C,2.600000*%
G04 #@! TD*
G04 #@! TA.AperFunction,ComponentPad*
%ADD12R,1.800000X1.800000*%
G04 #@! TD*
G04 #@! TA.AperFunction,ComponentPad*
%ADD13C,1.800000*%
G04 #@! TD*
G04 #@! TA.AperFunction,ComponentPad*
%ADD14R,1.700000X1.700000*%
G04 #@! TD*
G04 #@! TA.AperFunction,ComponentPad*
%ADD15O,1.700000X1.700000*%
G04 #@! TD*
G04 #@! TA.AperFunction,ComponentPad*
%ADD16R,3.500000X3.500000*%
G04 #@! TD*
G04 #@! TA.AperFunction,ComponentPad*
%ADD17RoundRect,0.750000X-1.000000X0.750000X-1.000000X-0.750000X1.000000X-0.750000X1.000000X0.750000X0*%
G04 #@! TD*
G04 #@! TA.AperFunction,ComponentPad*
%ADD18RoundRect,0.875000X-0.875000X0.875000X-0.875000X-0.875000X0.875000X-0.875000X0.875000X0.875000X0*%
G04 #@! TD*
G04 #@! TA.AperFunction,ComponentPad*
%ADD19R,3.000000X3.000000*%
G04 #@! TD*
G04 #@! TA.AperFunction,ComponentPad*
%ADD20C,3.000000*%
G04 #@! TD*
G04 #@! TA.AperFunction,ComponentPad*
%ADD21O,2.000000X1.200000*%
G04 #@! TD*
G04 #@! TA.AperFunction,ComponentPad*
%ADD22C,1.700000*%
G04 #@! TD*
G04 #@! TA.AperFunction,ViaPad*
%ADD23C,1.000000*%
G04 #@! TD*
G04 #@! TA.AperFunction,ViaPad*
%ADD24C,0.800000*%
G04 #@! TD*
G04 #@! TA.AperFunction,Conductor*
%ADD25C,0.300000*%
G04 #@! TD*
G04 APERTURE END LIST*
D10*
X115055000Y-112000000D03*
D11*
X115055000Y-107000000D03*
X115055000Y-102000000D03*
X115055000Y-97000000D03*
X115055000Y-92000000D03*
X115055000Y-87000000D03*
D12*
X178775000Y-122500000D03*
D13*
X176235000Y-122500000D03*
D12*
X175500000Y-116000000D03*
D13*
X172960000Y-116000000D03*
D14*
X130300000Y-127025000D03*
D15*
X127760000Y-127025000D03*
X125220000Y-127025000D03*
X122680000Y-127025000D03*
D16*
X171900000Y-65400000D03*
D17*
X171900000Y-59400000D03*
D18*
X167200000Y-62400000D03*
D12*
X179725000Y-116000000D03*
D13*
X182265000Y-116000000D03*
D19*
X114750000Y-77750000D03*
D20*
X114750000Y-72670000D03*
X114750000Y-67590000D03*
D12*
X179275000Y-109500000D03*
D13*
X176735000Y-109500000D03*
D21*
X161900000Y-83110000D03*
X161900000Y-85650000D03*
X161900000Y-88190000D03*
X161900000Y-90730000D03*
X161900000Y-93270000D03*
X161900000Y-95810000D03*
X161900000Y-98350000D03*
X161900000Y-100890000D03*
X187000000Y-100890000D03*
X187000000Y-98350000D03*
X187000000Y-95810000D03*
X187000000Y-93270000D03*
X187000000Y-90730000D03*
X187000000Y-88190000D03*
X187000000Y-85650000D03*
X187000000Y-83110000D03*
D14*
X132250000Y-69260000D03*
D22*
X132250000Y-71800000D03*
X132250000Y-74340000D03*
X132250000Y-76880000D03*
X132250000Y-79420000D03*
X132250000Y-81960000D03*
X132250000Y-84500000D03*
X132250000Y-87040000D03*
X132250000Y-89580000D03*
X132250000Y-92120000D03*
X132250000Y-94660000D03*
X132250000Y-97200000D03*
X132250000Y-99740000D03*
X132250000Y-102280000D03*
X132250000Y-104820000D03*
X132250000Y-107360000D03*
X132250000Y-109900000D03*
X132250000Y-112440000D03*
X132250000Y-114980000D03*
X132250000Y-117520000D03*
X147490000Y-117520000D03*
X147490000Y-114980000D03*
X147490000Y-112440000D03*
X147490000Y-109900000D03*
X147490000Y-107360000D03*
X147490000Y-104820000D03*
X147490000Y-102280000D03*
X147490000Y-99740000D03*
X147490000Y-97200000D03*
X147490000Y-94660000D03*
X147490000Y-92120000D03*
X147490000Y-89580000D03*
X147490000Y-87040000D03*
X147490000Y-84500000D03*
X147490000Y-81960000D03*
X147490000Y-79420000D03*
X147490000Y-76880000D03*
X147490000Y-74340000D03*
X147490000Y-71800000D03*
X147490000Y-69260000D03*
D23*
X160500000Y-61000000D03*
X158000000Y-56400000D03*
X155500000Y-61000000D03*
X162600000Y-75800000D03*
D24*
X167750000Y-83250000D03*
X170000000Y-85500000D03*
D23*
X176800000Y-71300000D03*
X178300000Y-70500000D03*
X175000000Y-70500000D03*
X162500000Y-74000000D03*
X165000000Y-76000000D03*
D25*
X167750000Y-83250000D02*
X170000000Y-85500000D01*
G04 #@! TA.AperFunction,Conductor*
G36*
X184909444Y-50799624D02*
G01*
X184934107Y-50799624D01*
X184997438Y-50799624D01*
X185002561Y-50799729D01*
X185424334Y-50817174D01*
X185434507Y-50818017D01*
X185850879Y-50869917D01*
X185860959Y-50871599D01*
X186271611Y-50957704D01*
X186281519Y-50960213D01*
X186683660Y-51079936D01*
X186693328Y-51083256D01*
X187084192Y-51235771D01*
X187093573Y-51239886D01*
X187208851Y-51296242D01*
X187470497Y-51424153D01*
X187479490Y-51429018D01*
X187839939Y-51643799D01*
X187848513Y-51649401D01*
X188189960Y-51893191D01*
X188198047Y-51899485D01*
X188518211Y-52170649D01*
X188525751Y-52177591D01*
X188822408Y-52474248D01*
X188829350Y-52481788D01*
X189100514Y-52801952D01*
X189106808Y-52810039D01*
X189350598Y-53151486D01*
X189356203Y-53160065D01*
X189569714Y-53518384D01*
X189570972Y-53520494D01*
X189575849Y-53529508D01*
X189760113Y-53906426D01*
X189764230Y-53915811D01*
X189916739Y-54306659D01*
X189920067Y-54316352D01*
X190039782Y-54718467D01*
X190042298Y-54728402D01*
X190128397Y-55139026D01*
X190130084Y-55149135D01*
X190181980Y-55565471D01*
X190182826Y-55575685D01*
X190200265Y-55997329D01*
X190200371Y-56002624D01*
X190100478Y-128425399D01*
X190100376Y-128426954D01*
X190100376Y-128497437D01*
X190100270Y-128502561D01*
X190082826Y-128924314D01*
X190081980Y-128934528D01*
X190030084Y-129350864D01*
X190028397Y-129360973D01*
X189942298Y-129771597D01*
X189939782Y-129781532D01*
X189820067Y-130183647D01*
X189816739Y-130193340D01*
X189664230Y-130584188D01*
X189660113Y-130593573D01*
X189475849Y-130970491D01*
X189470972Y-130979505D01*
X189256204Y-131339933D01*
X189250598Y-131348513D01*
X189006808Y-131689960D01*
X189000514Y-131698047D01*
X188729350Y-132018211D01*
X188722408Y-132025751D01*
X188425751Y-132322408D01*
X188418211Y-132329350D01*
X188098047Y-132600514D01*
X188089960Y-132606808D01*
X187748513Y-132850598D01*
X187739933Y-132856204D01*
X187379505Y-133070972D01*
X187370491Y-133075849D01*
X186993573Y-133260113D01*
X186984188Y-133264230D01*
X186593340Y-133416739D01*
X186583647Y-133420067D01*
X186181532Y-133539782D01*
X186171597Y-133542298D01*
X185760973Y-133628397D01*
X185750864Y-133630084D01*
X185334528Y-133681980D01*
X185324314Y-133682826D01*
X184902562Y-133700270D01*
X184897438Y-133700376D01*
X115502562Y-133700376D01*
X115497438Y-133700270D01*
X115075685Y-133682826D01*
X115065471Y-133681980D01*
X114649135Y-133630084D01*
X114639026Y-133628397D01*
X114228402Y-133542298D01*
X114218467Y-133539782D01*
X113816352Y-133420067D01*
X113806659Y-133416739D01*
X113415811Y-133264230D01*
X113406426Y-133260113D01*
X113029508Y-133075849D01*
X113020501Y-133070976D01*
X112660066Y-132856204D01*
X112651486Y-132850598D01*
X112310039Y-132606808D01*
X112301952Y-132600514D01*
X111981788Y-132329350D01*
X111974248Y-132322408D01*
X111677591Y-132025751D01*
X111670649Y-132018211D01*
X111399485Y-131698047D01*
X111393191Y-131689960D01*
X111149401Y-131348513D01*
X111143795Y-131339933D01*
X110929018Y-130979490D01*
X110924150Y-130970491D01*
X110739886Y-130593573D01*
X110735769Y-130584188D01*
X110728110Y-130564560D01*
X110583256Y-130193328D01*
X110579936Y-130183660D01*
X110460213Y-129781519D01*
X110457704Y-129771611D01*
X110371599Y-129360959D01*
X110369917Y-129350879D01*
X110318017Y-128934507D01*
X110317174Y-128924334D01*
X110299730Y-128502561D01*
X110299624Y-128497437D01*
X110299624Y-128409445D01*
X110299623Y-128409439D01*
X110299623Y-128362332D01*
X113399500Y-128362332D01*
X113399500Y-128637667D01*
X113399501Y-128637684D01*
X113435438Y-128910655D01*
X113435439Y-128910660D01*
X113435440Y-128910666D01*
X113441834Y-128934528D01*
X113506704Y-129176630D01*
X113612075Y-129431017D01*
X113612080Y-129431028D01*
X113694861Y-129574407D01*
X113749751Y-129669479D01*
X113749753Y-129669482D01*
X113749754Y-129669483D01*
X113917370Y-129887926D01*
X113917376Y-129887933D01*
X114112066Y-130082623D01*
X114112072Y-130082628D01*
X114330521Y-130250249D01*
X114483778Y-130338732D01*
X114568971Y-130387919D01*
X114568976Y-130387921D01*
X114568979Y-130387923D01*
X114823368Y-130493295D01*
X115089334Y-130564560D01*
X115362326Y-130600500D01*
X115362333Y-130600500D01*
X115637667Y-130600500D01*
X115637674Y-130600500D01*
X115910666Y-130564560D01*
X116176632Y-130493295D01*
X116431021Y-130387923D01*
X116669479Y-130250249D01*
X116887928Y-130082628D01*
X117082628Y-129887928D01*
X117250249Y-129669479D01*
X117387923Y-129431021D01*
X117493295Y-129176632D01*
X117564560Y-128910666D01*
X117600500Y-128637674D01*
X117600500Y-128362326D01*
X117564560Y-128089334D01*
X117493295Y-127823368D01*
X117387923Y-127568979D01*
X117387921Y-127568976D01*
X117387919Y-127568971D01*
X117338732Y-127483778D01*
X117250249Y-127330521D01*
X117082628Y-127112072D01*
X117082623Y-127112066D01*
X116995556Y-127024999D01*
X121324341Y-127024999D01*
X121324341Y-127025000D01*
X121344936Y-127260403D01*
X121344938Y-127260413D01*
X121406094Y-127488655D01*
X121406096Y-127488659D01*
X121406097Y-127488663D01*
X121485801Y-127659588D01*
X121505965Y-127702830D01*
X121505967Y-127702834D01*
X121590367Y-127823368D01*
X121641505Y-127896401D01*
X121808599Y-128063495D01*
X121905384Y-128131265D01*
X122002165Y-128199032D01*
X122002167Y-128199033D01*
X122002170Y-128199035D01*
X122216337Y-128298903D01*
X122444592Y-128360063D01*
X122621034Y-128375500D01*
X122679999Y-128380659D01*
X122680000Y-128380659D01*
X122680001Y-128380659D01*
X122738966Y-128375500D01*
X122915408Y-128360063D01*
X123143663Y-128298903D01*
X123357830Y-128199035D01*
X123551401Y-128063495D01*
X123718495Y-127896401D01*
X123848730Y-127710405D01*
X123903307Y-127666781D01*
X123972805Y-127659587D01*
X124035160Y-127691110D01*
X124051879Y-127710405D01*
X124181890Y-127896078D01*
X124348917Y-128063105D01*
X124542421Y-128198600D01*
X124756507Y-128298429D01*
X124756516Y-128298433D01*
X124970000Y-128355634D01*
X124970000Y-127458012D01*
X125027007Y-127490925D01*
X125154174Y-127525000D01*
X125285826Y-127525000D01*
X125412993Y-127490925D01*
X125470000Y-127458012D01*
X125470000Y-128355633D01*
X125683483Y-128298433D01*
X125683492Y-128298429D01*
X125897578Y-128198600D01*
X126091082Y-128063105D01*
X126258105Y-127896082D01*
X126388119Y-127710405D01*
X126442696Y-127666781D01*
X126512195Y-127659588D01*
X126574549Y-127691110D01*
X126591269Y-127710405D01*
X126721505Y-127896401D01*
X126888599Y-128063495D01*
X126985384Y-128131265D01*
X127082165Y-128199032D01*
X127082167Y-128199033D01*
X127082170Y-128199035D01*
X127296337Y-128298903D01*
X127524592Y-128360063D01*
X127701034Y-128375500D01*
X127759999Y-128380659D01*
X127760000Y-128380659D01*
X127760001Y-128380659D01*
X127818966Y-128375500D01*
X127995408Y-128360063D01*
X128223663Y-128298903D01*
X128437830Y-128199035D01*
X128631401Y-128063495D01*
X128753329Y-127941566D01*
X128814648Y-127908084D01*
X128884340Y-127913068D01*
X128940274Y-127954939D01*
X128957189Y-127985917D01*
X129006202Y-128117328D01*
X129006206Y-128117335D01*
X129092452Y-128232544D01*
X129092455Y-128232547D01*
X129207664Y-128318793D01*
X129207671Y-128318797D01*
X129342517Y-128369091D01*
X129342516Y-128369091D01*
X129349444Y-128369835D01*
X129402127Y-128375500D01*
X131197872Y-128375499D01*
X131257483Y-128369091D01*
X131275605Y-128362332D01*
X182899500Y-128362332D01*
X182899500Y-128637667D01*
X182899501Y-128637684D01*
X182935438Y-128910655D01*
X182935439Y-128910660D01*
X182935440Y-128910666D01*
X182941834Y-128934528D01*
X183006704Y-129176630D01*
X183112075Y-129431017D01*
X183112080Y-129431028D01*
X183194861Y-129574407D01*
X183249751Y-129669479D01*
X183249753Y-129669482D01*
X183249754Y-129669483D01*
X183417370Y-129887926D01*
X183417376Y-129887933D01*
X183612066Y-130082623D01*
X183612072Y-130082628D01*
X183830521Y-130250249D01*
X183983778Y-130338732D01*
X184068971Y-130387919D01*
X184068976Y-130387921D01*
X184068979Y-130387923D01*
X184323368Y-130493295D01*
X184589334Y-130564560D01*
X184862326Y-130600500D01*
X184862333Y-130600500D01*
X185137667Y-130600500D01*
X185137674Y-130600500D01*
X185410666Y-130564560D01*
X185676632Y-130493295D01*
X185931021Y-130387923D01*
X186169479Y-130250249D01*
X186387928Y-130082628D01*
X186582628Y-129887928D01*
X186750249Y-129669479D01*
X186887923Y-129431021D01*
X186993295Y-129176632D01*
X187064560Y-128910666D01*
X187100500Y-128637674D01*
X187100500Y-128362326D01*
X187064560Y-128089334D01*
X186993295Y-127823368D01*
X186887923Y-127568979D01*
X186887921Y-127568976D01*
X186887919Y-127568971D01*
X186838732Y-127483778D01*
X186750249Y-127330521D01*
X186582628Y-127112072D01*
X186582623Y-127112066D01*
X186387933Y-126917376D01*
X186387926Y-126917370D01*
X186169483Y-126749754D01*
X186169482Y-126749753D01*
X186169479Y-126749751D01*
X186074407Y-126694861D01*
X185931028Y-126612080D01*
X185931017Y-126612075D01*
X185676630Y-126506704D01*
X185543649Y-126471072D01*
X185410666Y-126435440D01*
X185410660Y-126435439D01*
X185410655Y-126435438D01*
X185137684Y-126399501D01*
X185137679Y-126399500D01*
X185137674Y-126399500D01*
X184862326Y-126399500D01*
X184862320Y-126399500D01*
X184862315Y-126399501D01*
X184589344Y-126435438D01*
X184589337Y-126435439D01*
X184589334Y-126435440D01*
X184533125Y-126450500D01*
X184323369Y-126506704D01*
X184068982Y-126612075D01*
X184068971Y-126612080D01*
X183830516Y-126749754D01*
X183612073Y-126917370D01*
X183612066Y-126917376D01*
X183417376Y-127112066D01*
X183417370Y-127112073D01*
X183249754Y-127330516D01*
X183112080Y-127568971D01*
X183112075Y-127568982D01*
X183006704Y-127823369D01*
X182935441Y-128089331D01*
X182935438Y-128089344D01*
X182899501Y-128362315D01*
X182899500Y-128362332D01*
X131275605Y-128362332D01*
X131392331Y-128318796D01*
X131507546Y-128232546D01*
X131593796Y-128117331D01*
X131644091Y-127982483D01*
X131650500Y-127922873D01*
X131650499Y-126127128D01*
X131644091Y-126067517D01*
X131642810Y-126064083D01*
X131593797Y-125932671D01*
X131593793Y-125932664D01*
X131507547Y-125817455D01*
X131507544Y-125817452D01*
X131392335Y-125731206D01*
X131392328Y-125731202D01*
X131257482Y-125680908D01*
X131257483Y-125680908D01*
X131197883Y-125674501D01*
X131197881Y-125674500D01*
X131197873Y-125674500D01*
X131197864Y-125674500D01*
X129402129Y-125674500D01*
X129402123Y-125674501D01*
X129342516Y-125680908D01*
X129207671Y-125731202D01*
X129207664Y-125731206D01*
X129092455Y-125817452D01*
X129092452Y-125817455D01*
X129006206Y-125932664D01*
X129006203Y-125932669D01*
X128957189Y-126064083D01*
X128915317Y-126120016D01*
X128849853Y-126144433D01*
X128781580Y-126129581D01*
X128753326Y-126108430D01*
X128631402Y-125986506D01*
X128631395Y-125986501D01*
X128437834Y-125850967D01*
X128437830Y-125850965D01*
X128437828Y-125850964D01*
X128223663Y-125751097D01*
X128223659Y-125751096D01*
X128223655Y-125751094D01*
X127995413Y-125689938D01*
X127995403Y-125689936D01*
X127760001Y-125669341D01*
X127759999Y-125669341D01*
X127524596Y-125689936D01*
X127524586Y-125689938D01*
X127296344Y-125751094D01*
X127296335Y-125751098D01*
X127082171Y-125850964D01*
X127082169Y-125850965D01*
X126888597Y-125986505D01*
X126721508Y-126153594D01*
X126591269Y-126339595D01*
X126536692Y-126383219D01*
X126467193Y-126390412D01*
X126404839Y-126358890D01*
X126388119Y-126339594D01*
X126258113Y-126153926D01*
X126258108Y-126153920D01*
X126091082Y-125986894D01*
X125897578Y-125851399D01*
X125683492Y-125751570D01*
X125683486Y-125751567D01*
X125470000Y-125694364D01*
X125470000Y-126591988D01*
X125412993Y-126559075D01*
X125285826Y-126525000D01*
X125154174Y-126525000D01*
X125027007Y-126559075D01*
X124970000Y-126591988D01*
X124970000Y-125694364D01*
X124969999Y-125694364D01*
X124756513Y-125751567D01*
X124756507Y-125751570D01*
X124542422Y-125851399D01*
X124542420Y-125851400D01*
X124348926Y-125986886D01*
X124348920Y-125986891D01*
X124181891Y-126153920D01*
X124181890Y-126153922D01*
X124051880Y-126339595D01*
X123997303Y-126383219D01*
X123927804Y-126390412D01*
X123865450Y-126358890D01*
X123848730Y-126339594D01*
X123718494Y-126153597D01*
X123551402Y-125986506D01*
X123551395Y-125986501D01*
X123357834Y-125850967D01*
X123357830Y-125850965D01*
X123357828Y-125850964D01*
X123143663Y-125751097D01*
X123143659Y-125751096D01*
X123143655Y-125751094D01*
X122915413Y-125689938D01*
X122915403Y-125689936D01*
X122680001Y-125669341D01*
X122679999Y-125669341D01*
X122444596Y-125689936D01*
X122444586Y-125689938D01*
X122216344Y-125751094D01*
X122216335Y-125751098D01*
X122002171Y-125850964D01*
X122002169Y-125850965D01*
X121808597Y-125986505D01*
X121641505Y-126153597D01*
X121505965Y-126347169D01*
X121505964Y-126347171D01*
X121406098Y-126561335D01*
X121406094Y-126561344D01*
X121344938Y-126789586D01*
X121344936Y-126789596D01*
X121324341Y-127024999D01*
X116995556Y-127024999D01*
X116887933Y-126917376D01*
X116887926Y-126917370D01*
X116669483Y-126749754D01*
X116669482Y-126749753D01*
X116669479Y-126749751D01*
X116574407Y-126694861D01*
X116431028Y-126612080D01*
X116431017Y-126612075D01*
X116176630Y-126506704D01*
X116043649Y-126471072D01*
X115910666Y-126435440D01*
X115910660Y-126435439D01*
X115910655Y-126435438D01*
X115637684Y-126399501D01*
X115637679Y-126399500D01*
X115637674Y-126399500D01*
X115362326Y-126399500D01*
X115362320Y-126399500D01*
X115362315Y-126399501D01*
X115089344Y-126435438D01*
X115089337Y-126435439D01*
X115089334Y-126435440D01*
X115033125Y-126450500D01*
X114823369Y-126506704D01*
X114568982Y-126612075D01*
X114568971Y-126612080D01*
X114330516Y-126749754D01*
X114112073Y-126917370D01*
X114112066Y-126917376D01*
X113917376Y-127112066D01*
X113917370Y-127112073D01*
X113749754Y-127330516D01*
X113612080Y-127568971D01*
X113612075Y-127568982D01*
X113506704Y-127823369D01*
X113435441Y-128089331D01*
X113435438Y-128089344D01*
X113399501Y-128362315D01*
X113399500Y-128362332D01*
X110299623Y-128362332D01*
X110299623Y-122499993D01*
X174829700Y-122499993D01*
X174829700Y-122500006D01*
X174848864Y-122731297D01*
X174848866Y-122731308D01*
X174905842Y-122956300D01*
X174999075Y-123168848D01*
X175126016Y-123363147D01*
X175126019Y-123363151D01*
X175126021Y-123363153D01*
X175283216Y-123533913D01*
X175283219Y-123533915D01*
X175283222Y-123533918D01*
X175466365Y-123676464D01*
X175466371Y-123676468D01*
X175466374Y-123676470D01*
X175670497Y-123786936D01*
X175784487Y-123826068D01*
X175890015Y-123862297D01*
X175890017Y-123862297D01*
X175890019Y-123862298D01*
X176118951Y-123900500D01*
X176118952Y-123900500D01*
X176351048Y-123900500D01*
X176351049Y-123900500D01*
X176579981Y-123862298D01*
X176799503Y-123786936D01*
X177003626Y-123676470D01*
X177186784Y-123533913D01*
X177195511Y-123524432D01*
X177255394Y-123488441D01*
X177325232Y-123490538D01*
X177382850Y-123530060D01*
X177402924Y-123565080D01*
X177431645Y-123642086D01*
X177431649Y-123642093D01*
X177517809Y-123757187D01*
X177517812Y-123757190D01*
X177632906Y-123843350D01*
X177632913Y-123843354D01*
X177767620Y-123893596D01*
X177767627Y-123893598D01*
X177827155Y-123899999D01*
X177827172Y-123900000D01*
X178525000Y-123900000D01*
X178525000Y-122875277D01*
X178601306Y-122919333D01*
X178715756Y-122950000D01*
X178834244Y-122950000D01*
X178948694Y-122919333D01*
X179025000Y-122875277D01*
X179025000Y-123900000D01*
X179722828Y-123900000D01*
X179722844Y-123899999D01*
X179782372Y-123893598D01*
X179782379Y-123893596D01*
X179917086Y-123843354D01*
X179917093Y-123843350D01*
X180032187Y-123757190D01*
X180032190Y-123757187D01*
X180118350Y-123642093D01*
X180118354Y-123642086D01*
X180168596Y-123507379D01*
X180168598Y-123507372D01*
X180174999Y-123447844D01*
X180175000Y-123447827D01*
X180175000Y-122750000D01*
X179150278Y-122750000D01*
X179194333Y-122673694D01*
X179225000Y-122559244D01*
X179225000Y-122440756D01*
X179194333Y-122326306D01*
X179150278Y-122250000D01*
X180175000Y-122250000D01*
X180175000Y-121552172D01*
X180174999Y-121552155D01*
X180168598Y-121492627D01*
X180168596Y-121492620D01*
X180118354Y-121357913D01*
X180118350Y-121357906D01*
X180032190Y-121242812D01*
X180032187Y-121242809D01*
X179917093Y-121156649D01*
X179917086Y-121156645D01*
X179782379Y-121106403D01*
X179782372Y-121106401D01*
X179722844Y-121100000D01*
X179025000Y-121100000D01*
X179025000Y-122124722D01*
X178948694Y-122080667D01*
X178834244Y-122050000D01*
X178715756Y-122050000D01*
X178601306Y-122080667D01*
X178525000Y-122124722D01*
X178525000Y-121100000D01*
X177827155Y-121100000D01*
X177767627Y-121106401D01*
X177767620Y-121106403D01*
X177632913Y-121156645D01*
X177632906Y-121156649D01*
X177517812Y-121242809D01*
X177517809Y-121242812D01*
X177431649Y-121357906D01*
X177431646Y-121357911D01*
X177402924Y-121434920D01*
X177361052Y-121490853D01*
X177295588Y-121515270D01*
X177227315Y-121500418D01*
X177195514Y-121475571D01*
X177186784Y-121466087D01*
X177186779Y-121466083D01*
X177186777Y-121466081D01*
X177003634Y-121323535D01*
X177003628Y-121323531D01*
X176799504Y-121213064D01*
X176799495Y-121213061D01*
X176579984Y-121137702D01*
X176392404Y-121106401D01*
X176351049Y-121099500D01*
X176118951Y-121099500D01*
X176077596Y-121106401D01*
X175890015Y-121137702D01*
X175670504Y-121213061D01*
X175670495Y-121213064D01*
X175466371Y-121323531D01*
X175466365Y-121323535D01*
X175283222Y-121466081D01*
X175283219Y-121466084D01*
X175283216Y-121466086D01*
X175283216Y-121466087D01*
X175258791Y-121492620D01*
X175126016Y-121636852D01*
X174999075Y-121831151D01*
X174905842Y-122043699D01*
X174848866Y-122268691D01*
X174848864Y-122268702D01*
X174829700Y-122499993D01*
X110299623Y-122499993D01*
X110299623Y-110652135D01*
X113254500Y-110652135D01*
X113254500Y-113347870D01*
X113254501Y-113347876D01*
X113260908Y-113407483D01*
X113311202Y-113542328D01*
X113311206Y-113542335D01*
X113397452Y-113657544D01*
X113397455Y-113657547D01*
X113512664Y-113743793D01*
X113512671Y-113743797D01*
X113647517Y-113794091D01*
X113647516Y-113794091D01*
X113654444Y-113794835D01*
X113707127Y-113800500D01*
X116402872Y-113800499D01*
X116462483Y-113794091D01*
X116597331Y-113743796D01*
X116712546Y-113657546D01*
X116798796Y-113542331D01*
X116849091Y-113407483D01*
X116855500Y-113347873D01*
X116855499Y-110652128D01*
X116849091Y-110592517D01*
X116811055Y-110490538D01*
X116798797Y-110457671D01*
X116798793Y-110457664D01*
X116712547Y-110342455D01*
X116712544Y-110342452D01*
X116597335Y-110256206D01*
X116597328Y-110256202D01*
X116462482Y-110205908D01*
X116462483Y-110205908D01*
X116402883Y-110199501D01*
X116402881Y-110199500D01*
X116402873Y-110199500D01*
X116402864Y-110199500D01*
X113707129Y-110199500D01*
X113707123Y-110199501D01*
X113647516Y-110205908D01*
X113512671Y-110256202D01*
X113512664Y-110256206D01*
X113397455Y-110342452D01*
X113397452Y-110342455D01*
X113311206Y-110457664D01*
X113311202Y-110457671D01*
X113260908Y-110592517D01*
X113254501Y-110652116D01*
X113254501Y-110652123D01*
X113254500Y-110652135D01*
X110299623Y-110652135D01*
X110299623Y-106999995D01*
X113249953Y-106999995D01*
X113249953Y-107000004D01*
X113270113Y-107269026D01*
X113270113Y-107269028D01*
X113330142Y-107532033D01*
X113330148Y-107532052D01*
X113428709Y-107783181D01*
X113428708Y-107783181D01*
X113563602Y-108016822D01*
X113617294Y-108084151D01*
X113617295Y-108084151D01*
X114453958Y-107247488D01*
X114478978Y-107307890D01*
X114550112Y-107414351D01*
X114640649Y-107504888D01*
X114747110Y-107576022D01*
X114807510Y-107601041D01*
X113969848Y-108438702D01*
X114152483Y-108563220D01*
X114152485Y-108563221D01*
X114395539Y-108680269D01*
X114395537Y-108680269D01*
X114653337Y-108759790D01*
X114653343Y-108759792D01*
X114920101Y-108799999D01*
X114920110Y-108800000D01*
X115189890Y-108800000D01*
X115189898Y-108799999D01*
X115456656Y-108759792D01*
X115456662Y-108759790D01*
X115714461Y-108680269D01*
X115957521Y-108563218D01*
X116140150Y-108438702D01*
X115302488Y-107601041D01*
X115362890Y-107576022D01*
X115469351Y-107504888D01*
X115559888Y-107414351D01*
X115631022Y-107307890D01*
X115656041Y-107247488D01*
X116492703Y-108084151D01*
X116492704Y-108084150D01*
X116546393Y-108016828D01*
X116546400Y-108016817D01*
X116681290Y-107783181D01*
X116779851Y-107532052D01*
X116779857Y-107532033D01*
X116839886Y-107269028D01*
X116839886Y-107269026D01*
X116860047Y-107000004D01*
X116860047Y-106999995D01*
X116839886Y-106730973D01*
X116839886Y-106730971D01*
X116779857Y-106467966D01*
X116779851Y-106467947D01*
X116681290Y-106216818D01*
X116681291Y-106216818D01*
X116546397Y-105983177D01*
X116492704Y-105915847D01*
X115656041Y-106752510D01*
X115631022Y-106692110D01*
X115559888Y-106585649D01*
X115469351Y-106495112D01*
X115362890Y-106423978D01*
X115302488Y-106398958D01*
X116140150Y-105561296D01*
X115957517Y-105436779D01*
X115957516Y-105436778D01*
X115714460Y-105319730D01*
X115714462Y-105319730D01*
X115456662Y-105240209D01*
X115456656Y-105240207D01*
X115189898Y-105200000D01*
X114920101Y-105200000D01*
X114653343Y-105240207D01*
X114653337Y-105240209D01*
X114395538Y-105319730D01*
X114152485Y-105436778D01*
X114152476Y-105436783D01*
X113969848Y-105561296D01*
X114807511Y-106398958D01*
X114747110Y-106423978D01*
X114640649Y-106495112D01*
X114550112Y-106585649D01*
X114478978Y-106692110D01*
X114453958Y-106752511D01*
X113617295Y-105915848D01*
X113563600Y-105983180D01*
X113428709Y-106216818D01*
X113330148Y-106467947D01*
X113330142Y-106467966D01*
X113270113Y-106730971D01*
X113270113Y-106730973D01*
X113249953Y-106999995D01*
X110299623Y-106999995D01*
X110299623Y-101999995D01*
X113249451Y-101999995D01*
X113249451Y-102000004D01*
X113269616Y-102269101D01*
X113329664Y-102532188D01*
X113329666Y-102532195D01*
X113428257Y-102783398D01*
X113563185Y-103017102D01*
X113670281Y-103151395D01*
X113731442Y-103228089D01*
X113918183Y-103401358D01*
X113929259Y-103411635D01*
X114152226Y-103563651D01*
X114395359Y-103680738D01*
X114653228Y-103760280D01*
X114653229Y-103760280D01*
X114653232Y-103760281D01*
X114920063Y-103800499D01*
X114920068Y-103800499D01*
X114920071Y-103800500D01*
X114920072Y-103800500D01*
X115189928Y-103800500D01*
X115189929Y-103800500D01*
X115189936Y-103800499D01*
X115456767Y-103760281D01*
X115456768Y-103760280D01*
X115456772Y-103760280D01*
X115714641Y-103680738D01*
X115957775Y-103563651D01*
X116180741Y-103411635D01*
X116378561Y-103228085D01*
X116546815Y-103017102D01*
X116681743Y-102783398D01*
X116780334Y-102532195D01*
X116840383Y-102269103D01*
X116857207Y-102044596D01*
X116860549Y-102000004D01*
X116860549Y-101999995D01*
X116840383Y-101730898D01*
X116840383Y-101730897D01*
X116780334Y-101467805D01*
X116681743Y-101216602D01*
X116546815Y-100982898D01*
X116378561Y-100771915D01*
X116378560Y-100771914D01*
X116378557Y-100771910D01*
X116180741Y-100588365D01*
X116104591Y-100536447D01*
X115957775Y-100436349D01*
X115957769Y-100436346D01*
X115957768Y-100436345D01*
X115957767Y-100436344D01*
X115714643Y-100319263D01*
X115714645Y-100319263D01*
X115456773Y-100239720D01*
X115456767Y-100239718D01*
X115189936Y-100199500D01*
X115189929Y-100199500D01*
X114920071Y-100199500D01*
X114920063Y-100199500D01*
X114653232Y-100239718D01*
X114653226Y-100239720D01*
X114395358Y-100319262D01*
X114152230Y-100436346D01*
X113929258Y-100588365D01*
X113731442Y-100771910D01*
X113563185Y-100982898D01*
X113428258Y-101216599D01*
X113428256Y-101216603D01*
X113329666Y-101467804D01*
X113329664Y-101467811D01*
X113269616Y-101730898D01*
X113249451Y-101999995D01*
X110299623Y-101999995D01*
X110299623Y-96999995D01*
X113249451Y-96999995D01*
X113249451Y-97000004D01*
X113269616Y-97269101D01*
X113329664Y-97532188D01*
X113329666Y-97532195D01*
X113369256Y-97633069D01*
X113428257Y-97783398D01*
X113563185Y-98017102D01*
X113699080Y-98187509D01*
X113731442Y-98228089D01*
X113918183Y-98401358D01*
X113929259Y-98411635D01*
X114152226Y-98563651D01*
X114395359Y-98680738D01*
X114653228Y-98760280D01*
X114653229Y-98760280D01*
X114653232Y-98760281D01*
X114920063Y-98800499D01*
X114920068Y-98800499D01*
X114920071Y-98800500D01*
X114920072Y-98800500D01*
X115189928Y-98800500D01*
X115189929Y-98800500D01*
X115189936Y-98800499D01*
X115456767Y-98760281D01*
X115456768Y-98760280D01*
X115456772Y-98760280D01*
X115714641Y-98680738D01*
X115957775Y-98563651D01*
X116180741Y-98411635D01*
X116340512Y-98263389D01*
X116378557Y-98228089D01*
X116378557Y-98228087D01*
X116378561Y-98228085D01*
X116546815Y-98017102D01*
X116681743Y-97783398D01*
X116780334Y-97532195D01*
X116840383Y-97269103D01*
X116860549Y-97000000D01*
X116851811Y-96883402D01*
X116840791Y-96736337D01*
X116840383Y-96730897D01*
X116780334Y-96467805D01*
X116681743Y-96216602D01*
X116546815Y-95982898D01*
X116378561Y-95771915D01*
X116378560Y-95771914D01*
X116378557Y-95771910D01*
X116180741Y-95588365D01*
X116127842Y-95552299D01*
X115957775Y-95436349D01*
X115957769Y-95436346D01*
X115957768Y-95436345D01*
X115957767Y-95436344D01*
X115714643Y-95319263D01*
X115714645Y-95319263D01*
X115456773Y-95239720D01*
X115456767Y-95239718D01*
X115189936Y-95199500D01*
X115189929Y-95199500D01*
X114920071Y-95199500D01*
X114920063Y-95199500D01*
X114653232Y-95239718D01*
X114653226Y-95239720D01*
X114395358Y-95319262D01*
X114152230Y-95436346D01*
X113929258Y-95588365D01*
X113731442Y-95771910D01*
X113563185Y-95982898D01*
X113428258Y-96216599D01*
X113428256Y-96216603D01*
X113329666Y-96467804D01*
X113329664Y-96467811D01*
X113269616Y-96730898D01*
X113249451Y-96999995D01*
X110299623Y-96999995D01*
X110299623Y-91999995D01*
X113249953Y-91999995D01*
X113249953Y-92000004D01*
X113270113Y-92269026D01*
X113270113Y-92269028D01*
X113330142Y-92532033D01*
X113330148Y-92532052D01*
X113428709Y-92783181D01*
X113428708Y-92783181D01*
X113563602Y-93016822D01*
X113617294Y-93084151D01*
X113617295Y-93084151D01*
X114453958Y-92247488D01*
X114478978Y-92307890D01*
X114550112Y-92414351D01*
X114640649Y-92504888D01*
X114747110Y-92576022D01*
X114807510Y-92601041D01*
X113969848Y-93438702D01*
X114152483Y-93563220D01*
X114152485Y-93563221D01*
X114395539Y-93680269D01*
X114395537Y-93680269D01*
X114653337Y-93759790D01*
X114653343Y-93759792D01*
X114920101Y-93799999D01*
X114920110Y-93800000D01*
X115189890Y-93800000D01*
X115189898Y-93799999D01*
X115456656Y-93759792D01*
X115456662Y-93759790D01*
X115714461Y-93680269D01*
X115957521Y-93563218D01*
X116140150Y-93438702D01*
X115302488Y-92601041D01*
X115362890Y-92576022D01*
X115469351Y-92504888D01*
X115559888Y-92414351D01*
X115631022Y-92307890D01*
X115656041Y-92247488D01*
X116492703Y-93084151D01*
X116492704Y-93084150D01*
X116546393Y-93016828D01*
X116546400Y-93016817D01*
X116681290Y-92783181D01*
X116779851Y-92532052D01*
X116779857Y-92532033D01*
X116839886Y-92269028D01*
X116839886Y-92269026D01*
X116860047Y-92000004D01*
X116860047Y-91999995D01*
X116839886Y-91730973D01*
X116839886Y-91730971D01*
X116779857Y-91467966D01*
X116779851Y-91467947D01*
X116681290Y-91216818D01*
X116681291Y-91216818D01*
X116546397Y-90983177D01*
X116492704Y-90915847D01*
X115656041Y-91752510D01*
X115631022Y-91692110D01*
X115559888Y-91585649D01*
X115469351Y-91495112D01*
X115362890Y-91423978D01*
X115302488Y-91398958D01*
X116140150Y-90561296D01*
X115957517Y-90436779D01*
X115957516Y-90436778D01*
X115714460Y-90319730D01*
X115714462Y-90319730D01*
X115456662Y-90240209D01*
X115456656Y-90240207D01*
X115189898Y-90200000D01*
X114920101Y-90200000D01*
X114653343Y-90240207D01*
X114653337Y-90240209D01*
X114395538Y-90319730D01*
X114152485Y-90436778D01*
X114152476Y-90436783D01*
X113969848Y-90561296D01*
X114807511Y-91398958D01*
X114747110Y-91423978D01*
X114640649Y-91495112D01*
X114550112Y-91585649D01*
X114478978Y-91692110D01*
X114453958Y-91752511D01*
X113617295Y-90915848D01*
X113563600Y-90983180D01*
X113428709Y-91216818D01*
X113330148Y-91467947D01*
X113330142Y-91467966D01*
X113270113Y-91730971D01*
X113270113Y-91730973D01*
X113249953Y-91999995D01*
X110299623Y-91999995D01*
X110299623Y-86999995D01*
X113249451Y-86999995D01*
X113249451Y-87000004D01*
X113269616Y-87269101D01*
X113323154Y-87503664D01*
X113329666Y-87532195D01*
X113428257Y-87783398D01*
X113563185Y-88017102D01*
X113612147Y-88078498D01*
X113731442Y-88228089D01*
X113870374Y-88356998D01*
X113929259Y-88411635D01*
X114152226Y-88563651D01*
X114395359Y-88680738D01*
X114653228Y-88760280D01*
X114653229Y-88760280D01*
X114653232Y-88760281D01*
X114920063Y-88800499D01*
X114920068Y-88800499D01*
X114920071Y-88800500D01*
X114920072Y-88800500D01*
X115189928Y-88800500D01*
X115189929Y-88800500D01*
X115189936Y-88800499D01*
X115456767Y-88760281D01*
X115456768Y-88760280D01*
X115456772Y-88760280D01*
X115714641Y-88680738D01*
X115957775Y-88563651D01*
X116180741Y-88411635D01*
X116378561Y-88228085D01*
X116546815Y-88017102D01*
X116681743Y-87783398D01*
X116780334Y-87532195D01*
X116840383Y-87269103D01*
X116847800Y-87170127D01*
X116860549Y-87000004D01*
X116860549Y-86999995D01*
X116841852Y-86750500D01*
X116840383Y-86730897D01*
X116780334Y-86467805D01*
X116681743Y-86216602D01*
X116546815Y-85982898D01*
X116378561Y-85771915D01*
X116378560Y-85771914D01*
X116378557Y-85771910D01*
X116180741Y-85588365D01*
X116138926Y-85559856D01*
X115957775Y-85436349D01*
X115957769Y-85436346D01*
X115957768Y-85436345D01*
X115957767Y-85436344D01*
X115714643Y-85319263D01*
X115714645Y-85319263D01*
X115456773Y-85239720D01*
X115456767Y-85239718D01*
X115189936Y-85199500D01*
X115189929Y-85199500D01*
X114920071Y-85199500D01*
X114920063Y-85199500D01*
X114653232Y-85239718D01*
X114653226Y-85239720D01*
X114395358Y-85319262D01*
X114152230Y-85436346D01*
X113929258Y-85588365D01*
X113731442Y-85771910D01*
X113563185Y-85982898D01*
X113428258Y-86216599D01*
X113428256Y-86216603D01*
X113329666Y-86467804D01*
X113329664Y-86467811D01*
X113269616Y-86730898D01*
X113249451Y-86999995D01*
X110299623Y-86999995D01*
X110299623Y-76202135D01*
X112749500Y-76202135D01*
X112749500Y-79297870D01*
X112749501Y-79297876D01*
X112755908Y-79357483D01*
X112806202Y-79492328D01*
X112806206Y-79492335D01*
X112892452Y-79607544D01*
X112892455Y-79607547D01*
X113007664Y-79693793D01*
X113007671Y-79693797D01*
X113142517Y-79744091D01*
X113142516Y-79744091D01*
X113149444Y-79744835D01*
X113202127Y-79750500D01*
X116297872Y-79750499D01*
X116357483Y-79744091D01*
X116492331Y-79693796D01*
X116607546Y-79607546D01*
X116693796Y-79492331D01*
X116744091Y-79357483D01*
X116750500Y-79297873D01*
X116750499Y-76202128D01*
X116744091Y-76142517D01*
X116693796Y-76007669D01*
X116693795Y-76007668D01*
X116693793Y-76007664D01*
X116607547Y-75892455D01*
X116607544Y-75892452D01*
X116492335Y-75806206D01*
X116492328Y-75806202D01*
X116357482Y-75755908D01*
X116357483Y-75755908D01*
X116297883Y-75749501D01*
X116297881Y-75749500D01*
X116297873Y-75749500D01*
X116297864Y-75749500D01*
X113202129Y-75749500D01*
X113202123Y-75749501D01*
X113142516Y-75755908D01*
X113007671Y-75806202D01*
X113007664Y-75806206D01*
X112892455Y-75892452D01*
X112892452Y-75892455D01*
X112806206Y-76007664D01*
X112806202Y-76007671D01*
X112755908Y-76142517D01*
X112749501Y-76202116D01*
X112749501Y-76202123D01*
X112749500Y-76202135D01*
X110299623Y-76202135D01*
X110299623Y-72669998D01*
X112744891Y-72669998D01*
X112744891Y-72670001D01*
X112765300Y-72955362D01*
X112826109Y-73234895D01*
X112926091Y-73502958D01*
X113063191Y-73754038D01*
X113063196Y-73754046D01*
X113169882Y-73896561D01*
X113169883Y-73896562D01*
X114064767Y-73001677D01*
X114076497Y-73029995D01*
X114159670Y-73154472D01*
X114265528Y-73260330D01*
X114390005Y-73343503D01*
X114418320Y-73355231D01*
X113523436Y-74250115D01*
X113665960Y-74356807D01*
X113665961Y-74356808D01*
X113917042Y-74493908D01*
X113917041Y-74493908D01*
X114185104Y-74593890D01*
X114464637Y-74654699D01*
X114749999Y-74675109D01*
X114750001Y-74675109D01*
X115035362Y-74654699D01*
X115314895Y-74593890D01*
X115582958Y-74493908D01*
X115834047Y-74356803D01*
X115976561Y-74250116D01*
X115976562Y-74250115D01*
X115081679Y-73355231D01*
X115109995Y-73343503D01*
X115234472Y-73260330D01*
X115340330Y-73154472D01*
X115423503Y-73029995D01*
X115435231Y-73001678D01*
X116330115Y-73896562D01*
X116330116Y-73896561D01*
X116436803Y-73754047D01*
X116573908Y-73502958D01*
X116673890Y-73234895D01*
X116734699Y-72955362D01*
X116755109Y-72670001D01*
X116755109Y-72669998D01*
X116734699Y-72384637D01*
X116673890Y-72105104D01*
X116573908Y-71837041D01*
X116553682Y-71799999D01*
X130894341Y-71799999D01*
X130894341Y-71800000D01*
X130914936Y-72035403D01*
X130914938Y-72035413D01*
X130976094Y-72263655D01*
X130976096Y-72263659D01*
X130976097Y-72263663D01*
X131032508Y-72384637D01*
X131075965Y-72477830D01*
X131075967Y-72477834D01*
X131134462Y-72561373D01*
X131210523Y-72669999D01*
X131211501Y-72671395D01*
X131211506Y-72671402D01*
X131378597Y-72838493D01*
X131378603Y-72838498D01*
X131564158Y-72968425D01*
X131607783Y-73023002D01*
X131614977Y-73092500D01*
X131583454Y-73154855D01*
X131564158Y-73171575D01*
X131378597Y-73301505D01*
X131211505Y-73468597D01*
X131075965Y-73662169D01*
X131075964Y-73662171D01*
X130976098Y-73876335D01*
X130976094Y-73876344D01*
X130914938Y-74104586D01*
X130914936Y-74104596D01*
X130894341Y-74339999D01*
X130894341Y-74340000D01*
X130914936Y-74575403D01*
X130914938Y-74575413D01*
X130976094Y-74803655D01*
X130976096Y-74803659D01*
X130976097Y-74803663D01*
X131075965Y-75017830D01*
X131075967Y-75017834D01*
X131211501Y-75211395D01*
X131211506Y-75211402D01*
X131378597Y-75378493D01*
X131378603Y-75378498D01*
X131564158Y-75508425D01*
X131607783Y-75563002D01*
X131614977Y-75632500D01*
X131583454Y-75694855D01*
X131564158Y-75711575D01*
X131378597Y-75841505D01*
X131211505Y-76008597D01*
X131075965Y-76202169D01*
X131075964Y-76202171D01*
X130976098Y-76416335D01*
X130976094Y-76416344D01*
X130914938Y-76644586D01*
X130914936Y-76644596D01*
X130894341Y-76879999D01*
X130894341Y-76880000D01*
X130914936Y-77115403D01*
X130914938Y-77115413D01*
X130976094Y-77343655D01*
X130976096Y-77343659D01*
X130976097Y-77343663D01*
X131075965Y-77557830D01*
X131075967Y-77557834D01*
X131211501Y-77751395D01*
X131211506Y-77751402D01*
X131378597Y-77918493D01*
X131378603Y-77918498D01*
X131564158Y-78048425D01*
X131607783Y-78103002D01*
X131614977Y-78172500D01*
X131583454Y-78234855D01*
X131564158Y-78251575D01*
X131378597Y-78381505D01*
X131211505Y-78548597D01*
X131075965Y-78742169D01*
X131075964Y-78742171D01*
X130976098Y-78956335D01*
X130976094Y-78956344D01*
X130914938Y-79184586D01*
X130914936Y-79184596D01*
X130894341Y-79419999D01*
X130894341Y-79420000D01*
X130914936Y-79655403D01*
X130914938Y-79655413D01*
X130976094Y-79883655D01*
X130976096Y-79883659D01*
X130976097Y-79883663D01*
X131075965Y-80097830D01*
X131075967Y-80097834D01*
X131211501Y-80291395D01*
X131211506Y-80291402D01*
X131378597Y-80458493D01*
X131378603Y-80458498D01*
X131564158Y-80588425D01*
X131607783Y-80643002D01*
X131614977Y-80712500D01*
X131583454Y-80774855D01*
X131564158Y-80791575D01*
X131378597Y-80921505D01*
X131211505Y-81088597D01*
X131075965Y-81282169D01*
X131075964Y-81282171D01*
X130976098Y-81496335D01*
X130976094Y-81496344D01*
X130914938Y-81724586D01*
X130914936Y-81724596D01*
X130894341Y-81959999D01*
X130894341Y-81960000D01*
X130914936Y-82195403D01*
X130914938Y-82195413D01*
X130976094Y-82423655D01*
X130976096Y-82423659D01*
X130976097Y-82423663D01*
X131047651Y-82577111D01*
X131075965Y-82637830D01*
X131075967Y-82637834D01*
X131211501Y-82831395D01*
X131211506Y-82831402D01*
X131378597Y-82998493D01*
X131378603Y-82998498D01*
X131564158Y-83128425D01*
X131607783Y-83183002D01*
X131614977Y-83252500D01*
X131583454Y-83314855D01*
X131564158Y-83331575D01*
X131378597Y-83461505D01*
X131211505Y-83628597D01*
X131075965Y-83822169D01*
X131075964Y-83822171D01*
X130976098Y-84036335D01*
X130976094Y-84036344D01*
X130914938Y-84264586D01*
X130914936Y-84264596D01*
X130894341Y-84499999D01*
X130894341Y-84500000D01*
X130914936Y-84735403D01*
X130914938Y-84735413D01*
X130976094Y-84963655D01*
X130976096Y-84963659D01*
X130976097Y-84963663D01*
X131075965Y-85177830D01*
X131075967Y-85177834D01*
X131211501Y-85371395D01*
X131211506Y-85371402D01*
X131378597Y-85538493D01*
X131378603Y-85538498D01*
X131564158Y-85668425D01*
X131607783Y-85723002D01*
X131614977Y-85792500D01*
X131583454Y-85854855D01*
X131564158Y-85871575D01*
X131378597Y-86001505D01*
X131211505Y-86168597D01*
X131075965Y-86362169D01*
X131075964Y-86362171D01*
X130976098Y-86576335D01*
X130976094Y-86576344D01*
X130914938Y-86804586D01*
X130914936Y-86804596D01*
X130894341Y-87039999D01*
X130894341Y-87040000D01*
X130914936Y-87275403D01*
X130914938Y-87275413D01*
X130976094Y-87503655D01*
X130976096Y-87503659D01*
X130976097Y-87503663D01*
X130989402Y-87532195D01*
X131075965Y-87717830D01*
X131075967Y-87717834D01*
X131211501Y-87911395D01*
X131211506Y-87911402D01*
X131378597Y-88078493D01*
X131378603Y-88078498D01*
X131564158Y-88208425D01*
X131607783Y-88263002D01*
X131614977Y-88332500D01*
X131583454Y-88394855D01*
X131564158Y-88411575D01*
X131378597Y-88541505D01*
X131211505Y-88708597D01*
X131075965Y-88902169D01*
X131075964Y-88902171D01*
X130976098Y-89116335D01*
X130976094Y-89116344D01*
X130914938Y-89344586D01*
X130914936Y-89344596D01*
X130894341Y-89579999D01*
X130894341Y-89580000D01*
X130914936Y-89815403D01*
X130914938Y-89815413D01*
X130976094Y-90043655D01*
X130976096Y-90043659D01*
X130976097Y-90043663D01*
X131027180Y-90153211D01*
X131075965Y-90257830D01*
X131075967Y-90257834D01*
X131211501Y-90451395D01*
X131211506Y-90451402D01*
X131378597Y-90618493D01*
X131378603Y-90618498D01*
X131564158Y-90748425D01*
X131607783Y-90803002D01*
X131614977Y-90872500D01*
X131583454Y-90934855D01*
X131564158Y-90951575D01*
X131378597Y-91081505D01*
X131211505Y-91248597D01*
X131075965Y-91442169D01*
X131075964Y-91442171D01*
X130976098Y-91656335D01*
X130976094Y-91656344D01*
X130914938Y-91884586D01*
X130914936Y-91884596D01*
X130894341Y-92119999D01*
X130894341Y-92120000D01*
X130914936Y-92355403D01*
X130914938Y-92355413D01*
X130976094Y-92583655D01*
X130976096Y-92583659D01*
X130976097Y-92583663D01*
X130995383Y-92625021D01*
X131075965Y-92797830D01*
X131075967Y-92797834D01*
X131211501Y-92991395D01*
X131211506Y-92991402D01*
X131378597Y-93158493D01*
X131378603Y-93158498D01*
X131564158Y-93288425D01*
X131607783Y-93343002D01*
X131614977Y-93412500D01*
X131583454Y-93474855D01*
X131564158Y-93491575D01*
X131378597Y-93621505D01*
X131211505Y-93788597D01*
X131075965Y-93982169D01*
X131075964Y-93982171D01*
X130976098Y-94196335D01*
X130976094Y-94196344D01*
X130914938Y-94424586D01*
X130914936Y-94424596D01*
X130894341Y-94659999D01*
X130894341Y-94660000D01*
X130914936Y-94895403D01*
X130914938Y-94895413D01*
X130976094Y-95123655D01*
X130976096Y-95123659D01*
X130976097Y-95123663D01*
X131067307Y-95319262D01*
X131075965Y-95337830D01*
X131075967Y-95337834D01*
X131211501Y-95531395D01*
X131211506Y-95531402D01*
X131378597Y-95698493D01*
X131378603Y-95698498D01*
X131564158Y-95828425D01*
X131607783Y-95883002D01*
X131614977Y-95952500D01*
X131583454Y-96014855D01*
X131564158Y-96031575D01*
X131378597Y-96161505D01*
X131211505Y-96328597D01*
X131075965Y-96522169D01*
X131075964Y-96522171D01*
X130976098Y-96736335D01*
X130976094Y-96736344D01*
X130914938Y-96964586D01*
X130914936Y-96964596D01*
X130894341Y-97199999D01*
X130894341Y-97200000D01*
X130914936Y-97435403D01*
X130914938Y-97435413D01*
X130976094Y-97663655D01*
X130976096Y-97663659D01*
X130976097Y-97663663D01*
X131075965Y-97877830D01*
X131075967Y-97877834D01*
X131211501Y-98071395D01*
X131211506Y-98071402D01*
X131378597Y-98238493D01*
X131378603Y-98238498D01*
X131564158Y-98368425D01*
X131607783Y-98423002D01*
X131614977Y-98492500D01*
X131583454Y-98554855D01*
X131564158Y-98571575D01*
X131378597Y-98701505D01*
X131211505Y-98868597D01*
X131075965Y-99062169D01*
X131075964Y-99062171D01*
X130976098Y-99276335D01*
X130976094Y-99276344D01*
X130914938Y-99504586D01*
X130914936Y-99504596D01*
X130894341Y-99739999D01*
X130894341Y-99740000D01*
X130914936Y-99975403D01*
X130914938Y-99975413D01*
X130976094Y-100203655D01*
X130976096Y-100203659D01*
X130976097Y-100203663D01*
X131075965Y-100417830D01*
X131075967Y-100417834D01*
X131211501Y-100611395D01*
X131211506Y-100611402D01*
X131378597Y-100778493D01*
X131378603Y-100778498D01*
X131564158Y-100908425D01*
X131607783Y-100963002D01*
X131614977Y-101032500D01*
X131583454Y-101094855D01*
X131564158Y-101111575D01*
X131378597Y-101241505D01*
X131211505Y-101408597D01*
X131075965Y-101602169D01*
X131075964Y-101602171D01*
X130976098Y-101816335D01*
X130976094Y-101816344D01*
X130914938Y-102044586D01*
X130914936Y-102044596D01*
X130894341Y-102279999D01*
X130894341Y-102280000D01*
X130914936Y-102515403D01*
X130914938Y-102515413D01*
X130976094Y-102743655D01*
X130976096Y-102743659D01*
X130976097Y-102743663D01*
X130994625Y-102783396D01*
X131075965Y-102957830D01*
X131075967Y-102957834D01*
X131211501Y-103151395D01*
X131211506Y-103151402D01*
X131378597Y-103318493D01*
X131378603Y-103318498D01*
X131564158Y-103448425D01*
X131607783Y-103503002D01*
X131614977Y-103572500D01*
X131583454Y-103634855D01*
X131564158Y-103651575D01*
X131378597Y-103781505D01*
X131211505Y-103948597D01*
X131075965Y-104142169D01*
X131075964Y-104142171D01*
X130976098Y-104356335D01*
X130976094Y-104356344D01*
X130914938Y-104584586D01*
X130914936Y-104584596D01*
X130894341Y-104819999D01*
X130894341Y-104820000D01*
X130914936Y-105055403D01*
X130914938Y-105055413D01*
X130976094Y-105283655D01*
X130976096Y-105283659D01*
X130976097Y-105283663D01*
X131047498Y-105436783D01*
X131075965Y-105497830D01*
X131075967Y-105497834D01*
X131211501Y-105691395D01*
X131211506Y-105691402D01*
X131378597Y-105858493D01*
X131378603Y-105858498D01*
X131564158Y-105988425D01*
X131607783Y-106043002D01*
X131614977Y-106112500D01*
X131583454Y-106174855D01*
X131564158Y-106191575D01*
X131378597Y-106321505D01*
X131211505Y-106488597D01*
X131075965Y-106682169D01*
X131075964Y-106682171D01*
X130976098Y-106896335D01*
X130976094Y-106896344D01*
X130914938Y-107124586D01*
X130914936Y-107124596D01*
X130894341Y-107359999D01*
X130894341Y-107360000D01*
X130914936Y-107595403D01*
X130914938Y-107595413D01*
X130976094Y-107823655D01*
X130976096Y-107823659D01*
X130976097Y-107823663D01*
X131066169Y-108016822D01*
X131075965Y-108037830D01*
X131075967Y-108037834D01*
X131211501Y-108231395D01*
X131211506Y-108231402D01*
X131378597Y-108398493D01*
X131378603Y-108398498D01*
X131564158Y-108528425D01*
X131607783Y-108583002D01*
X131614977Y-108652500D01*
X131583454Y-108714855D01*
X131564158Y-108731575D01*
X131378597Y-108861505D01*
X131211505Y-109028597D01*
X131075965Y-109222169D01*
X131075964Y-109222171D01*
X130976098Y-109436335D01*
X130976094Y-109436344D01*
X130914938Y-109664586D01*
X130914936Y-109664596D01*
X130894341Y-109899999D01*
X130894341Y-109900000D01*
X130914936Y-110135403D01*
X130914938Y-110135413D01*
X130976094Y-110363655D01*
X130976096Y-110363659D01*
X130976097Y-110363663D01*
X131070020Y-110565080D01*
X131075965Y-110577830D01*
X131075967Y-110577834D01*
X131211501Y-110771395D01*
X131211506Y-110771402D01*
X131378597Y-110938493D01*
X131378603Y-110938498D01*
X131564158Y-111068425D01*
X131607783Y-111123002D01*
X131614977Y-111192500D01*
X131583454Y-111254855D01*
X131564158Y-111271575D01*
X131378597Y-111401505D01*
X131211505Y-111568597D01*
X131075965Y-111762169D01*
X131075964Y-111762171D01*
X130976098Y-111976335D01*
X130976094Y-111976344D01*
X130914938Y-112204586D01*
X130914936Y-112204596D01*
X130894341Y-112439999D01*
X130894341Y-112440000D01*
X130914936Y-112675403D01*
X130914938Y-112675413D01*
X130976094Y-112903655D01*
X130976096Y-112903659D01*
X130976097Y-112903663D01*
X131075965Y-113117830D01*
X131075967Y-113117834D01*
X131184281Y-113272521D01*
X131211505Y-113311401D01*
X131378599Y-113478495D01*
X131564158Y-113608425D01*
X131564594Y-113608730D01*
X131608218Y-113663307D01*
X131615411Y-113732806D01*
X131583889Y-113795160D01*
X131564593Y-113811880D01*
X131488626Y-113865072D01*
X131488625Y-113865072D01*
X132120590Y-114497037D01*
X132057007Y-114514075D01*
X131942993Y-114579901D01*
X131849901Y-114672993D01*
X131784075Y-114787007D01*
X131767037Y-114850590D01*
X131135072Y-114218625D01*
X131076401Y-114302419D01*
X130976570Y-114516507D01*
X130976566Y-114516516D01*
X130915432Y-114744673D01*
X130915430Y-114744684D01*
X130894843Y-114979998D01*
X130894843Y-114980001D01*
X130915430Y-115215315D01*
X130915432Y-115215326D01*
X130976566Y-115443483D01*
X130976570Y-115443492D01*
X131076400Y-115657579D01*
X131076402Y-115657583D01*
X131135072Y-115741373D01*
X131135073Y-115741373D01*
X131767037Y-115109409D01*
X131784075Y-115172993D01*
X131849901Y-115287007D01*
X131942993Y-115380099D01*
X132057007Y-115445925D01*
X132120590Y-115462962D01*
X131488625Y-116094925D01*
X131564594Y-116148119D01*
X131608219Y-116202696D01*
X131615413Y-116272194D01*
X131583890Y-116334549D01*
X131564595Y-116351269D01*
X131378594Y-116481508D01*
X131211505Y-116648597D01*
X131075965Y-116842169D01*
X131075964Y-116842171D01*
X130976098Y-117056335D01*
X130976094Y-117056344D01*
X130914938Y-117284586D01*
X130914936Y-117284596D01*
X130894341Y-117519999D01*
X130894341Y-117520000D01*
X130914936Y-117755403D01*
X130914938Y-117755413D01*
X130976094Y-117983655D01*
X130976096Y-117983659D01*
X130976097Y-117983663D01*
X131075965Y-118197830D01*
X131075967Y-118197834D01*
X131184281Y-118352521D01*
X131211505Y-118391401D01*
X131378599Y-118558495D01*
X131475384Y-118626265D01*
X131572165Y-118694032D01*
X131572167Y-118694033D01*
X131572170Y-118694035D01*
X131786337Y-118793903D01*
X132014592Y-118855063D01*
X132202918Y-118871539D01*
X132249999Y-118875659D01*
X132250000Y-118875659D01*
X132250001Y-118875659D01*
X132289234Y-118872226D01*
X132485408Y-118855063D01*
X132713663Y-118793903D01*
X132927830Y-118694035D01*
X133121401Y-118558495D01*
X133288495Y-118391401D01*
X133424035Y-118197830D01*
X133523903Y-117983663D01*
X133585063Y-117755408D01*
X133605659Y-117520000D01*
X133585063Y-117284592D01*
X133523903Y-117056337D01*
X133424035Y-116842171D01*
X133302675Y-116668849D01*
X133288494Y-116648597D01*
X133121402Y-116481506D01*
X133121401Y-116481505D01*
X132935405Y-116351269D01*
X132891781Y-116296692D01*
X132884588Y-116227193D01*
X132916110Y-116164839D01*
X132935405Y-116148119D01*
X133011373Y-116094925D01*
X132379409Y-115462962D01*
X132442993Y-115445925D01*
X132557007Y-115380099D01*
X132650099Y-115287007D01*
X132715925Y-115172993D01*
X132732962Y-115109410D01*
X133364925Y-115741373D01*
X133364926Y-115741373D01*
X133423598Y-115657582D01*
X133423600Y-115657578D01*
X133523429Y-115443492D01*
X133523433Y-115443483D01*
X133584567Y-115215326D01*
X133584569Y-115215315D01*
X133605157Y-114980001D01*
X133605157Y-114979998D01*
X133584569Y-114744684D01*
X133584567Y-114744673D01*
X133523433Y-114516516D01*
X133523429Y-114516507D01*
X133423600Y-114302423D01*
X133423599Y-114302421D01*
X133364925Y-114218626D01*
X133364925Y-114218625D01*
X132732962Y-114850589D01*
X132715925Y-114787007D01*
X132650099Y-114672993D01*
X132557007Y-114579901D01*
X132442993Y-114514075D01*
X132379410Y-114497037D01*
X133011373Y-113865073D01*
X133011373Y-113865072D01*
X132935405Y-113811880D01*
X132891780Y-113757304D01*
X132884586Y-113687805D01*
X132916108Y-113625451D01*
X132935399Y-113608734D01*
X133121401Y-113478495D01*
X133288495Y-113311401D01*
X133424035Y-113117830D01*
X133523903Y-112903663D01*
X133585063Y-112675408D01*
X133605659Y-112440000D01*
X133585063Y-112204592D01*
X133523903Y-111976337D01*
X133424035Y-111762171D01*
X133288495Y-111568599D01*
X133288494Y-111568597D01*
X133121402Y-111401506D01*
X133121396Y-111401501D01*
X132935842Y-111271575D01*
X132892217Y-111216998D01*
X132885023Y-111147500D01*
X132916546Y-111085145D01*
X132935842Y-111068425D01*
X132958026Y-111052891D01*
X133121401Y-110938495D01*
X133288495Y-110771401D01*
X133424035Y-110577830D01*
X133523903Y-110363663D01*
X133585063Y-110135408D01*
X133605659Y-109900000D01*
X133585063Y-109664592D01*
X133523903Y-109436337D01*
X133424035Y-109222171D01*
X133366436Y-109139910D01*
X133288494Y-109028597D01*
X133121402Y-108861506D01*
X133121396Y-108861501D01*
X132935842Y-108731575D01*
X132892217Y-108676998D01*
X132885023Y-108607500D01*
X132916546Y-108545145D01*
X132935842Y-108528425D01*
X133011328Y-108475569D01*
X133121401Y-108398495D01*
X133288495Y-108231401D01*
X133424035Y-108037830D01*
X133523903Y-107823663D01*
X133585063Y-107595408D01*
X133605659Y-107360000D01*
X133585063Y-107124592D01*
X133523903Y-106896337D01*
X133424035Y-106682171D01*
X133293056Y-106495112D01*
X133288494Y-106488597D01*
X133121402Y-106321506D01*
X133121396Y-106321501D01*
X132935842Y-106191575D01*
X132892217Y-106136998D01*
X132885023Y-106067500D01*
X132916546Y-106005145D01*
X132935842Y-105988425D01*
X132958026Y-105972891D01*
X133121401Y-105858495D01*
X133288495Y-105691401D01*
X133424035Y-105497830D01*
X133523903Y-105283663D01*
X133585063Y-105055408D01*
X133605659Y-104820000D01*
X133585063Y-104584592D01*
X133523903Y-104356337D01*
X133424035Y-104142171D01*
X133288495Y-103948599D01*
X133288494Y-103948597D01*
X133121402Y-103781506D01*
X133121396Y-103781501D01*
X132935842Y-103651575D01*
X132892217Y-103596998D01*
X132885023Y-103527500D01*
X132916546Y-103465145D01*
X132935842Y-103448425D01*
X132988385Y-103411634D01*
X133121401Y-103318495D01*
X133288495Y-103151401D01*
X133424035Y-102957830D01*
X133523903Y-102743663D01*
X133585063Y-102515408D01*
X133605659Y-102280000D01*
X133604705Y-102269101D01*
X133585063Y-102044596D01*
X133585063Y-102044592D01*
X133523903Y-101816337D01*
X133424035Y-101602171D01*
X133329952Y-101467805D01*
X133288494Y-101408597D01*
X133121402Y-101241506D01*
X133121396Y-101241501D01*
X132935842Y-101111575D01*
X132892217Y-101056998D01*
X132885023Y-100987500D01*
X132916546Y-100925145D01*
X132935842Y-100908425D01*
X132958026Y-100892891D01*
X133121401Y-100778495D01*
X133288495Y-100611401D01*
X133424035Y-100417830D01*
X133523903Y-100203663D01*
X133585063Y-99975408D01*
X133605659Y-99740000D01*
X133585063Y-99504592D01*
X133523903Y-99276337D01*
X133424035Y-99062171D01*
X133329240Y-98926788D01*
X133288494Y-98868597D01*
X133121402Y-98701506D01*
X133121396Y-98701501D01*
X132935842Y-98571575D01*
X132892217Y-98516998D01*
X132885023Y-98447500D01*
X132916546Y-98385145D01*
X132935842Y-98368425D01*
X132958026Y-98352891D01*
X133121401Y-98238495D01*
X133288495Y-98071401D01*
X133424035Y-97877830D01*
X133523903Y-97663663D01*
X133585063Y-97435408D01*
X133605659Y-97200000D01*
X133585063Y-96964592D01*
X133523903Y-96736337D01*
X133424035Y-96522171D01*
X133329240Y-96386788D01*
X133288494Y-96328597D01*
X133121402Y-96161506D01*
X133121396Y-96161501D01*
X132935842Y-96031575D01*
X132892217Y-95976998D01*
X132885023Y-95907500D01*
X132916546Y-95845145D01*
X132935842Y-95828425D01*
X133016546Y-95771915D01*
X133121401Y-95698495D01*
X133288495Y-95531401D01*
X133424035Y-95337830D01*
X133523903Y-95123663D01*
X133585063Y-94895408D01*
X133605659Y-94660000D01*
X133585063Y-94424592D01*
X133523903Y-94196337D01*
X133424035Y-93982171D01*
X133329240Y-93846788D01*
X133288494Y-93788597D01*
X133121402Y-93621506D01*
X133121396Y-93621501D01*
X132935842Y-93491575D01*
X132892217Y-93436998D01*
X132885023Y-93367500D01*
X132916546Y-93305145D01*
X132935842Y-93288425D01*
X132958026Y-93272891D01*
X133121401Y-93158495D01*
X133288495Y-92991401D01*
X133424035Y-92797830D01*
X133523903Y-92583663D01*
X133585063Y-92355408D01*
X133605659Y-92120000D01*
X133585063Y-91884592D01*
X133523903Y-91656337D01*
X133424035Y-91442171D01*
X133411297Y-91423978D01*
X133288494Y-91248597D01*
X133121402Y-91081506D01*
X133121396Y-91081501D01*
X132935842Y-90951575D01*
X132892217Y-90896998D01*
X132885023Y-90827500D01*
X132916546Y-90765145D01*
X132935842Y-90748425D01*
X132958026Y-90732891D01*
X133121401Y-90618495D01*
X133288495Y-90451401D01*
X133424035Y-90257830D01*
X133523903Y-90043663D01*
X133585063Y-89815408D01*
X133605659Y-89580000D01*
X133585063Y-89344592D01*
X133523903Y-89116337D01*
X133424035Y-88902171D01*
X133329240Y-88766788D01*
X133288494Y-88708597D01*
X133121402Y-88541506D01*
X133121396Y-88541501D01*
X132935842Y-88411575D01*
X132892217Y-88356998D01*
X132885023Y-88287500D01*
X132916546Y-88225145D01*
X132935842Y-88208425D01*
X132958026Y-88192891D01*
X133121401Y-88078495D01*
X133288495Y-87911401D01*
X133424035Y-87717830D01*
X133523903Y-87503663D01*
X133585063Y-87275408D01*
X133605659Y-87040000D01*
X133585063Y-86804592D01*
X133523903Y-86576337D01*
X133424035Y-86362171D01*
X133423315Y-86361142D01*
X133288494Y-86168597D01*
X133121402Y-86001506D01*
X133121396Y-86001501D01*
X132935842Y-85871575D01*
X132892217Y-85816998D01*
X132885023Y-85747500D01*
X132916546Y-85685145D01*
X132935842Y-85668425D01*
X132958026Y-85652891D01*
X133121401Y-85538495D01*
X133288495Y-85371401D01*
X133424035Y-85177830D01*
X133523903Y-84963663D01*
X133585063Y-84735408D01*
X133605659Y-84500000D01*
X133585063Y-84264592D01*
X133523903Y-84036337D01*
X133424035Y-83822171D01*
X133396059Y-83782216D01*
X133288494Y-83628597D01*
X133121402Y-83461506D01*
X133121396Y-83461501D01*
X132935842Y-83331575D01*
X132892217Y-83276998D01*
X132885023Y-83207500D01*
X132916546Y-83145145D01*
X132935842Y-83128425D01*
X132958026Y-83112891D01*
X133121401Y-82998495D01*
X133288495Y-82831401D01*
X133424035Y-82637830D01*
X133523903Y-82423663D01*
X133585063Y-82195408D01*
X133605659Y-81960000D01*
X133585063Y-81724592D01*
X133523903Y-81496337D01*
X133424035Y-81282171D01*
X133288495Y-81088599D01*
X133288494Y-81088597D01*
X133121402Y-80921506D01*
X133121396Y-80921501D01*
X132935842Y-80791575D01*
X132892217Y-80736998D01*
X132885023Y-80667500D01*
X132916546Y-80605145D01*
X132935842Y-80588425D01*
X132958026Y-80572891D01*
X133121401Y-80458495D01*
X133288495Y-80291401D01*
X133424035Y-80097830D01*
X133523903Y-79883663D01*
X133585063Y-79655408D01*
X133605659Y-79420000D01*
X133585063Y-79184592D01*
X133523903Y-78956337D01*
X133424035Y-78742171D01*
X133288495Y-78548599D01*
X133288494Y-78548597D01*
X133121402Y-78381506D01*
X133121396Y-78381501D01*
X132935842Y-78251575D01*
X132892217Y-78196998D01*
X132885023Y-78127500D01*
X132916546Y-78065145D01*
X132935842Y-78048425D01*
X132958026Y-78032891D01*
X133121401Y-77918495D01*
X133288495Y-77751401D01*
X133424035Y-77557830D01*
X133523903Y-77343663D01*
X133585063Y-77115408D01*
X133605659Y-76880000D01*
X133585063Y-76644592D01*
X133523903Y-76416337D01*
X133424035Y-76202171D01*
X133424005Y-76202127D01*
X133288494Y-76008597D01*
X133121402Y-75841506D01*
X133121396Y-75841501D01*
X132935842Y-75711575D01*
X132892217Y-75656998D01*
X132885023Y-75587500D01*
X132916546Y-75525145D01*
X132935842Y-75508425D01*
X132958026Y-75492891D01*
X133121401Y-75378495D01*
X133288495Y-75211401D01*
X133424035Y-75017830D01*
X133523903Y-74803663D01*
X133585063Y-74575408D01*
X133605659Y-74340000D01*
X133605659Y-74339999D01*
X146134341Y-74339999D01*
X146134341Y-74340000D01*
X146154936Y-74575403D01*
X146154938Y-74575413D01*
X146216094Y-74803655D01*
X146216096Y-74803659D01*
X146216097Y-74803663D01*
X146315965Y-75017830D01*
X146315967Y-75017834D01*
X146451501Y-75211395D01*
X146451506Y-75211402D01*
X146618597Y-75378493D01*
X146618603Y-75378498D01*
X146804158Y-75508425D01*
X146847783Y-75563002D01*
X146854977Y-75632500D01*
X146823454Y-75694855D01*
X146804158Y-75711575D01*
X146618597Y-75841505D01*
X146451505Y-76008597D01*
X146315965Y-76202169D01*
X146315964Y-76202171D01*
X146216098Y-76416335D01*
X146216094Y-76416344D01*
X146154938Y-76644586D01*
X146154936Y-76644596D01*
X146134341Y-76879999D01*
X146134341Y-76880000D01*
X146154936Y-77115403D01*
X146154938Y-77115413D01*
X146216094Y-77343655D01*
X146216096Y-77343659D01*
X146216097Y-77343663D01*
X146315965Y-77557830D01*
X146315967Y-77557834D01*
X146451501Y-77751395D01*
X146451506Y-77751402D01*
X146618597Y-77918493D01*
X146618603Y-77918498D01*
X146804158Y-78048425D01*
X146847783Y-78103002D01*
X146854977Y-78172500D01*
X146823454Y-78234855D01*
X146804158Y-78251575D01*
X146618597Y-78381505D01*
X146451505Y-78548597D01*
X146315965Y-78742169D01*
X146315964Y-78742171D01*
X146216098Y-78956335D01*
X146216094Y-78956344D01*
X146154938Y-79184586D01*
X146154936Y-79184596D01*
X146134341Y-79419999D01*
X146134341Y-79420000D01*
X146154936Y-79655403D01*
X146154938Y-79655413D01*
X146216094Y-79883655D01*
X146216096Y-79883659D01*
X146216097Y-79883663D01*
X146315965Y-80097830D01*
X146315967Y-80097834D01*
X146451501Y-80291395D01*
X146451506Y-80291402D01*
X146618597Y-80458493D01*
X146618603Y-80458498D01*
X146804158Y-80588425D01*
X146847783Y-80643002D01*
X146854977Y-80712500D01*
X146823454Y-80774855D01*
X146804158Y-80791575D01*
X146618597Y-80921505D01*
X146451505Y-81088597D01*
X146315965Y-81282169D01*
X146315964Y-81282171D01*
X146216098Y-81496335D01*
X146216094Y-81496344D01*
X146154938Y-81724586D01*
X146154936Y-81724596D01*
X146134341Y-81959999D01*
X146134341Y-81960000D01*
X146154936Y-82195403D01*
X146154938Y-82195413D01*
X146216094Y-82423655D01*
X146216096Y-82423659D01*
X146216097Y-82423663D01*
X146287651Y-82577111D01*
X146315965Y-82637830D01*
X146315967Y-82637834D01*
X146451501Y-82831395D01*
X146451506Y-82831402D01*
X146618597Y-82998493D01*
X146618603Y-82998498D01*
X146804158Y-83128425D01*
X146847783Y-83183002D01*
X146854977Y-83252500D01*
X146823454Y-83314855D01*
X146804158Y-83331575D01*
X146618597Y-83461505D01*
X146451505Y-83628597D01*
X146315965Y-83822169D01*
X146315964Y-83822171D01*
X146216098Y-84036335D01*
X146216094Y-84036344D01*
X146154938Y-84264586D01*
X146154936Y-84264596D01*
X146134341Y-84499999D01*
X146134341Y-84500000D01*
X146154936Y-84735403D01*
X146154938Y-84735413D01*
X146216094Y-84963655D01*
X146216096Y-84963659D01*
X146216097Y-84963663D01*
X146315965Y-85177830D01*
X146315967Y-85177834D01*
X146451501Y-85371395D01*
X146451506Y-85371402D01*
X146618597Y-85538493D01*
X146618603Y-85538498D01*
X146804158Y-85668425D01*
X146847783Y-85723002D01*
X146854977Y-85792500D01*
X146823454Y-85854855D01*
X146804158Y-85871575D01*
X146618597Y-86001505D01*
X146451505Y-86168597D01*
X146315965Y-86362169D01*
X146315964Y-86362171D01*
X146216098Y-86576335D01*
X146216094Y-86576344D01*
X146154938Y-86804586D01*
X146154936Y-86804596D01*
X146134341Y-87039999D01*
X146134341Y-87040000D01*
X146154936Y-87275403D01*
X146154938Y-87275413D01*
X146216094Y-87503655D01*
X146216096Y-87503659D01*
X146216097Y-87503663D01*
X146229402Y-87532195D01*
X146315965Y-87717830D01*
X146315967Y-87717834D01*
X146451501Y-87911395D01*
X146451506Y-87911402D01*
X146618597Y-88078493D01*
X146618603Y-88078498D01*
X146804158Y-88208425D01*
X146847783Y-88263002D01*
X146854977Y-88332500D01*
X146823454Y-88394855D01*
X146804158Y-88411575D01*
X146618597Y-88541505D01*
X146451505Y-88708597D01*
X146315965Y-88902169D01*
X146315964Y-88902171D01*
X146216098Y-89116335D01*
X146216094Y-89116344D01*
X146154938Y-89344586D01*
X146154936Y-89344596D01*
X146134341Y-89579999D01*
X146134341Y-89580000D01*
X146154936Y-89815403D01*
X146154938Y-89815413D01*
X146216094Y-90043655D01*
X146216096Y-90043659D01*
X146216097Y-90043663D01*
X146267180Y-90153211D01*
X146315965Y-90257830D01*
X146315967Y-90257834D01*
X146451501Y-90451395D01*
X146451506Y-90451402D01*
X146618597Y-90618493D01*
X146618603Y-90618498D01*
X146804158Y-90748425D01*
X146847783Y-90803002D01*
X146854977Y-90872500D01*
X146823454Y-90934855D01*
X146804158Y-90951575D01*
X146618597Y-91081505D01*
X146451505Y-91248597D01*
X146315965Y-91442169D01*
X146315964Y-91442171D01*
X146216098Y-91656335D01*
X146216094Y-91656344D01*
X146154938Y-91884586D01*
X146154936Y-91884596D01*
X146134341Y-92119999D01*
X146134341Y-92120000D01*
X146154936Y-92355403D01*
X146154938Y-92355413D01*
X146216094Y-92583655D01*
X146216096Y-92583659D01*
X146216097Y-92583663D01*
X146235383Y-92625021D01*
X146315965Y-92797830D01*
X146315967Y-92797834D01*
X146451501Y-92991395D01*
X146451506Y-92991402D01*
X146618597Y-93158493D01*
X146618603Y-93158498D01*
X146804158Y-93288425D01*
X146847783Y-93343002D01*
X146854977Y-93412500D01*
X146823454Y-93474855D01*
X146804158Y-93491575D01*
X146618597Y-93621505D01*
X146451505Y-93788597D01*
X146315965Y-93982169D01*
X146315964Y-93982171D01*
X146216098Y-94196335D01*
X146216094Y-94196344D01*
X146154938Y-94424586D01*
X146154936Y-94424596D01*
X146134341Y-94659999D01*
X146134341Y-94660000D01*
X146154936Y-94895403D01*
X146154938Y-94895413D01*
X146216094Y-95123655D01*
X146216096Y-95123659D01*
X146216097Y-95123663D01*
X146307307Y-95319262D01*
X146315965Y-95337830D01*
X146315967Y-95337834D01*
X146451501Y-95531395D01*
X146451506Y-95531402D01*
X146618597Y-95698493D01*
X146618603Y-95698498D01*
X146804158Y-95828425D01*
X146847783Y-95883002D01*
X146854977Y-95952500D01*
X146823454Y-96014855D01*
X146804158Y-96031575D01*
X146618597Y-96161505D01*
X146451505Y-96328597D01*
X146315965Y-96522169D01*
X146315964Y-96522171D01*
X146216098Y-96736335D01*
X146216094Y-96736344D01*
X146154938Y-96964586D01*
X146154936Y-96964596D01*
X146134341Y-97199999D01*
X146134341Y-97200000D01*
X146154936Y-97435403D01*
X146154938Y-97435413D01*
X146216094Y-97663655D01*
X146216096Y-97663659D01*
X146216097Y-97663663D01*
X146315965Y-97877830D01*
X146315967Y-97877834D01*
X146451501Y-98071395D01*
X146451506Y-98071402D01*
X146618597Y-98238493D01*
X146618603Y-98238498D01*
X146804158Y-98368425D01*
X146847783Y-98423002D01*
X146854977Y-98492500D01*
X146823454Y-98554855D01*
X146804158Y-98571575D01*
X146618597Y-98701505D01*
X146451505Y-98868597D01*
X146315965Y-99062169D01*
X146315964Y-99062171D01*
X146216098Y-99276335D01*
X146216094Y-99276344D01*
X146154938Y-99504586D01*
X146154936Y-99504596D01*
X146134341Y-99739999D01*
X146134341Y-99740000D01*
X146154936Y-99975403D01*
X146154938Y-99975413D01*
X146216094Y-100203655D01*
X146216096Y-100203659D01*
X146216097Y-100203663D01*
X146315965Y-100417830D01*
X146315967Y-100417834D01*
X146451501Y-100611395D01*
X146451506Y-100611402D01*
X146618597Y-100778493D01*
X146618603Y-100778498D01*
X146804158Y-100908425D01*
X146847783Y-100963002D01*
X146854977Y-101032500D01*
X146823454Y-101094855D01*
X146804158Y-101111575D01*
X146618597Y-101241505D01*
X146451505Y-101408597D01*
X146315965Y-101602169D01*
X146315964Y-101602171D01*
X146216098Y-101816335D01*
X146216094Y-101816344D01*
X146154938Y-102044586D01*
X146154936Y-102044596D01*
X146134341Y-102279999D01*
X146134341Y-102280000D01*
X146154936Y-102515403D01*
X146154938Y-102515413D01*
X146216094Y-102743655D01*
X146216096Y-102743659D01*
X146216097Y-102743663D01*
X146234625Y-102783396D01*
X146315965Y-102957830D01*
X146315967Y-102957834D01*
X146451501Y-103151395D01*
X146451506Y-103151402D01*
X146618597Y-103318493D01*
X146618603Y-103318498D01*
X146804158Y-103448425D01*
X146847783Y-103503002D01*
X146854977Y-103572500D01*
X146823454Y-103634855D01*
X146804158Y-103651575D01*
X146618597Y-103781505D01*
X146451505Y-103948597D01*
X146315965Y-104142169D01*
X146315964Y-104142171D01*
X146216098Y-104356335D01*
X146216094Y-104356344D01*
X146154938Y-104584586D01*
X146154936Y-104584596D01*
X146134341Y-104819999D01*
X146134341Y-104820000D01*
X146154936Y-105055403D01*
X146154938Y-105055413D01*
X146216094Y-105283655D01*
X146216096Y-105283659D01*
X146216097Y-105283663D01*
X146287498Y-105436783D01*
X146315965Y-105497830D01*
X146315967Y-105497834D01*
X146451501Y-105691395D01*
X146451506Y-105691402D01*
X146618597Y-105858493D01*
X146618603Y-105858498D01*
X146804158Y-105988425D01*
X146847783Y-106043002D01*
X146854977Y-106112500D01*
X146823454Y-106174855D01*
X146804158Y-106191575D01*
X146618597Y-106321505D01*
X146451505Y-106488597D01*
X146315965Y-106682169D01*
X146315964Y-106682171D01*
X146216098Y-106896335D01*
X146216094Y-106896344D01*
X146154938Y-107124586D01*
X146154936Y-107124596D01*
X146134341Y-107359999D01*
X146134341Y-107360000D01*
X146154936Y-107595403D01*
X146154938Y-107595413D01*
X146216094Y-107823655D01*
X146216096Y-107823659D01*
X146216097Y-107823663D01*
X146306169Y-108016822D01*
X146315965Y-108037830D01*
X146315967Y-108037834D01*
X146451501Y-108231395D01*
X146451506Y-108231402D01*
X146618597Y-108398493D01*
X146618603Y-108398498D01*
X146804158Y-108528425D01*
X146847783Y-108583002D01*
X146854977Y-108652500D01*
X146823454Y-108714855D01*
X146804158Y-108731575D01*
X146618597Y-108861505D01*
X146451505Y-109028597D01*
X146315965Y-109222169D01*
X146315964Y-109222171D01*
X146216098Y-109436335D01*
X146216094Y-109436344D01*
X146154938Y-109664586D01*
X146154936Y-109664596D01*
X146134341Y-109899999D01*
X146134341Y-109900000D01*
X146154936Y-110135403D01*
X146154938Y-110135413D01*
X146216094Y-110363655D01*
X146216096Y-110363659D01*
X146216097Y-110363663D01*
X146310020Y-110565080D01*
X146315965Y-110577830D01*
X146315967Y-110577834D01*
X146451501Y-110771395D01*
X146451506Y-110771402D01*
X146618597Y-110938493D01*
X146618603Y-110938498D01*
X146804158Y-111068425D01*
X146847783Y-111123002D01*
X146854977Y-111192500D01*
X146823454Y-111254855D01*
X146804158Y-111271575D01*
X146618597Y-111401505D01*
X146451505Y-111568597D01*
X146315965Y-111762169D01*
X146315964Y-111762171D01*
X146216098Y-111976335D01*
X146216094Y-111976344D01*
X146154938Y-112204586D01*
X146154936Y-112204596D01*
X146134341Y-112439999D01*
X146134341Y-112440000D01*
X146154936Y-112675403D01*
X146154938Y-112675413D01*
X146216094Y-112903655D01*
X146216096Y-112903659D01*
X146216097Y-112903663D01*
X146315965Y-113117830D01*
X146315967Y-113117834D01*
X146451501Y-113311395D01*
X146451506Y-113311402D01*
X146618597Y-113478493D01*
X146618603Y-113478498D01*
X146804158Y-113608425D01*
X146847783Y-113663002D01*
X146854977Y-113732500D01*
X146823454Y-113794855D01*
X146804158Y-113811575D01*
X146618597Y-113941505D01*
X146451505Y-114108597D01*
X146315965Y-114302169D01*
X146315964Y-114302171D01*
X146216098Y-114516335D01*
X146216094Y-114516344D01*
X146154938Y-114744586D01*
X146154936Y-114744596D01*
X146134341Y-114979999D01*
X146134341Y-114980000D01*
X146154936Y-115215403D01*
X146154938Y-115215413D01*
X146216094Y-115443655D01*
X146216096Y-115443659D01*
X146216097Y-115443663D01*
X146262745Y-115543699D01*
X146315965Y-115657830D01*
X146315967Y-115657834D01*
X146451501Y-115851395D01*
X146451506Y-115851402D01*
X146618597Y-116018493D01*
X146618603Y-116018498D01*
X146804158Y-116148425D01*
X146847783Y-116203002D01*
X146854977Y-116272500D01*
X146823454Y-116334855D01*
X146804158Y-116351575D01*
X146618597Y-116481505D01*
X146451505Y-116648597D01*
X146315965Y-116842169D01*
X146315964Y-116842171D01*
X146216098Y-117056335D01*
X146216094Y-117056344D01*
X146154938Y-117284586D01*
X146154936Y-117284596D01*
X146134341Y-117519999D01*
X146134341Y-117520000D01*
X146154936Y-117755403D01*
X146154938Y-117755413D01*
X146216094Y-117983655D01*
X146216096Y-117983659D01*
X146216097Y-117983663D01*
X146315965Y-118197830D01*
X146315967Y-118197834D01*
X146424281Y-118352521D01*
X146451505Y-118391401D01*
X146618599Y-118558495D01*
X146715384Y-118626265D01*
X146812165Y-118694032D01*
X146812167Y-118694033D01*
X146812170Y-118694035D01*
X147026337Y-118793903D01*
X147254592Y-118855063D01*
X147442918Y-118871539D01*
X147489999Y-118875659D01*
X147490000Y-118875659D01*
X147490001Y-118875659D01*
X147529234Y-118872226D01*
X147725408Y-118855063D01*
X147953663Y-118793903D01*
X148167830Y-118694035D01*
X148361401Y-118558495D01*
X148528495Y-118391401D01*
X148664035Y-118197830D01*
X148763903Y-117983663D01*
X148825063Y-117755408D01*
X148845659Y-117520000D01*
X148825063Y-117284592D01*
X148763903Y-117056337D01*
X148664035Y-116842171D01*
X148542675Y-116668849D01*
X148528494Y-116648597D01*
X148361402Y-116481506D01*
X148361396Y-116481501D01*
X148175842Y-116351575D01*
X148132217Y-116296998D01*
X148125023Y-116227500D01*
X148156546Y-116165145D01*
X148175842Y-116148425D01*
X148303205Y-116059244D01*
X148361401Y-116018495D01*
X148379903Y-115999993D01*
X171554700Y-115999993D01*
X171554700Y-116000006D01*
X171573864Y-116231297D01*
X171573866Y-116231308D01*
X171630842Y-116456300D01*
X171724075Y-116668848D01*
X171851016Y-116863147D01*
X171851019Y-116863151D01*
X171851021Y-116863153D01*
X172008216Y-117033913D01*
X172008219Y-117033915D01*
X172008222Y-117033918D01*
X172191365Y-117176464D01*
X172191371Y-117176468D01*
X172191374Y-117176470D01*
X172340526Y-117257187D01*
X172391154Y-117284586D01*
X172395497Y-117286936D01*
X172509487Y-117326068D01*
X172615015Y-117362297D01*
X172615017Y-117362297D01*
X172615019Y-117362298D01*
X172843951Y-117400500D01*
X172843952Y-117400500D01*
X173076048Y-117400500D01*
X173076049Y-117400500D01*
X173304981Y-117362298D01*
X173524503Y-117286936D01*
X173728626Y-117176470D01*
X173911784Y-117033913D01*
X173920511Y-117024432D01*
X173980394Y-116988441D01*
X174050232Y-116990538D01*
X174107850Y-117030060D01*
X174127924Y-117065080D01*
X174156645Y-117142086D01*
X174156649Y-117142093D01*
X174242809Y-117257187D01*
X174242812Y-117257190D01*
X174357906Y-117343350D01*
X174357913Y-117343354D01*
X174492620Y-117393596D01*
X174492627Y-117393598D01*
X174552155Y-117399999D01*
X174552172Y-117400000D01*
X175250000Y-117400000D01*
X175250000Y-116375277D01*
X175326306Y-116419333D01*
X175440756Y-116450000D01*
X175559244Y-116450000D01*
X175673694Y-116419333D01*
X175750000Y-116375277D01*
X175750000Y-117400000D01*
X176447828Y-117400000D01*
X176447844Y-117399999D01*
X176507372Y-117393598D01*
X176507379Y-117393596D01*
X176642086Y-117343354D01*
X176642093Y-117343350D01*
X176757187Y-117257190D01*
X176757190Y-117257187D01*
X176843350Y-117142093D01*
X176843354Y-117142086D01*
X176893596Y-117007379D01*
X176893598Y-117007372D01*
X176899999Y-116947844D01*
X176900000Y-116947827D01*
X176900000Y-116250000D01*
X175875278Y-116250000D01*
X175919333Y-116173694D01*
X175950000Y-116059244D01*
X175950000Y-115940756D01*
X175919333Y-115826306D01*
X175875278Y-115750000D01*
X176900000Y-115750000D01*
X176900000Y-115052172D01*
X176899999Y-115052155D01*
X178325000Y-115052155D01*
X178325000Y-115750000D01*
X179349722Y-115750000D01*
X179305667Y-115826306D01*
X179275000Y-115940756D01*
X179275000Y-116059244D01*
X179305667Y-116173694D01*
X179349722Y-116250000D01*
X178325000Y-116250000D01*
X178325000Y-116947844D01*
X178331401Y-117007372D01*
X178331403Y-117007379D01*
X178381645Y-117142086D01*
X178381649Y-117142093D01*
X178467809Y-117257187D01*
X178467812Y-117257190D01*
X178582906Y-117343350D01*
X178582913Y-117343354D01*
X178717620Y-117393596D01*
X178717627Y-117393598D01*
X178777155Y-117399999D01*
X178777172Y-117400000D01*
X179475000Y-117400000D01*
X179475000Y-116375277D01*
X179551306Y-116419333D01*
X179665756Y-116450000D01*
X179784244Y-116450000D01*
X179898694Y-116419333D01*
X179975000Y-116375277D01*
X179975000Y-117400000D01*
X180672828Y-117400000D01*
X180672844Y-117399999D01*
X180732372Y-117393598D01*
X180732379Y-117393596D01*
X180867086Y-117343354D01*
X180867093Y-117343350D01*
X180982187Y-117257190D01*
X180982190Y-117257187D01*
X181068350Y-117142093D01*
X181068355Y-117142084D01*
X181097075Y-117065081D01*
X181138945Y-117009147D01*
X181204409Y-116984729D01*
X181272682Y-116999580D01*
X181304484Y-117024428D01*
X181313216Y-117033913D01*
X181313219Y-117033915D01*
X181313222Y-117033918D01*
X181496365Y-117176464D01*
X181496371Y-117176468D01*
X181496374Y-117176470D01*
X181645526Y-117257187D01*
X181696154Y-117284586D01*
X181700497Y-117286936D01*
X181814487Y-117326068D01*
X181920015Y-117362297D01*
X181920017Y-117362297D01*
X181920019Y-117362298D01*
X182148951Y-117400500D01*
X182148952Y-117400500D01*
X182381048Y-117400500D01*
X182381049Y-117400500D01*
X182609981Y-117362298D01*
X182829503Y-117286936D01*
X183033626Y-117176470D01*
X183216784Y-117033913D01*
X183373979Y-116863153D01*
X183500924Y-116668849D01*
X183594157Y-116456300D01*
X183651134Y-116231305D01*
X183651135Y-116231297D01*
X183670300Y-116000006D01*
X183670300Y-115999993D01*
X183651135Y-115768702D01*
X183651133Y-115768691D01*
X183594157Y-115543699D01*
X183500924Y-115331151D01*
X183373983Y-115136852D01*
X183373980Y-115136849D01*
X183373979Y-115136847D01*
X183216784Y-114966087D01*
X183216779Y-114966083D01*
X183216777Y-114966081D01*
X183033634Y-114823535D01*
X183033628Y-114823531D01*
X182829504Y-114713064D01*
X182829495Y-114713061D01*
X182609984Y-114637702D01*
X182422404Y-114606401D01*
X182381049Y-114599500D01*
X182148951Y-114599500D01*
X182107596Y-114606401D01*
X181920015Y-114637702D01*
X181700504Y-114713061D01*
X181700495Y-114713064D01*
X181496371Y-114823531D01*
X181496365Y-114823535D01*
X181313222Y-114966081D01*
X181313215Y-114966087D01*
X181304484Y-114975572D01*
X181244595Y-115011561D01*
X181174757Y-115009458D01*
X181117143Y-114969932D01*
X181097075Y-114934918D01*
X181068355Y-114857915D01*
X181068350Y-114857906D01*
X180982190Y-114742812D01*
X180982187Y-114742809D01*
X180867093Y-114656649D01*
X180867086Y-114656645D01*
X180732379Y-114606403D01*
X180732372Y-114606401D01*
X180672844Y-114600000D01*
X179975000Y-114600000D01*
X179975000Y-115624722D01*
X179898694Y-115580667D01*
X179784244Y-115550000D01*
X179665756Y-115550000D01*
X179551306Y-115580667D01*
X179475000Y-115624722D01*
X179475000Y-114600000D01*
X178777155Y-114600000D01*
X178717627Y-114606401D01*
X178717620Y-114606403D01*
X178582913Y-114656645D01*
X178582906Y-114656649D01*
X178467812Y-114742809D01*
X178467809Y-114742812D01*
X178381649Y-114857906D01*
X178381645Y-114857913D01*
X178331403Y-114992620D01*
X178331401Y-114992627D01*
X178325000Y-115052155D01*
X176899999Y-115052155D01*
X176893598Y-114992627D01*
X176893596Y-114992620D01*
X176843354Y-114857913D01*
X176843350Y-114857906D01*
X176757190Y-114742812D01*
X176757187Y-114742809D01*
X176642093Y-114656649D01*
X176642086Y-114656645D01*
X176507379Y-114606403D01*
X176507372Y-114606401D01*
X176447844Y-114600000D01*
X175750000Y-114600000D01*
X175750000Y-115624722D01*
X175673694Y-115580667D01*
X175559244Y-115550000D01*
X175440756Y-115550000D01*
X175326306Y-115580667D01*
X175250000Y-115624722D01*
X175250000Y-114600000D01*
X174552155Y-114600000D01*
X174492627Y-114606401D01*
X174492620Y-114606403D01*
X174357913Y-114656645D01*
X174357906Y-114656649D01*
X174242812Y-114742809D01*
X174242809Y-114742812D01*
X174156649Y-114857906D01*
X174156646Y-114857911D01*
X174127924Y-114934920D01*
X174086052Y-114990853D01*
X174020588Y-115015270D01*
X173952315Y-115000418D01*
X173920514Y-114975571D01*
X173911784Y-114966087D01*
X173911779Y-114966083D01*
X173911777Y-114966081D01*
X173728634Y-114823535D01*
X173728628Y-114823531D01*
X173524504Y-114713064D01*
X173524495Y-114713061D01*
X173304984Y-114637702D01*
X173117404Y-114606401D01*
X173076049Y-114599500D01*
X172843951Y-114599500D01*
X172802596Y-114606401D01*
X172615015Y-114637702D01*
X172395504Y-114713061D01*
X172395495Y-114713064D01*
X172191371Y-114823531D01*
X172191365Y-114823535D01*
X172008222Y-114966081D01*
X172008219Y-114966084D01*
X172008216Y-114966086D01*
X172008216Y-114966087D01*
X171983791Y-114992620D01*
X171851016Y-115136852D01*
X171724075Y-115331151D01*
X171630842Y-115543699D01*
X171573866Y-115768691D01*
X171573864Y-115768702D01*
X171554700Y-115999993D01*
X148379903Y-115999993D01*
X148528495Y-115851401D01*
X148664035Y-115657830D01*
X148763903Y-115443663D01*
X148825063Y-115215408D01*
X148845659Y-114980000D01*
X148844441Y-114966084D01*
X148834978Y-114857915D01*
X148825063Y-114744592D01*
X148763903Y-114516337D01*
X148664035Y-114302171D01*
X148605537Y-114218626D01*
X148528494Y-114108597D01*
X148361402Y-113941506D01*
X148361396Y-113941501D01*
X148175842Y-113811575D01*
X148132217Y-113756998D01*
X148125023Y-113687500D01*
X148156546Y-113625145D01*
X148175842Y-113608425D01*
X148270238Y-113542328D01*
X148361401Y-113478495D01*
X148528495Y-113311401D01*
X148664035Y-113117830D01*
X148763903Y-112903663D01*
X148825063Y-112675408D01*
X148845659Y-112440000D01*
X148825063Y-112204592D01*
X148763903Y-111976337D01*
X148664035Y-111762171D01*
X148528495Y-111568599D01*
X148528494Y-111568597D01*
X148361402Y-111401506D01*
X148361396Y-111401501D01*
X148175842Y-111271575D01*
X148132217Y-111216998D01*
X148125023Y-111147500D01*
X148156546Y-111085145D01*
X148175842Y-111068425D01*
X148198026Y-111052891D01*
X148361401Y-110938495D01*
X148528495Y-110771401D01*
X148664035Y-110577830D01*
X148763903Y-110363663D01*
X148825063Y-110135408D01*
X148845659Y-109900000D01*
X148825063Y-109664592D01*
X148780959Y-109499993D01*
X175329700Y-109499993D01*
X175329700Y-109500006D01*
X175348864Y-109731297D01*
X175348866Y-109731308D01*
X175405842Y-109956300D01*
X175499075Y-110168848D01*
X175626016Y-110363147D01*
X175626019Y-110363151D01*
X175626021Y-110363153D01*
X175783216Y-110533913D01*
X175783219Y-110533915D01*
X175783222Y-110533918D01*
X175966365Y-110676464D01*
X175966371Y-110676468D01*
X175966374Y-110676470D01*
X176170497Y-110786936D01*
X176284487Y-110826068D01*
X176390015Y-110862297D01*
X176390017Y-110862297D01*
X176390019Y-110862298D01*
X176618951Y-110900500D01*
X176618952Y-110900500D01*
X176851048Y-110900500D01*
X176851049Y-110900500D01*
X177079981Y-110862298D01*
X177299503Y-110786936D01*
X177503626Y-110676470D01*
X177534900Y-110652129D01*
X177611489Y-110592517D01*
X177686784Y-110533913D01*
X177695511Y-110524432D01*
X177755394Y-110488441D01*
X177825232Y-110490538D01*
X177882850Y-110530060D01*
X177902924Y-110565080D01*
X177931645Y-110642086D01*
X177931649Y-110642093D01*
X178017809Y-110757187D01*
X178017812Y-110757190D01*
X178132906Y-110843350D01*
X178132913Y-110843354D01*
X178267620Y-110893596D01*
X178267627Y-110893598D01*
X178327155Y-110899999D01*
X178327172Y-110900000D01*
X179025000Y-110900000D01*
X179025000Y-109875277D01*
X179101306Y-109919333D01*
X179215756Y-109950000D01*
X179334244Y-109950000D01*
X179448694Y-109919333D01*
X179525000Y-109875277D01*
X179525000Y-110900000D01*
X180222828Y-110900000D01*
X180222844Y-110899999D01*
X180282372Y-110893598D01*
X180282379Y-110893596D01*
X180417086Y-110843354D01*
X180417093Y-110843350D01*
X180532187Y-110757190D01*
X180532190Y-110757187D01*
X180618350Y-110642093D01*
X180618354Y-110642086D01*
X180668596Y-110507379D01*
X180668598Y-110507372D01*
X180674999Y-110447844D01*
X180675000Y-110447827D01*
X180675000Y-109750000D01*
X179650278Y-109750000D01*
X179694333Y-109673694D01*
X179725000Y-109559244D01*
X179725000Y-109440756D01*
X179694333Y-109326306D01*
X179650278Y-109250000D01*
X180675000Y-109250000D01*
X180675000Y-108552172D01*
X180674999Y-108552155D01*
X180668598Y-108492627D01*
X180668596Y-108492620D01*
X180618354Y-108357913D01*
X180618350Y-108357906D01*
X180532190Y-108242812D01*
X180532187Y-108242809D01*
X180417093Y-108156649D01*
X180417086Y-108156645D01*
X180282379Y-108106403D01*
X180282372Y-108106401D01*
X180222844Y-108100000D01*
X179525000Y-108100000D01*
X179525000Y-109124722D01*
X179448694Y-109080667D01*
X179334244Y-109050000D01*
X179215756Y-109050000D01*
X179101306Y-109080667D01*
X179025000Y-109124722D01*
X179025000Y-108100000D01*
X178327155Y-108100000D01*
X178267627Y-108106401D01*
X178267620Y-108106403D01*
X178132913Y-108156645D01*
X178132906Y-108156649D01*
X178017812Y-108242809D01*
X178017809Y-108242812D01*
X177931649Y-108357906D01*
X177931646Y-108357911D01*
X177902924Y-108434920D01*
X177861052Y-108490853D01*
X177795588Y-108515270D01*
X177727315Y-108500418D01*
X177695514Y-108475571D01*
X177686784Y-108466087D01*
X177686779Y-108466083D01*
X177686777Y-108466081D01*
X177503634Y-108323535D01*
X177503628Y-108323531D01*
X177299504Y-108213064D01*
X177299495Y-108213061D01*
X177079984Y-108137702D01*
X176892404Y-108106401D01*
X176851049Y-108099500D01*
X176618951Y-108099500D01*
X176577596Y-108106401D01*
X176390015Y-108137702D01*
X176170504Y-108213061D01*
X176170495Y-108213064D01*
X175966371Y-108323531D01*
X175966365Y-108323535D01*
X175783222Y-108466081D01*
X175783219Y-108466084D01*
X175783216Y-108466086D01*
X175783216Y-108466087D01*
X175758791Y-108492620D01*
X175626016Y-108636852D01*
X175499075Y-108831151D01*
X175405842Y-109043699D01*
X175348866Y-109268691D01*
X175348864Y-109268702D01*
X175329700Y-109499993D01*
X148780959Y-109499993D01*
X148763903Y-109436337D01*
X148664035Y-109222171D01*
X148606436Y-109139910D01*
X148528494Y-109028597D01*
X148361402Y-108861506D01*
X148361396Y-108861501D01*
X148175842Y-108731575D01*
X148132217Y-108676998D01*
X148125023Y-108607500D01*
X148156546Y-108545145D01*
X148175842Y-108528425D01*
X148251328Y-108475569D01*
X148361401Y-108398495D01*
X148528495Y-108231401D01*
X148664035Y-108037830D01*
X148763903Y-107823663D01*
X148825063Y-107595408D01*
X148845659Y-107360000D01*
X148825063Y-107124592D01*
X148763903Y-106896337D01*
X148664035Y-106682171D01*
X148533056Y-106495112D01*
X148528494Y-106488597D01*
X148361402Y-106321506D01*
X148361396Y-106321501D01*
X148175842Y-106191575D01*
X148132217Y-106136998D01*
X148125023Y-106067500D01*
X148156546Y-106005145D01*
X148175842Y-105988425D01*
X148198026Y-105972891D01*
X148361401Y-105858495D01*
X148528495Y-105691401D01*
X148664035Y-105497830D01*
X148763903Y-105283663D01*
X148825063Y-105055408D01*
X148845659Y-104820000D01*
X148825063Y-104584592D01*
X148763903Y-104356337D01*
X148664035Y-104142171D01*
X148528495Y-103948599D01*
X148528494Y-103948597D01*
X148361402Y-103781506D01*
X148361396Y-103781501D01*
X148175842Y-103651575D01*
X148132217Y-103596998D01*
X148125023Y-103527500D01*
X148156546Y-103465145D01*
X148175842Y-103448425D01*
X148228385Y-103411634D01*
X148361401Y-103318495D01*
X148528495Y-103151401D01*
X148664035Y-102957830D01*
X148763903Y-102743663D01*
X148825063Y-102515408D01*
X148845659Y-102280000D01*
X148844705Y-102269101D01*
X148825063Y-102044596D01*
X148825063Y-102044592D01*
X148763903Y-101816337D01*
X148664035Y-101602171D01*
X148569952Y-101467805D01*
X148528494Y-101408597D01*
X148361402Y-101241506D01*
X148361396Y-101241501D01*
X148175842Y-101111575D01*
X148132217Y-101056998D01*
X148125023Y-100987500D01*
X148156546Y-100925145D01*
X148175842Y-100908425D01*
X148198026Y-100892891D01*
X148325849Y-100803389D01*
X160399500Y-100803389D01*
X160399500Y-100976610D01*
X160419987Y-101105965D01*
X160426598Y-101147701D01*
X160480127Y-101312445D01*
X160558768Y-101466788D01*
X160660586Y-101606928D01*
X160783072Y-101729414D01*
X160923212Y-101831232D01*
X161077555Y-101909873D01*
X161242299Y-101963402D01*
X161413389Y-101990500D01*
X161413390Y-101990500D01*
X162386610Y-101990500D01*
X162386611Y-101990500D01*
X162557701Y-101963402D01*
X162722445Y-101909873D01*
X162876788Y-101831232D01*
X163016928Y-101729414D01*
X163139414Y-101606928D01*
X163241232Y-101466788D01*
X163319873Y-101312445D01*
X163373402Y-101147701D01*
X163400500Y-100976611D01*
X163400500Y-100803428D01*
X185500000Y-100803428D01*
X185500000Y-100976571D01*
X185527085Y-101147584D01*
X185580591Y-101312257D01*
X185659195Y-101466524D01*
X185760967Y-101606602D01*
X185845406Y-101691041D01*
X186600000Y-100936447D01*
X186600000Y-100942661D01*
X186627259Y-101044394D01*
X186679920Y-101135606D01*
X186754394Y-101210080D01*
X186845606Y-101262741D01*
X186947339Y-101290000D01*
X186953553Y-101290000D01*
X186295788Y-101947763D01*
X186295788Y-101947764D01*
X186342414Y-101962913D01*
X186513429Y-101990000D01*
X187486571Y-101990000D01*
X187657585Y-101962913D01*
X187657588Y-101962913D01*
X187704211Y-101947764D01*
X187046447Y-101290000D01*
X187052661Y-101290000D01*
X187154394Y-101262741D01*
X187245606Y-101210080D01*
X187320080Y-101135606D01*
X187372741Y-101044394D01*
X187400000Y-100942661D01*
X187400000Y-100936447D01*
X188154594Y-101691041D01*
X188239032Y-101606602D01*
X188340804Y-101466524D01*
X188419408Y-101312257D01*
X188472914Y-101147584D01*
X188500000Y-100976571D01*
X188500000Y-100803428D01*
X188472914Y-100632415D01*
X188419408Y-100467742D01*
X188340804Y-100313475D01*
X188239032Y-100173397D01*
X188154594Y-100088959D01*
X187400000Y-100843553D01*
X187400000Y-100837339D01*
X187372741Y-100735606D01*
X187320080Y-100644394D01*
X187245606Y-100569920D01*
X187154394Y-100517259D01*
X187052661Y-100490000D01*
X187046448Y-100490000D01*
X187704211Y-99832235D01*
X187657582Y-99817085D01*
X187486571Y-99790000D01*
X186513429Y-99790000D01*
X186342423Y-99817084D01*
X186342411Y-99817087D01*
X186295787Y-99832235D01*
X186953553Y-100490000D01*
X186947339Y-100490000D01*
X186845606Y-100517259D01*
X186754394Y-100569920D01*
X186679920Y-100644394D01*
X186627259Y-100735606D01*
X186600000Y-100837339D01*
X186600000Y-100843553D01*
X185845406Y-100088959D01*
X185760967Y-100173397D01*
X185659195Y-100313475D01*
X185580591Y-100467742D01*
X185527085Y-100632415D01*
X185500000Y-100803428D01*
X163400500Y-100803428D01*
X163400500Y-100803389D01*
X163373402Y-100632299D01*
X163319873Y-100467555D01*
X163241232Y-100313212D01*
X163139414Y-100173072D01*
X163016928Y-100050586D01*
X162876788Y-99948768D01*
X162722445Y-99870127D01*
X162557701Y-99816598D01*
X162557699Y-99816597D01*
X162557698Y-99816597D01*
X162426271Y-99795781D01*
X162386611Y-99789500D01*
X161413389Y-99789500D01*
X161373728Y-99795781D01*
X161242302Y-99816597D01*
X161077552Y-99870128D01*
X160923211Y-99948768D01*
X160886552Y-99975403D01*
X160783072Y-100050586D01*
X160783070Y-100050588D01*
X160783069Y-100050588D01*
X160660588Y-100173069D01*
X160660588Y-100173070D01*
X160660586Y-100173072D01*
X160638360Y-100203664D01*
X160558768Y-100313211D01*
X160480128Y-100467552D01*
X160426597Y-100632302D01*
X160399500Y-100803389D01*
X148325849Y-100803389D01*
X148361401Y-100778495D01*
X148528495Y-100611401D01*
X148664035Y-100417830D01*
X148763903Y-100203663D01*
X148825063Y-99975408D01*
X148845659Y-99740000D01*
X148825063Y-99504592D01*
X148763903Y-99276337D01*
X148664035Y-99062171D01*
X148569240Y-98926788D01*
X148528494Y-98868597D01*
X148361402Y-98701506D01*
X148361396Y-98701501D01*
X148175842Y-98571575D01*
X148132217Y-98516998D01*
X148125023Y-98447500D01*
X148156546Y-98385145D01*
X148175842Y-98368425D01*
X148198026Y-98352891D01*
X148325849Y-98263389D01*
X160399500Y-98263389D01*
X160399500Y-98436610D01*
X160419987Y-98565965D01*
X160426598Y-98607701D01*
X160480127Y-98772445D01*
X160558768Y-98926788D01*
X160660586Y-99066928D01*
X160783072Y-99189414D01*
X160923212Y-99291232D01*
X161077555Y-99369873D01*
X161242299Y-99423402D01*
X161413389Y-99450500D01*
X161413390Y-99450500D01*
X162386610Y-99450500D01*
X162386611Y-99450500D01*
X162557701Y-99423402D01*
X162722445Y-99369873D01*
X162876788Y-99291232D01*
X163016928Y-99189414D01*
X163139414Y-99066928D01*
X163241232Y-98926788D01*
X163319873Y-98772445D01*
X163373402Y-98607701D01*
X163400500Y-98436611D01*
X163400500Y-98263389D01*
X185499500Y-98263389D01*
X185499500Y-98436610D01*
X185519987Y-98565965D01*
X185526598Y-98607701D01*
X185580127Y-98772445D01*
X185658768Y-98926788D01*
X185760586Y-99066928D01*
X185883072Y-99189414D01*
X186023212Y-99291232D01*
X186177555Y-99369873D01*
X186342299Y-99423402D01*
X186513389Y-99450500D01*
X186513390Y-99450500D01*
X187486610Y-99450500D01*
X187486611Y-99450500D01*
X187657701Y-99423402D01*
X187822445Y-99369873D01*
X187976788Y-99291232D01*
X188116928Y-99189414D01*
X188239414Y-99066928D01*
X188341232Y-98926788D01*
X188419873Y-98772445D01*
X188473402Y-98607701D01*
X188500500Y-98436611D01*
X188500500Y-98263389D01*
X188473402Y-98092299D01*
X188419873Y-97927555D01*
X188341232Y-97773212D01*
X188239414Y-97633072D01*
X188116928Y-97510586D01*
X187976788Y-97408768D01*
X187822445Y-97330127D01*
X187657701Y-97276598D01*
X187657699Y-97276597D01*
X187657698Y-97276597D01*
X187526271Y-97255781D01*
X187486611Y-97249500D01*
X186513389Y-97249500D01*
X186473728Y-97255781D01*
X186342302Y-97276597D01*
X186177552Y-97330128D01*
X186023211Y-97408768D01*
X185986552Y-97435403D01*
X185883072Y-97510586D01*
X185883070Y-97510588D01*
X185883069Y-97510588D01*
X185760588Y-97633069D01*
X185760588Y-97633070D01*
X185760586Y-97633072D01*
X185738360Y-97663664D01*
X185658768Y-97773211D01*
X185580128Y-97927552D01*
X185526597Y-98092302D01*
X185499500Y-98263389D01*
X163400500Y-98263389D01*
X163373402Y-98092299D01*
X163319873Y-97927555D01*
X163241232Y-97773212D01*
X163139414Y-97633072D01*
X163016928Y-97510586D01*
X162876788Y-97408768D01*
X162722445Y-97330127D01*
X162557701Y-97276598D01*
X162557699Y-97276597D01*
X162557698Y-97276597D01*
X162426271Y-97255781D01*
X162386611Y-97249500D01*
X161413389Y-97249500D01*
X161373728Y-97255781D01*
X161242302Y-97276597D01*
X161077552Y-97330128D01*
X160923211Y-97408768D01*
X160886552Y-97435403D01*
X160783072Y-97510586D01*
X160783070Y-97510588D01*
X160783069Y-97510588D01*
X160660588Y-97633069D01*
X160660588Y-97633070D01*
X160660586Y-97633072D01*
X160638360Y-97663664D01*
X160558768Y-97773211D01*
X160480128Y-97927552D01*
X160426597Y-98092302D01*
X160399500Y-98263389D01*
X148325849Y-98263389D01*
X148361401Y-98238495D01*
X148528495Y-98071401D01*
X148664035Y-97877830D01*
X148763903Y-97663663D01*
X148825063Y-97435408D01*
X148845659Y-97200000D01*
X148825063Y-96964592D01*
X148763903Y-96736337D01*
X148664035Y-96522171D01*
X148569240Y-96386788D01*
X148528494Y-96328597D01*
X148361402Y-96161506D01*
X148361396Y-96161501D01*
X148175842Y-96031575D01*
X148132217Y-95976998D01*
X148125023Y-95907500D01*
X148156546Y-95845145D01*
X148175842Y-95828425D01*
X148256546Y-95771915D01*
X148325849Y-95723389D01*
X160399500Y-95723389D01*
X160399500Y-95896610D01*
X160419987Y-96025965D01*
X160426598Y-96067701D01*
X160480127Y-96232445D01*
X160558768Y-96386788D01*
X160660586Y-96526928D01*
X160783072Y-96649414D01*
X160923212Y-96751232D01*
X161077555Y-96829873D01*
X161242299Y-96883402D01*
X161413389Y-96910500D01*
X161413390Y-96910500D01*
X162386610Y-96910500D01*
X162386611Y-96910500D01*
X162557701Y-96883402D01*
X162722445Y-96829873D01*
X162876788Y-96751232D01*
X163016928Y-96649414D01*
X163139414Y-96526928D01*
X163241232Y-96386788D01*
X163319873Y-96232445D01*
X163373402Y-96067701D01*
X163400500Y-95896611D01*
X163400500Y-95723389D01*
X185499500Y-95723389D01*
X185499500Y-95896610D01*
X185519987Y-96025965D01*
X185526598Y-96067701D01*
X185580127Y-96232445D01*
X185658768Y-96386788D01*
X185760586Y-96526928D01*
X185883072Y-96649414D01*
X186023212Y-96751232D01*
X186177555Y-96829873D01*
X186342299Y-96883402D01*
X186513389Y-96910500D01*
X186513390Y-96910500D01*
X187486610Y-96910500D01*
X187486611Y-96910500D01*
X187657701Y-96883402D01*
X187822445Y-96829873D01*
X187976788Y-96751232D01*
X188116928Y-96649414D01*
X188239414Y-96526928D01*
X188341232Y-96386788D01*
X188419873Y-96232445D01*
X188473402Y-96067701D01*
X188500500Y-95896611D01*
X188500500Y-95723389D01*
X188473402Y-95552299D01*
X188419873Y-95387555D01*
X188341232Y-95233212D01*
X188239414Y-95093072D01*
X188116928Y-94970586D01*
X187976788Y-94868768D01*
X187822445Y-94790127D01*
X187657701Y-94736598D01*
X187657699Y-94736597D01*
X187657698Y-94736597D01*
X187526271Y-94715781D01*
X187486611Y-94709500D01*
X186513389Y-94709500D01*
X186473728Y-94715781D01*
X186342302Y-94736597D01*
X186177552Y-94790128D01*
X186023211Y-94868768D01*
X185986552Y-94895403D01*
X185883072Y-94970586D01*
X185883070Y-94970588D01*
X185883069Y-94970588D01*
X185760588Y-95093069D01*
X185760588Y-95093070D01*
X185760586Y-95093072D01*
X185738360Y-95123664D01*
X185658768Y-95233211D01*
X185580128Y-95387552D01*
X185526597Y-95552302D01*
X185499500Y-95723389D01*
X163400500Y-95723389D01*
X163373402Y-95552299D01*
X163319873Y-95387555D01*
X163241232Y-95233212D01*
X163139414Y-95093072D01*
X163016928Y-94970586D01*
X162876788Y-94868768D01*
X162722445Y-94790127D01*
X162557701Y-94736598D01*
X162557699Y-94736597D01*
X162557698Y-94736597D01*
X162426271Y-94715781D01*
X162386611Y-94709500D01*
X161413389Y-94709500D01*
X161373728Y-94715781D01*
X161242302Y-94736597D01*
X161077552Y-94790128D01*
X160923211Y-94868768D01*
X160886552Y-94895403D01*
X160783072Y-94970586D01*
X160783070Y-94970588D01*
X160783069Y-94970588D01*
X160660588Y-95093069D01*
X160660588Y-95093070D01*
X160660586Y-95093072D01*
X160638360Y-95123664D01*
X160558768Y-95233211D01*
X160480128Y-95387552D01*
X160426597Y-95552302D01*
X160399500Y-95723389D01*
X148325849Y-95723389D01*
X148361401Y-95698495D01*
X148528495Y-95531401D01*
X148664035Y-95337830D01*
X148763903Y-95123663D01*
X148825063Y-94895408D01*
X148845659Y-94660000D01*
X148825063Y-94424592D01*
X148763903Y-94196337D01*
X148664035Y-93982171D01*
X148569240Y-93846788D01*
X148528494Y-93788597D01*
X148361402Y-93621506D01*
X148361396Y-93621501D01*
X148175842Y-93491575D01*
X148132217Y-93436998D01*
X148125023Y-93367500D01*
X148156546Y-93305145D01*
X148175842Y-93288425D01*
X148198026Y-93272891D01*
X148325849Y-93183389D01*
X160399500Y-93183389D01*
X160399500Y-93356610D01*
X160419987Y-93485965D01*
X160426598Y-93527701D01*
X160480127Y-93692445D01*
X160558768Y-93846788D01*
X160660586Y-93986928D01*
X160783072Y-94109414D01*
X160923212Y-94211232D01*
X161077555Y-94289873D01*
X161242299Y-94343402D01*
X161413389Y-94370500D01*
X161413390Y-94370500D01*
X162386610Y-94370500D01*
X162386611Y-94370500D01*
X162557701Y-94343402D01*
X162722445Y-94289873D01*
X162876788Y-94211232D01*
X163016928Y-94109414D01*
X163139414Y-93986928D01*
X163241232Y-93846788D01*
X163319873Y-93692445D01*
X163373402Y-93527701D01*
X163400500Y-93356611D01*
X163400500Y-93183389D01*
X185499500Y-93183389D01*
X185499500Y-93356610D01*
X185519987Y-93485965D01*
X185526598Y-93527701D01*
X185580127Y-93692445D01*
X185658768Y-93846788D01*
X185760586Y-93986928D01*
X185883072Y-94109414D01*
X186023212Y-94211232D01*
X186177555Y-94289873D01*
X186342299Y-94343402D01*
X186513389Y-94370500D01*
X186513390Y-94370500D01*
X187486610Y-94370500D01*
X187486611Y-94370500D01*
X187657701Y-94343402D01*
X187822445Y-94289873D01*
X187976788Y-94211232D01*
X188116928Y-94109414D01*
X188239414Y-93986928D01*
X188341232Y-93846788D01*
X188419873Y-93692445D01*
X188473402Y-93527701D01*
X188500500Y-93356611D01*
X188500500Y-93183389D01*
X188473402Y-93012299D01*
X188419873Y-92847555D01*
X188341232Y-92693212D01*
X188239414Y-92553072D01*
X188116928Y-92430586D01*
X187976788Y-92328768D01*
X187822445Y-92250127D01*
X187657701Y-92196598D01*
X187657699Y-92196597D01*
X187657698Y-92196597D01*
X187526271Y-92175781D01*
X187486611Y-92169500D01*
X186513389Y-92169500D01*
X186473728Y-92175781D01*
X186342302Y-92196597D01*
X186177552Y-92250128D01*
X186023211Y-92328768D01*
X185989098Y-92353553D01*
X185883072Y-92430586D01*
X185883070Y-92430588D01*
X185883069Y-92430588D01*
X185760588Y-92553069D01*
X185760588Y-92553070D01*
X185760586Y-92553072D01*
X185738360Y-92583664D01*
X185658768Y-92693211D01*
X185580128Y-92847552D01*
X185526597Y-93012302D01*
X185499500Y-93183389D01*
X163400500Y-93183389D01*
X163373402Y-93012299D01*
X163319873Y-92847555D01*
X163241232Y-92693212D01*
X163139414Y-92553072D01*
X163016928Y-92430586D01*
X162876788Y-92328768D01*
X162722445Y-92250127D01*
X162557701Y-92196598D01*
X162557699Y-92196597D01*
X162557698Y-92196597D01*
X162426271Y-92175781D01*
X162386611Y-92169500D01*
X161413389Y-92169500D01*
X161373728Y-92175781D01*
X161242302Y-92196597D01*
X161077552Y-92250128D01*
X160923211Y-92328768D01*
X160889098Y-92353553D01*
X160783072Y-92430586D01*
X160783070Y-92430588D01*
X160783069Y-92430588D01*
X160660588Y-92553069D01*
X160660588Y-92553070D01*
X160660586Y-92553072D01*
X160638360Y-92583664D01*
X160558768Y-92693211D01*
X160480128Y-92847552D01*
X160426597Y-93012302D01*
X160399500Y-93183389D01*
X148325849Y-93183389D01*
X148361401Y-93158495D01*
X148528495Y-92991401D01*
X148664035Y-92797830D01*
X148763903Y-92583663D01*
X148825063Y-92355408D01*
X148845659Y-92120000D01*
X148825063Y-91884592D01*
X148763903Y-91656337D01*
X148664035Y-91442171D01*
X148651297Y-91423978D01*
X148528494Y-91248597D01*
X148361402Y-91081506D01*
X148361396Y-91081501D01*
X148175842Y-90951575D01*
X148132217Y-90896998D01*
X148125023Y-90827500D01*
X148156546Y-90765145D01*
X148175842Y-90748425D01*
X148198026Y-90732891D01*
X148325849Y-90643389D01*
X160399500Y-90643389D01*
X160399500Y-90816610D01*
X160419987Y-90945965D01*
X160426598Y-90987701D01*
X160480127Y-91152445D01*
X160558768Y-91306788D01*
X160660586Y-91446928D01*
X160783072Y-91569414D01*
X160923212Y-91671232D01*
X161077555Y-91749873D01*
X161242299Y-91803402D01*
X161413389Y-91830500D01*
X161413390Y-91830500D01*
X162386610Y-91830500D01*
X162386611Y-91830500D01*
X162557701Y-91803402D01*
X162722445Y-91749873D01*
X162876788Y-91671232D01*
X163016928Y-91569414D01*
X163139414Y-91446928D01*
X163241232Y-91306788D01*
X163319873Y-91152445D01*
X163373402Y-90987701D01*
X163400500Y-90816611D01*
X163400500Y-90643389D01*
X185499500Y-90643389D01*
X185499500Y-90816610D01*
X185519987Y-90945965D01*
X185526598Y-90987701D01*
X185580127Y-91152445D01*
X185658768Y-91306788D01*
X185760586Y-91446928D01*
X185883072Y-91569414D01*
X186023212Y-91671232D01*
X186177555Y-91749873D01*
X186342299Y-91803402D01*
X186513389Y-91830500D01*
X186513390Y-91830500D01*
X187486610Y-91830500D01*
X187486611Y-91830500D01*
X187657701Y-91803402D01*
X187822445Y-91749873D01*
X187976788Y-91671232D01*
X188116928Y-91569414D01*
X188239414Y-91446928D01*
X188341232Y-91306788D01*
X188419873Y-91152445D01*
X188473402Y-90987701D01*
X188500500Y-90816611D01*
X188500500Y-90643389D01*
X188473402Y-90472299D01*
X188419873Y-90307555D01*
X188341232Y-90153212D01*
X188239414Y-90013072D01*
X188116928Y-89890586D01*
X187976788Y-89788768D01*
X187822445Y-89710127D01*
X187657701Y-89656598D01*
X187657699Y-89656597D01*
X187657698Y-89656597D01*
X187526271Y-89635781D01*
X187486611Y-89629500D01*
X186513389Y-89629500D01*
X186473728Y-89635781D01*
X186342302Y-89656597D01*
X186177552Y-89710128D01*
X186023211Y-89788768D01*
X185986552Y-89815403D01*
X185883072Y-89890586D01*
X185883070Y-89890588D01*
X185883069Y-89890588D01*
X185760588Y-90013069D01*
X185760588Y-90013070D01*
X185760586Y-90013072D01*
X185738360Y-90043664D01*
X185658768Y-90153211D01*
X185580128Y-90307552D01*
X185526597Y-90472302D01*
X185499500Y-90643389D01*
X163400500Y-90643389D01*
X163373402Y-90472299D01*
X163319873Y-90307555D01*
X163241232Y-90153212D01*
X163139414Y-90013072D01*
X163016928Y-89890586D01*
X162876788Y-89788768D01*
X162722445Y-89710127D01*
X162557701Y-89656598D01*
X162557699Y-89656597D01*
X162557698Y-89656597D01*
X162426271Y-89635781D01*
X162386611Y-89629500D01*
X161413389Y-89629500D01*
X161373728Y-89635781D01*
X161242302Y-89656597D01*
X161077552Y-89710128D01*
X160923211Y-89788768D01*
X160886552Y-89815403D01*
X160783072Y-89890586D01*
X160783070Y-89890588D01*
X160783069Y-89890588D01*
X160660588Y-90013069D01*
X160660588Y-90013070D01*
X160660586Y-90013072D01*
X160638360Y-90043664D01*
X160558768Y-90153211D01*
X160480128Y-90307552D01*
X160426597Y-90472302D01*
X160399500Y-90643389D01*
X148325849Y-90643389D01*
X148361401Y-90618495D01*
X148528495Y-90451401D01*
X148664035Y-90257830D01*
X148763903Y-90043663D01*
X148825063Y-89815408D01*
X148845659Y-89580000D01*
X148825063Y-89344592D01*
X148763903Y-89116337D01*
X148664035Y-88902171D01*
X148569240Y-88766788D01*
X148528494Y-88708597D01*
X148361402Y-88541506D01*
X148361396Y-88541501D01*
X148175842Y-88411575D01*
X148132217Y-88356998D01*
X148125023Y-88287500D01*
X148156546Y-88225145D01*
X148175842Y-88208425D01*
X148198026Y-88192891D01*
X148325849Y-88103389D01*
X160399500Y-88103389D01*
X160399500Y-88276610D01*
X160420885Y-88411635D01*
X160426598Y-88447701D01*
X160480127Y-88612445D01*
X160558768Y-88766788D01*
X160660586Y-88906928D01*
X160783072Y-89029414D01*
X160923212Y-89131232D01*
X161077555Y-89209873D01*
X161242299Y-89263402D01*
X161413389Y-89290500D01*
X161413390Y-89290500D01*
X162386610Y-89290500D01*
X162386611Y-89290500D01*
X162557701Y-89263402D01*
X162722445Y-89209873D01*
X162876788Y-89131232D01*
X163016928Y-89029414D01*
X163139414Y-88906928D01*
X163241232Y-88766788D01*
X163319873Y-88612445D01*
X163373402Y-88447701D01*
X163400500Y-88276611D01*
X163400500Y-88103389D01*
X185499500Y-88103389D01*
X185499500Y-88276610D01*
X185520885Y-88411635D01*
X185526598Y-88447701D01*
X185580127Y-88612445D01*
X185658768Y-88766788D01*
X185760586Y-88906928D01*
X185883072Y-89029414D01*
X186023212Y-89131232D01*
X186177555Y-89209873D01*
X186342299Y-89263402D01*
X186513389Y-89290500D01*
X186513390Y-89290500D01*
X187486610Y-89290500D01*
X187486611Y-89290500D01*
X187657701Y-89263402D01*
X187822445Y-89209873D01*
X187976788Y-89131232D01*
X188116928Y-89029414D01*
X188239414Y-88906928D01*
X188341232Y-88766788D01*
X188419873Y-88612445D01*
X188473402Y-88447701D01*
X188500500Y-88276611D01*
X188500500Y-88103389D01*
X188473402Y-87932299D01*
X188419873Y-87767555D01*
X188341232Y-87613212D01*
X188239414Y-87473072D01*
X188116928Y-87350586D01*
X187976788Y-87248768D01*
X187822445Y-87170127D01*
X187657701Y-87116598D01*
X187657699Y-87116597D01*
X187657698Y-87116597D01*
X187526271Y-87095781D01*
X187486611Y-87089500D01*
X186513389Y-87089500D01*
X186473728Y-87095781D01*
X186342302Y-87116597D01*
X186177552Y-87170128D01*
X186023211Y-87248768D01*
X185995223Y-87269103D01*
X185883072Y-87350586D01*
X185883070Y-87350588D01*
X185883069Y-87350588D01*
X185760588Y-87473069D01*
X185760588Y-87473070D01*
X185760586Y-87473072D01*
X185738360Y-87503664D01*
X185658768Y-87613211D01*
X185580128Y-87767552D01*
X185526597Y-87932302D01*
X185499500Y-88103389D01*
X163400500Y-88103389D01*
X163373402Y-87932299D01*
X163319873Y-87767555D01*
X163241232Y-87613212D01*
X163139414Y-87473072D01*
X163016928Y-87350586D01*
X162876788Y-87248768D01*
X162722445Y-87170127D01*
X162557701Y-87116598D01*
X162557699Y-87116597D01*
X162557698Y-87116597D01*
X162426271Y-87095781D01*
X162386611Y-87089500D01*
X161413389Y-87089500D01*
X161373728Y-87095781D01*
X161242302Y-87116597D01*
X161077552Y-87170128D01*
X160923211Y-87248768D01*
X160895223Y-87269103D01*
X160783072Y-87350586D01*
X160783070Y-87350588D01*
X160783069Y-87350588D01*
X160660588Y-87473069D01*
X160660588Y-87473070D01*
X160660586Y-87473072D01*
X160638360Y-87503664D01*
X160558768Y-87613211D01*
X160480128Y-87767552D01*
X160426597Y-87932302D01*
X160399500Y-88103389D01*
X148325849Y-88103389D01*
X148361401Y-88078495D01*
X148528495Y-87911401D01*
X148664035Y-87717830D01*
X148763903Y-87503663D01*
X148825063Y-87275408D01*
X148845659Y-87040000D01*
X148825063Y-86804592D01*
X148763903Y-86576337D01*
X148664035Y-86362171D01*
X148663315Y-86361142D01*
X148528494Y-86168597D01*
X148361402Y-86001506D01*
X148361396Y-86001501D01*
X148175842Y-85871575D01*
X148132217Y-85816998D01*
X148125023Y-85747500D01*
X148156546Y-85685145D01*
X148175842Y-85668425D01*
X148198026Y-85652891D01*
X148325793Y-85563428D01*
X160400000Y-85563428D01*
X160400000Y-85736571D01*
X160427085Y-85907584D01*
X160480591Y-86072257D01*
X160559195Y-86226524D01*
X160660967Y-86366602D01*
X160745406Y-86451041D01*
X161500000Y-85696447D01*
X161500000Y-85702661D01*
X161527259Y-85804394D01*
X161579920Y-85895606D01*
X161654394Y-85970080D01*
X161745606Y-86022741D01*
X161847339Y-86050000D01*
X161853553Y-86050000D01*
X161195788Y-86707763D01*
X161195788Y-86707764D01*
X161242414Y-86722913D01*
X161413429Y-86750000D01*
X162386571Y-86750000D01*
X162557585Y-86722913D01*
X162557588Y-86722913D01*
X162604211Y-86707764D01*
X161946447Y-86050000D01*
X161952661Y-86050000D01*
X162054394Y-86022741D01*
X162145606Y-85970080D01*
X162220080Y-85895606D01*
X162272741Y-85804394D01*
X162300000Y-85702661D01*
X162300000Y-85696447D01*
X163054594Y-86451041D01*
X163139032Y-86366602D01*
X163240804Y-86226524D01*
X163319408Y-86072257D01*
X163372914Y-85907584D01*
X163400000Y-85736571D01*
X163400000Y-85563428D01*
X163372914Y-85392415D01*
X163319408Y-85227742D01*
X163240804Y-85073475D01*
X163139032Y-84933397D01*
X163054594Y-84848959D01*
X162300000Y-85603553D01*
X162300000Y-85597339D01*
X162272741Y-85495606D01*
X162220080Y-85404394D01*
X162145606Y-85329920D01*
X162054394Y-85277259D01*
X161952661Y-85250000D01*
X161946448Y-85250000D01*
X162604211Y-84592235D01*
X162557582Y-84577085D01*
X162386571Y-84550000D01*
X161413429Y-84550000D01*
X161242423Y-84577084D01*
X161242411Y-84577087D01*
X161195787Y-84592235D01*
X161853553Y-85250000D01*
X161847339Y-85250000D01*
X161745606Y-85277259D01*
X161654394Y-85329920D01*
X161579920Y-85404394D01*
X161527259Y-85495606D01*
X161500000Y-85597339D01*
X161500000Y-85603553D01*
X160745406Y-84848959D01*
X160660967Y-84933397D01*
X160559195Y-85073475D01*
X160480591Y-85227742D01*
X160427085Y-85392415D01*
X160400000Y-85563428D01*
X148325793Y-85563428D01*
X148361401Y-85538495D01*
X148528495Y-85371401D01*
X148664035Y-85177830D01*
X148763903Y-84963663D01*
X148825063Y-84735408D01*
X148845659Y-84500000D01*
X148825063Y-84264592D01*
X148763903Y-84036337D01*
X148664035Y-83822171D01*
X148636059Y-83782216D01*
X148528494Y-83628597D01*
X148361402Y-83461506D01*
X148361396Y-83461501D01*
X148175842Y-83331575D01*
X148132217Y-83276998D01*
X148125023Y-83207500D01*
X148156546Y-83145145D01*
X148175842Y-83128425D01*
X148198026Y-83112891D01*
X148325793Y-83023428D01*
X160400000Y-83023428D01*
X160400000Y-83196571D01*
X160427085Y-83367584D01*
X160480591Y-83532257D01*
X160559195Y-83686524D01*
X160660967Y-83826602D01*
X160745406Y-83911041D01*
X161500000Y-83156447D01*
X161500000Y-83162661D01*
X161527259Y-83264394D01*
X161579920Y-83355606D01*
X161654394Y-83430080D01*
X161745606Y-83482741D01*
X161847339Y-83510000D01*
X161853553Y-83510000D01*
X161195788Y-84167763D01*
X161195788Y-84167764D01*
X161242414Y-84182913D01*
X161413429Y-84210000D01*
X162386571Y-84210000D01*
X162557585Y-84182913D01*
X162557588Y-84182913D01*
X162604211Y-84167764D01*
X161946447Y-83510000D01*
X161952661Y-83510000D01*
X162054394Y-83482741D01*
X162145606Y-83430080D01*
X162220080Y-83355606D01*
X162272741Y-83264394D01*
X162300000Y-83162661D01*
X162300000Y-83156447D01*
X163054594Y-83911041D01*
X163139032Y-83826602D01*
X163240804Y-83686524D01*
X163319408Y-83532257D01*
X163372914Y-83367584D01*
X163391538Y-83250000D01*
X166844540Y-83250000D01*
X166864326Y-83438256D01*
X166864327Y-83438259D01*
X166922818Y-83618277D01*
X166922821Y-83618284D01*
X167017467Y-83782216D01*
X167133462Y-83911041D01*
X167144129Y-83922888D01*
X167297265Y-84034148D01*
X167297270Y-84034151D01*
X167470192Y-84111142D01*
X167470197Y-84111144D01*
X167655354Y-84150500D01*
X167679192Y-84150500D01*
X167746231Y-84170185D01*
X167766873Y-84186819D01*
X169065191Y-85485137D01*
X169098676Y-85546460D01*
X169100830Y-85559851D01*
X169114326Y-85688256D01*
X169114327Y-85688259D01*
X169172818Y-85868277D01*
X169172821Y-85868284D01*
X169267467Y-86032216D01*
X169390265Y-86168597D01*
X169394129Y-86172888D01*
X169547265Y-86284148D01*
X169547270Y-86284151D01*
X169720192Y-86361142D01*
X169720197Y-86361144D01*
X169905354Y-86400500D01*
X169905355Y-86400500D01*
X170094644Y-86400500D01*
X170094646Y-86400500D01*
X170279803Y-86361144D01*
X170452730Y-86284151D01*
X170605871Y-86172888D01*
X170732533Y-86032216D01*
X170827179Y-85868284D01*
X170885674Y-85688256D01*
X170898798Y-85563389D01*
X185499500Y-85563389D01*
X185499500Y-85736610D01*
X185519987Y-85865965D01*
X185526598Y-85907701D01*
X185580127Y-86072445D01*
X185658768Y-86226788D01*
X185760586Y-86366928D01*
X185883072Y-86489414D01*
X186023212Y-86591232D01*
X186177555Y-86669873D01*
X186342299Y-86723402D01*
X186513389Y-86750500D01*
X186513390Y-86750500D01*
X187486610Y-86750500D01*
X187486611Y-86750500D01*
X187657701Y-86723402D01*
X187822445Y-86669873D01*
X187976788Y-86591232D01*
X188116928Y-86489414D01*
X188239414Y-86366928D01*
X188341232Y-86226788D01*
X188419873Y-86072445D01*
X188473402Y-85907701D01*
X188500500Y-85736611D01*
X188500500Y-85563389D01*
X188473402Y-85392299D01*
X188419873Y-85227555D01*
X188341232Y-85073212D01*
X188239414Y-84933072D01*
X188116928Y-84810586D01*
X187976788Y-84708768D01*
X187822445Y-84630127D01*
X187657701Y-84576598D01*
X187657699Y-84576597D01*
X187657698Y-84576597D01*
X187526271Y-84555781D01*
X187486611Y-84549500D01*
X186513389Y-84549500D01*
X186473728Y-84555781D01*
X186342302Y-84576597D01*
X186177552Y-84630128D01*
X186023211Y-84708768D01*
X185986552Y-84735403D01*
X185883072Y-84810586D01*
X185883070Y-84810588D01*
X185883069Y-84810588D01*
X185760588Y-84933069D01*
X185760588Y-84933070D01*
X185760586Y-84933072D01*
X185716859Y-84993256D01*
X185658768Y-85073211D01*
X185580128Y-85227552D01*
X185526597Y-85392302D01*
X185499500Y-85563389D01*
X170898798Y-85563389D01*
X170905460Y-85500000D01*
X170885674Y-85311744D01*
X170827179Y-85131716D01*
X170732533Y-84967784D01*
X170605871Y-84827112D01*
X170583125Y-84810586D01*
X170452734Y-84715851D01*
X170452729Y-84715848D01*
X170279807Y-84638857D01*
X170279802Y-84638855D01*
X170134001Y-84607865D01*
X170094646Y-84599500D01*
X170094645Y-84599500D01*
X170070808Y-84599500D01*
X170003769Y-84579815D01*
X169983127Y-84563181D01*
X168684808Y-83264862D01*
X168651323Y-83203539D01*
X168649168Y-83190141D01*
X168643271Y-83134035D01*
X168635674Y-83061744D01*
X168623224Y-83023428D01*
X185500000Y-83023428D01*
X185500000Y-83196571D01*
X185527085Y-83367584D01*
X185580591Y-83532257D01*
X185659195Y-83686524D01*
X185760967Y-83826602D01*
X185845406Y-83911041D01*
X186600000Y-83156447D01*
X186600000Y-83162661D01*
X186627259Y-83264394D01*
X186679920Y-83355606D01*
X186754394Y-83430080D01*
X186845606Y-83482741D01*
X186947339Y-83510000D01*
X186953553Y-83510000D01*
X186295788Y-84167763D01*
X186295788Y-84167764D01*
X186342414Y-84182913D01*
X186513429Y-84210000D01*
X187486571Y-84210000D01*
X187657585Y-84182913D01*
X187657588Y-84182913D01*
X187704211Y-84167764D01*
X187046447Y-83510000D01*
X187052661Y-83510000D01*
X187154394Y-83482741D01*
X187245606Y-83430080D01*
X187320080Y-83355606D01*
X187372741Y-83264394D01*
X187400000Y-83162661D01*
X187400000Y-83156447D01*
X188154594Y-83911041D01*
X188239032Y-83826602D01*
X188340804Y-83686524D01*
X188419408Y-83532257D01*
X188472914Y-83367584D01*
X188500000Y-83196571D01*
X188500000Y-83023428D01*
X188472914Y-82852415D01*
X188419408Y-82687742D01*
X188340804Y-82533475D01*
X188239032Y-82393397D01*
X188154594Y-82308959D01*
X187400000Y-83063553D01*
X187400000Y-83057339D01*
X187372741Y-82955606D01*
X187320080Y-82864394D01*
X187245606Y-82789920D01*
X187154394Y-82737259D01*
X187052661Y-82710000D01*
X187046448Y-82710000D01*
X187704211Y-82052235D01*
X187657582Y-82037085D01*
X187486571Y-82010000D01*
X186513429Y-82010000D01*
X186342423Y-82037084D01*
X186342411Y-82037087D01*
X186295787Y-82052235D01*
X186953553Y-82710000D01*
X186947339Y-82710000D01*
X186845606Y-82737259D01*
X186754394Y-82789920D01*
X186679920Y-82864394D01*
X186627259Y-82955606D01*
X186600000Y-83057339D01*
X186600000Y-83063553D01*
X185845406Y-82308959D01*
X185760967Y-82393397D01*
X185659195Y-82533475D01*
X185580591Y-82687742D01*
X185527085Y-82852415D01*
X185500000Y-83023428D01*
X168623224Y-83023428D01*
X168577179Y-82881716D01*
X168482533Y-82717784D01*
X168355871Y-82577112D01*
X168295810Y-82533475D01*
X168202734Y-82465851D01*
X168202729Y-82465848D01*
X168029807Y-82388857D01*
X168029802Y-82388855D01*
X167884001Y-82357865D01*
X167844646Y-82349500D01*
X167655354Y-82349500D01*
X167622897Y-82356398D01*
X167470197Y-82388855D01*
X167470192Y-82388857D01*
X167297270Y-82465848D01*
X167297265Y-82465851D01*
X167144129Y-82577111D01*
X167017466Y-82717785D01*
X166922821Y-82881715D01*
X166922818Y-82881722D01*
X166865757Y-83057339D01*
X166864326Y-83061744D01*
X166844540Y-83250000D01*
X163391538Y-83250000D01*
X163400000Y-83196571D01*
X163400000Y-83023428D01*
X163372914Y-82852415D01*
X163319408Y-82687742D01*
X163240804Y-82533475D01*
X163139032Y-82393397D01*
X163054594Y-82308959D01*
X162300000Y-83063553D01*
X162300000Y-83057339D01*
X162272741Y-82955606D01*
X162220080Y-82864394D01*
X162145606Y-82789920D01*
X162054394Y-82737259D01*
X161952661Y-82710000D01*
X161946448Y-82710000D01*
X162604211Y-82052235D01*
X162557582Y-82037085D01*
X162386571Y-82010000D01*
X161413429Y-82010000D01*
X161242423Y-82037084D01*
X161242411Y-82037087D01*
X161195787Y-82052235D01*
X161853553Y-82710000D01*
X161847339Y-82710000D01*
X161745606Y-82737259D01*
X161654394Y-82789920D01*
X161579920Y-82864394D01*
X161527259Y-82955606D01*
X161500000Y-83057339D01*
X161500000Y-83063553D01*
X160745406Y-82308959D01*
X160660967Y-82393397D01*
X160559195Y-82533475D01*
X160480591Y-82687742D01*
X160427085Y-82852415D01*
X160400000Y-83023428D01*
X148325793Y-83023428D01*
X148361401Y-82998495D01*
X148528495Y-82831401D01*
X148664035Y-82637830D01*
X148763903Y-82423663D01*
X148825063Y-82195408D01*
X148845659Y-81960000D01*
X148825063Y-81724592D01*
X148763903Y-81496337D01*
X148664035Y-81282171D01*
X148528495Y-81088599D01*
X148528494Y-81088597D01*
X148361402Y-80921506D01*
X148361396Y-80921501D01*
X148175842Y-80791575D01*
X148132217Y-80736998D01*
X148125023Y-80667500D01*
X148156546Y-80605145D01*
X148175842Y-80588425D01*
X148198026Y-80572891D01*
X148361401Y-80458495D01*
X148528495Y-80291401D01*
X148664035Y-80097830D01*
X148763903Y-79883663D01*
X148825063Y-79655408D01*
X148845659Y-79420000D01*
X148825063Y-79184592D01*
X148763903Y-78956337D01*
X148664035Y-78742171D01*
X148528495Y-78548599D01*
X148528494Y-78548597D01*
X148361402Y-78381506D01*
X148361396Y-78381501D01*
X148175842Y-78251575D01*
X148132217Y-78196998D01*
X148125023Y-78127500D01*
X148156546Y-78065145D01*
X148175842Y-78048425D01*
X148198026Y-78032891D01*
X148361401Y-77918495D01*
X148528495Y-77751401D01*
X148664035Y-77557830D01*
X148763903Y-77343663D01*
X148825063Y-77115408D01*
X148845659Y-76880000D01*
X148825063Y-76644592D01*
X148763903Y-76416337D01*
X148664035Y-76202171D01*
X148664005Y-76202127D01*
X148528494Y-76008597D01*
X148361402Y-75841506D01*
X148361396Y-75841501D01*
X148175842Y-75711575D01*
X148132217Y-75656998D01*
X148125023Y-75587500D01*
X148156546Y-75525145D01*
X148175842Y-75508425D01*
X148198026Y-75492891D01*
X148361401Y-75378495D01*
X148528495Y-75211401D01*
X148664035Y-75017830D01*
X148763903Y-74803663D01*
X148825063Y-74575408D01*
X148845659Y-74340000D01*
X148825063Y-74104592D01*
X148763903Y-73876337D01*
X148664035Y-73662171D01*
X148552554Y-73502958D01*
X148528494Y-73468597D01*
X148361402Y-73301506D01*
X148361401Y-73301505D01*
X148175405Y-73171269D01*
X148131781Y-73116692D01*
X148124588Y-73047193D01*
X148156110Y-72984839D01*
X148175405Y-72968119D01*
X148251373Y-72914925D01*
X147619409Y-72282962D01*
X147682993Y-72265925D01*
X147797007Y-72200099D01*
X147890099Y-72107007D01*
X147955925Y-71992993D01*
X147972962Y-71929410D01*
X148604925Y-72561373D01*
X148604926Y-72561373D01*
X148663598Y-72477582D01*
X148663600Y-72477578D01*
X148763429Y-72263492D01*
X148763433Y-72263483D01*
X148824567Y-72035326D01*
X148824569Y-72035315D01*
X148845157Y-71800001D01*
X148845157Y-71799998D01*
X148824569Y-71564684D01*
X148824567Y-71564673D01*
X148763433Y-71336516D01*
X148763429Y-71336507D01*
X148663600Y-71122423D01*
X148663599Y-71122421D01*
X148604925Y-71038626D01*
X148604925Y-71038625D01*
X147972962Y-71670589D01*
X147955925Y-71607007D01*
X147890099Y-71492993D01*
X147797007Y-71399901D01*
X147682993Y-71334075D01*
X147619410Y-71317037D01*
X148251373Y-70685073D01*
X148174969Y-70631576D01*
X148131344Y-70576999D01*
X148124150Y-70507501D01*
X148155672Y-70445146D01*
X148174968Y-70428425D01*
X148251373Y-70374925D01*
X147619409Y-69742962D01*
X147682993Y-69725925D01*
X147797007Y-69660099D01*
X147890099Y-69567007D01*
X147955925Y-69452993D01*
X147972962Y-69389410D01*
X148604925Y-70021373D01*
X148604926Y-70021373D01*
X148663598Y-69937582D01*
X148663600Y-69937578D01*
X148763429Y-69723492D01*
X148763433Y-69723483D01*
X148824567Y-69495326D01*
X148824569Y-69495315D01*
X148845157Y-69260001D01*
X148845157Y-69259998D01*
X148824569Y-69024684D01*
X148824567Y-69024673D01*
X148763433Y-68796516D01*
X148763429Y-68796507D01*
X148663600Y-68582423D01*
X148663599Y-68582421D01*
X148604925Y-68498626D01*
X148604925Y-68498625D01*
X147972962Y-69130589D01*
X147955925Y-69067007D01*
X147890099Y-68952993D01*
X147797007Y-68859901D01*
X147682993Y-68794075D01*
X147619410Y-68777037D01*
X148251373Y-68145073D01*
X148251373Y-68145072D01*
X148167583Y-68086402D01*
X148167579Y-68086400D01*
X147953492Y-67986570D01*
X147953483Y-67986566D01*
X147725326Y-67925432D01*
X147725315Y-67925430D01*
X147490002Y-67904843D01*
X147489998Y-67904843D01*
X147254684Y-67925430D01*
X147254673Y-67925432D01*
X147026516Y-67986566D01*
X147026507Y-67986570D01*
X146812419Y-68086401D01*
X146728625Y-68145072D01*
X147360590Y-68777037D01*
X147297007Y-68794075D01*
X147182993Y-68859901D01*
X147089901Y-68952993D01*
X147024075Y-69067007D01*
X147007037Y-69130590D01*
X146375072Y-68498625D01*
X146316401Y-68582419D01*
X146216570Y-68796507D01*
X146216566Y-68796516D01*
X146155432Y-69024673D01*
X146155430Y-69024684D01*
X146134843Y-69259998D01*
X146134843Y-69260001D01*
X146155430Y-69495315D01*
X146155432Y-69495326D01*
X146216566Y-69723483D01*
X146216570Y-69723492D01*
X146316400Y-69937579D01*
X146316402Y-69937583D01*
X146375072Y-70021373D01*
X146375073Y-70021373D01*
X147007037Y-69389409D01*
X147024075Y-69452993D01*
X147089901Y-69567007D01*
X147182993Y-69660099D01*
X147297007Y-69725925D01*
X147360590Y-69742962D01*
X146728625Y-70374925D01*
X146805031Y-70428425D01*
X146848655Y-70483002D01*
X146855848Y-70552501D01*
X146824326Y-70614855D01*
X146805029Y-70631576D01*
X146728625Y-70685072D01*
X147360590Y-71317037D01*
X147297007Y-71334075D01*
X147182993Y-71399901D01*
X147089901Y-71492993D01*
X147024075Y-71607007D01*
X147007037Y-71670590D01*
X146375072Y-71038625D01*
X146316401Y-71122419D01*
X146216570Y-71336507D01*
X146216566Y-71336516D01*
X146155432Y-71564673D01*
X146155430Y-71564684D01*
X146134843Y-71799998D01*
X146134843Y-71800001D01*
X146155430Y-72035315D01*
X146155432Y-72035326D01*
X146216566Y-72263483D01*
X146216570Y-72263492D01*
X146316400Y-72477579D01*
X146316402Y-72477583D01*
X146375072Y-72561373D01*
X146375073Y-72561373D01*
X147007037Y-71929409D01*
X147024075Y-71992993D01*
X147089901Y-72107007D01*
X147182993Y-72200099D01*
X147297007Y-72265925D01*
X147360590Y-72282962D01*
X146728625Y-72914925D01*
X146804594Y-72968119D01*
X146848219Y-73022696D01*
X146855413Y-73092194D01*
X146823890Y-73154549D01*
X146804595Y-73171269D01*
X146618594Y-73301508D01*
X146451505Y-73468597D01*
X146315965Y-73662169D01*
X146315964Y-73662171D01*
X146216098Y-73876335D01*
X146216094Y-73876344D01*
X146154938Y-74104586D01*
X146154936Y-74104596D01*
X146134341Y-74339999D01*
X133605659Y-74339999D01*
X133585063Y-74104592D01*
X133523903Y-73876337D01*
X133424035Y-73662171D01*
X133312554Y-73502958D01*
X133288494Y-73468597D01*
X133121402Y-73301506D01*
X133121396Y-73301501D01*
X132935842Y-73171575D01*
X132892217Y-73116998D01*
X132885023Y-73047500D01*
X132916546Y-72985145D01*
X132935842Y-72968425D01*
X133045439Y-72891684D01*
X133121401Y-72838495D01*
X133288495Y-72671401D01*
X133424035Y-72477830D01*
X133523903Y-72263663D01*
X133585063Y-72035408D01*
X133605659Y-71800000D01*
X133585063Y-71564592D01*
X133523903Y-71336337D01*
X133424035Y-71122171D01*
X133365536Y-71038626D01*
X133288496Y-70928600D01*
X133288495Y-70928599D01*
X133166567Y-70806671D01*
X133133084Y-70745351D01*
X133138068Y-70675659D01*
X133179939Y-70619725D01*
X133210915Y-70602810D01*
X133342331Y-70553796D01*
X133457546Y-70467546D01*
X133543796Y-70352331D01*
X133594091Y-70217483D01*
X133600500Y-70157873D01*
X133600499Y-68362128D01*
X133594091Y-68302517D01*
X133543796Y-68167669D01*
X133543795Y-68167668D01*
X133543793Y-68167664D01*
X133457547Y-68052455D01*
X133457544Y-68052452D01*
X133342335Y-67966206D01*
X133342328Y-67966202D01*
X133207482Y-67915908D01*
X133207483Y-67915908D01*
X133147883Y-67909501D01*
X133147881Y-67909500D01*
X133147873Y-67909500D01*
X133147864Y-67909500D01*
X131352129Y-67909500D01*
X131352123Y-67909501D01*
X131292516Y-67915908D01*
X131157671Y-67966202D01*
X131157664Y-67966206D01*
X131042455Y-68052452D01*
X131042452Y-68052455D01*
X130956206Y-68167664D01*
X130956202Y-68167671D01*
X130905908Y-68302517D01*
X130899501Y-68362116D01*
X130899501Y-68362123D01*
X130899500Y-68362135D01*
X130899500Y-70157870D01*
X130899501Y-70157876D01*
X130905908Y-70217483D01*
X130956202Y-70352328D01*
X130956206Y-70352335D01*
X131042452Y-70467544D01*
X131042455Y-70467547D01*
X131157664Y-70553793D01*
X131157671Y-70553797D01*
X131289081Y-70602810D01*
X131345015Y-70644681D01*
X131369432Y-70710145D01*
X131354580Y-70778418D01*
X131333430Y-70806673D01*
X131211503Y-70928600D01*
X131075965Y-71122169D01*
X131075964Y-71122171D01*
X130976098Y-71336335D01*
X130976094Y-71336344D01*
X130914938Y-71564586D01*
X130914936Y-71564596D01*
X130894341Y-71799999D01*
X116553682Y-71799999D01*
X116436808Y-71585961D01*
X116436807Y-71585960D01*
X116330115Y-71443436D01*
X115435231Y-72338320D01*
X115423503Y-72310005D01*
X115340330Y-72185528D01*
X115234472Y-72079670D01*
X115109995Y-71996497D01*
X115081678Y-71984767D01*
X115976562Y-71089883D01*
X115976561Y-71089882D01*
X115834046Y-70983196D01*
X115834038Y-70983191D01*
X115582957Y-70846091D01*
X115582958Y-70846091D01*
X115314895Y-70746109D01*
X115035362Y-70685300D01*
X114750001Y-70664891D01*
X114749999Y-70664891D01*
X114464637Y-70685300D01*
X114185104Y-70746109D01*
X113917041Y-70846091D01*
X113665961Y-70983191D01*
X113665953Y-70983196D01*
X113523437Y-71089882D01*
X113523436Y-71089883D01*
X114418321Y-71984767D01*
X114390005Y-71996497D01*
X114265528Y-72079670D01*
X114159670Y-72185528D01*
X114076497Y-72310005D01*
X114064768Y-72338321D01*
X113169883Y-71443436D01*
X113169882Y-71443437D01*
X113063196Y-71585953D01*
X113063191Y-71585961D01*
X112926091Y-71837041D01*
X112826109Y-72105104D01*
X112765300Y-72384637D01*
X112744891Y-72669998D01*
X110299623Y-72669998D01*
X110299623Y-67589998D01*
X112744390Y-67589998D01*
X112744390Y-67590001D01*
X112764804Y-67875433D01*
X112825628Y-68155037D01*
X112825630Y-68155043D01*
X112825631Y-68155046D01*
X112925633Y-68423161D01*
X112925635Y-68423166D01*
X113062770Y-68674309D01*
X113062775Y-68674317D01*
X113234254Y-68903387D01*
X113234270Y-68903405D01*
X113436594Y-69105729D01*
X113436612Y-69105745D01*
X113665682Y-69277224D01*
X113665690Y-69277229D01*
X113916833Y-69414364D01*
X113916832Y-69414364D01*
X113916836Y-69414365D01*
X113916839Y-69414367D01*
X114184954Y-69514369D01*
X114184960Y-69514370D01*
X114184962Y-69514371D01*
X114464566Y-69575195D01*
X114464568Y-69575195D01*
X114464572Y-69575196D01*
X114718220Y-69593337D01*
X114749999Y-69595610D01*
X114750000Y-69595610D01*
X114750001Y-69595610D01*
X114778595Y-69593564D01*
X115035428Y-69575196D01*
X115073073Y-69567007D01*
X115315037Y-69514371D01*
X115315037Y-69514370D01*
X115315046Y-69514369D01*
X115583161Y-69414367D01*
X115834315Y-69277226D01*
X116063395Y-69105739D01*
X116265739Y-68903395D01*
X116437226Y-68674315D01*
X116574367Y-68423161D01*
X116674369Y-68155046D01*
X116674371Y-68155037D01*
X116735195Y-67875433D01*
X116735195Y-67875432D01*
X116735196Y-67875428D01*
X116755610Y-67590000D01*
X116735196Y-67304572D01*
X116724952Y-67257483D01*
X116674371Y-67024962D01*
X116674370Y-67024960D01*
X116674369Y-67024954D01*
X116574367Y-66756839D01*
X116437226Y-66505685D01*
X116437224Y-66505682D01*
X116265745Y-66276612D01*
X116265729Y-66276594D01*
X116063405Y-66074270D01*
X116063387Y-66074254D01*
X115834317Y-65902775D01*
X115834309Y-65902770D01*
X115583166Y-65765635D01*
X115583167Y-65765635D01*
X115475915Y-65725632D01*
X115315046Y-65665631D01*
X115315043Y-65665630D01*
X115315037Y-65665628D01*
X115035433Y-65604804D01*
X114750001Y-65584390D01*
X114749999Y-65584390D01*
X114464566Y-65604804D01*
X114184962Y-65665628D01*
X113916833Y-65765635D01*
X113665690Y-65902770D01*
X113665682Y-65902775D01*
X113436612Y-66074254D01*
X113436594Y-66074270D01*
X113234270Y-66276594D01*
X113234254Y-66276612D01*
X113062775Y-66505682D01*
X113062770Y-66505690D01*
X112925635Y-66756833D01*
X112825628Y-67024962D01*
X112764804Y-67304566D01*
X112744390Y-67589998D01*
X110299623Y-67589998D01*
X110299623Y-61431386D01*
X164949500Y-61431386D01*
X164949500Y-63368613D01*
X164949501Y-63368652D01*
X164952295Y-63421243D01*
X164952295Y-63421244D01*
X164987279Y-63602128D01*
X164996755Y-63651126D01*
X165045326Y-63779832D01*
X165079425Y-63870189D01*
X165197929Y-64072131D01*
X165197934Y-64072138D01*
X165348856Y-64251141D01*
X165348858Y-64251143D01*
X165527861Y-64402065D01*
X165527868Y-64402070D01*
X165729810Y-64520574D01*
X165948874Y-64603245D01*
X166178759Y-64647705D01*
X166231378Y-64650500D01*
X166231386Y-64650500D01*
X168168614Y-64650500D01*
X168168622Y-64650500D01*
X168221241Y-64647705D01*
X168451126Y-64603245D01*
X168670190Y-64520574D01*
X168872132Y-64402070D01*
X169051142Y-64251142D01*
X169202070Y-64072132D01*
X169320574Y-63870190D01*
X169403245Y-63651126D01*
X169403756Y-63648485D01*
X169404281Y-63647467D01*
X169404683Y-63646050D01*
X169404971Y-63646131D01*
X169435812Y-63586403D01*
X169496343Y-63551507D01*
X169566131Y-63554876D01*
X169623019Y-63595440D01*
X169648946Y-63660322D01*
X169649500Y-63672030D01*
X169649500Y-67197870D01*
X169649501Y-67197876D01*
X169655908Y-67257483D01*
X169706202Y-67392328D01*
X169706206Y-67392335D01*
X169792452Y-67507544D01*
X169792455Y-67507547D01*
X169907664Y-67593793D01*
X169907671Y-67593797D01*
X170042517Y-67644091D01*
X170042516Y-67644091D01*
X170049444Y-67644835D01*
X170102127Y-67650500D01*
X173697872Y-67650499D01*
X173757483Y-67644091D01*
X173892331Y-67593796D01*
X174007546Y-67507546D01*
X174093796Y-67392331D01*
X174144091Y-67257483D01*
X174150500Y-67197873D01*
X174150499Y-63602128D01*
X174144091Y-63542517D01*
X174132288Y-63510872D01*
X174093797Y-63407671D01*
X174093793Y-63407664D01*
X174007547Y-63292455D01*
X174007544Y-63292452D01*
X173892335Y-63206206D01*
X173892328Y-63206202D01*
X173757482Y-63155908D01*
X173757483Y-63155908D01*
X173697883Y-63149501D01*
X173697881Y-63149500D01*
X173697873Y-63149500D01*
X173697864Y-63149500D01*
X170102129Y-63149500D01*
X170102123Y-63149501D01*
X170042516Y-63155908D01*
X169907671Y-63206202D01*
X169907664Y-63206206D01*
X169792455Y-63292452D01*
X169792452Y-63292455D01*
X169706206Y-63407664D01*
X169706203Y-63407669D01*
X169688573Y-63454939D01*
X169646701Y-63510872D01*
X169581237Y-63535289D01*
X169512964Y-63520437D01*
X169463559Y-63471032D01*
X169448566Y-63405025D01*
X169450499Y-63368650D01*
X169450500Y-63368613D01*
X169450500Y-61431386D01*
X169450498Y-61431347D01*
X169448833Y-61399998D01*
X169447705Y-61378759D01*
X169403245Y-61148874D01*
X169320574Y-60929810D01*
X169202070Y-60727868D01*
X169202065Y-60727861D01*
X169051143Y-60548858D01*
X169051141Y-60548856D01*
X168872138Y-60397934D01*
X168872131Y-60397929D01*
X168670189Y-60279425D01*
X168579832Y-60245326D01*
X168451126Y-60196755D01*
X168451121Y-60196754D01*
X168221243Y-60152295D01*
X168168652Y-60149501D01*
X168168629Y-60149500D01*
X168168622Y-60149500D01*
X166231378Y-60149500D01*
X166231370Y-60149500D01*
X166231347Y-60149501D01*
X166178756Y-60152295D01*
X166178755Y-60152295D01*
X165948878Y-60196754D01*
X165948876Y-60196754D01*
X165948874Y-60196755D01*
X165902656Y-60214197D01*
X165729810Y-60279425D01*
X165527868Y-60397929D01*
X165527861Y-60397934D01*
X165348858Y-60548856D01*
X165348856Y-60548858D01*
X165197934Y-60727861D01*
X165197929Y-60727868D01*
X165079425Y-60929810D01*
X165024659Y-61074933D01*
X164996755Y-61148874D01*
X164996754Y-61148876D01*
X164996754Y-61148878D01*
X164952295Y-61378755D01*
X164952295Y-61378756D01*
X164949501Y-61431347D01*
X164949500Y-61431386D01*
X110299623Y-61431386D01*
X110299623Y-58585803D01*
X169650000Y-58585803D01*
X169650000Y-59150000D01*
X170466988Y-59150000D01*
X170434075Y-59207007D01*
X170400000Y-59334174D01*
X170400000Y-59465826D01*
X170434075Y-59592993D01*
X170466988Y-59650000D01*
X169650001Y-59650000D01*
X169650001Y-60214197D01*
X169660400Y-60346332D01*
X169715377Y-60564519D01*
X169808428Y-60769374D01*
X169808431Y-60769380D01*
X169936559Y-60954323D01*
X169936569Y-60954335D01*
X170095664Y-61113430D01*
X170095676Y-61113440D01*
X170280619Y-61241568D01*
X170280625Y-61241571D01*
X170485480Y-61334622D01*
X170703667Y-61389599D01*
X170835810Y-61399999D01*
X171649999Y-61399999D01*
X171650000Y-61399998D01*
X171650000Y-59900000D01*
X172150000Y-59900000D01*
X172150000Y-61399999D01*
X172964182Y-61399999D01*
X172964197Y-61399998D01*
X173096332Y-61389599D01*
X173314519Y-61334622D01*
X173519374Y-61241571D01*
X173519380Y-61241568D01*
X173704323Y-61113440D01*
X173704335Y-61113430D01*
X173863430Y-60954335D01*
X173863440Y-60954323D01*
X173991568Y-60769380D01*
X173991571Y-60769374D01*
X174084622Y-60564519D01*
X174139599Y-60346332D01*
X174149999Y-60214196D01*
X174150000Y-60214184D01*
X174150000Y-59650000D01*
X173333012Y-59650000D01*
X173365925Y-59592993D01*
X173400000Y-59465826D01*
X173400000Y-59334174D01*
X173365925Y-59207007D01*
X173333012Y-59150000D01*
X174149999Y-59150000D01*
X174149999Y-58585817D01*
X174149998Y-58585802D01*
X174139599Y-58453667D01*
X174084622Y-58235480D01*
X173991571Y-58030625D01*
X173991568Y-58030619D01*
X173863440Y-57845676D01*
X173863430Y-57845664D01*
X173704335Y-57686569D01*
X173704323Y-57686559D01*
X173519380Y-57558431D01*
X173519374Y-57558428D01*
X173314519Y-57465377D01*
X173096332Y-57410400D01*
X172964196Y-57400000D01*
X172150000Y-57400000D01*
X172150000Y-58900000D01*
X171650000Y-58900000D01*
X171650000Y-57400000D01*
X170835817Y-57400000D01*
X170835802Y-57400001D01*
X170703667Y-57410400D01*
X170485480Y-57465377D01*
X170280625Y-57558428D01*
X170280619Y-57558431D01*
X170095676Y-57686559D01*
X170095664Y-57686569D01*
X169936569Y-57845664D01*
X169936559Y-57845676D01*
X169808431Y-58030619D01*
X169808428Y-58030625D01*
X169715377Y-58235480D01*
X169660400Y-58453667D01*
X169650000Y-58585803D01*
X110299623Y-58585803D01*
X110299623Y-56002560D01*
X110299729Y-55997436D01*
X110305317Y-55862332D01*
X113399500Y-55862332D01*
X113399500Y-56137667D01*
X113399501Y-56137684D01*
X113435438Y-56410655D01*
X113435439Y-56410660D01*
X113435440Y-56410666D01*
X113435441Y-56410668D01*
X113506704Y-56676630D01*
X113612075Y-56931017D01*
X113612080Y-56931028D01*
X113694861Y-57074407D01*
X113749751Y-57169479D01*
X113749753Y-57169482D01*
X113749754Y-57169483D01*
X113917370Y-57387926D01*
X113917376Y-57387933D01*
X114112066Y-57582623D01*
X114112072Y-57582628D01*
X114330521Y-57750249D01*
X114483778Y-57838732D01*
X114568971Y-57887919D01*
X114568976Y-57887921D01*
X114568979Y-57887923D01*
X114823368Y-57993295D01*
X115089334Y-58064560D01*
X115362326Y-58100500D01*
X115362333Y-58100500D01*
X115637667Y-58100500D01*
X115637674Y-58100500D01*
X115910666Y-58064560D01*
X116176632Y-57993295D01*
X116431021Y-57887923D01*
X116669479Y-57750249D01*
X116887928Y-57582628D01*
X117082628Y-57387928D01*
X117250249Y-57169479D01*
X117387923Y-56931021D01*
X117493295Y-56676632D01*
X117564560Y-56410666D01*
X117600500Y-56137674D01*
X117600500Y-55862332D01*
X182899500Y-55862332D01*
X182899500Y-56137667D01*
X182899501Y-56137684D01*
X182935438Y-56410655D01*
X182935439Y-56410660D01*
X182935440Y-56410666D01*
X182935441Y-56410668D01*
X183006704Y-56676630D01*
X183112075Y-56931017D01*
X183112080Y-56931028D01*
X183194861Y-57074407D01*
X183249751Y-57169479D01*
X183249753Y-57169482D01*
X183249754Y-57169483D01*
X183417370Y-57387926D01*
X183417376Y-57387933D01*
X183612066Y-57582623D01*
X183612072Y-57582628D01*
X183830521Y-57750249D01*
X183983778Y-57838732D01*
X184068971Y-57887919D01*
X184068976Y-57887921D01*
X184068979Y-57887923D01*
X184323368Y-57993295D01*
X184589334Y-58064560D01*
X184862326Y-58100500D01*
X184862333Y-58100500D01*
X185137667Y-58100500D01*
X185137674Y-58100500D01*
X185410666Y-58064560D01*
X185676632Y-57993295D01*
X185931021Y-57887923D01*
X186169479Y-57750249D01*
X186387928Y-57582628D01*
X186582628Y-57387928D01*
X186750249Y-57169479D01*
X186887923Y-56931021D01*
X186993295Y-56676632D01*
X187064560Y-56410666D01*
X187100500Y-56137674D01*
X187100500Y-55862326D01*
X187064560Y-55589334D01*
X186993295Y-55323368D01*
X186887923Y-55068979D01*
X186887921Y-55068976D01*
X186887919Y-55068971D01*
X186838732Y-54983778D01*
X186750249Y-54830521D01*
X186582628Y-54612072D01*
X186582623Y-54612066D01*
X186387933Y-54417376D01*
X186387926Y-54417370D01*
X186169483Y-54249754D01*
X186169482Y-54249753D01*
X186169479Y-54249751D01*
X186074407Y-54194861D01*
X185931028Y-54112080D01*
X185931017Y-54112075D01*
X185676630Y-54006704D01*
X185543649Y-53971072D01*
X185410666Y-53935440D01*
X185410660Y-53935439D01*
X185410655Y-53935438D01*
X185137684Y-53899501D01*
X185137679Y-53899500D01*
X185137674Y-53899500D01*
X184862326Y-53899500D01*
X184862320Y-53899500D01*
X184862315Y-53899501D01*
X184589344Y-53935438D01*
X184589337Y-53935439D01*
X184589334Y-53935440D01*
X184533569Y-53950382D01*
X184323369Y-54006704D01*
X184068982Y-54112075D01*
X184068971Y-54112080D01*
X183830516Y-54249754D01*
X183612073Y-54417370D01*
X183612066Y-54417376D01*
X183417376Y-54612066D01*
X183417370Y-54612073D01*
X183249754Y-54830516D01*
X183112080Y-55068971D01*
X183112075Y-55068982D01*
X183006704Y-55323369D01*
X182950500Y-55533125D01*
X182939098Y-55575684D01*
X182935441Y-55589331D01*
X182935438Y-55589344D01*
X182899501Y-55862315D01*
X182899500Y-55862332D01*
X117600500Y-55862332D01*
X117600500Y-55862326D01*
X117564560Y-55589334D01*
X117493295Y-55323368D01*
X117387923Y-55068979D01*
X117387921Y-55068976D01*
X117387919Y-55068971D01*
X117338732Y-54983778D01*
X117250249Y-54830521D01*
X117082628Y-54612072D01*
X117082623Y-54612066D01*
X116887933Y-54417376D01*
X116887926Y-54417370D01*
X116669483Y-54249754D01*
X116669482Y-54249753D01*
X116669479Y-54249751D01*
X116574407Y-54194861D01*
X116431028Y-54112080D01*
X116431017Y-54112075D01*
X116176630Y-54006704D01*
X116043649Y-53971072D01*
X115910666Y-53935440D01*
X115910660Y-53935439D01*
X115910655Y-53935438D01*
X115637684Y-53899501D01*
X115637679Y-53899500D01*
X115637674Y-53899500D01*
X115362326Y-53899500D01*
X115362320Y-53899500D01*
X115362315Y-53899501D01*
X115089344Y-53935438D01*
X115089337Y-53935439D01*
X115089334Y-53935440D01*
X115033569Y-53950382D01*
X114823369Y-54006704D01*
X114568982Y-54112075D01*
X114568971Y-54112080D01*
X114330516Y-54249754D01*
X114112073Y-54417370D01*
X114112066Y-54417376D01*
X113917376Y-54612066D01*
X113917370Y-54612073D01*
X113749754Y-54830516D01*
X113612080Y-55068971D01*
X113612075Y-55068982D01*
X113506704Y-55323369D01*
X113450500Y-55533125D01*
X113439098Y-55575684D01*
X113435441Y-55589331D01*
X113435438Y-55589344D01*
X113399501Y-55862315D01*
X113399500Y-55862332D01*
X110305317Y-55862332D01*
X110305317Y-55862326D01*
X110317173Y-55575662D01*
X110318016Y-55565493D01*
X110369917Y-55149115D01*
X110371597Y-55139043D01*
X110457704Y-54728381D01*
X110460211Y-54718485D01*
X110579937Y-54316330D01*
X110583252Y-54306677D01*
X110735773Y-53915797D01*
X110739885Y-53906425D01*
X110743270Y-53899501D01*
X110924157Y-53529491D01*
X110929011Y-53520519D01*
X111143806Y-53160048D01*
X111149389Y-53151502D01*
X111393194Y-52810031D01*
X111399479Y-52801957D01*
X111670659Y-52481774D01*
X111677578Y-52474259D01*
X111974259Y-52177578D01*
X111981774Y-52170659D01*
X112301957Y-51899479D01*
X112310037Y-51893191D01*
X112651502Y-51649389D01*
X112660048Y-51643806D01*
X113020519Y-51429011D01*
X113029491Y-51424157D01*
X113406429Y-51239882D01*
X113415797Y-51235773D01*
X113806677Y-51083252D01*
X113816330Y-51079937D01*
X114218485Y-50960211D01*
X114228381Y-50957704D01*
X114639043Y-50871597D01*
X114649115Y-50869917D01*
X115065493Y-50818016D01*
X115075662Y-50817173D01*
X115497436Y-50799728D01*
X115502560Y-50799623D01*
X184909440Y-50799623D01*
X184909444Y-50799624D01*
G37*
G04 #@! TD.AperFunction*
M02*
