G04 #@! TF.GenerationSoftware,KiCad,Pcbnew,8.0.5-dirty*
G04 #@! TF.CreationDate,2024-09-27T12:44:00+05:30*
G04 #@! TF.ProjectId,Nodes,4e6f6465-732e-46b6-9963-61645f706362,1.1*
G04 #@! TF.SameCoordinates,Original*
G04 #@! TF.FileFunction,Soldermask,Top*
G04 #@! TF.FilePolarity,Negative*
%FSLAX46Y46*%
G04 Gerber Fmt 4.6, Leading zero omitted, Abs format (unit mm)*
G04 Created by KiCad (PCBNEW 8.0.5-dirty) date 2024-09-27 12:44:00*
%MOMM*%
%LPD*%
G01*
G04 APERTURE LIST*
G04 Aperture macros list*
%AMRoundRect*
0 Rectangle with rounded corners*
0 $1 Rounding radius*
0 $2 $3 $4 $5 $6 $7 $8 $9 X,Y pos of 4 corners*
0 Add a 4 corners polygon primitive as box body*
4,1,4,$2,$3,$4,$5,$6,$7,$8,$9,$2,$3,0*
0 Add four circle primitives for the rounded corners*
1,1,$1+$1,$2,$3*
1,1,$1+$1,$4,$5*
1,1,$1+$1,$6,$7*
1,1,$1+$1,$8,$9*
0 Add four rect primitives between the rounded corners*
20,1,$1+$1,$2,$3,$4,$5,0*
20,1,$1+$1,$4,$5,$6,$7,0*
20,1,$1+$1,$6,$7,$8,$9,0*
20,1,$1+$1,$8,$9,$2,$3,0*%
G04 Aperture macros list end*
%ADD10RoundRect,0.250000X-0.350000X-0.450000X0.350000X-0.450000X0.350000X0.450000X-0.350000X0.450000X0*%
%ADD11RoundRect,0.375000X-0.375000X0.625000X-0.375000X-0.625000X0.375000X-0.625000X0.375000X0.625000X0*%
%ADD12RoundRect,0.500000X-1.400000X0.500000X-1.400000X-0.500000X1.400000X-0.500000X1.400000X0.500000X0*%
%ADD13R,1.700000X1.700000*%
%ADD14C,1.700000*%
%ADD15R,1.800000X1.800000*%
%ADD16C,1.800000*%
%ADD17C,3.200000*%
%ADD18RoundRect,0.250000X0.350000X0.450000X-0.350000X0.450000X-0.350000X-0.450000X0.350000X-0.450000X0*%
%ADD19RoundRect,0.250001X0.924999X-0.499999X0.924999X0.499999X-0.924999X0.499999X-0.924999X-0.499999X0*%
%ADD20O,1.700000X1.700000*%
%ADD21RoundRect,0.250000X1.000000X-1.950000X1.000000X1.950000X-1.000000X1.950000X-1.000000X-1.950000X0*%
%ADD22R,3.500000X3.500000*%
%ADD23RoundRect,0.750000X-1.000000X0.750000X-1.000000X-0.750000X1.000000X-0.750000X1.000000X0.750000X0*%
%ADD24RoundRect,0.875000X-0.875000X0.875000X-0.875000X-0.875000X0.875000X-0.875000X0.875000X0.875000X0*%
%ADD25RoundRect,0.250000X-0.650000X0.412500X-0.650000X-0.412500X0.650000X-0.412500X0.650000X0.412500X0*%
%ADD26R,3.000000X3.000000*%
%ADD27C,3.000000*%
%ADD28RoundRect,0.250000X0.250000X-0.525000X0.250000X0.525000X-0.250000X0.525000X-0.250000X-0.525000X0*%
G04 APERTURE END LIST*
D10*
X123600000Y-77200000D03*
X125600000Y-77200000D03*
D11*
X172550000Y-70350000D03*
X170250000Y-70350000D03*
D12*
X170250000Y-76650000D03*
D11*
X167950000Y-70350000D03*
D13*
X167210500Y-107575000D03*
D14*
X169750500Y-107575000D03*
X167210500Y-110115000D03*
X169750500Y-110115000D03*
X167210500Y-112655000D03*
X169750500Y-112655000D03*
X167210500Y-115195000D03*
X169750500Y-115195000D03*
D13*
X161620000Y-123460000D03*
D14*
X161620000Y-126000000D03*
X159080000Y-123460000D03*
X159080000Y-126000000D03*
X156540000Y-123460000D03*
X156540000Y-126000000D03*
X154000000Y-123460000D03*
X154000000Y-126000000D03*
D13*
X132250000Y-69260000D03*
D14*
X132250000Y-71800000D03*
X132250000Y-74340000D03*
X132250000Y-76880000D03*
X132250000Y-79420000D03*
X132250000Y-81960000D03*
X132250000Y-84500000D03*
X132250000Y-87040000D03*
X132250000Y-89580000D03*
X132250000Y-92120000D03*
X132250000Y-94660000D03*
X132250000Y-97200000D03*
X132250000Y-99740000D03*
X132250000Y-102280000D03*
X132250000Y-104820000D03*
X132250000Y-107360000D03*
X132250000Y-109900000D03*
X132250000Y-112440000D03*
X132250000Y-114980000D03*
X132250000Y-117520000D03*
X147490000Y-117520000D03*
X147490000Y-114980000D03*
X147490000Y-112440000D03*
X147490000Y-109900000D03*
X147490000Y-107360000D03*
X147490000Y-104820000D03*
X147490000Y-102280000D03*
X147490000Y-99740000D03*
X147490000Y-97200000D03*
X147490000Y-94660000D03*
X147490000Y-92120000D03*
X147490000Y-89580000D03*
X147490000Y-87040000D03*
X147490000Y-84500000D03*
X147490000Y-81960000D03*
X147490000Y-79420000D03*
X147490000Y-76880000D03*
X147490000Y-74340000D03*
X147490000Y-71800000D03*
X147490000Y-69260000D03*
D10*
X130750000Y-129000000D03*
X132750000Y-129000000D03*
D15*
X112780000Y-104880000D03*
D16*
X115320000Y-104880000D03*
D17*
X185000000Y-128500000D03*
D18*
X126250000Y-119500000D03*
X124250000Y-119500000D03*
D13*
X167610500Y-89580000D03*
D14*
X170150500Y-89580000D03*
X167610500Y-92120000D03*
X170150500Y-92120000D03*
X167610500Y-94660000D03*
X170150500Y-94660000D03*
X167610500Y-97200000D03*
X170150500Y-97200000D03*
D19*
X176750000Y-76625000D03*
X176750000Y-73375000D03*
D15*
X112780000Y-95880000D03*
D16*
X115320000Y-95880000D03*
D13*
X130300000Y-126025000D03*
D20*
X127760000Y-126025000D03*
X125220000Y-126025000D03*
X122680000Y-126025000D03*
D10*
X138100000Y-72500000D03*
X136100000Y-72500000D03*
D17*
X185000000Y-56000000D03*
D18*
X121000000Y-114500000D03*
X119000000Y-114500000D03*
D21*
X158000000Y-59800000D03*
X158000000Y-67200000D03*
D22*
X171900000Y-65400000D03*
D23*
X171900000Y-59400000D03*
D24*
X167200000Y-62400000D03*
D18*
X120820000Y-95880000D03*
X118820000Y-95880000D03*
D25*
X164750000Y-70687500D03*
X164750000Y-73812500D03*
D10*
X123600000Y-67000000D03*
X125600000Y-67000000D03*
D18*
X120820000Y-105000000D03*
X118820000Y-105000000D03*
D15*
X112820000Y-114380000D03*
D16*
X115360000Y-114380000D03*
D26*
X135950000Y-55350000D03*
D27*
X141030000Y-55350000D03*
X146110000Y-55350000D03*
D26*
X114500000Y-77000000D03*
D27*
X114500000Y-71920000D03*
X114500000Y-66840000D03*
D18*
X121320000Y-86380000D03*
X119320000Y-86380000D03*
D15*
X112545000Y-86380000D03*
D16*
X115085000Y-86380000D03*
D28*
X124200000Y-59850000D03*
X124200000Y-54600000D03*
X127400000Y-59850000D03*
X127400000Y-54600000D03*
D10*
X138100000Y-69000000D03*
X136100000Y-69000000D03*
D17*
X115500000Y-56000000D03*
X115500000Y-128500000D03*
M02*
