M48
; DRILL file {KiCad 8.0.5-dirty} date 2024-09-27T12:44:02+0530
; FORMAT={-:-/ absolute / inch / decimal}
; #@! TF.CreationDate,2024-09-27T12:44:02+05:30
; #@! TF.GenerationSoftware,Kicad,Pcbnew,8.0.5-dirty
; #@! TF.FileFunction,MixedPlating,1,2
FMAT,2
INCH
; #@! TA.AperFunction,Plated,PTH,ViaDrill
T1C0.0157
; #@! TA.AperFunction,Plated,PTH,ComponentDrill
T2C0.0354
; #@! TA.AperFunction,Plated,PTH,ComponentDrill
T3C0.0394
; #@! TA.AperFunction,Plated,PTH,ComponentDrill
T4C0.0598
; #@! TA.AperFunction,NonPlated,NPTH,ComponentDrill
T5C0.1260
%
G90
G05
T1
X4.8898Y-2.438
X5.4823Y-4.9606
X5.6201Y-4.9606
X6.122Y-2.4016
X6.2205Y-2.2205
X6.2677Y-3.4488
X6.2795Y-3.6772
X6.2795Y-3.7795
X6.2992Y-4.315
X6.3071Y-4.0394
X6.3189Y-2.4016
X6.3386Y-5.0886
X6.3465Y-3.5276
X6.3976Y-2.9134
X6.4016Y-2.9843
X6.4331Y-3.7874
X6.4331Y-3.874
X6.4803Y-4.0394
X6.4803Y-4.3386
X6.4961Y-2.9921
X6.4961Y-5.0886
X6.8346Y-3.3465
X6.8346Y-3.5906
X6.8425Y-4.1811
X6.8425Y-4.2913
X6.8898Y-2.7756
X6.9291Y-3.4724
X6.9291Y-3.5906
X6.9291Y-3.7323
X6.9606Y-2.8071
X6.9921Y-3.7953
X6.9921Y-4.1811
X6.9921Y-4.2992
X7.0197Y-2.7756
X7.0236Y-3.4724
X7.0236Y-3.5906
T2
X4.4309Y-3.4008
X4.4402Y-3.7748
X4.4402Y-4.1291
X4.4417Y-4.5031
X4.5309Y-3.4008
X4.5402Y-3.7748
X4.5402Y-4.1291
X4.5417Y-4.5031
T3
X4.8299Y-4.9616
X4.9299Y-4.9616
X5.0299Y-4.9616
X5.1299Y-4.9616
X5.2067Y-2.7268
X5.2067Y-2.8268
X5.2067Y-2.9268
X5.2067Y-3.0268
X5.2067Y-3.1268
X5.2067Y-3.2268
X5.2067Y-3.3268
X5.2067Y-3.4268
X5.2067Y-3.5268
X5.2067Y-3.6268
X5.2067Y-3.7268
X5.2067Y-3.8268
X5.2067Y-3.9268
X5.2067Y-4.0268
X5.2067Y-4.1268
X5.2067Y-4.2268
X5.2067Y-4.3268
X5.2067Y-4.4268
X5.2067Y-4.5268
X5.2067Y-4.6268
X5.8067Y-2.7268
X5.8067Y-2.8268
X5.8067Y-2.9268
X5.8067Y-3.0268
X5.8067Y-3.1268
X5.8067Y-3.2268
X5.8067Y-3.3268
X5.8067Y-3.4268
X5.8067Y-3.5268
X5.8067Y-3.6268
X5.8067Y-3.7268
X5.8067Y-3.8268
X5.8067Y-3.9268
X5.8067Y-4.0268
X5.8067Y-4.1268
X5.8067Y-4.2268
X5.8067Y-4.3268
X5.8067Y-4.4268
X5.8067Y-4.5268
X5.8067Y-4.6268
X6.063Y-4.8606
X6.063Y-4.9606
X6.163Y-4.8606
X6.163Y-4.9606
X6.263Y-4.8606
X6.263Y-4.9606
X6.363Y-4.8606
X6.363Y-4.9606
X6.5831Y-4.2352
X6.5831Y-4.3352
X6.5831Y-4.4352
X6.5831Y-4.5352
X6.5988Y-3.5268
X6.5988Y-3.6268
X6.5988Y-3.7268
X6.5988Y-3.8268
X6.6831Y-4.2352
X6.6831Y-4.3352
X6.6831Y-4.4352
X6.6831Y-4.5352
X6.6988Y-3.5268
X6.6988Y-3.6268
X6.6988Y-3.7268
X6.6988Y-3.8268
T4
X4.5079Y-2.6315
X4.5079Y-2.8315
X4.5079Y-3.0315
X5.3524Y-2.1791
X5.5524Y-2.1791
X5.7524Y-2.1791
T5
X4.5472Y-2.2047
X4.5472Y-5.0591
X7.2835Y-2.2047
X7.2835Y-5.0591
T3
X6.5827Y-2.4173G85X6.5827Y-2.4961
G05
X6.8071Y-2.3386G85X6.7283Y-2.3386
G05
X6.8071Y-2.5748G85X6.7283Y-2.5748
G05
M30
