G04 #@! TF.GenerationSoftware,KiCad,Pcbnew,8.0.6*
G04 #@! TF.CreationDate,2024-10-18T14:11:24+05:30*
G04 #@! TF.ProjectId,Nodes,4e6f6465-732e-46b6-9963-61645f706362,1.1*
G04 #@! TF.SameCoordinates,Original*
G04 #@! TF.FileFunction,Soldermask,Bot*
G04 #@! TF.FilePolarity,Negative*
%FSLAX46Y46*%
G04 Gerber Fmt 4.6, Leading zero omitted, Abs format (unit mm)*
G04 Created by KiCad (PCBNEW 8.0.6) date 2024-10-18 14:11:24*
%MOMM*%
%LPD*%
G01*
G04 APERTURE LIST*
G04 Aperture macros list*
%AMRoundRect*
0 Rectangle with rounded corners*
0 $1 Rounding radius*
0 $2 $3 $4 $5 $6 $7 $8 $9 X,Y pos of 4 corners*
0 Add a 4 corners polygon primitive as box body*
4,1,4,$2,$3,$4,$5,$6,$7,$8,$9,$2,$3,0*
0 Add four circle primitives for the rounded corners*
1,1,$1+$1,$2,$3*
1,1,$1+$1,$4,$5*
1,1,$1+$1,$6,$7*
1,1,$1+$1,$8,$9*
0 Add four rect primitives between the rounded corners*
20,1,$1+$1,$2,$3,$4,$5,0*
20,1,$1+$1,$4,$5,$6,$7,0*
20,1,$1+$1,$6,$7,$8,$9,0*
20,1,$1+$1,$8,$9,$2,$3,0*%
G04 Aperture macros list end*
%ADD10R,1.700000X1.700000*%
%ADD11C,1.700000*%
%ADD12R,1.800000X1.800000*%
%ADD13C,1.800000*%
%ADD14C,3.200000*%
%ADD15O,1.700000X1.700000*%
%ADD16R,3.500000X3.500000*%
%ADD17RoundRect,0.750000X-1.000000X0.750000X-1.000000X-0.750000X1.000000X-0.750000X1.000000X0.750000X0*%
%ADD18RoundRect,0.875000X-0.875000X0.875000X-0.875000X-0.875000X0.875000X-0.875000X0.875000X0.875000X0*%
%ADD19R,3.000000X3.000000*%
%ADD20C,3.000000*%
G04 APERTURE END LIST*
D10*
X167210500Y-107575000D03*
D11*
X169750500Y-107575000D03*
X167210500Y-110115000D03*
X169750500Y-110115000D03*
X167210500Y-112655000D03*
X169750500Y-112655000D03*
X167210500Y-115195000D03*
X169750500Y-115195000D03*
D10*
X161620000Y-123460000D03*
D11*
X161620000Y-126000000D03*
X159080000Y-123460000D03*
X159080000Y-126000000D03*
X156540000Y-123460000D03*
X156540000Y-126000000D03*
X154000000Y-123460000D03*
X154000000Y-126000000D03*
D10*
X132250000Y-69260000D03*
D11*
X132250000Y-71800000D03*
X132250000Y-74340000D03*
X132250000Y-76880000D03*
X132250000Y-79420000D03*
X132250000Y-81960000D03*
X132250000Y-84500000D03*
X132250000Y-87040000D03*
X132250000Y-89580000D03*
X132250000Y-92120000D03*
X132250000Y-94660000D03*
X132250000Y-97200000D03*
X132250000Y-99740000D03*
X132250000Y-102280000D03*
X132250000Y-104820000D03*
X132250000Y-107360000D03*
X132250000Y-109900000D03*
X132250000Y-112440000D03*
X132250000Y-114980000D03*
X132250000Y-117520000D03*
X147490000Y-117520000D03*
X147490000Y-114980000D03*
X147490000Y-112440000D03*
X147490000Y-109900000D03*
X147490000Y-107360000D03*
X147490000Y-104820000D03*
X147490000Y-102280000D03*
X147490000Y-99740000D03*
X147490000Y-97200000D03*
X147490000Y-94660000D03*
X147490000Y-92120000D03*
X147490000Y-89580000D03*
X147490000Y-87040000D03*
X147490000Y-84500000D03*
X147490000Y-81960000D03*
X147490000Y-79420000D03*
X147490000Y-76880000D03*
X147490000Y-74340000D03*
X147490000Y-71800000D03*
X147490000Y-69260000D03*
D12*
X112780000Y-104880000D03*
D13*
X115320000Y-104880000D03*
D14*
X185000000Y-128500000D03*
D10*
X167610500Y-89580000D03*
D11*
X170150500Y-89580000D03*
X167610500Y-92120000D03*
X170150500Y-92120000D03*
X167610500Y-94660000D03*
X170150500Y-94660000D03*
X167610500Y-97200000D03*
X170150500Y-97200000D03*
D12*
X112780000Y-95880000D03*
D13*
X115320000Y-95880000D03*
D10*
X130300000Y-126025000D03*
D15*
X127760000Y-126025000D03*
X125220000Y-126025000D03*
X122680000Y-126025000D03*
D14*
X185000000Y-56000000D03*
D16*
X171900000Y-65400000D03*
D17*
X171900000Y-59400000D03*
D18*
X167200000Y-62400000D03*
D12*
X112820000Y-114380000D03*
D13*
X115360000Y-114380000D03*
D19*
X135950000Y-55350000D03*
D20*
X141030000Y-55350000D03*
X146110000Y-55350000D03*
D19*
X114500000Y-77000000D03*
D20*
X114500000Y-71920000D03*
X114500000Y-66840000D03*
D12*
X112545000Y-86380000D03*
D13*
X115085000Y-86380000D03*
D14*
X115500000Y-56000000D03*
X115500000Y-128500000D03*
M02*
