G04 #@! TF.GenerationSoftware,KiCad,Pcbnew,8.0.6*
G04 #@! TF.CreationDate,2024-10-18T14:11:23+05:30*
G04 #@! TF.ProjectId,Nodes,4e6f6465-732e-46b6-9963-61645f706362,1.1*
G04 #@! TF.SameCoordinates,Original*
G04 #@! TF.FileFunction,Copper,L1,Top*
G04 #@! TF.FilePolarity,Positive*
%FSLAX46Y46*%
G04 Gerber Fmt 4.6, Leading zero omitted, Abs format (unit mm)*
G04 Created by KiCad (PCBNEW 8.0.6) date 2024-10-18 14:11:23*
%MOMM*%
%LPD*%
G01*
G04 APERTURE LIST*
G04 Aperture macros list*
%AMRoundRect*
0 Rectangle with rounded corners*
0 $1 Rounding radius*
0 $2 $3 $4 $5 $6 $7 $8 $9 X,Y pos of 4 corners*
0 Add a 4 corners polygon primitive as box body*
4,1,4,$2,$3,$4,$5,$6,$7,$8,$9,$2,$3,0*
0 Add four circle primitives for the rounded corners*
1,1,$1+$1,$2,$3*
1,1,$1+$1,$4,$5*
1,1,$1+$1,$6,$7*
1,1,$1+$1,$8,$9*
0 Add four rect primitives between the rounded corners*
20,1,$1+$1,$2,$3,$4,$5,0*
20,1,$1+$1,$4,$5,$6,$7,0*
20,1,$1+$1,$6,$7,$8,$9,0*
20,1,$1+$1,$8,$9,$2,$3,0*%
G04 Aperture macros list end*
G04 #@! TA.AperFunction,SMDPad,CuDef*
%ADD10RoundRect,0.300000X0.300000X-0.587500X0.300000X0.587500X-0.300000X0.587500X-0.300000X-0.587500X0*%
G04 #@! TD*
G04 #@! TA.AperFunction,SMDPad,CuDef*
%ADD11RoundRect,0.375000X-0.375000X0.625000X-0.375000X-0.625000X0.375000X-0.625000X0.375000X0.625000X0*%
G04 #@! TD*
G04 #@! TA.AperFunction,SMDPad,CuDef*
%ADD12RoundRect,0.500000X-1.400000X0.500000X-1.400000X-0.500000X1.400000X-0.500000X1.400000X0.500000X0*%
G04 #@! TD*
G04 #@! TA.AperFunction,ComponentPad*
%ADD13R,1.700000X1.700000*%
G04 #@! TD*
G04 #@! TA.AperFunction,ComponentPad*
%ADD14C,1.700000*%
G04 #@! TD*
G04 #@! TA.AperFunction,SMDPad,CuDef*
%ADD15RoundRect,0.250000X-0.350000X-0.450000X0.350000X-0.450000X0.350000X0.450000X-0.350000X0.450000X0*%
G04 #@! TD*
G04 #@! TA.AperFunction,ComponentPad*
%ADD16R,1.800000X1.800000*%
G04 #@! TD*
G04 #@! TA.AperFunction,ComponentPad*
%ADD17C,1.800000*%
G04 #@! TD*
G04 #@! TA.AperFunction,SMDPad,CuDef*
%ADD18RoundRect,0.250000X0.350000X0.450000X-0.350000X0.450000X-0.350000X-0.450000X0.350000X-0.450000X0*%
G04 #@! TD*
G04 #@! TA.AperFunction,SMDPad,CuDef*
%ADD19RoundRect,0.250001X0.924999X-0.499999X0.924999X0.499999X-0.924999X0.499999X-0.924999X-0.499999X0*%
G04 #@! TD*
G04 #@! TA.AperFunction,ComponentPad*
%ADD20O,1.700000X1.700000*%
G04 #@! TD*
G04 #@! TA.AperFunction,SMDPad,CuDef*
%ADD21RoundRect,0.250000X1.000000X-1.950000X1.000000X1.950000X-1.000000X1.950000X-1.000000X-1.950000X0*%
G04 #@! TD*
G04 #@! TA.AperFunction,ComponentPad*
%ADD22R,3.500000X3.500000*%
G04 #@! TD*
G04 #@! TA.AperFunction,ComponentPad*
%ADD23RoundRect,0.750000X-1.000000X0.750000X-1.000000X-0.750000X1.000000X-0.750000X1.000000X0.750000X0*%
G04 #@! TD*
G04 #@! TA.AperFunction,ComponentPad*
%ADD24RoundRect,0.875000X-0.875000X0.875000X-0.875000X-0.875000X0.875000X-0.875000X0.875000X0.875000X0*%
G04 #@! TD*
G04 #@! TA.AperFunction,SMDPad,CuDef*
%ADD25RoundRect,0.250000X-0.650000X0.412500X-0.650000X-0.412500X0.650000X-0.412500X0.650000X0.412500X0*%
G04 #@! TD*
G04 #@! TA.AperFunction,ComponentPad*
%ADD26R,3.000000X3.000000*%
G04 #@! TD*
G04 #@! TA.AperFunction,ComponentPad*
%ADD27C,3.000000*%
G04 #@! TD*
G04 #@! TA.AperFunction,ViaPad*
%ADD28C,1.000000*%
G04 #@! TD*
G04 #@! TA.AperFunction,ViaPad*
%ADD29C,0.800000*%
G04 #@! TD*
G04 #@! TA.AperFunction,Conductor*
%ADD30C,0.300000*%
G04 #@! TD*
G04 #@! TA.AperFunction,Conductor*
%ADD31C,1.000000*%
G04 #@! TD*
G04 APERTURE END LIST*
D10*
X123400000Y-60837500D03*
X123400000Y-53725000D03*
X127900000Y-60837500D03*
X127900000Y-53725000D03*
D11*
X172550000Y-70350000D03*
X170250000Y-70350000D03*
D12*
X170250000Y-76650000D03*
D11*
X167950000Y-70350000D03*
D13*
X167210500Y-107575000D03*
D14*
X169750500Y-107575000D03*
X167210500Y-110115000D03*
X169750500Y-110115000D03*
X167210500Y-112655000D03*
X169750500Y-112655000D03*
X167210500Y-115195000D03*
X169750500Y-115195000D03*
D13*
X161620000Y-123460000D03*
D14*
X161620000Y-126000000D03*
X159080000Y-123460000D03*
X159080000Y-126000000D03*
X156540000Y-123460000D03*
X156540000Y-126000000D03*
X154000000Y-123460000D03*
X154000000Y-126000000D03*
D13*
X132250000Y-69260000D03*
D14*
X132250000Y-71800000D03*
X132250000Y-74340000D03*
X132250000Y-76880000D03*
X132250000Y-79420000D03*
X132250000Y-81960000D03*
X132250000Y-84500000D03*
X132250000Y-87040000D03*
X132250000Y-89580000D03*
X132250000Y-92120000D03*
X132250000Y-94660000D03*
X132250000Y-97200000D03*
X132250000Y-99740000D03*
X132250000Y-102280000D03*
X132250000Y-104820000D03*
X132250000Y-107360000D03*
X132250000Y-109900000D03*
X132250000Y-112440000D03*
X132250000Y-114980000D03*
X132250000Y-117520000D03*
X147490000Y-117520000D03*
X147490000Y-114980000D03*
X147490000Y-112440000D03*
X147490000Y-109900000D03*
X147490000Y-107360000D03*
X147490000Y-104820000D03*
X147490000Y-102280000D03*
X147490000Y-99740000D03*
X147490000Y-97200000D03*
X147490000Y-94660000D03*
X147490000Y-92120000D03*
X147490000Y-89580000D03*
X147490000Y-87040000D03*
X147490000Y-84500000D03*
X147490000Y-81960000D03*
X147490000Y-79420000D03*
X147490000Y-76880000D03*
X147490000Y-74340000D03*
X147490000Y-71800000D03*
X147490000Y-69260000D03*
D15*
X130750000Y-129000000D03*
X132750000Y-129000000D03*
D16*
X112780000Y-104880000D03*
D17*
X115320000Y-104880000D03*
D18*
X126250000Y-119500000D03*
X124250000Y-119500000D03*
D13*
X167610500Y-89580000D03*
D14*
X170150500Y-89580000D03*
X167610500Y-92120000D03*
X170150500Y-92120000D03*
X167610500Y-94660000D03*
X170150500Y-94660000D03*
X167610500Y-97200000D03*
X170150500Y-97200000D03*
D19*
X176750000Y-76625000D03*
X176750000Y-73375000D03*
D16*
X112780000Y-95880000D03*
D17*
X115320000Y-95880000D03*
D13*
X130300000Y-126025000D03*
D20*
X127760000Y-126025000D03*
X125220000Y-126025000D03*
X122680000Y-126025000D03*
D15*
X136100000Y-72500000D03*
X138100000Y-72500000D03*
D18*
X121000000Y-114500000D03*
X119000000Y-114500000D03*
D21*
X158000000Y-67200000D03*
X158000000Y-59800000D03*
D22*
X171900000Y-65400000D03*
D23*
X171900000Y-59400000D03*
D24*
X167200000Y-62400000D03*
D18*
X120820000Y-95880000D03*
X118820000Y-95880000D03*
D25*
X164750000Y-70687500D03*
X164750000Y-73812500D03*
D15*
X123600000Y-67000000D03*
X125600000Y-67000000D03*
D18*
X120820000Y-105000000D03*
X118820000Y-105000000D03*
D16*
X112820000Y-114380000D03*
D17*
X115360000Y-114380000D03*
D26*
X135950000Y-55350000D03*
D27*
X141030000Y-55350000D03*
X146110000Y-55350000D03*
D26*
X114500000Y-77000000D03*
D27*
X114500000Y-71920000D03*
X114500000Y-66840000D03*
D18*
X121320000Y-86380000D03*
X119320000Y-86380000D03*
D16*
X112545000Y-86380000D03*
D17*
X115085000Y-86380000D03*
D15*
X136100000Y-69000000D03*
X138100000Y-69000000D03*
X123600000Y-77200000D03*
X125600000Y-77200000D03*
D28*
X176800000Y-71300000D03*
X178300000Y-70500000D03*
D29*
X123400000Y-62700000D03*
D28*
X155500000Y-61000000D03*
X165000000Y-76000000D03*
X162600000Y-75800000D03*
X158000000Y-56400000D03*
X175000000Y-70500000D03*
X162500000Y-74000000D03*
X160500000Y-61000000D03*
D29*
X159500000Y-93400000D03*
X159500000Y-96000000D03*
X163400000Y-98400000D03*
X163400000Y-96200000D03*
X161200000Y-89600000D03*
X159200000Y-87600000D03*
X173600000Y-85000000D03*
X173600000Y-91200000D03*
X177600000Y-96400000D03*
X176000000Y-88200000D03*
X176000000Y-91200000D03*
X177600000Y-109200000D03*
X176000000Y-94800000D03*
X177600000Y-106200000D03*
X178400000Y-88200000D03*
X178400000Y-91200000D03*
X160000000Y-109600000D03*
X164600000Y-110200000D03*
X173800000Y-109000000D03*
X160200000Y-102600000D03*
X173800000Y-106200000D03*
X164600000Y-102600000D03*
X139250000Y-126000000D03*
X142750000Y-126000000D03*
X161000000Y-129250000D03*
X165000000Y-129250000D03*
D30*
X127900000Y-60837500D02*
X127900000Y-53725000D01*
X132250000Y-71800000D02*
X129400000Y-71800000D01*
X129400000Y-71800000D02*
X129000000Y-71400000D01*
X129000000Y-71400000D02*
X129000000Y-64800000D01*
X129000000Y-64800000D02*
X127900000Y-63700000D01*
X127900000Y-63700000D02*
X127900000Y-60837500D01*
D31*
X123400000Y-60837500D02*
X123400000Y-53725000D01*
X123400000Y-62700000D02*
X123400000Y-60837500D01*
X174850000Y-70350000D02*
X175000000Y-70500000D01*
D30*
X112680000Y-105080000D02*
X112880000Y-105280000D01*
D31*
X172550000Y-70350000D02*
X174850000Y-70350000D01*
X132750000Y-129000000D02*
X132750000Y-120250000D01*
X159800000Y-80200000D02*
X173175000Y-80200000D01*
X180025000Y-107575000D02*
X182200000Y-105400000D01*
X182200000Y-105400000D02*
X182200000Y-82075000D01*
X182200000Y-82075000D02*
X176750000Y-76625000D01*
X138840000Y-74340000D02*
X138100000Y-73600000D01*
X132250000Y-119750000D02*
X132250000Y-117520000D01*
X168750000Y-131750000D02*
X163000000Y-131750000D01*
X132750000Y-131750000D02*
X132750000Y-129000000D01*
X125000000Y-131750000D02*
X122680000Y-129430000D01*
X174875000Y-125625000D02*
X168750000Y-131750000D01*
X161620000Y-126000000D02*
X163000000Y-127380000D01*
X182200000Y-118300000D02*
X174875000Y-125625000D01*
X170150500Y-89600000D02*
X182200000Y-89600000D01*
X138100000Y-72500000D02*
X138100000Y-69000000D01*
X163000000Y-127380000D02*
X163000000Y-131750000D01*
X153940000Y-74340000D02*
X159800000Y-80200000D01*
X124250000Y-121250000D02*
X124250000Y-119500000D01*
X147490000Y-74340000D02*
X153940000Y-74340000D01*
X132750000Y-131750000D02*
X125000000Y-131750000D01*
X169750500Y-107575000D02*
X180025000Y-107575000D01*
X173175000Y-80200000D02*
X176750000Y-76625000D01*
X138100000Y-73600000D02*
X138100000Y-72500000D01*
X122680000Y-122820000D02*
X124250000Y-121250000D01*
X170250000Y-70350000D02*
X170250000Y-72250000D01*
X122680000Y-126025000D02*
X122680000Y-122820000D01*
X182200000Y-105400000D02*
X182200000Y-118300000D01*
X122680000Y-129430000D02*
X122680000Y-126025000D01*
X163000000Y-131750000D02*
X132750000Y-131750000D01*
X147490000Y-74340000D02*
X138840000Y-74340000D01*
X132750000Y-120250000D02*
X132250000Y-119750000D01*
D30*
X119320000Y-86380000D02*
X115085000Y-86380000D01*
X118820000Y-95880000D02*
X115320000Y-95880000D01*
X118700000Y-104880000D02*
X118820000Y-105000000D01*
X115320000Y-104880000D02*
X118700000Y-104880000D01*
X118880000Y-114380000D02*
X119000000Y-114500000D01*
X115360000Y-114380000D02*
X118880000Y-114380000D01*
X130300000Y-128550000D02*
X130300000Y-126025000D01*
X129000000Y-119500000D02*
X129000000Y-108070000D01*
X129000000Y-108070000D02*
X132250000Y-104820000D01*
X130750000Y-129000000D02*
X130300000Y-128550000D01*
X130300000Y-120800000D02*
X129000000Y-119500000D01*
X130300000Y-120800000D02*
X130300000Y-126025000D01*
X126250000Y-107250000D02*
X131220000Y-102280000D01*
X126250000Y-123000000D02*
X127760000Y-124510000D01*
X126250000Y-119500000D02*
X126250000Y-123000000D01*
X127760000Y-124510000D02*
X127760000Y-126025000D01*
X126250000Y-107250000D02*
X126250000Y-119500000D01*
X131220000Y-102280000D02*
X132250000Y-102280000D01*
X132250000Y-69260000D02*
X132260000Y-69260000D01*
X135900000Y-69000000D02*
X132510000Y-69000000D01*
X132250000Y-69260000D02*
X132250000Y-59050000D01*
X132510000Y-69000000D02*
X132250000Y-69260000D01*
X136100000Y-69200000D02*
X135900000Y-69000000D01*
X132260000Y-69260000D02*
X132500000Y-69500000D01*
X132250000Y-59050000D02*
X135950000Y-55350000D01*
X123600000Y-77200000D02*
X114700000Y-77200000D01*
X114700000Y-77200000D02*
X114500000Y-77000000D01*
X114500000Y-66840000D02*
X123440000Y-66840000D01*
X123440000Y-66840000D02*
X123600000Y-67000000D01*
X125600000Y-71600000D02*
X125600000Y-67000000D01*
X128250000Y-79750000D02*
X128250000Y-74250000D01*
X132250000Y-81960000D02*
X130460000Y-81960000D01*
X128250000Y-74250000D02*
X125600000Y-71600000D01*
X130460000Y-81960000D02*
X128250000Y-79750000D01*
X125650000Y-67000000D02*
X125850000Y-66800000D01*
X123880000Y-86380000D02*
X129620000Y-92120000D01*
X129620000Y-92120000D02*
X132250000Y-92120000D01*
X121320000Y-86380000D02*
X123880000Y-86380000D01*
X124620000Y-95880000D02*
X120820000Y-95880000D01*
X125840000Y-94660000D02*
X124620000Y-95880000D01*
X132250000Y-94660000D02*
X125840000Y-94660000D01*
X132250000Y-97200000D02*
X129800000Y-97200000D01*
X122000000Y-105000000D02*
X120820000Y-105000000D01*
X129800000Y-97200000D02*
X122000000Y-105000000D01*
X121000000Y-109500000D02*
X121000000Y-114500000D01*
X132250000Y-99740000D02*
X130760000Y-99740000D01*
X130760000Y-99740000D02*
X121000000Y-109500000D01*
X161400000Y-113800000D02*
X161400000Y-97200000D01*
X143380000Y-92120000D02*
X141000000Y-94500000D01*
X141000000Y-121500000D02*
X142960000Y-123460000D01*
X141000000Y-94500000D02*
X141000000Y-121500000D01*
X147490000Y-92120000D02*
X143380000Y-92120000D01*
X142960000Y-123460000D02*
X154000000Y-123460000D01*
X158220000Y-92120000D02*
X147490000Y-92120000D01*
X160700000Y-97200000D02*
X167610500Y-97200000D01*
X167210500Y-115195000D02*
X162795000Y-115195000D01*
X159500000Y-96000000D02*
X160700000Y-97200000D01*
X162795000Y-115195000D02*
X161400000Y-113800000D01*
X159500000Y-93400000D02*
X158220000Y-92120000D01*
X143750000Y-119250000D02*
X145500000Y-121000000D01*
X163800000Y-112400000D02*
X163400000Y-112000000D01*
X155500000Y-121000000D02*
X156540000Y-122040000D01*
X147490000Y-94660000D02*
X144840000Y-94660000D01*
X167210500Y-112655000D02*
X164055000Y-112655000D01*
X143750000Y-95750000D02*
X143750000Y-119250000D01*
X163400000Y-94660000D02*
X167610500Y-94660000D01*
X164055000Y-112655000D02*
X163800000Y-112400000D01*
X163400000Y-112000000D02*
X163400000Y-98400000D01*
X145500000Y-121000000D02*
X155500000Y-121000000D01*
X156540000Y-122040000D02*
X156540000Y-123460000D01*
X144840000Y-94660000D02*
X143750000Y-95750000D01*
X163400000Y-96200000D02*
X163400000Y-94660000D01*
X147490000Y-94660000D02*
X163400000Y-94660000D01*
X163720000Y-92120000D02*
X167610500Y-92120000D01*
X161200000Y-89600000D02*
X163720000Y-92120000D01*
X158640000Y-87040000D02*
X159200000Y-87600000D01*
X147490000Y-87040000D02*
X158640000Y-87040000D01*
X147790000Y-84200000D02*
X147490000Y-84500000D01*
X172800000Y-84200000D02*
X147790000Y-84200000D01*
X173600000Y-85000000D02*
X172800000Y-84200000D01*
X172680000Y-92120000D02*
X170150500Y-92120000D01*
X173600000Y-91200000D02*
X172680000Y-92120000D01*
X170150500Y-94660000D02*
X174340000Y-94660000D01*
X156540000Y-127710000D02*
X155250000Y-129000000D01*
X138000000Y-123000000D02*
X138000000Y-94000000D01*
X144000000Y-129000000D02*
X138000000Y-123000000D01*
X174145000Y-112655000D02*
X169750500Y-112655000D01*
X155250000Y-129000000D02*
X144000000Y-129000000D01*
X177600000Y-96400000D02*
X177600000Y-106200000D01*
X174340000Y-94660000D02*
X175100000Y-93900000D01*
X138000000Y-94000000D02*
X142420000Y-89580000D01*
X176000000Y-87400000D02*
X175000000Y-86400000D01*
X142420000Y-89580000D02*
X147490000Y-89580000D01*
X156540000Y-126000000D02*
X156540000Y-127710000D01*
X175100000Y-93900000D02*
X176000000Y-93000000D01*
X176000000Y-93000000D02*
X176000000Y-91200000D01*
X176000000Y-88200000D02*
X176000000Y-87400000D01*
X159220000Y-89580000D02*
X147490000Y-89580000D01*
X175000000Y-86400000D02*
X162400000Y-86400000D01*
X162400000Y-86400000D02*
X159220000Y-89580000D01*
X175100000Y-93900000D02*
X176000000Y-94800000D01*
X177600000Y-109200000D02*
X174145000Y-112655000D01*
X178400000Y-85200000D02*
X178400000Y-88200000D01*
X157200000Y-82400000D02*
X175600000Y-82400000D01*
X175200000Y-97200000D02*
X170150500Y-97200000D01*
X178400000Y-94000000D02*
X175200000Y-97200000D01*
X176000000Y-82800000D02*
X178400000Y-85200000D01*
X156760000Y-81960000D02*
X157200000Y-82400000D01*
X178400000Y-91200000D02*
X178400000Y-94000000D01*
X175600000Y-82400000D02*
X176000000Y-82800000D01*
X147490000Y-81960000D02*
X156760000Y-81960000D01*
X164600000Y-110200000D02*
X164685000Y-110115000D01*
X160000000Y-108200000D02*
X151540000Y-99740000D01*
X151540000Y-99740000D02*
X147490000Y-99740000D01*
X164685000Y-110115000D02*
X167210500Y-110115000D01*
X160000000Y-109600000D02*
X160000000Y-108200000D01*
X147490000Y-97200000D02*
X154200000Y-97200000D01*
X172685000Y-110115000D02*
X173800000Y-109000000D01*
X154200000Y-97200000D02*
X159600000Y-102600000D01*
X173600000Y-106200000D02*
X173800000Y-106200000D01*
X164600000Y-102600000D02*
X170000000Y-102600000D01*
X170000000Y-102600000D02*
X173600000Y-106200000D01*
X159600000Y-102600000D02*
X160200000Y-102600000D01*
X169750500Y-110115000D02*
X172685000Y-110115000D01*
X157500000Y-110000000D02*
X149780000Y-102280000D01*
X162500000Y-118000000D02*
X157500000Y-113000000D01*
X149780000Y-102280000D02*
X147490000Y-102280000D01*
X157500000Y-113000000D02*
X157500000Y-110000000D01*
X169000000Y-118000000D02*
X162500000Y-118000000D01*
X169750500Y-115195000D02*
X169750500Y-117249500D01*
X169750500Y-117249500D02*
X169000000Y-118000000D01*
X125600000Y-80100000D02*
X130000000Y-84500000D01*
X125600000Y-77200000D02*
X125600000Y-80100000D01*
X130000000Y-84500000D02*
X132250000Y-84500000D01*
X132250000Y-107360000D02*
X132290000Y-107400000D01*
X135500000Y-111250000D02*
X134150000Y-109900000D01*
X138250000Y-126000000D02*
X135500000Y-123250000D01*
X142750000Y-126000000D02*
X154000000Y-126000000D01*
X135500000Y-123250000D02*
X135500000Y-111250000D01*
X134150000Y-109900000D02*
X132250000Y-109900000D01*
X139250000Y-126000000D02*
X138250000Y-126000000D01*
X165000000Y-120000000D02*
X161250000Y-120000000D01*
X161250000Y-120000000D02*
X152500000Y-111250000D01*
X149320000Y-104820000D02*
X147490000Y-104820000D01*
X167750000Y-127750000D02*
X167750000Y-122750000D01*
X160750000Y-129250000D02*
X161000000Y-129250000D01*
X165000000Y-129250000D02*
X166250000Y-129250000D01*
X166250000Y-129250000D02*
X167750000Y-127750000D01*
X159080000Y-127580000D02*
X160750000Y-129250000D01*
X167750000Y-122750000D02*
X165000000Y-120000000D01*
X159080000Y-126000000D02*
X159080000Y-127580000D01*
X152500000Y-108000000D02*
X149320000Y-104820000D01*
X152500000Y-111250000D02*
X152500000Y-108000000D01*
X153750000Y-118250000D02*
X156500000Y-118250000D01*
X149610000Y-107360000D02*
X150750000Y-108500000D01*
X150750000Y-108500000D02*
X150750000Y-115250000D01*
X150750000Y-115250000D02*
X153750000Y-118250000D01*
X156500000Y-118250000D02*
X159080000Y-120830000D01*
X159080000Y-120830000D02*
X159080000Y-123460000D01*
X147490000Y-107360000D02*
X149610000Y-107360000D01*
X136100000Y-72500000D02*
X135000000Y-72500000D01*
X134300000Y-71800000D02*
X132250000Y-71800000D01*
X135000000Y-72500000D02*
X134300000Y-71800000D01*
G04 #@! TA.AperFunction,Conductor*
G36*
X179343039Y-69419685D02*
G01*
X179388794Y-69472489D01*
X179400000Y-69524000D01*
X179400000Y-74376000D01*
X179380315Y-74443039D01*
X179327511Y-74488794D01*
X179276000Y-74500000D01*
X178392865Y-74500000D01*
X178325826Y-74480315D01*
X178280071Y-74427511D01*
X178270127Y-74358353D01*
X178287326Y-74310903D01*
X178359356Y-74194123D01*
X178359358Y-74194118D01*
X178414505Y-74027696D01*
X178414506Y-74027689D01*
X178424999Y-73924985D01*
X178425000Y-73924972D01*
X178425000Y-73625000D01*
X175075000Y-73625000D01*
X175075000Y-73924985D01*
X175085493Y-74027689D01*
X175085494Y-74027696D01*
X175140641Y-74194118D01*
X175140643Y-74194123D01*
X175212674Y-74310903D01*
X175231114Y-74378296D01*
X175210191Y-74444959D01*
X175156549Y-74489729D01*
X175107135Y-74500000D01*
X174124000Y-74500000D01*
X174056961Y-74480315D01*
X174011206Y-74427511D01*
X174000000Y-74376000D01*
X174000000Y-72825014D01*
X175075000Y-72825014D01*
X175075000Y-73125000D01*
X176500000Y-73125000D01*
X177000000Y-73125000D01*
X178425000Y-73125000D01*
X178425000Y-72825027D01*
X178424999Y-72825014D01*
X178414506Y-72722310D01*
X178414505Y-72722303D01*
X178359358Y-72555881D01*
X178359356Y-72555876D01*
X178267315Y-72406655D01*
X178143344Y-72282684D01*
X177994123Y-72190643D01*
X177994118Y-72190641D01*
X177827696Y-72135494D01*
X177827689Y-72135493D01*
X177724985Y-72125000D01*
X177000000Y-72125000D01*
X177000000Y-73125000D01*
X176500000Y-73125000D01*
X176500000Y-72125000D01*
X175775014Y-72125000D01*
X175672310Y-72135493D01*
X175672303Y-72135494D01*
X175505881Y-72190641D01*
X175505876Y-72190643D01*
X175356655Y-72282684D01*
X175232684Y-72406655D01*
X175140643Y-72555876D01*
X175140641Y-72555881D01*
X175085494Y-72722303D01*
X175085493Y-72722310D01*
X175075000Y-72825014D01*
X174000000Y-72825014D01*
X174000000Y-69524000D01*
X174019685Y-69456961D01*
X174072489Y-69411206D01*
X174124000Y-69400000D01*
X179276000Y-69400000D01*
X179343039Y-69419685D01*
G37*
G04 #@! TD.AperFunction*
G04 #@! TA.AperFunction,Conductor*
G36*
X161443039Y-55419685D02*
G01*
X161488794Y-55472489D01*
X161500000Y-55524000D01*
X161500000Y-62376000D01*
X161480315Y-62443039D01*
X161427511Y-62488794D01*
X161376000Y-62500000D01*
X159610023Y-62500000D01*
X159542984Y-62480315D01*
X159497229Y-62427511D01*
X159487285Y-62358353D01*
X159516310Y-62294797D01*
X159522342Y-62288319D01*
X159592315Y-62218345D01*
X159684356Y-62069124D01*
X159684358Y-62069119D01*
X159739505Y-61902697D01*
X159739506Y-61902690D01*
X159749999Y-61799986D01*
X159750000Y-61799973D01*
X159750000Y-60050000D01*
X156250001Y-60050000D01*
X156250001Y-61799986D01*
X156260494Y-61902697D01*
X156315641Y-62069119D01*
X156315643Y-62069124D01*
X156407684Y-62218345D01*
X156477658Y-62288319D01*
X156511143Y-62349642D01*
X156506159Y-62419334D01*
X156464287Y-62475267D01*
X156398823Y-62499684D01*
X156389977Y-62500000D01*
X154424000Y-62500000D01*
X154356961Y-62480315D01*
X154311206Y-62427511D01*
X154300000Y-62376000D01*
X154300000Y-57800013D01*
X156250000Y-57800013D01*
X156250000Y-59550000D01*
X157750000Y-59550000D01*
X158250000Y-59550000D01*
X159749999Y-59550000D01*
X159749999Y-57800028D01*
X159749998Y-57800013D01*
X159739505Y-57697302D01*
X159684358Y-57530880D01*
X159684356Y-57530875D01*
X159592315Y-57381654D01*
X159468345Y-57257684D01*
X159319124Y-57165643D01*
X159319119Y-57165641D01*
X159152697Y-57110494D01*
X159152690Y-57110493D01*
X159049986Y-57100000D01*
X158250000Y-57100000D01*
X158250000Y-59550000D01*
X157750000Y-59550000D01*
X157750000Y-57100000D01*
X156950028Y-57100000D01*
X156950012Y-57100001D01*
X156847302Y-57110494D01*
X156680880Y-57165641D01*
X156680875Y-57165643D01*
X156531654Y-57257684D01*
X156407684Y-57381654D01*
X156315643Y-57530875D01*
X156315641Y-57530880D01*
X156260494Y-57697302D01*
X156260493Y-57697309D01*
X156250000Y-57800013D01*
X154300000Y-57800013D01*
X154300000Y-55524000D01*
X154319685Y-55456961D01*
X154372489Y-55411206D01*
X154424000Y-55400000D01*
X161376000Y-55400000D01*
X161443039Y-55419685D01*
G37*
G04 #@! TD.AperFunction*
G04 #@! TA.AperFunction,Conductor*
G36*
X149443039Y-51919685D02*
G01*
X149488794Y-51972489D01*
X149500000Y-52024000D01*
X149500000Y-63500000D01*
X153700000Y-63500000D01*
X153700000Y-66700000D01*
X143624000Y-66700000D01*
X143556961Y-66680315D01*
X143511206Y-66627511D01*
X143500000Y-66576000D01*
X143500000Y-55349998D01*
X144104891Y-55349998D01*
X144104891Y-55350001D01*
X144125300Y-55635362D01*
X144186109Y-55914895D01*
X144286091Y-56182958D01*
X144423191Y-56434038D01*
X144423196Y-56434046D01*
X144529882Y-56576561D01*
X144529883Y-56576562D01*
X145424767Y-55681677D01*
X145436497Y-55709995D01*
X145519670Y-55834472D01*
X145625528Y-55940330D01*
X145750005Y-56023503D01*
X145778320Y-56035231D01*
X144883436Y-56930115D01*
X145025960Y-57036807D01*
X145025961Y-57036808D01*
X145277042Y-57173908D01*
X145277041Y-57173908D01*
X145545104Y-57273890D01*
X145824637Y-57334699D01*
X146109999Y-57355109D01*
X146110001Y-57355109D01*
X146395362Y-57334699D01*
X146674895Y-57273890D01*
X146942958Y-57173908D01*
X147194047Y-57036803D01*
X147336561Y-56930116D01*
X147336562Y-56930115D01*
X146441679Y-56035231D01*
X146469995Y-56023503D01*
X146594472Y-55940330D01*
X146700330Y-55834472D01*
X146783503Y-55709995D01*
X146795231Y-55681678D01*
X147690115Y-56576562D01*
X147690116Y-56576561D01*
X147796803Y-56434047D01*
X147933908Y-56182958D01*
X148033890Y-55914895D01*
X148094699Y-55635362D01*
X148115109Y-55350001D01*
X148115109Y-55349998D01*
X148094699Y-55064637D01*
X148033890Y-54785104D01*
X147933908Y-54517041D01*
X147796808Y-54265961D01*
X147796807Y-54265960D01*
X147690115Y-54123436D01*
X146795231Y-55018320D01*
X146783503Y-54990005D01*
X146700330Y-54865528D01*
X146594472Y-54759670D01*
X146469995Y-54676497D01*
X146441678Y-54664767D01*
X147336562Y-53769883D01*
X147336561Y-53769882D01*
X147194046Y-53663196D01*
X147194038Y-53663191D01*
X146942957Y-53526091D01*
X146942958Y-53526091D01*
X146674895Y-53426109D01*
X146395362Y-53365300D01*
X146110001Y-53344891D01*
X146109999Y-53344891D01*
X145824637Y-53365300D01*
X145545104Y-53426109D01*
X145277041Y-53526091D01*
X145025961Y-53663191D01*
X145025953Y-53663196D01*
X144883437Y-53769882D01*
X144883436Y-53769883D01*
X145778321Y-54664767D01*
X145750005Y-54676497D01*
X145625528Y-54759670D01*
X145519670Y-54865528D01*
X145436497Y-54990005D01*
X145424768Y-55018321D01*
X144529883Y-54123436D01*
X144529882Y-54123437D01*
X144423196Y-54265953D01*
X144423191Y-54265961D01*
X144286091Y-54517041D01*
X144186109Y-54785104D01*
X144125300Y-55064637D01*
X144104891Y-55349998D01*
X143500000Y-55349998D01*
X143500000Y-52051362D01*
X143519685Y-51984323D01*
X143536319Y-51963681D01*
X143563681Y-51936319D01*
X143625004Y-51902834D01*
X143651362Y-51900000D01*
X149376000Y-51900000D01*
X149443039Y-51919685D01*
G37*
G04 #@! TD.AperFunction*
G04 #@! TA.AperFunction,Conductor*
G36*
X164932250Y-63519685D02*
G01*
X164978005Y-63572489D01*
X164986955Y-63600455D01*
X164996753Y-63651120D01*
X165079425Y-63870189D01*
X165197929Y-64072131D01*
X165197934Y-64072138D01*
X165348856Y-64251141D01*
X165348858Y-64251143D01*
X165527861Y-64402065D01*
X165527868Y-64402070D01*
X165729810Y-64520574D01*
X165948874Y-64603245D01*
X166178759Y-64647705D01*
X166231378Y-64650500D01*
X166231386Y-64650500D01*
X168168614Y-64650500D01*
X168168622Y-64650500D01*
X168221241Y-64647705D01*
X168451126Y-64603245D01*
X168670190Y-64520574D01*
X168872132Y-64402070D01*
X169051142Y-64251142D01*
X169202070Y-64072132D01*
X169320574Y-63870190D01*
X169403245Y-63651126D01*
X169404256Y-63645901D01*
X169436311Y-63583818D01*
X169496841Y-63548921D01*
X169566630Y-63552289D01*
X169623519Y-63592853D01*
X169649446Y-63657734D01*
X169650000Y-63669444D01*
X169650000Y-65150000D01*
X170466988Y-65150000D01*
X170434075Y-65207007D01*
X170400000Y-65334174D01*
X170400000Y-65465826D01*
X170434075Y-65592993D01*
X170466988Y-65650000D01*
X169650000Y-65650000D01*
X169650000Y-67197844D01*
X169656401Y-67257372D01*
X169656403Y-67257379D01*
X169706645Y-67392086D01*
X169706649Y-67392093D01*
X169792809Y-67507187D01*
X169792812Y-67507190D01*
X169907906Y-67593350D01*
X169907913Y-67593354D01*
X170042620Y-67643596D01*
X170042627Y-67643598D01*
X170102155Y-67649999D01*
X170102172Y-67650000D01*
X171650000Y-67650000D01*
X171650000Y-65900000D01*
X172150000Y-65900000D01*
X172150000Y-67650000D01*
X173697828Y-67650000D01*
X173697844Y-67649999D01*
X173757372Y-67643598D01*
X173757379Y-67643596D01*
X173892086Y-67593354D01*
X173892093Y-67593350D01*
X174007187Y-67507190D01*
X174007190Y-67507187D01*
X174093350Y-67392093D01*
X174093354Y-67392086D01*
X174143596Y-67257379D01*
X174143598Y-67257372D01*
X174149999Y-67197844D01*
X174150000Y-67197827D01*
X174150000Y-65650000D01*
X173333012Y-65650000D01*
X173365925Y-65592993D01*
X173400000Y-65465826D01*
X173400000Y-65334174D01*
X173365925Y-65207007D01*
X173333012Y-65150000D01*
X174150000Y-65150000D01*
X174150000Y-63624000D01*
X174169685Y-63556961D01*
X174222489Y-63511206D01*
X174274000Y-63500000D01*
X174876000Y-63500000D01*
X174943039Y-63519685D01*
X174988794Y-63572489D01*
X175000000Y-63624000D01*
X175000000Y-68376000D01*
X174980315Y-68443039D01*
X174927511Y-68488794D01*
X174876000Y-68500000D01*
X169000000Y-68500000D01*
X169000000Y-68886172D01*
X168980315Y-68953211D01*
X168927511Y-68998966D01*
X168858353Y-69008910D01*
X168805395Y-68985901D01*
X168804686Y-68987011D01*
X168799022Y-68983390D01*
X168628523Y-68898831D01*
X168443824Y-68852897D01*
X168401097Y-68850000D01*
X168200000Y-68850000D01*
X168200000Y-71850000D01*
X168401097Y-71850000D01*
X168443824Y-71847102D01*
X168628523Y-71801168D01*
X168799022Y-71716609D01*
X168804686Y-71712989D01*
X168805475Y-71714223D01*
X168862895Y-71690521D01*
X168931640Y-71703011D01*
X168982719Y-71750683D01*
X169000000Y-71813827D01*
X169000000Y-72126000D01*
X168980315Y-72193039D01*
X168927511Y-72238794D01*
X168876000Y-72250000D01*
X161124000Y-72250000D01*
X161056961Y-72230315D01*
X161011206Y-72177511D01*
X161000000Y-72126000D01*
X161000000Y-71149986D01*
X163350001Y-71149986D01*
X163360494Y-71252697D01*
X163415641Y-71419119D01*
X163415643Y-71419124D01*
X163507684Y-71568345D01*
X163631654Y-71692315D01*
X163780875Y-71784356D01*
X163780880Y-71784358D01*
X163947302Y-71839505D01*
X163947309Y-71839506D01*
X164050019Y-71849999D01*
X164499999Y-71849999D01*
X165000000Y-71849999D01*
X165449972Y-71849999D01*
X165449986Y-71849998D01*
X165552697Y-71839505D01*
X165719119Y-71784358D01*
X165719124Y-71784356D01*
X165868345Y-71692315D01*
X165992315Y-71568345D01*
X166084356Y-71419124D01*
X166084358Y-71419119D01*
X166139505Y-71252697D01*
X166139506Y-71252690D01*
X166149999Y-71149986D01*
X166150000Y-71149973D01*
X166150000Y-71051096D01*
X166700000Y-71051096D01*
X166702897Y-71093824D01*
X166748831Y-71278523D01*
X166833390Y-71449022D01*
X166833392Y-71449025D01*
X166952632Y-71597366D01*
X166952633Y-71597367D01*
X167100974Y-71716607D01*
X167100977Y-71716609D01*
X167271476Y-71801168D01*
X167456175Y-71847102D01*
X167498903Y-71850000D01*
X167700000Y-71850000D01*
X167700000Y-70600000D01*
X166700000Y-70600000D01*
X166700000Y-71051096D01*
X166150000Y-71051096D01*
X166150000Y-70937500D01*
X165000000Y-70937500D01*
X165000000Y-71849999D01*
X164499999Y-71849999D01*
X164500000Y-71849998D01*
X164500000Y-70937500D01*
X163350001Y-70937500D01*
X163350001Y-71149986D01*
X161000000Y-71149986D01*
X161000000Y-70500000D01*
X153624000Y-70500000D01*
X153556961Y-70480315D01*
X153511206Y-70427511D01*
X153500000Y-70376000D01*
X153500000Y-70225013D01*
X163350000Y-70225013D01*
X163350000Y-70437500D01*
X164500000Y-70437500D01*
X165000000Y-70437500D01*
X166149999Y-70437500D01*
X166149999Y-70225028D01*
X166149998Y-70225013D01*
X166139505Y-70122302D01*
X166084358Y-69955880D01*
X166084356Y-69955875D01*
X165992315Y-69806654D01*
X165868345Y-69682684D01*
X165813578Y-69648903D01*
X166700000Y-69648903D01*
X166700000Y-70100000D01*
X167700000Y-70100000D01*
X167700000Y-68850000D01*
X167498903Y-68850000D01*
X167456175Y-68852897D01*
X167271476Y-68898831D01*
X167100977Y-68983390D01*
X167100974Y-68983392D01*
X166952633Y-69102632D01*
X166952632Y-69102633D01*
X166833392Y-69250974D01*
X166833390Y-69250977D01*
X166748831Y-69421476D01*
X166702897Y-69606175D01*
X166700000Y-69648903D01*
X165813578Y-69648903D01*
X165719124Y-69590643D01*
X165719119Y-69590641D01*
X165552697Y-69535494D01*
X165552690Y-69535493D01*
X165449986Y-69525000D01*
X165000000Y-69525000D01*
X165000000Y-70437500D01*
X164500000Y-70437500D01*
X164500000Y-69525000D01*
X164050028Y-69525000D01*
X164050012Y-69525001D01*
X163947302Y-69535494D01*
X163780880Y-69590641D01*
X163780875Y-69590643D01*
X163631654Y-69682684D01*
X163507684Y-69806654D01*
X163415643Y-69955875D01*
X163415641Y-69955880D01*
X163360494Y-70122302D01*
X163360493Y-70122309D01*
X163350000Y-70225013D01*
X153500000Y-70225013D01*
X153500000Y-69199986D01*
X156250001Y-69199986D01*
X156260494Y-69302697D01*
X156315641Y-69469119D01*
X156315643Y-69469124D01*
X156407684Y-69618345D01*
X156531654Y-69742315D01*
X156680875Y-69834356D01*
X156680880Y-69834358D01*
X156847302Y-69889505D01*
X156847309Y-69889506D01*
X156950019Y-69899999D01*
X157749999Y-69899999D01*
X158250000Y-69899999D01*
X159049972Y-69899999D01*
X159049986Y-69899998D01*
X159152697Y-69889505D01*
X159319119Y-69834358D01*
X159319124Y-69834356D01*
X159468345Y-69742315D01*
X159592315Y-69618345D01*
X159684356Y-69469124D01*
X159684358Y-69469119D01*
X159739505Y-69302697D01*
X159739506Y-69302690D01*
X159749999Y-69199986D01*
X159750000Y-69199973D01*
X159750000Y-67450000D01*
X158250000Y-67450000D01*
X158250000Y-69899999D01*
X157749999Y-69899999D01*
X157750000Y-69899998D01*
X157750000Y-67450000D01*
X156250001Y-67450000D01*
X156250001Y-69199986D01*
X153500000Y-69199986D01*
X153500000Y-66700000D01*
X153500000Y-65200013D01*
X156250000Y-65200013D01*
X156250000Y-66950000D01*
X157750000Y-66950000D01*
X158250000Y-66950000D01*
X159749999Y-66950000D01*
X159749999Y-65200028D01*
X159749998Y-65200013D01*
X159739505Y-65097302D01*
X159684358Y-64930880D01*
X159684356Y-64930875D01*
X159592315Y-64781654D01*
X159468345Y-64657684D01*
X159319124Y-64565643D01*
X159319119Y-64565641D01*
X159152697Y-64510494D01*
X159152690Y-64510493D01*
X159049986Y-64500000D01*
X158250000Y-64500000D01*
X158250000Y-66950000D01*
X157750000Y-66950000D01*
X157750000Y-64500000D01*
X156950028Y-64500000D01*
X156950012Y-64500001D01*
X156847302Y-64510494D01*
X156680880Y-64565641D01*
X156680875Y-64565643D01*
X156531654Y-64657684D01*
X156407684Y-64781654D01*
X156315643Y-64930875D01*
X156315641Y-64930880D01*
X156260494Y-65097302D01*
X156260493Y-65097309D01*
X156250000Y-65200013D01*
X153500000Y-65200013D01*
X153500000Y-63500000D01*
X164865211Y-63500000D01*
X164932250Y-63519685D01*
G37*
G04 #@! TD.AperFunction*
G04 #@! TA.AperFunction,Conductor*
G36*
X163461201Y-72775185D02*
G01*
X163506956Y-72827989D01*
X163516900Y-72897147D01*
X163499701Y-72944597D01*
X163415643Y-73080875D01*
X163415641Y-73080880D01*
X163360494Y-73247302D01*
X163360493Y-73247309D01*
X163350000Y-73350013D01*
X163350000Y-73562500D01*
X166149999Y-73562500D01*
X166149999Y-73350028D01*
X166149998Y-73350013D01*
X166139505Y-73247302D01*
X166084358Y-73080880D01*
X166084356Y-73080875D01*
X166000299Y-72944597D01*
X165981859Y-72877204D01*
X166002782Y-72810541D01*
X166056424Y-72765771D01*
X166105838Y-72755500D01*
X166276000Y-72755500D01*
X166343039Y-72775185D01*
X166388794Y-72827989D01*
X166400000Y-72879500D01*
X166400000Y-76676000D01*
X166380315Y-76743039D01*
X166327511Y-76788794D01*
X166276000Y-76800000D01*
X161724000Y-76800000D01*
X161656961Y-76780315D01*
X161611206Y-76727511D01*
X161600000Y-76676000D01*
X161600000Y-74274986D01*
X163350001Y-74274986D01*
X163360494Y-74377697D01*
X163415641Y-74544119D01*
X163415643Y-74544124D01*
X163507684Y-74693345D01*
X163631654Y-74817315D01*
X163780875Y-74909356D01*
X163780880Y-74909358D01*
X163947302Y-74964505D01*
X163947309Y-74964506D01*
X164050019Y-74974999D01*
X164499999Y-74974999D01*
X165000000Y-74974999D01*
X165449972Y-74974999D01*
X165449986Y-74974998D01*
X165552697Y-74964505D01*
X165719119Y-74909358D01*
X165719124Y-74909356D01*
X165868345Y-74817315D01*
X165992315Y-74693345D01*
X166084356Y-74544124D01*
X166084358Y-74544119D01*
X166139505Y-74377697D01*
X166139506Y-74377690D01*
X166149999Y-74274986D01*
X166150000Y-74274973D01*
X166150000Y-74062500D01*
X165000000Y-74062500D01*
X165000000Y-74974999D01*
X164499999Y-74974999D01*
X164500000Y-74974998D01*
X164500000Y-74062500D01*
X163350001Y-74062500D01*
X163350001Y-74274986D01*
X161600000Y-74274986D01*
X161600000Y-72879500D01*
X161619685Y-72812461D01*
X161672489Y-72766706D01*
X161724000Y-72755500D01*
X163394162Y-72755500D01*
X163461201Y-72775185D01*
G37*
G04 #@! TD.AperFunction*
G04 #@! TA.AperFunction,Conductor*
G36*
X173193039Y-72019685D02*
G01*
X173238794Y-72072489D01*
X173250000Y-72124000D01*
X173250000Y-75000000D01*
X179126000Y-75000000D01*
X179193039Y-75019685D01*
X179238794Y-75072489D01*
X179250000Y-75124000D01*
X179250000Y-78876000D01*
X179230315Y-78943039D01*
X179177511Y-78988794D01*
X179126000Y-79000000D01*
X167174000Y-79000000D01*
X167106961Y-78980315D01*
X167061206Y-78927511D01*
X167050000Y-78876000D01*
X167050000Y-77208000D01*
X167850000Y-77208000D01*
X167860608Y-77327325D01*
X167860609Y-77327328D01*
X167916557Y-77522861D01*
X168010721Y-77703129D01*
X168139246Y-77860753D01*
X168296870Y-77989278D01*
X168477138Y-78083442D01*
X168672671Y-78139390D01*
X168672674Y-78139391D01*
X168791999Y-78149999D01*
X168792002Y-78150000D01*
X170000000Y-78150000D01*
X170500000Y-78150000D01*
X171707998Y-78150000D01*
X171708000Y-78149999D01*
X171827325Y-78139391D01*
X171827328Y-78139390D01*
X172022861Y-78083442D01*
X172203129Y-77989278D01*
X172360753Y-77860753D01*
X172489278Y-77703129D01*
X172583442Y-77522861D01*
X172639390Y-77327328D01*
X172639391Y-77327325D01*
X172649999Y-77208000D01*
X172650000Y-77207998D01*
X172650000Y-77174985D01*
X175075000Y-77174985D01*
X175085493Y-77277689D01*
X175085494Y-77277696D01*
X175140641Y-77444118D01*
X175140643Y-77444123D01*
X175232684Y-77593344D01*
X175356655Y-77717315D01*
X175505876Y-77809356D01*
X175505881Y-77809358D01*
X175672303Y-77864505D01*
X175672310Y-77864506D01*
X175775014Y-77874999D01*
X175775027Y-77875000D01*
X176500000Y-77875000D01*
X177000000Y-77875000D01*
X177724973Y-77875000D01*
X177724985Y-77874999D01*
X177827689Y-77864506D01*
X177827696Y-77864505D01*
X177994118Y-77809358D01*
X177994123Y-77809356D01*
X178143344Y-77717315D01*
X178267315Y-77593344D01*
X178359356Y-77444123D01*
X178359358Y-77444118D01*
X178414505Y-77277696D01*
X178414506Y-77277689D01*
X178424999Y-77174985D01*
X178425000Y-77174972D01*
X178425000Y-76875000D01*
X177000000Y-76875000D01*
X177000000Y-77875000D01*
X176500000Y-77875000D01*
X176500000Y-76875000D01*
X175075000Y-76875000D01*
X175075000Y-77174985D01*
X172650000Y-77174985D01*
X172650000Y-76900000D01*
X170500000Y-76900000D01*
X170500000Y-78150000D01*
X170000000Y-78150000D01*
X170000000Y-76900000D01*
X167850000Y-76900000D01*
X167850000Y-77208000D01*
X167050000Y-77208000D01*
X167050000Y-76091999D01*
X167850000Y-76091999D01*
X167850000Y-76400000D01*
X170000000Y-76400000D01*
X170500000Y-76400000D01*
X172650000Y-76400000D01*
X172650000Y-76092002D01*
X172649999Y-76091999D01*
X172648489Y-76075014D01*
X175075000Y-76075014D01*
X175075000Y-76375000D01*
X176500000Y-76375000D01*
X177000000Y-76375000D01*
X178425000Y-76375000D01*
X178425000Y-76075027D01*
X178424999Y-76075014D01*
X178414506Y-75972310D01*
X178414505Y-75972303D01*
X178359358Y-75805881D01*
X178359356Y-75805876D01*
X178267315Y-75656655D01*
X178143344Y-75532684D01*
X177994123Y-75440643D01*
X177994118Y-75440641D01*
X177827696Y-75385494D01*
X177827689Y-75385493D01*
X177724985Y-75375000D01*
X177000000Y-75375000D01*
X177000000Y-76375000D01*
X176500000Y-76375000D01*
X176500000Y-75375000D01*
X175775014Y-75375000D01*
X175672310Y-75385493D01*
X175672303Y-75385494D01*
X175505881Y-75440641D01*
X175505876Y-75440643D01*
X175356655Y-75532684D01*
X175232684Y-75656655D01*
X175140643Y-75805876D01*
X175140641Y-75805881D01*
X175085494Y-75972303D01*
X175085493Y-75972310D01*
X175075000Y-76075014D01*
X172648489Y-76075014D01*
X172639391Y-75972674D01*
X172639390Y-75972671D01*
X172583442Y-75777138D01*
X172489278Y-75596870D01*
X172360753Y-75439246D01*
X172203129Y-75310721D01*
X172022861Y-75216557D01*
X171827328Y-75160609D01*
X171827325Y-75160608D01*
X171708000Y-75150000D01*
X170500000Y-75150000D01*
X170500000Y-76400000D01*
X170000000Y-76400000D01*
X170000000Y-75150000D01*
X168791999Y-75150000D01*
X168672674Y-75160608D01*
X168672671Y-75160609D01*
X168477138Y-75216557D01*
X168296870Y-75310721D01*
X168139246Y-75439246D01*
X168010721Y-75596870D01*
X167916557Y-75777138D01*
X167860609Y-75972671D01*
X167860608Y-75972674D01*
X167850000Y-76091999D01*
X167050000Y-76091999D01*
X167050000Y-72874000D01*
X167069685Y-72806961D01*
X167122489Y-72761206D01*
X167174000Y-72750000D01*
X169500000Y-72750000D01*
X169500000Y-72124000D01*
X169519685Y-72056961D01*
X169572489Y-72011206D01*
X169624000Y-72000000D01*
X173126000Y-72000000D01*
X173193039Y-72019685D01*
G37*
G04 #@! TD.AperFunction*
M02*
