G04 #@! TF.GenerationSoftware,KiCad,Pcbnew,8.0.6*
G04 #@! TF.CreationDate,2024-10-18T14:11:23+05:30*
G04 #@! TF.ProjectId,Nodes,4e6f6465-732e-46b6-9963-61645f706362,1.1*
G04 #@! TF.SameCoordinates,Original*
G04 #@! TF.FileFunction,Copper,L2,Bot*
G04 #@! TF.FilePolarity,Positive*
%FSLAX46Y46*%
G04 Gerber Fmt 4.6, Leading zero omitted, Abs format (unit mm)*
G04 Created by KiCad (PCBNEW 8.0.6) date 2024-10-18 14:11:23*
%MOMM*%
%LPD*%
G01*
G04 APERTURE LIST*
G04 Aperture macros list*
%AMRoundRect*
0 Rectangle with rounded corners*
0 $1 Rounding radius*
0 $2 $3 $4 $5 $6 $7 $8 $9 X,Y pos of 4 corners*
0 Add a 4 corners polygon primitive as box body*
4,1,4,$2,$3,$4,$5,$6,$7,$8,$9,$2,$3,0*
0 Add four circle primitives for the rounded corners*
1,1,$1+$1,$2,$3*
1,1,$1+$1,$4,$5*
1,1,$1+$1,$6,$7*
1,1,$1+$1,$8,$9*
0 Add four rect primitives between the rounded corners*
20,1,$1+$1,$2,$3,$4,$5,0*
20,1,$1+$1,$4,$5,$6,$7,0*
20,1,$1+$1,$6,$7,$8,$9,0*
20,1,$1+$1,$8,$9,$2,$3,0*%
G04 Aperture macros list end*
G04 #@! TA.AperFunction,ComponentPad*
%ADD10R,1.700000X1.700000*%
G04 #@! TD*
G04 #@! TA.AperFunction,ComponentPad*
%ADD11C,1.700000*%
G04 #@! TD*
G04 #@! TA.AperFunction,ComponentPad*
%ADD12R,1.800000X1.800000*%
G04 #@! TD*
G04 #@! TA.AperFunction,ComponentPad*
%ADD13C,1.800000*%
G04 #@! TD*
G04 #@! TA.AperFunction,ComponentPad*
%ADD14O,1.700000X1.700000*%
G04 #@! TD*
G04 #@! TA.AperFunction,ComponentPad*
%ADD15R,3.500000X3.500000*%
G04 #@! TD*
G04 #@! TA.AperFunction,ComponentPad*
%ADD16RoundRect,0.750000X-1.000000X0.750000X-1.000000X-0.750000X1.000000X-0.750000X1.000000X0.750000X0*%
G04 #@! TD*
G04 #@! TA.AperFunction,ComponentPad*
%ADD17RoundRect,0.875000X-0.875000X0.875000X-0.875000X-0.875000X0.875000X-0.875000X0.875000X0.875000X0*%
G04 #@! TD*
G04 #@! TA.AperFunction,ComponentPad*
%ADD18R,3.000000X3.000000*%
G04 #@! TD*
G04 #@! TA.AperFunction,ComponentPad*
%ADD19C,3.000000*%
G04 #@! TD*
G04 #@! TA.AperFunction,ViaPad*
%ADD20C,1.000000*%
G04 #@! TD*
G04 #@! TA.AperFunction,ViaPad*
%ADD21C,0.800000*%
G04 #@! TD*
G04 #@! TA.AperFunction,Conductor*
%ADD22C,0.300000*%
G04 #@! TD*
G04 APERTURE END LIST*
D10*
X167210500Y-107575000D03*
D11*
X169750500Y-107575000D03*
X167210500Y-110115000D03*
X169750500Y-110115000D03*
X167210500Y-112655000D03*
X169750500Y-112655000D03*
X167210500Y-115195000D03*
X169750500Y-115195000D03*
D10*
X161620000Y-123460000D03*
D11*
X161620000Y-126000000D03*
X159080000Y-123460000D03*
X159080000Y-126000000D03*
X156540000Y-123460000D03*
X156540000Y-126000000D03*
X154000000Y-123460000D03*
X154000000Y-126000000D03*
D10*
X132250000Y-69260000D03*
D11*
X132250000Y-71800000D03*
X132250000Y-74340000D03*
X132250000Y-76880000D03*
X132250000Y-79420000D03*
X132250000Y-81960000D03*
X132250000Y-84500000D03*
X132250000Y-87040000D03*
X132250000Y-89580000D03*
X132250000Y-92120000D03*
X132250000Y-94660000D03*
X132250000Y-97200000D03*
X132250000Y-99740000D03*
X132250000Y-102280000D03*
X132250000Y-104820000D03*
X132250000Y-107360000D03*
X132250000Y-109900000D03*
X132250000Y-112440000D03*
X132250000Y-114980000D03*
X132250000Y-117520000D03*
X147490000Y-117520000D03*
X147490000Y-114980000D03*
X147490000Y-112440000D03*
X147490000Y-109900000D03*
X147490000Y-107360000D03*
X147490000Y-104820000D03*
X147490000Y-102280000D03*
X147490000Y-99740000D03*
X147490000Y-97200000D03*
X147490000Y-94660000D03*
X147490000Y-92120000D03*
X147490000Y-89580000D03*
X147490000Y-87040000D03*
X147490000Y-84500000D03*
X147490000Y-81960000D03*
X147490000Y-79420000D03*
X147490000Y-76880000D03*
X147490000Y-74340000D03*
X147490000Y-71800000D03*
X147490000Y-69260000D03*
D12*
X112780000Y-104880000D03*
D13*
X115320000Y-104880000D03*
D10*
X167610500Y-89580000D03*
D11*
X170150500Y-89580000D03*
X167610500Y-92120000D03*
X170150500Y-92120000D03*
X167610500Y-94660000D03*
X170150500Y-94660000D03*
X167610500Y-97200000D03*
X170150500Y-97200000D03*
D12*
X112780000Y-95880000D03*
D13*
X115320000Y-95880000D03*
D10*
X130300000Y-126025000D03*
D14*
X127760000Y-126025000D03*
X125220000Y-126025000D03*
X122680000Y-126025000D03*
D15*
X171900000Y-65400000D03*
D16*
X171900000Y-59400000D03*
D17*
X167200000Y-62400000D03*
D12*
X112820000Y-114380000D03*
D13*
X115360000Y-114380000D03*
D18*
X135950000Y-55350000D03*
D19*
X141030000Y-55350000D03*
X146110000Y-55350000D03*
D18*
X114500000Y-77000000D03*
D19*
X114500000Y-71920000D03*
X114500000Y-66840000D03*
D12*
X112545000Y-86380000D03*
D13*
X115085000Y-86380000D03*
D20*
X176800000Y-71300000D03*
X178300000Y-70500000D03*
D21*
X123400000Y-62700000D03*
D20*
X155500000Y-61000000D03*
X165000000Y-76000000D03*
X162600000Y-75800000D03*
X158000000Y-56400000D03*
X175000000Y-70500000D03*
X162500000Y-74000000D03*
X160500000Y-61000000D03*
D21*
X159500000Y-93400000D03*
X159500000Y-96000000D03*
X163400000Y-98400000D03*
X163400000Y-96200000D03*
X161200000Y-89600000D03*
X159200000Y-87600000D03*
X173600000Y-85000000D03*
X173600000Y-91200000D03*
X177600000Y-96400000D03*
X176000000Y-88200000D03*
X176000000Y-91200000D03*
X177600000Y-109200000D03*
X176000000Y-94800000D03*
X177600000Y-106200000D03*
X178400000Y-88200000D03*
X178400000Y-91200000D03*
X160000000Y-109600000D03*
X164600000Y-110200000D03*
X173800000Y-109000000D03*
X160200000Y-102600000D03*
X173800000Y-106200000D03*
X164600000Y-102600000D03*
X139250000Y-126000000D03*
X142750000Y-126000000D03*
X161000000Y-129250000D03*
X165000000Y-129250000D03*
D22*
X159500000Y-93400000D02*
X159500000Y-96000000D01*
X163400000Y-98400000D02*
X163400000Y-96200000D01*
X159200000Y-87600000D02*
X161200000Y-89600000D01*
X173600000Y-85000000D02*
X173600000Y-91200000D01*
X177600000Y-106200000D02*
X177600000Y-109200000D01*
X176000000Y-91200000D02*
X176000000Y-88200000D01*
X176000000Y-94800000D02*
X177600000Y-96400000D01*
X178400000Y-88200000D02*
X178400000Y-91200000D01*
X160000000Y-109600000D02*
X160600000Y-110200000D01*
X160600000Y-110200000D02*
X164600000Y-110200000D01*
X173800000Y-109000000D02*
X173800000Y-106200000D01*
X160200000Y-102600000D02*
X164600000Y-102600000D01*
X139250000Y-126000000D02*
X142750000Y-126000000D01*
X161000000Y-129250000D02*
X165000000Y-129250000D01*
G04 #@! TA.AperFunction,Conductor*
G36*
X184917753Y-50699624D02*
G01*
X184942416Y-50699624D01*
X184997438Y-50699624D01*
X185002561Y-50699729D01*
X185432592Y-50717515D01*
X185442765Y-50718358D01*
X185867338Y-50771281D01*
X185877418Y-50772963D01*
X186296160Y-50860764D01*
X186306068Y-50863273D01*
X186716130Y-50985354D01*
X186725798Y-50988673D01*
X187056016Y-51117525D01*
X187124351Y-51144190D01*
X187133736Y-51148306D01*
X187249273Y-51204788D01*
X187518096Y-51336207D01*
X187527104Y-51341082D01*
X187894634Y-51560083D01*
X187903213Y-51565689D01*
X188251388Y-51814280D01*
X188259465Y-51820567D01*
X188585932Y-52097071D01*
X188585933Y-52097072D01*
X188593473Y-52104013D01*
X188895986Y-52406526D01*
X188902927Y-52414066D01*
X189179428Y-52740529D01*
X189185723Y-52748617D01*
X189434310Y-53096786D01*
X189439916Y-53105365D01*
X189658917Y-53472895D01*
X189663795Y-53481909D01*
X189851693Y-53866263D01*
X189855809Y-53875648D01*
X190011321Y-54274189D01*
X190014649Y-54283882D01*
X190136722Y-54693918D01*
X190139238Y-54703853D01*
X190227033Y-55122567D01*
X190228720Y-55132676D01*
X190281639Y-55557213D01*
X190282485Y-55567427D01*
X190300265Y-55997337D01*
X190300371Y-56002632D01*
X190200467Y-128433167D01*
X190200376Y-128434447D01*
X190200376Y-128497437D01*
X190200270Y-128502561D01*
X190182485Y-128932572D01*
X190181639Y-128942786D01*
X190128720Y-129367323D01*
X190127033Y-129377432D01*
X190039238Y-129796146D01*
X190036722Y-129806081D01*
X189914649Y-130216117D01*
X189911321Y-130225810D01*
X189755809Y-130624351D01*
X189751693Y-130633736D01*
X189563795Y-131018090D01*
X189558917Y-131027104D01*
X189339916Y-131394634D01*
X189334310Y-131403213D01*
X189085723Y-131751382D01*
X189079428Y-131759470D01*
X188802927Y-132085933D01*
X188795986Y-132093473D01*
X188493473Y-132395986D01*
X188485933Y-132402927D01*
X188159470Y-132679428D01*
X188151382Y-132685723D01*
X187803213Y-132934310D01*
X187794634Y-132939916D01*
X187427104Y-133158917D01*
X187418090Y-133163795D01*
X187033736Y-133351693D01*
X187024351Y-133355809D01*
X186625810Y-133511321D01*
X186616117Y-133514649D01*
X186206081Y-133636722D01*
X186196146Y-133639238D01*
X185777432Y-133727033D01*
X185767323Y-133728720D01*
X185342786Y-133781639D01*
X185332572Y-133782485D01*
X184902562Y-133800270D01*
X184897438Y-133800376D01*
X115502562Y-133800376D01*
X115497438Y-133800270D01*
X115067427Y-133782485D01*
X115057213Y-133781639D01*
X114632676Y-133728720D01*
X114622567Y-133727033D01*
X114203853Y-133639238D01*
X114193918Y-133636722D01*
X113783882Y-133514649D01*
X113774189Y-133511321D01*
X113375648Y-133355809D01*
X113366263Y-133351693D01*
X112981909Y-133163795D01*
X112972895Y-133158917D01*
X112605365Y-132939916D01*
X112596786Y-132934310D01*
X112248617Y-132685723D01*
X112240529Y-132679428D01*
X112199660Y-132644814D01*
X111914066Y-132402927D01*
X111906526Y-132395986D01*
X111604013Y-132093473D01*
X111597072Y-132085933D01*
X111320571Y-131759470D01*
X111314276Y-131751382D01*
X111065689Y-131403213D01*
X111060083Y-131394634D01*
X111020753Y-131328630D01*
X110841079Y-131027099D01*
X110836204Y-131018090D01*
X110648306Y-130633736D01*
X110644190Y-130624351D01*
X110582506Y-130466269D01*
X110488673Y-130225798D01*
X110485354Y-130216130D01*
X110363273Y-129806068D01*
X110360764Y-129796160D01*
X110272963Y-129377418D01*
X110271281Y-129367338D01*
X110218358Y-128942765D01*
X110217515Y-128932592D01*
X110199730Y-128502561D01*
X110199624Y-128497437D01*
X110199624Y-128417754D01*
X110199623Y-128417748D01*
X110199623Y-128368872D01*
X113499500Y-128368872D01*
X113499500Y-128631127D01*
X113513798Y-128739723D01*
X113533730Y-128891116D01*
X113601602Y-129144418D01*
X113601605Y-129144428D01*
X113701953Y-129386690D01*
X113701958Y-129386700D01*
X113833075Y-129613803D01*
X113992718Y-129821851D01*
X113992726Y-129821860D01*
X114178140Y-130007274D01*
X114178148Y-130007281D01*
X114386196Y-130166924D01*
X114613299Y-130298041D01*
X114613309Y-130298046D01*
X114855571Y-130398394D01*
X114855581Y-130398398D01*
X115108884Y-130466270D01*
X115368880Y-130500500D01*
X115368887Y-130500500D01*
X115631113Y-130500500D01*
X115631120Y-130500500D01*
X115891116Y-130466270D01*
X116144419Y-130398398D01*
X116386697Y-130298043D01*
X116613803Y-130166924D01*
X116821851Y-130007282D01*
X116821855Y-130007277D01*
X116821860Y-130007274D01*
X117007274Y-129821860D01*
X117007277Y-129821855D01*
X117007282Y-129821851D01*
X117166924Y-129613803D01*
X117298043Y-129386697D01*
X117354665Y-129250000D01*
X160094540Y-129250000D01*
X160114326Y-129438256D01*
X160114327Y-129438259D01*
X160172818Y-129618277D01*
X160172821Y-129618284D01*
X160267467Y-129782216D01*
X160303155Y-129821851D01*
X160394129Y-129922888D01*
X160547265Y-130034148D01*
X160547270Y-130034151D01*
X160720192Y-130111142D01*
X160720197Y-130111144D01*
X160905354Y-130150500D01*
X160905355Y-130150500D01*
X161094644Y-130150500D01*
X161094646Y-130150500D01*
X161279803Y-130111144D01*
X161452730Y-130034151D01*
X161604090Y-129924182D01*
X161669896Y-129900702D01*
X161676975Y-129900500D01*
X164323025Y-129900500D01*
X164390064Y-129920185D01*
X164395910Y-129924182D01*
X164547265Y-130034148D01*
X164547270Y-130034151D01*
X164720192Y-130111142D01*
X164720197Y-130111144D01*
X164905354Y-130150500D01*
X164905355Y-130150500D01*
X165094644Y-130150500D01*
X165094646Y-130150500D01*
X165279803Y-130111144D01*
X165452730Y-130034151D01*
X165605871Y-129922888D01*
X165732533Y-129782216D01*
X165827179Y-129618284D01*
X165885674Y-129438256D01*
X165905460Y-129250000D01*
X165885674Y-129061744D01*
X165827179Y-128881716D01*
X165732533Y-128717784D01*
X165605871Y-128577112D01*
X165604090Y-128575818D01*
X165452734Y-128465851D01*
X165452729Y-128465848D01*
X165279807Y-128388857D01*
X165279802Y-128388855D01*
X165185786Y-128368872D01*
X182999500Y-128368872D01*
X182999500Y-128631127D01*
X183013798Y-128739723D01*
X183033730Y-128891116D01*
X183101602Y-129144418D01*
X183101605Y-129144428D01*
X183201953Y-129386690D01*
X183201958Y-129386700D01*
X183333075Y-129613803D01*
X183492718Y-129821851D01*
X183492726Y-129821860D01*
X183678140Y-130007274D01*
X183678148Y-130007281D01*
X183886196Y-130166924D01*
X184113299Y-130298041D01*
X184113309Y-130298046D01*
X184355571Y-130398394D01*
X184355581Y-130398398D01*
X184608884Y-130466270D01*
X184868880Y-130500500D01*
X184868887Y-130500500D01*
X185131113Y-130500500D01*
X185131120Y-130500500D01*
X185391116Y-130466270D01*
X185644419Y-130398398D01*
X185886697Y-130298043D01*
X186113803Y-130166924D01*
X186321851Y-130007282D01*
X186321855Y-130007277D01*
X186321860Y-130007274D01*
X186507274Y-129821860D01*
X186507277Y-129821855D01*
X186507282Y-129821851D01*
X186666924Y-129613803D01*
X186798043Y-129386697D01*
X186898398Y-129144419D01*
X186966270Y-128891116D01*
X187000500Y-128631120D01*
X187000500Y-128368880D01*
X186966270Y-128108884D01*
X186898398Y-127855581D01*
X186898394Y-127855571D01*
X186798046Y-127613309D01*
X186798041Y-127613299D01*
X186666924Y-127386196D01*
X186544424Y-127226554D01*
X186507282Y-127178149D01*
X186507281Y-127178148D01*
X186507274Y-127178140D01*
X186321860Y-126992726D01*
X186321851Y-126992718D01*
X186113803Y-126833075D01*
X185886700Y-126701958D01*
X185886690Y-126701953D01*
X185644428Y-126601605D01*
X185644421Y-126601603D01*
X185644419Y-126601602D01*
X185391116Y-126533730D01*
X185324807Y-126525000D01*
X185131127Y-126499500D01*
X185131120Y-126499500D01*
X184868880Y-126499500D01*
X184868872Y-126499500D01*
X184637772Y-126529926D01*
X184608884Y-126533730D01*
X184355581Y-126601602D01*
X184355571Y-126601605D01*
X184113309Y-126701953D01*
X184113299Y-126701958D01*
X183886196Y-126833075D01*
X183678148Y-126992718D01*
X183492718Y-127178148D01*
X183333075Y-127386196D01*
X183201958Y-127613299D01*
X183201953Y-127613309D01*
X183101605Y-127855571D01*
X183101602Y-127855581D01*
X183033730Y-128108885D01*
X182999500Y-128368872D01*
X165185786Y-128368872D01*
X165134001Y-128357865D01*
X165094646Y-128349500D01*
X164905354Y-128349500D01*
X164872897Y-128356398D01*
X164720197Y-128388855D01*
X164720192Y-128388857D01*
X164547270Y-128465848D01*
X164547265Y-128465851D01*
X164395910Y-128575818D01*
X164330104Y-128599298D01*
X164323025Y-128599500D01*
X161676975Y-128599500D01*
X161609936Y-128579815D01*
X161604090Y-128575818D01*
X161452734Y-128465851D01*
X161452729Y-128465848D01*
X161279807Y-128388857D01*
X161279802Y-128388855D01*
X161134001Y-128357865D01*
X161094646Y-128349500D01*
X160905354Y-128349500D01*
X160872897Y-128356398D01*
X160720197Y-128388855D01*
X160720192Y-128388857D01*
X160547270Y-128465848D01*
X160547265Y-128465851D01*
X160394129Y-128577111D01*
X160267466Y-128717785D01*
X160172821Y-128881715D01*
X160172818Y-128881722D01*
X160114327Y-129061740D01*
X160114326Y-129061744D01*
X160094540Y-129250000D01*
X117354665Y-129250000D01*
X117398398Y-129144419D01*
X117466270Y-128891116D01*
X117500500Y-128631120D01*
X117500500Y-128368880D01*
X117466270Y-128108884D01*
X117398398Y-127855581D01*
X117398394Y-127855571D01*
X117298046Y-127613309D01*
X117298041Y-127613299D01*
X117166924Y-127386196D01*
X117044424Y-127226554D01*
X117007282Y-127178149D01*
X117007281Y-127178148D01*
X117007274Y-127178140D01*
X116821860Y-126992726D01*
X116821851Y-126992718D01*
X116613803Y-126833075D01*
X116386700Y-126701958D01*
X116386690Y-126701953D01*
X116144428Y-126601605D01*
X116144421Y-126601603D01*
X116144419Y-126601602D01*
X115891116Y-126533730D01*
X115824807Y-126525000D01*
X115631127Y-126499500D01*
X115631120Y-126499500D01*
X115368880Y-126499500D01*
X115368872Y-126499500D01*
X115137772Y-126529926D01*
X115108884Y-126533730D01*
X114855581Y-126601602D01*
X114855571Y-126601605D01*
X114613309Y-126701953D01*
X114613299Y-126701958D01*
X114386196Y-126833075D01*
X114178148Y-126992718D01*
X113992718Y-127178148D01*
X113833075Y-127386196D01*
X113701958Y-127613299D01*
X113701953Y-127613309D01*
X113601605Y-127855571D01*
X113601602Y-127855581D01*
X113533730Y-128108885D01*
X113499500Y-128368872D01*
X110199623Y-128368872D01*
X110199623Y-126024999D01*
X121324341Y-126024999D01*
X121324341Y-126025000D01*
X121344936Y-126260403D01*
X121344938Y-126260413D01*
X121406094Y-126488655D01*
X121406096Y-126488659D01*
X121406097Y-126488663D01*
X121489155Y-126666781D01*
X121505965Y-126702830D01*
X121505967Y-126702834D01*
X121597164Y-126833076D01*
X121641505Y-126896401D01*
X121808599Y-127063495D01*
X121905384Y-127131265D01*
X122002165Y-127199032D01*
X122002167Y-127199033D01*
X122002170Y-127199035D01*
X122216337Y-127298903D01*
X122444592Y-127360063D01*
X122621034Y-127375500D01*
X122679999Y-127380659D01*
X122680000Y-127380659D01*
X122680001Y-127380659D01*
X122738966Y-127375500D01*
X122915408Y-127360063D01*
X123143663Y-127298903D01*
X123357830Y-127199035D01*
X123551401Y-127063495D01*
X123718495Y-126896401D01*
X123848730Y-126710405D01*
X123903307Y-126666781D01*
X123972805Y-126659587D01*
X124035160Y-126691110D01*
X124051879Y-126710405D01*
X124181890Y-126896078D01*
X124348917Y-127063105D01*
X124542421Y-127198600D01*
X124756507Y-127298429D01*
X124756516Y-127298433D01*
X124970000Y-127355634D01*
X124970000Y-126458012D01*
X125027007Y-126490925D01*
X125154174Y-126525000D01*
X125285826Y-126525000D01*
X125412993Y-126490925D01*
X125470000Y-126458012D01*
X125470000Y-127355633D01*
X125683483Y-127298433D01*
X125683492Y-127298429D01*
X125897578Y-127198600D01*
X126091082Y-127063105D01*
X126258105Y-126896082D01*
X126388119Y-126710405D01*
X126442696Y-126666781D01*
X126512195Y-126659588D01*
X126574549Y-126691110D01*
X126591269Y-126710405D01*
X126721505Y-126896401D01*
X126888599Y-127063495D01*
X126985384Y-127131265D01*
X127082165Y-127199032D01*
X127082167Y-127199033D01*
X127082170Y-127199035D01*
X127296337Y-127298903D01*
X127524592Y-127360063D01*
X127701034Y-127375500D01*
X127759999Y-127380659D01*
X127760000Y-127380659D01*
X127760001Y-127380659D01*
X127818966Y-127375500D01*
X127995408Y-127360063D01*
X128223663Y-127298903D01*
X128437830Y-127199035D01*
X128631401Y-127063495D01*
X128753329Y-126941566D01*
X128814648Y-126908084D01*
X128884340Y-126913068D01*
X128940274Y-126954939D01*
X128957189Y-126985917D01*
X129006202Y-127117328D01*
X129006206Y-127117335D01*
X129092452Y-127232544D01*
X129092455Y-127232547D01*
X129207664Y-127318793D01*
X129207671Y-127318797D01*
X129342517Y-127369091D01*
X129342516Y-127369091D01*
X129349444Y-127369835D01*
X129402127Y-127375500D01*
X131197872Y-127375499D01*
X131257483Y-127369091D01*
X131392331Y-127318796D01*
X131507546Y-127232546D01*
X131593796Y-127117331D01*
X131644091Y-126982483D01*
X131650500Y-126922873D01*
X131650499Y-126000000D01*
X138344540Y-126000000D01*
X138364326Y-126188256D01*
X138364327Y-126188259D01*
X138422818Y-126368277D01*
X138422821Y-126368284D01*
X138517467Y-126532216D01*
X138610035Y-126635023D01*
X138644129Y-126672888D01*
X138797265Y-126784148D01*
X138797270Y-126784151D01*
X138970192Y-126861142D01*
X138970197Y-126861144D01*
X139155354Y-126900500D01*
X139155355Y-126900500D01*
X139344644Y-126900500D01*
X139344646Y-126900500D01*
X139529803Y-126861144D01*
X139702730Y-126784151D01*
X139854090Y-126674182D01*
X139919896Y-126650702D01*
X139926975Y-126650500D01*
X142073025Y-126650500D01*
X142140064Y-126670185D01*
X142145910Y-126674182D01*
X142297265Y-126784148D01*
X142297270Y-126784151D01*
X142470192Y-126861142D01*
X142470197Y-126861144D01*
X142655354Y-126900500D01*
X142655355Y-126900500D01*
X142844644Y-126900500D01*
X142844646Y-126900500D01*
X143029803Y-126861144D01*
X143202730Y-126784151D01*
X143355871Y-126672888D01*
X143482533Y-126532216D01*
X143577179Y-126368284D01*
X143635674Y-126188256D01*
X143655460Y-126000000D01*
X143635674Y-125811744D01*
X143577179Y-125631716D01*
X143482533Y-125467784D01*
X143355871Y-125327112D01*
X143354090Y-125325818D01*
X143202734Y-125215851D01*
X143202729Y-125215848D01*
X143029807Y-125138857D01*
X143029802Y-125138855D01*
X142884001Y-125107865D01*
X142844646Y-125099500D01*
X142655354Y-125099500D01*
X142622897Y-125106398D01*
X142470197Y-125138855D01*
X142470192Y-125138857D01*
X142297270Y-125215848D01*
X142297265Y-125215851D01*
X142145910Y-125325818D01*
X142080104Y-125349298D01*
X142073025Y-125349500D01*
X139926975Y-125349500D01*
X139859936Y-125329815D01*
X139854090Y-125325818D01*
X139702734Y-125215851D01*
X139702729Y-125215848D01*
X139529807Y-125138857D01*
X139529802Y-125138855D01*
X139384001Y-125107865D01*
X139344646Y-125099500D01*
X139155354Y-125099500D01*
X139122897Y-125106398D01*
X138970197Y-125138855D01*
X138970192Y-125138857D01*
X138797270Y-125215848D01*
X138797265Y-125215851D01*
X138644129Y-125327111D01*
X138517466Y-125467785D01*
X138422821Y-125631715D01*
X138422818Y-125631722D01*
X138371522Y-125789596D01*
X138364326Y-125811744D01*
X138344540Y-126000000D01*
X131650499Y-126000000D01*
X131650499Y-125127128D01*
X131644091Y-125067517D01*
X131642810Y-125064083D01*
X131593797Y-124932671D01*
X131593793Y-124932664D01*
X131507547Y-124817455D01*
X131507544Y-124817452D01*
X131392335Y-124731206D01*
X131392328Y-124731202D01*
X131257482Y-124680908D01*
X131257483Y-124680908D01*
X131197883Y-124674501D01*
X131197881Y-124674500D01*
X131197873Y-124674500D01*
X131197864Y-124674500D01*
X129402129Y-124674500D01*
X129402123Y-124674501D01*
X129342516Y-124680908D01*
X129207671Y-124731202D01*
X129207664Y-124731206D01*
X129092455Y-124817452D01*
X129092452Y-124817455D01*
X129006206Y-124932664D01*
X129006203Y-124932669D01*
X128957189Y-125064083D01*
X128915317Y-125120016D01*
X128849853Y-125144433D01*
X128781580Y-125129581D01*
X128753326Y-125108430D01*
X128631402Y-124986506D01*
X128631395Y-124986501D01*
X128437834Y-124850967D01*
X128437830Y-124850965D01*
X128384217Y-124825965D01*
X128223663Y-124751097D01*
X128223659Y-124751096D01*
X128223655Y-124751094D01*
X127995413Y-124689938D01*
X127995403Y-124689936D01*
X127760001Y-124669341D01*
X127759999Y-124669341D01*
X127524596Y-124689936D01*
X127524586Y-124689938D01*
X127296344Y-124751094D01*
X127296337Y-124751096D01*
X127296337Y-124751097D01*
X127291497Y-124753354D01*
X127082171Y-124850964D01*
X127082169Y-124850965D01*
X126888597Y-124986505D01*
X126721508Y-125153594D01*
X126591269Y-125339595D01*
X126536692Y-125383219D01*
X126467193Y-125390412D01*
X126404839Y-125358890D01*
X126388119Y-125339594D01*
X126258113Y-125153926D01*
X126258108Y-125153920D01*
X126091082Y-124986894D01*
X125897578Y-124851399D01*
X125683492Y-124751570D01*
X125683486Y-124751567D01*
X125470000Y-124694364D01*
X125470000Y-125591988D01*
X125412993Y-125559075D01*
X125285826Y-125525000D01*
X125154174Y-125525000D01*
X125027007Y-125559075D01*
X124970000Y-125591988D01*
X124970000Y-124694364D01*
X124969999Y-124694364D01*
X124756513Y-124751567D01*
X124756507Y-124751570D01*
X124542422Y-124851399D01*
X124542420Y-124851400D01*
X124348926Y-124986886D01*
X124348920Y-124986891D01*
X124181891Y-125153920D01*
X124181890Y-125153922D01*
X124051880Y-125339595D01*
X123997303Y-125383219D01*
X123927804Y-125390412D01*
X123865450Y-125358890D01*
X123848730Y-125339594D01*
X123718494Y-125153597D01*
X123551402Y-124986506D01*
X123551395Y-124986501D01*
X123357834Y-124850967D01*
X123357830Y-124850965D01*
X123304217Y-124825965D01*
X123143663Y-124751097D01*
X123143659Y-124751096D01*
X123143655Y-124751094D01*
X122915413Y-124689938D01*
X122915403Y-124689936D01*
X122680001Y-124669341D01*
X122679999Y-124669341D01*
X122444596Y-124689936D01*
X122444586Y-124689938D01*
X122216344Y-124751094D01*
X122216337Y-124751096D01*
X122216337Y-124751097D01*
X122211497Y-124753354D01*
X122002171Y-124850964D01*
X122002169Y-124850965D01*
X121808597Y-124986505D01*
X121641505Y-125153597D01*
X121505965Y-125347169D01*
X121505964Y-125347171D01*
X121406098Y-125561335D01*
X121406094Y-125561344D01*
X121344938Y-125789586D01*
X121344936Y-125789596D01*
X121324341Y-126024999D01*
X110199623Y-126024999D01*
X110199623Y-123459999D01*
X152644341Y-123459999D01*
X152644341Y-123460000D01*
X152664936Y-123695403D01*
X152664938Y-123695413D01*
X152726094Y-123923655D01*
X152726096Y-123923659D01*
X152726097Y-123923663D01*
X152806004Y-124095023D01*
X152825965Y-124137830D01*
X152825967Y-124137834D01*
X152934281Y-124292521D01*
X152961501Y-124331396D01*
X152961506Y-124331402D01*
X153128597Y-124498493D01*
X153128603Y-124498498D01*
X153314158Y-124628425D01*
X153357783Y-124683002D01*
X153364977Y-124752500D01*
X153333454Y-124814855D01*
X153314158Y-124831575D01*
X153128597Y-124961505D01*
X152961505Y-125128597D01*
X152825965Y-125322169D01*
X152825964Y-125322171D01*
X152726098Y-125536335D01*
X152726094Y-125536344D01*
X152664938Y-125764586D01*
X152664936Y-125764596D01*
X152644341Y-125999999D01*
X152644341Y-126000000D01*
X152664936Y-126235403D01*
X152664938Y-126235413D01*
X152726094Y-126463655D01*
X152726096Y-126463659D01*
X152726097Y-126463663D01*
X152754699Y-126525000D01*
X152825965Y-126677830D01*
X152825967Y-126677834D01*
X152900412Y-126784151D01*
X152961505Y-126871401D01*
X153128599Y-127038495D01*
X153163746Y-127063105D01*
X153322165Y-127174032D01*
X153322167Y-127174033D01*
X153322170Y-127174035D01*
X153536337Y-127273903D01*
X153764592Y-127335063D01*
X153952918Y-127351539D01*
X153999999Y-127355659D01*
X154000000Y-127355659D01*
X154000001Y-127355659D01*
X154039234Y-127352226D01*
X154235408Y-127335063D01*
X154463663Y-127273903D01*
X154677830Y-127174035D01*
X154871401Y-127038495D01*
X155038495Y-126871401D01*
X155168425Y-126685842D01*
X155223002Y-126642217D01*
X155292500Y-126635023D01*
X155354855Y-126666546D01*
X155371575Y-126685842D01*
X155501500Y-126871395D01*
X155501505Y-126871401D01*
X155668599Y-127038495D01*
X155703746Y-127063105D01*
X155862165Y-127174032D01*
X155862167Y-127174033D01*
X155862170Y-127174035D01*
X156076337Y-127273903D01*
X156304592Y-127335063D01*
X156492918Y-127351539D01*
X156539999Y-127355659D01*
X156540000Y-127355659D01*
X156540001Y-127355659D01*
X156579234Y-127352226D01*
X156775408Y-127335063D01*
X157003663Y-127273903D01*
X157217830Y-127174035D01*
X157411401Y-127038495D01*
X157578495Y-126871401D01*
X157708425Y-126685842D01*
X157763002Y-126642217D01*
X157832500Y-126635023D01*
X157894855Y-126666546D01*
X157911575Y-126685842D01*
X158041500Y-126871395D01*
X158041505Y-126871401D01*
X158208599Y-127038495D01*
X158243746Y-127063105D01*
X158402165Y-127174032D01*
X158402167Y-127174033D01*
X158402170Y-127174035D01*
X158616337Y-127273903D01*
X158844592Y-127335063D01*
X159032918Y-127351539D01*
X159079999Y-127355659D01*
X159080000Y-127355659D01*
X159080001Y-127355659D01*
X159119234Y-127352226D01*
X159315408Y-127335063D01*
X159543663Y-127273903D01*
X159757830Y-127174035D01*
X159951401Y-127038495D01*
X160118495Y-126871401D01*
X160248425Y-126685842D01*
X160303002Y-126642217D01*
X160372500Y-126635023D01*
X160434855Y-126666546D01*
X160451575Y-126685842D01*
X160581500Y-126871395D01*
X160581505Y-126871401D01*
X160748599Y-127038495D01*
X160783746Y-127063105D01*
X160942165Y-127174032D01*
X160942167Y-127174033D01*
X160942170Y-127174035D01*
X161156337Y-127273903D01*
X161384592Y-127335063D01*
X161572918Y-127351539D01*
X161619999Y-127355659D01*
X161620000Y-127355659D01*
X161620001Y-127355659D01*
X161659234Y-127352226D01*
X161855408Y-127335063D01*
X162083663Y-127273903D01*
X162297830Y-127174035D01*
X162491401Y-127038495D01*
X162658495Y-126871401D01*
X162794035Y-126677830D01*
X162893903Y-126463663D01*
X162955063Y-126235408D01*
X162975659Y-126000000D01*
X162955063Y-125764592D01*
X162893903Y-125536337D01*
X162794035Y-125322171D01*
X162788424Y-125314158D01*
X162658496Y-125128600D01*
X162597412Y-125067516D01*
X162536179Y-125006283D01*
X162502696Y-124944963D01*
X162507680Y-124875271D01*
X162549551Y-124819337D01*
X162580529Y-124802422D01*
X162712086Y-124753354D01*
X162712093Y-124753350D01*
X162827187Y-124667190D01*
X162827190Y-124667187D01*
X162913350Y-124552093D01*
X162913354Y-124552086D01*
X162963596Y-124417379D01*
X162963598Y-124417372D01*
X162969999Y-124357844D01*
X162970000Y-124357827D01*
X162970000Y-123710000D01*
X162053012Y-123710000D01*
X162085925Y-123652993D01*
X162120000Y-123525826D01*
X162120000Y-123394174D01*
X162085925Y-123267007D01*
X162053012Y-123210000D01*
X162970000Y-123210000D01*
X162970000Y-122562172D01*
X162969999Y-122562155D01*
X162963598Y-122502627D01*
X162963596Y-122502620D01*
X162913354Y-122367913D01*
X162913350Y-122367906D01*
X162827190Y-122252812D01*
X162827187Y-122252809D01*
X162712093Y-122166649D01*
X162712086Y-122166645D01*
X162577379Y-122116403D01*
X162577372Y-122116401D01*
X162517844Y-122110000D01*
X161870000Y-122110000D01*
X161870000Y-123026988D01*
X161812993Y-122994075D01*
X161685826Y-122960000D01*
X161554174Y-122960000D01*
X161427007Y-122994075D01*
X161370000Y-123026988D01*
X161370000Y-122110000D01*
X160722155Y-122110000D01*
X160662627Y-122116401D01*
X160662620Y-122116403D01*
X160527913Y-122166645D01*
X160527906Y-122166649D01*
X160412812Y-122252809D01*
X160412809Y-122252812D01*
X160326649Y-122367906D01*
X160326645Y-122367913D01*
X160277578Y-122499470D01*
X160235707Y-122555404D01*
X160170242Y-122579821D01*
X160101969Y-122564969D01*
X160073715Y-122543819D01*
X160029366Y-122499470D01*
X159951401Y-122421505D01*
X159951397Y-122421502D01*
X159951396Y-122421501D01*
X159757834Y-122285967D01*
X159757830Y-122285965D01*
X159686727Y-122252809D01*
X159543663Y-122186097D01*
X159543659Y-122186096D01*
X159543655Y-122186094D01*
X159315413Y-122124938D01*
X159315403Y-122124936D01*
X159080001Y-122104341D01*
X159079999Y-122104341D01*
X158844596Y-122124936D01*
X158844586Y-122124938D01*
X158616344Y-122186094D01*
X158616335Y-122186098D01*
X158402171Y-122285964D01*
X158402169Y-122285965D01*
X158208597Y-122421505D01*
X158041505Y-122588597D01*
X157911575Y-122774158D01*
X157856998Y-122817783D01*
X157787500Y-122824977D01*
X157725145Y-122793454D01*
X157708425Y-122774158D01*
X157578494Y-122588597D01*
X157411402Y-122421506D01*
X157411395Y-122421501D01*
X157217834Y-122285967D01*
X157217830Y-122285965D01*
X157146727Y-122252809D01*
X157003663Y-122186097D01*
X157003659Y-122186096D01*
X157003655Y-122186094D01*
X156775413Y-122124938D01*
X156775403Y-122124936D01*
X156540001Y-122104341D01*
X156539999Y-122104341D01*
X156304596Y-122124936D01*
X156304586Y-122124938D01*
X156076344Y-122186094D01*
X156076335Y-122186098D01*
X155862171Y-122285964D01*
X155862169Y-122285965D01*
X155668597Y-122421505D01*
X155501505Y-122588597D01*
X155371575Y-122774158D01*
X155316998Y-122817783D01*
X155247500Y-122824977D01*
X155185145Y-122793454D01*
X155168425Y-122774158D01*
X155038494Y-122588597D01*
X154871402Y-122421506D01*
X154871395Y-122421501D01*
X154677834Y-122285967D01*
X154677830Y-122285965D01*
X154606727Y-122252809D01*
X154463663Y-122186097D01*
X154463659Y-122186096D01*
X154463655Y-122186094D01*
X154235413Y-122124938D01*
X154235403Y-122124936D01*
X154000001Y-122104341D01*
X153999999Y-122104341D01*
X153764596Y-122124936D01*
X153764586Y-122124938D01*
X153536344Y-122186094D01*
X153536335Y-122186098D01*
X153322171Y-122285964D01*
X153322169Y-122285965D01*
X153128597Y-122421505D01*
X152961505Y-122588597D01*
X152825965Y-122782169D01*
X152825964Y-122782171D01*
X152726098Y-122996335D01*
X152726094Y-122996344D01*
X152664938Y-123224586D01*
X152664936Y-123224596D01*
X152644341Y-123459999D01*
X110199623Y-123459999D01*
X110199623Y-113432155D01*
X111420000Y-113432155D01*
X111420000Y-114130000D01*
X112444722Y-114130000D01*
X112400667Y-114206306D01*
X112370000Y-114320756D01*
X112370000Y-114439244D01*
X112400667Y-114553694D01*
X112444722Y-114630000D01*
X111420000Y-114630000D01*
X111420000Y-115327844D01*
X111426401Y-115387372D01*
X111426403Y-115387379D01*
X111476645Y-115522086D01*
X111476649Y-115522093D01*
X111562809Y-115637187D01*
X111562812Y-115637190D01*
X111677906Y-115723350D01*
X111677913Y-115723354D01*
X111812620Y-115773596D01*
X111812627Y-115773598D01*
X111872155Y-115779999D01*
X111872172Y-115780000D01*
X112570000Y-115780000D01*
X112570000Y-114755277D01*
X112646306Y-114799333D01*
X112760756Y-114830000D01*
X112879244Y-114830000D01*
X112993694Y-114799333D01*
X113070000Y-114755277D01*
X113070000Y-115780000D01*
X113767828Y-115780000D01*
X113767844Y-115779999D01*
X113827372Y-115773598D01*
X113827379Y-115773596D01*
X113962086Y-115723354D01*
X113962093Y-115723350D01*
X114077187Y-115637190D01*
X114077190Y-115637187D01*
X114163350Y-115522093D01*
X114163355Y-115522084D01*
X114192075Y-115445081D01*
X114233945Y-115389147D01*
X114299409Y-115364729D01*
X114367682Y-115379580D01*
X114399484Y-115404428D01*
X114408216Y-115413913D01*
X114408219Y-115413915D01*
X114408222Y-115413918D01*
X114591365Y-115556464D01*
X114591371Y-115556468D01*
X114591374Y-115556470D01*
X114795497Y-115666936D01*
X114909487Y-115706068D01*
X115015015Y-115742297D01*
X115015017Y-115742297D01*
X115015019Y-115742298D01*
X115243951Y-115780500D01*
X115243952Y-115780500D01*
X115476048Y-115780500D01*
X115476049Y-115780500D01*
X115704981Y-115742298D01*
X115924503Y-115666936D01*
X116128626Y-115556470D01*
X116311784Y-115413913D01*
X116468979Y-115243153D01*
X116595924Y-115048849D01*
X116689157Y-114836300D01*
X116746134Y-114611305D01*
X116746135Y-114611297D01*
X116765300Y-114380006D01*
X116765300Y-114379993D01*
X116746135Y-114148702D01*
X116746133Y-114148691D01*
X116689157Y-113923699D01*
X116595924Y-113711151D01*
X116468983Y-113516852D01*
X116468980Y-113516849D01*
X116468979Y-113516847D01*
X116311784Y-113346087D01*
X116311779Y-113346083D01*
X116311777Y-113346081D01*
X116128634Y-113203535D01*
X116128628Y-113203531D01*
X115924504Y-113093064D01*
X115924495Y-113093061D01*
X115704984Y-113017702D01*
X115517404Y-112986401D01*
X115476049Y-112979500D01*
X115243951Y-112979500D01*
X115202596Y-112986401D01*
X115015015Y-113017702D01*
X114795504Y-113093061D01*
X114795495Y-113093064D01*
X114591371Y-113203531D01*
X114591365Y-113203535D01*
X114408222Y-113346081D01*
X114408215Y-113346087D01*
X114399484Y-113355572D01*
X114339595Y-113391561D01*
X114269757Y-113389458D01*
X114212143Y-113349932D01*
X114192075Y-113314918D01*
X114163355Y-113237915D01*
X114163350Y-113237906D01*
X114077190Y-113122812D01*
X114077187Y-113122809D01*
X113962093Y-113036649D01*
X113962086Y-113036645D01*
X113827379Y-112986403D01*
X113827372Y-112986401D01*
X113767844Y-112980000D01*
X113070000Y-112980000D01*
X113070000Y-114004722D01*
X112993694Y-113960667D01*
X112879244Y-113930000D01*
X112760756Y-113930000D01*
X112646306Y-113960667D01*
X112570000Y-114004722D01*
X112570000Y-112980000D01*
X111872155Y-112980000D01*
X111812627Y-112986401D01*
X111812620Y-112986403D01*
X111677913Y-113036645D01*
X111677906Y-113036649D01*
X111562812Y-113122809D01*
X111562809Y-113122812D01*
X111476649Y-113237906D01*
X111476645Y-113237913D01*
X111426403Y-113372620D01*
X111426401Y-113372627D01*
X111420000Y-113432155D01*
X110199623Y-113432155D01*
X110199623Y-103932155D01*
X111380000Y-103932155D01*
X111380000Y-104630000D01*
X112404722Y-104630000D01*
X112360667Y-104706306D01*
X112330000Y-104820756D01*
X112330000Y-104939244D01*
X112360667Y-105053694D01*
X112404722Y-105130000D01*
X111380000Y-105130000D01*
X111380000Y-105827844D01*
X111386401Y-105887372D01*
X111386403Y-105887379D01*
X111436645Y-106022086D01*
X111436649Y-106022093D01*
X111522809Y-106137187D01*
X111522812Y-106137190D01*
X111637906Y-106223350D01*
X111637913Y-106223354D01*
X111772620Y-106273596D01*
X111772627Y-106273598D01*
X111832155Y-106279999D01*
X111832172Y-106280000D01*
X112530000Y-106280000D01*
X112530000Y-105255277D01*
X112606306Y-105299333D01*
X112720756Y-105330000D01*
X112839244Y-105330000D01*
X112953694Y-105299333D01*
X113030000Y-105255277D01*
X113030000Y-106280000D01*
X113727828Y-106280000D01*
X113727844Y-106279999D01*
X113787372Y-106273598D01*
X113787379Y-106273596D01*
X113922086Y-106223354D01*
X113922093Y-106223350D01*
X114037187Y-106137190D01*
X114037190Y-106137187D01*
X114123350Y-106022093D01*
X114123355Y-106022084D01*
X114152075Y-105945081D01*
X114193945Y-105889147D01*
X114259409Y-105864729D01*
X114327682Y-105879580D01*
X114359484Y-105904428D01*
X114368216Y-105913913D01*
X114368219Y-105913915D01*
X114368222Y-105913918D01*
X114551365Y-106056464D01*
X114551371Y-106056468D01*
X114551374Y-106056470D01*
X114755497Y-106166936D01*
X114810927Y-106185965D01*
X114975015Y-106242297D01*
X114975017Y-106242297D01*
X114975019Y-106242298D01*
X115203951Y-106280500D01*
X115203952Y-106280500D01*
X115436048Y-106280500D01*
X115436049Y-106280500D01*
X115664981Y-106242298D01*
X115884503Y-106166936D01*
X116088626Y-106056470D01*
X116271784Y-105913913D01*
X116428979Y-105743153D01*
X116555924Y-105548849D01*
X116649157Y-105336300D01*
X116706134Y-105111305D01*
X116706135Y-105111297D01*
X116725300Y-104880006D01*
X116725300Y-104879993D01*
X116706135Y-104648702D01*
X116706133Y-104648691D01*
X116649157Y-104423699D01*
X116555924Y-104211151D01*
X116428983Y-104016852D01*
X116428980Y-104016849D01*
X116428979Y-104016847D01*
X116271784Y-103846087D01*
X116271779Y-103846083D01*
X116271777Y-103846081D01*
X116088634Y-103703535D01*
X116088628Y-103703531D01*
X115884504Y-103593064D01*
X115884495Y-103593061D01*
X115664984Y-103517702D01*
X115477404Y-103486401D01*
X115436049Y-103479500D01*
X115203951Y-103479500D01*
X115162596Y-103486401D01*
X114975015Y-103517702D01*
X114755504Y-103593061D01*
X114755495Y-103593064D01*
X114551371Y-103703531D01*
X114551365Y-103703535D01*
X114368222Y-103846081D01*
X114368215Y-103846087D01*
X114359484Y-103855572D01*
X114299595Y-103891561D01*
X114229757Y-103889458D01*
X114172143Y-103849932D01*
X114152075Y-103814918D01*
X114123355Y-103737915D01*
X114123350Y-103737906D01*
X114037190Y-103622812D01*
X114037187Y-103622809D01*
X113922093Y-103536649D01*
X113922086Y-103536645D01*
X113787379Y-103486403D01*
X113787372Y-103486401D01*
X113727844Y-103480000D01*
X113030000Y-103480000D01*
X113030000Y-104504722D01*
X112953694Y-104460667D01*
X112839244Y-104430000D01*
X112720756Y-104430000D01*
X112606306Y-104460667D01*
X112530000Y-104504722D01*
X112530000Y-103480000D01*
X111832155Y-103480000D01*
X111772627Y-103486401D01*
X111772620Y-103486403D01*
X111637913Y-103536645D01*
X111637906Y-103536649D01*
X111522812Y-103622809D01*
X111522809Y-103622812D01*
X111436649Y-103737906D01*
X111436645Y-103737913D01*
X111386403Y-103872620D01*
X111386401Y-103872627D01*
X111380000Y-103932155D01*
X110199623Y-103932155D01*
X110199623Y-94932155D01*
X111380000Y-94932155D01*
X111380000Y-95630000D01*
X112404722Y-95630000D01*
X112360667Y-95706306D01*
X112330000Y-95820756D01*
X112330000Y-95939244D01*
X112360667Y-96053694D01*
X112404722Y-96130000D01*
X111380000Y-96130000D01*
X111380000Y-96827844D01*
X111386401Y-96887372D01*
X111386403Y-96887379D01*
X111436645Y-97022086D01*
X111436649Y-97022093D01*
X111522809Y-97137187D01*
X111522812Y-97137190D01*
X111637906Y-97223350D01*
X111637913Y-97223354D01*
X111772620Y-97273596D01*
X111772627Y-97273598D01*
X111832155Y-97279999D01*
X111832172Y-97280000D01*
X112530000Y-97280000D01*
X112530000Y-96255277D01*
X112606306Y-96299333D01*
X112720756Y-96330000D01*
X112839244Y-96330000D01*
X112953694Y-96299333D01*
X113030000Y-96255277D01*
X113030000Y-97280000D01*
X113727828Y-97280000D01*
X113727844Y-97279999D01*
X113787372Y-97273598D01*
X113787379Y-97273596D01*
X113922086Y-97223354D01*
X113922093Y-97223350D01*
X114037187Y-97137190D01*
X114037190Y-97137187D01*
X114123350Y-97022093D01*
X114123355Y-97022084D01*
X114152075Y-96945081D01*
X114193945Y-96889147D01*
X114259409Y-96864729D01*
X114327682Y-96879580D01*
X114359484Y-96904428D01*
X114368216Y-96913913D01*
X114368219Y-96913915D01*
X114368222Y-96913918D01*
X114551365Y-97056464D01*
X114551371Y-97056468D01*
X114551374Y-97056470D01*
X114755497Y-97166936D01*
X114805634Y-97184148D01*
X114975015Y-97242297D01*
X114975017Y-97242297D01*
X114975019Y-97242298D01*
X115203951Y-97280500D01*
X115203952Y-97280500D01*
X115436048Y-97280500D01*
X115436049Y-97280500D01*
X115664981Y-97242298D01*
X115884503Y-97166936D01*
X116088626Y-97056470D01*
X116271784Y-96913913D01*
X116428979Y-96743153D01*
X116436125Y-96732216D01*
X116543226Y-96568284D01*
X116555924Y-96548849D01*
X116649157Y-96336300D01*
X116706134Y-96111305D01*
X116710908Y-96053694D01*
X116725300Y-95880006D01*
X116725300Y-95879993D01*
X116706135Y-95648702D01*
X116706133Y-95648691D01*
X116649157Y-95423699D01*
X116555924Y-95211151D01*
X116428983Y-95016852D01*
X116428980Y-95016849D01*
X116428979Y-95016847D01*
X116271784Y-94846087D01*
X116271779Y-94846083D01*
X116271777Y-94846081D01*
X116088634Y-94703535D01*
X116088628Y-94703531D01*
X115884504Y-94593064D01*
X115884495Y-94593061D01*
X115664984Y-94517702D01*
X115477404Y-94486401D01*
X115436049Y-94479500D01*
X115203951Y-94479500D01*
X115162596Y-94486401D01*
X114975015Y-94517702D01*
X114755504Y-94593061D01*
X114755495Y-94593064D01*
X114551371Y-94703531D01*
X114551365Y-94703535D01*
X114368222Y-94846081D01*
X114368215Y-94846087D01*
X114359484Y-94855572D01*
X114299595Y-94891561D01*
X114229757Y-94889458D01*
X114172143Y-94849932D01*
X114152075Y-94814918D01*
X114123355Y-94737915D01*
X114123350Y-94737906D01*
X114037190Y-94622812D01*
X114037187Y-94622809D01*
X113922093Y-94536649D01*
X113922086Y-94536645D01*
X113787379Y-94486403D01*
X113787372Y-94486401D01*
X113727844Y-94480000D01*
X113030000Y-94480000D01*
X113030000Y-95504722D01*
X112953694Y-95460667D01*
X112839244Y-95430000D01*
X112720756Y-95430000D01*
X112606306Y-95460667D01*
X112530000Y-95504722D01*
X112530000Y-94480000D01*
X111832155Y-94480000D01*
X111772627Y-94486401D01*
X111772620Y-94486403D01*
X111637913Y-94536645D01*
X111637906Y-94536649D01*
X111522812Y-94622809D01*
X111522809Y-94622812D01*
X111436649Y-94737906D01*
X111436645Y-94737913D01*
X111386403Y-94872620D01*
X111386401Y-94872627D01*
X111380000Y-94932155D01*
X110199623Y-94932155D01*
X110199623Y-85432155D01*
X111145000Y-85432155D01*
X111145000Y-86130000D01*
X112169722Y-86130000D01*
X112125667Y-86206306D01*
X112095000Y-86320756D01*
X112095000Y-86439244D01*
X112125667Y-86553694D01*
X112169722Y-86630000D01*
X111145000Y-86630000D01*
X111145000Y-87327844D01*
X111151401Y-87387372D01*
X111151403Y-87387379D01*
X111201645Y-87522086D01*
X111201649Y-87522093D01*
X111287809Y-87637187D01*
X111287812Y-87637190D01*
X111402906Y-87723350D01*
X111402913Y-87723354D01*
X111537620Y-87773596D01*
X111537627Y-87773598D01*
X111597155Y-87779999D01*
X111597172Y-87780000D01*
X112295000Y-87780000D01*
X112295000Y-86755277D01*
X112371306Y-86799333D01*
X112485756Y-86830000D01*
X112604244Y-86830000D01*
X112718694Y-86799333D01*
X112795000Y-86755277D01*
X112795000Y-87780000D01*
X113492828Y-87780000D01*
X113492844Y-87779999D01*
X113552372Y-87773598D01*
X113552379Y-87773596D01*
X113687086Y-87723354D01*
X113687093Y-87723350D01*
X113802187Y-87637190D01*
X113802190Y-87637187D01*
X113888350Y-87522093D01*
X113888355Y-87522084D01*
X113917075Y-87445081D01*
X113958945Y-87389147D01*
X114024409Y-87364729D01*
X114092682Y-87379580D01*
X114124484Y-87404428D01*
X114133216Y-87413913D01*
X114133219Y-87413915D01*
X114133222Y-87413918D01*
X114316365Y-87556464D01*
X114316371Y-87556468D01*
X114316374Y-87556470D01*
X114520497Y-87666936D01*
X114634487Y-87706068D01*
X114740015Y-87742297D01*
X114740017Y-87742297D01*
X114740019Y-87742298D01*
X114968951Y-87780500D01*
X114968952Y-87780500D01*
X115201048Y-87780500D01*
X115201049Y-87780500D01*
X115429981Y-87742298D01*
X115649503Y-87666936D01*
X115853626Y-87556470D01*
X116036784Y-87413913D01*
X116193979Y-87243153D01*
X116320924Y-87048849D01*
X116414157Y-86836300D01*
X116471134Y-86611305D01*
X116474031Y-86576344D01*
X116490300Y-86380006D01*
X116490300Y-86379993D01*
X116471135Y-86148702D01*
X116471133Y-86148691D01*
X116414157Y-85923699D01*
X116320924Y-85711151D01*
X116193983Y-85516852D01*
X116193980Y-85516849D01*
X116193979Y-85516847D01*
X116036784Y-85346087D01*
X116036779Y-85346083D01*
X116036777Y-85346081D01*
X115853634Y-85203535D01*
X115853628Y-85203531D01*
X115649504Y-85093064D01*
X115649495Y-85093061D01*
X115429984Y-85017702D01*
X115242404Y-84986401D01*
X115201049Y-84979500D01*
X114968951Y-84979500D01*
X114927596Y-84986401D01*
X114740015Y-85017702D01*
X114520504Y-85093061D01*
X114520495Y-85093064D01*
X114316371Y-85203531D01*
X114316365Y-85203535D01*
X114133222Y-85346081D01*
X114133215Y-85346087D01*
X114124484Y-85355572D01*
X114064595Y-85391561D01*
X113994757Y-85389458D01*
X113937143Y-85349932D01*
X113917075Y-85314918D01*
X113888355Y-85237915D01*
X113888350Y-85237906D01*
X113802190Y-85122812D01*
X113802187Y-85122809D01*
X113687093Y-85036649D01*
X113687086Y-85036645D01*
X113552379Y-84986403D01*
X113552372Y-84986401D01*
X113492844Y-84980000D01*
X112795000Y-84980000D01*
X112795000Y-86004722D01*
X112718694Y-85960667D01*
X112604244Y-85930000D01*
X112485756Y-85930000D01*
X112371306Y-85960667D01*
X112295000Y-86004722D01*
X112295000Y-84980000D01*
X111597155Y-84980000D01*
X111537627Y-84986401D01*
X111537620Y-84986403D01*
X111402913Y-85036645D01*
X111402906Y-85036649D01*
X111287812Y-85122809D01*
X111287809Y-85122812D01*
X111201649Y-85237906D01*
X111201645Y-85237913D01*
X111151403Y-85372620D01*
X111151401Y-85372627D01*
X111145000Y-85432155D01*
X110199623Y-85432155D01*
X110199623Y-75452135D01*
X112499500Y-75452135D01*
X112499500Y-78547870D01*
X112499501Y-78547876D01*
X112505908Y-78607483D01*
X112556202Y-78742328D01*
X112556206Y-78742335D01*
X112642452Y-78857544D01*
X112642455Y-78857547D01*
X112757664Y-78943793D01*
X112757671Y-78943797D01*
X112892517Y-78994091D01*
X112892516Y-78994091D01*
X112899444Y-78994835D01*
X112952127Y-79000500D01*
X116047872Y-79000499D01*
X116107483Y-78994091D01*
X116242331Y-78943796D01*
X116357546Y-78857546D01*
X116443796Y-78742331D01*
X116494091Y-78607483D01*
X116500500Y-78547873D01*
X116500499Y-75452128D01*
X116494091Y-75392517D01*
X116488862Y-75378498D01*
X116443797Y-75257671D01*
X116443793Y-75257664D01*
X116357547Y-75142455D01*
X116357544Y-75142452D01*
X116242335Y-75056206D01*
X116242328Y-75056202D01*
X116107482Y-75005908D01*
X116107483Y-75005908D01*
X116047883Y-74999501D01*
X116047881Y-74999500D01*
X116047873Y-74999500D01*
X116047864Y-74999500D01*
X112952129Y-74999500D01*
X112952123Y-74999501D01*
X112892516Y-75005908D01*
X112757671Y-75056202D01*
X112757664Y-75056206D01*
X112642455Y-75142452D01*
X112642452Y-75142455D01*
X112556206Y-75257664D01*
X112556202Y-75257671D01*
X112505908Y-75392517D01*
X112499501Y-75452116D01*
X112499501Y-75452123D01*
X112499500Y-75452135D01*
X110199623Y-75452135D01*
X110199623Y-71919998D01*
X112494891Y-71919998D01*
X112494891Y-71920001D01*
X112515300Y-72205362D01*
X112576109Y-72484895D01*
X112676091Y-72752958D01*
X112813191Y-73004038D01*
X112813196Y-73004046D01*
X112919882Y-73146561D01*
X112919883Y-73146562D01*
X113814767Y-72251677D01*
X113826497Y-72279995D01*
X113909670Y-72404472D01*
X114015528Y-72510330D01*
X114140005Y-72593503D01*
X114168320Y-72605231D01*
X113273436Y-73500115D01*
X113415960Y-73606807D01*
X113415961Y-73606808D01*
X113667042Y-73743908D01*
X113667041Y-73743908D01*
X113935104Y-73843890D01*
X114214637Y-73904699D01*
X114499999Y-73925109D01*
X114500001Y-73925109D01*
X114785362Y-73904699D01*
X115064895Y-73843890D01*
X115332958Y-73743908D01*
X115584047Y-73606803D01*
X115726561Y-73500116D01*
X115726562Y-73500115D01*
X114831679Y-72605231D01*
X114859995Y-72593503D01*
X114984472Y-72510330D01*
X115090330Y-72404472D01*
X115173503Y-72279995D01*
X115185231Y-72251678D01*
X116080115Y-73146562D01*
X116080116Y-73146561D01*
X116186803Y-73004047D01*
X116323908Y-72752958D01*
X116423890Y-72484895D01*
X116484699Y-72205362D01*
X116505109Y-71920001D01*
X116505109Y-71919998D01*
X116496526Y-71799999D01*
X130894341Y-71799999D01*
X130894341Y-71800000D01*
X130914936Y-72035403D01*
X130914938Y-72035413D01*
X130976094Y-72263655D01*
X130976096Y-72263659D01*
X130976097Y-72263663D01*
X131041758Y-72404472D01*
X131075965Y-72477830D01*
X131075967Y-72477834D01*
X131211501Y-72671395D01*
X131211506Y-72671402D01*
X131378597Y-72838493D01*
X131378603Y-72838498D01*
X131564158Y-72968425D01*
X131607783Y-73023002D01*
X131614977Y-73092500D01*
X131583454Y-73154855D01*
X131564158Y-73171575D01*
X131378597Y-73301505D01*
X131211505Y-73468597D01*
X131075965Y-73662169D01*
X131075964Y-73662171D01*
X130976098Y-73876335D01*
X130976094Y-73876344D01*
X130914938Y-74104586D01*
X130914936Y-74104596D01*
X130894341Y-74339999D01*
X130894341Y-74340000D01*
X130914936Y-74575403D01*
X130914938Y-74575413D01*
X130976094Y-74803655D01*
X130976096Y-74803659D01*
X130976097Y-74803663D01*
X131067418Y-74999500D01*
X131075965Y-75017830D01*
X131075967Y-75017834D01*
X131211501Y-75211395D01*
X131211506Y-75211402D01*
X131378597Y-75378493D01*
X131378603Y-75378498D01*
X131564158Y-75508425D01*
X131607783Y-75563002D01*
X131614977Y-75632500D01*
X131583454Y-75694855D01*
X131564158Y-75711575D01*
X131378597Y-75841505D01*
X131211505Y-76008597D01*
X131075965Y-76202169D01*
X131075964Y-76202171D01*
X130976098Y-76416335D01*
X130976094Y-76416344D01*
X130914938Y-76644586D01*
X130914936Y-76644596D01*
X130894341Y-76879999D01*
X130894341Y-76880000D01*
X130914936Y-77115403D01*
X130914938Y-77115413D01*
X130976094Y-77343655D01*
X130976096Y-77343659D01*
X130976097Y-77343663D01*
X131075965Y-77557830D01*
X131075967Y-77557834D01*
X131211501Y-77751395D01*
X131211506Y-77751402D01*
X131378597Y-77918493D01*
X131378603Y-77918498D01*
X131564158Y-78048425D01*
X131607783Y-78103002D01*
X131614977Y-78172500D01*
X131583454Y-78234855D01*
X131564158Y-78251575D01*
X131378597Y-78381505D01*
X131211505Y-78548597D01*
X131075965Y-78742169D01*
X131075964Y-78742171D01*
X130976098Y-78956335D01*
X130976094Y-78956344D01*
X130914938Y-79184586D01*
X130914936Y-79184596D01*
X130894341Y-79419999D01*
X130894341Y-79420000D01*
X130914936Y-79655403D01*
X130914938Y-79655413D01*
X130976094Y-79883655D01*
X130976096Y-79883659D01*
X130976097Y-79883663D01*
X131075965Y-80097830D01*
X131075967Y-80097834D01*
X131211501Y-80291395D01*
X131211506Y-80291402D01*
X131378597Y-80458493D01*
X131378603Y-80458498D01*
X131564158Y-80588425D01*
X131607783Y-80643002D01*
X131614977Y-80712500D01*
X131583454Y-80774855D01*
X131564158Y-80791575D01*
X131378597Y-80921505D01*
X131211505Y-81088597D01*
X131075965Y-81282169D01*
X131075964Y-81282171D01*
X130976098Y-81496335D01*
X130976094Y-81496344D01*
X130914938Y-81724586D01*
X130914936Y-81724596D01*
X130894341Y-81959999D01*
X130894341Y-81960000D01*
X130914936Y-82195403D01*
X130914938Y-82195413D01*
X130976094Y-82423655D01*
X130976096Y-82423659D01*
X130976097Y-82423663D01*
X131075965Y-82637830D01*
X131075967Y-82637834D01*
X131211501Y-82831395D01*
X131211506Y-82831402D01*
X131378597Y-82998493D01*
X131378603Y-82998498D01*
X131564158Y-83128425D01*
X131607783Y-83183002D01*
X131614977Y-83252500D01*
X131583454Y-83314855D01*
X131564158Y-83331575D01*
X131378597Y-83461505D01*
X131211505Y-83628597D01*
X131075965Y-83822169D01*
X131075964Y-83822171D01*
X130976098Y-84036335D01*
X130976094Y-84036344D01*
X130914938Y-84264586D01*
X130914936Y-84264596D01*
X130894341Y-84499999D01*
X130894341Y-84500000D01*
X130914936Y-84735403D01*
X130914938Y-84735413D01*
X130976094Y-84963655D01*
X130976096Y-84963659D01*
X130976097Y-84963663D01*
X131036438Y-85093064D01*
X131075965Y-85177830D01*
X131075967Y-85177834D01*
X131118037Y-85237915D01*
X131209322Y-85368284D01*
X131211501Y-85371395D01*
X131211506Y-85371402D01*
X131378597Y-85538493D01*
X131378603Y-85538498D01*
X131564158Y-85668425D01*
X131607783Y-85723002D01*
X131614977Y-85792500D01*
X131583454Y-85854855D01*
X131564158Y-85871575D01*
X131378597Y-86001505D01*
X131211505Y-86168597D01*
X131075965Y-86362169D01*
X131075964Y-86362171D01*
X130976098Y-86576335D01*
X130976094Y-86576344D01*
X130914938Y-86804586D01*
X130914936Y-86804596D01*
X130894341Y-87039999D01*
X130894341Y-87040000D01*
X130914936Y-87275403D01*
X130914938Y-87275413D01*
X130976094Y-87503655D01*
X130976096Y-87503659D01*
X130976097Y-87503663D01*
X131038362Y-87637190D01*
X131075965Y-87717830D01*
X131075967Y-87717834D01*
X131211501Y-87911395D01*
X131211506Y-87911402D01*
X131378597Y-88078493D01*
X131378603Y-88078498D01*
X131564158Y-88208425D01*
X131607783Y-88263002D01*
X131614977Y-88332500D01*
X131583454Y-88394855D01*
X131564158Y-88411575D01*
X131378597Y-88541505D01*
X131211505Y-88708597D01*
X131075965Y-88902169D01*
X131075964Y-88902171D01*
X130976098Y-89116335D01*
X130976094Y-89116344D01*
X130914938Y-89344586D01*
X130914936Y-89344596D01*
X130894341Y-89579999D01*
X130894341Y-89580000D01*
X130914936Y-89815403D01*
X130914938Y-89815413D01*
X130976094Y-90043655D01*
X130976096Y-90043659D01*
X130976097Y-90043663D01*
X131017389Y-90132214D01*
X131075965Y-90257830D01*
X131075967Y-90257834D01*
X131211501Y-90451395D01*
X131211506Y-90451402D01*
X131378597Y-90618493D01*
X131378603Y-90618498D01*
X131564158Y-90748425D01*
X131607783Y-90803002D01*
X131614977Y-90872500D01*
X131583454Y-90934855D01*
X131564158Y-90951575D01*
X131378597Y-91081505D01*
X131211505Y-91248597D01*
X131075965Y-91442169D01*
X131075964Y-91442171D01*
X130976098Y-91656335D01*
X130976094Y-91656344D01*
X130914938Y-91884586D01*
X130914936Y-91884596D01*
X130894341Y-92119999D01*
X130894341Y-92120000D01*
X130914936Y-92355403D01*
X130914938Y-92355413D01*
X130976094Y-92583655D01*
X130976096Y-92583659D01*
X130976097Y-92583663D01*
X130991106Y-92615849D01*
X131075965Y-92797830D01*
X131075967Y-92797834D01*
X131124947Y-92867784D01*
X131211501Y-92991396D01*
X131211506Y-92991402D01*
X131378597Y-93158493D01*
X131378603Y-93158498D01*
X131564158Y-93288425D01*
X131607783Y-93343002D01*
X131614977Y-93412500D01*
X131583454Y-93474855D01*
X131564158Y-93491575D01*
X131378597Y-93621505D01*
X131211505Y-93788597D01*
X131075965Y-93982169D01*
X131075964Y-93982171D01*
X130976098Y-94196335D01*
X130976094Y-94196344D01*
X130914938Y-94424586D01*
X130914936Y-94424596D01*
X130894341Y-94659999D01*
X130894341Y-94660000D01*
X130914936Y-94895403D01*
X130914938Y-94895413D01*
X130976094Y-95123655D01*
X130976096Y-95123659D01*
X130976097Y-95123663D01*
X131056004Y-95295023D01*
X131075965Y-95337830D01*
X131075967Y-95337834D01*
X131170534Y-95472888D01*
X131211501Y-95531396D01*
X131211506Y-95531402D01*
X131378597Y-95698493D01*
X131378603Y-95698498D01*
X131564158Y-95828425D01*
X131607783Y-95883002D01*
X131614977Y-95952500D01*
X131583454Y-96014855D01*
X131564158Y-96031575D01*
X131378597Y-96161505D01*
X131211505Y-96328597D01*
X131075965Y-96522169D01*
X131075964Y-96522171D01*
X130976098Y-96736335D01*
X130976094Y-96736344D01*
X130914938Y-96964586D01*
X130914936Y-96964596D01*
X130894341Y-97199999D01*
X130894341Y-97200000D01*
X130914936Y-97435403D01*
X130914938Y-97435413D01*
X130976094Y-97663655D01*
X130976096Y-97663659D01*
X130976097Y-97663663D01*
X131045291Y-97812050D01*
X131075965Y-97877830D01*
X131075967Y-97877834D01*
X131183717Y-98031715D01*
X131211501Y-98071396D01*
X131211506Y-98071402D01*
X131378597Y-98238493D01*
X131378603Y-98238498D01*
X131564158Y-98368425D01*
X131607783Y-98423002D01*
X131614977Y-98492500D01*
X131583454Y-98554855D01*
X131564158Y-98571575D01*
X131378597Y-98701505D01*
X131211505Y-98868597D01*
X131075965Y-99062169D01*
X131075964Y-99062171D01*
X130976098Y-99276335D01*
X130976094Y-99276344D01*
X130914938Y-99504586D01*
X130914936Y-99504596D01*
X130894341Y-99739999D01*
X130894341Y-99740000D01*
X130914936Y-99975403D01*
X130914938Y-99975413D01*
X130976094Y-100203655D01*
X130976096Y-100203659D01*
X130976097Y-100203663D01*
X131075965Y-100417830D01*
X131075967Y-100417834D01*
X131211501Y-100611395D01*
X131211506Y-100611402D01*
X131378597Y-100778493D01*
X131378603Y-100778498D01*
X131564158Y-100908425D01*
X131607783Y-100963002D01*
X131614977Y-101032500D01*
X131583454Y-101094855D01*
X131564158Y-101111575D01*
X131378597Y-101241505D01*
X131211505Y-101408597D01*
X131075965Y-101602169D01*
X131075964Y-101602171D01*
X130976098Y-101816335D01*
X130976094Y-101816344D01*
X130914938Y-102044586D01*
X130914936Y-102044596D01*
X130894341Y-102279999D01*
X130894341Y-102280000D01*
X130914936Y-102515403D01*
X130914938Y-102515413D01*
X130976094Y-102743655D01*
X130976096Y-102743659D01*
X130976097Y-102743663D01*
X130996893Y-102788259D01*
X131075965Y-102957830D01*
X131075967Y-102957834D01*
X131211501Y-103151395D01*
X131211506Y-103151402D01*
X131378597Y-103318493D01*
X131378603Y-103318498D01*
X131564158Y-103448425D01*
X131607783Y-103503002D01*
X131614977Y-103572500D01*
X131583454Y-103634855D01*
X131564158Y-103651575D01*
X131378597Y-103781505D01*
X131211505Y-103948597D01*
X131075965Y-104142169D01*
X131075964Y-104142171D01*
X130976098Y-104356335D01*
X130976094Y-104356344D01*
X130914938Y-104584586D01*
X130914936Y-104584596D01*
X130894341Y-104819999D01*
X130894341Y-104820000D01*
X130914936Y-105055403D01*
X130914938Y-105055413D01*
X130976094Y-105283655D01*
X130976096Y-105283659D01*
X130976097Y-105283663D01*
X131075965Y-105497830D01*
X131075967Y-105497834D01*
X131211501Y-105691395D01*
X131211506Y-105691402D01*
X131378597Y-105858493D01*
X131378603Y-105858498D01*
X131564158Y-105988425D01*
X131607783Y-106043002D01*
X131614977Y-106112500D01*
X131583454Y-106174855D01*
X131564158Y-106191575D01*
X131378597Y-106321505D01*
X131211505Y-106488597D01*
X131075965Y-106682169D01*
X131075964Y-106682171D01*
X130976098Y-106896335D01*
X130976094Y-106896344D01*
X130914938Y-107124586D01*
X130914936Y-107124596D01*
X130894341Y-107359999D01*
X130894341Y-107360000D01*
X130914936Y-107595403D01*
X130914938Y-107595413D01*
X130976094Y-107823655D01*
X130976096Y-107823659D01*
X130976097Y-107823663D01*
X131046713Y-107975099D01*
X131075965Y-108037830D01*
X131075967Y-108037834D01*
X131211501Y-108231395D01*
X131211506Y-108231402D01*
X131378597Y-108398493D01*
X131378603Y-108398498D01*
X131564158Y-108528425D01*
X131607783Y-108583002D01*
X131614977Y-108652500D01*
X131583454Y-108714855D01*
X131564158Y-108731575D01*
X131378597Y-108861505D01*
X131211505Y-109028597D01*
X131075965Y-109222169D01*
X131075964Y-109222171D01*
X130976098Y-109436335D01*
X130976094Y-109436344D01*
X130914938Y-109664586D01*
X130914936Y-109664596D01*
X130894341Y-109899999D01*
X130894341Y-109900000D01*
X130914936Y-110135403D01*
X130914938Y-110135413D01*
X130976094Y-110363655D01*
X130976096Y-110363659D01*
X130976097Y-110363663D01*
X131049085Y-110520185D01*
X131075965Y-110577830D01*
X131075967Y-110577834D01*
X131211501Y-110771395D01*
X131211506Y-110771402D01*
X131378597Y-110938493D01*
X131378603Y-110938498D01*
X131564158Y-111068425D01*
X131607783Y-111123002D01*
X131614977Y-111192500D01*
X131583454Y-111254855D01*
X131564158Y-111271575D01*
X131378597Y-111401505D01*
X131211505Y-111568597D01*
X131075965Y-111762169D01*
X131075964Y-111762171D01*
X130976098Y-111976335D01*
X130976094Y-111976344D01*
X130914938Y-112204586D01*
X130914936Y-112204596D01*
X130894341Y-112439999D01*
X130894341Y-112440000D01*
X130914936Y-112675403D01*
X130914938Y-112675413D01*
X130976094Y-112903655D01*
X130976096Y-112903659D01*
X130976097Y-112903663D01*
X131038108Y-113036645D01*
X131075965Y-113117830D01*
X131075967Y-113117834D01*
X131184281Y-113272521D01*
X131211505Y-113311401D01*
X131378599Y-113478495D01*
X131564158Y-113608425D01*
X131564594Y-113608730D01*
X131608218Y-113663307D01*
X131615411Y-113732806D01*
X131583889Y-113795160D01*
X131564593Y-113811880D01*
X131488626Y-113865072D01*
X131488625Y-113865072D01*
X132120590Y-114497037D01*
X132057007Y-114514075D01*
X131942993Y-114579901D01*
X131849901Y-114672993D01*
X131784075Y-114787007D01*
X131767037Y-114850590D01*
X131135072Y-114218625D01*
X131076401Y-114302419D01*
X130976570Y-114516507D01*
X130976566Y-114516516D01*
X130915432Y-114744673D01*
X130915430Y-114744684D01*
X130894843Y-114979998D01*
X130894843Y-114980001D01*
X130915430Y-115215315D01*
X130915432Y-115215326D01*
X130976566Y-115443483D01*
X130976570Y-115443492D01*
X131076400Y-115657579D01*
X131076402Y-115657583D01*
X131135072Y-115741373D01*
X131135073Y-115741373D01*
X131767037Y-115109409D01*
X131784075Y-115172993D01*
X131849901Y-115287007D01*
X131942993Y-115380099D01*
X132057007Y-115445925D01*
X132120590Y-115462962D01*
X131488625Y-116094925D01*
X131564594Y-116148119D01*
X131608219Y-116202696D01*
X131615413Y-116272194D01*
X131583890Y-116334549D01*
X131564595Y-116351269D01*
X131378594Y-116481508D01*
X131211505Y-116648597D01*
X131075965Y-116842169D01*
X131075964Y-116842171D01*
X130976098Y-117056335D01*
X130976094Y-117056344D01*
X130914938Y-117284586D01*
X130914936Y-117284596D01*
X130894341Y-117519999D01*
X130894341Y-117520000D01*
X130914936Y-117755403D01*
X130914938Y-117755413D01*
X130976094Y-117983655D01*
X130976096Y-117983659D01*
X130976097Y-117983663D01*
X131075965Y-118197830D01*
X131075967Y-118197834D01*
X131184281Y-118352521D01*
X131211505Y-118391401D01*
X131378599Y-118558495D01*
X131475384Y-118626265D01*
X131572165Y-118694032D01*
X131572167Y-118694033D01*
X131572170Y-118694035D01*
X131786337Y-118793903D01*
X132014592Y-118855063D01*
X132202918Y-118871539D01*
X132249999Y-118875659D01*
X132250000Y-118875659D01*
X132250001Y-118875659D01*
X132289234Y-118872226D01*
X132485408Y-118855063D01*
X132713663Y-118793903D01*
X132927830Y-118694035D01*
X133121401Y-118558495D01*
X133288495Y-118391401D01*
X133424035Y-118197830D01*
X133523903Y-117983663D01*
X133585063Y-117755408D01*
X133605659Y-117520000D01*
X133585063Y-117284592D01*
X133523903Y-117056337D01*
X133424035Y-116842171D01*
X133288495Y-116648599D01*
X133288494Y-116648597D01*
X133121402Y-116481506D01*
X133121401Y-116481505D01*
X132935405Y-116351269D01*
X132891781Y-116296692D01*
X132884588Y-116227193D01*
X132916110Y-116164839D01*
X132935405Y-116148119D01*
X133011373Y-116094925D01*
X132379409Y-115462962D01*
X132442993Y-115445925D01*
X132557007Y-115380099D01*
X132650099Y-115287007D01*
X132715925Y-115172993D01*
X132732962Y-115109410D01*
X133364925Y-115741373D01*
X133364926Y-115741373D01*
X133423598Y-115657582D01*
X133423600Y-115657578D01*
X133523429Y-115443492D01*
X133523433Y-115443483D01*
X133584567Y-115215326D01*
X133584569Y-115215315D01*
X133605157Y-114980001D01*
X133605157Y-114979998D01*
X133584569Y-114744684D01*
X133584567Y-114744673D01*
X133523433Y-114516516D01*
X133523429Y-114516507D01*
X133423600Y-114302423D01*
X133423599Y-114302421D01*
X133364925Y-114218626D01*
X133364925Y-114218625D01*
X132732962Y-114850589D01*
X132715925Y-114787007D01*
X132650099Y-114672993D01*
X132557007Y-114579901D01*
X132442993Y-114514075D01*
X132379410Y-114497037D01*
X133011373Y-113865073D01*
X133011373Y-113865072D01*
X132935405Y-113811880D01*
X132891780Y-113757304D01*
X132884586Y-113687805D01*
X132916108Y-113625451D01*
X132935399Y-113608734D01*
X133121401Y-113478495D01*
X133288495Y-113311401D01*
X133424035Y-113117830D01*
X133523903Y-112903663D01*
X133585063Y-112675408D01*
X133605659Y-112440000D01*
X133603873Y-112419592D01*
X133585063Y-112204596D01*
X133585063Y-112204592D01*
X133527150Y-111988454D01*
X133523905Y-111976344D01*
X133523904Y-111976343D01*
X133523903Y-111976337D01*
X133424035Y-111762171D01*
X133322037Y-111616501D01*
X133288494Y-111568597D01*
X133121402Y-111401506D01*
X133121396Y-111401501D01*
X132935842Y-111271575D01*
X132892217Y-111216998D01*
X132885023Y-111147500D01*
X132916546Y-111085145D01*
X132935842Y-111068425D01*
X132958026Y-111052891D01*
X133121401Y-110938495D01*
X133288495Y-110771401D01*
X133424035Y-110577830D01*
X133523903Y-110363663D01*
X133585063Y-110135408D01*
X133605659Y-109900000D01*
X133603873Y-109879592D01*
X133590979Y-109732214D01*
X133585063Y-109664592D01*
X133524472Y-109438460D01*
X133523905Y-109436344D01*
X133523904Y-109436343D01*
X133523903Y-109436337D01*
X133424035Y-109222171D01*
X133353394Y-109121284D01*
X133288494Y-109028597D01*
X133121402Y-108861506D01*
X133121396Y-108861501D01*
X132935842Y-108731575D01*
X132892217Y-108676998D01*
X132885023Y-108607500D01*
X132916546Y-108545145D01*
X132935842Y-108528425D01*
X133005578Y-108479595D01*
X133121401Y-108398495D01*
X133288495Y-108231401D01*
X133424035Y-108037830D01*
X133523903Y-107823663D01*
X133585063Y-107595408D01*
X133605659Y-107360000D01*
X133603873Y-107339592D01*
X133597609Y-107267993D01*
X133585063Y-107124592D01*
X133538626Y-106951285D01*
X133523905Y-106896344D01*
X133523904Y-106896343D01*
X133523903Y-106896337D01*
X133424035Y-106682171D01*
X133376631Y-106614470D01*
X133288494Y-106488597D01*
X133121402Y-106321506D01*
X133121396Y-106321501D01*
X132935842Y-106191575D01*
X132892217Y-106136998D01*
X132885023Y-106067500D01*
X132916546Y-106005145D01*
X132935842Y-105988425D01*
X132997743Y-105945081D01*
X133121401Y-105858495D01*
X133288495Y-105691401D01*
X133424035Y-105497830D01*
X133523903Y-105283663D01*
X133585063Y-105055408D01*
X133605659Y-104820000D01*
X133585063Y-104584592D01*
X133523903Y-104356337D01*
X133424035Y-104142171D01*
X133288495Y-103948599D01*
X133288494Y-103948597D01*
X133121402Y-103781506D01*
X133121396Y-103781501D01*
X132935842Y-103651575D01*
X132892217Y-103596998D01*
X132885023Y-103527500D01*
X132916546Y-103465145D01*
X132935842Y-103448425D01*
X132958026Y-103432891D01*
X133121401Y-103318495D01*
X133288495Y-103151401D01*
X133424035Y-102957830D01*
X133523903Y-102743663D01*
X133585063Y-102515408D01*
X133605659Y-102280000D01*
X133585063Y-102044592D01*
X133523903Y-101816337D01*
X133424035Y-101602171D01*
X133288495Y-101408599D01*
X133288494Y-101408597D01*
X133121402Y-101241506D01*
X133121396Y-101241501D01*
X132935842Y-101111575D01*
X132892217Y-101056998D01*
X132885023Y-100987500D01*
X132916546Y-100925145D01*
X132935842Y-100908425D01*
X132958026Y-100892891D01*
X133121401Y-100778495D01*
X133288495Y-100611401D01*
X133424035Y-100417830D01*
X133523903Y-100203663D01*
X133585063Y-99975408D01*
X133605659Y-99740000D01*
X133585063Y-99504592D01*
X133523903Y-99276337D01*
X133424035Y-99062171D01*
X133288495Y-98868599D01*
X133288494Y-98868597D01*
X133121402Y-98701506D01*
X133121396Y-98701501D01*
X132935842Y-98571575D01*
X132892217Y-98516998D01*
X132885023Y-98447500D01*
X132916546Y-98385145D01*
X132935842Y-98368425D01*
X132958026Y-98352891D01*
X133121401Y-98238495D01*
X133288495Y-98071401D01*
X133424035Y-97877830D01*
X133523903Y-97663663D01*
X133585063Y-97435408D01*
X133605659Y-97200000D01*
X133585063Y-96964592D01*
X133523903Y-96736337D01*
X133424035Y-96522171D01*
X133418425Y-96514158D01*
X133288494Y-96328597D01*
X133121402Y-96161506D01*
X133121396Y-96161501D01*
X132935842Y-96031575D01*
X132892217Y-95976998D01*
X132885023Y-95907500D01*
X132916546Y-95845145D01*
X132935842Y-95828425D01*
X132959671Y-95811740D01*
X133121401Y-95698495D01*
X133288495Y-95531401D01*
X133424035Y-95337830D01*
X133523903Y-95123663D01*
X133585063Y-94895408D01*
X133605659Y-94660000D01*
X133585063Y-94424592D01*
X133523903Y-94196337D01*
X133424035Y-93982171D01*
X133418425Y-93974158D01*
X133288494Y-93788597D01*
X133121402Y-93621506D01*
X133121396Y-93621501D01*
X132935842Y-93491575D01*
X132892217Y-93436998D01*
X132885023Y-93367500D01*
X132916546Y-93305145D01*
X132935842Y-93288425D01*
X132958026Y-93272891D01*
X133121401Y-93158495D01*
X133288495Y-92991401D01*
X133424035Y-92797830D01*
X133523903Y-92583663D01*
X133585063Y-92355408D01*
X133605659Y-92120000D01*
X133585063Y-91884592D01*
X133523903Y-91656337D01*
X133424035Y-91442171D01*
X133418425Y-91434158D01*
X133288494Y-91248597D01*
X133121402Y-91081506D01*
X133121396Y-91081501D01*
X132935842Y-90951575D01*
X132892217Y-90896998D01*
X132885023Y-90827500D01*
X132916546Y-90765145D01*
X132935842Y-90748425D01*
X133044865Y-90672086D01*
X133121401Y-90618495D01*
X133288495Y-90451401D01*
X133424035Y-90257830D01*
X133523903Y-90043663D01*
X133585063Y-89815408D01*
X133605659Y-89580000D01*
X133585063Y-89344592D01*
X133523903Y-89116337D01*
X133424035Y-88902171D01*
X133363594Y-88815851D01*
X133288494Y-88708597D01*
X133121402Y-88541506D01*
X133121396Y-88541501D01*
X132935842Y-88411575D01*
X132892217Y-88356998D01*
X132885023Y-88287500D01*
X132916546Y-88225145D01*
X132935842Y-88208425D01*
X132958026Y-88192891D01*
X133121401Y-88078495D01*
X133288495Y-87911401D01*
X133424035Y-87717830D01*
X133523903Y-87503663D01*
X133585063Y-87275408D01*
X133605659Y-87040000D01*
X133585063Y-86804592D01*
X133523903Y-86576337D01*
X133424035Y-86362171D01*
X133288495Y-86168599D01*
X133288494Y-86168597D01*
X133121402Y-86001506D01*
X133121396Y-86001501D01*
X132935842Y-85871575D01*
X132892217Y-85816998D01*
X132885023Y-85747500D01*
X132916546Y-85685145D01*
X132935842Y-85668425D01*
X132960813Y-85650940D01*
X133121401Y-85538495D01*
X133288495Y-85371401D01*
X133424035Y-85177830D01*
X133523903Y-84963663D01*
X133585063Y-84735408D01*
X133605659Y-84500000D01*
X133602840Y-84467785D01*
X133585063Y-84264596D01*
X133585063Y-84264592D01*
X133523903Y-84036337D01*
X133424035Y-83822171D01*
X133288495Y-83628599D01*
X133288494Y-83628597D01*
X133121402Y-83461506D01*
X133121396Y-83461501D01*
X132935842Y-83331575D01*
X132892217Y-83276998D01*
X132885023Y-83207500D01*
X132916546Y-83145145D01*
X132935842Y-83128425D01*
X132958026Y-83112891D01*
X133121401Y-82998495D01*
X133288495Y-82831401D01*
X133424035Y-82637830D01*
X133523903Y-82423663D01*
X133585063Y-82195408D01*
X133605659Y-81960000D01*
X133585063Y-81724592D01*
X133523903Y-81496337D01*
X133424035Y-81282171D01*
X133288495Y-81088599D01*
X133288494Y-81088597D01*
X133121402Y-80921506D01*
X133121396Y-80921501D01*
X132935842Y-80791575D01*
X132892217Y-80736998D01*
X132885023Y-80667500D01*
X132916546Y-80605145D01*
X132935842Y-80588425D01*
X132958026Y-80572891D01*
X133121401Y-80458495D01*
X133288495Y-80291401D01*
X133424035Y-80097830D01*
X133523903Y-79883663D01*
X133585063Y-79655408D01*
X133605659Y-79420000D01*
X133585063Y-79184592D01*
X133523903Y-78956337D01*
X133424035Y-78742171D01*
X133329726Y-78607482D01*
X133288494Y-78548597D01*
X133121402Y-78381506D01*
X133121396Y-78381501D01*
X132935842Y-78251575D01*
X132892217Y-78196998D01*
X132885023Y-78127500D01*
X132916546Y-78065145D01*
X132935842Y-78048425D01*
X132958026Y-78032891D01*
X133121401Y-77918495D01*
X133288495Y-77751401D01*
X133424035Y-77557830D01*
X133523903Y-77343663D01*
X133585063Y-77115408D01*
X133605659Y-76880000D01*
X133585063Y-76644592D01*
X133523903Y-76416337D01*
X133424035Y-76202171D01*
X133288495Y-76008599D01*
X133288494Y-76008597D01*
X133121402Y-75841506D01*
X133121396Y-75841501D01*
X132935842Y-75711575D01*
X132892217Y-75656998D01*
X132885023Y-75587500D01*
X132916546Y-75525145D01*
X132935842Y-75508425D01*
X133016242Y-75452128D01*
X133121401Y-75378495D01*
X133288495Y-75211401D01*
X133424035Y-75017830D01*
X133523903Y-74803663D01*
X133585063Y-74575408D01*
X133605659Y-74340000D01*
X133605659Y-74339999D01*
X146134341Y-74339999D01*
X146134341Y-74340000D01*
X146154936Y-74575403D01*
X146154938Y-74575413D01*
X146216094Y-74803655D01*
X146216096Y-74803659D01*
X146216097Y-74803663D01*
X146307418Y-74999500D01*
X146315965Y-75017830D01*
X146315967Y-75017834D01*
X146451501Y-75211395D01*
X146451506Y-75211402D01*
X146618597Y-75378493D01*
X146618603Y-75378498D01*
X146804158Y-75508425D01*
X146847783Y-75563002D01*
X146854977Y-75632500D01*
X146823454Y-75694855D01*
X146804158Y-75711575D01*
X146618597Y-75841505D01*
X146451505Y-76008597D01*
X146315965Y-76202169D01*
X146315964Y-76202171D01*
X146216098Y-76416335D01*
X146216094Y-76416344D01*
X146154938Y-76644586D01*
X146154936Y-76644596D01*
X146134341Y-76879999D01*
X146134341Y-76880000D01*
X146154936Y-77115403D01*
X146154938Y-77115413D01*
X146216094Y-77343655D01*
X146216096Y-77343659D01*
X146216097Y-77343663D01*
X146315965Y-77557830D01*
X146315967Y-77557834D01*
X146451501Y-77751395D01*
X146451506Y-77751402D01*
X146618597Y-77918493D01*
X146618603Y-77918498D01*
X146804158Y-78048425D01*
X146847783Y-78103002D01*
X146854977Y-78172500D01*
X146823454Y-78234855D01*
X146804158Y-78251575D01*
X146618597Y-78381505D01*
X146451505Y-78548597D01*
X146315965Y-78742169D01*
X146315964Y-78742171D01*
X146216098Y-78956335D01*
X146216094Y-78956344D01*
X146154938Y-79184586D01*
X146154936Y-79184596D01*
X146134341Y-79419999D01*
X146134341Y-79420000D01*
X146154936Y-79655403D01*
X146154938Y-79655413D01*
X146216094Y-79883655D01*
X146216096Y-79883659D01*
X146216097Y-79883663D01*
X146315965Y-80097830D01*
X146315967Y-80097834D01*
X146451501Y-80291395D01*
X146451506Y-80291402D01*
X146618597Y-80458493D01*
X146618603Y-80458498D01*
X146804158Y-80588425D01*
X146847783Y-80643002D01*
X146854977Y-80712500D01*
X146823454Y-80774855D01*
X146804158Y-80791575D01*
X146618597Y-80921505D01*
X146451505Y-81088597D01*
X146315965Y-81282169D01*
X146315964Y-81282171D01*
X146216098Y-81496335D01*
X146216094Y-81496344D01*
X146154938Y-81724586D01*
X146154936Y-81724596D01*
X146134341Y-81959999D01*
X146134341Y-81960000D01*
X146154936Y-82195403D01*
X146154938Y-82195413D01*
X146216094Y-82423655D01*
X146216096Y-82423659D01*
X146216097Y-82423663D01*
X146315965Y-82637830D01*
X146315967Y-82637834D01*
X146451501Y-82831395D01*
X146451506Y-82831402D01*
X146618597Y-82998493D01*
X146618603Y-82998498D01*
X146804158Y-83128425D01*
X146847783Y-83183002D01*
X146854977Y-83252500D01*
X146823454Y-83314855D01*
X146804158Y-83331575D01*
X146618597Y-83461505D01*
X146451505Y-83628597D01*
X146315965Y-83822169D01*
X146315964Y-83822171D01*
X146216098Y-84036335D01*
X146216094Y-84036344D01*
X146154938Y-84264586D01*
X146154936Y-84264596D01*
X146134341Y-84499999D01*
X146134341Y-84500000D01*
X146154936Y-84735403D01*
X146154938Y-84735413D01*
X146216094Y-84963655D01*
X146216096Y-84963659D01*
X146216097Y-84963663D01*
X146276438Y-85093064D01*
X146315965Y-85177830D01*
X146315967Y-85177834D01*
X146358037Y-85237915D01*
X146449322Y-85368284D01*
X146451501Y-85371395D01*
X146451506Y-85371402D01*
X146618597Y-85538493D01*
X146618603Y-85538498D01*
X146804158Y-85668425D01*
X146847783Y-85723002D01*
X146854977Y-85792500D01*
X146823454Y-85854855D01*
X146804158Y-85871575D01*
X146618597Y-86001505D01*
X146451505Y-86168597D01*
X146315965Y-86362169D01*
X146315964Y-86362171D01*
X146216098Y-86576335D01*
X146216094Y-86576344D01*
X146154938Y-86804586D01*
X146154936Y-86804596D01*
X146134341Y-87039999D01*
X146134341Y-87040000D01*
X146154936Y-87275403D01*
X146154938Y-87275413D01*
X146216094Y-87503655D01*
X146216096Y-87503659D01*
X146216097Y-87503663D01*
X146278362Y-87637190D01*
X146315965Y-87717830D01*
X146315967Y-87717834D01*
X146451501Y-87911395D01*
X146451506Y-87911402D01*
X146618597Y-88078493D01*
X146618603Y-88078498D01*
X146804158Y-88208425D01*
X146847783Y-88263002D01*
X146854977Y-88332500D01*
X146823454Y-88394855D01*
X146804158Y-88411575D01*
X146618597Y-88541505D01*
X146451505Y-88708597D01*
X146315965Y-88902169D01*
X146315964Y-88902171D01*
X146216098Y-89116335D01*
X146216094Y-89116344D01*
X146154938Y-89344586D01*
X146154936Y-89344596D01*
X146134341Y-89579999D01*
X146134341Y-89580000D01*
X146154936Y-89815403D01*
X146154938Y-89815413D01*
X146216094Y-90043655D01*
X146216096Y-90043659D01*
X146216097Y-90043663D01*
X146257389Y-90132214D01*
X146315965Y-90257830D01*
X146315967Y-90257834D01*
X146451501Y-90451395D01*
X146451506Y-90451402D01*
X146618597Y-90618493D01*
X146618603Y-90618498D01*
X146804158Y-90748425D01*
X146847783Y-90803002D01*
X146854977Y-90872500D01*
X146823454Y-90934855D01*
X146804158Y-90951575D01*
X146618597Y-91081505D01*
X146451505Y-91248597D01*
X146315965Y-91442169D01*
X146315964Y-91442171D01*
X146216098Y-91656335D01*
X146216094Y-91656344D01*
X146154938Y-91884586D01*
X146154936Y-91884596D01*
X146134341Y-92119999D01*
X146134341Y-92120000D01*
X146154936Y-92355403D01*
X146154938Y-92355413D01*
X146216094Y-92583655D01*
X146216096Y-92583659D01*
X146216097Y-92583663D01*
X146231106Y-92615849D01*
X146315965Y-92797830D01*
X146315967Y-92797834D01*
X146364947Y-92867784D01*
X146451501Y-92991396D01*
X146451506Y-92991402D01*
X146618597Y-93158493D01*
X146618603Y-93158498D01*
X146804158Y-93288425D01*
X146847783Y-93343002D01*
X146854977Y-93412500D01*
X146823454Y-93474855D01*
X146804158Y-93491575D01*
X146618597Y-93621505D01*
X146451505Y-93788597D01*
X146315965Y-93982169D01*
X146315964Y-93982171D01*
X146216098Y-94196335D01*
X146216094Y-94196344D01*
X146154938Y-94424586D01*
X146154936Y-94424596D01*
X146134341Y-94659999D01*
X146134341Y-94660000D01*
X146154936Y-94895403D01*
X146154938Y-94895413D01*
X146216094Y-95123655D01*
X146216096Y-95123659D01*
X146216097Y-95123663D01*
X146296004Y-95295023D01*
X146315965Y-95337830D01*
X146315967Y-95337834D01*
X146410534Y-95472888D01*
X146451501Y-95531396D01*
X146451506Y-95531402D01*
X146618597Y-95698493D01*
X146618603Y-95698498D01*
X146804158Y-95828425D01*
X146847783Y-95883002D01*
X146854977Y-95952500D01*
X146823454Y-96014855D01*
X146804158Y-96031575D01*
X146618597Y-96161505D01*
X146451505Y-96328597D01*
X146315965Y-96522169D01*
X146315964Y-96522171D01*
X146216098Y-96736335D01*
X146216094Y-96736344D01*
X146154938Y-96964586D01*
X146154936Y-96964596D01*
X146134341Y-97199999D01*
X146134341Y-97200000D01*
X146154936Y-97435403D01*
X146154938Y-97435413D01*
X146216094Y-97663655D01*
X146216096Y-97663659D01*
X146216097Y-97663663D01*
X146285291Y-97812050D01*
X146315965Y-97877830D01*
X146315967Y-97877834D01*
X146423717Y-98031715D01*
X146451501Y-98071396D01*
X146451506Y-98071402D01*
X146618597Y-98238493D01*
X146618603Y-98238498D01*
X146804158Y-98368425D01*
X146847783Y-98423002D01*
X146854977Y-98492500D01*
X146823454Y-98554855D01*
X146804158Y-98571575D01*
X146618597Y-98701505D01*
X146451505Y-98868597D01*
X146315965Y-99062169D01*
X146315964Y-99062171D01*
X146216098Y-99276335D01*
X146216094Y-99276344D01*
X146154938Y-99504586D01*
X146154936Y-99504596D01*
X146134341Y-99739999D01*
X146134341Y-99740000D01*
X146154936Y-99975403D01*
X146154938Y-99975413D01*
X146216094Y-100203655D01*
X146216096Y-100203659D01*
X146216097Y-100203663D01*
X146315965Y-100417830D01*
X146315967Y-100417834D01*
X146451501Y-100611395D01*
X146451506Y-100611402D01*
X146618597Y-100778493D01*
X146618603Y-100778498D01*
X146804158Y-100908425D01*
X146847783Y-100963002D01*
X146854977Y-101032500D01*
X146823454Y-101094855D01*
X146804158Y-101111575D01*
X146618597Y-101241505D01*
X146451505Y-101408597D01*
X146315965Y-101602169D01*
X146315964Y-101602171D01*
X146216098Y-101816335D01*
X146216094Y-101816344D01*
X146154938Y-102044586D01*
X146154936Y-102044596D01*
X146134341Y-102279999D01*
X146134341Y-102280000D01*
X146154936Y-102515403D01*
X146154938Y-102515413D01*
X146216094Y-102743655D01*
X146216096Y-102743659D01*
X146216097Y-102743663D01*
X146236893Y-102788259D01*
X146315965Y-102957830D01*
X146315967Y-102957834D01*
X146451501Y-103151395D01*
X146451506Y-103151402D01*
X146618597Y-103318493D01*
X146618603Y-103318498D01*
X146804158Y-103448425D01*
X146847783Y-103503002D01*
X146854977Y-103572500D01*
X146823454Y-103634855D01*
X146804158Y-103651575D01*
X146618597Y-103781505D01*
X146451505Y-103948597D01*
X146315965Y-104142169D01*
X146315964Y-104142171D01*
X146216098Y-104356335D01*
X146216094Y-104356344D01*
X146154938Y-104584586D01*
X146154936Y-104584596D01*
X146134341Y-104819999D01*
X146134341Y-104820000D01*
X146154936Y-105055403D01*
X146154938Y-105055413D01*
X146216094Y-105283655D01*
X146216096Y-105283659D01*
X146216097Y-105283663D01*
X146315965Y-105497830D01*
X146315967Y-105497834D01*
X146451501Y-105691395D01*
X146451506Y-105691402D01*
X146618597Y-105858493D01*
X146618603Y-105858498D01*
X146804158Y-105988425D01*
X146847783Y-106043002D01*
X146854977Y-106112500D01*
X146823454Y-106174855D01*
X146804158Y-106191575D01*
X146618597Y-106321505D01*
X146451505Y-106488597D01*
X146315965Y-106682169D01*
X146315964Y-106682171D01*
X146216098Y-106896335D01*
X146216094Y-106896344D01*
X146154938Y-107124586D01*
X146154936Y-107124596D01*
X146134341Y-107359999D01*
X146134341Y-107360000D01*
X146154936Y-107595403D01*
X146154938Y-107595413D01*
X146216094Y-107823655D01*
X146216096Y-107823659D01*
X146216097Y-107823663D01*
X146286713Y-107975099D01*
X146315965Y-108037830D01*
X146315967Y-108037834D01*
X146451501Y-108231395D01*
X146451506Y-108231402D01*
X146618597Y-108398493D01*
X146618603Y-108398498D01*
X146804158Y-108528425D01*
X146847783Y-108583002D01*
X146854977Y-108652500D01*
X146823454Y-108714855D01*
X146804158Y-108731575D01*
X146618597Y-108861505D01*
X146451505Y-109028597D01*
X146315965Y-109222169D01*
X146315964Y-109222171D01*
X146216098Y-109436335D01*
X146216094Y-109436344D01*
X146154938Y-109664586D01*
X146154936Y-109664596D01*
X146134341Y-109899999D01*
X146134341Y-109900000D01*
X146154936Y-110135403D01*
X146154938Y-110135413D01*
X146216094Y-110363655D01*
X146216096Y-110363659D01*
X146216097Y-110363663D01*
X146289085Y-110520185D01*
X146315965Y-110577830D01*
X146315967Y-110577834D01*
X146451501Y-110771395D01*
X146451506Y-110771402D01*
X146618597Y-110938493D01*
X146618603Y-110938498D01*
X146804158Y-111068425D01*
X146847783Y-111123002D01*
X146854977Y-111192500D01*
X146823454Y-111254855D01*
X146804158Y-111271575D01*
X146618597Y-111401505D01*
X146451505Y-111568597D01*
X146315965Y-111762169D01*
X146315964Y-111762171D01*
X146216098Y-111976335D01*
X146216094Y-111976344D01*
X146154938Y-112204586D01*
X146154936Y-112204596D01*
X146134341Y-112439999D01*
X146134341Y-112440000D01*
X146154936Y-112675403D01*
X146154938Y-112675413D01*
X146216094Y-112903655D01*
X146216096Y-112903659D01*
X146216097Y-112903663D01*
X146278108Y-113036645D01*
X146315965Y-113117830D01*
X146315967Y-113117834D01*
X146451501Y-113311395D01*
X146451506Y-113311402D01*
X146618597Y-113478493D01*
X146618603Y-113478498D01*
X146804158Y-113608425D01*
X146847783Y-113663002D01*
X146854977Y-113732500D01*
X146823454Y-113794855D01*
X146804158Y-113811575D01*
X146618597Y-113941505D01*
X146451505Y-114108597D01*
X146315965Y-114302169D01*
X146315964Y-114302171D01*
X146216098Y-114516335D01*
X146216094Y-114516344D01*
X146154938Y-114744586D01*
X146154936Y-114744596D01*
X146134341Y-114979999D01*
X146134341Y-114980000D01*
X146154936Y-115215403D01*
X146154938Y-115215413D01*
X146216094Y-115443655D01*
X146216096Y-115443659D01*
X146216097Y-115443663D01*
X146252670Y-115522093D01*
X146315965Y-115657830D01*
X146315967Y-115657834D01*
X146451501Y-115851395D01*
X146451506Y-115851402D01*
X146618597Y-116018493D01*
X146618603Y-116018498D01*
X146804158Y-116148425D01*
X146847783Y-116203002D01*
X146854977Y-116272500D01*
X146823454Y-116334855D01*
X146804158Y-116351575D01*
X146618597Y-116481505D01*
X146451505Y-116648597D01*
X146315965Y-116842169D01*
X146315964Y-116842171D01*
X146216098Y-117056335D01*
X146216094Y-117056344D01*
X146154938Y-117284586D01*
X146154936Y-117284596D01*
X146134341Y-117519999D01*
X146134341Y-117520000D01*
X146154936Y-117755403D01*
X146154938Y-117755413D01*
X146216094Y-117983655D01*
X146216096Y-117983659D01*
X146216097Y-117983663D01*
X146315965Y-118197830D01*
X146315967Y-118197834D01*
X146424281Y-118352521D01*
X146451505Y-118391401D01*
X146618599Y-118558495D01*
X146715384Y-118626265D01*
X146812165Y-118694032D01*
X146812167Y-118694033D01*
X146812170Y-118694035D01*
X147026337Y-118793903D01*
X147254592Y-118855063D01*
X147442918Y-118871539D01*
X147489999Y-118875659D01*
X147490000Y-118875659D01*
X147490001Y-118875659D01*
X147529234Y-118872226D01*
X147725408Y-118855063D01*
X147953663Y-118793903D01*
X148167830Y-118694035D01*
X148361401Y-118558495D01*
X148528495Y-118391401D01*
X148664035Y-118197830D01*
X148763903Y-117983663D01*
X148825063Y-117755408D01*
X148845659Y-117520000D01*
X148825063Y-117284592D01*
X148763903Y-117056337D01*
X148664035Y-116842171D01*
X148528495Y-116648599D01*
X148528494Y-116648597D01*
X148361402Y-116481506D01*
X148361396Y-116481501D01*
X148175842Y-116351575D01*
X148132217Y-116296998D01*
X148125023Y-116227500D01*
X148156546Y-116165145D01*
X148175842Y-116148425D01*
X148252248Y-116094925D01*
X148361401Y-116018495D01*
X148528495Y-115851401D01*
X148664035Y-115657830D01*
X148763903Y-115443663D01*
X148825063Y-115215408D01*
X148845659Y-114980000D01*
X148843873Y-114959592D01*
X148839900Y-114914174D01*
X148825063Y-114744592D01*
X148767150Y-114528454D01*
X148763905Y-114516344D01*
X148763904Y-114516343D01*
X148763903Y-114516337D01*
X148664035Y-114302171D01*
X148605537Y-114218626D01*
X148528494Y-114108597D01*
X148361402Y-113941506D01*
X148361396Y-113941501D01*
X148175842Y-113811575D01*
X148132217Y-113756998D01*
X148125023Y-113687500D01*
X148156546Y-113625145D01*
X148175842Y-113608425D01*
X148198026Y-113592891D01*
X148361401Y-113478495D01*
X148528495Y-113311401D01*
X148664035Y-113117830D01*
X148763903Y-112903663D01*
X148825063Y-112675408D01*
X148845659Y-112440000D01*
X148843873Y-112419592D01*
X148825063Y-112204596D01*
X148825063Y-112204592D01*
X148767150Y-111988454D01*
X148763905Y-111976344D01*
X148763904Y-111976343D01*
X148763903Y-111976337D01*
X148664035Y-111762171D01*
X148562037Y-111616501D01*
X148528494Y-111568597D01*
X148361402Y-111401506D01*
X148361396Y-111401501D01*
X148175842Y-111271575D01*
X148132217Y-111216998D01*
X148125023Y-111147500D01*
X148156546Y-111085145D01*
X148175842Y-111068425D01*
X148198026Y-111052891D01*
X148361401Y-110938495D01*
X148528495Y-110771401D01*
X148664035Y-110577830D01*
X148763903Y-110363663D01*
X148825063Y-110135408D01*
X148845659Y-109900000D01*
X148843873Y-109879592D01*
X148830979Y-109732214D01*
X148825063Y-109664592D01*
X148807756Y-109600000D01*
X159094540Y-109600000D01*
X159114326Y-109788256D01*
X159114327Y-109788259D01*
X159172818Y-109968277D01*
X159172821Y-109968284D01*
X159267467Y-110132216D01*
X159394129Y-110272888D01*
X159547265Y-110384148D01*
X159547270Y-110384151D01*
X159720192Y-110461142D01*
X159720197Y-110461144D01*
X159905354Y-110500500D01*
X159929193Y-110500500D01*
X159996232Y-110520185D01*
X160016874Y-110536819D01*
X160094724Y-110614669D01*
X160185331Y-110705276D01*
X160185332Y-110705277D01*
X160291866Y-110776461D01*
X160291875Y-110776466D01*
X160318692Y-110787574D01*
X160410256Y-110825501D01*
X160410260Y-110825501D01*
X160410261Y-110825502D01*
X160535928Y-110850500D01*
X160535931Y-110850500D01*
X163923025Y-110850500D01*
X163990064Y-110870185D01*
X163995910Y-110874182D01*
X164147265Y-110984148D01*
X164147270Y-110984151D01*
X164320192Y-111061142D01*
X164320197Y-111061144D01*
X164505354Y-111100500D01*
X164505355Y-111100500D01*
X164694644Y-111100500D01*
X164694646Y-111100500D01*
X164879803Y-111061144D01*
X165052730Y-110984151D01*
X165205871Y-110872888D01*
X165332533Y-110732216D01*
X165427179Y-110568284D01*
X165485674Y-110388256D01*
X165505460Y-110200000D01*
X165496526Y-110114999D01*
X165854841Y-110114999D01*
X165854841Y-110115000D01*
X165875436Y-110350403D01*
X165875438Y-110350413D01*
X165936594Y-110578655D01*
X165936596Y-110578659D01*
X165936597Y-110578663D01*
X166026473Y-110771402D01*
X166036465Y-110792830D01*
X166036467Y-110792834D01*
X166092522Y-110872888D01*
X166172001Y-110986396D01*
X166172006Y-110986402D01*
X166339097Y-111153493D01*
X166339103Y-111153498D01*
X166524658Y-111283425D01*
X166568283Y-111338002D01*
X166575477Y-111407500D01*
X166543954Y-111469855D01*
X166524658Y-111486575D01*
X166339097Y-111616505D01*
X166172005Y-111783597D01*
X166036465Y-111977169D01*
X166036464Y-111977171D01*
X165936598Y-112191335D01*
X165936594Y-112191344D01*
X165875438Y-112419586D01*
X165875436Y-112419596D01*
X165854841Y-112654999D01*
X165854841Y-112655000D01*
X165875436Y-112890403D01*
X165875438Y-112890413D01*
X165936594Y-113118655D01*
X165936596Y-113118659D01*
X165936597Y-113118663D01*
X166031203Y-113321546D01*
X166036465Y-113332830D01*
X166036467Y-113332834D01*
X166106013Y-113432155D01*
X166172001Y-113526396D01*
X166172006Y-113526402D01*
X166339097Y-113693493D01*
X166339103Y-113693498D01*
X166524658Y-113823425D01*
X166568283Y-113878002D01*
X166575477Y-113947500D01*
X166543954Y-114009855D01*
X166524658Y-114026575D01*
X166339097Y-114156505D01*
X166172005Y-114323597D01*
X166036465Y-114517169D01*
X166036464Y-114517171D01*
X165936598Y-114731335D01*
X165936594Y-114731344D01*
X165875438Y-114959586D01*
X165875436Y-114959596D01*
X165854841Y-115194999D01*
X165854841Y-115195000D01*
X165875436Y-115430403D01*
X165875438Y-115430413D01*
X165936594Y-115658655D01*
X165936596Y-115658659D01*
X165936597Y-115658663D01*
X166026473Y-115851402D01*
X166036465Y-115872830D01*
X166036467Y-115872834D01*
X166138459Y-116018493D01*
X166172005Y-116066401D01*
X166339099Y-116233495D01*
X166357097Y-116246097D01*
X166532665Y-116369032D01*
X166532667Y-116369033D01*
X166532670Y-116369035D01*
X166746837Y-116468903D01*
X166975092Y-116530063D01*
X167163418Y-116546539D01*
X167210499Y-116550659D01*
X167210500Y-116550659D01*
X167210501Y-116550659D01*
X167249734Y-116547226D01*
X167445908Y-116530063D01*
X167674163Y-116468903D01*
X167888330Y-116369035D01*
X168081901Y-116233495D01*
X168248995Y-116066401D01*
X168378925Y-115880842D01*
X168433502Y-115837217D01*
X168503000Y-115830023D01*
X168565355Y-115861546D01*
X168582075Y-115880842D01*
X168712000Y-116066395D01*
X168712005Y-116066401D01*
X168879099Y-116233495D01*
X168897097Y-116246097D01*
X169072665Y-116369032D01*
X169072667Y-116369033D01*
X169072670Y-116369035D01*
X169286837Y-116468903D01*
X169515092Y-116530063D01*
X169703418Y-116546539D01*
X169750499Y-116550659D01*
X169750500Y-116550659D01*
X169750501Y-116550659D01*
X169789734Y-116547226D01*
X169985908Y-116530063D01*
X170214163Y-116468903D01*
X170428330Y-116369035D01*
X170621901Y-116233495D01*
X170788995Y-116066401D01*
X170924535Y-115872830D01*
X171024403Y-115658663D01*
X171085563Y-115430408D01*
X171106159Y-115195000D01*
X171085563Y-114959592D01*
X171024403Y-114731337D01*
X170924535Y-114517171D01*
X170924077Y-114516516D01*
X170788994Y-114323597D01*
X170621902Y-114156506D01*
X170621896Y-114156501D01*
X170436342Y-114026575D01*
X170392717Y-113971998D01*
X170385523Y-113902500D01*
X170417046Y-113840145D01*
X170436342Y-113823425D01*
X170592755Y-113713903D01*
X170621901Y-113693495D01*
X170788995Y-113526401D01*
X170924535Y-113332830D01*
X171024403Y-113118663D01*
X171085563Y-112890408D01*
X171106159Y-112655000D01*
X171085563Y-112419592D01*
X171024403Y-112191337D01*
X170924535Y-111977171D01*
X170918925Y-111969158D01*
X170788994Y-111783597D01*
X170621902Y-111616506D01*
X170621896Y-111616501D01*
X170436342Y-111486575D01*
X170392717Y-111431998D01*
X170385523Y-111362500D01*
X170417046Y-111300145D01*
X170436342Y-111283425D01*
X170598329Y-111170000D01*
X170621901Y-111153495D01*
X170788995Y-110986401D01*
X170924535Y-110792830D01*
X171024403Y-110578663D01*
X171085563Y-110350408D01*
X171106159Y-110115000D01*
X171085563Y-109879592D01*
X171024403Y-109651337D01*
X170924535Y-109437171D01*
X170918925Y-109429158D01*
X170788994Y-109243597D01*
X170621902Y-109076506D01*
X170621896Y-109076501D01*
X170436342Y-108946575D01*
X170392717Y-108891998D01*
X170385523Y-108822500D01*
X170417046Y-108760145D01*
X170436342Y-108743425D01*
X170595870Y-108631722D01*
X170621901Y-108613495D01*
X170788995Y-108446401D01*
X170924535Y-108252830D01*
X171024403Y-108038663D01*
X171085563Y-107810408D01*
X171106159Y-107575000D01*
X171085563Y-107339592D01*
X171024403Y-107111337D01*
X170924535Y-106897171D01*
X170788995Y-106703599D01*
X170788994Y-106703597D01*
X170621902Y-106536506D01*
X170621895Y-106536501D01*
X170428334Y-106400967D01*
X170428330Y-106400965D01*
X170401082Y-106388259D01*
X170214163Y-106301097D01*
X170214159Y-106301096D01*
X170214155Y-106301094D01*
X169985913Y-106239938D01*
X169985903Y-106239936D01*
X169750501Y-106219341D01*
X169750499Y-106219341D01*
X169515096Y-106239936D01*
X169515086Y-106239938D01*
X169286844Y-106301094D01*
X169286835Y-106301098D01*
X169072671Y-106400964D01*
X169072669Y-106400965D01*
X168879100Y-106536503D01*
X168756784Y-106658819D01*
X168695461Y-106692303D01*
X168625769Y-106687319D01*
X168569836Y-106645447D01*
X168552921Y-106614470D01*
X168503854Y-106482913D01*
X168503850Y-106482906D01*
X168417690Y-106367812D01*
X168417687Y-106367809D01*
X168302593Y-106281649D01*
X168302586Y-106281645D01*
X168167879Y-106231403D01*
X168167872Y-106231401D01*
X168108344Y-106225000D01*
X167460500Y-106225000D01*
X167460500Y-107141988D01*
X167403493Y-107109075D01*
X167276326Y-107075000D01*
X167144674Y-107075000D01*
X167017507Y-107109075D01*
X166960500Y-107141988D01*
X166960500Y-106225000D01*
X166312655Y-106225000D01*
X166253127Y-106231401D01*
X166253120Y-106231403D01*
X166118413Y-106281645D01*
X166118406Y-106281649D01*
X166003312Y-106367809D01*
X166003309Y-106367812D01*
X165917149Y-106482906D01*
X165917145Y-106482913D01*
X165866903Y-106617620D01*
X165866901Y-106617627D01*
X165860500Y-106677155D01*
X165860500Y-107325000D01*
X166777488Y-107325000D01*
X166744575Y-107382007D01*
X166710500Y-107509174D01*
X166710500Y-107640826D01*
X166744575Y-107767993D01*
X166777488Y-107825000D01*
X165860500Y-107825000D01*
X165860500Y-108472844D01*
X165866901Y-108532372D01*
X165866903Y-108532379D01*
X165917145Y-108667086D01*
X165917149Y-108667093D01*
X166003309Y-108782187D01*
X166003312Y-108782190D01*
X166118406Y-108868350D01*
X166118413Y-108868354D01*
X166249970Y-108917421D01*
X166305903Y-108959292D01*
X166330321Y-109024756D01*
X166315470Y-109093029D01*
X166294319Y-109121284D01*
X166172003Y-109243600D01*
X166036465Y-109437169D01*
X166036464Y-109437171D01*
X165936598Y-109651335D01*
X165936594Y-109651344D01*
X165875438Y-109879586D01*
X165875436Y-109879596D01*
X165854841Y-110114999D01*
X165496526Y-110114999D01*
X165485674Y-110011744D01*
X165427179Y-109831716D01*
X165332533Y-109667784D01*
X165205871Y-109527112D01*
X165204090Y-109525818D01*
X165052734Y-109415851D01*
X165052729Y-109415848D01*
X164879807Y-109338857D01*
X164879802Y-109338855D01*
X164734001Y-109307865D01*
X164694646Y-109299500D01*
X164505354Y-109299500D01*
X164472897Y-109306398D01*
X164320197Y-109338855D01*
X164320192Y-109338857D01*
X164147270Y-109415848D01*
X164147265Y-109415851D01*
X163995910Y-109525818D01*
X163930104Y-109549298D01*
X163923025Y-109549500D01*
X161011803Y-109549500D01*
X160944764Y-109529815D01*
X160899009Y-109477011D01*
X160888482Y-109438460D01*
X160885674Y-109411745D01*
X160885672Y-109411740D01*
X160827179Y-109231716D01*
X160732533Y-109067784D01*
X160605871Y-108927112D01*
X160592534Y-108917422D01*
X160452734Y-108815851D01*
X160452729Y-108815848D01*
X160279807Y-108738857D01*
X160279802Y-108738855D01*
X160134001Y-108707865D01*
X160094646Y-108699500D01*
X159905354Y-108699500D01*
X159872897Y-108706398D01*
X159720197Y-108738855D01*
X159720192Y-108738857D01*
X159547270Y-108815848D01*
X159547265Y-108815851D01*
X159394129Y-108927111D01*
X159267466Y-109067785D01*
X159172821Y-109231715D01*
X159172818Y-109231722D01*
X159114327Y-109411740D01*
X159114326Y-109411744D01*
X159094540Y-109600000D01*
X148807756Y-109600000D01*
X148764472Y-109438460D01*
X148763905Y-109436344D01*
X148763904Y-109436343D01*
X148763903Y-109436337D01*
X148664035Y-109222171D01*
X148593394Y-109121284D01*
X148528494Y-109028597D01*
X148361402Y-108861506D01*
X148361396Y-108861501D01*
X148175842Y-108731575D01*
X148132217Y-108676998D01*
X148125023Y-108607500D01*
X148156546Y-108545145D01*
X148175842Y-108528425D01*
X148245578Y-108479595D01*
X148361401Y-108398495D01*
X148528495Y-108231401D01*
X148664035Y-108037830D01*
X148763903Y-107823663D01*
X148825063Y-107595408D01*
X148845659Y-107360000D01*
X148843873Y-107339592D01*
X148837609Y-107267993D01*
X148825063Y-107124592D01*
X148778626Y-106951285D01*
X148763905Y-106896344D01*
X148763904Y-106896343D01*
X148763903Y-106896337D01*
X148664035Y-106682171D01*
X148616631Y-106614470D01*
X148528494Y-106488597D01*
X148361402Y-106321506D01*
X148361396Y-106321501D01*
X148187874Y-106200000D01*
X172894540Y-106200000D01*
X172914326Y-106388256D01*
X172914327Y-106388259D01*
X172972818Y-106568277D01*
X172972821Y-106568284D01*
X173067466Y-106732215D01*
X173117649Y-106787948D01*
X173147880Y-106850940D01*
X173149500Y-106870921D01*
X173149500Y-108329078D01*
X173129815Y-108396117D01*
X173117650Y-108412050D01*
X173067466Y-108467785D01*
X172972821Y-108631715D01*
X172972818Y-108631722D01*
X172918791Y-108798002D01*
X172914326Y-108811744D01*
X172894540Y-109000000D01*
X172914326Y-109188256D01*
X172914327Y-109188259D01*
X172972818Y-109368277D01*
X172972821Y-109368284D01*
X173067467Y-109532216D01*
X173167188Y-109642967D01*
X173194129Y-109672888D01*
X173347265Y-109784148D01*
X173347270Y-109784151D01*
X173520192Y-109861142D01*
X173520197Y-109861144D01*
X173705354Y-109900500D01*
X173705355Y-109900500D01*
X173894644Y-109900500D01*
X173894646Y-109900500D01*
X174079803Y-109861144D01*
X174252730Y-109784151D01*
X174405871Y-109672888D01*
X174532533Y-109532216D01*
X174627179Y-109368284D01*
X174685674Y-109188256D01*
X174705460Y-109000000D01*
X174685674Y-108811744D01*
X174627179Y-108631716D01*
X174532533Y-108467784D01*
X174482350Y-108412050D01*
X174452120Y-108349058D01*
X174450500Y-108329078D01*
X174450500Y-106870921D01*
X174470185Y-106803882D01*
X174482351Y-106787948D01*
X174532533Y-106732216D01*
X174627179Y-106568284D01*
X174685674Y-106388256D01*
X174705460Y-106200000D01*
X176694540Y-106200000D01*
X176714326Y-106388256D01*
X176714327Y-106388259D01*
X176772818Y-106568277D01*
X176772821Y-106568284D01*
X176867466Y-106732215D01*
X176917649Y-106787948D01*
X176947880Y-106850940D01*
X176949500Y-106870921D01*
X176949500Y-108529078D01*
X176929815Y-108596117D01*
X176917650Y-108612050D01*
X176867466Y-108667785D01*
X176772821Y-108831715D01*
X176772818Y-108831722D01*
X176721303Y-108990271D01*
X176714326Y-109011744D01*
X176694540Y-109200000D01*
X176714326Y-109388256D01*
X176714327Y-109388259D01*
X176772818Y-109568277D01*
X176772821Y-109568284D01*
X176867467Y-109732216D01*
X176957063Y-109831722D01*
X176994129Y-109872888D01*
X177147265Y-109984148D01*
X177147270Y-109984151D01*
X177320192Y-110061142D01*
X177320197Y-110061144D01*
X177505354Y-110100500D01*
X177505355Y-110100500D01*
X177694644Y-110100500D01*
X177694646Y-110100500D01*
X177879803Y-110061144D01*
X178052730Y-109984151D01*
X178205871Y-109872888D01*
X178332533Y-109732216D01*
X178427179Y-109568284D01*
X178485674Y-109388256D01*
X178505460Y-109200000D01*
X178485674Y-109011744D01*
X178427179Y-108831716D01*
X178332533Y-108667784D01*
X178282350Y-108612050D01*
X178252120Y-108549058D01*
X178250500Y-108529078D01*
X178250500Y-106870921D01*
X178270185Y-106803882D01*
X178282351Y-106787948D01*
X178332533Y-106732216D01*
X178427179Y-106568284D01*
X178485674Y-106388256D01*
X178505460Y-106200000D01*
X178485674Y-106011744D01*
X178427179Y-105831716D01*
X178332533Y-105667784D01*
X178205871Y-105527112D01*
X178205870Y-105527111D01*
X178052734Y-105415851D01*
X178052729Y-105415848D01*
X177879807Y-105338857D01*
X177879802Y-105338855D01*
X177734001Y-105307865D01*
X177694646Y-105299500D01*
X177505354Y-105299500D01*
X177472897Y-105306398D01*
X177320197Y-105338855D01*
X177320192Y-105338857D01*
X177147270Y-105415848D01*
X177147265Y-105415851D01*
X176994129Y-105527111D01*
X176867466Y-105667785D01*
X176772821Y-105831715D01*
X176772818Y-105831722D01*
X176720080Y-105994035D01*
X176714326Y-106011744D01*
X176694540Y-106200000D01*
X174705460Y-106200000D01*
X174685674Y-106011744D01*
X174627179Y-105831716D01*
X174532533Y-105667784D01*
X174405871Y-105527112D01*
X174405870Y-105527111D01*
X174252734Y-105415851D01*
X174252729Y-105415848D01*
X174079807Y-105338857D01*
X174079802Y-105338855D01*
X173934001Y-105307865D01*
X173894646Y-105299500D01*
X173705354Y-105299500D01*
X173672897Y-105306398D01*
X173520197Y-105338855D01*
X173520192Y-105338857D01*
X173347270Y-105415848D01*
X173347265Y-105415851D01*
X173194129Y-105527111D01*
X173067466Y-105667785D01*
X172972821Y-105831715D01*
X172972818Y-105831722D01*
X172920080Y-105994035D01*
X172914326Y-106011744D01*
X172894540Y-106200000D01*
X148187874Y-106200000D01*
X148175842Y-106191575D01*
X148132217Y-106136998D01*
X148125023Y-106067500D01*
X148156546Y-106005145D01*
X148175842Y-105988425D01*
X148237743Y-105945081D01*
X148361401Y-105858495D01*
X148528495Y-105691401D01*
X148664035Y-105497830D01*
X148763903Y-105283663D01*
X148825063Y-105055408D01*
X148845659Y-104820000D01*
X148825063Y-104584592D01*
X148763903Y-104356337D01*
X148664035Y-104142171D01*
X148528495Y-103948599D01*
X148528494Y-103948597D01*
X148361402Y-103781506D01*
X148361396Y-103781501D01*
X148175842Y-103651575D01*
X148132217Y-103596998D01*
X148125023Y-103527500D01*
X148156546Y-103465145D01*
X148175842Y-103448425D01*
X148198026Y-103432891D01*
X148361401Y-103318495D01*
X148528495Y-103151401D01*
X148664035Y-102957830D01*
X148763903Y-102743663D01*
X148802397Y-102600000D01*
X159294540Y-102600000D01*
X159314326Y-102788256D01*
X159314327Y-102788259D01*
X159372818Y-102968277D01*
X159372821Y-102968284D01*
X159467467Y-103132216D01*
X159573971Y-103250500D01*
X159594129Y-103272888D01*
X159747265Y-103384148D01*
X159747270Y-103384151D01*
X159920192Y-103461142D01*
X159920197Y-103461144D01*
X160105354Y-103500500D01*
X160105355Y-103500500D01*
X160294644Y-103500500D01*
X160294646Y-103500500D01*
X160479803Y-103461144D01*
X160652730Y-103384151D01*
X160804090Y-103274182D01*
X160869896Y-103250702D01*
X160876975Y-103250500D01*
X163923025Y-103250500D01*
X163990064Y-103270185D01*
X163995910Y-103274182D01*
X164147265Y-103384148D01*
X164147270Y-103384151D01*
X164320192Y-103461142D01*
X164320197Y-103461144D01*
X164505354Y-103500500D01*
X164505355Y-103500500D01*
X164694644Y-103500500D01*
X164694646Y-103500500D01*
X164879803Y-103461144D01*
X165052730Y-103384151D01*
X165205871Y-103272888D01*
X165332533Y-103132216D01*
X165427179Y-102968284D01*
X165485674Y-102788256D01*
X165505460Y-102600000D01*
X165485674Y-102411744D01*
X165427179Y-102231716D01*
X165332533Y-102067784D01*
X165205871Y-101927112D01*
X165204090Y-101925818D01*
X165052734Y-101815851D01*
X165052729Y-101815848D01*
X164879807Y-101738857D01*
X164879802Y-101738855D01*
X164734001Y-101707865D01*
X164694646Y-101699500D01*
X164505354Y-101699500D01*
X164472897Y-101706398D01*
X164320197Y-101738855D01*
X164320192Y-101738857D01*
X164147270Y-101815848D01*
X164147265Y-101815851D01*
X163995910Y-101925818D01*
X163930104Y-101949298D01*
X163923025Y-101949500D01*
X160876975Y-101949500D01*
X160809936Y-101929815D01*
X160804090Y-101925818D01*
X160652734Y-101815851D01*
X160652729Y-101815848D01*
X160479807Y-101738857D01*
X160479802Y-101738855D01*
X160334001Y-101707865D01*
X160294646Y-101699500D01*
X160105354Y-101699500D01*
X160072897Y-101706398D01*
X159920197Y-101738855D01*
X159920192Y-101738857D01*
X159747270Y-101815848D01*
X159747265Y-101815851D01*
X159594129Y-101927111D01*
X159467466Y-102067785D01*
X159372821Y-102231715D01*
X159372818Y-102231722D01*
X159357132Y-102280000D01*
X159314326Y-102411744D01*
X159294540Y-102600000D01*
X148802397Y-102600000D01*
X148825063Y-102515408D01*
X148845659Y-102280000D01*
X148825063Y-102044592D01*
X148763903Y-101816337D01*
X148664035Y-101602171D01*
X148528495Y-101408599D01*
X148528494Y-101408597D01*
X148361402Y-101241506D01*
X148361396Y-101241501D01*
X148175842Y-101111575D01*
X148132217Y-101056998D01*
X148125023Y-100987500D01*
X148156546Y-100925145D01*
X148175842Y-100908425D01*
X148198026Y-100892891D01*
X148361401Y-100778495D01*
X148528495Y-100611401D01*
X148664035Y-100417830D01*
X148763903Y-100203663D01*
X148825063Y-99975408D01*
X148845659Y-99740000D01*
X148825063Y-99504592D01*
X148763903Y-99276337D01*
X148664035Y-99062171D01*
X148528495Y-98868599D01*
X148528494Y-98868597D01*
X148361402Y-98701506D01*
X148361396Y-98701501D01*
X148175842Y-98571575D01*
X148132217Y-98516998D01*
X148125023Y-98447500D01*
X148156546Y-98385145D01*
X148175842Y-98368425D01*
X148198026Y-98352891D01*
X148361401Y-98238495D01*
X148528495Y-98071401D01*
X148664035Y-97877830D01*
X148763903Y-97663663D01*
X148825063Y-97435408D01*
X148845659Y-97200000D01*
X148825063Y-96964592D01*
X148763903Y-96736337D01*
X148664035Y-96522171D01*
X148658425Y-96514158D01*
X148528494Y-96328597D01*
X148361402Y-96161506D01*
X148361396Y-96161501D01*
X148175842Y-96031575D01*
X148132217Y-95976998D01*
X148125023Y-95907500D01*
X148156546Y-95845145D01*
X148175842Y-95828425D01*
X148199671Y-95811740D01*
X148361401Y-95698495D01*
X148528495Y-95531401D01*
X148664035Y-95337830D01*
X148763903Y-95123663D01*
X148825063Y-94895408D01*
X148845659Y-94660000D01*
X148825063Y-94424592D01*
X148763903Y-94196337D01*
X148664035Y-93982171D01*
X148658425Y-93974158D01*
X148528494Y-93788597D01*
X148361402Y-93621506D01*
X148361396Y-93621501D01*
X148175842Y-93491575D01*
X148132217Y-93436998D01*
X148128387Y-93400000D01*
X158594540Y-93400000D01*
X158614326Y-93588256D01*
X158614327Y-93588259D01*
X158672818Y-93768277D01*
X158672821Y-93768284D01*
X158767466Y-93932215D01*
X158817649Y-93987948D01*
X158847880Y-94050940D01*
X158849500Y-94070921D01*
X158849500Y-95329078D01*
X158829815Y-95396117D01*
X158817650Y-95412050D01*
X158767466Y-95467785D01*
X158672821Y-95631715D01*
X158672818Y-95631722D01*
X158614327Y-95811740D01*
X158614326Y-95811744D01*
X158594540Y-96000000D01*
X158614326Y-96188256D01*
X158614327Y-96188259D01*
X158672818Y-96368277D01*
X158672821Y-96368284D01*
X158767467Y-96532216D01*
X158894129Y-96672888D01*
X159047265Y-96784148D01*
X159047270Y-96784151D01*
X159220192Y-96861142D01*
X159220197Y-96861144D01*
X159405354Y-96900500D01*
X159405355Y-96900500D01*
X159594644Y-96900500D01*
X159594646Y-96900500D01*
X159779803Y-96861144D01*
X159952730Y-96784151D01*
X160105871Y-96672888D01*
X160232533Y-96532216D01*
X160327179Y-96368284D01*
X160381858Y-96200000D01*
X162494540Y-96200000D01*
X162514326Y-96388256D01*
X162514327Y-96388259D01*
X162572818Y-96568277D01*
X162572821Y-96568284D01*
X162667466Y-96732215D01*
X162717649Y-96787948D01*
X162747880Y-96850940D01*
X162749500Y-96870921D01*
X162749500Y-97729078D01*
X162729815Y-97796117D01*
X162717650Y-97812050D01*
X162667466Y-97867785D01*
X162572821Y-98031715D01*
X162572818Y-98031722D01*
X162514327Y-98211740D01*
X162514326Y-98211744D01*
X162494540Y-98400000D01*
X162514326Y-98588256D01*
X162514327Y-98588259D01*
X162572818Y-98768277D01*
X162572821Y-98768284D01*
X162667467Y-98932216D01*
X162784478Y-99062169D01*
X162794129Y-99072888D01*
X162947265Y-99184148D01*
X162947270Y-99184151D01*
X163120192Y-99261142D01*
X163120197Y-99261144D01*
X163305354Y-99300500D01*
X163305355Y-99300500D01*
X163494644Y-99300500D01*
X163494646Y-99300500D01*
X163679803Y-99261144D01*
X163852730Y-99184151D01*
X164005871Y-99072888D01*
X164132533Y-98932216D01*
X164227179Y-98768284D01*
X164285674Y-98588256D01*
X164305460Y-98400000D01*
X164285674Y-98211744D01*
X164227179Y-98031716D01*
X164132533Y-97867784D01*
X164082350Y-97812050D01*
X164052120Y-97749058D01*
X164050500Y-97729078D01*
X164050500Y-96870921D01*
X164070185Y-96803882D01*
X164082351Y-96787948D01*
X164085773Y-96784148D01*
X164132533Y-96732216D01*
X164227179Y-96568284D01*
X164285674Y-96388256D01*
X164305460Y-96200000D01*
X164285674Y-96011744D01*
X164231112Y-95843823D01*
X164227181Y-95831722D01*
X164227180Y-95831721D01*
X164227179Y-95831716D01*
X164132533Y-95667784D01*
X164005871Y-95527112D01*
X164005870Y-95527111D01*
X163852734Y-95415851D01*
X163852729Y-95415848D01*
X163679807Y-95338857D01*
X163679802Y-95338855D01*
X163534001Y-95307865D01*
X163494646Y-95299500D01*
X163305354Y-95299500D01*
X163272897Y-95306398D01*
X163120197Y-95338855D01*
X163120192Y-95338857D01*
X162947270Y-95415848D01*
X162947265Y-95415851D01*
X162794129Y-95527111D01*
X162667466Y-95667785D01*
X162572821Y-95831715D01*
X162572818Y-95831722D01*
X162518142Y-96000000D01*
X162514326Y-96011744D01*
X162494540Y-96200000D01*
X160381858Y-96200000D01*
X160385674Y-96188256D01*
X160405460Y-96000000D01*
X160385674Y-95811744D01*
X160327179Y-95631716D01*
X160232533Y-95467784D01*
X160182350Y-95412050D01*
X160152120Y-95349058D01*
X160150500Y-95329078D01*
X160150500Y-94070921D01*
X160170185Y-94003882D01*
X160182351Y-93987948D01*
X160187553Y-93982171D01*
X160232533Y-93932216D01*
X160327179Y-93768284D01*
X160385674Y-93588256D01*
X160405460Y-93400000D01*
X160385674Y-93211744D01*
X160327179Y-93031716D01*
X160232533Y-92867784D01*
X160105871Y-92727112D01*
X160105870Y-92727111D01*
X159952734Y-92615851D01*
X159952729Y-92615848D01*
X159779807Y-92538857D01*
X159779802Y-92538855D01*
X159634001Y-92507865D01*
X159594646Y-92499500D01*
X159405354Y-92499500D01*
X159372897Y-92506398D01*
X159220197Y-92538855D01*
X159220192Y-92538857D01*
X159047270Y-92615848D01*
X159047265Y-92615851D01*
X158894129Y-92727111D01*
X158767466Y-92867785D01*
X158672821Y-93031715D01*
X158672818Y-93031722D01*
X158614327Y-93211740D01*
X158614326Y-93211744D01*
X158594540Y-93400000D01*
X148128387Y-93400000D01*
X148125023Y-93367500D01*
X148156546Y-93305145D01*
X148175842Y-93288425D01*
X148198026Y-93272891D01*
X148361401Y-93158495D01*
X148528495Y-92991401D01*
X148664035Y-92797830D01*
X148763903Y-92583663D01*
X148825063Y-92355408D01*
X148845659Y-92120000D01*
X148845659Y-92119999D01*
X166254841Y-92119999D01*
X166254841Y-92120000D01*
X166275436Y-92355403D01*
X166275438Y-92355413D01*
X166336594Y-92583655D01*
X166336596Y-92583659D01*
X166336597Y-92583663D01*
X166351606Y-92615849D01*
X166436465Y-92797830D01*
X166436467Y-92797834D01*
X166485447Y-92867784D01*
X166572001Y-92991396D01*
X166572006Y-92991402D01*
X166739097Y-93158493D01*
X166739103Y-93158498D01*
X166924658Y-93288425D01*
X166968283Y-93343002D01*
X166975477Y-93412500D01*
X166943954Y-93474855D01*
X166924658Y-93491575D01*
X166739097Y-93621505D01*
X166572005Y-93788597D01*
X166436465Y-93982169D01*
X166436464Y-93982171D01*
X166336598Y-94196335D01*
X166336594Y-94196344D01*
X166275438Y-94424586D01*
X166275436Y-94424596D01*
X166254841Y-94659999D01*
X166254841Y-94660000D01*
X166275436Y-94895403D01*
X166275438Y-94895413D01*
X166336594Y-95123655D01*
X166336596Y-95123659D01*
X166336597Y-95123663D01*
X166416504Y-95295023D01*
X166436465Y-95337830D01*
X166436467Y-95337834D01*
X166531034Y-95472888D01*
X166572001Y-95531396D01*
X166572006Y-95531402D01*
X166739097Y-95698493D01*
X166739103Y-95698498D01*
X166924658Y-95828425D01*
X166968283Y-95883002D01*
X166975477Y-95952500D01*
X166943954Y-96014855D01*
X166924658Y-96031575D01*
X166739097Y-96161505D01*
X166572005Y-96328597D01*
X166436465Y-96522169D01*
X166436464Y-96522171D01*
X166336598Y-96736335D01*
X166336594Y-96736344D01*
X166275438Y-96964586D01*
X166275436Y-96964596D01*
X166254841Y-97199999D01*
X166254841Y-97200000D01*
X166275436Y-97435403D01*
X166275438Y-97435413D01*
X166336594Y-97663655D01*
X166336596Y-97663659D01*
X166336597Y-97663663D01*
X166405791Y-97812050D01*
X166436465Y-97877830D01*
X166436467Y-97877834D01*
X166544217Y-98031715D01*
X166572005Y-98071401D01*
X166739099Y-98238495D01*
X166835884Y-98306265D01*
X166932665Y-98374032D01*
X166932667Y-98374033D01*
X166932670Y-98374035D01*
X167146837Y-98473903D01*
X167375092Y-98535063D01*
X167563418Y-98551539D01*
X167610499Y-98555659D01*
X167610500Y-98555659D01*
X167610501Y-98555659D01*
X167649734Y-98552226D01*
X167845908Y-98535063D01*
X168074163Y-98473903D01*
X168288330Y-98374035D01*
X168481901Y-98238495D01*
X168648995Y-98071401D01*
X168778925Y-97885842D01*
X168833502Y-97842217D01*
X168903000Y-97835023D01*
X168965355Y-97866546D01*
X168982075Y-97885842D01*
X169112000Y-98071395D01*
X169112005Y-98071401D01*
X169279099Y-98238495D01*
X169375884Y-98306265D01*
X169472665Y-98374032D01*
X169472667Y-98374033D01*
X169472670Y-98374035D01*
X169686837Y-98473903D01*
X169915092Y-98535063D01*
X170103418Y-98551539D01*
X170150499Y-98555659D01*
X170150500Y-98555659D01*
X170150501Y-98555659D01*
X170189734Y-98552226D01*
X170385908Y-98535063D01*
X170614163Y-98473903D01*
X170828330Y-98374035D01*
X171021901Y-98238495D01*
X171188995Y-98071401D01*
X171324535Y-97877830D01*
X171424403Y-97663663D01*
X171485563Y-97435408D01*
X171506159Y-97200000D01*
X171485563Y-96964592D01*
X171424403Y-96736337D01*
X171324535Y-96522171D01*
X171318925Y-96514158D01*
X171188994Y-96328597D01*
X171021902Y-96161506D01*
X171021896Y-96161501D01*
X170836342Y-96031575D01*
X170792717Y-95976998D01*
X170785523Y-95907500D01*
X170817046Y-95845145D01*
X170836342Y-95828425D01*
X170860171Y-95811740D01*
X171021901Y-95698495D01*
X171188995Y-95531401D01*
X171324535Y-95337830D01*
X171424403Y-95123663D01*
X171485563Y-94895408D01*
X171493910Y-94800000D01*
X175094540Y-94800000D01*
X175114326Y-94988256D01*
X175114327Y-94988259D01*
X175172818Y-95168277D01*
X175172821Y-95168284D01*
X175267467Y-95332216D01*
X175383125Y-95460667D01*
X175394129Y-95472888D01*
X175547265Y-95584148D01*
X175547270Y-95584151D01*
X175720192Y-95661142D01*
X175720197Y-95661144D01*
X175905354Y-95700500D01*
X175929192Y-95700500D01*
X175996231Y-95720185D01*
X176016873Y-95736819D01*
X176665191Y-96385137D01*
X176698676Y-96446460D01*
X176700830Y-96459851D01*
X176714326Y-96588256D01*
X176714327Y-96588259D01*
X176772818Y-96768277D01*
X176772821Y-96768284D01*
X176867467Y-96932216D01*
X176948385Y-97022084D01*
X176994129Y-97072888D01*
X177147265Y-97184148D01*
X177147270Y-97184151D01*
X177320192Y-97261142D01*
X177320197Y-97261144D01*
X177505354Y-97300500D01*
X177505355Y-97300500D01*
X177694644Y-97300500D01*
X177694646Y-97300500D01*
X177879803Y-97261144D01*
X178052730Y-97184151D01*
X178205871Y-97072888D01*
X178332533Y-96932216D01*
X178427179Y-96768284D01*
X178485674Y-96588256D01*
X178505460Y-96400000D01*
X178485674Y-96211744D01*
X178427179Y-96031716D01*
X178332533Y-95867784D01*
X178205871Y-95727112D01*
X178169243Y-95700500D01*
X178052734Y-95615851D01*
X178052729Y-95615848D01*
X177879807Y-95538857D01*
X177879802Y-95538855D01*
X177734001Y-95507865D01*
X177694646Y-95499500D01*
X177694645Y-95499500D01*
X177670808Y-95499500D01*
X177603769Y-95479815D01*
X177583127Y-95463181D01*
X176934808Y-94814862D01*
X176901323Y-94753539D01*
X176899168Y-94740141D01*
X176895320Y-94703531D01*
X176885674Y-94611744D01*
X176827179Y-94431716D01*
X176732533Y-94267784D01*
X176605871Y-94127112D01*
X176605870Y-94127111D01*
X176452734Y-94015851D01*
X176452729Y-94015848D01*
X176279807Y-93938857D01*
X176279802Y-93938855D01*
X176134001Y-93907865D01*
X176094646Y-93899500D01*
X175905354Y-93899500D01*
X175872897Y-93906398D01*
X175720197Y-93938855D01*
X175720192Y-93938857D01*
X175547270Y-94015848D01*
X175547265Y-94015851D01*
X175394129Y-94127111D01*
X175267466Y-94267785D01*
X175172821Y-94431715D01*
X175172818Y-94431722D01*
X175114327Y-94611740D01*
X175114326Y-94611744D01*
X175094540Y-94800000D01*
X171493910Y-94800000D01*
X171506159Y-94660000D01*
X171485563Y-94424592D01*
X171424403Y-94196337D01*
X171324535Y-93982171D01*
X171318925Y-93974158D01*
X171188994Y-93788597D01*
X171021902Y-93621506D01*
X171021896Y-93621501D01*
X170836342Y-93491575D01*
X170792717Y-93436998D01*
X170785523Y-93367500D01*
X170817046Y-93305145D01*
X170836342Y-93288425D01*
X170858526Y-93272891D01*
X171021901Y-93158495D01*
X171188995Y-92991401D01*
X171324535Y-92797830D01*
X171424403Y-92583663D01*
X171485563Y-92355408D01*
X171506159Y-92120000D01*
X171485563Y-91884592D01*
X171424403Y-91656337D01*
X171324535Y-91442171D01*
X171318925Y-91434158D01*
X171188994Y-91248597D01*
X171021902Y-91081506D01*
X171021896Y-91081501D01*
X170836342Y-90951575D01*
X170792717Y-90896998D01*
X170785523Y-90827500D01*
X170817046Y-90765145D01*
X170836342Y-90748425D01*
X170945365Y-90672086D01*
X171021901Y-90618495D01*
X171188995Y-90451401D01*
X171324535Y-90257830D01*
X171424403Y-90043663D01*
X171485563Y-89815408D01*
X171506159Y-89580000D01*
X171485563Y-89344592D01*
X171424403Y-89116337D01*
X171324535Y-88902171D01*
X171264094Y-88815851D01*
X171188994Y-88708597D01*
X171021902Y-88541506D01*
X171021895Y-88541501D01*
X171015208Y-88536819D01*
X170907131Y-88461142D01*
X170828334Y-88405967D01*
X170828330Y-88405965D01*
X170828328Y-88405964D01*
X170614163Y-88306097D01*
X170614159Y-88306096D01*
X170614155Y-88306094D01*
X170385913Y-88244938D01*
X170385903Y-88244936D01*
X170150501Y-88224341D01*
X170150499Y-88224341D01*
X169915096Y-88244936D01*
X169915086Y-88244938D01*
X169686844Y-88306094D01*
X169686835Y-88306098D01*
X169472671Y-88405964D01*
X169472669Y-88405965D01*
X169279100Y-88541503D01*
X169156784Y-88663819D01*
X169095461Y-88697303D01*
X169025769Y-88692319D01*
X168969836Y-88650447D01*
X168952921Y-88619470D01*
X168903854Y-88487913D01*
X168903850Y-88487906D01*
X168817690Y-88372812D01*
X168817687Y-88372809D01*
X168702593Y-88286649D01*
X168702586Y-88286645D01*
X168567879Y-88236403D01*
X168567872Y-88236401D01*
X168508344Y-88230000D01*
X167860500Y-88230000D01*
X167860500Y-89146988D01*
X167803493Y-89114075D01*
X167676326Y-89080000D01*
X167544674Y-89080000D01*
X167417507Y-89114075D01*
X167360500Y-89146988D01*
X167360500Y-88230000D01*
X166712655Y-88230000D01*
X166653127Y-88236401D01*
X166653120Y-88236403D01*
X166518413Y-88286645D01*
X166518406Y-88286649D01*
X166403312Y-88372809D01*
X166403309Y-88372812D01*
X166317149Y-88487906D01*
X166317145Y-88487913D01*
X166266903Y-88622620D01*
X166266901Y-88622627D01*
X166260500Y-88682155D01*
X166260500Y-89330000D01*
X167177488Y-89330000D01*
X167144575Y-89387007D01*
X167110500Y-89514174D01*
X167110500Y-89645826D01*
X167144575Y-89772993D01*
X167177488Y-89830000D01*
X166260500Y-89830000D01*
X166260500Y-90477844D01*
X166266901Y-90537372D01*
X166266903Y-90537379D01*
X166317145Y-90672086D01*
X166317149Y-90672093D01*
X166403309Y-90787187D01*
X166403312Y-90787190D01*
X166518406Y-90873350D01*
X166518413Y-90873354D01*
X166649970Y-90922421D01*
X166705903Y-90964292D01*
X166730321Y-91029756D01*
X166715470Y-91098029D01*
X166694319Y-91126284D01*
X166572003Y-91248600D01*
X166436465Y-91442169D01*
X166436464Y-91442171D01*
X166336598Y-91656335D01*
X166336594Y-91656344D01*
X166275438Y-91884586D01*
X166275436Y-91884596D01*
X166254841Y-92119999D01*
X148845659Y-92119999D01*
X148825063Y-91884592D01*
X148763903Y-91656337D01*
X148664035Y-91442171D01*
X148658425Y-91434158D01*
X148528494Y-91248597D01*
X148361402Y-91081506D01*
X148361396Y-91081501D01*
X148175842Y-90951575D01*
X148132217Y-90896998D01*
X148125023Y-90827500D01*
X148156546Y-90765145D01*
X148175842Y-90748425D01*
X148284865Y-90672086D01*
X148361401Y-90618495D01*
X148528495Y-90451401D01*
X148664035Y-90257830D01*
X148763903Y-90043663D01*
X148825063Y-89815408D01*
X148845659Y-89580000D01*
X148825063Y-89344592D01*
X148763903Y-89116337D01*
X148664035Y-88902171D01*
X148603594Y-88815851D01*
X148528494Y-88708597D01*
X148361402Y-88541506D01*
X148361396Y-88541501D01*
X148175842Y-88411575D01*
X148132217Y-88356998D01*
X148125023Y-88287500D01*
X148156546Y-88225145D01*
X148175842Y-88208425D01*
X148198026Y-88192891D01*
X148361401Y-88078495D01*
X148528495Y-87911401D01*
X148664035Y-87717830D01*
X148718980Y-87600000D01*
X158294540Y-87600000D01*
X158314326Y-87788256D01*
X158314327Y-87788259D01*
X158372818Y-87968277D01*
X158372821Y-87968284D01*
X158467467Y-88132216D01*
X158561276Y-88236401D01*
X158594129Y-88272888D01*
X158747265Y-88384148D01*
X158747270Y-88384151D01*
X158920192Y-88461142D01*
X158920197Y-88461144D01*
X159105354Y-88500500D01*
X159129192Y-88500500D01*
X159196231Y-88520185D01*
X159216873Y-88536819D01*
X160265191Y-89585136D01*
X160298676Y-89646459D01*
X160300830Y-89659850D01*
X160314326Y-89788256D01*
X160314327Y-89788259D01*
X160372818Y-89968277D01*
X160372821Y-89968284D01*
X160467467Y-90132216D01*
X160580571Y-90257830D01*
X160594129Y-90272888D01*
X160747265Y-90384148D01*
X160747270Y-90384151D01*
X160920192Y-90461142D01*
X160920197Y-90461144D01*
X161105354Y-90500500D01*
X161105355Y-90500500D01*
X161294644Y-90500500D01*
X161294646Y-90500500D01*
X161479803Y-90461144D01*
X161652730Y-90384151D01*
X161805871Y-90272888D01*
X161932533Y-90132216D01*
X162027179Y-89968284D01*
X162085674Y-89788256D01*
X162105460Y-89600000D01*
X162085674Y-89411744D01*
X162027179Y-89231716D01*
X161932533Y-89067784D01*
X161805871Y-88927112D01*
X161771540Y-88902169D01*
X161652734Y-88815851D01*
X161652729Y-88815848D01*
X161479807Y-88738857D01*
X161479802Y-88738855D01*
X161334001Y-88707865D01*
X161294646Y-88699500D01*
X161294645Y-88699500D01*
X161270807Y-88699500D01*
X161203768Y-88679815D01*
X161183126Y-88663181D01*
X160134808Y-87614862D01*
X160101323Y-87553539D01*
X160099168Y-87540141D01*
X160097270Y-87522086D01*
X160085674Y-87411744D01*
X160027179Y-87231716D01*
X159932533Y-87067784D01*
X159805871Y-86927112D01*
X159805870Y-86927111D01*
X159652734Y-86815851D01*
X159652729Y-86815848D01*
X159479807Y-86738857D01*
X159479802Y-86738855D01*
X159334001Y-86707865D01*
X159294646Y-86699500D01*
X159105354Y-86699500D01*
X159072897Y-86706398D01*
X158920197Y-86738855D01*
X158920192Y-86738857D01*
X158747270Y-86815848D01*
X158747265Y-86815851D01*
X158594129Y-86927111D01*
X158467466Y-87067785D01*
X158372821Y-87231715D01*
X158372818Y-87231722D01*
X158321668Y-87389147D01*
X158314326Y-87411744D01*
X158294540Y-87600000D01*
X148718980Y-87600000D01*
X148763903Y-87503663D01*
X148825063Y-87275408D01*
X148845659Y-87040000D01*
X148825063Y-86804592D01*
X148763903Y-86576337D01*
X148664035Y-86362171D01*
X148528495Y-86168599D01*
X148528494Y-86168597D01*
X148361402Y-86001506D01*
X148361396Y-86001501D01*
X148175842Y-85871575D01*
X148132217Y-85816998D01*
X148125023Y-85747500D01*
X148156546Y-85685145D01*
X148175842Y-85668425D01*
X148200813Y-85650940D01*
X148361401Y-85538495D01*
X148528495Y-85371401D01*
X148664035Y-85177830D01*
X148746959Y-85000000D01*
X172694540Y-85000000D01*
X172714326Y-85188256D01*
X172714327Y-85188259D01*
X172772818Y-85368277D01*
X172772821Y-85368284D01*
X172867466Y-85532215D01*
X172917649Y-85587948D01*
X172947880Y-85650940D01*
X172949500Y-85670921D01*
X172949500Y-90529078D01*
X172929815Y-90596117D01*
X172917650Y-90612050D01*
X172867466Y-90667785D01*
X172772821Y-90831715D01*
X172772818Y-90831722D01*
X172733876Y-90951575D01*
X172714326Y-91011744D01*
X172694540Y-91200000D01*
X172714326Y-91388256D01*
X172714327Y-91388259D01*
X172772818Y-91568277D01*
X172772821Y-91568284D01*
X172867467Y-91732216D01*
X172994129Y-91872888D01*
X173147265Y-91984148D01*
X173147270Y-91984151D01*
X173320192Y-92061142D01*
X173320197Y-92061144D01*
X173505354Y-92100500D01*
X173505355Y-92100500D01*
X173694644Y-92100500D01*
X173694646Y-92100500D01*
X173879803Y-92061144D01*
X174052730Y-91984151D01*
X174205871Y-91872888D01*
X174332533Y-91732216D01*
X174427179Y-91568284D01*
X174485674Y-91388256D01*
X174505460Y-91200000D01*
X174485674Y-91011744D01*
X174427179Y-90831716D01*
X174332533Y-90667784D01*
X174282350Y-90612050D01*
X174252120Y-90549058D01*
X174250500Y-90529078D01*
X174250500Y-88200000D01*
X175094540Y-88200000D01*
X175114326Y-88388256D01*
X175114327Y-88388259D01*
X175172818Y-88568277D01*
X175172821Y-88568284D01*
X175267466Y-88732215D01*
X175317649Y-88787948D01*
X175347880Y-88850940D01*
X175349500Y-88870921D01*
X175349500Y-90529078D01*
X175329815Y-90596117D01*
X175317650Y-90612050D01*
X175267466Y-90667785D01*
X175172821Y-90831715D01*
X175172818Y-90831722D01*
X175133876Y-90951575D01*
X175114326Y-91011744D01*
X175094540Y-91200000D01*
X175114326Y-91388256D01*
X175114327Y-91388259D01*
X175172818Y-91568277D01*
X175172821Y-91568284D01*
X175267467Y-91732216D01*
X175394129Y-91872888D01*
X175547265Y-91984148D01*
X175547270Y-91984151D01*
X175720192Y-92061142D01*
X175720197Y-92061144D01*
X175905354Y-92100500D01*
X175905355Y-92100500D01*
X176094644Y-92100500D01*
X176094646Y-92100500D01*
X176279803Y-92061144D01*
X176452730Y-91984151D01*
X176605871Y-91872888D01*
X176732533Y-91732216D01*
X176827179Y-91568284D01*
X176885674Y-91388256D01*
X176905460Y-91200000D01*
X176885674Y-91011744D01*
X176827179Y-90831716D01*
X176732533Y-90667784D01*
X176682350Y-90612050D01*
X176652120Y-90549058D01*
X176650500Y-90529078D01*
X176650500Y-88870921D01*
X176670185Y-88803882D01*
X176682351Y-88787948D01*
X176726553Y-88738857D01*
X176732533Y-88732216D01*
X176827179Y-88568284D01*
X176885674Y-88388256D01*
X176905460Y-88200000D01*
X177494540Y-88200000D01*
X177514326Y-88388256D01*
X177514327Y-88388259D01*
X177572818Y-88568277D01*
X177572821Y-88568284D01*
X177667466Y-88732215D01*
X177717649Y-88787948D01*
X177747880Y-88850940D01*
X177749500Y-88870921D01*
X177749500Y-90529078D01*
X177729815Y-90596117D01*
X177717650Y-90612050D01*
X177667466Y-90667785D01*
X177572821Y-90831715D01*
X177572818Y-90831722D01*
X177533876Y-90951575D01*
X177514326Y-91011744D01*
X177494540Y-91200000D01*
X177514326Y-91388256D01*
X177514327Y-91388259D01*
X177572818Y-91568277D01*
X177572821Y-91568284D01*
X177667467Y-91732216D01*
X177794129Y-91872888D01*
X177947265Y-91984148D01*
X177947270Y-91984151D01*
X178120192Y-92061142D01*
X178120197Y-92061144D01*
X178305354Y-92100500D01*
X178305355Y-92100500D01*
X178494644Y-92100500D01*
X178494646Y-92100500D01*
X178679803Y-92061144D01*
X178852730Y-91984151D01*
X179005871Y-91872888D01*
X179132533Y-91732216D01*
X179227179Y-91568284D01*
X179285674Y-91388256D01*
X179305460Y-91200000D01*
X179285674Y-91011744D01*
X179227179Y-90831716D01*
X179132533Y-90667784D01*
X179082350Y-90612050D01*
X179052120Y-90549058D01*
X179050500Y-90529078D01*
X179050500Y-88870921D01*
X179070185Y-88803882D01*
X179082351Y-88787948D01*
X179126553Y-88738857D01*
X179132533Y-88732216D01*
X179227179Y-88568284D01*
X179285674Y-88388256D01*
X179305460Y-88200000D01*
X179285674Y-88011744D01*
X179227179Y-87831716D01*
X179132533Y-87667784D01*
X179005871Y-87527112D01*
X178998963Y-87522093D01*
X178852734Y-87415851D01*
X178852729Y-87415848D01*
X178679807Y-87338857D01*
X178679802Y-87338855D01*
X178534001Y-87307865D01*
X178494646Y-87299500D01*
X178305354Y-87299500D01*
X178272897Y-87306398D01*
X178120197Y-87338855D01*
X178120192Y-87338857D01*
X177947270Y-87415848D01*
X177947265Y-87415851D01*
X177794129Y-87527111D01*
X177667466Y-87667785D01*
X177572821Y-87831715D01*
X177572818Y-87831722D01*
X177546929Y-87911402D01*
X177514326Y-88011744D01*
X177494540Y-88200000D01*
X176905460Y-88200000D01*
X176885674Y-88011744D01*
X176827179Y-87831716D01*
X176732533Y-87667784D01*
X176605871Y-87527112D01*
X176598963Y-87522093D01*
X176452734Y-87415851D01*
X176452729Y-87415848D01*
X176279807Y-87338857D01*
X176279802Y-87338855D01*
X176134001Y-87307865D01*
X176094646Y-87299500D01*
X175905354Y-87299500D01*
X175872897Y-87306398D01*
X175720197Y-87338855D01*
X175720192Y-87338857D01*
X175547270Y-87415848D01*
X175547265Y-87415851D01*
X175394129Y-87527111D01*
X175267466Y-87667785D01*
X175172821Y-87831715D01*
X175172818Y-87831722D01*
X175146929Y-87911402D01*
X175114326Y-88011744D01*
X175094540Y-88200000D01*
X174250500Y-88200000D01*
X174250500Y-85670921D01*
X174270185Y-85603882D01*
X174282351Y-85587948D01*
X174332533Y-85532216D01*
X174427179Y-85368284D01*
X174485674Y-85188256D01*
X174505460Y-85000000D01*
X174485674Y-84811744D01*
X174427179Y-84631716D01*
X174332533Y-84467784D01*
X174205871Y-84327112D01*
X174205870Y-84327111D01*
X174052734Y-84215851D01*
X174052729Y-84215848D01*
X173879807Y-84138857D01*
X173879802Y-84138855D01*
X173734001Y-84107865D01*
X173694646Y-84099500D01*
X173505354Y-84099500D01*
X173472897Y-84106398D01*
X173320197Y-84138855D01*
X173320192Y-84138857D01*
X173147270Y-84215848D01*
X173147265Y-84215851D01*
X172994129Y-84327111D01*
X172867466Y-84467785D01*
X172772821Y-84631715D01*
X172772818Y-84631722D01*
X172714327Y-84811740D01*
X172714326Y-84811744D01*
X172694540Y-85000000D01*
X148746959Y-85000000D01*
X148763903Y-84963663D01*
X148825063Y-84735408D01*
X148845659Y-84500000D01*
X148842840Y-84467785D01*
X148825063Y-84264596D01*
X148825063Y-84264592D01*
X148763903Y-84036337D01*
X148664035Y-83822171D01*
X148528495Y-83628599D01*
X148528494Y-83628597D01*
X148361402Y-83461506D01*
X148361396Y-83461501D01*
X148175842Y-83331575D01*
X148132217Y-83276998D01*
X148125023Y-83207500D01*
X148156546Y-83145145D01*
X148175842Y-83128425D01*
X148198026Y-83112891D01*
X148361401Y-82998495D01*
X148528495Y-82831401D01*
X148664035Y-82637830D01*
X148763903Y-82423663D01*
X148825063Y-82195408D01*
X148845659Y-81960000D01*
X148825063Y-81724592D01*
X148763903Y-81496337D01*
X148664035Y-81282171D01*
X148528495Y-81088599D01*
X148528494Y-81088597D01*
X148361402Y-80921506D01*
X148361396Y-80921501D01*
X148175842Y-80791575D01*
X148132217Y-80736998D01*
X148125023Y-80667500D01*
X148156546Y-80605145D01*
X148175842Y-80588425D01*
X148198026Y-80572891D01*
X148361401Y-80458495D01*
X148528495Y-80291401D01*
X148664035Y-80097830D01*
X148763903Y-79883663D01*
X148825063Y-79655408D01*
X148845659Y-79420000D01*
X148825063Y-79184592D01*
X148763903Y-78956337D01*
X148664035Y-78742171D01*
X148569726Y-78607482D01*
X148528494Y-78548597D01*
X148361402Y-78381506D01*
X148361396Y-78381501D01*
X148175842Y-78251575D01*
X148132217Y-78196998D01*
X148125023Y-78127500D01*
X148156546Y-78065145D01*
X148175842Y-78048425D01*
X148198026Y-78032891D01*
X148361401Y-77918495D01*
X148528495Y-77751401D01*
X148664035Y-77557830D01*
X148763903Y-77343663D01*
X148825063Y-77115408D01*
X148845659Y-76880000D01*
X148825063Y-76644592D01*
X148763903Y-76416337D01*
X148664035Y-76202171D01*
X148528495Y-76008599D01*
X148528494Y-76008597D01*
X148361402Y-75841506D01*
X148361396Y-75841501D01*
X148175842Y-75711575D01*
X148132217Y-75656998D01*
X148125023Y-75587500D01*
X148156546Y-75525145D01*
X148175842Y-75508425D01*
X148256242Y-75452128D01*
X148361401Y-75378495D01*
X148528495Y-75211401D01*
X148664035Y-75017830D01*
X148763903Y-74803663D01*
X148825063Y-74575408D01*
X148845659Y-74340000D01*
X148825063Y-74104592D01*
X148776971Y-73925109D01*
X148763905Y-73876344D01*
X148763904Y-73876343D01*
X148763903Y-73876337D01*
X148664035Y-73662171D01*
X148550564Y-73500116D01*
X148528494Y-73468597D01*
X148361402Y-73301506D01*
X148361401Y-73301505D01*
X148175405Y-73171269D01*
X148131781Y-73116692D01*
X148124588Y-73047193D01*
X148156110Y-72984839D01*
X148175405Y-72968119D01*
X148251373Y-72914925D01*
X147619409Y-72282962D01*
X147682993Y-72265925D01*
X147797007Y-72200099D01*
X147890099Y-72107007D01*
X147955925Y-71992993D01*
X147972962Y-71929410D01*
X148604925Y-72561373D01*
X148604926Y-72561373D01*
X148663598Y-72477582D01*
X148663600Y-72477578D01*
X148763429Y-72263492D01*
X148763433Y-72263483D01*
X148824567Y-72035326D01*
X148824569Y-72035315D01*
X148845157Y-71800001D01*
X148845157Y-71799998D01*
X148824569Y-71564684D01*
X148824567Y-71564673D01*
X148763433Y-71336516D01*
X148763429Y-71336507D01*
X148663600Y-71122423D01*
X148663599Y-71122421D01*
X148604925Y-71038626D01*
X148604925Y-71038625D01*
X147972962Y-71670589D01*
X147955925Y-71607007D01*
X147890099Y-71492993D01*
X147797007Y-71399901D01*
X147682993Y-71334075D01*
X147619410Y-71317037D01*
X148251373Y-70685073D01*
X148174969Y-70631576D01*
X148131344Y-70576999D01*
X148124150Y-70507501D01*
X148155672Y-70445146D01*
X148174968Y-70428425D01*
X148251373Y-70374925D01*
X147619409Y-69742962D01*
X147682993Y-69725925D01*
X147797007Y-69660099D01*
X147890099Y-69567007D01*
X147955925Y-69452993D01*
X147972962Y-69389410D01*
X148604925Y-70021373D01*
X148604926Y-70021373D01*
X148663598Y-69937582D01*
X148663600Y-69937578D01*
X148763429Y-69723492D01*
X148763433Y-69723483D01*
X148824567Y-69495326D01*
X148824569Y-69495315D01*
X148845157Y-69260001D01*
X148845157Y-69259998D01*
X148824569Y-69024684D01*
X148824567Y-69024673D01*
X148763433Y-68796516D01*
X148763429Y-68796507D01*
X148663600Y-68582423D01*
X148663599Y-68582421D01*
X148604925Y-68498626D01*
X148604925Y-68498625D01*
X147972962Y-69130589D01*
X147955925Y-69067007D01*
X147890099Y-68952993D01*
X147797007Y-68859901D01*
X147682993Y-68794075D01*
X147619410Y-68777037D01*
X148251373Y-68145073D01*
X148251373Y-68145072D01*
X148167583Y-68086402D01*
X148167579Y-68086400D01*
X147953492Y-67986570D01*
X147953483Y-67986566D01*
X147725326Y-67925432D01*
X147725315Y-67925430D01*
X147490002Y-67904843D01*
X147489998Y-67904843D01*
X147254684Y-67925430D01*
X147254673Y-67925432D01*
X147026516Y-67986566D01*
X147026507Y-67986570D01*
X146812419Y-68086401D01*
X146728625Y-68145072D01*
X147360590Y-68777037D01*
X147297007Y-68794075D01*
X147182993Y-68859901D01*
X147089901Y-68952993D01*
X147024075Y-69067007D01*
X147007037Y-69130590D01*
X146375072Y-68498625D01*
X146316401Y-68582419D01*
X146216570Y-68796507D01*
X146216566Y-68796516D01*
X146155432Y-69024673D01*
X146155430Y-69024684D01*
X146134843Y-69259998D01*
X146134843Y-69260001D01*
X146155430Y-69495315D01*
X146155432Y-69495326D01*
X146216566Y-69723483D01*
X146216570Y-69723492D01*
X146316400Y-69937579D01*
X146316402Y-69937583D01*
X146375072Y-70021373D01*
X146375073Y-70021373D01*
X147007037Y-69389409D01*
X147024075Y-69452993D01*
X147089901Y-69567007D01*
X147182993Y-69660099D01*
X147297007Y-69725925D01*
X147360590Y-69742962D01*
X146728625Y-70374925D01*
X146805031Y-70428425D01*
X146848655Y-70483002D01*
X146855848Y-70552501D01*
X146824326Y-70614855D01*
X146805029Y-70631576D01*
X146728625Y-70685072D01*
X147360590Y-71317037D01*
X147297007Y-71334075D01*
X147182993Y-71399901D01*
X147089901Y-71492993D01*
X147024075Y-71607007D01*
X147007037Y-71670590D01*
X146375072Y-71038625D01*
X146316401Y-71122419D01*
X146216570Y-71336507D01*
X146216566Y-71336516D01*
X146155432Y-71564673D01*
X146155430Y-71564684D01*
X146134843Y-71799998D01*
X146134843Y-71800001D01*
X146155430Y-72035315D01*
X146155432Y-72035326D01*
X146216566Y-72263483D01*
X146216570Y-72263492D01*
X146316400Y-72477579D01*
X146316402Y-72477583D01*
X146375072Y-72561373D01*
X146375073Y-72561373D01*
X147007037Y-71929409D01*
X147024075Y-71992993D01*
X147089901Y-72107007D01*
X147182993Y-72200099D01*
X147297007Y-72265925D01*
X147360590Y-72282962D01*
X146728625Y-72914925D01*
X146804594Y-72968119D01*
X146848219Y-73022696D01*
X146855413Y-73092194D01*
X146823890Y-73154549D01*
X146804595Y-73171269D01*
X146618594Y-73301508D01*
X146451505Y-73468597D01*
X146315965Y-73662169D01*
X146315964Y-73662171D01*
X146216098Y-73876335D01*
X146216094Y-73876344D01*
X146154938Y-74104586D01*
X146154936Y-74104596D01*
X146134341Y-74339999D01*
X133605659Y-74339999D01*
X133585063Y-74104592D01*
X133536971Y-73925109D01*
X133523905Y-73876344D01*
X133523904Y-73876343D01*
X133523903Y-73876337D01*
X133424035Y-73662171D01*
X133310564Y-73500116D01*
X133288494Y-73468597D01*
X133121402Y-73301506D01*
X133121396Y-73301501D01*
X132935842Y-73171575D01*
X132892217Y-73116998D01*
X132885023Y-73047500D01*
X132916546Y-72985145D01*
X132935842Y-72968425D01*
X133012248Y-72914925D01*
X133121401Y-72838495D01*
X133288495Y-72671401D01*
X133424035Y-72477830D01*
X133523903Y-72263663D01*
X133585063Y-72035408D01*
X133605659Y-71800000D01*
X133585063Y-71564592D01*
X133523903Y-71336337D01*
X133424035Y-71122171D01*
X133365536Y-71038626D01*
X133288496Y-70928600D01*
X133288495Y-70928599D01*
X133166567Y-70806671D01*
X133133084Y-70745351D01*
X133138068Y-70675659D01*
X133179939Y-70619725D01*
X133210915Y-70602810D01*
X133342331Y-70553796D01*
X133457546Y-70467546D01*
X133543796Y-70352331D01*
X133594091Y-70217483D01*
X133600500Y-70157873D01*
X133600499Y-68362128D01*
X133594091Y-68302517D01*
X133543796Y-68167669D01*
X133543795Y-68167668D01*
X133543793Y-68167664D01*
X133457547Y-68052455D01*
X133457544Y-68052452D01*
X133342335Y-67966206D01*
X133342328Y-67966202D01*
X133207482Y-67915908D01*
X133207483Y-67915908D01*
X133147883Y-67909501D01*
X133147881Y-67909500D01*
X133147873Y-67909500D01*
X133147864Y-67909500D01*
X131352129Y-67909500D01*
X131352123Y-67909501D01*
X131292516Y-67915908D01*
X131157671Y-67966202D01*
X131157664Y-67966206D01*
X131042455Y-68052452D01*
X131042452Y-68052455D01*
X130956206Y-68167664D01*
X130956202Y-68167671D01*
X130905908Y-68302517D01*
X130900188Y-68355729D01*
X130899501Y-68362123D01*
X130899500Y-68362135D01*
X130899500Y-70157870D01*
X130899501Y-70157876D01*
X130905908Y-70217483D01*
X130956202Y-70352328D01*
X130956206Y-70352335D01*
X131042452Y-70467544D01*
X131042455Y-70467547D01*
X131157664Y-70553793D01*
X131157671Y-70553797D01*
X131289081Y-70602810D01*
X131345015Y-70644681D01*
X131369432Y-70710145D01*
X131354580Y-70778418D01*
X131333430Y-70806673D01*
X131211503Y-70928600D01*
X131075965Y-71122169D01*
X131075964Y-71122171D01*
X130976098Y-71336335D01*
X130976094Y-71336344D01*
X130914938Y-71564586D01*
X130914936Y-71564596D01*
X130894341Y-71799999D01*
X116496526Y-71799999D01*
X116484699Y-71634637D01*
X116423890Y-71355104D01*
X116323908Y-71087041D01*
X116186808Y-70835961D01*
X116186807Y-70835960D01*
X116080115Y-70693436D01*
X115185231Y-71588320D01*
X115173503Y-71560005D01*
X115090330Y-71435528D01*
X114984472Y-71329670D01*
X114859995Y-71246497D01*
X114831678Y-71234767D01*
X115726562Y-70339883D01*
X115726561Y-70339882D01*
X115584046Y-70233196D01*
X115584038Y-70233191D01*
X115332957Y-70096091D01*
X115332958Y-70096091D01*
X115064895Y-69996109D01*
X114785362Y-69935300D01*
X114500001Y-69914891D01*
X114499999Y-69914891D01*
X114214637Y-69935300D01*
X113935104Y-69996109D01*
X113667041Y-70096091D01*
X113415961Y-70233191D01*
X113415953Y-70233196D01*
X113273437Y-70339882D01*
X113273436Y-70339883D01*
X114168321Y-71234767D01*
X114140005Y-71246497D01*
X114015528Y-71329670D01*
X113909670Y-71435528D01*
X113826497Y-71560005D01*
X113814768Y-71588321D01*
X112919883Y-70693436D01*
X112919882Y-70693437D01*
X112813196Y-70835953D01*
X112813191Y-70835961D01*
X112676091Y-71087041D01*
X112576109Y-71355104D01*
X112515300Y-71634637D01*
X112494891Y-71919998D01*
X110199623Y-71919998D01*
X110199623Y-66839998D01*
X112494390Y-66839998D01*
X112494390Y-66840001D01*
X112514804Y-67125433D01*
X112575628Y-67405037D01*
X112575630Y-67405043D01*
X112575631Y-67405046D01*
X112667181Y-67650500D01*
X112675635Y-67673166D01*
X112812770Y-67924309D01*
X112812775Y-67924317D01*
X112984254Y-68153387D01*
X112984270Y-68153405D01*
X113186594Y-68355729D01*
X113186612Y-68355745D01*
X113415682Y-68527224D01*
X113415690Y-68527229D01*
X113666833Y-68664364D01*
X113666832Y-68664364D01*
X113666836Y-68664365D01*
X113666839Y-68664367D01*
X113934954Y-68764369D01*
X113934960Y-68764370D01*
X113934962Y-68764371D01*
X114214566Y-68825195D01*
X114214568Y-68825195D01*
X114214572Y-68825196D01*
X114468220Y-68843337D01*
X114499999Y-68845610D01*
X114500000Y-68845610D01*
X114500001Y-68845610D01*
X114528595Y-68843564D01*
X114785428Y-68825196D01*
X114917269Y-68796516D01*
X115065037Y-68764371D01*
X115065037Y-68764370D01*
X115065046Y-68764369D01*
X115333161Y-68664367D01*
X115584315Y-68527226D01*
X115813395Y-68355739D01*
X116015739Y-68153395D01*
X116187226Y-67924315D01*
X116324367Y-67673161D01*
X116424369Y-67405046D01*
X116456469Y-67257483D01*
X116485195Y-67125433D01*
X116485195Y-67125432D01*
X116485196Y-67125428D01*
X116505610Y-66840000D01*
X116485196Y-66554572D01*
X116424369Y-66274954D01*
X116324367Y-66006839D01*
X116187226Y-65755685D01*
X116187224Y-65755682D01*
X116015745Y-65526612D01*
X116015729Y-65526594D01*
X115813405Y-65324270D01*
X115813387Y-65324254D01*
X115584317Y-65152775D01*
X115584309Y-65152770D01*
X115333166Y-65015635D01*
X115333167Y-65015635D01*
X115225915Y-64975632D01*
X115065046Y-64915631D01*
X115065043Y-64915630D01*
X115065037Y-64915628D01*
X114785433Y-64854804D01*
X114500001Y-64834390D01*
X114499999Y-64834390D01*
X114214566Y-64854804D01*
X113934962Y-64915628D01*
X113666833Y-65015635D01*
X113415690Y-65152770D01*
X113415682Y-65152775D01*
X113186612Y-65324254D01*
X113186594Y-65324270D01*
X112984270Y-65526594D01*
X112984254Y-65526612D01*
X112812775Y-65755682D01*
X112812770Y-65755690D01*
X112675635Y-66006833D01*
X112575628Y-66274962D01*
X112514804Y-66554566D01*
X112494390Y-66839998D01*
X110199623Y-66839998D01*
X110199623Y-61431386D01*
X164949500Y-61431386D01*
X164949500Y-63368613D01*
X164949501Y-63368652D01*
X164952295Y-63421243D01*
X164952295Y-63421244D01*
X164987279Y-63602128D01*
X164996755Y-63651126D01*
X165045326Y-63779832D01*
X165079425Y-63870189D01*
X165197929Y-64072131D01*
X165197934Y-64072138D01*
X165348856Y-64251141D01*
X165348858Y-64251143D01*
X165527861Y-64402065D01*
X165527868Y-64402070D01*
X165729810Y-64520574D01*
X165948874Y-64603245D01*
X166178759Y-64647705D01*
X166231378Y-64650500D01*
X166231386Y-64650500D01*
X168168614Y-64650500D01*
X168168622Y-64650500D01*
X168221241Y-64647705D01*
X168451126Y-64603245D01*
X168670190Y-64520574D01*
X168872132Y-64402070D01*
X169051142Y-64251142D01*
X169202070Y-64072132D01*
X169320574Y-63870190D01*
X169403245Y-63651126D01*
X169403756Y-63648485D01*
X169404281Y-63647467D01*
X169404683Y-63646050D01*
X169404971Y-63646131D01*
X169435812Y-63586403D01*
X169496343Y-63551507D01*
X169566131Y-63554876D01*
X169623019Y-63595440D01*
X169648946Y-63660322D01*
X169649500Y-63672030D01*
X169649500Y-67197870D01*
X169649501Y-67197876D01*
X169655908Y-67257483D01*
X169706202Y-67392328D01*
X169706206Y-67392335D01*
X169792452Y-67507544D01*
X169792455Y-67507547D01*
X169907664Y-67593793D01*
X169907671Y-67593797D01*
X170042517Y-67644091D01*
X170042516Y-67644091D01*
X170049444Y-67644835D01*
X170102127Y-67650500D01*
X173697872Y-67650499D01*
X173757483Y-67644091D01*
X173892331Y-67593796D01*
X174007546Y-67507546D01*
X174093796Y-67392331D01*
X174144091Y-67257483D01*
X174150500Y-67197873D01*
X174150499Y-63602128D01*
X174144091Y-63542517D01*
X174132288Y-63510872D01*
X174093797Y-63407671D01*
X174093793Y-63407664D01*
X174007547Y-63292455D01*
X174007544Y-63292452D01*
X173892335Y-63206206D01*
X173892328Y-63206202D01*
X173757482Y-63155908D01*
X173757483Y-63155908D01*
X173697883Y-63149501D01*
X173697881Y-63149500D01*
X173697873Y-63149500D01*
X173697864Y-63149500D01*
X170102129Y-63149500D01*
X170102123Y-63149501D01*
X170042516Y-63155908D01*
X169907671Y-63206202D01*
X169907664Y-63206206D01*
X169792455Y-63292452D01*
X169792452Y-63292455D01*
X169706206Y-63407664D01*
X169706203Y-63407669D01*
X169688573Y-63454939D01*
X169646701Y-63510872D01*
X169581237Y-63535289D01*
X169512964Y-63520437D01*
X169463559Y-63471032D01*
X169448566Y-63405025D01*
X169450499Y-63368650D01*
X169450500Y-63368613D01*
X169450500Y-61431386D01*
X169450498Y-61431347D01*
X169448833Y-61399998D01*
X169447705Y-61378759D01*
X169403245Y-61148874D01*
X169320574Y-60929810D01*
X169202070Y-60727868D01*
X169202065Y-60727861D01*
X169051143Y-60548858D01*
X169051141Y-60548856D01*
X168872138Y-60397934D01*
X168872131Y-60397929D01*
X168670189Y-60279425D01*
X168579832Y-60245326D01*
X168451126Y-60196755D01*
X168451121Y-60196754D01*
X168221243Y-60152295D01*
X168168652Y-60149501D01*
X168168629Y-60149500D01*
X168168622Y-60149500D01*
X166231378Y-60149500D01*
X166231370Y-60149500D01*
X166231347Y-60149501D01*
X166178756Y-60152295D01*
X166178755Y-60152295D01*
X165948878Y-60196754D01*
X165948876Y-60196754D01*
X165948874Y-60196755D01*
X165902656Y-60214197D01*
X165729810Y-60279425D01*
X165527868Y-60397929D01*
X165527861Y-60397934D01*
X165348858Y-60548856D01*
X165348856Y-60548858D01*
X165197934Y-60727861D01*
X165197929Y-60727868D01*
X165079425Y-60929810D01*
X165024659Y-61074933D01*
X164996755Y-61148874D01*
X164996754Y-61148876D01*
X164996754Y-61148878D01*
X164952295Y-61378755D01*
X164952295Y-61378756D01*
X164949501Y-61431347D01*
X164949500Y-61431386D01*
X110199623Y-61431386D01*
X110199623Y-58585803D01*
X169650000Y-58585803D01*
X169650000Y-59150000D01*
X170466988Y-59150000D01*
X170434075Y-59207007D01*
X170400000Y-59334174D01*
X170400000Y-59465826D01*
X170434075Y-59592993D01*
X170466988Y-59650000D01*
X169650001Y-59650000D01*
X169650001Y-60214197D01*
X169660400Y-60346332D01*
X169715377Y-60564519D01*
X169808428Y-60769374D01*
X169808431Y-60769380D01*
X169936559Y-60954323D01*
X169936569Y-60954335D01*
X170095664Y-61113430D01*
X170095676Y-61113440D01*
X170280619Y-61241568D01*
X170280625Y-61241571D01*
X170485480Y-61334622D01*
X170703667Y-61389599D01*
X170835810Y-61399999D01*
X171649999Y-61399999D01*
X171650000Y-61399998D01*
X171650000Y-59900000D01*
X172150000Y-59900000D01*
X172150000Y-61399999D01*
X172964182Y-61399999D01*
X172964197Y-61399998D01*
X173096332Y-61389599D01*
X173314519Y-61334622D01*
X173519374Y-61241571D01*
X173519380Y-61241568D01*
X173704323Y-61113440D01*
X173704335Y-61113430D01*
X173863430Y-60954335D01*
X173863440Y-60954323D01*
X173991568Y-60769380D01*
X173991571Y-60769374D01*
X174084622Y-60564519D01*
X174139599Y-60346332D01*
X174149999Y-60214196D01*
X174150000Y-60214184D01*
X174150000Y-59650000D01*
X173333012Y-59650000D01*
X173365925Y-59592993D01*
X173400000Y-59465826D01*
X173400000Y-59334174D01*
X173365925Y-59207007D01*
X173333012Y-59150000D01*
X174149999Y-59150000D01*
X174149999Y-58585817D01*
X174149998Y-58585802D01*
X174139599Y-58453667D01*
X174084622Y-58235480D01*
X173991571Y-58030625D01*
X173991568Y-58030619D01*
X173863440Y-57845676D01*
X173863430Y-57845664D01*
X173704335Y-57686569D01*
X173704323Y-57686559D01*
X173519380Y-57558431D01*
X173519374Y-57558428D01*
X173314519Y-57465377D01*
X173096332Y-57410400D01*
X172964196Y-57400000D01*
X172150000Y-57400000D01*
X172150000Y-58900000D01*
X171650000Y-58900000D01*
X171650000Y-57400000D01*
X170835817Y-57400000D01*
X170835802Y-57400001D01*
X170703667Y-57410400D01*
X170485480Y-57465377D01*
X170280625Y-57558428D01*
X170280619Y-57558431D01*
X170095676Y-57686559D01*
X170095664Y-57686569D01*
X169936569Y-57845664D01*
X169936559Y-57845676D01*
X169808431Y-58030619D01*
X169808428Y-58030625D01*
X169715377Y-58235480D01*
X169660400Y-58453667D01*
X169650000Y-58585803D01*
X110199623Y-58585803D01*
X110199623Y-56002560D01*
X110199729Y-55997436D01*
X110202091Y-55940330D01*
X110205046Y-55868872D01*
X113499500Y-55868872D01*
X113499500Y-56131127D01*
X113526123Y-56333339D01*
X113533730Y-56391116D01*
X113545306Y-56434317D01*
X113601602Y-56644418D01*
X113601605Y-56644428D01*
X113701953Y-56886690D01*
X113701958Y-56886700D01*
X113833075Y-57113803D01*
X113992718Y-57321851D01*
X113992726Y-57321860D01*
X114178140Y-57507274D01*
X114178148Y-57507281D01*
X114386196Y-57666924D01*
X114613299Y-57798041D01*
X114613309Y-57798046D01*
X114855571Y-57898394D01*
X114855581Y-57898398D01*
X115108884Y-57966270D01*
X115368880Y-58000500D01*
X115368887Y-58000500D01*
X115631113Y-58000500D01*
X115631120Y-58000500D01*
X115891116Y-57966270D01*
X116144419Y-57898398D01*
X116386697Y-57798043D01*
X116613803Y-57666924D01*
X116821851Y-57507282D01*
X116821855Y-57507277D01*
X116821860Y-57507274D01*
X117007274Y-57321860D01*
X117007277Y-57321855D01*
X117007282Y-57321851D01*
X117166924Y-57113803D01*
X117298043Y-56886697D01*
X117398398Y-56644419D01*
X117466270Y-56391116D01*
X117500500Y-56131120D01*
X117500500Y-55868880D01*
X117466270Y-55608884D01*
X117398398Y-55355581D01*
X117396086Y-55349999D01*
X117298046Y-55113309D01*
X117298041Y-55113299D01*
X117166924Y-54886196D01*
X117044424Y-54726554D01*
X117007282Y-54678149D01*
X117007281Y-54678148D01*
X117007274Y-54678140D01*
X116821860Y-54492726D01*
X116821851Y-54492718D01*
X116613803Y-54333075D01*
X116386700Y-54201958D01*
X116386690Y-54201953D01*
X116144428Y-54101605D01*
X116144421Y-54101603D01*
X116144419Y-54101602D01*
X115891116Y-54033730D01*
X115833339Y-54026123D01*
X115631127Y-53999500D01*
X115631120Y-53999500D01*
X115368880Y-53999500D01*
X115368872Y-53999500D01*
X115137772Y-54029926D01*
X115108884Y-54033730D01*
X114855581Y-54101602D01*
X114855571Y-54101605D01*
X114613309Y-54201953D01*
X114613299Y-54201958D01*
X114386196Y-54333075D01*
X114178148Y-54492718D01*
X113992718Y-54678148D01*
X113833075Y-54886196D01*
X113701958Y-55113299D01*
X113701953Y-55113309D01*
X113601605Y-55355571D01*
X113601602Y-55355581D01*
X113544839Y-55567427D01*
X113533730Y-55608885D01*
X113499500Y-55868872D01*
X110205046Y-55868872D01*
X110217514Y-55567404D01*
X110218357Y-55557235D01*
X110271281Y-55132656D01*
X110272961Y-55122584D01*
X110360764Y-54703832D01*
X110363271Y-54693936D01*
X110485356Y-54283860D01*
X110488670Y-54274208D01*
X110644194Y-53875633D01*
X110648310Y-53866252D01*
X110663945Y-53834270D01*
X110679655Y-53802135D01*
X133949500Y-53802135D01*
X133949500Y-56897870D01*
X133949501Y-56897876D01*
X133955908Y-56957483D01*
X134006202Y-57092328D01*
X134006206Y-57092335D01*
X134092452Y-57207544D01*
X134092455Y-57207547D01*
X134207664Y-57293793D01*
X134207671Y-57293797D01*
X134342517Y-57344091D01*
X134342516Y-57344091D01*
X134349444Y-57344835D01*
X134402127Y-57350500D01*
X137497872Y-57350499D01*
X137557483Y-57344091D01*
X137692331Y-57293796D01*
X137807546Y-57207546D01*
X137893796Y-57092331D01*
X137944091Y-56957483D01*
X137950500Y-56897873D01*
X137950499Y-55349998D01*
X139024891Y-55349998D01*
X139024891Y-55350001D01*
X139045300Y-55635362D01*
X139106109Y-55914895D01*
X139206091Y-56182958D01*
X139343191Y-56434038D01*
X139343196Y-56434046D01*
X139449882Y-56576561D01*
X139449883Y-56576562D01*
X140344767Y-55681677D01*
X140356497Y-55709995D01*
X140439670Y-55834472D01*
X140545528Y-55940330D01*
X140670005Y-56023503D01*
X140698320Y-56035231D01*
X139803436Y-56930115D01*
X139945960Y-57036807D01*
X139945961Y-57036808D01*
X140197042Y-57173908D01*
X140197041Y-57173908D01*
X140465104Y-57273890D01*
X140744637Y-57334699D01*
X141029999Y-57355109D01*
X141030001Y-57355109D01*
X141315362Y-57334699D01*
X141594895Y-57273890D01*
X141862958Y-57173908D01*
X142114047Y-57036803D01*
X142256561Y-56930116D01*
X142256562Y-56930115D01*
X141361679Y-56035231D01*
X141389995Y-56023503D01*
X141514472Y-55940330D01*
X141620330Y-55834472D01*
X141703503Y-55709995D01*
X141715231Y-55681678D01*
X142610115Y-56576562D01*
X142610116Y-56576561D01*
X142716803Y-56434047D01*
X142853908Y-56182958D01*
X142953890Y-55914895D01*
X143014699Y-55635362D01*
X143035109Y-55350001D01*
X143035109Y-55349998D01*
X144104390Y-55349998D01*
X144104390Y-55350001D01*
X144124804Y-55635433D01*
X144185628Y-55915037D01*
X144185630Y-55915043D01*
X144185631Y-55915046D01*
X144238795Y-56057584D01*
X144285635Y-56183166D01*
X144422770Y-56434309D01*
X144422775Y-56434317D01*
X144594254Y-56663387D01*
X144594270Y-56663405D01*
X144796594Y-56865729D01*
X144796612Y-56865745D01*
X145025682Y-57037224D01*
X145025690Y-57037229D01*
X145276833Y-57174364D01*
X145276832Y-57174364D01*
X145276836Y-57174365D01*
X145276839Y-57174367D01*
X145544954Y-57274369D01*
X145544960Y-57274370D01*
X145544962Y-57274371D01*
X145824566Y-57335195D01*
X145824568Y-57335195D01*
X145824572Y-57335196D01*
X146078220Y-57353337D01*
X146109999Y-57355610D01*
X146110000Y-57355610D01*
X146110001Y-57355610D01*
X146138595Y-57353564D01*
X146395428Y-57335196D01*
X146456775Y-57321851D01*
X146675037Y-57274371D01*
X146675037Y-57274370D01*
X146675046Y-57274369D01*
X146943161Y-57174367D01*
X147194315Y-57037226D01*
X147423395Y-56865739D01*
X147625739Y-56663395D01*
X147797226Y-56434315D01*
X147934367Y-56183161D01*
X148034369Y-55915046D01*
X148034402Y-55914895D01*
X148044414Y-55868872D01*
X182999500Y-55868872D01*
X182999500Y-56131127D01*
X183026123Y-56333339D01*
X183033730Y-56391116D01*
X183045306Y-56434317D01*
X183101602Y-56644418D01*
X183101605Y-56644428D01*
X183201953Y-56886690D01*
X183201958Y-56886700D01*
X183333075Y-57113803D01*
X183492718Y-57321851D01*
X183492726Y-57321860D01*
X183678140Y-57507274D01*
X183678148Y-57507281D01*
X183886196Y-57666924D01*
X184113299Y-57798041D01*
X184113309Y-57798046D01*
X184355571Y-57898394D01*
X184355581Y-57898398D01*
X184608884Y-57966270D01*
X184868880Y-58000500D01*
X184868887Y-58000500D01*
X185131113Y-58000500D01*
X185131120Y-58000500D01*
X185391116Y-57966270D01*
X185644419Y-57898398D01*
X185886697Y-57798043D01*
X186113803Y-57666924D01*
X186321851Y-57507282D01*
X186321855Y-57507277D01*
X186321860Y-57507274D01*
X186507274Y-57321860D01*
X186507277Y-57321855D01*
X186507282Y-57321851D01*
X186666924Y-57113803D01*
X186798043Y-56886697D01*
X186898398Y-56644419D01*
X186966270Y-56391116D01*
X187000500Y-56131120D01*
X187000500Y-55868880D01*
X186966270Y-55608884D01*
X186898398Y-55355581D01*
X186896086Y-55349999D01*
X186798046Y-55113309D01*
X186798041Y-55113299D01*
X186666924Y-54886196D01*
X186544424Y-54726554D01*
X186507282Y-54678149D01*
X186507281Y-54678148D01*
X186507274Y-54678140D01*
X186321860Y-54492726D01*
X186321851Y-54492718D01*
X186113803Y-54333075D01*
X185886700Y-54201958D01*
X185886690Y-54201953D01*
X185644428Y-54101605D01*
X185644421Y-54101603D01*
X185644419Y-54101602D01*
X185391116Y-54033730D01*
X185333339Y-54026123D01*
X185131127Y-53999500D01*
X185131120Y-53999500D01*
X184868880Y-53999500D01*
X184868872Y-53999500D01*
X184637772Y-54029926D01*
X184608884Y-54033730D01*
X184355581Y-54101602D01*
X184355571Y-54101605D01*
X184113309Y-54201953D01*
X184113299Y-54201958D01*
X183886196Y-54333075D01*
X183678148Y-54492718D01*
X183492718Y-54678148D01*
X183333075Y-54886196D01*
X183201958Y-55113299D01*
X183201953Y-55113309D01*
X183101605Y-55355571D01*
X183101602Y-55355581D01*
X183044839Y-55567427D01*
X183033730Y-55608885D01*
X182999500Y-55868872D01*
X148044414Y-55868872D01*
X148095195Y-55635433D01*
X148095195Y-55635432D01*
X148095196Y-55635428D01*
X148115610Y-55350000D01*
X148095196Y-55064572D01*
X148039548Y-54808763D01*
X148034371Y-54784962D01*
X148034370Y-54784960D01*
X148034369Y-54784954D01*
X147934367Y-54516839D01*
X147921200Y-54492726D01*
X147797229Y-54265690D01*
X147797224Y-54265682D01*
X147625745Y-54036612D01*
X147625729Y-54036594D01*
X147423405Y-53834270D01*
X147423387Y-53834254D01*
X147194317Y-53662775D01*
X147194309Y-53662770D01*
X146943166Y-53525635D01*
X146943167Y-53525635D01*
X146825933Y-53481909D01*
X146675046Y-53425631D01*
X146675043Y-53425630D01*
X146675037Y-53425628D01*
X146395433Y-53364804D01*
X146110001Y-53344390D01*
X146109999Y-53344390D01*
X145824566Y-53364804D01*
X145544962Y-53425628D01*
X145276833Y-53525635D01*
X145025690Y-53662770D01*
X145025682Y-53662775D01*
X144796612Y-53834254D01*
X144796594Y-53834270D01*
X144594270Y-54036594D01*
X144594254Y-54036612D01*
X144422775Y-54265682D01*
X144422770Y-54265690D01*
X144285635Y-54516833D01*
X144185628Y-54784962D01*
X144124804Y-55064566D01*
X144104390Y-55349998D01*
X143035109Y-55349998D01*
X143014699Y-55064637D01*
X142953890Y-54785104D01*
X142853908Y-54517041D01*
X142716808Y-54265961D01*
X142716807Y-54265960D01*
X142610115Y-54123436D01*
X141715231Y-55018320D01*
X141703503Y-54990005D01*
X141620330Y-54865528D01*
X141514472Y-54759670D01*
X141389995Y-54676497D01*
X141361678Y-54664767D01*
X142256562Y-53769883D01*
X142256561Y-53769882D01*
X142114046Y-53663196D01*
X142114038Y-53663191D01*
X141862957Y-53526091D01*
X141862958Y-53526091D01*
X141594895Y-53426109D01*
X141315362Y-53365300D01*
X141030001Y-53344891D01*
X141029999Y-53344891D01*
X140744637Y-53365300D01*
X140465104Y-53426109D01*
X140197041Y-53526091D01*
X139945961Y-53663191D01*
X139945953Y-53663196D01*
X139803437Y-53769882D01*
X139803436Y-53769883D01*
X140698321Y-54664767D01*
X140670005Y-54676497D01*
X140545528Y-54759670D01*
X140439670Y-54865528D01*
X140356497Y-54990005D01*
X140344768Y-55018321D01*
X139449883Y-54123436D01*
X139449882Y-54123437D01*
X139343196Y-54265953D01*
X139343191Y-54265961D01*
X139206091Y-54517041D01*
X139106109Y-54785104D01*
X139045300Y-55064637D01*
X139024891Y-55349998D01*
X137950499Y-55349998D01*
X137950499Y-53802128D01*
X137944091Y-53742517D01*
X137914506Y-53663196D01*
X137893797Y-53607671D01*
X137893793Y-53607664D01*
X137807547Y-53492455D01*
X137807544Y-53492452D01*
X137692335Y-53406206D01*
X137692328Y-53406202D01*
X137557482Y-53355908D01*
X137557483Y-53355908D01*
X137497883Y-53349501D01*
X137497881Y-53349500D01*
X137497873Y-53349500D01*
X137497864Y-53349500D01*
X134402129Y-53349500D01*
X134402123Y-53349501D01*
X134342516Y-53355908D01*
X134207671Y-53406202D01*
X134207664Y-53406206D01*
X134092455Y-53492452D01*
X134092452Y-53492455D01*
X134006206Y-53607664D01*
X134006202Y-53607671D01*
X133955908Y-53742517D01*
X133949501Y-53802116D01*
X133949501Y-53802123D01*
X133949500Y-53802135D01*
X110679655Y-53802135D01*
X110836204Y-53481909D01*
X110841077Y-53472903D01*
X110841082Y-53472895D01*
X111060089Y-53105354D01*
X111065684Y-53096792D01*
X111314285Y-52748603D01*
X111320571Y-52740529D01*
X111597081Y-52414053D01*
X111604000Y-52406537D01*
X111906537Y-52104000D01*
X111914053Y-52097081D01*
X112240539Y-51820562D01*
X112248603Y-51814285D01*
X112596797Y-51565680D01*
X112605354Y-51560089D01*
X112972911Y-51341072D01*
X112981909Y-51336204D01*
X113366261Y-51148306D01*
X113375637Y-51144193D01*
X113375645Y-51144190D01*
X113774208Y-50988670D01*
X113783860Y-50985356D01*
X114193936Y-50863271D01*
X114203832Y-50860764D01*
X114622584Y-50772961D01*
X114632656Y-50771281D01*
X115057235Y-50718357D01*
X115067404Y-50717514D01*
X115497436Y-50699728D01*
X115502560Y-50699623D01*
X184917749Y-50699623D01*
X184917753Y-50699624D01*
G37*
G04 #@! TD.AperFunction*
M02*
