G04 #@! TF.GenerationSoftware,KiCad,Pcbnew,8.0.4*
G04 #@! TF.CreationDate,2024-07-20T21:58:40+05:30*
G04 #@! TF.ProjectId,OTAPS,4f544150-532e-46b6-9963-61645f706362,1*
G04 #@! TF.SameCoordinates,Original*
G04 #@! TF.FileFunction,Soldermask,Bot*
G04 #@! TF.FilePolarity,Negative*
%FSLAX46Y46*%
G04 Gerber Fmt 4.6, Leading zero omitted, Abs format (unit mm)*
G04 Created by KiCad (PCBNEW 8.0.4) date 2024-07-20 21:58:40*
%MOMM*%
%LPD*%
G01*
G04 APERTURE LIST*
G04 Aperture macros list*
%AMRoundRect*
0 Rectangle with rounded corners*
0 $1 Rounding radius*
0 $2 $3 $4 $5 $6 $7 $8 $9 X,Y pos of 4 corners*
0 Add a 4 corners polygon primitive as box body*
4,1,4,$2,$3,$4,$5,$6,$7,$8,$9,$2,$3,0*
0 Add four circle primitives for the rounded corners*
1,1,$1+$1,$2,$3*
1,1,$1+$1,$4,$5*
1,1,$1+$1,$6,$7*
1,1,$1+$1,$8,$9*
0 Add four rect primitives between the rounded corners*
20,1,$1+$1,$2,$3,$4,$5,0*
20,1,$1+$1,$4,$5,$6,$7,0*
20,1,$1+$1,$6,$7,$8,$9,0*
20,1,$1+$1,$8,$9,$2,$3,0*%
G04 Aperture macros list end*
%ADD10R,2.600000X2.600000*%
%ADD11C,2.600000*%
%ADD12C,3.200000*%
%ADD13R,1.800000X1.800000*%
%ADD14C,1.800000*%
%ADD15R,1.700000X1.700000*%
%ADD16O,1.700000X1.700000*%
%ADD17R,3.500000X3.500000*%
%ADD18RoundRect,0.750000X-1.000000X0.750000X-1.000000X-0.750000X1.000000X-0.750000X1.000000X0.750000X0*%
%ADD19RoundRect,0.875000X-0.875000X0.875000X-0.875000X-0.875000X0.875000X-0.875000X0.875000X0.875000X0*%
%ADD20R,3.000000X3.000000*%
%ADD21C,3.000000*%
%ADD22O,2.000000X1.200000*%
%ADD23C,1.700000*%
G04 APERTURE END LIST*
D10*
X115055000Y-112000000D03*
D11*
X115055000Y-107000000D03*
X115055000Y-102000000D03*
X115055000Y-97000000D03*
X115055000Y-92000000D03*
X115055000Y-87000000D03*
D12*
X185000000Y-128500000D03*
X115500000Y-128500000D03*
X185000000Y-56000000D03*
X115500000Y-56000000D03*
D13*
X178775000Y-122500000D03*
D14*
X176235000Y-122500000D03*
D13*
X175500000Y-116000000D03*
D14*
X172960000Y-116000000D03*
D15*
X130300000Y-127025000D03*
D16*
X127760000Y-127025000D03*
X125220000Y-127025000D03*
X122680000Y-127025000D03*
D17*
X171900000Y-65400000D03*
D18*
X171900000Y-59400000D03*
D19*
X167200000Y-62400000D03*
D13*
X179725000Y-116000000D03*
D14*
X182265000Y-116000000D03*
D20*
X114750000Y-77750000D03*
D21*
X114750000Y-72670000D03*
X114750000Y-67590000D03*
D13*
X179275000Y-109500000D03*
D14*
X176735000Y-109500000D03*
D22*
X161900000Y-83110000D03*
X161900000Y-85650000D03*
X161900000Y-88190000D03*
X161900000Y-90730000D03*
X161900000Y-93270000D03*
X161900000Y-95810000D03*
X161900000Y-98350000D03*
X161900000Y-100890000D03*
X187000000Y-100890000D03*
X187000000Y-98350000D03*
X187000000Y-95810000D03*
X187000000Y-93270000D03*
X187000000Y-90730000D03*
X187000000Y-88190000D03*
X187000000Y-85650000D03*
X187000000Y-83110000D03*
D15*
X132250000Y-69260000D03*
D23*
X132250000Y-71800000D03*
X132250000Y-74340000D03*
X132250000Y-76880000D03*
X132250000Y-79420000D03*
X132250000Y-81960000D03*
X132250000Y-84500000D03*
X132250000Y-87040000D03*
X132250000Y-89580000D03*
X132250000Y-92120000D03*
X132250000Y-94660000D03*
X132250000Y-97200000D03*
X132250000Y-99740000D03*
X132250000Y-102280000D03*
X132250000Y-104820000D03*
X132250000Y-107360000D03*
X132250000Y-109900000D03*
X132250000Y-112440000D03*
X132250000Y-114980000D03*
X132250000Y-117520000D03*
X147490000Y-117520000D03*
X147490000Y-114980000D03*
X147490000Y-112440000D03*
X147490000Y-109900000D03*
X147490000Y-107360000D03*
X147490000Y-104820000D03*
X147490000Y-102280000D03*
X147490000Y-99740000D03*
X147490000Y-97200000D03*
X147490000Y-94660000D03*
X147490000Y-92120000D03*
X147490000Y-89580000D03*
X147490000Y-87040000D03*
X147490000Y-84500000D03*
X147490000Y-81960000D03*
X147490000Y-79420000D03*
X147490000Y-76880000D03*
X147490000Y-74340000D03*
X147490000Y-71800000D03*
X147490000Y-69260000D03*
M02*
