M48
; DRILL file {KiCad 8.0.4} date 2024-07-20T22:01:03+0530
; FORMAT={-:-/ absolute / inch / decimal}
; #@! TF.CreationDate,2024-07-20T22:01:03+05:30
; #@! TF.GenerationSoftware,Kicad,Pcbnew,8.0.4
; #@! TF.FileFunction,MixedPlating,1,2
FMAT,2
INCH
; #@! TA.AperFunction,Plated,PTH,ViaDrill
T1C0.0157
; #@! TA.AperFunction,Plated,PTH,ComponentDrill
T2C0.0315
; #@! TA.AperFunction,Plated,PTH,ComponentDrill
T3C0.0354
; #@! TA.AperFunction,Plated,PTH,ComponentDrill
T4C0.0394
; #@! TA.AperFunction,Plated,PTH,ComponentDrill
T5C0.0512
; #@! TA.AperFunction,Plated,PTH,ComponentDrill
T6C0.0598
; #@! TA.AperFunction,NonPlated,NPTH,ComponentDrill
T7C0.1260
%
G90
G05
T1
X6.122Y-2.4016
X6.2205Y-2.2205
X6.3189Y-2.4016
X6.3976Y-2.9134
X6.4016Y-2.9843
X6.4961Y-2.9921
X6.6043Y-3.2776
X6.6929Y-3.3661
X6.8898Y-2.7756
X6.9606Y-2.8071
X7.0197Y-2.7756
T2
X6.374Y-3.272
X6.374Y-3.372
X6.374Y-3.472
X6.374Y-3.572
X6.374Y-3.672
X6.374Y-3.772
X6.374Y-3.872
X6.374Y-3.972
X7.3622Y-3.272
X7.3622Y-3.372
X7.3622Y-3.472
X7.3622Y-3.572
X7.3622Y-3.672
X7.3622Y-3.772
X7.3622Y-3.872
X7.3622Y-3.972
T3
X6.8094Y-4.5669
X6.9094Y-4.5669
X6.9384Y-4.8228
X6.9581Y-4.311
X7.0384Y-4.8228
X7.0581Y-4.311
X7.0758Y-4.5669
X7.1758Y-4.5669
T4
X4.8299Y-5.001
X4.9299Y-5.001
X5.0299Y-5.001
X5.1299Y-5.001
X5.2067Y-2.7268
X5.2067Y-2.8268
X5.2067Y-2.9268
X5.2067Y-3.0268
X5.2067Y-3.1268
X5.2067Y-3.2268
X5.2067Y-3.3268
X5.2067Y-3.4268
X5.2067Y-3.5268
X5.2067Y-3.6268
X5.2067Y-3.7268
X5.2067Y-3.8268
X5.2067Y-3.9268
X5.2067Y-4.0268
X5.2067Y-4.1268
X5.2067Y-4.2268
X5.2067Y-4.3268
X5.2067Y-4.4268
X5.2067Y-4.5268
X5.2067Y-4.6268
X5.8067Y-2.7268
X5.8067Y-2.8268
X5.8067Y-2.9268
X5.8067Y-3.0268
X5.8067Y-3.1268
X5.8067Y-3.2268
X5.8067Y-3.3268
X5.8067Y-3.4268
X5.8067Y-3.5268
X5.8067Y-3.6268
X5.8067Y-3.7268
X5.8067Y-3.8268
X5.8067Y-3.9268
X5.8067Y-4.0268
X5.8067Y-4.1268
X5.8067Y-4.2268
X5.8067Y-4.3268
X5.8067Y-4.4268
X5.8067Y-4.5268
X5.8067Y-4.6268
T5
X4.5297Y-3.4252
X4.5297Y-3.622
X4.5297Y-3.8189
X4.5297Y-4.0157
X4.5297Y-4.2126
X4.5297Y-4.4094
T6
X4.5177Y-2.661
X4.5177Y-2.861
X4.5177Y-3.061
T7
X4.5472Y-2.2047
X4.5472Y-5.0591
X7.2835Y-2.2047
X7.2835Y-5.0591
T4
X6.5827Y-2.4173G85X6.5827Y-2.4961
G05
X6.8071Y-2.3386G85X6.7283Y-2.3386
G05
X6.8071Y-2.5748G85X6.7283Y-2.5748
G05
M30
